<svg id="图层_1" data-name="图层 1" xmlns="http://www.w3.org/2000/svg" viewBox="0 0 1152 576"><defs><style>.cls-1,.cls-7{fill:#fff;}.cls-2,.cls-3{fill:#e8e2e1;}.cls-10,.cls-3,.cls-7{fill-rule:evenodd;}.cls-11,.cls-4,.cls-5,.cls-6,.cls-8{fill:none;stroke:#0f577e;stroke-linejoin:bevel;}.cls-11,.cls-4,.cls-5,.cls-6{stroke-linecap:round;}.cls-4{stroke-width:0.24px;}.cls-5{stroke-width:0.69px;}.cls-6{stroke-width:0.46px;}.cls-8{stroke-width:0;}.cls-10,.cls-17,.cls-9{fill:#0f577e;}.cls-11{stroke-width:0.93px;}.cls-12,.cls-17,.cls-28{font-size:6.6px;font-family:CenturyGothic, Century Gothic;}.cls-12{fill:#0c5275;}.cls-13{letter-spacing:0.01em;}.cls-14{letter-spacing:0em;}.cls-15{letter-spacing:0em;}.cls-16{letter-spacing:0em;}.cls-18{letter-spacing:0em;}.cls-19{letter-spacing:-0.01em;}.cls-20{letter-spacing:0em;}.cls-21{letter-spacing:0em;}.cls-22{letter-spacing:-0.01em;}.cls-23{letter-spacing:0.01em;}.cls-24{letter-spacing:-0.01em;}.cls-25{letter-spacing:0.01em;}.cls-26{letter-spacing:-0.01em;}.cls-27{letter-spacing:0em;}.cls-28,.cls-35{fill:#0e5579;}.cls-29{letter-spacing:0.27em;}.cls-30{letter-spacing:0.28em;}.cls-31{letter-spacing:0.01em;}.cls-32{letter-spacing:0.01em;}.cls-33{letter-spacing:0em;}.cls-34{letter-spacing:0.01em;}</style></defs><title>2 extension on back</title><g id="_2_extension_on_back" data-name="2 extension on back"><rect class="cls-1" x="526.24" y="238.51" width="49.26" height="14.92"/><rect class="cls-1" x="603.46" y="264.8" width="49.26" height="14.92"/><rect class="cls-1" x="698.52" y="175.7" width="59.48" height="55.27"/><rect class="cls-1" x="499.47" y="175.7" width="199.43" height="31.16"/><rect class="cls-1" x="413.94" y="175.7" width="82.68" height="31.16"/><rect class="cls-1" x="533.28" y="152.43" width="138.94" height="31.16"/><polygon class="cls-2" points="667.79 187.74 667.83 187.78 667.83 187.83 667.88 187.83 667.92 187.87 668 187.87 667.79 187.7 667.79 187.74"/><polyline class="cls-3" points="712.48 174.83 712.48 187.87 668 187.87 667.79 187.7 667.79 174.83 702.03 174.83"/><polyline class="cls-3" points="699.48 205.93 712.35 205.93 712.35 219.51 699.48 219.51 699.27 219.3 699.27 206.09"/><rect class="cls-1" x="702.03" y="174.83" width="10.45" height="12.54"/><line class="cls-4" x1="702.03" y1="187.37" x2="704.49" y2="187.37"/><line class="cls-4" x1="706.37" y1="187.37" x2="708.26" y2="187.37"/><line class="cls-4" x1="710.14" y1="187.37" x2="712.48" y2="187.37"/><rect class="cls-1" x="680.88" y="174.83" width="19.19" height="12.54"/><line class="cls-4" x1="683.8" y1="187.37" x2="685.68" y2="187.37"/><line class="cls-4" x1="687.56" y1="187.37" x2="689.45" y2="187.37"/><line class="cls-4" x1="691.33" y1="187.37" x2="693.21" y2="187.37"/><line class="cls-4" x1="695.09" y1="187.37" x2="696.97" y2="187.37"/><line class="cls-4" x1="680.88" y1="187.37" x2="682.42" y2="187.37"/><line class="cls-4" x1="700.06" y1="187.37" x2="698.52" y2="187.37"/><rect class="cls-1" x="668.34" y="174.83" width="12.54" height="12.54"/><line class="cls-4" x1="668.34" y1="177" x2="668.34" y2="178.88"/><line class="cls-4" x1="668.34" y1="180.76" x2="668.34" y2="182.64"/><line class="cls-4" x1="668.34" y1="184.52" x2="668.34" y2="187.37"/><line class="cls-5" x1="668.34" y1="174.83" x2="668.34" y2="176.37"/><line class="cls-4" x1="668.34" y1="187.37" x2="670.64" y2="187.37"/><line class="cls-4" x1="672.52" y1="187.37" x2="674.4" y2="187.37"/><line class="cls-4" x1="676.28" y1="187.37" x2="678.16" y2="187.37"/><line class="cls-4" x1="680.88" y1="187.37" x2="679.29" y2="187.37"/><polyline class="cls-4" points="668.42 187.91 668.38 187.91 668.38 187.41 680.79 187.41 680.79 187.91"/><polyline class="cls-4" points="680.79 187.91 668.38 187.91 668.42 188.04 680.75 188.04"/><line class="cls-6" x1="680.42" y1="175.62" x2="680.42" y2="176.16"/><polygon class="cls-1" points="680.75 187.91 680.75 188.04 680.79 187.91 680.75 187.91"/><polyline class="cls-4" points="680.75 187.91 680.79 187.91 680.75 188.04 680.75 187.91"/><line class="cls-4" x1="680.42" y1="176.67" x2="680.42" y2="177.21"/><line class="cls-6" x1="668.8" y1="176.16" x2="668.8" y2="175.62"/><line class="cls-6" x1="678.24" y1="175.45" x2="678.75" y2="175.45"/><line class="cls-6" x1="668.84" y1="175.45" x2="669.34" y2="175.45"/><line class="cls-6" x1="669.88" y1="175.45" x2="670.39" y2="175.45"/><line class="cls-6" x1="670.93" y1="175.45" x2="671.43" y2="175.45"/><line class="cls-6" x1="671.97" y1="175.45" x2="672.48" y2="175.45"/><line class="cls-6" x1="673.02" y1="175.45" x2="673.52" y2="175.45"/><line class="cls-6" x1="674.06" y1="175.45" x2="674.57" y2="175.45"/><line class="cls-6" x1="675.11" y1="175.45" x2="675.61" y2="175.45"/><line class="cls-6" x1="676.15" y1="175.45" x2="676.66" y2="175.45"/><line class="cls-6" x1="677.2" y1="175.45" x2="677.7" y2="175.45"/><line class="cls-6" x1="680.29" y1="175.45" x2="680.42" y2="175.45"/><line class="cls-6" x1="679.25" y1="175.45" x2="679.79" y2="175.45"/><rect class="cls-1" x="668.38" y="187.41" width="12.42" height="0.63"/><line class="cls-4" x1="680.79" y1="187.41" x2="680.79" y2="188.03"/><polyline class="cls-4" points="680.79 188.04 668.38 188.04 668.38 187.41"/><line class="cls-4" x1="668.38" y1="187.41" x2="680.79" y2="187.41"/><polyline class="cls-7" points="669.51 188.04 670.63 188.04 671.55 188.5 671.39 189.12 670.43 188.62"/><polygon class="cls-1" points="671.39 189.12 672.43 189.46 672.56 188.79 671.56 188.5 671.39 189.12"/><polygon class="cls-1" points="672.43 189.46 673.52 189.67 673.56 189 672.56 188.79 672.43 189.46"/><polygon class="cls-1" points="673.52 189.67 674.61 189.75 674.61 189.08 673.56 189 673.52 189.67"/><polygon class="cls-1" points="674.61 189.08 674.61 189.75 675.69 189.67 675.65 189 674.61 189.08"/><polygon class="cls-1" points="675.65 189 675.69 189.67 676.78 189.46 676.66 188.79 675.65 189"/><polygon class="cls-1" points="676.65 188.79 676.78 189.46 677.82 189.12 677.62 188.5 676.65 188.79"/><polyline class="cls-7" points="677.83 189.12 677.62 188.5 678.53 188.04 679.71 188.04 678.79 188.62"/><line class="cls-4" x1="670.64" y1="188.04" x2="671.3" y2="188.37"/><polyline class="cls-4" points="671.3 188.37 671.97 188.62 672.56 188.79 673.18 188.96 673.77 189.04 674.4 189.08"/><polyline class="cls-4" points="674.4 189.08 675.02 189.08 675.65 189"/><polyline class="cls-4" points="675.65 189 676.28 188.91 676.9 188.75 677.45 188.54"/><polyline class="cls-4" points="677.45 188.54 678.03 188.29 678.54 188.04"/><polyline class="cls-4" points="678.53 188.04 679.71 188.04 679.62 188.08"/><polyline class="cls-4" points="679.62 188.08 678.95 188.54 678.2 188.96 677.45 189.25 676.61 189.5 675.82 189.67 674.98 189.75"/><polyline class="cls-4" points="674.98 189.75 674.15 189.75 673.31 189.67"/><polyline class="cls-4" points="673.31 189.67 672.52 189.5 671.68 189.25 670.93 188.91 670.22 188.5"/><line class="cls-4" x1="670.22" y1="188.5" x2="669.51" y2="188.03"/><line class="cls-4" x1="669.51" y1="188.04" x2="670.64" y2="188.04"/><line class="cls-4" x1="668.8" y1="187.41" x2="668.8" y2="186.95"/><line class="cls-4" x1="668.8" y1="186.61" x2="668.8" y2="186.07"/><line class="cls-4" x1="668.8" y1="185.57" x2="668.8" y2="185.03"/><line class="cls-4" x1="668.8" y1="184.52" x2="668.8" y2="183.98"/><line class="cls-4" x1="668.8" y1="183.48" x2="668.8" y2="182.94"/><line class="cls-4" x1="668.8" y1="182.43" x2="668.8" y2="181.89"/><line class="cls-4" x1="668.8" y1="181.39" x2="668.8" y2="180.85"/><line class="cls-4" x1="668.8" y1="180.34" x2="668.8" y2="179.8"/><line class="cls-4" x1="668.8" y1="179.3" x2="668.8" y2="178.76"/><line class="cls-4" x1="668.8" y1="178.25" x2="668.8" y2="177.71"/><line class="cls-4" x1="668.8" y1="177.21" x2="668.8" y2="176.67"/><line class="cls-4" x1="680.42" y1="186.95" x2="680.42" y2="187.41"/><line class="cls-4" x1="680.42" y1="186.07" x2="680.42" y2="186.61"/><line class="cls-4" x1="680.42" y1="185.03" x2="680.42" y2="185.57"/><line class="cls-4" x1="680.42" y1="183.98" x2="680.42" y2="184.52"/><line class="cls-4" x1="680.42" y1="182.94" x2="680.42" y2="183.48"/><line class="cls-4" x1="680.42" y1="181.89" x2="680.42" y2="182.43"/><line class="cls-4" x1="680.42" y1="180.85" x2="680.42" y2="181.39"/><line class="cls-4" x1="680.42" y1="179.8" x2="680.42" y2="180.34"/><line class="cls-4" x1="680.42" y1="178.76" x2="680.42" y2="179.3"/><line class="cls-4" x1="680.42" y1="177.71" x2="680.42" y2="178.25"/><rect class="cls-1" x="700.06" y="174.83" width="1.96" height="12.54"/><line class="cls-4" x1="700.06" y1="187.37" x2="702.03" y2="187.37"/><polyline class="cls-4" points="712.48 187.87 702.03 187.87 700.06 187.87 680.88 187.87 668 187.87 667.96 187.87 667.92 187.87"/><polyline class="cls-4" points="667.92 187.87 667.88 187.87 667.88 187.83 667.84 187.83 667.84 187.78 667.79 187.74"/><polyline class="cls-4" points="667.79 187.74 667.79 187.7 667.79 174.83"/><polyline class="cls-5" points="667.79 174.83 680.88 174.83 700.06 174.83 700.06 174.49 700.06 174.45"/><polyline class="cls-5" points="701.99 174.37 702.03 174.41 702.03 174.45 702.03 174.49 702.03 174.83 712.48 174.83 712.48 187.87"/><polyline class="cls-4" points="699.35 205.93 699.39 205.93 699.44 205.93 699.48 205.93 712.35 205.93"/><line class="cls-6" x1="717.45" y1="189.46" x2="721.63" y2="189.46"/><rect class="cls-1" x="620.43" y="159.65" width="31.35" height="18.77"/><polyline class="cls-4" points="620.43 178.42 620.43 159.65 651.78 159.65"/><polyline class="cls-4" points="651.78 159.65 651.78 178.42 620.43 178.42"/><polyline class="cls-7" points="618.76 169.06 618.72 163 618.76 163.21"/><polyline class="cls-7" points="618.72 163 618.76 169.06 618.76 174.87 618.72 175.08 618.55 175.2 618.39 175.29 606.64 175.29 606.47 175.2 606.35 175.08 606.26 174.87 606.26 169.06 606.35 163 606.47 162.87 606.64 162.79 618.39 162.79 618.55 162.87"/><polyline class="cls-7" points="606.35 163 606.26 169.06 606.26 163.21"/><polyline class="cls-4" points="606.64 162.79 612.53 162.79 618.38 162.79"/><polyline class="cls-4" points="618.39 162.79 618.55 162.87 618.72 163"/><polyline class="cls-4" points="618.72 163 618.76 163.21 618.76 169.06"/><line class="cls-4" x1="618.76" y1="169.06" x2="618.76" y2="174.87"/><polyline class="cls-4" points="618.76 174.87 618.72 175.08 618.55 175.2"/><polyline class="cls-4" points="618.55 175.2 618.39 175.29 612.53 175.29"/><line class="cls-4" x1="612.53" y1="175.29" x2="606.64" y2="175.29"/><polyline class="cls-4" points="606.64 175.29 606.47 175.2 606.35 175.08 606.26 174.87 606.26 169.06"/><polyline class="cls-4" points="606.26 169.06 606.26 163.21 606.35 163 606.47 162.87 606.64 162.79"/><polyline class="cls-4" points="618.72 175.12 618.76 175.16 618.8 175.2 619.18 175.41"/><polyline class="cls-4" points="619.18 175.41 619.1 175.41 618.72 175.24"/><polyline class="cls-4" points="619.18 175.41 619.14 175.2 619.01 172.82 618.97 169.06"/><line class="cls-4" x1="618.97" y1="169.06" x2="619.01" y2="165.25"/><polyline class="cls-4" points="619.01 165.25 619.14 162.87 619.18 162.66 618.8 162.91 618.76 162.91 618.72 162.95"/><polyline class="cls-4" points="606.35 162.96 606.26 162.91 605.89 162.66"/><polyline class="cls-4" points="606.35 175.12 606.26 175.16 606.26 175.2 605.89 175.41 605.97 175.41 606.31 175.24"/><polyline class="cls-4" points="606.31 162.87 605.97 162.66 605.89 162.66 605.89 162.87 606.05 165.25 606.05 169.06 606.05 172.82 605.89 175.2 605.89 175.41"/><polyline class="cls-4" points="606.31 162.87 606.35 162.83 606.6 162.2 606.68 162.2 612.53 162.37"/><line class="cls-4" x1="612.53" y1="162.37" x2="618.34" y2="162.2"/><polyline class="cls-4" points="618.34 162.2 618.47 162.2 618.68 162.83 618.72 162.87"/><polyline class="cls-4" points="619.18 162.66 619.1 162.66 618.72 162.87"/><line class="cls-4" x1="618.72" y1="175.2" x2="618.68" y2="175.24"/><line class="cls-4" x1="618.68" y1="175.24" x2="618.47" y2="175.91"/><polyline class="cls-4" points="618.47 175.91 618.34 175.91 612.53 175.7"/><polyline class="cls-4" points="612.53 175.7 606.68 175.91 606.6 175.91 606.35 175.24 606.31 175.2"/><polyline class="cls-4" points="618.68 175.29 618.72 175.29 618.93 175.33"/><polyline class="cls-4" points="606.1 175.33 606.31 175.29 606.35 175.29"/><polyline class="cls-4" points="618.93 162.75 618.72 162.83 618.68 162.83"/><polyline class="cls-4" points="606.35 162.83 606.31 162.83 606.1 162.75"/><polyline class="cls-7" points="653.96 169.06 654.04 175.08 653.96 174.87"/><polyline class="cls-7" points="654.04 175.08 653.96 169.06 653.96 163.21 654.04 163 654.17 162.87 654.33 162.79 666.08 162.79 666.25 162.87 666.37 163 666.46 163.21 666.46 169.06 666.37 175.08 666.25 175.2 666.08 175.29 654.33 175.29 654.17 175.2"/><polyline class="cls-7" points="666.37 175.08 666.46 169.06 666.46 174.87"/><line class="cls-4" x1="666.08" y1="175.29" x2="660.19" y2="175.29"/><polyline class="cls-4" points="660.18 175.29 654.33 175.29 654.17 175.2 654.04 175.08"/><polyline class="cls-4" points="654.04 175.08 653.96 174.87 653.96 169.06"/><polyline class="cls-4" points="653.96 169.06 653.96 163.21 654.04 163 654.17 162.87 654.33 162.79 660.18 162.79 666.08 162.79"/><polyline class="cls-5" points="666.08 162.79 666.25 162.87 666.37 163"/><polyline class="cls-5" points="666.37 163 666.46 163.21 666.46 169.06"/><line class="cls-5" x1="666.45" y1="169.06" x2="666.45" y2="174.87"/><polyline class="cls-5" points="666.46 174.87 666.37 175.08 666.25 175.2 666.08 175.29"/><polyline class="cls-4" points="654 162.96 653.96 162.91 653.54 162.66 653.62 162.66 654 162.87"/><polyline class="cls-4" points="653.54 162.66 653.58 162.87 653.71 165.25 653.75 169.06 653.71 172.82 653.58 175.2 653.54 175.41 653.96 175.2 653.96 175.16 654 175.12"/><polyline class="cls-5" points="666.37 175.12 666.46 175.16 666.46 175.2 666.83 175.41"/><polyline class="cls-5" points="666.37 162.96 666.46 162.91 666.83 162.66"/><polyline class="cls-5" points="666.83 162.66 666.75 162.66 666.41 162.87"/><line class="cls-5" x1="666.41" y1="175.24" x2="666.75" y2="175.41"/><polyline class="cls-5" points="666.75 175.41 666.83 175.41 666.83 175.2 666.66 172.82"/><line class="cls-4" x1="666.66" y1="172.82" x2="666.66" y2="169.06"/><line class="cls-5" x1="666.66" y1="169.06" x2="666.66" y2="165.25"/><line class="cls-4" x1="666.66" y1="165.25" x2="666.83" y2="162.87"/><line class="cls-5" x1="666.83" y1="162.87" x2="666.83" y2="162.66"/><line class="cls-5" x1="666.41" y1="175.2" x2="666.37" y2="175.24"/><line class="cls-5" x1="666.37" y1="175.24" x2="666.12" y2="175.91"/><line class="cls-5" x1="666.12" y1="175.91" x2="666.04" y2="175.91"/><line class="cls-4" x1="666.04" y1="175.91" x2="660.19" y2="175.7"/><line class="cls-4" x1="660.18" y1="175.7" x2="654.38" y2="175.91"/><polyline class="cls-4" points="654.38 175.91 654.29 175.91 654.04 175.24"/><line class="cls-4" x1="654.04" y1="175.24" x2="654" y2="175.2"/><polyline class="cls-4" points="653.54 175.41 653.62 175.41 654 175.24"/><polyline class="cls-4" points="654 162.87 654.04 162.83 654.29 162.2 654.38 162.2 660.18 162.37"/><line class="cls-4" x1="660.18" y1="162.37" x2="666.04" y2="162.2"/><polyline class="cls-5" points="666.04 162.2 666.12 162.2 666.37 162.83"/><line class="cls-5" x1="666.37" y1="162.83" x2="666.41" y2="162.87"/><polyline class="cls-4" points="654.04 162.83 654 162.83 653.79 162.75"/><polyline class="cls-5" points="666.62 162.75 666.41 162.83 666.37 162.83"/><polyline class="cls-4" points="653.79 175.33 654 175.29 654.04 175.29"/><polyline class="cls-5" points="666.37 175.29 666.41 175.29 666.62 175.33"/><polyline class="cls-7" points="682.42 175.45 682.55 175.33 697.72 175.33 697.85 175.45 697.85 187.74 697.72 187.87 682.55 187.87 682.42 187.74"/><polyline class="cls-6" points="682.55 175.33 697.72 175.33 697.85 175.45"/><polyline class="cls-4" points="697.85 175.45 697.85 187.74 697.72 187.87"/><line class="cls-4" x1="697.72" y1="187.87" x2="682.55" y2="187.87"/><line class="cls-4" x1="682.55" y1="187.87" x2="682.42" y2="187.74"/><line class="cls-4" x1="682.42" y1="187.74" x2="682.42" y2="175.45"/><polyline class="cls-4" points="683.01 186.74 683.34 186.45 683.34 177.25 696.93 177.25 697.26 176.96"/><polyline class="cls-4" points="697.26 176.96 697.26 186.74 683.01 186.74 683.01 176.96 697.26 176.96"/><rect class="cls-1" x="683.26" y="177.21" width="13.75" height="9.28"/><polygon class="cls-4" points="683.26 177.21 697.01 177.21 697.01 186.49 683.26 186.49 683.01 176.96 683.26 177.21"/><path class="cls-4" d="M693.41,179.38h0a.86.86,0,1,0,.86.86A.86.86,0,0,0,693.39,179.38Z"/><path class="cls-4" d="M693.42,179.55h0a.69.69,0,1,0,.68.69A.69.69,0,0,0,693.4,179.55Z"/><rect class="cls-1" x="688.48" y="177.5" width="0.04" height="0.13"/><rect class="cls-1" x="688.78" y="177.5" width="0.04" height="0.13"/><rect class="cls-1" x="688.53" y="177.5" width="0.25" height="0.13"/><polyline class="cls-4" points="688.53 177.63 688.48 177.63 688.48 177.59"/><polyline class="cls-4" points="688.48 177.58 688.48 177.54 688.48 177.5 688.53 177.5 688.78 177.5"/><polyline class="cls-4" points="688.78 177.5 688.82 177.5 688.82 177.54"/><polyline class="cls-4" points="688.82 177.54 688.82 177.58 688.82 177.63 688.78 177.63 688.53 177.63"/><polyline class="cls-7" points="688.44 179.22 688.82 179.22 688.73 179.26 688.53 179.26 688.48 179.22"/><polyline class="cls-7" points="688.53 177.63 688.78 177.63 688.82 179.22 688.44 179.22"/><polyline class="cls-4" points="688.78 177.63 688.82 179.22 688.78 179.22 688.73 179.26"/><polyline class="cls-4" points="688.73 179.26 688.69 179.26 688.65 179.26 688.61 179.26 688.57 179.26 688.53 179.26 688.48 179.22 688.44 179.22 688.53 177.63 688.78 177.63"/><polyline class="cls-7" points="691.16 179.22 691.58 179.22 691.54 179.22 691.49 179.26 691.24 179.26 691.2 179.22"/><polyline class="cls-7" points="691.16 179.22 691.24 177.63 691.49 177.63 691.58 179.22"/><polyline class="cls-4" points="691.24 177.63 691.49 177.63 691.58 179.22 691.53 179.22 691.49 179.26"/><polyline class="cls-4" points="691.49 179.26 691.45 179.26 691.37 179.26 691.33 179.26 691.28 179.26 691.24 179.26 691.2 179.22 691.16 179.22"/><line class="cls-4" x1="691.16" y1="179.21" x2="691.24" y2="177.63"/><polyline class="cls-7" points="689.24 177.17 689.15 177.17 689.15 177.21 689.07 177.21 689.03 177.25 688.99 177.25 688.99 177.29 688.94 177.29 688.9 177.33 688.9 177.38 688.86 177.38 688.86 177.46 688.82 177.5 688.82 177.67 688.86 177.67 688.86 177.75 688.9 177.79 688.9 177.84 688.94 177.84 688.94 177.88 688.99 177.88 689.03 177.92 689.07 177.92 689.11 177.96 689.32 177.96 689.36 177.92 689.45 177.92 689.45 177.88 689.49 177.88 689.49 177.84 689.53 177.84 689.53 177.79 689.57 177.79 689.57 177.71 689.61 177.71 689.61 177.46 689.57 177.42 689.57 177.38 689.53 177.33 689.49 177.29 689.45 177.25 689.4 177.25 689.4 177.21 689.28 177.21 689.28 177.17"/><polyline class="cls-4" points="689.24 177.17 689.19 177.17 689.15 177.17 689.15 177.21 689.11 177.21 689.07 177.21"/><polyline class="cls-4" points="689.07 177.21 689.03 177.25 688.99 177.25 688.99 177.29"/><polyline class="cls-4" points="688.99 177.29 688.94 177.29 688.9 177.33"/><line class="cls-4" x1="688.9" y1="177.33" x2="688.9" y2="177.37"/><polyline class="cls-4" points="688.9 177.38 688.86 177.38 688.86 177.42 688.86 177.46 688.82 177.5 688.82 177.54"/><polyline class="cls-4" points="688.82 177.54 688.82 177.58 688.82 177.63 688.82 177.67 688.86 177.67 688.86 177.71 688.86 177.75"/><line class="cls-4" x1="688.86" y1="177.75" x2="688.9" y2="177.79"/><polyline class="cls-4" points="688.9 177.79 688.9 177.84 688.94 177.84 688.94 177.88 688.99 177.88 689.03 177.92"/><polyline class="cls-4" points="689.03 177.92 689.07 177.92 689.11 177.96"/><polyline class="cls-4" points="689.11 177.96 689.15 177.96 689.19 177.96 689.24 177.96 689.28 177.96 689.32 177.96 689.36 177.92 689.4 177.92 689.45 177.92 689.45 177.88 689.49 177.88 689.49 177.84 689.53 177.84 689.53 177.79 689.57 177.79 689.57 177.75 689.57 177.71 689.61 177.71 689.61 177.67 689.61 177.63"/><line class="cls-4" x1="689.61" y1="177.63" x2="689.61" y2="177.58"/><polyline class="cls-4" points="689.61 177.58 689.61 177.54 689.61 177.5 689.61 177.46 689.57 177.42"/><polyline class="cls-4" points="689.57 177.42 689.57 177.38 689.53 177.33 689.49 177.29 689.45 177.25 689.4 177.25 689.4 177.21 689.36 177.21 689.32 177.21 689.28 177.21 689.28 177.17"/><line class="cls-4" x1="689.28" y1="177.17" x2="689.24" y2="177.17"/><path class="cls-7" d="M690,177.17h0v0h-.13v0h0a.4.4,0,0,0-.17.42v0h0v.08h.05v0h0v0h0v0h.08v0h.25l0,0h0l0,0h0v0h0v0l0,0v-.08h0v-.17l0,0v-.08h0v0l0,0h0v0h0l0,0h-.09v0h0"/><polyline class="cls-4" points="689.99 177.17 689.95 177.17 689.95 177.21 689.9 177.21 689.86 177.21 689.82 177.21 689.82 177.25 689.78 177.25 689.74 177.29"/><line class="cls-4" x1="689.74" y1="177.29" x2="689.7" y2="177.33"/><line class="cls-4" x1="689.7" y1="177.33" x2="689.65" y2="177.37"/><polyline class="cls-4" points="689.65 177.38 689.65 177.42 689.61 177.46 689.61 177.5 689.61 177.54"/><polyline class="cls-4" points="689.61 177.54 689.61 177.58 689.61 177.63 689.61 177.67 689.61 177.71 689.65 177.71 689.65 177.75"/><line class="cls-4" x1="689.65" y1="177.75" x2="689.65" y2="177.79"/><polyline class="cls-4" points="689.65 177.79 689.7 177.79 689.7 177.84 689.74 177.84 689.74 177.88 689.78 177.88 689.78 177.92"/><polyline class="cls-4" points="689.78 177.92 689.82 177.92 689.86 177.92 689.86 177.96"/><polyline class="cls-4" points="689.86 177.96 689.9 177.96 689.95 177.96 689.99 177.96 690.03 177.96 690.07 177.96 690.11 177.96 690.16 177.92 690.2 177.92 690.24 177.88 690.28 177.88 690.28 177.84 690.32 177.84 690.32 177.79 690.37 177.75 690.37 177.71 690.37 177.67 690.41 177.67 690.41 177.63"/><line class="cls-4" x1="690.41" y1="177.63" x2="690.41" y2="177.58"/><polyline class="cls-4" points="690.41 177.58 690.41 177.54 690.41 177.5 690.37 177.46 690.37 177.42"/><polyline class="cls-4" points="690.37 177.42 690.37 177.38 690.32 177.38 690.32 177.33 690.28 177.29 690.24 177.29 690.24 177.25 690.2 177.25 690.16 177.21 690.11 177.21"/><polyline class="cls-4" points="690.11 177.21 690.07 177.21 690.07 177.17"/><polyline class="cls-4" points="690.07 177.17 690.03 177.17 689.99 177.17"/><polyline class="cls-7" points="690.78 177.17 690.74 177.17 690.7 177.21 690.62 177.21 690.62 177.25 690.57 177.25 690.53 177.29 690.49 177.29 690.49 177.33 690.45 177.38 690.45 177.42 690.41 177.42 690.41 177.71 690.45 177.75 690.45 177.79 690.49 177.79 690.49 177.84 690.53 177.88 690.57 177.88 690.57 177.92 690.66 177.92 690.66 177.96 690.91 177.96 690.95 177.92 690.99 177.92 691.03 177.88 691.08 177.88 691.08 177.84 691.12 177.79 691.12 177.75 691.16 177.75 691.16 177.42 691.12 177.38 691.12 177.33 691.08 177.33 691.08 177.29 691.03 177.29 691.03 177.25 690.99 177.25 690.95 177.21 690.87 177.21 690.82 177.17"/><polyline class="cls-4" points="690.78 177.17 690.74 177.17 690.7 177.21 690.66 177.21 690.62 177.21 690.62 177.25 690.57 177.25 690.53 177.29"/><polyline class="cls-4" points="690.53 177.29 690.49 177.29 690.49 177.33"/><line class="cls-4" x1="690.49" y1="177.33" x2="690.45" y2="177.37"/><polyline class="cls-4" points="690.45 177.38 690.45 177.42 690.41 177.42"/><polyline class="cls-4" points="690.41 177.42 690.41 177.46 690.41 177.5 690.41 177.54"/><polyline class="cls-4" points="690.41 177.54 690.41 177.58 690.41 177.63 690.41 177.67 690.41 177.71 690.45 177.75"/><line class="cls-4" x1="690.45" y1="177.75" x2="690.45" y2="177.79"/><polyline class="cls-4" points="690.45 177.79 690.49 177.79 690.49 177.84 690.53 177.88 690.57 177.88 690.57 177.92"/><polyline class="cls-4" points="690.57 177.92 690.62 177.92 690.66 177.92 690.66 177.96"/><polyline class="cls-4" points="690.66 177.96 690.7 177.96 690.74 177.96 690.78 177.96 690.82 177.96 690.87 177.96 690.91 177.96 690.95 177.92 690.99 177.92 691.03 177.88 691.08 177.88 691.08 177.84 691.12 177.79 691.12 177.75 691.16 177.75 691.16 177.71 691.16 177.67 691.16 177.63"/><line class="cls-4" x1="691.16" y1="177.63" x2="691.16" y2="177.58"/><polyline class="cls-4" points="691.16 177.58 691.16 177.54 691.16 177.5 691.16 177.46 691.16 177.42"/><polyline class="cls-4" points="691.16 177.42 691.12 177.38 691.12 177.33 691.08 177.33 691.08 177.29 691.03 177.29 691.03 177.25 690.99 177.25 690.95 177.21 690.91 177.21 690.87 177.21 690.82 177.17"/><line class="cls-4" x1="690.82" y1="177.17" x2="690.78" y2="177.17"/><rect class="cls-1" x="691.2" y="177.5" width="0.04" height="0.13"/><rect class="cls-1" x="691.49" y="177.5" width="0.04" height="0.13"/><rect class="cls-1" x="691.24" y="177.5" width="0.25" height="0.13"/><polyline class="cls-4" points="691.24 177.63 691.2 177.63 691.2 177.59"/><polyline class="cls-4" points="691.2 177.58 691.2 177.54 691.2 177.5 691.24 177.5 691.49 177.5 691.54 177.5"/><line class="cls-4" x1="691.53" y1="177.5" x2="691.53" y2="177.54"/><polyline class="cls-4" points="691.53 177.54 691.53 177.58 691.53 177.63 691.49 177.63 691.24 177.63"/><polyline class="cls-7" points="690.2 177.58 689.82 177.58 689.82 177.54 689.86 177.54 689.86 177.5 689.9 177.5 689.9 177.46 690.07 177.46 690.11 177.5 690.16 177.5 690.16 177.54 690.2 177.54"/><polyline class="cls-7" points="689.82 180.18 690.2 180.18 690.2 180.22 690.16 180.22 690.16 180.26 690.11 180.26 690.07 180.3 689.9 180.3 689.9 180.26 689.86 180.26 689.86 180.22 689.82 180.22"/><rect class="cls-1" x="689.82" y="177.58" width="0.38" height="2.59"/><polyline class="cls-4" points="689.82 177.58 689.82 177.54 689.86 177.54 689.86 177.5 689.9 177.5 689.9 177.46 689.95 177.46 689.99 177.46 690.03 177.46 690.07 177.46 690.11 177.5 690.16 177.5 690.16 177.54"/><polyline class="cls-4" points="690.16 177.54 690.2 177.54 690.2 177.58 690.2 180.18 690.2 180.22 690.16 180.22 690.16 180.26 690.11 180.26"/><line class="cls-4" x1="690.11" y1="180.26" x2="690.07" y2="180.3"/><polyline class="cls-4" points="690.07 180.3 690.03 180.3 689.99 180.3 689.95 180.3 689.9 180.26 689.86 180.26 689.82 180.22 689.82 180.18"/><line class="cls-4" x1="689.82" y1="180.18" x2="689.82" y2="177.58"/><polyline class="cls-7" points="410.93 188.29 410.93 171.69 411.19 171.76 411.19 188.29"/><line class="cls-8" x1="410.93" y1="172.65" x2="411.18" y2="172.9"/><line class="cls-8" x1="410.93" y1="175.62" x2="411.18" y2="175.87"/><line class="cls-8" x1="410.93" y1="178.55" x2="411.18" y2="178.8"/><line class="cls-8" x1="410.93" y1="181.51" x2="411.18" y2="181.76"/><line class="cls-8" x1="410.93" y1="184.48" x2="411.18" y2="184.73"/><line class="cls-8" x1="410.93" y1="187.41" x2="411.18" y2="187.7"/><line class="cls-8" x1="410.93" y1="190.37" x2="411.18" y2="190.63"/><line class="cls-8" x1="410.93" y1="193.34" x2="411.18" y2="193.59"/><line class="cls-8" x1="410.93" y1="196.31" x2="411.18" y2="196.56"/><line class="cls-8" x1="410.93" y1="185.26" x2="411.18" y2="185.36"/><line class="cls-8" x1="410.93" y1="186.51" x2="411.18" y2="186.61"/><line class="cls-8" x1="410.93" y1="187.76" x2="411.18" y2="187.86"/><line class="cls-8" x1="410.93" y1="208.1" x2="411.18" y2="208.39"/><line class="cls-8" x1="410.93" y1="186.22" x2="411.18" y2="186.29"/><line class="cls-8" x1="410.93" y1="187.06" x2="411.18" y2="187.14"/><rect class="cls-9" x="411.44" y="172.65" width="1.84" height="15.63"/><polyline class="cls-7" points="410.93 171.69 447.01 171.69 447.01 171.94 411.33 171.94"/><line class="cls-8" x1="413.32" y1="171.94" x2="413.57" y2="171.69"/><line class="cls-8" x1="416.28" y1="171.94" x2="416.54" y2="171.69"/><line class="cls-8" x1="419.21" y1="171.94" x2="419.5" y2="171.69"/><line class="cls-8" x1="422.18" y1="171.94" x2="422.43" y2="171.69"/><line class="cls-8" x1="425.15" y1="171.94" x2="425.4" y2="171.69"/><line class="cls-8" x1="428.11" y1="171.94" x2="428.36" y2="171.69"/><line class="cls-8" x1="431.04" y1="171.94" x2="431.33" y2="171.69"/><rect class="cls-1" x="446.42" y="171.69" width="65.33" height="0.25"/><line class="cls-8" x1="448.8" y1="171.94" x2="449.06" y2="171.69"/><line class="cls-8" x1="451.73" y1="171.94" x2="452.02" y2="171.69"/><line class="cls-8" x1="454.7" y1="171.94" x2="454.95" y2="171.69"/><line class="cls-8" x1="457.67" y1="171.94" x2="457.92" y2="171.69"/><line class="cls-8" x1="460.59" y1="171.94" x2="460.89" y2="171.69"/><line class="cls-8" x1="463.56" y1="171.94" x2="463.81" y2="171.69"/><line class="cls-8" x1="466.53" y1="171.94" x2="466.78" y2="171.69"/><line class="cls-8" x1="469.5" y1="171.94" x2="469.75" y2="171.69"/><line class="cls-8" x1="472.42" y1="171.94" x2="472.67" y2="171.69"/><line class="cls-8" x1="475.39" y1="171.94" x2="475.64" y2="171.69"/><line class="cls-8" x1="478.36" y1="171.94" x2="478.61" y2="171.69"/><line class="cls-8" x1="481.28" y1="171.94" x2="481.58" y2="171.69"/><line class="cls-8" x1="484.25" y1="171.94" x2="484.5" y2="171.69"/><line class="cls-8" x1="487.22" y1="171.94" x2="487.47" y2="171.69"/><line class="cls-8" x1="490.19" y1="171.94" x2="490.44" y2="171.69"/><line class="cls-8" x1="493.11" y1="171.94" x2="493.36" y2="171.69"/><line class="cls-8" x1="496.08" y1="171.94" x2="496.33" y2="171.69"/><line class="cls-8" x1="499.05" y1="171.94" x2="499.3" y2="171.69"/><line class="cls-8" x1="501.97" y1="171.94" x2="502.27" y2="171.69"/><line class="cls-8" x1="504.94" y1="171.94" x2="505.19" y2="171.69"/><line class="cls-8" x1="507.91" y1="171.94" x2="508.16" y2="171.69"/><line class="cls-8" x1="510.84" y1="171.94" x2="511.13" y2="171.69"/><rect class="cls-1" x="530.56" y="171.69" width="4.31" height="0.25"/><line class="cls-8" x1="531.53" y1="171.94" x2="531.82" y2="171.69"/><line class="cls-8" x1="534.49" y1="171.94" x2="534.74" y2="171.69"/><rect class="cls-1" x="568.06" y="171.69" width="4.3" height="0.25"/><line class="cls-8" x1="569.98" y1="171.94" x2="570.23" y2="171.69"/><polyline class="cls-7" points="591.17 171.69 601.12 171.69 601.37 171.94 591.17 171.94"/><line class="cls-8" x1="593.6" y1="171.94" x2="593.89" y2="171.69"/><line class="cls-8" x1="596.57" y1="171.94" x2="596.82" y2="171.69"/><line class="cls-8" x1="599.53" y1="171.94" x2="599.78" y2="171.69"/><rect class="cls-9" x="411.72" y="172.19" width="35.28" height="2.88"/><rect class="cls-9" x="446.42" y="172.19" width="65.33" height="2.88"/><rect class="cls-9" x="530.56" y="172.19" width="4.31" height="2.88"/><rect class="cls-9" x="568.06" y="172.19" width="4.3" height="2.88"/><rect class="cls-9" x="591.17" y="172.19" width="12.29" height="2.88"/><polyline class="cls-7" points="601.12 171.69 601.12 169.85 601.37 169.85 601.37 171.94"/><line class="cls-8" x1="601.12" y1="170.73" x2="601.37" y2="170.98"/><polyline class="cls-7" points="601.12 151.54 601.12 146.61 601.37 146.86 601.37 151.54"/><line class="cls-8" x1="601.12" y1="147.07" x2="601.37" y2="147.32"/><line class="cls-8" x1="601.12" y1="150.04" x2="601.37" y2="150.29"/><rect class="cls-9" x="601.62" y="168.01" width="1.84" height="4.18"/><rect class="cls-9" x="601.62" y="147.11" width="1.84" height="6.27"/><polyline class="cls-7" points="601.12 146.61 610.24 146.61 610.24 146.86 601.37 146.86"/><line class="cls-8" x1="601.16" y1="146.65" x2="601.21" y2="146.61"/><line class="cls-8" x1="603.92" y1="146.86" x2="604.17" y2="146.61"/><line class="cls-8" x1="606.89" y1="146.86" x2="607.14" y2="146.61"/><line class="cls-8" x1="609.82" y1="146.86" x2="610.11" y2="146.61"/><polyline class="cls-7" points="662.48 146.61 671.1 146.61 670.8 146.86 662.48 146.86"/><line class="cls-8" x1="663.03" y1="146.86" x2="663.28" y2="146.61"/><line class="cls-8" x1="666" y1="146.86" x2="666.25" y2="146.61"/><line class="cls-8" x1="668.92" y1="146.86" x2="669.21" y2="146.61"/><rect class="cls-9" x="603.46" y="147.11" width="8.61" height="1.84"/><rect class="cls-9" x="660.64" y="147.11" width="8.11" height="1.84"/><polyline class="cls-7" points="671.1 146.61 671.1 151.54 670.8 151.54 670.8 146.86"/><line class="cls-8" x1="670.8" y1="148.78" x2="671.09" y2="149.03"/><polyline class="cls-7" points="671.1 169.85 671.1 171.69 670.8 171.94 670.8 169.85"/><rect class="cls-9" x="668.75" y="147.11" width="1.84" height="6.27"/><rect class="cls-9" x="668.75" y="168.01" width="1.84" height="4.18"/><polyline class="cls-7" points="671.1 171.69 681.04 171.69 681.04 171.94 670.8 171.94"/><line class="cls-8" x1="673.44" y1="171.94" x2="673.69" y2="171.69"/><line class="cls-8" x1="676.36" y1="171.94" x2="676.65" y2="171.69"/><line class="cls-8" x1="679.33" y1="171.94" x2="679.58" y2="171.69"/><rect class="cls-1" x="680.79" y="171.69" width="34.19" height="0.25"/><line class="cls-8" x1="700.02" y1="171.94" x2="700.27" y2="171.69"/><line class="cls-8" x1="688.47" y1="171.94" x2="689.09" y2="171.69"/><line class="cls-8" x1="705.91" y1="171.94" x2="706.21" y2="171.69"/><line class="cls-8" x1="708.88" y1="171.94" x2="709.13" y2="171.69"/><line class="cls-8" x1="711.85" y1="171.94" x2="712.1" y2="171.69"/><rect class="cls-9" x="668.75" y="172.19" width="12.29" height="2.88"/><rect class="cls-9" x="680.79" y="172.19" width="34.19" height="2.88"/><rect class="cls-1" x="760.67" y="172.19" width="0.29" height="100.26"/><line class="cls-8" x1="760.67" y1="173.61" x2="760.96" y2="173.91"/><line class="cls-8" x1="760.67" y1="176.58" x2="760.96" y2="176.83"/><line class="cls-8" x1="760.67" y1="179.55" x2="760.96" y2="179.8"/><line class="cls-8" x1="760.67" y1="182.52" x2="760.96" y2="182.77"/><line class="cls-8" x1="760.67" y1="185.44" x2="760.96" y2="185.69"/><line class="cls-8" x1="760.67" y1="188.41" x2="760.96" y2="188.66"/><line class="cls-8" x1="760.67" y1="191.38" x2="760.96" y2="191.63"/><line class="cls-8" x1="760.67" y1="194.3" x2="760.96" y2="194.6"/><line class="cls-8" x1="760.67" y1="197.27" x2="760.96" y2="197.52"/><line class="cls-8" x1="760.67" y1="200.24" x2="760.96" y2="200.49"/><line class="cls-8" x1="760.67" y1="203.21" x2="760.96" y2="203.46"/><line class="cls-8" x1="760.67" y1="206.13" x2="760.96" y2="206.38"/><line class="cls-8" x1="760.67" y1="209.1" x2="760.96" y2="209.35"/><line class="cls-8" x1="760.67" y1="212.07" x2="760.96" y2="212.32"/><line class="cls-8" x1="760.67" y1="214.99" x2="760.96" y2="215.29"/><line class="cls-8" x1="760.67" y1="217.96" x2="760.96" y2="218.21"/><line class="cls-8" x1="760.67" y1="220.93" x2="760.96" y2="221.18"/><line class="cls-8" x1="760.67" y1="223.86" x2="760.96" y2="224.15"/><line class="cls-8" x1="760.67" y1="226.82" x2="760.96" y2="227.07"/><line class="cls-8" x1="760.67" y1="229.79" x2="760.96" y2="230.04"/><line class="cls-8" x1="760.67" y1="232.76" x2="760.96" y2="233.01"/><line class="cls-8" x1="760.67" y1="235.69" x2="760.96" y2="235.98"/><line class="cls-8" x1="760.67" y1="224.7" x2="760.96" y2="225.04"/><line class="cls-8" x1="760.67" y1="241.62" x2="760.96" y2="241.87"/><line class="cls-8" x1="760.67" y1="244.55" x2="760.96" y2="244.84"/><line class="cls-8" x1="760.67" y1="247.51" x2="760.96" y2="247.77"/><line class="cls-8" x1="760.67" y1="250.48" x2="760.96" y2="250.73"/><line class="cls-8" x1="760.67" y1="253.45" x2="760.96" y2="253.7"/><line class="cls-8" x1="760.67" y1="256.38" x2="760.96" y2="256.67"/><rect class="cls-9" x="758.62" y="175.08" width="1.84" height="99.52"/><polyline class="cls-10" points="499.21 175.08 499.21 187.91 497.38 188.16 497.38 175.08"/><rect class="cls-9" x="712.89" y="175.08" width="1.84" height="14.46"/><rect class="cls-9" x="712.89" y="204.97" width="1.84" height="65.91"/><rect class="cls-9" x="714.73" y="244.3" width="43.89" height="1.84"/><rect class="cls-9" x="713.81" y="172.19" width="46.65" height="2.88"/><line class="cls-11" x1="411.44" y1="172.65" x2="411.44" y2="188.29"/><line class="cls-11" x1="413.27" y1="188.29" x2="413.27" y2="181.54"/><line class="cls-11" x1="413.27" y1="188.29" x2="413.27" y2="175.08"/><line class="cls-11" x1="447.01" y1="172.19" x2="411.72" y2="172.19"/><line class="cls-11" x1="511.76" y1="172.19" x2="446.42" y2="172.19"/><line class="cls-11" x1="534.87" y1="172.19" x2="530.56" y2="172.19"/><line class="cls-11" x1="572.36" y1="172.19" x2="568.06" y2="172.19"/><line class="cls-11" x1="601.62" y1="172.19" x2="591.17" y2="172.19"/><line class="cls-11" x1="511.76" y1="172.19" x2="511.76" y2="175.08"/><line class="cls-11" x1="530.56" y1="172.19" x2="530.56" y2="175.08"/><line class="cls-11" x1="511.76" y1="172.19" x2="511.76" y2="175.08"/><line class="cls-11" x1="530.56" y1="172.19" x2="530.56" y2="175.08"/><line class="cls-11" x1="534.87" y1="172.19" x2="534.87" y2="175.08"/><line class="cls-11" x1="568.06" y1="172.19" x2="568.06" y2="175.08"/><line class="cls-11" x1="535.25" y1="172.19" x2="535.25" y2="175.08"/><line class="cls-11" x1="567.64" y1="172.19" x2="567.64" y2="175.08"/><line class="cls-11" x1="572.36" y1="172.19" x2="572.36" y2="175.08"/><line class="cls-11" x1="591.17" y1="172.19" x2="591.17" y2="175.08"/><line class="cls-11" x1="572.36" y1="172.19" x2="572.36" y2="175.08"/><line class="cls-11" x1="591.17" y1="172.19" x2="591.17" y2="175.08"/><line class="cls-11" x1="411.44" y1="172.19" x2="411.44" y2="175.08"/><line class="cls-11" x1="603.46" y1="175.08" x2="603.46" y2="172.19"/><line class="cls-11" x1="413.78" y1="175.08" x2="447.01" y2="175.08"/><line class="cls-11" x1="446.42" y1="175.08" x2="467.07" y2="175.08"/><line class="cls-11" x1="465.06" y1="175.08" x2="497.38" y2="175.08"/><line class="cls-11" x1="499.21" y1="175.08" x2="511.75" y2="175.08"/><line class="cls-11" x1="530.56" y1="175.08" x2="534.87" y2="175.08"/><line class="cls-11" x1="568.06" y1="175.08" x2="572.36" y2="175.08"/><line class="cls-11" x1="591.17" y1="175.08" x2="603.46" y2="175.08"/><line class="cls-6" x1="530.56" y1="171.69" x2="530.15" y2="171.69"/><line class="cls-6" x1="530.56" y1="175.33" x2="530.15" y2="175.33"/><line class="cls-6" x1="530.56" y1="171.69" x2="530.56" y2="175.33"/><line class="cls-6" x1="530.15" y1="171.69" x2="530.15" y2="175.33"/><line class="cls-6" x1="512.13" y1="171.69" x2="511.75" y2="171.69"/><line class="cls-6" x1="512.13" y1="175.33" x2="511.75" y2="175.33"/><line class="cls-6" x1="512.13" y1="171.69" x2="512.13" y2="175.33"/><line class="cls-6" x1="511.76" y1="171.69" x2="511.76" y2="175.33"/><line class="cls-6" x1="530.15" y1="172.32" x2="512.13" y2="172.32"/><line class="cls-6" x1="530.15" y1="172.74" x2="512.13" y2="172.74"/><polyline class="cls-6" points="510.04 171.69 510.04 170.85 532.24 170.85"/><line class="cls-6" x1="532.24" y1="171.69" x2="532.24" y2="170.85"/><polyline class="cls-6" points="530.57 171.69 530.57 171.36 532.24 171.36"/><line class="cls-6" x1="532.24" y1="171.69" x2="532.24" y2="171.36"/><line class="cls-6" x1="511.76" y1="171.69" x2="511.76" y2="171.36"/><line class="cls-6" x1="510.04" y1="171.36" x2="511.75" y2="171.36"/><line class="cls-6" x1="510.04" y1="171.69" x2="510.04" y2="171.36"/><line class="cls-6" x1="532.19" y1="175.33" x2="532.19" y2="176.16"/><line class="cls-6" x1="510.12" y1="176.16" x2="532.19" y2="176.16"/><line class="cls-6" x1="510.12" y1="175.33" x2="510.12" y2="176.16"/><line class="cls-6" x1="512.09" y1="175.33" x2="512.09" y2="175.66"/><line class="cls-6" x1="510.38" y1="175.66" x2="512.09" y2="175.66"/><line class="cls-6" x1="510.38" y1="175.33" x2="510.38" y2="175.66"/><line class="cls-6" x1="510.38" y1="175.33" x2="512.09" y2="175.33"/><polyline class="cls-6" points="530.23 175.33 530.23 175.66 531.94 175.66"/><line class="cls-6" x1="531.94" y1="175.33" x2="531.94" y2="175.66"/><line class="cls-6" x1="530.23" y1="175.33" x2="531.94" y2="175.33"/><line class="cls-6" x1="530.56" y1="171.69" x2="530.15" y2="171.69"/><line class="cls-6" x1="530.56" y1="175.33" x2="530.15" y2="175.33"/><line class="cls-6" x1="530.56" y1="171.69" x2="530.56" y2="175.33"/><line class="cls-6" x1="530.15" y1="171.69" x2="530.15" y2="175.33"/><line class="cls-6" x1="512.13" y1="171.69" x2="511.75" y2="171.69"/><line class="cls-6" x1="512.13" y1="175.33" x2="511.75" y2="175.33"/><line class="cls-6" x1="512.13" y1="171.69" x2="512.13" y2="175.33"/><line class="cls-6" x1="511.76" y1="171.69" x2="511.76" y2="175.33"/><line class="cls-6" x1="530.15" y1="172.32" x2="512.13" y2="172.32"/><line class="cls-6" x1="530.15" y1="172.74" x2="512.13" y2="172.74"/><polyline class="cls-6" points="509.92 171.69 509.92 170.77 532.4 170.77"/><line class="cls-6" x1="532.4" y1="171.69" x2="532.4" y2="170.77"/><line class="cls-6" x1="530.56" y1="171.69" x2="530.56" y2="171.31"/><line class="cls-6" x1="530.56" y1="171.31" x2="532.4" y2="171.31"/><line class="cls-6" x1="532.4" y1="171.69" x2="532.4" y2="171.31"/><line class="cls-6" x1="511.76" y1="171.69" x2="511.76" y2="171.31"/><line class="cls-6" x1="509.92" y1="171.31" x2="511.75" y2="171.31"/><line class="cls-6" x1="509.92" y1="171.69" x2="509.92" y2="171.31"/><line class="cls-6" x1="532.19" y1="175.33" x2="532.19" y2="176.16"/><line class="cls-6" x1="510.12" y1="176.16" x2="532.19" y2="176.16"/><line class="cls-6" x1="510.12" y1="175.33" x2="510.12" y2="176.16"/><line class="cls-6" x1="512.09" y1="175.33" x2="512.09" y2="175.66"/><line class="cls-6" x1="510.38" y1="175.66" x2="512.09" y2="175.66"/><line class="cls-6" x1="510.38" y1="175.33" x2="510.38" y2="175.66"/><line class="cls-6" x1="510.38" y1="175.33" x2="512.09" y2="175.33"/><polyline class="cls-6" points="530.23 175.33 530.23 175.66 531.94 175.66"/><line class="cls-6" x1="531.94" y1="175.33" x2="531.94" y2="175.66"/><line class="cls-6" x1="530.23" y1="175.33" x2="531.94" y2="175.33"/><line class="cls-6" x1="568.06" y1="171.69" x2="567.64" y2="171.69"/><line class="cls-6" x1="568.06" y1="175.33" x2="567.64" y2="175.33"/><line class="cls-6" x1="568.06" y1="171.69" x2="568.06" y2="175.33"/><line class="cls-6" x1="567.64" y1="171.69" x2="567.64" y2="175.33"/><line class="cls-6" x1="535.25" y1="171.69" x2="534.87" y2="171.69"/><line class="cls-6" x1="535.25" y1="175.33" x2="534.87" y2="175.33"/><line class="cls-6" x1="535.25" y1="171.69" x2="535.25" y2="175.33"/><line class="cls-6" x1="534.87" y1="171.69" x2="534.87" y2="175.33"/><line class="cls-6" x1="535.25" y1="171.69" x2="535.25" y2="155.47"/><line class="cls-6" x1="536.17" y1="171.69" x2="536.17" y2="155.47"/><line class="cls-6" x1="535.25" y1="155.47" x2="536.17" y2="155.47"/><line class="cls-6" x1="536.17" y1="171.69" x2="535.25" y2="171.69"/><line class="cls-6" x1="551.46" y1="171.69" x2="551.42" y2="170.44"/><polyline class="cls-6" points="551.42 170.44 551.26 169.22 551.05 168.01"/><line class="cls-6" x1="551.05" y1="168.01" x2="550.71" y2="166.8"/><polyline class="cls-6" points="550.71 166.8 550.25 165.63 549.75 164.46"/><polyline class="cls-6" points="549.75 164.46 549.17 163.37 548.46 162.33 547.7 161.32"/><line class="cls-6" x1="547.7" y1="161.32" x2="546.87" y2="160.4"/><polyline class="cls-6" points="546.87 160.41 545.95 159.53 544.99 158.73 543.94 158.02"/><polyline class="cls-6" points="543.94 158.02 542.85 157.4 541.73 156.85 540.6 156.39 539.38 156.02 538.17 155.76 536.92 155.56"/><line class="cls-6" x1="536.92" y1="155.56" x2="535.66" y2="155.51"/><line class="cls-6" x1="535.66" y1="155.51" x2="535.25" y2="155.47"/><line class="cls-6" x1="567.64" y1="171.69" x2="551.46" y2="171.69"/><line class="cls-6" x1="567.64" y1="172.61" x2="551.46" y2="172.61"/><line class="cls-6" x1="551.46" y1="171.69" x2="551.46" y2="172.61"/><line class="cls-6" x1="567.64" y1="172.61" x2="567.64" y2="171.69"/><line class="cls-6" x1="535.25" y1="171.69" x2="567.64" y2="171.69"/><line class="cls-6" x1="567.77" y1="171.69" x2="567.77" y2="171.31"/><line class="cls-6" x1="567.77" y1="171.31" x2="569.61" y2="171.31"/><line class="cls-6" x1="569.61" y1="171.69" x2="569.61" y2="171.31"/><line class="cls-6" x1="535.12" y1="171.69" x2="535.12" y2="171.31"/><line class="cls-6" x1="533.28" y1="171.31" x2="535.12" y2="171.31"/><line class="cls-6" x1="533.28" y1="171.69" x2="533.28" y2="171.31"/><line class="cls-6" x1="535.12" y1="175.33" x2="535.12" y2="175.66"/><line class="cls-6" x1="533.45" y1="175.66" x2="535.12" y2="175.66"/><line class="cls-6" x1="533.45" y1="175.33" x2="533.45" y2="175.66"/><polyline class="cls-6" points="567.77 175.33 567.77 175.66 569.48 175.66"/><line class="cls-6" x1="569.48" y1="175.33" x2="569.48" y2="175.66"/><line class="cls-6" x1="567.64" y1="171.69" x2="567.26" y2="171.69"/><line class="cls-6" x1="567.64" y1="175.33" x2="567.26" y2="175.33"/><line class="cls-6" x1="567.64" y1="171.69" x2="567.64" y2="175.33"/><line class="cls-6" x1="567.26" y1="171.69" x2="567.26" y2="175.33"/><line class="cls-6" x1="535.66" y1="171.69" x2="535.25" y2="171.69"/><line class="cls-6" x1="535.66" y1="175.33" x2="535.25" y2="175.33"/><line class="cls-6" x1="535.66" y1="171.69" x2="535.66" y2="175.33"/><line class="cls-6" x1="535.25" y1="171.69" x2="535.25" y2="175.33"/><line class="cls-6" x1="567.26" y1="172.32" x2="535.66" y2="172.32"/><line class="cls-6" x1="567.26" y1="172.74" x2="535.66" y2="172.74"/><polyline class="cls-6" points="533.45 171.69 533.45 170.77 569.48 170.77"/><line class="cls-6" x1="569.48" y1="171.69" x2="569.48" y2="170.77"/><line class="cls-6" x1="567.64" y1="171.69" x2="567.64" y2="171.31"/><line class="cls-6" x1="567.64" y1="171.31" x2="569.48" y2="171.31"/><line class="cls-6" x1="569.48" y1="171.69" x2="569.48" y2="171.31"/><line class="cls-6" x1="535.25" y1="171.69" x2="535.25" y2="171.31"/><line class="cls-6" x1="533.45" y1="171.31" x2="535.25" y2="171.31"/><line class="cls-6" x1="533.45" y1="171.69" x2="533.45" y2="171.31"/><line class="cls-6" x1="569.27" y1="175.33" x2="569.27" y2="176.16"/><line class="cls-6" x1="533.62" y1="176.16" x2="569.27" y2="176.16"/><line class="cls-6" x1="533.62" y1="175.33" x2="533.62" y2="176.16"/><line class="cls-6" x1="535.58" y1="175.33" x2="535.58" y2="175.66"/><line class="cls-6" x1="533.87" y1="175.66" x2="535.58" y2="175.66"/><line class="cls-6" x1="533.87" y1="175.33" x2="533.87" y2="175.66"/><line class="cls-6" x1="533.87" y1="175.33" x2="535.58" y2="175.33"/><polyline class="cls-6" points="567.31 175.33 567.31 175.66 569.02 175.66"/><line class="cls-6" x1="569.02" y1="175.33" x2="569.02" y2="175.66"/><line class="cls-6" x1="567.31" y1="175.33" x2="569.02" y2="175.33"/><line class="cls-6" x1="591.17" y1="171.69" x2="590.76" y2="171.69"/><line class="cls-6" x1="591.17" y1="175.33" x2="590.76" y2="175.33"/><line class="cls-6" x1="591.17" y1="171.69" x2="591.17" y2="175.33"/><line class="cls-6" x1="590.76" y1="171.69" x2="590.76" y2="175.33"/><line class="cls-6" x1="572.74" y1="171.69" x2="572.36" y2="171.69"/><line class="cls-6" x1="572.74" y1="175.33" x2="572.36" y2="175.33"/><line class="cls-6" x1="572.74" y1="171.69" x2="572.74" y2="175.33"/><line class="cls-6" x1="572.36" y1="171.69" x2="572.36" y2="175.33"/><line class="cls-6" x1="590.76" y1="172.32" x2="572.74" y2="172.32"/><line class="cls-6" x1="590.76" y1="172.74" x2="572.74" y2="172.74"/><polyline class="cls-6" points="570.65 171.69 570.65 170.85 592.85 170.85"/><line class="cls-6" x1="592.85" y1="171.69" x2="592.85" y2="170.85"/><polyline class="cls-6" points="591.17 171.69 591.17 171.36 592.85 171.36"/><line class="cls-6" x1="592.85" y1="171.69" x2="592.85" y2="171.36"/><line class="cls-6" x1="572.36" y1="171.69" x2="572.36" y2="171.36"/><line class="cls-6" x1="570.65" y1="171.36" x2="572.36" y2="171.36"/><line class="cls-6" x1="570.65" y1="171.69" x2="570.65" y2="171.36"/><line class="cls-6" x1="592.8" y1="175.33" x2="592.8" y2="176.16"/><line class="cls-6" x1="570.73" y1="176.16" x2="592.8" y2="176.16"/><line class="cls-6" x1="570.73" y1="175.33" x2="570.73" y2="176.16"/><line class="cls-6" x1="572.7" y1="175.33" x2="572.7" y2="175.66"/><line class="cls-6" x1="570.99" y1="175.66" x2="572.7" y2="175.66"/><line class="cls-6" x1="570.99" y1="175.33" x2="570.99" y2="175.66"/><line class="cls-6" x1="570.99" y1="175.33" x2="572.7" y2="175.33"/><polyline class="cls-6" points="590.84 175.33 590.84 175.66 592.55 175.66"/><line class="cls-6" x1="592.55" y1="175.33" x2="592.55" y2="175.66"/><line class="cls-6" x1="590.84" y1="175.33" x2="592.55" y2="175.33"/><line class="cls-6" x1="591.17" y1="171.69" x2="590.76" y2="171.69"/><line class="cls-6" x1="591.17" y1="175.33" x2="590.76" y2="175.33"/><line class="cls-6" x1="591.17" y1="171.69" x2="591.17" y2="175.33"/><line class="cls-6" x1="590.76" y1="171.69" x2="590.76" y2="175.33"/><line class="cls-6" x1="572.74" y1="171.69" x2="572.36" y2="171.69"/><line class="cls-6" x1="572.74" y1="175.33" x2="572.36" y2="175.33"/><line class="cls-6" x1="572.74" y1="171.69" x2="572.74" y2="175.33"/><line class="cls-6" x1="572.36" y1="171.69" x2="572.36" y2="175.33"/><line class="cls-6" x1="590.76" y1="172.32" x2="572.74" y2="172.32"/><line class="cls-6" x1="590.76" y1="172.74" x2="572.74" y2="172.74"/><polyline class="cls-6" points="570.53 171.69 570.53 170.77 593.01 170.77"/><line class="cls-6" x1="593.01" y1="171.69" x2="593.01" y2="170.77"/><line class="cls-6" x1="591.17" y1="171.69" x2="591.17" y2="171.31"/><line class="cls-6" x1="591.17" y1="171.31" x2="593.01" y2="171.31"/><line class="cls-6" x1="593.01" y1="171.69" x2="593.01" y2="171.31"/><line class="cls-6" x1="572.36" y1="171.69" x2="572.36" y2="171.31"/><line class="cls-6" x1="570.53" y1="171.31" x2="572.36" y2="171.31"/><line class="cls-6" x1="570.53" y1="171.69" x2="570.53" y2="171.31"/><line class="cls-6" x1="592.8" y1="175.33" x2="592.8" y2="176.16"/><line class="cls-6" x1="570.73" y1="176.16" x2="592.8" y2="176.16"/><line class="cls-6" x1="570.73" y1="175.33" x2="570.73" y2="176.16"/><line class="cls-6" x1="572.7" y1="175.33" x2="572.7" y2="175.66"/><line class="cls-6" x1="570.99" y1="175.66" x2="572.7" y2="175.66"/><line class="cls-6" x1="570.99" y1="175.33" x2="570.99" y2="175.66"/><line class="cls-6" x1="570.99" y1="175.33" x2="572.7" y2="175.33"/><polyline class="cls-6" points="590.84 175.33 590.84 175.66 592.55 175.66"/><line class="cls-6" x1="592.55" y1="175.33" x2="592.55" y2="175.66"/><line class="cls-6" x1="590.84" y1="175.33" x2="592.55" y2="175.33"/><line class="cls-11" x1="601.62" y1="168.01" x2="601.62" y2="172.19"/><line class="cls-11" x1="601.62" y1="147.11" x2="601.62" y2="153.38"/><line class="cls-11" x1="601.62" y1="168.01" x2="603.46" y2="168.01"/><line class="cls-11" x1="601.62" y1="153.38" x2="603.46" y2="153.38"/><line class="cls-11" x1="603.46" y1="147.11" x2="601.62" y2="147.11"/><line class="cls-11" x1="603.46" y1="172.19" x2="603.46" y2="168.01"/><line class="cls-11" x1="603.46" y1="153.38" x2="603.46" y2="148.95"/><line class="cls-6" x1="601.12" y1="168.01" x2="601.12" y2="153.38"/><line class="cls-6" x1="601.37" y1="153.38" x2="601.37" y2="153.76"/><line class="cls-6" x1="603.71" y1="153.38" x2="603.71" y2="153.76"/><line class="cls-6" x1="601.37" y1="153.38" x2="603.71" y2="153.38"/><line class="cls-6" x1="601.37" y1="153.76" x2="603.71" y2="153.76"/><line class="cls-6" x1="601.37" y1="167.59" x2="601.37" y2="168.01"/><line class="cls-6" x1="603.71" y1="167.59" x2="603.71" y2="168.01"/><line class="cls-6" x1="601.37" y1="167.59" x2="603.71" y2="167.59"/><line class="cls-6" x1="601.37" y1="168.01" x2="603.71" y2="168.01"/><line class="cls-6" x1="602.04" y1="153.76" x2="602.04" y2="167.59"/><line class="cls-6" x1="602.46" y1="153.76" x2="602.46" y2="167.59"/><line class="cls-6" x1="601.37" y1="153.38" x2="601" y2="153.38"/><line class="cls-6" x1="601" y1="153.38" x2="601" y2="151.54"/><line class="cls-6" x1="601.37" y1="151.54" x2="601" y2="151.54"/><line class="cls-6" x1="601.37" y1="168.01" x2="601" y2="168.01"/><line class="cls-6" x1="601" y1="169.85" x2="601" y2="168.01"/><line class="cls-6" x1="601.37" y1="169.85" x2="601" y2="169.85"/><line class="cls-6" x1="603.71" y1="151.75" x2="604.55" y2="151.75"/><line class="cls-6" x1="604.55" y1="169.64" x2="604.55" y2="151.75"/><line class="cls-6" x1="603.71" y1="169.64" x2="604.55" y2="169.64"/><line class="cls-6" x1="603.71" y1="167.68" x2="604.05" y2="167.68"/><line class="cls-6" x1="604.05" y1="169.39" x2="604.05" y2="167.68"/><line class="cls-6" x1="603.71" y1="169.39" x2="604.05" y2="169.39"/><line class="cls-6" x1="603.71" y1="169.39" x2="603.71" y2="167.68"/><polyline class="cls-6" points="603.71 153.72 604.05 153.72 604.05 152"/><line class="cls-6" x1="603.71" y1="152" x2="604.05" y2="152"/><line class="cls-6" x1="603.71" y1="153.72" x2="603.71" y2="152"/><line class="cls-11" x1="612.07" y1="147.11" x2="603.46" y2="147.11"/><line class="cls-11" x1="668.75" y1="147.11" x2="660.64" y2="147.11"/><line class="cls-11" x1="612.07" y1="147.11" x2="612.07" y2="148.95"/><line class="cls-11" x1="660.64" y1="147.11" x2="660.64" y2="148.95"/><line class="cls-11" x1="603.46" y1="148.95" x2="612.07" y2="148.95"/><line class="cls-11" x1="660.64" y1="148.95" x2="668.75" y2="148.95"/><line class="cls-6" x1="626.7" y1="146.74" x2="626.7" y2="149.33"/><line class="cls-6" x1="612.07" y1="146.61" x2="627.87" y2="146.61"/><line class="cls-6" x1="626.7" y1="146.86" x2="626.29" y2="146.86"/><line class="cls-6" x1="626.7" y1="149.2" x2="626.29" y2="149.2"/><line class="cls-6" x1="626.7" y1="146.86" x2="626.7" y2="149.2"/><line class="cls-6" x1="626.29" y1="146.86" x2="626.29" y2="149.2"/><line class="cls-6" x1="612.45" y1="146.86" x2="612.07" y2="146.86"/><line class="cls-6" x1="612.45" y1="149.2" x2="612.07" y2="149.2"/><line class="cls-6" x1="612.45" y1="146.86" x2="612.45" y2="149.2"/><line class="cls-6" x1="612.07" y1="146.86" x2="612.07" y2="149.2"/><line class="cls-6" x1="626.29" y1="147.53" x2="612.45" y2="147.53"/><line class="cls-6" x1="626.29" y1="147.95" x2="612.45" y2="147.95"/><line class="cls-6" x1="612.07" y1="146.86" x2="612.07" y2="146.48"/><line class="cls-6" x1="610.23" y1="146.49" x2="612.07" y2="146.49"/><line class="cls-6" x1="610.23" y1="146.86" x2="610.23" y2="146.48"/><line class="cls-6" x1="610.44" y1="150.04" x2="627.87" y2="150.04"/><line class="cls-6" x1="610.44" y1="149.2" x2="610.44" y2="150.04"/><line class="cls-6" x1="612.41" y1="149.2" x2="612.41" y2="149.54"/><line class="cls-6" x1="610.69" y1="149.54" x2="612.41" y2="149.54"/><line class="cls-6" x1="610.69" y1="149.2" x2="610.69" y2="149.54"/><line class="cls-6" x1="610.69" y1="149.2" x2="612.41" y2="149.2"/><line class="cls-6" x1="629.04" y1="146.74" x2="629.04" y2="149.33"/><line class="cls-6" x1="643.67" y1="146.74" x2="643.67" y2="149.33"/><line class="cls-6" x1="629.04" y1="146.74" x2="626.7" y2="146.74"/><line class="cls-6" x1="629.04" y1="149.33" x2="626.7" y2="149.33"/><line class="cls-6" x1="627.87" y1="146.61" x2="644.84" y2="146.61"/><line class="cls-6" x1="643.67" y1="146.86" x2="643.3" y2="146.86"/><line class="cls-6" x1="643.67" y1="149.2" x2="643.3" y2="149.2"/><line class="cls-6" x1="643.67" y1="146.86" x2="643.67" y2="149.2"/><line class="cls-6" x1="643.3" y1="146.86" x2="643.3" y2="149.2"/><line class="cls-6" x1="629.42" y1="146.86" x2="629.04" y2="146.86"/><line class="cls-6" x1="629.42" y1="149.2" x2="629.04" y2="149.2"/><line class="cls-6" x1="629.42" y1="146.86" x2="629.42" y2="149.2"/><line class="cls-6" x1="629.04" y1="146.86" x2="629.04" y2="149.2"/><line class="cls-6" x1="643.3" y1="147.53" x2="629.42" y2="147.53"/><line class="cls-6" x1="643.3" y1="147.95" x2="629.42" y2="147.95"/><line class="cls-6" x1="627.87" y1="150.04" x2="644.84" y2="150.04"/><line class="cls-6" x1="646.01" y1="146.74" x2="646.01" y2="149.33"/><line class="cls-6" x1="646.01" y1="146.74" x2="643.67" y2="146.74"/><line class="cls-6" x1="646.01" y1="149.33" x2="643.67" y2="149.33"/><line class="cls-6" x1="644.84" y1="146.61" x2="660.64" y2="146.61"/><line class="cls-6" x1="660.64" y1="146.86" x2="660.27" y2="146.86"/><line class="cls-6" x1="660.64" y1="149.2" x2="660.27" y2="149.2"/><line class="cls-6" x1="660.64" y1="146.86" x2="660.64" y2="149.2"/><line class="cls-6" x1="660.27" y1="146.86" x2="660.27" y2="149.2"/><line class="cls-6" x1="646.43" y1="146.86" x2="646.01" y2="146.86"/><line class="cls-6" x1="646.43" y1="149.2" x2="646.01" y2="149.2"/><line class="cls-6" x1="646.43" y1="146.86" x2="646.43" y2="149.2"/><line class="cls-6" x1="646.01" y1="146.86" x2="646.01" y2="149.2"/><line class="cls-6" x1="660.27" y1="147.53" x2="646.43" y2="147.53"/><line class="cls-6" x1="660.27" y1="147.95" x2="646.43" y2="147.95"/><line class="cls-6" x1="660.64" y1="146.86" x2="660.64" y2="146.48"/><line class="cls-6" x1="660.64" y1="146.49" x2="662.48" y2="146.49"/><line class="cls-6" x1="662.48" y1="146.86" x2="662.48" y2="146.48"/><line class="cls-6" x1="662.27" y1="149.2" x2="662.27" y2="150.04"/><line class="cls-6" x1="644.84" y1="150.04" x2="662.27" y2="150.04"/><polyline class="cls-6" points="660.31 149.2 660.31 149.54 662.02 149.54"/><line class="cls-6" x1="662.02" y1="149.2" x2="662.02" y2="149.54"/><line class="cls-6" x1="660.31" y1="149.2" x2="662.02" y2="149.2"/><line class="cls-11" x1="670.59" y1="153.38" x2="670.59" y2="147.11"/><line class="cls-11" x1="670.59" y1="172.19" x2="670.59" y2="168.01"/><line class="cls-11" x1="670.59" y1="153.38" x2="668.75" y2="153.38"/><line class="cls-11" x1="670.59" y1="168.01" x2="668.75" y2="168.01"/><line class="cls-11" x1="670.59" y1="147.11" x2="668.75" y2="147.11"/><line class="cls-11" x1="668.75" y1="148.95" x2="668.75" y2="153.38"/><line class="cls-11" x1="668.75" y1="168.01" x2="668.75" y2="172.19"/><line class="cls-6" x1="671.09" y1="153.38" x2="671.09" y2="168.01"/><line class="cls-6" x1="670.8" y1="168.01" x2="670.8" y2="167.59"/><line class="cls-6" x1="668.5" y1="168.01" x2="668.5" y2="167.59"/><line class="cls-6" x1="670.8" y1="168.01" x2="668.5" y2="168.01"/><line class="cls-6" x1="670.8" y1="167.59" x2="668.5" y2="167.59"/><line class="cls-6" x1="670.8" y1="153.76" x2="670.8" y2="153.38"/><line class="cls-6" x1="668.5" y1="153.76" x2="668.5" y2="153.38"/><line class="cls-6" x1="670.8" y1="153.76" x2="668.5" y2="153.76"/><line class="cls-6" x1="670.8" y1="153.38" x2="668.5" y2="153.38"/><line class="cls-6" x1="670.18" y1="167.59" x2="670.18" y2="153.76"/><line class="cls-6" x1="669.76" y1="167.59" x2="669.76" y2="153.76"/><line class="cls-6" x1="670.8" y1="168.01" x2="671.22" y2="168.01"/><line class="cls-6" x1="671.22" y1="168.01" x2="671.22" y2="169.85"/><line class="cls-6" x1="670.8" y1="169.85" x2="671.22" y2="169.85"/><line class="cls-6" x1="670.8" y1="153.38" x2="671.22" y2="153.38"/><line class="cls-6" x1="671.22" y1="151.54" x2="671.22" y2="153.38"/><line class="cls-6" x1="670.8" y1="151.54" x2="671.22" y2="151.54"/><line class="cls-6" x1="668.5" y1="169.64" x2="667.63" y2="169.64"/><line class="cls-6" x1="667.63" y1="151.75" x2="667.63" y2="169.64"/><line class="cls-6" x1="668.5" y1="151.75" x2="667.63" y2="151.75"/><line class="cls-6" x1="668.5" y1="153.72" x2="668.17" y2="153.72"/><line class="cls-6" x1="668.17" y1="152" x2="668.17" y2="153.72"/><line class="cls-6" x1="668.5" y1="152" x2="668.17" y2="152"/><line class="cls-6" x1="668.5" y1="152" x2="668.5" y2="153.72"/><polyline class="cls-6" points="668.5 167.68 668.17 167.68 668.17 169.39"/><line class="cls-6" x1="668.5" y1="169.39" x2="668.17" y2="169.39"/><line class="cls-6" x1="668.5" y1="167.68" x2="668.5" y2="169.39"/><line class="cls-11" x1="681.04" y1="172.19" x2="670.59" y2="172.19"/><line class="cls-11" x1="714.98" y1="172.19" x2="680.79" y2="172.19"/><line class="cls-11" x1="668.75" y1="172.19" x2="668.75" y2="175.08"/><line class="cls-11" x1="668.75" y1="175.08" x2="681.04" y2="175.08"/><line class="cls-11" x1="680.79" y1="175.08" x2="712.73" y2="175.08"/><line class="cls-11" x1="760.46" y1="274.6" x2="760.46" y2="175.56"/><line class="cls-11" x1="758.62" y1="175.08" x2="758.62" y2="232.01"/><line class="cls-11" x1="758.62" y1="232.29" x2="758.62" y2="274.6"/><line class="cls-11" x1="499.21" y1="187.91" x2="499.21" y2="175.08"/><line class="cls-11" x1="497.38" y1="175.08" x2="497.38" y2="187.91"/><line class="cls-11" x1="497.38" y1="179.36" x2="497.38" y2="188.16"/><line class="cls-11" x1="714.73" y1="189.54" x2="714.73" y2="175.08"/><line class="cls-11" x1="714.73" y1="270.87" x2="714.73" y2="240.32"/><line class="cls-11" x1="714.73" y1="232.01" x2="714.73" y2="204.96"/><line class="cls-11" x1="714.73" y1="189.54" x2="712.89" y2="189.54"/><line class="cls-11" x1="714.73" y1="204.96" x2="712.89" y2="204.96"/><line class="cls-11" x1="714.73" y1="271.35" x2="712.89" y2="271.35"/><line class="cls-11" x1="712.89" y1="175.08" x2="712.89" y2="189.54"/><line class="cls-11" x1="712.89" y1="204.96" x2="712.89" y2="270.87"/><line class="cls-6" x1="714.98" y1="204.96" x2="714.98" y2="204.59"/><line class="cls-6" x1="712.64" y1="204.96" x2="712.64" y2="204.59"/><line class="cls-6" x1="714.98" y1="204.96" x2="712.64" y2="204.96"/><line class="cls-6" x1="714.98" y1="204.59" x2="712.64" y2="204.59"/><line class="cls-6" x1="714.98" y1="189.96" x2="714.98" y2="189.54"/><line class="cls-6" x1="712.64" y1="189.96" x2="712.64" y2="189.54"/><line class="cls-6" x1="714.98" y1="189.96" x2="712.64" y2="189.96"/><line class="cls-6" x1="714.98" y1="189.54" x2="712.64" y2="189.54"/><line class="cls-6" x1="714.98" y1="189.96" x2="729.61" y2="189.96"/><line class="cls-6" x1="714.98" y1="190.67" x2="729.61" y2="190.67"/><line class="cls-6" x1="729.61" y1="189.96" x2="729.61" y2="190.67"/><line class="cls-6" x1="714.98" y1="190.67" x2="714.98" y2="189.96"/><line class="cls-6" x1="714.98" y1="204.59" x2="716.32" y2="204.5"/><line class="cls-6" x1="716.32" y1="204.5" x2="717.58" y2="204.34"/><line class="cls-6" x1="717.58" y1="204.34" x2="718.79" y2="204.08"/><polyline class="cls-6" points="718.79 204.09 720 203.71 721.13 203.21"/><line class="cls-6" x1="721.13" y1="203.21" x2="722.26" y2="202.66"/><line class="cls-6" x1="722.26" y1="202.66" x2="723.3" y2="201.99"/><polyline class="cls-6" points="723.3 202 724.31 201.24 725.27 200.37 726.1 199.49"/><polyline class="cls-6" points="726.1 199.49 726.9 198.48 727.57 197.44"/><polyline class="cls-6" points="727.57 197.44 728.15 196.31 728.65 195.18"/><polyline class="cls-6" points="728.65 195.18 729.07 193.97 729.36 192.76 729.53 191.55"/><line class="cls-6" x1="729.53" y1="191.54" x2="729.61" y2="190.75"/><line class="cls-6" x1="729.61" y1="190.75" x2="729.61" y2="189.96"/><polyline class="cls-6" points="714.99 204.71 715.32 204.71 715.32 206.43"/><line class="cls-6" x1="714.98" y1="206.43" x2="715.32" y2="206.43"/><line class="cls-6" x1="714.98" y1="189.83" x2="715.32" y2="189.83"/><line class="cls-6" x1="715.32" y1="188.12" x2="715.32" y2="189.83"/><line class="cls-6" x1="714.98" y1="188.12" x2="715.32" y2="188.12"/><line class="cls-6" x1="712.64" y1="189.83" x2="712.31" y2="189.83"/><line class="cls-6" x1="712.31" y1="188.12" x2="712.31" y2="189.83"/><line class="cls-6" x1="712.64" y1="188.12" x2="712.31" y2="188.12"/><polyline class="cls-6" points="712.64 204.71 712.31 204.71 712.31 206.43"/><rect class="cls-1" x="699.73" y="206.07" width="12.21" height="16.26"/><path class="cls-2" d="M699.43,269.48l.05.07,0-.07Zm-.16-.18,0,.06v.07h0v.05h.08l-.16-.24Z"/><polygon class="cls-2" points="699.43 249.71 699.35 249.71 699.35 249.75 699.31 249.75 699.31 249.79 699.27 249.84 699.27 249.88 699.48 249.71 699.43 249.71"/><polyline class="cls-3" points="699.48 249.71 712.35 249.71 712.35 269.55 699.48 269.55 699.27 269.24 699.27 249.96"/><path class="cls-2" d="M699.43,225.63l.05.05,0-.05Zm-.16-.12,0,0v0h0v0h.08l-.16-.16Z"/><polygon class="cls-2" points="699.43 205.9 699.35 205.9 699.35 205.94 699.31 205.94 699.31 205.99 699.27 206.03 699.27 206.07 699.48 205.9 699.43 205.9"/><rect class="cls-1" x="699.81" y="250.44" width="12.54" height="18.31"/><line class="cls-4" x1="702.61" y1="250.21" x2="704.49" y2="250.21"/><line class="cls-4" x1="706.37" y1="250.21" x2="708.26" y2="250.21"/><line class="cls-5" x1="710.14" y1="250.21" x2="712.35" y2="250.21"/><line class="cls-4" x1="699.81" y1="250.21" x2="701.36" y2="250.21"/><line class="cls-4" x1="702.61" y1="268.75" x2="704.49" y2="268.75"/><line class="cls-4" x1="706.37" y1="268.75" x2="708.26" y2="268.75"/><line class="cls-5" x1="710.14" y1="268.75" x2="712.35" y2="268.75"/><line class="cls-4" x1="699.81" y1="268.75" x2="701.36" y2="268.75"/><line class="cls-4" x1="699.81" y1="250.21" x2="699.81" y2="252.76"/><line class="cls-4" x1="699.81" y1="254.64" x2="699.81" y2="256.52"/><line class="cls-4" x1="699.81" y1="258.42" x2="699.81" y2="260.3"/><line class="cls-4" x1="699.81" y1="262.41" x2="699.81" y2="265.15"/><line class="cls-4" x1="699.81" y1="268.75" x2="699.81" y2="266.5"/><rect class="cls-1" x="699.81" y="212.59" width="12.54" height="12.54"/><line class="cls-4" x1="702.61" y1="206.41" x2="704.49" y2="206.41"/><line class="cls-4" x1="706.37" y1="206.41" x2="708.26" y2="206.41"/><line class="cls-5" x1="710.14" y1="206.41" x2="712.35" y2="206.41"/><line class="cls-4" x1="699.81" y1="206.41" x2="701.36" y2="206.41"/><line class="cls-4" x1="702.61" y1="225.13" x2="704.49" y2="225.13"/><line class="cls-4" x1="706.37" y1="225.13" x2="708.26" y2="225.13"/><line class="cls-5" x1="710.14" y1="225.13" x2="712.35" y2="225.13"/><line class="cls-4" x1="699.81" y1="225.13" x2="701.36" y2="225.13"/><line class="cls-4" x1="699.81" y1="206.41" x2="699.81" y2="208.96"/><line class="cls-4" x1="699.81" y1="217.02" x2="699.81" y2="218.9"/><line class="cls-4" x1="699.81" y1="220.78" x2="699.81" y2="222.67"/><line class="cls-4" x1="699.81" y1="225.13" x2="699.81" y2="223.59"/><line class="cls-5" x1="712.35" y1="249.71" x2="712.35" y2="269.55"/><polyline class="cls-4" points="712.35 269.55 699.48 269.55 699.43 269.55"/><polyline class="cls-4" points="699.44 269.55 699.44 269.49 699.39 269.49 699.35 269.49 699.35 269.43 699.31 269.43 699.31 269.36 699.27 269.3 699.27 269.24 699.27 249.96 699.27 249.89 699.31 249.83"/><line class="cls-4" x1="699.31" y1="249.79" x2="699.31" y2="249.75"/><polyline class="cls-4" points="699.31 249.75 699.35 249.75 699.35 249.71 699.39 249.71 699.44 249.71 699.48 249.71 712.35 249.71"/><line class="cls-5" x1="712.35" y1="206.28" x2="712.35" y2="225.68"/><polyline class="cls-4" points="712.35 225.68 699.48 225.68 699.43 225.68"/><polyline class="cls-4" points="699.44 225.68 699.44 225.63 699.39 225.63 699.35 225.63 699.35 225.59"/><polyline class="cls-4" points="699.35 225.59 699.31 225.59 699.31 225.55"/><polyline class="cls-4" points="699.31 225.55 699.27 225.51 699.27 225.47"/><polyline class="cls-4" points="699.27 225.47 699.27 206.09 699.27 206.03"/><polyline class="cls-4" points="699.27 206.03 699.31 205.99 699.31 205.95 699.35 205.95 699.35 205.91"/><rect class="cls-1" x="699.64" y="225.72" width="12.88" height="24.91"/><line class="cls-4" x1="699.64" y1="250.63" x2="699.64" y2="225.72"/><line class="cls-4" x1="699.64" y1="225.72" x2="712.52" y2="225.72"/><line class="cls-6" x1="712.52" y1="225.72" x2="712.52" y2="250.63"/><line class="cls-4" x1="712.52" y1="250.63" x2="699.64" y2="250.63"/><line class="cls-4" x1="699.64" y1="228.52" x2="699.14" y2="230.65"/><line class="cls-4" x1="699.14" y1="230.65" x2="699.14" y2="245.74"/><line class="cls-4" x1="699.14" y1="245.74" x2="699.64" y2="247.87"/><polyline class="cls-4" points="699.64 250 699.27 247.87 698.73 245.74"/><polyline class="cls-4" points="698.72 245.74 698.72 230.65 699.27 228.52"/><line class="cls-4" x1="699.27" y1="228.52" x2="699.64" y2="226.38"/><rect class="cls-1" x="701.52" y="238.51" width="10.28" height="10.28"/><line class="cls-6" x1="711.81" y1="238.51" x2="711.81" y2="248.79"/><polyline class="cls-4" points="711.81 248.79 701.52 248.79 701.52 238.5"/><line class="cls-4" x1="701.52" y1="238.51" x2="711.81" y2="238.51"/><rect class="cls-1" x="701.65" y="238.71" width="10.03" height="9.87"/><line class="cls-6" x1="711.68" y1="238.72" x2="711.68" y2="248.58"/><line class="cls-4" x1="711.68" y1="248.58" x2="701.65" y2="248.58"/><polyline class="cls-4" points="701.65 248.58 701.65 238.72 711.68 238.72"/><line class="cls-4" x1="706.75" y1="238.72" x2="706.75" y2="248.58"/><line class="cls-4" x1="706.58" y1="248.58" x2="706.58" y2="238.72"/><line class="cls-4" x1="702.07" y1="238.72" x2="706.08" y2="248.58"/><line class="cls-4" x1="705.95" y1="248.58" x2="701.9" y2="238.72"/><line class="cls-4" x1="706.08" y1="238.72" x2="704.07" y2="243.65"/><line class="cls-4" x1="703.99" y1="243.86" x2="702.07" y2="248.58"/><line class="cls-4" x1="701.9" y1="248.58" x2="703.91" y2="243.65"/><line class="cls-4" x1="703.99" y1="243.48" x2="705.95" y2="238.72"/><line class="cls-4" x1="701.65" y1="243.56" x2="703.87" y2="243.56"/><line class="cls-4" x1="706.75" y1="243.56" x2="711.68" y2="243.56"/><line class="cls-4" x1="704.12" y1="243.56" x2="706.58" y2="243.56"/><line class="cls-4" x1="711.68" y1="243.77" x2="706.75" y2="243.77"/><line class="cls-4" x1="706.58" y1="243.77" x2="704.12" y2="243.77"/><line class="cls-4" x1="703.87" y1="243.77" x2="701.65" y2="243.77"/><line class="cls-4" x1="707.33" y1="238.72" x2="709.3" y2="243.56"/><line class="cls-4" x1="709.38" y1="243.77" x2="711.35" y2="248.58"/><line class="cls-4" x1="711.18" y1="248.58" x2="709.22" y2="243.77"/><line class="cls-4" x1="709.13" y1="243.56" x2="707.17" y2="238.72"/><line class="cls-4" x1="711.35" y1="238.72" x2="709.38" y2="243.56"/><line class="cls-4" x1="709.26" y1="243.86" x2="707.33" y2="248.58"/><line class="cls-4" x1="707.17" y1="248.58" x2="709.13" y2="243.77"/><line class="cls-4" x1="709.26" y1="243.48" x2="711.18" y2="238.72"/><rect class="cls-1" x="701.52" y="227.6" width="10.28" height="10.28"/><line class="cls-6" x1="711.81" y1="227.6" x2="711.81" y2="237.88"/><polyline class="cls-4" points="711.81 237.88 701.52 237.88 701.52 227.6 711.81 227.6"/><rect class="cls-1" x="701.65" y="227.81" width="10.03" height="9.86"/><line class="cls-6" x1="711.68" y1="227.81" x2="711.68" y2="237.67"/><line class="cls-4" x1="711.68" y1="237.67" x2="701.65" y2="237.67"/><polyline class="cls-4" points="701.65 237.67 701.65 227.81 711.68 227.81"/><line class="cls-4" x1="707.33" y1="227.81" x2="709.26" y2="232.57"/><line class="cls-4" x1="709.38" y1="232.86" x2="711.35" y2="237.67"/><line class="cls-4" x1="711.18" y1="237.67" x2="709.26" y2="232.95"/><line class="cls-4" x1="709.13" y1="232.65" x2="707.17" y2="227.81"/><polyline class="cls-4" points="708.97 231.82 709.3 231.69 709.59 231.82"/><line class="cls-4" x1="708.67" y1="243.56" x2="708.71" y2="243.1"/><line class="cls-4" x1="708.71" y1="243.1" x2="708.88" y2="242.9"/><polyline class="cls-4" points="709.93 243.77 709.88 244.19 709.67 244.48"/><line class="cls-4" x1="709.68" y1="242.81" x2="709.88" y2="243.1"/><line class="cls-4" x1="709.88" y1="243.1" x2="709.93" y2="243.56"/><polyline class="cls-4" points="704.33 244.61 704.03 244.73 703.7 244.57"/><line class="cls-4" x1="703.61" y1="233.49" x2="703.49" y2="233.28"/><line class="cls-4" x1="703.49" y1="233.28" x2="703.41" y2="232.86"/><polyline class="cls-4" points="703.7 231.82 704.03 231.69 704.33 231.82"/><polyline class="cls-4" points="704.66 243.77 704.62 244.19 704.41 244.48"/><polyline class="cls-4" points="708.97 242.73 709.3 242.6 709.59 242.73"/><line class="cls-4" x1="709.59" y1="244.61" x2="709.3" y2="244.73"/><line class="cls-4" x1="709.3" y1="244.73" x2="708.96" y2="244.57"/><polyline class="cls-4" points="704.33 233.7 704.03 233.82 703.7 233.66"/><line class="cls-4" x1="708.88" y1="244.4" x2="708.71" y2="244.19"/><line class="cls-4" x1="708.71" y1="244.19" x2="708.67" y2="243.77"/><polyline class="cls-4" points="709.68 231.9 709.88 232.19 709.93 232.66"/><line class="cls-4" x1="709.59" y1="233.7" x2="709.3" y2="233.82"/><line class="cls-4" x1="709.3" y1="233.82" x2="708.96" y2="233.66"/><polyline class="cls-4" points="708.67 232.65 708.72 232.19 708.88 231.99"/><line class="cls-4" x1="708.88" y1="233.49" x2="708.71" y2="233.28"/><line class="cls-4" x1="708.71" y1="233.28" x2="708.67" y2="232.86"/><polyline class="cls-4" points="703.7 242.73 704.03 242.6 704.33 242.73"/><line class="cls-4" x1="704.66" y1="232.86" x2="704.62" y2="233.28"/><line class="cls-4" x1="704.62" y1="233.28" x2="704.41" y2="233.57"/><line class="cls-4" x1="703.61" y1="244.4" x2="703.49" y2="244.19"/><line class="cls-4" x1="703.49" y1="244.19" x2="703.41" y2="243.77"/><line class="cls-4" x1="704.41" y1="242.81" x2="704.62" y2="243.1"/><line class="cls-4" x1="704.62" y1="243.1" x2="704.66" y2="243.56"/><line class="cls-4" x1="703.41" y1="243.56" x2="703.49" y2="243.1"/><line class="cls-4" x1="703.49" y1="243.1" x2="703.61" y2="242.9"/><line class="cls-4" x1="709.93" y1="232.86" x2="709.88" y2="233.28"/><line class="cls-4" x1="709.88" y1="233.28" x2="709.67" y2="233.57"/><line class="cls-4" x1="704.41" y1="231.9" x2="704.62" y2="232.19"/><line class="cls-4" x1="704.62" y1="232.19" x2="704.66" y2="232.66"/><polyline class="cls-4" points="703.41 232.65 703.49 232.19 703.62 231.99"/><polyline class="cls-4" points="699.64 242.9 699.69 242.9 699.81 242.48 700.06 242.23"/><line class="cls-4" x1="700.06" y1="242.23" x2="700.35" y2="242.23"/><polyline class="cls-4" points="700.35 242.23 700.61 242.48 700.77 242.9 700.77 243.4"/><line class="cls-4" x1="700.77" y1="243.4" x2="700.6" y2="243.86"/><polyline class="cls-4" points="700.61 243.86 700.35 244.11 700.06 244.11 699.81 243.86"/><polyline class="cls-4" points="699.81 243.86 699.69 243.4 699.64 243.4 700.69 243.4 700.56 243.23"/><polyline class="cls-4" points="700.56 243.23 699.69 243.23 699.69 243.06"/><line class="cls-4" x1="699.69" y1="243.06" x2="700.56" y2="243.06"/><line class="cls-4" x1="700.56" y1="243.06" x2="700.69" y2="242.9"/><line class="cls-4" x1="700.56" y1="243.23" x2="700.56" y2="243.06"/><line class="cls-4" x1="700.69" y1="230.82" x2="700.56" y2="230.94"/><polyline class="cls-4" points="700.56 230.94 699.69 230.94 699.64 230.81 699.64 231.28"/><polyline class="cls-4" points="699.64 231.27 700.69 231.27 700.56 231.69"/><line class="cls-4" x1="700.56" y1="231.69" x2="700.31" y2="231.94"/><polyline class="cls-4" points="700.31 231.94 700.06 231.94 699.81 231.69"/><line class="cls-4" x1="699.81" y1="231.69" x2="699.64" y2="231.28"/><polyline class="cls-4" points="699.64 231.27 699.69 231.27 699.81 231.74"/><line class="cls-4" x1="699.81" y1="231.73" x2="700.06" y2="231.99"/><line class="cls-4" x1="700.06" y1="231.99" x2="700.35" y2="231.99"/><polyline class="cls-4" points="700.35 231.99 700.61 231.73 700.77 231.27 700.77 230.77 700.61 230.35 700.35 230.1 700.06 230.1 699.81 230.35"/><polyline class="cls-4" points="699.81 230.35 699.69 230.77 699.64 230.81"/><polyline class="cls-4" points="699.64 230.81 699.81 230.4 700.06 230.15"/><polyline class="cls-4" points="700.06 230.15 700.31 230.15 700.56 230.4 700.69 230.81 699.64 230.81"/><line class="cls-4" x1="700.69" y1="231.27" x2="700.56" y2="231.11"/><polyline class="cls-4" points="700.56 231.11 699.69 231.11 699.64 231.27"/><line class="cls-4" x1="700.56" y1="231.11" x2="700.56" y2="230.94"/><polyline class="cls-4" points="699.64 233.16 700.69 233.16 700.56 233.28"/><polyline class="cls-4" points="700.56 233.28 700.56 233.45 700.69 233.62 699.64 233.62 699.81 234.03 700.06 234.28"/><polyline class="cls-4" points="700.06 234.28 700.31 234.28 700.56 234.03"/><line class="cls-4" x1="700.56" y1="234.03" x2="700.69" y2="233.62"/><polyline class="cls-4" points="700.56 245.4 700.69 245.24 700.56 244.86"/><polyline class="cls-4" points="700.56 244.86 700.31 244.61 700.06 244.61 699.81 244.86"/><polyline class="cls-4" points="699.81 244.86 699.64 245.24 699.69 245.24 699.81 244.82 700.06 244.57"/><line class="cls-4" x1="700.06" y1="244.57" x2="700.35" y2="244.57"/><polyline class="cls-4" points="700.35 244.57 700.61 244.82 700.77 245.24 700.77 245.74 700.61 246.2"/><polyline class="cls-4" points="700.61 246.2 700.35 246.45 700.06 246.45 699.81 246.2"/><polyline class="cls-4" points="699.81 246.2 699.69 245.74 699.64 245.74 700.69 245.74 700.56 246.16"/><polyline class="cls-4" points="700.56 246.16 700.31 246.36 700.06 246.36 699.81 246.16"/><polyline class="cls-4" points="699.81 246.16 699.64 245.74 699.69 245.57"/><line class="cls-4" x1="700.69" y1="245.74" x2="700.56" y2="245.57"/><polyline class="cls-4" points="700.56 245.57 700.56 245.4 699.69 245.4 699.69 245.57 700.56 245.57"/><line class="cls-4" x1="700.69" y1="233.16" x2="700.56" y2="232.74"/><polyline class="cls-4" points="700.56 232.74 700.31 232.49 700.06 232.49 699.81 232.74"/><polyline class="cls-4" points="699.81 232.74 699.64 233.16 699.69 233.11 699.81 232.69"/><line class="cls-4" x1="699.81" y1="232.7" x2="700.06" y2="232.45"/><line class="cls-4" x1="700.06" y1="232.45" x2="700.35" y2="232.45"/><polyline class="cls-4" points="700.35 232.44 700.61 232.7 700.77 233.11 700.77 233.62"/><polyline class="cls-4" points="700.77 233.62 700.61 234.07 700.35 234.33 700.06 234.33 699.81 234.07"/><polyline class="cls-4" points="699.81 234.07 699.69 233.62 699.64 233.62"/><line class="cls-4" x1="699.69" y1="231.11" x2="699.69" y2="230.94"/><line class="cls-4" x1="700.56" y1="233.45" x2="699.69" y2="233.45"/><polyline class="cls-4" points="699.69 233.28 699.69 233.45 699.64 233.62 699.64 233.16 699.69 233.28 700.56 233.28"/><polyline class="cls-4" points="699.69 243.06 699.64 242.9 700.69 242.9 700.56 242.52"/><polyline class="cls-4" points="700.56 242.52 700.31 242.27 700.06 242.27 699.81 242.52"/><polyline class="cls-4" points="699.81 242.52 699.64 242.9 699.64 243.4"/><polyline class="cls-4" points="699.69 243.23 699.64 243.4 699.81 243.81 700.06 244.02"/><polyline class="cls-4" points="700.06 244.02 700.31 244.02 700.56 243.81 700.69 243.4"/><polyline class="cls-4" points="700.35 236.67 700.61 236.67 700.61 236.63 700.35 236.63 700.35 236.67"/><polyline class="cls-4" points="700.35 236.67 700.35 237 700.35 237.04"/><polyline class="cls-4" points="700.35 237.04 700.61 237.04 700.61 237"/><line class="cls-4" x1="700.6" y1="236.63" x2="700.6" y2="237.04"/><polyline class="cls-4" points="700.61 236.67 700.61 237 700.35 237"/><line class="cls-4" x1="700.35" y1="239.68" x2="700.6" y2="239.68"/><line class="cls-4" x1="700.6" y1="239.68" x2="700.6" y2="239.64"/><polyline class="cls-4" points="700.61 240.01 700.35 240.01 700.35 239.68 700.35 239.63 700.61 239.63 700.61 240.05"/><line class="cls-4" x1="700.6" y1="239.68" x2="700.6" y2="240.01"/><polyline class="cls-4" points="700.61 240.01 700.61 240.05 700.35 240.05 700.35 240.01"/><polyline class="cls-4" points="700.35 237.59 700.61 237.59 700.61 237.54"/><polyline class="cls-4" points="700.61 237.92 700.35 237.92 700.35 237.59"/><polyline class="cls-4" points="700.35 237.59 700.35 237.54 700.61 237.54 700.61 237.96 700.61 237.92 700.61 237.59"/><polyline class="cls-4" points="700.35 239.55 700.35 239.22 700.61 239.22 700.61 239.18"/><polyline class="cls-4" points="700.35 239.22 700.35 239.18 700.61 239.18 700.61 239.59 700.61 239.55"/><polyline class="cls-4" points="700.61 239.59 700.35 239.59 700.35 239.55 700.61 239.55 700.61 239.22"/><polyline class="cls-4" points="700.61 240.51 700.35 240.51 700.35 240.47"/><polyline class="cls-4" points="700.35 240.47 700.35 240.14 700.61 240.14 700.61 240.09 700.35 240.09 700.35 240.14"/><polyline class="cls-4" points="700.61 240.09 700.61 240.51 700.61 240.47"/><line class="cls-4" x1="700.6" y1="240.47" x2="700.6" y2="240.14"/><polyline class="cls-4" points="700.61 237.46 700.61 237.13 700.61 237.09 700.61 237.5 700.61 237.46 700.35 237.46 700.35 237.13 700.61 237.13"/><polyline class="cls-4" points="700.61 239.13 700.61 238.76 700.61 238.72"/><line class="cls-4" x1="700.35" y1="239.13" x2="700.35" y2="239.17"/><polyline class="cls-4" points="700.35 239.18 700.61 239.18 700.61 238.71"/><polyline class="cls-4" points="700.61 238.72 700.35 238.72 700.35 238.76"/><line class="cls-4" x1="700.35" y1="238.76" x2="700.6" y2="238.76"/><polyline class="cls-4" points="700.61 239.18 700.61 239.13 700.35 239.13 700.35 238.76"/><polyline class="cls-4" points="700.61 236.16 700.35 236.16 700.35 236.21 700.61 236.21 700.61 236.17"/><polyline class="cls-4" points="700.61 236.16 700.61 236.63 700.61 236.58"/><polyline class="cls-4" points="700.61 236.21 700.61 236.58 700.35 236.58"/><polyline class="cls-4" points="700.61 236.63 700.35 236.63 700.35 236.58 700.35 236.21"/><line class="cls-4" x1="700.6" y1="240.47" x2="700.35" y2="240.47"/><polyline class="cls-4" points="700.35 237.13 700.35 237.09 700.61 237.09"/><polyline class="cls-4" points="700.61 237.96 700.35 237.96 700.35 237.92"/><polyline class="cls-4" points="700.61 237.5 700.35 237.5 700.35 237.46"/><line class="cls-4" x1="700.06" y1="237.13" x2="700.06" y2="237.09"/><polyline class="cls-4" points="699.81 237.13 699.81 237.09 700.06 237.09"/><polyline class="cls-4" points="700.06 237.09 700.06 237.5 700.06 237.46 699.81 237.46"/><polyline class="cls-4" points="699.81 237.46 699.81 237.13 700.06 237.13"/><line class="cls-4" x1="700.06" y1="237.13" x2="700.06" y2="237.46"/><polyline class="cls-4" points="699.81 240.47 699.81 240.14 700.06 240.14"/><polyline class="cls-4" points="700.06 240.14 700.06 240.09 700.06 240.51"/><line class="cls-4" x1="700.06" y1="240.47" x2="699.81" y2="240.47"/><polyline class="cls-4" points="699.81 240.47 699.81 240.51 700.06 240.51"/><line class="cls-4" x1="700.06" y1="240.51" x2="700.06" y2="240.47"/><line class="cls-4" x1="700.06" y1="240.47" x2="700.06" y2="240.14"/><line class="cls-4" x1="700.06" y1="236.21" x2="700.06" y2="236.17"/><line class="cls-4" x1="699.81" y1="236.21" x2="699.81" y2="236.17"/><line class="cls-4" x1="699.81" y1="236.17" x2="700.06" y2="236.17"/><polyline class="cls-4" points="700.06 236.16 700.06 236.63 700.06 236.58 699.81 236.58"/><line class="cls-4" x1="700.06" y1="236.63" x2="699.81" y2="236.63"/><polyline class="cls-4" points="699.81 236.63 699.81 236.58 699.81 236.21 700.06 236.21"/><line class="cls-4" x1="700.06" y1="236.21" x2="700.06" y2="236.58"/><line class="cls-4" x1="699.81" y1="238.76" x2="700.06" y2="238.76"/><polyline class="cls-4" points="700.06 238.76 700.06 238.72 700.06 239.18 699.81 239.18"/><line class="cls-4" x1="699.81" y1="239.18" x2="699.81" y2="239.13"/><polyline class="cls-4" points="700.06 239.18 700.06 239.13 700.06 238.76"/><line class="cls-4" x1="699.81" y1="240.01" x2="700.06" y2="240.01"/><polyline class="cls-4" points="700.06 240.01 700.06 240.05 699.81 240.05"/><line class="cls-4" x1="699.81" y1="240.05" x2="699.81" y2="240.01"/><polyline class="cls-4" points="699.81 240.01 699.81 239.68 699.81 239.63 700.06 239.63"/><line class="cls-4" x1="700.06" y1="239.64" x2="700.06" y2="239.68"/><line class="cls-4" x1="700.06" y1="239.64" x2="700.06" y2="240.05"/><line class="cls-4" x1="699.81" y1="239.68" x2="700.06" y2="239.68"/><line class="cls-4" x1="700.06" y1="239.68" x2="700.06" y2="240.01"/><line class="cls-4" x1="700.06" y1="237.92" x2="699.81" y2="237.92"/><line class="cls-4" x1="699.81" y1="237.92" x2="699.81" y2="237.59"/><line class="cls-4" x1="699.81" y1="237.59" x2="700.06" y2="237.59"/><polyline class="cls-4" points="700.06 237.59 700.06 237.54 700.06 237.96 700.06 237.92 700.06 237.59"/><line class="cls-4" x1="700.06" y1="239.22" x2="700.06" y2="239.18"/><line class="cls-4" x1="700.06" y1="239.55" x2="699.81" y2="239.55"/><polyline class="cls-4" points="699.81 239.55 699.81 239.22 699.81 239.18 700.06 239.18"/><polyline class="cls-4" points="700.06 239.18 700.06 239.59 699.81 239.59"/><line class="cls-4" x1="699.81" y1="239.59" x2="699.81" y2="239.55"/><polyline class="cls-4" points="700.06 239.59 700.06 239.55 700.06 239.22 699.81 239.22"/><polyline class="cls-4" points="700.06 236.67 700.06 236.63 700.06 237.04 699.81 237.04"/><line class="cls-4" x1="699.81" y1="237.04" x2="699.81" y2="237"/><line class="cls-4" x1="700.06" y1="237.04" x2="700.06" y2="237"/><line class="cls-4" x1="700.06" y1="236.63" x2="699.81" y2="236.63"/><line class="cls-4" x1="699.81" y1="236.63" x2="699.81" y2="236.67"/><line class="cls-4" x1="699.81" y1="236.67" x2="700.06" y2="236.67"/><polyline class="cls-4" points="700.06 236.67 700.06 237 699.81 237"/><line class="cls-4" x1="699.81" y1="237" x2="699.81" y2="236.67"/><polyline class="cls-4" points="699.69 245.4 699.64 245.24 700.69 245.24"/><line class="cls-4" x1="699.64" y1="245.74" x2="699.64" y2="245.24"/><line class="cls-4" x1="700.06" y1="239.13" x2="699.81" y2="239.13"/><polyline class="cls-4" points="699.81 239.13 699.81 238.76 699.81 238.72 700.06 238.72"/><line class="cls-4" x1="700.06" y1="237.5" x2="699.81" y2="237.5"/><line class="cls-4" x1="699.81" y1="237.5" x2="699.81" y2="237.46"/><polyline class="cls-4" points="699.81 237.59 699.81 237.54 700.06 237.54"/><polyline class="cls-4" points="699.81 240.14 699.81 240.09 700.06 240.09"/><line class="cls-4" x1="700.06" y1="237.96" x2="699.81" y2="237.96"/><line class="cls-4" x1="699.81" y1="237.96" x2="699.81" y2="237.92"/><line class="cls-4" x1="711.35" y1="227.81" x2="707.33" y2="237.67"/><line class="cls-4" x1="707.17" y1="237.67" x2="711.18" y2="227.81"/><line class="cls-4" x1="701.9" y1="237.67" x2="705.95" y2="227.81"/><line class="cls-4" x1="706.08" y1="227.81" x2="702.07" y2="237.67"/><line class="cls-4" x1="704.07" y1="232.74" x2="706.08" y2="237.67"/><line class="cls-4" x1="705.95" y1="237.67" x2="703.99" y2="232.95"/><line class="cls-4" x1="703.91" y1="232.74" x2="701.9" y2="227.81"/><line class="cls-4" x1="702.07" y1="227.81" x2="703.99" y2="232.57"/><line class="cls-4" x1="706.58" y1="237.67" x2="706.58" y2="227.81"/><line class="cls-4" x1="706.75" y1="227.81" x2="706.75" y2="237.67"/><line class="cls-4" x1="706.58" y1="232.86" x2="704.12" y2="232.86"/><line class="cls-4" x1="704.12" y1="232.65" x2="706.58" y2="232.65"/><line class="cls-4" x1="703.87" y1="232.86" x2="701.65" y2="232.86"/><line class="cls-4" x1="701.65" y1="232.65" x2="703.87" y2="232.65"/><line class="cls-4" x1="706.75" y1="232.65" x2="709.22" y2="232.65"/><line class="cls-4" x1="709.13" y1="232.86" x2="706.75" y2="232.86"/><line class="cls-4" x1="711.68" y1="232.86" x2="709.3" y2="232.86"/><line class="cls-4" x1="709.38" y1="232.65" x2="711.68" y2="232.65"/><line class="cls-4" x1="700.94" y1="225.72" x2="700.94" y2="250.63"/><line class="cls-4" x1="706.25" y1="206.91" x2="712.52" y2="206.91"/><line class="cls-4" x1="712.52" y1="222.5" x2="706.25" y2="222.5"/><rect class="cls-1" x="706.25" y="255.75" width="6.27" height="13.73"/><line class="cls-4" x1="706.25" y1="253.85" x2="712.52" y2="253.85"/><line class="cls-4" x1="712.52" y1="269.48" x2="706.25" y2="269.48"/><line class="cls-4" x1="706.25" y1="269.48" x2="706.25" y2="253.85"/><line class="cls-6" x1="712.64" y1="206.4" x2="712.31" y2="206.4"/><line class="cls-6" x1="714.98" y1="271.79" x2="714.98" y2="271.35"/><line class="cls-6" x1="712.64" y1="271.79" x2="712.64" y2="271.35"/><line class="cls-6" x1="714.98" y1="271.79" x2="712.64" y2="271.79"/><line class="cls-6" x1="714.98" y1="271.35" x2="712.64" y2="271.35"/><line class="cls-6" x1="714.98" y1="271.65" x2="715.32" y2="271.65"/><line class="cls-6" x1="715.32" y1="269.64" x2="715.32" y2="271.65"/><line class="cls-6" x1="714.98" y1="269.64" x2="715.32" y2="269.64"/><line class="cls-6" x1="712.64" y1="271.65" x2="712.31" y2="271.65"/><line class="cls-6" x1="712.31" y1="269.64" x2="712.31" y2="271.65"/><line class="cls-6" x1="712.64" y1="269.64" x2="712.31" y2="269.64"/><line class="cls-11" x1="758.62" y1="244.3" x2="714.73" y2="244.3"/><line class="cls-11" x1="714.73" y1="246.14" x2="758.62" y2="246.14"/><line class="cls-11" x1="603.71" y1="174.03" x2="603.46" y2="174.03"/><line class="cls-6" x1="601.37" y1="147.91" x2="601.62" y2="147.91"/><line class="cls-6" x1="601.37" y1="147.11" x2="603.21" y2="147.11"/><line class="cls-11" x1="760.46" y1="172.19" x2="713.81" y2="172.19"/><line class="cls-11" x1="760.46" y1="175.08" x2="760.46" y2="172.19"/><line class="cls-11" x1="714.73" y1="175.08" x2="758.62" y2="175.08"/><line class="cls-6" x1="450.89" y1="175.08" x2="450.6" y2="175.08"/><text class="cls-12" transform="translate(724.25 212.32)"><tspan class="cls-13">P</tspan><tspan class="cls-14" x="3.95" y="0">A</tspan><tspan x="8.83" y="0">N</tspan><tspan class="cls-15" x="13.72" y="0">T</tspan><tspan class="cls-16" x="16.55" y="0">R</tspan><tspan x="20.53" y="0">Y</tspan></text><rect class="cls-1" x="430.84" y="235.73" width="42.74" height="22.61"/><text class="cls-17" transform="translate(433.75 252.35)"><tspan class="cls-18">13</tspan><tspan class="cls-19" x="7.3" y="0">&apos;</tspan><tspan class="cls-20" x="8.57" y="0">-</tspan><tspan class="cls-21" x="10.75" y="0">4</tspan><tspan x="14.4" y="0">&quot;</tspan><tspan class="cls-22" x="16.44" y="0"> </tspan><tspan class="cls-21" x="18.22" y="0">X</tspan><tspan class="cls-23" x="22.24" y="0"> </tspan><tspan class="cls-24" x="24.11" y="0">20</tspan><tspan class="cls-25" x="31.25" y="0">&apos;</tspan><tspan class="cls-20" x="32.59" y="0">-</tspan><tspan class="cls-26" x="34.77" y="0">5</tspan><tspan x="38.35" y="0">&quot;</tspan></text><text class="cls-17" transform="translate(441.68 245.78)">S<tspan class="cls-27" x="3.29" y="0">T</tspan><tspan class="cls-19" x="6.1" y="0">U</tspan><tspan class="cls-14" x="10.39" y="0">D</tspan><tspan x="15.3" y="0">Y</tspan></text><text class="cls-28" transform="translate(532.72 252.79)"><tspan class="cls-18">16</tspan><tspan class="cls-19" x="7.3" y="0">&apos;</tspan><tspan class="cls-20" x="8.57" y="0">-</tspan><tspan class="cls-21" x="10.75" y="0">8</tspan><tspan class="cls-29" x="14.4" y="0">&quot;</tspan><tspan class="cls-30" x="18.23" y="0">X</tspan><tspan class="cls-26" x="24.11" y="0">20</tspan><tspan class="cls-31" x="31.27" y="0">&apos;</tspan><tspan x="32.61" y="0">-</tspan><tspan class="cls-24" x="34.81" y="0">5</tspan><tspan x="38.38" y="0">&quot;</tspan></text><text class="cls-28" transform="translate(543.44 246.14)"><tspan class="cls-14">F</tspan><tspan class="cls-32" x="3.21" y="0">A</tspan><tspan class="cls-33" x="8.16" y="0">M</tspan><tspan class="cls-34" x="14.19" y="0">I</tspan><tspan class="cls-22" x="15.74" y="0">L</tspan><tspan x="18.75" y="0">Y</tspan></text><path class="cls-35" d="M611.17,273.89h.93v4.74h-.47v-4.27h-.75Z"/><path class="cls-35" d="M614.07,273.89h3l-2.54,4.86-.39-.2,2.19-4.2h-2.27Z"/><path class="cls-35" d="M618.07,275.27h-.34l-.07-1.5h.48Z"/><path class="cls-35" d="M618.72,276.66h1.78v.39h-1.78Z"/><path class="cls-35" d="M624,273.89v.46h-1.68l-.24,1.29a2,2,0,0,1,.56-.09,1.4,1.4,0,0,1,1.06.43,1.53,1.53,0,0,1,.42,1.11,1.79,1.79,0,0,1-.21.86,1.55,1.55,0,0,1-.59.6,1.78,1.78,0,0,1-.85.2,1.38,1.38,0,0,1-1-.35,1.45,1.45,0,0,1-.48-.91h.49a1.19,1.19,0,0,0,.18.44,1,1,0,0,0,.35.28,1.06,1.06,0,0,0,.46.1,1.08,1.08,0,0,0,.8-.35,1.26,1.26,0,0,0,.34-.89,1,1,0,0,0-.31-.78,1.09,1.09,0,0,0-.81-.3,2.73,2.73,0,0,0-1,.26l.44-2.36Z"/><path class="cls-35" d="M624.92,275.27h-.34l-.07-1.5H625Zm1.25,0h-.33l-.07-1.5h.47Z"/><path class="cls-35" d="M628.51,273.89h.55l1.14,1.85,1.14-1.85h.54l-1.41,2.29,1.51,2.45h-.56l-1.23-2-1.23,2h-.56l1.52-2.44Z"/><path class="cls-35" d="M634.84,275.38h-.46a1.63,1.63,0,0,1,.47-1.16,1.51,1.51,0,0,1,1.11-.45,1.41,1.41,0,0,1,1.06.43,1.37,1.37,0,0,1,.4,1,1.56,1.56,0,0,1-.19.76,5.72,5.72,0,0,1-.75.95l-1.18,1.28h2.19v.45h-3.22l1.81-1.95a6,6,0,0,0,.72-.88,1.17,1.17,0,0,0,.16-.6.92.92,0,0,0-.3-.69,1.08,1.08,0,0,0-1.48,0A1.3,1.3,0,0,0,634.84,275.38Z"/><path class="cls-35" d="M640.46,273.77h.09v3.31h.58v.45h-.58v1.1h-.47v-1.1h-2.27Zm-.38,3.31v-2l-1.4,2Z"/><path class="cls-35" d="M642.12,275.27h-.34l-.07-1.5h.48Z"/><path class="cls-35" d="M642.84,276.66h1.78v.39h-1.78Z"/><path class="cls-35" d="M645.29,273.89h3l-2.53,4.86-.4-.2,2.19-4.2h-2.26Z"/><path class="cls-35" d="M649,275.27h-.33l-.08-1.5H649Zm1.25,0h-.33l-.07-1.5h.48Z"/><path class="cls-35" d="M615.53,265.93H616v1.78l1.89-1.78h.64l-2.28,2.13,2.45,2.61h-.63l-2.07-2.2v2.2h-.49Z"/><path class="cls-35" d="M619.39,265.93h.48v4.74h-.48Z"/><path class="cls-35" d="M620.48,266.4v-.47h2.6v.47H622v4.27h-.48V266.4Z"/><path class="cls-35" d="M628.14,266.81l-.37.29a2.06,2.06,0,0,0-.74-.61,2.23,2.23,0,0,0-2,.06,2,2,0,0,0-.74.74,2.09,2.09,0,0,0,.32,2.48,2.2,2.2,0,0,0,3.17-.2l.37.28a2.42,2.42,0,0,1-.88.7,2.84,2.84,0,0,1-1.19.24,2.47,2.47,0,0,1-2-.82,2.52,2.52,0,0,1-.6-1.69,2.32,2.32,0,0,1,.73-1.75,2.5,2.5,0,0,1,1.83-.71,2.64,2.64,0,0,1,1.2.26A2.29,2.29,0,0,1,628.14,266.81Z"/><path class="cls-35" d="M629.09,265.93h.47v2H632v-2h.48v4.74H632v-2.28h-2.41v2.28h-.47Z"/><path class="cls-35" d="M633.69,265.93h2.71v.47h-2.24v1.48h2.22v.47h-2.22v1.86h2.22v.46h-2.69Z"/><path class="cls-35" d="M637.22,270.67v-4.74h.1l3.15,3.64v-3.64h.47v4.74h-.1l-3.13-3.59v3.59Z"/></g></svg>