<svg id="图层_1" data-name="图层 1" xmlns="http://www.w3.org/2000/svg" viewBox="0 0 1152 576"><defs><style>.cls-1{fill:#e8e2e1;}.cls-1,.cls-6{fill-rule:evenodd;}.cls-2,.cls-3,.cls-4,.cls-5{fill:none;stroke:#0e5579;stroke-linecap:round;stroke-linejoin:bevel;}.cls-2{stroke-width:0.24px;}.cls-3{stroke-width:0.18px;}.cls-4{stroke-width:0.24px;}.cls-5{stroke-width:0.18px;}.cls-6{fill:#fff;}.cls-7{font-size:6.6px;fill:#0e5579;font-family:CenturyGothic, Century Gothic;letter-spacing:0em;}.cls-8{letter-spacing:-0.01em;}</style></defs><title>opt 4&amp;apos; island</title><g id="opt_4_island" data-name="opt 4&apos; island"><polyline class="cls-1" points="656.24 219.96 656.07 220.12 656.07 220.08 656.12 220.04 656.12 220 656.16 220 656.2 219.96"/><polyline class="cls-1" points="679.06 220.12 678.89 219.96 678.94 219.96 678.98 220 679.02 220 679.02 220.04 679.06 220.08"/><polyline class="cls-1" points="678.89 267.56 679.06 267.36 679.06 267.44 679.02 267.48 679.02 267.52 678.98 267.52 678.94 267.56"/><polyline class="cls-1" points="665.48 267.36 665.64 267.56 665.6 267.56 665.56 267.52 665.52 267.52 665.52 267.48 665.48 267.44 665.48 267.4"/><polyline class="cls-1" points="665.64 234.59 665.48 234.75 665.48 234.71 665.52 234.67 665.52 234.63 665.56 234.63 665.6 234.59"/><polyline class="cls-1" points="656.07 233.33 656.24 233.54 656.2 233.54 656.16 233.5 656.11 233.5 656.11 233.46 656.07 233.41 656.07 233.37"/><line class="cls-2" x1="656.57" y1="220.46" x2="656.57" y2="222.8"/><line class="cls-2" x1="656.57" y1="224.68" x2="656.57" y2="226.56"/><line class="cls-2" x1="656.57" y1="228.44" x2="656.57" y2="230.32"/><line class="cls-2" x1="656.57" y1="233" x2="656.57" y2="231.45"/><line class="cls-2" x1="665.98" y1="220.46" x2="664.39" y2="220.46"/><line class="cls-2" x1="662.51" y1="220.46" x2="660.63" y2="220.46"/><line class="cls-2" x1="658.75" y1="220.46" x2="656.57" y2="220.46"/><line class="cls-2" x1="665.98" y1="233" x2="664.39" y2="233"/><line class="cls-2" x1="662.51" y1="233" x2="660.63" y2="233"/><line class="cls-2" x1="658.75" y1="233" x2="656.57" y2="233"/><line class="cls-2" x1="665.98" y1="234.58" x2="665.98" y2="233"/><line class="cls-2" x1="678.52" y1="220.46" x2="675.68" y2="220.46"/><line class="cls-2" x1="673.8" y1="220.46" x2="671.92" y2="220.46"/><line class="cls-2" x1="670.03" y1="220.46" x2="668.15" y2="220.46"/><line class="cls-2" x1="665.98" y1="220.46" x2="667.57" y2="220.46"/><line class="cls-2" x1="678.52" y1="220.46" x2="678.52" y2="222.8"/><line class="cls-2" x1="678.52" y1="224.68" x2="678.52" y2="226.56"/><line class="cls-2" x1="678.52" y1="228.44" x2="678.52" y2="230.32"/><line class="cls-2" x1="678.52" y1="232.2" x2="678.52" y2="234.59"/><line class="cls-2" x1="665.98" y1="250.26" x2="665.98" y2="252.89"/><line class="cls-2" x1="665.98" y1="254.77" x2="665.98" y2="256.66"/><line class="cls-2" x1="665.98" y1="258.54" x2="665.98" y2="260.42"/><line class="cls-2" x1="665.98" y1="262.3" x2="665.98" y2="264.35"/><line class="cls-2" x1="678.52" y1="250.26" x2="678.52" y2="252.89"/><line class="cls-2" x1="678.52" y1="254.77" x2="678.52" y2="256.66"/><line class="cls-2" x1="678.52" y1="258.54" x2="678.52" y2="260.42"/><line class="cls-2" x1="678.52" y1="262.3" x2="678.52" y2="264.35"/><line class="cls-2" x1="665.98" y1="234.58" x2="665.98" y2="237.85"/><line class="cls-2" x1="665.98" y1="239.73" x2="665.98" y2="241.61"/><line class="cls-2" x1="665.98" y1="243.49" x2="665.98" y2="245.37"/><line class="cls-2" x1="665.98" y1="247.25" x2="665.98" y2="250.26"/><line class="cls-2" x1="678.52" y1="234.58" x2="678.52" y2="237.85"/><line class="cls-2" x1="678.52" y1="239.73" x2="678.52" y2="241.61"/><line class="cls-2" x1="678.52" y1="243.49" x2="678.52" y2="245.37"/><line class="cls-2" x1="678.52" y1="247.25" x2="678.52" y2="250.26"/><line class="cls-2" x1="678.52" y1="267.02" x2="675.68" y2="267.02"/><line class="cls-2" x1="673.8" y1="267.02" x2="671.92" y2="267.02"/><line class="cls-2" x1="670.03" y1="267.02" x2="668.15" y2="267.02"/><line class="cls-2" x1="665.98" y1="267.02" x2="667.57" y2="267.02"/><line class="cls-2" x1="665.98" y1="266.06" x2="665.98" y2="267.94"/><line class="cls-2" x1="665.98" y1="264.35" x2="665.98" y2="267.02"/><line class="cls-2" x1="665.98" y1="264.35" x2="665.98" y2="265.93"/><line class="cls-2" x1="678.52" y1="266.06" x2="678.52" y2="267.94"/><line class="cls-2" x1="678.52" y1="264.35" x2="678.52" y2="267.02"/><line class="cls-2" x1="678.52" y1="264.35" x2="678.52" y2="265.93"/><polyline class="cls-2" points="656.07 220.12 656.07 220.08 656.11 220.04 656.11 220 656.16 220 656.2 219.96 656.24 219.96 665.98 219.96 678.89 219.96 678.94 219.96 678.98 220 679.02 220"/><polyline class="cls-2" points="679.02 220 679.02 220.04 679.06 220.08 679.06 220.12 679.06 234.59 679.06 250.26"/><polyline class="cls-3" points="679.06 250 679.06 258 679.06 267.1 679.06 267.13 679.06 267.15 679.02 267.17 679.02 267.2 678.98 267.2 678.94 267.22 678.9 267.22"/><polyline class="cls-4" points="678.89 267.91 665.64 267.91 665.6 267.91 665.56 267.86"/><line class="cls-2" x1="665.56" y1="267.52" x2="665.52" y2="267.52"/><polyline class="cls-2" points="665.52 267.52 665.52 267.48 665.48 267.44"/><polyline class="cls-5" points="665.48 267.13 665.48 267.1 665.48 267.08 665.48 257.99 665.48 250"/><polyline class="cls-2" points="665.48 250.26 665.48 234.75 665.48 234.71 665.48 234.67 665.52 234.67 665.52 234.63 665.56 234.63 665.56 234.59 665.6 234.59 665.64 234.59 665.98 234.59 665.98 233.54 656.24 233.54 656.2 233.54"/><line class="cls-2" x1="656.2" y1="233.54" x2="656.16" y2="233.5"/><line class="cls-2" x1="656.16" y1="233.5" x2="656.12" y2="233.5"/><polyline class="cls-2" points="656.11 233.5 656.11 233.46 656.07 233.41 656.07 233.37 656.07 233.33 656.07 220.12"/><rect class="cls-2" x="656.57" y="261.38" width="9.41" height="6.27"/><line class="cls-2" x1="678.52" y1="220.46" x2="671.54" y2="220.46"/><line class="cls-2" x1="668.53" y1="220.46" x2="656.57" y2="220.46"/><line class="cls-2" x1="678.52" y1="220.46" x2="678.52" y2="226.18"/><line class="cls-2" x1="678.52" y1="229.19" x2="678.52" y2="235.21"/><line class="cls-2" x1="678.52" y1="238.22" x2="678.52" y2="250.26"/><line class="cls-2" x1="678.52" y1="253.27" x2="678.52" y2="259.29"/><line class="cls-2" x1="656.57" y1="220.46" x2="656.57" y2="226.18"/><line class="cls-2" x1="656.57" y1="229.19" x2="656.57" y2="235.21"/><line class="cls-2" x1="656.57" y1="238.22" x2="656.57" y2="250.26"/><line class="cls-2" x1="656.57" y1="253.27" x2="656.57" y2="259.29"/><polyline class="cls-6" points="647.04 232.53 647.04 231.91 647.42 232.03 647.42 232.53"/><polyline class="cls-2" points="647.04 231.91 647.42 232.03 647.42 232.53"/><polyline class="cls-2" points="647.42 232.53 647.04 232.53 647.04 231.91"/><polyline class="cls-6" points="647.04 222.75 647.04 222.17 647.42 222.17 647.42 222.63"/><polyline class="cls-2" points="647.04 222.17 647.42 222.17 647.42 222.63 647.04 222.75 647.04 222.17"/><polyline class="cls-6" points="647.83 232.95 646.25 232.95 646.16 232.91 646.08 232.83 646.08 232.66 646.16 232.57 646.25 232.53 647.96 232.53"/><polyline class="cls-2" points="646.25 232.95 646.16 232.91 646.08 232.83 646.08 232.74"/><polyline class="cls-2" points="646.08 232.74 646.08 232.66 646.16 232.58 646.25 232.53 647.96 232.53"/><polyline class="cls-2" points="647.96 232.53 647.83 232.95 646.25 232.95"/><polyline class="cls-6" points="647.88 222.17 646.25 222.17 646.16 222.13 646.08 222.04 646.08 221.88 646.16 221.79 646.25 221.75 647.88 221.75"/><polyline class="cls-2" points="646.25 222.17 646.16 222.13 646.08 222.04 646.08 221.96 646.08 221.88 646.16 221.79 646.25 221.75 647.88 221.75"/><polyline class="cls-2" points="647.88 221.75 647.88 222.17 646.25 222.17"/><path class="cls-6" d="M648.13,232.16l-1-.17a5,5,0,0,1,0-9.32l.71-.13"/><polyline class="cls-2" points="647.17 231.99 645.7 231.16 644.57 229.82"/><polyline class="cls-2" points="644.57 229.82 643.99 228.23 643.99 226.47"/><polyline class="cls-2" points="643.99 226.47 644.57 224.88 645.7 223.55"/><line class="cls-2" x1="645.7" y1="223.55" x2="647.17" y2="222.67"/><polyline class="cls-2" points="647.17 222.67 647.88 222.54 648.34 222.5 648.8 222.46 649.26 222.5 649.72 222.54 650.18 222.67 650.68 222.84 651.1 223.05"/><line class="cls-2" x1="651.1" y1="223.04" x2="651.56" y2="223.3"/><polyline class="cls-2" points="651.55 223.3 651.93 223.59 652.31 223.97"/><polyline class="cls-2" points="652.31 223.97 652.64 224.34 652.93 224.72"/><line class="cls-2" x1="652.94" y1="224.72" x2="653.19" y2="225.18"/><polyline class="cls-2" points="653.18 225.18 653.39 225.64 653.52 226.1"/><polyline class="cls-2" points="653.52 226.1 653.64 226.6 653.69 227.1"/><line class="cls-2" x1="653.69" y1="227.1" x2="653.69" y2="227.6"/><line class="cls-2" x1="653.69" y1="227.6" x2="653.65" y2="228.1"/><polyline class="cls-2" points="653.64 228.1 653.52 228.6 653.39 229.06 653.19 229.53"/><line class="cls-2" x1="653.19" y1="229.52" x2="652.93" y2="229.94"/><line class="cls-2" x1="652.94" y1="229.94" x2="652.64" y2="230.36"/><line class="cls-2" x1="652.64" y1="230.36" x2="652.31" y2="230.74"/><polyline class="cls-2" points="652.31 230.74 651.93 231.07 651.55 231.41"/><polyline class="cls-2" points="651.55 231.41 651.1 231.66 650.68 231.87 650.18 232.03 649.8 232.12"/><polyline class="cls-2" points="649.8 232.12 649.38 232.2 648.96 232.24 648.54 232.2"/><polyline class="cls-2" points="648.55 232.2 648.13 232.16 647.17 231.99"/><polyline class="cls-6" points="645.2 230.57 645.62 231.07 645.45 231.07 645.29 230.95 645.16 230.78"/><polyline class="cls-2" points="645.62 231.07 645.45 231.07 645.28 230.94"/><polyline class="cls-2" points="645.29 230.95 645.16 230.78 645.2 230.57"/><line class="cls-2" x1="645.2" y1="230.57" x2="645.62" y2="231.07"/><polyline class="cls-6" points="645.2 224.13 645.16 224.13 645.16 223.92 645.29 223.75 645.45 223.63 645.62 223.63"/><polyline class="cls-2" points="645.16 224.13 645.16 223.92 645.29 223.76 645.45 223.63 645.62 223.63 645.2 224.13"/><line class="cls-2" x1="645.2" y1="224.13" x2="645.16" y2="224.13"/><polyline class="cls-6" points="648.13 232.12 649.8 232.12 650.13 233.33 648.84 233.5 647.67 233.37"/><polyline class="cls-6" points="650.13 233.33 649.8 232.12 651.39 231.49 652.01 232.62"/><polyline class="cls-6" points="652.01 232.62 651.39 231.49 652.64 230.36 653.56 231.28"/><polyline class="cls-6" points="653.56 231.28 652.64 230.36 653.48 228.9 654.65 229.4"/><polyline class="cls-6" points="654.65 229.4 653.48 228.9 653.73 227.22 654.98 227.22"/><polyline class="cls-6" points="654.98 227.22 653.73 227.22 653.39 225.55 654.65 225.26"/><polyline class="cls-6" points="654.65 225.26 653.39 225.55 652.52 224.13 653.6 223.46"/><polyline class="cls-6" points="653.6 223.46 652.52 224.13 651.18 223.09 651.97 222.04"/><polyline class="cls-6" points="651.97 222.04 651.18 223.09 649.59 222.54 649.92 221.29"/><polyline class="cls-6" points="649.92 221.29 649.59 222.54 647.88 222.59 647.88 221.29"/><line class="cls-2" x1="649.8" y1="232.12" x2="651.39" y2="231.49"/><polyline class="cls-2" points="651.39 231.49 652.64 230.36 653.48 228.9"/><line class="cls-2" x1="653.48" y1="228.9" x2="653.73" y2="227.23"/><polyline class="cls-2" points="653.73 227.22 653.39 225.55 652.52 224.13"/><polyline class="cls-2" points="652.52 224.13 651.18 223.09 649.59 222.54 647.88 222.59"/><polyline class="cls-2" points="647.88 222.59 647.88 221.29 649.92 221.29 651.97 222.04 653.6 223.46 654.65 225.26"/><polyline class="cls-2" points="654.65 225.26 654.98 227.22 654.65 229.4 653.56 231.28"/><polyline class="cls-2" points="653.56 231.28 652.01 232.62 650.13 233.33"/><line class="cls-2" x1="650.13" y1="233.33" x2="648.84" y2="233.5"/><polyline class="cls-2" points="648.84 233.5 647.67 233.37 648.13 232.12"/><line class="cls-2" x1="648.13" y1="232.12" x2="649.8" y2="232.12"/><polyline class="cls-6" points="647.04 248.5 647.04 247.88 647.42 248 647.42 248.5"/><polyline class="cls-2" points="647.04 247.88 647.42 248 647.42 248.5"/><polyline class="cls-2" points="647.42 248.5 647.04 248.5 647.04 247.88"/><polyline class="cls-6" points="647.04 238.72 647.04 238.14 647.42 238.14 647.42 238.59"/><polyline class="cls-2" points="647.04 238.13 647.42 238.13 647.42 238.6"/><line class="cls-2" x1="647.42" y1="238.59" x2="647.04" y2="238.72"/><line class="cls-2" x1="647.04" y1="238.72" x2="647.04" y2="238.14"/><polyline class="cls-6" points="647.83 248.92 646.25 248.92 646.16 248.88 646.08 248.79 646.08 248.63 646.16 248.54 646.25 248.5 647.96 248.5"/><line class="cls-2" x1="646.25" y1="248.92" x2="646.16" y2="248.88"/><polyline class="cls-2" points="646.16 248.88 646.08 248.79 646.08 248.71 646.08 248.63 646.16 248.54 646.25 248.5 647.96 248.5"/><polyline class="cls-2" points="647.96 248.5 647.83 248.92 646.25 248.92"/><polyline class="cls-6" points="647.88 238.13 646.25 238.13 646.16 238.09 646.08 238.01 646.08 237.84 646.16 237.76 646.25 237.72 647.88 237.72"/><polyline class="cls-2" points="646.25 238.13 646.16 238.09 646.08 238.01 646.08 237.93 646.08 237.84 646.16 237.76 646.25 237.72 647.88 237.72"/><line class="cls-2" x1="647.88" y1="237.72" x2="647.88" y2="238.14"/><line class="cls-2" x1="647.88" y1="238.13" x2="646.25" y2="238.13"/><path class="cls-6" d="M647.13,247.13l-.25-9.62.29,0a4.89,4.89,0,0,1,1.3,9.7l-.67,0"/><path class="cls-6" d="M648.13,248.13l-1-.17a5,5,0,0,1,0-9.32l.71-.13"/><polyline class="cls-2" points="647.17 247.96 645.7 247.12 644.57 245.78 643.99 244.16 643.99 242.44 644.57 240.81"/><polyline class="cls-2" points="644.57 240.81 645.7 239.51 647.17 238.64"/><polyline class="cls-2" points="647.17 238.64 647.88 238.51 648.34 238.47 648.8 238.43 649.26 238.47 649.72 238.51 650.18 238.64 650.68 238.8 651.1 239.01"/><line class="cls-2" x1="651.1" y1="239.01" x2="651.56" y2="239.26"/><line class="cls-2" x1="651.56" y1="239.26" x2="651.93" y2="239.56"/><line class="cls-2" x1="651.93" y1="239.56" x2="652.31" y2="239.93"/><line class="cls-2" x1="652.31" y1="239.93" x2="652.64" y2="240.31"/><line class="cls-2" x1="652.64" y1="240.31" x2="652.93" y2="240.68"/><line class="cls-2" x1="652.94" y1="240.68" x2="653.19" y2="241.14"/><polyline class="cls-2" points="653.18 241.15 653.39 241.6 653.52 242.06"/><polyline class="cls-2" points="653.52 242.06 653.64 242.57 653.69 243.07"/><polyline class="cls-2" points="653.69 243.07 653.69 243.57 653.65 244.07"/><line class="cls-2" x1="653.65" y1="244.07" x2="653.52" y2="244.57"/><polyline class="cls-2" points="653.52 244.57 653.39 245.03 653.19 245.49"/><line class="cls-2" x1="653.19" y1="245.49" x2="652.93" y2="245.91"/><polyline class="cls-2" points="652.93 245.91 652.64 246.33 652.31 246.71"/><polyline class="cls-2" points="652.31 246.71 651.93 247.04 651.55 247.37 651.1 247.62 650.68 247.83"/><polyline class="cls-2" points="650.68 247.83 650.18 248 649.8 248.08"/><polyline class="cls-2" points="649.8 248.08 649.38 248.17 648.96 248.21 648.54 248.17"/><line class="cls-2" x1="648.55" y1="248.17" x2="648.13" y2="248.12"/><line class="cls-2" x1="648.13" y1="248.13" x2="647.17" y2="247.96"/><polyline class="cls-6" points="645.2 246.54 645.62 247 645.45 247 645.29 246.91 645.16 246.75"/><polyline class="cls-2" points="645.62 247 645.45 247 645.28 246.91"/><polyline class="cls-2" points="645.29 246.91 645.16 246.75 645.2 246.54 645.62 247"/><polyline class="cls-6" points="645.2 240.1 645.16 240.1 645.16 239.89 645.29 239.72 645.45 239.6 645.62 239.6"/><polyline class="cls-2" points="645.16 240.1 645.16 239.89 645.29 239.72 645.45 239.6 645.62 239.6 645.2 240.1"/><line class="cls-2" x1="645.2" y1="240.1" x2="645.16" y2="240.1"/><polyline class="cls-6" points="648.13 248.08 649.8 248.08 650.13 249.3 648.84 249.46 647.67 249.34"/><polyline class="cls-6" points="650.13 249.3 649.8 248.08 651.39 247.46 652.01 248.59"/><polyline class="cls-6" points="652.01 248.59 651.39 247.46 652.64 246.33 653.56 247.25"/><polyline class="cls-6" points="653.56 247.25 652.64 246.33 653.48 244.87 654.65 245.37"/><polyline class="cls-6" points="654.65 245.37 653.48 244.87 653.73 243.19 654.98 243.19"/><polyline class="cls-6" points="654.98 243.19 653.73 243.19 653.39 241.52 654.65 241.23"/><polyline class="cls-6" points="654.65 241.23 653.39 241.52 652.52 240.1 653.6 239.43"/><polyline class="cls-6" points="653.6 239.43 652.52 240.1 651.18 239.06 651.97 238.01"/><polyline class="cls-6" points="651.97 238.01 651.18 239.06 649.59 238.51 649.92 237.26"/><polyline class="cls-6" points="649.92 237.26 649.59 238.51 647.88 238.55 647.88 237.26"/><line class="cls-2" x1="649.8" y1="248.08" x2="651.39" y2="247.46"/><line class="cls-2" x1="651.39" y1="247.46" x2="652.64" y2="246.33"/><polyline class="cls-2" points="652.64 246.33 653.48 244.87 653.73 243.19 653.39 241.52 652.52 240.1 651.18 239.06 649.59 238.51"/><polyline class="cls-2" points="649.59 238.51 647.88 238.55 647.88 237.26 649.92 237.26 651.97 238.01 653.6 239.43 654.65 241.23 654.98 243.19"/><line class="cls-2" x1="654.98" y1="243.19" x2="654.65" y2="245.37"/><line class="cls-2" x1="654.65" y1="245.37" x2="653.56" y2="247.25"/><line class="cls-2" x1="653.56" y1="247.25" x2="652.02" y2="248.59"/><line class="cls-2" x1="652.02" y1="248.58" x2="650.13" y2="249.3"/><polyline class="cls-2" points="650.13 249.3 648.84 249.46 647.67 249.34 648.13 248.08"/><line class="cls-2" x1="648.13" y1="248.08" x2="649.8" y2="248.08"/><polyline class="cls-6" points="647.04 263.22 647.04 262.59 647.42 262.71 647.42 263.22"/><polyline class="cls-2" points="647.04 262.59 647.42 262.71 647.42 263.22 647.04 263.22 647.04 262.59"/><polyline class="cls-6" points="647.04 253.43 647.04 252.81 647.42 252.81 647.42 253.31"/><polyline class="cls-2" points="647.04 252.81 647.42 252.81 647.42 253.31"/><polyline class="cls-2" points="647.42 253.31 647.04 253.43 647.04 252.81"/><polyline class="cls-6" points="647.83 263.59 646.16 263.59 646.08 263.51 646.08 263.3 646.16 263.26 646.25 263.21 647.96 263.21"/><polyline class="cls-2" points="646.25 263.59 646.16 263.59 646.08 263.51"/><polyline class="cls-2" points="646.08 263.51 646.08 263.42 646.08 263.3 646.16 263.26 646.25 263.21"/><line class="cls-2" x1="646.25" y1="263.22" x2="647.96" y2="263.22"/><line class="cls-2" x1="647.96" y1="263.22" x2="647.83" y2="263.59"/><line class="cls-2" x1="647.83" y1="263.59" x2="646.25" y2="263.59"/><polyline class="cls-6" points="647.88 252.81 646.16 252.81 646.08 252.72 646.08 252.51 646.25 252.43 647.88 252.43"/><polyline class="cls-2" points="646.25 252.81 646.16 252.81 646.08 252.72 646.08 252.64 646.08 252.51 646.16 252.47 646.25 252.43 647.88 252.43"/><polyline class="cls-2" points="647.88 252.43 647.88 252.81 646.25 252.81"/><polyline class="cls-2" points="647.17 262.67 645.7 261.84 644.57 260.5 643.99 258.87 643.99 257.15 644.57 255.52 645.7 254.23 647.17 253.35"/><polyline class="cls-2" points="647.17 253.35 647.88 253.22 648.34 253.18 648.8 253.14 649.26 253.18 649.72 253.22 650.18 253.35 650.68 253.52 651.1 253.73 651.56 253.98"/><polyline class="cls-2" points="651.55 253.98 651.93 254.27 652.31 254.6"/><line class="cls-2" x1="652.31" y1="254.6" x2="652.64" y2="255.02"/><line class="cls-2" x1="652.64" y1="255.02" x2="652.93" y2="255.4"/><line class="cls-2" x1="652.94" y1="255.4" x2="653.19" y2="255.86"/><polyline class="cls-2" points="653.18 255.86 653.39 256.32 653.52 256.78"/><polyline class="cls-2" points="653.52 256.78 653.64 257.28 653.69 257.78"/><line class="cls-2" x1="653.69" y1="257.78" x2="653.69" y2="258.28"/><line class="cls-2" x1="653.69" y1="258.28" x2="653.65" y2="258.78"/><line class="cls-2" x1="653.65" y1="258.78" x2="653.52" y2="259.29"/><polyline class="cls-2" points="653.52 259.29 653.39 259.75 653.19 260.21"/><line class="cls-2" x1="653.19" y1="260.21" x2="652.93" y2="260.62"/><polyline class="cls-2" points="652.93 260.62 652.64 261.04 652.31 261.42"/><polyline class="cls-2" points="652.31 261.42 651.93 261.75 651.55 262.09 651.1 262.34 650.68 262.55"/><polyline class="cls-2" points="650.68 262.55 650.18 262.71 649.8 262.8"/><polyline class="cls-2" points="649.8 262.8 649.38 262.88 648.96 262.92 648.54 262.88"/><polyline class="cls-2" points="648.55 262.88 648.13 262.84 647.17 262.67"/><polyline class="cls-6" points="645.2 261.25 645.62 261.71 645.45 261.71 645.29 261.63 645.16 261.46"/><polyline class="cls-2" points="645.62 261.71 645.45 261.71 645.28 261.63"/><polyline class="cls-2" points="645.29 261.63 645.16 261.46 645.2 261.25 645.62 261.71"/><polyline class="cls-6" points="645.2 254.81 645.16 254.81 645.16 254.6 645.29 254.44 645.45 254.31 645.62 254.31"/><polyline class="cls-2" points="645.16 254.81 645.16 254.6 645.29 254.44 645.45 254.31 645.62 254.31 645.2 254.81"/><line class="cls-2" x1="645.2" y1="254.81" x2="645.16" y2="254.81"/><polyline class="cls-6" points="648.13 262.8 649.8 262.8 650.13 264.01 648.84 264.13 647.67 264.05"/><polyline class="cls-6" points="650.13 264.01 649.8 262.8 651.39 262.17 652.01 263.3"/><polyline class="cls-6" points="652.01 263.3 651.39 262.17 652.64 261.04 653.56 261.96"/><polyline class="cls-6" points="653.56 261.96 652.64 261.04 653.48 259.58 654.65 260.04"/><polyline class="cls-6" points="654.65 260.04 653.48 259.58 653.73 257.91 654.98 257.91"/><polyline class="cls-6" points="654.98 257.91 653.73 257.91 653.39 256.24 654.65 255.94"/><polyline class="cls-6" points="654.65 255.94 653.39 256.24 652.52 254.81 653.6 254.15"/><polyline class="cls-6" points="653.6 254.15 652.52 254.81 651.18 253.77 651.97 252.72"/><polyline class="cls-6" points="651.97 252.72 651.18 253.77 649.59 253.23 649.92 251.97"/><polyline class="cls-6" points="649.92 251.97 649.59 253.22 647.88 253.27 647.88 251.97"/><line class="cls-2" x1="649.8" y1="262.8" x2="651.39" y2="262.17"/><line class="cls-2" x1="651.39" y1="262.17" x2="652.64" y2="261.04"/><polyline class="cls-2" points="652.64 261.04 653.48 259.58 653.73 257.91 653.39 256.24 652.52 254.81 651.18 253.77 649.59 253.23"/><polyline class="cls-2" points="649.59 253.22 647.88 253.27 647.88 251.97 649.92 251.97 651.97 252.72 653.6 254.15 654.65 255.94 654.98 257.91"/><polyline class="cls-2" points="654.98 257.91 654.65 260.04 653.56 261.96"/><line class="cls-2" x1="653.56" y1="261.96" x2="652.02" y2="263.3"/><line class="cls-2" x1="652.02" y1="263.3" x2="650.13" y2="264.01"/><polyline class="cls-2" points="650.13 264.01 648.84 264.13 647.67 264.05 648.13 262.8"/><line class="cls-2" x1="648.13" y1="262.8" x2="649.8" y2="262.8"/><text class="cls-7" transform="translate(681.34 220.04) rotate(90)">STANDRD 4<tspan class="cls-8" x="35.41" y="0">&apos;</tspan><tspan x="36.68" y="0" xml:space="preserve"> x 7</tspan><tspan class="cls-8" x="47.26" y="0">&apos;</tspan></text></g></svg>