
<svg id="图层_1" data-name="图层 1" xmlns="http://www.w3.org/2000/svg" viewBox="0 0 1152 576"><defs><style>.cls-1,.cls-4{fill:#0f5a83;}.cls-10,.cls-11,.cls-2,.cls-3,.cls-7,.cls-8{fill:none;stroke:#0f5a83;stroke-linejoin:bevel;}.cls-10,.cls-11,.cls-2,.cls-3{stroke-linecap:round;}.cls-2{stroke-width:0.93px;}.cls-3{stroke-width:0.46px;}.cls-13,.cls-4{font-size:6.6px;font-family:CenturyGothic, Century Gothic;}.cls-5,.cls-6{fill:#e8e2e1;}.cls-12,.cls-6{fill-rule:evenodd;}.cls-10,.cls-7{stroke-width:0.24px;}.cls-8{stroke-width:0;}.cls-12,.cls-9{fill:#fff;}.cls-11{stroke-width:0.69px;}.cls-13{fill:#0f577e;}.cls-14{letter-spacing:0em;}.cls-15{letter-spacing:-0.01em;}.cls-16{letter-spacing:0em;}.cls-17{letter-spacing:0em;}.cls-18{letter-spacing:-0.01em;}.cls-19{letter-spacing:0.01em;}.cls-20{letter-spacing:-0.01em;}.cls-21{letter-spacing:0.01em;}.cls-22{letter-spacing:-0.01em;}.cls-23{letter-spacing:0em;}.cls-24{letter-spacing:0em;}</style></defs><title>OPT .BATH 7-2</title><g id="OPT_.BATH_7-2" data-name="OPT .BATH 7-2"><g id="OPT_.STUDY_BATH_CLOSET-2" data-name="OPT .STUDY BATH CLOSET-2"><rect class="cls-1" x="489.4" y="206.82" width="8.48" height="1.8"/><rect class="cls-1" x="467.58" y="175.47" width="1.84" height="31.35"/><line class="cls-2" x1="473.98" y1="206.82" x2="469.42" y2="206.82"/><line class="cls-2" x1="497.89" y1="206.82" x2="489.4" y2="206.82"/><line class="cls-2" x1="473.98" y1="206.82" x2="473.98" y2="208.61"/><line class="cls-2" x1="489.4" y1="206.82" x2="489.4" y2="208.61"/><line class="cls-2" x1="489.4" y1="208.61" x2="497.89" y2="208.61"/><rect class="cls-1" x="467.14" y="206.82" width="6.77" height="1.8"/><line class="cls-2" x1="473.92" y1="206.82" x2="467.46" y2="206.82"/><line class="cls-2" x1="467.52" y1="208.61" x2="473.92" y2="208.61"/><line class="cls-3" x1="489.4" y1="206.52" x2="489.03" y2="206.52"/><line class="cls-3" x1="489.4" y1="208.91" x2="489.03" y2="208.91"/><line class="cls-3" x1="489.4" y1="206.52" x2="489.4" y2="208.91"/><line class="cls-3" x1="489.03" y1="206.52" x2="489.03" y2="208.91"/><line class="cls-3" x1="474.4" y1="206.52" x2="473.98" y2="206.52"/><line class="cls-3" x1="474.4" y1="208.91" x2="473.98" y2="208.91"/><line class="cls-3" x1="474.4" y1="206.52" x2="474.4" y2="208.91"/><line class="cls-3" x1="473.98" y1="206.52" x2="473.98" y2="208.91"/><line class="cls-3" x1="489.03" y1="208.91" x2="489.03" y2="223.54"/><line class="cls-3" x1="488.27" y1="208.91" x2="488.27" y2="223.54"/><line class="cls-3" x1="489.03" y1="223.54" x2="488.27" y2="223.54"/><line class="cls-3" x1="488.27" y1="208.91" x2="489.03" y2="208.91"/><polyline class="cls-3" points="474.4 208.91 474.4 209.53 474.52 210.79 474.73 212.04 475.02 213.25"/><polyline class="cls-3" points="475.02 213.25 475.48 214.42 475.99 215.55"/><polyline class="cls-3" points="475.98 215.55 476.61 216.64 477.32 217.68 478.12 218.65 478.99 219.52 479.91 220.36"/><polyline class="cls-3" points="479.91 220.36 480.96 221.11 482 221.74 483.13 222.28 484.3 222.74 485.51 223.08 486.77 223.33 487.86 223.45"/><line class="cls-3" x1="487.86" y1="223.45" x2="489.03" y2="223.53"/><polyline class="cls-3" points="489.15 206.52 489.15 206.19 490.82 206.19"/><line class="cls-3" x1="490.82" y1="206.52" x2="490.82" y2="206.19"/><line class="cls-3" x1="474.23" y1="206.52" x2="474.23" y2="206.19"/><line class="cls-3" x1="472.56" y1="206.19" x2="474.23" y2="206.19"/><line class="cls-3" x1="472.56" y1="206.52" x2="472.56" y2="206.19"/><line class="cls-3" x1="474.23" y1="208.91" x2="474.23" y2="209.2"/><line class="cls-3" x1="472.56" y1="209.2" x2="474.23" y2="209.2"/><line class="cls-3" x1="472.56" y1="208.91" x2="472.56" y2="209.2"/><polyline class="cls-3" points="489.15 208.91 489.15 209.2 490.82 209.2"/><line class="cls-3" x1="490.82" y1="208.91" x2="490.82" y2="209.2"/><line class="cls-2" x1="467.58" y1="175.47" x2="467.58" y2="206.82"/><line class="cls-2" x1="469.42" y1="206.82" x2="469.42" y2="175.47"/><text class="cls-4" transform="translate(473.18 192.58)"><tspan xml:space="preserve"> OPT</tspan></text><text class="cls-4" transform="translate(473.18 198.83)">CLOSET</text></g><g id="opt_.BATH_7-2-2" data-name="opt .BATH 7-2"><polygon class="cls-5" points="430.09 187.25 430.13 187.25 430.17 187.22 430.21 187.22 430.21 187.17 430.25 187.17 430.25 187.04 430.09 187.25"/><polyline class="cls-6" points="414.5 180.4 414.08 175.76 418.01 177.6"/><polygon class="cls-5" points="414.08 187.25 414.5 180.4 414.08 175.76 414.08 187.25"/><polyline class="cls-6" points="421.89 186.34 414.08 187.25 414.5 180.4 418.01 183.24"/><polygon class="cls-5" points="414.08 187.25 430.09 187.25 421.89 186.34 414.08 187.25"/><polyline class="cls-6" points="429.29 180.4 430.09 187.25 421.89 186.34 425.78 183.24"/><polygon class="cls-5" points="429.29 180.4 430.09 187.25 430.25 187.05 430.25 175.76 429.29 180.4"/><polyline class="cls-6" points="425.78 177.6 430.25 175.76 429.29 180.4"/><polyline class="cls-6" points="425.66 177.52 430.26 175.76 425.78 177.6"/><polyline class="cls-6" points="424.99 177.06 430.25 175.76 425.66 177.52"/><polyline class="cls-6" points="424.28 176.72 430.25 175.76 424.99 177.06"/><polygon class="cls-5" points="423.48 176.43 424.28 176.72 430.25 175.76 423.48 176.43"/><polygon class="cls-5" points="422.69 176.26 423.48 176.43 430.25 175.76 422.69 176.26"/><polygon class="cls-5" points="421.89 176.22 422.69 176.26 430.25 175.76 421.89 176.22"/><polygon class="cls-5" points="414.08 175.76 421.89 176.22 430.25 175.76 414.08 175.76"/><polygon class="cls-5" points="421.1 176.26 421.89 176.22 414.08 175.76 421.1 176.26"/><polygon class="cls-5" points="420.31 176.43 421.1 176.26 414.08 175.76 420.31 176.43"/><polygon class="cls-5" points="419.51 176.72 420.31 176.43 414.08 175.76 419.51 176.72"/><polyline class="cls-6" points="418.8 177.06 414.08 175.76 419.51 176.72"/><polyline class="cls-6" points="418.13 177.52 414.08 175.76 418.8 177.06"/><polyline class="cls-6" points="414.08 175.76 418.13 177.52 418.01 177.6"/><polyline class="cls-6" points="425.78 183.24 426.07 182.99 429.29 180.4"/><polyline class="cls-6" points="426.37 182.62 429.29 180.4 426.07 182.99"/><polyline class="cls-6" points="426.66 182.24 429.29 180.4 426.37 182.62"/><polyline class="cls-6" points="426.87 181.78 429.29 180.4 426.66 182.24"/><polyline class="cls-6" points="427 181.36 429.29 180.4 426.87 181.78"/><polygon class="cls-5" points="427.08 180.9 427 181.36 429.29 180.4 427.08 180.9"/><polygon class="cls-5" points="427.12 180.4 427.08 180.9 429.29 180.4 427.12 180.4"/><polygon class="cls-5" points="427.12 180.4 429.29 180.4 427.08 179.94 427.12 180.4"/><polygon class="cls-5" points="427.08 179.94 429.29 180.4 427 179.48 427.08 179.94"/><polyline class="cls-6" points="426.87 179.02 429.29 180.4 427 179.48"/><polyline class="cls-6" points="426.66 178.6 429.29 180.4 426.87 179.02"/><polyline class="cls-6" points="426.37 178.23 429.29 180.4 426.66 178.6"/><polyline class="cls-6" points="426.07 177.85 429.29 180.4 426.37 178.23"/><polyline class="cls-6" points="429.29 180.4 426.07 177.85 425.78 177.6"/><path class="cls-5" d="M418.13,183.33l-.12-.09Z"/><polyline class="cls-6" points="418.13 183.33 418.8 183.79 421.89 186.34"/><polyline class="cls-6" points="419.51 184.12 421.89 186.34 418.8 183.78"/><polyline class="cls-6" points="420.31 184.37 421.89 186.34 419.51 184.12"/><polyline class="cls-6" points="421.1 184.54 421.89 186.34 420.31 184.37"/><polygon class="cls-5" points="421.89 186.34 421.89 184.58 421.1 184.54 421.89 186.34"/><polygon class="cls-5" points="421.89 184.58 421.89 186.34 422.69 184.54 421.89 184.58"/><polyline class="cls-6" points="423.48 184.37 421.89 186.34 422.69 184.54"/><polyline class="cls-6" points="424.28 184.12 421.89 186.34 423.48 184.37"/><polyline class="cls-6" points="424.99 183.79 421.89 186.34 424.28 184.12"/><polyline class="cls-6" points="425.66 183.33 421.9 186.34 424.99 183.79"/><polyline class="cls-6" points="421.89 186.34 425.66 183.33 425.78 183.24"/><polyline class="cls-6" points="418.01 177.6 417.71 177.85 414.5 180.4"/><polyline class="cls-6" points="417.42 178.23 414.5 180.4 417.71 177.85"/><polyline class="cls-6" points="417.17 178.6 414.5 180.4 417.42 178.23"/><polyline class="cls-6" points="416.96 179.02 414.5 180.4 417.17 178.6"/><polyline class="cls-6" points="416.8 179.48 414.5 180.4 416.96 179.02"/><polygon class="cls-5" points="414.5 180.4 416.71 179.94 416.79 179.48 414.5 180.4"/><polygon class="cls-5" points="414.5 180.4 416.67 180.4 416.71 179.94 414.5 180.4"/><polygon class="cls-5" points="414.5 180.4 416.71 180.9 416.67 180.4 414.5 180.4"/><polygon class="cls-5" points="416.8 181.36 416.71 180.9 414.5 180.4 416.8 181.36"/><polyline class="cls-6" points="416.96 181.78 414.5 180.4 416.8 181.36"/><polyline class="cls-6" points="417.17 182.24 414.5 180.4 416.96 181.78"/><polyline class="cls-6" points="417.42 182.62 414.5 180.4 417.17 182.24"/><polyline class="cls-6" points="417.71 182.99 414.5 180.4 417.42 182.62"/><polyline class="cls-6" points="414.5 180.4 417.71 182.99 418.01 183.24"/><line class="cls-7" x1="418.01" y1="183.24" x2="418.55" y2="183.62"/><line class="cls-7" x1="418.55" y1="183.62" x2="419.09" y2="183.91"/><line class="cls-7" x1="419.09" y1="183.91" x2="419.68" y2="184.2"/><line class="cls-7" x1="419.68" y1="184.2" x2="420.26" y2="184.37"/><line class="cls-7" x1="420.26" y1="184.37" x2="420.89" y2="184.5"/><polyline class="cls-7" points="420.89 184.5 421.52 184.58 422.14 184.58"/><polyline class="cls-7" points="422.15 184.58 422.77 184.54 423.4 184.41 423.99 184.25"/><polyline class="cls-7" points="423.99 184.25 424.57 184 424.99 183.78"/><polyline class="cls-7" points="424.99 183.79 425.41 183.53 425.78 183.24"/><polyline class="cls-7" points="425.78 183.24 425.99 183.03 426.2 182.82"/><polyline class="cls-7" points="426.2 182.82 426.41 182.57 426.58 182.32"/><polyline class="cls-7" points="426.58 182.32 426.74 182.07 426.87 181.74"/><polyline class="cls-7" points="426.87 181.74 427 181.4 427.08 181.03 427.12 180.69"/><line class="cls-7" x1="427.12" y1="180.69" x2="427.12" y2="180.32"/><polyline class="cls-7" points="427.12 180.32 427.12 179.98 427.04 179.61 426.95 179.27 426.83 178.98 426.66 178.64 426.49 178.35"/><polyline class="cls-7" points="426.49 178.35 426.28 178.06 426.03 177.81"/><polyline class="cls-7" points="426.03 177.81 425.78 177.6 425.45 177.35"/><line class="cls-7" x1="425.45" y1="177.35" x2="425.11" y2="177.14"/><line class="cls-7" x1="425.11" y1="177.14" x2="424.57" y2="176.85"/><line class="cls-8" x1="424.57" y1="176.85" x2="423.99" y2="176.6"/><polyline class="cls-8" points="423.99 176.6 423.4 176.43 422.77 176.3"/><polyline class="cls-8" points="422.77 176.3 422.15 176.22 421.52 176.26"/><line class="cls-8" x1="421.52" y1="176.26" x2="420.89" y2="176.3"/><polyline class="cls-8" points="420.89 176.3 420.26 176.43 419.68 176.64 419.1 176.89"/><line class="cls-7" x1="419.09" y1="176.89" x2="418.55" y2="177.18"/><line class="cls-7" x1="418.55" y1="177.18" x2="418.05" y2="177.56"/><polyline class="cls-7" points="418.05 177.56 418.01 177.6 417.8 177.81 417.55 178.02 417.38 178.27"/><polyline class="cls-7" points="417.38 178.27 417.17 178.56 417.05 178.85"/><polyline class="cls-7" points="417.05 178.85 416.88 179.15 416.8 179.52"/><line class="cls-7" x1="416.79" y1="179.52" x2="416.71" y2="179.86"/><polyline class="cls-7" points="416.71 179.86 416.67 180.23 416.67 180.57 416.71 180.94"/><polyline class="cls-7" points="416.71 180.94 416.75 181.28 416.88 181.61 417 181.91 417.13 182.24"/><polyline class="cls-7" points="417.13 182.24 417.34 182.49 417.55 182.78"/><line class="cls-7" x1="417.55" y1="182.78" x2="417.76" y2="183.03"/><line class="cls-7" x1="417.76" y1="183.03" x2="418.01" y2="183.24"/><rect class="cls-9" x="414.08" y="175.76" width="15.67" height="10.95"/><line class="cls-10" x1="429.75" y1="177.93" x2="429.75" y2="179.81"/><line class="cls-10" x1="429.75" y1="181.7" x2="429.75" y2="183.58"/><line class="cls-10" x1="429.75" y1="175.76" x2="429.75" y2="177.31"/><line class="cls-10" x1="429.75" y1="186.71" x2="429.75" y2="185.16"/><line class="cls-10" x1="417.42" y1="186.71" x2="419.3" y2="186.71"/><line class="cls-10" x1="421.18" y1="186.71" x2="423.06" y2="186.71"/><line class="cls-10" x1="424.95" y1="186.71" x2="426.83" y2="186.71"/><line class="cls-10" x1="414.08" y1="186.71" x2="415.62" y2="186.71"/><line class="cls-10" x1="429.75" y1="186.71" x2="428.16" y2="186.71"/><polyline class="cls-10" points="430.25 175.76 430.25 187.05 430.25 187.09 430.25 187.13"/><line class="cls-10" x1="430.25" y1="187.13" x2="430.25" y2="187.17"/><polyline class="cls-10" points="430.25 187.17 430.21 187.17 430.21 187.21 430.17 187.21 430.13 187.26 430.09 187.26 414.08 187.26"/><polyline class="cls-11" points="414.08 187.25 414.08 175.76 430.25 175.76"/><line class="cls-10" x1="418.01" y1="183.24" x2="418.55" y2="183.62"/><line class="cls-10" x1="418.55" y1="183.62" x2="419.09" y2="183.91"/><line class="cls-10" x1="419.09" y1="183.91" x2="419.68" y2="184.2"/><line class="cls-10" x1="419.68" y1="184.2" x2="420.26" y2="184.37"/><line class="cls-10" x1="420.26" y1="184.37" x2="420.89" y2="184.5"/><polyline class="cls-10" points="420.89 184.5 421.52 184.58 422.14 184.58"/><polyline class="cls-10" points="422.15 184.58 422.77 184.54 423.4 184.41 423.99 184.25"/><polyline class="cls-10" points="423.99 184.25 424.57 184 424.99 183.78"/><polyline class="cls-10" points="424.99 183.79 425.41 183.53 425.78 183.24"/><polyline class="cls-10" points="425.78 183.24 425.99 183.03 426.2 182.82"/><polyline class="cls-10" points="426.2 182.82 426.41 182.57 426.58 182.32"/><polyline class="cls-10" points="426.58 182.32 426.74 182.07 426.87 181.74"/><polyline class="cls-10" points="426.87 181.74 427 181.4 427.08 181.03 427.12 180.69"/><line class="cls-10" x1="427.12" y1="180.69" x2="427.12" y2="180.32"/><polyline class="cls-10" points="427.12 180.32 427.12 179.98 427.04 179.61 426.95 179.27 426.83 178.98 426.66 178.64 426.49 178.35"/><polyline class="cls-10" points="426.49 178.35 426.28 178.06 426.03 177.81"/><polyline class="cls-10" points="426.03 177.81 425.78 177.6 425.45 177.35"/><line class="cls-10" x1="425.45" y1="177.35" x2="425.11" y2="177.14"/><line class="cls-10" x1="425.11" y1="177.14" x2="424.57" y2="176.85"/><line class="cls-11" x1="424.57" y1="176.85" x2="423.99" y2="176.6"/><polyline class="cls-11" points="423.99 176.6 423.4 176.43 422.77 176.3"/><polyline class="cls-11" points="422.77 176.3 422.15 176.22 421.52 176.26"/><line class="cls-11" x1="421.52" y1="176.26" x2="420.89" y2="176.3"/><polyline class="cls-11" points="420.89 176.3 420.26 176.43 419.68 176.64 419.1 176.89"/><line class="cls-10" x1="419.09" y1="176.89" x2="418.55" y2="177.18"/><line class="cls-10" x1="418.55" y1="177.18" x2="418.05" y2="177.56"/><polyline class="cls-10" points="418.05 177.56 418.01 177.6 417.8 177.81 417.55 178.02 417.38 178.27"/><polyline class="cls-10" points="417.38 178.27 417.17 178.56 417.05 178.85"/><polyline class="cls-10" points="417.05 178.85 416.88 179.15 416.8 179.52"/><line class="cls-10" x1="416.79" y1="179.52" x2="416.71" y2="179.86"/><polyline class="cls-10" points="416.71 179.86 416.67 180.23 416.67 180.57 416.71 180.94"/><polyline class="cls-10" points="416.71 180.94 416.75 181.28 416.88 181.61 417 181.91 417.13 182.24"/><polyline class="cls-10" points="417.13 182.24 417.34 182.49 417.55 182.78"/><line class="cls-10" x1="417.55" y1="182.78" x2="417.76" y2="183.03"/><line class="cls-10" x1="417.76" y1="183.03" x2="418.01" y2="183.24"/><path class="cls-12" d="M417.72,183.22v-5.69l-.29.3a3.6,3.6,0,0,0-.34,4.76l.34.34"/><path class="cls-12" d="M425.45,183.22h-7.73l.08,0a6.15,6.15,0,0,0,6.9.46l.67-.46"/><path class="cls-12" d="M425.45,177.53v5.69l.29-.29a3.62,3.62,0,0,0,.34-4.77l-.34-.33"/><path class="cls-12" d="M417.72,177.53h7.73l-.08-.08a6.26,6.26,0,0,0-6.9-.42l-.67.42"/><rect class="cls-9" x="417.72" y="177.53" width="7.73" height="5.68"/><line class="cls-10" x1="417.72" y1="177.53" x2="417.47" y2="177.78"/><polyline class="cls-10" points="417.47 177.78 417.22 177.99 417.01 178.29 416.84 178.54 416.67 178.87"/><line class="cls-10" x1="416.67" y1="178.87" x2="416.55" y2="179.16"/><line class="cls-10" x1="416.55" y1="179.16" x2="416.46" y2="179.5"/><line class="cls-10" x1="416.46" y1="179.5" x2="416.38" y2="179.88"/><line class="cls-10" x1="416.38" y1="179.88" x2="416.38" y2="180.21"/><polyline class="cls-10" points="416.38 180.21 416.38 180.59 416.38 180.92 416.46 181.3 416.59 181.63 416.72 181.92 416.84 182.22 417.05 182.51 417.26 182.76 417.47 182.97 417.72 183.22"/><polyline class="cls-10" points="417.72 183.22 418.1 183.47 418.47 183.72 418.85 183.93"/><line class="cls-10" x1="418.85" y1="183.93" x2="419.43" y2="184.18"/><line class="cls-10" x1="419.43" y1="184.18" x2="420.02" y2="184.35"/><line class="cls-10" x1="420.02" y1="184.35" x2="420.64" y2="184.47"/><polyline class="cls-10" points="420.64 184.47 421.27 184.56 421.9 184.56"/><polyline class="cls-10" points="421.9 184.56 422.53 184.47 423.11 184.35 423.74 184.18 424.2 183.97 424.62 183.76"/><polyline class="cls-10" points="424.62 183.76 425.08 183.51 425.45 183.22"/><polyline class="cls-10" points="425.45 183.22 425.75 182.97 426 182.68 426.2 182.38 426.41 182.05 426.54 181.71"/><polyline class="cls-10" points="426.54 181.71 426.67 181.38 426.75 181.04 426.79 180.71"/><line class="cls-10" x1="426.79" y1="180.71" x2="426.83" y2="180.33"/><polyline class="cls-10" points="426.83 180.34 426.79 179.96 426.75 179.62"/><line class="cls-10" x1="426.75" y1="179.62" x2="426.66" y2="179.29"/><line class="cls-10" x1="426.66" y1="179.29" x2="426.54" y2="178.96"/><polyline class="cls-10" points="426.54 178.96 426.37 178.62 426.16 178.33"/><polyline class="cls-10" points="426.16 178.33 425.95 178.03 425.7 177.78"/><polyline class="cls-10" points="425.7 177.78 425.45 177.53 425.08 177.28 424.7 177.03 424.28 176.82"/><line class="cls-3" x1="424.28" y1="176.82" x2="423.74" y2="176.57"/><line class="cls-3" x1="423.74" y1="176.57" x2="423.11" y2="176.36"/><line class="cls-3" x1="423.11" y1="176.36" x2="422.53" y2="176.24"/><polyline class="cls-3" points="422.53 176.24 421.9 176.2 421.27 176.2 420.65 176.28"/><polyline class="cls-3" points="420.64 176.28 420.02 176.41 419.43 176.57 418.97 176.78"/><polyline class="cls-10" points="418.97 176.78 418.51 176.99 418.1 177.24"/><line class="cls-10" x1="418.1" y1="177.24" x2="417.72" y2="177.53"/><path class="cls-10" d="M421.61,179.33a.55.55,0,1,0,0,1.09.55.55,0,0,0,0-1.09Z"/><path class="cls-10" d="M421.61,179.54a.32.32,0,1,0,.33.31.31.31,0,0,0-.31-.31Z"/><polyline class="cls-10" points="418.35 178.33 418.14 178.5 417.97 178.66 417.85 178.87 417.68 179.08"/><line class="cls-10" x1="417.68" y1="179.08" x2="417.59" y2="179.29"/><polyline class="cls-10" points="417.59 179.29 417.51 179.54 417.43 179.75"/><polyline class="cls-10" points="417.43 179.75 417.38 180 417.34 180.25 417.34 180.5"/><polyline class="cls-10" points="417.34 180.5 417.38 180.75 417.43 181 417.51 181.25 417.59 181.46 417.72 181.71 417.85 181.88"/><polyline class="cls-10" points="417.85 181.88 417.97 182.09 418.14 182.26 418.35 182.42 418.64 182.63"/><line class="cls-10" x1="418.64" y1="182.63" x2="418.93" y2="182.84"/><line class="cls-10" x1="418.93" y1="182.84" x2="419.39" y2="183.09"/><polyline class="cls-10" points="419.39 183.09 419.85 183.26 420.31 183.43"/><line class="cls-10" x1="420.31" y1="183.43" x2="420.81" y2="183.51"/><line class="cls-10" x1="420.81" y1="183.51" x2="421.31" y2="183.55"/><polyline class="cls-10" points="421.31 183.55 421.82 183.55 422.32 183.51 422.82 183.43"/><line class="cls-10" x1="422.82" y1="183.43" x2="423.28" y2="183.26"/><polyline class="cls-10" points="423.28 183.26 423.74 183.09 424.16 182.88"/><polyline class="cls-10" points="424.16 182.88 424.49 182.68 424.83 182.42"/><polyline class="cls-10" points="424.82 182.42 424.99 182.3 425.12 182.17 425.29 182.01 425.41 181.8"/><polyline class="cls-10" points="425.41 181.8 425.54 181.59 425.66 181.34"/><line class="cls-10" x1="425.66" y1="181.34" x2="425.7" y2="181.09"/><polyline class="cls-10" points="425.7 181.09 425.79 180.88 425.83 180.63 425.83 180.38 425.83 180.13 425.79 179.87"/><polyline class="cls-10" points="425.79 179.88 425.7 179.62 425.62 179.37 425.49 179.12"/><polyline class="cls-10" points="425.49 179.12 425.37 178.91 425.2 178.7 425.03 178.5"/><polyline class="cls-10" points="425.04 178.5 424.82 178.33 424.53 178.08 424.24 177.91 423.78 177.66 423.32 177.49"/><polyline class="cls-10" points="423.32 177.49 422.82 177.32 422.32 177.24 421.86 177.2 421.36 177.2"/><line class="cls-10" x1="421.36" y1="177.2" x2="420.85" y2="177.24"/><polyline class="cls-10" points="420.86 177.24 420.35 177.32 419.85 177.49 419.39 177.66 419.01 177.87 418.68 178.08"/><line class="cls-10" x1="418.68" y1="178.08" x2="418.35" y2="178.33"/><path class="cls-10" d="M420.39,176.36a.43.43,0,0,0-.41.42.44.44,0,1,0,.43-.42Z"/><polyline class="cls-10" points="421.23 176.49 421.23 178.87 421.98 178.87 421.98 176.49"/><line class="cls-3" x1="421.98" y1="176.49" x2="421.23" y2="176.49"/><path class="cls-10" d="M422.73,176.36a.44.44,0,1,0,.42.44A.43.43,0,0,0,422.73,176.36Z"/><polyline class="cls-12" points="438.12 176.32 437.82 176.07 437.82 176.11 437.87 176.16 437.87 176.2 437.91 176.24 437.91 176.28 437.95 176.28 437.95 176.32 438.08 176.32"/><polyline class="cls-12" points="443.51 176.07 443.26 176.32 443.38 176.32 443.43 176.28 443.47 176.24 443.47 176.2 443.51 176.2 443.51 176.11"/><polyline class="cls-12" points="443.51 175.74 437.82 175.74 437.82 176.07 438.12 176.32 443.26 176.32 443.51 176.07"/><polyline class="cls-3" points="437.82 175.74 437.82 176.07 437.82 176.11 437.87 176.15 437.87 176.2 437.87 176.24"/><polyline class="cls-3" points="437.87 176.24 437.91 176.24 437.91 176.28"/><polyline class="cls-3" points="437.91 176.28 437.95 176.28 437.99 176.32"/><polyline class="cls-3" points="437.99 176.32 438.03 176.32 438.08 176.32 438.12 176.32"/><line class="cls-10" x1="438.12" y1="176.32" x2="443.26" y2="176.32"/><polyline class="cls-3" points="443.26 176.32 443.3 176.32 443.34 176.32 443.38 176.32 443.38 176.28 443.43 176.28 443.47 176.24 443.47 176.2 443.51 176.2 443.51 176.15 443.51 176.11"/><polyline class="cls-3" points="443.51 176.11 443.51 176.07 443.51 175.74"/><line class="cls-10" x1="443.51" y1="175.74" x2="437.82" y2="175.74"/><line class="cls-10" x1="435.69" y1="176.49" x2="445.68" y2="176.49"/><polyline class="cls-10" points="445.68 176.49 445.68 181.75 445.14 182.26"/><polyline class="cls-10" points="445.14 182.26 436.19 182.26 435.69 181.71 435.69 176.49"/><line class="cls-3" x1="435.69" y1="176.49" x2="435.65" y2="176.45"/><polyline class="cls-10" points="435.65 176.45 435.65 181.75 436.19 182.26 445.18 182.26"/><line class="cls-10" x1="445.18" y1="182.26" x2="445.68" y2="181.76"/><line class="cls-10" x1="445.68" y1="181.76" x2="445.68" y2="176.45"/><line class="cls-10" x1="445.68" y1="176.45" x2="435.65" y2="176.45"/><line class="cls-3" x1="445.68" y1="176.45" x2="445.68" y2="176.49"/><line class="cls-10" x1="444.14" y1="182.26" x2="444.14" y2="182.63"/><line class="cls-10" x1="444.14" y1="182.63" x2="445.39" y2="182.59"/><polyline class="cls-10" points="445.39 182.59 445.39 182.09 445.35 182.09"/><polyline class="cls-10" points="436.95 182.76 437.03 182.26 436.82 183.26"/><polyline class="cls-10" points="436.82 183.26 436.91 185.1 436.95 182.76"/><polyline class="cls-10" points="443.93 189.11 443.97 188.94 444.22 187.94"/><polyline class="cls-10" points="443.8 189.53 443.68 189.95 443.26 190.91"/><line class="cls-10" x1="443.26" y1="190.91" x2="442.8" y2="191.66"/><polyline class="cls-10" points="442.8 191.66 442.71 191.75 442.71 191.79 442.67 191.79"/><polyline class="cls-10" points="437.57 189.53 437.7 189.95 438.12 190.91"/><polyline class="cls-10" points="438.12 190.91 438.16 190.99 438.2 191.12 438.28 191.29 438.54 191.66 438.66 191.79"/><line class="cls-10" x1="437.16" y1="187.94" x2="437.37" y2="188.95"/><line class="cls-10" x1="437.36" y1="188.95" x2="437.41" y2="189.11"/><polyline class="cls-10" points="444.39 182.76 444.43 185.1 444.39 182.76"/><line class="cls-10" x1="444.39" y1="182.76" x2="444.39" y2="182.63"/><line class="cls-10" x1="442.67" y1="191.83" x2="442.67" y2="191.79"/><line class="cls-10" x1="442.67" y1="191.79" x2="442.67" y2="191.83"/><line class="cls-10" x1="436.95" y1="187.06" x2="437.03" y2="187.98"/><polyline class="cls-10" points="437.03 187.98 437.24 188.99 437.53 189.99"/><line class="cls-10" x1="437.53" y1="189.99" x2="437.95" y2="190.95"/><line class="cls-10" x1="437.95" y1="190.95" x2="438.45" y2="191.75"/><polyline class="cls-10" points="438.45 191.75 438.54 191.83 438.54 191.87 438.58 191.91"/><polyline class="cls-10" points="438.58 191.91 439.54 192.54 440.67 192.79"/><polyline class="cls-10" points="440.67 192.79 441.8 192.54 442.76 191.91 442.92 191.75 443.18 191.37 443.3 191.16 443.34 191.08 443.38 190.95 443.8 189.99"/><line class="cls-10" x1="443.8" y1="189.99" x2="444.14" y2="188.99"/><line class="cls-10" x1="444.14" y1="188.99" x2="444.34" y2="187.98"/><line class="cls-10" x1="444.34" y1="187.98" x2="444.43" y2="187.06"/><line class="cls-10" x1="436.91" y1="185.1" x2="437.45" y2="183.8"/><polyline class="cls-10" points="437.45 183.8 438.41 182.72 442.92 182.72 443.89 183.8"/><line class="cls-10" x1="443.89" y1="183.8" x2="444.43" y2="185.1"/><line class="cls-10" x1="444.51" y1="186.06" x2="444.6" y2="185.35"/><polyline class="cls-10" points="444.6 185.35 444.55 182.72 444.51 182.63"/><line class="cls-3" x1="441.63" y1="176.36" x2="443.26" y2="176.36"/><polyline class="cls-3" points="443.26 176.36 443.38 176.32 443.47 176.24 443.51 176.07 443.51 175.74"/><line class="cls-10" x1="443.51" y1="175.74" x2="437.82" y2="175.74"/><polyline class="cls-3" points="437.82 175.74 437.82 176.07 437.87 176.24 437.95 176.32 438.12 176.36"/><line class="cls-3" x1="438.12" y1="176.36" x2="439.54" y2="176.36"/><line class="cls-3" x1="441.63" y1="176.45" x2="441.63" y2="176.32"/><line class="cls-10" x1="441.63" y1="176.32" x2="439.54" y2="176.32"/><line class="cls-3" x1="439.54" y1="176.32" x2="439.54" y2="176.45"/><polyline class="cls-3" points="442.13 176.45 442.09 176.45 442.05 176.41"/><line class="cls-3" x1="442.05" y1="176.41" x2="441.96" y2="176.36"/><polyline class="cls-3" points="439.2 176.36 439.12 176.41 439.08 176.45"/><line class="cls-3" x1="442.3" y1="176.45" x2="442.3" y2="176.36"/><line class="cls-3" x1="438.91" y1="176.36" x2="438.91" y2="176.45"/><rect class="cls-9" x="436.78" y="182.26" width="7.69" height="3.26"/><polyline class="cls-10" points="436.78 182.26 436.78 185.52 444.47 185.52"/><polyline class="cls-10" points="444.47 185.52 444.47 182.26 436.78 182.26"/><rect class="cls-9" x="444.14" y="182.09" width="1.25" height="0.54"/><rect class="cls-10" x="444.14" y="182.09" width="1.25" height="0.54"/><polyline class="cls-12" points="445.68 176.45 435.69 176.45 435.69 181.71 436.19 182.26 445.14 182.26 445.68 181.71"/><polyline class="cls-10" points="435.69 176.45 435.69 181.71 436.19 182.26"/><line class="cls-10" x1="436.19" y1="182.26" x2="445.14" y2="182.26"/><polyline class="cls-10" points="445.14 182.26 445.68 181.71 445.68 176.45 435.69 176.45"/><polyline class="cls-10" points="444.14 182.63 444.14 182.26 436.86 182.26 436.82 182.72 436.78 185.35 436.82 186.06"/><polyline class="cls-12" points="444.22 187.94 443.38 190.62 443.89 189.32"/><polyline class="cls-12" points="443.38 190.62 444.22 187.94 444.55 186.56 444.43 185.1 443.89 183.8 442.92 182.72 438.41 182.72 437.45 183.8 436.91 185.1 436.78 186.56 437.16 187.94 437.99 190.62 438.66 191.79 439.2 192.33 439.91 192.62 441.42 192.62 442.13 192.33 442.67 191.79"/><polyline class="cls-12" points="441.42 192.62 440.67 192.62 440.75 192.66 441.29 192.66"/><polyline class="cls-12" points="437.99 190.62 437.16 187.94 437.45 189.32"/><line class="cls-10" x1="442.13" y1="192.33" x2="442.67" y2="191.79"/><polyline class="cls-10" points="442.67 191.79 443.38 190.62 443.89 189.32"/><line class="cls-10" x1="443.89" y1="189.32" x2="444.22" y2="187.94"/><line class="cls-10" x1="444.22" y1="187.94" x2="444.55" y2="186.56"/><polyline class="cls-10" points="444.55 186.56 444.43 185.1 443.89 183.8"/><polyline class="cls-10" points="443.89 183.8 442.92 182.72 438.41 182.72"/><line class="cls-10" x1="438.41" y1="182.72" x2="437.45" y2="183.8"/><polyline class="cls-10" points="437.45 183.8 436.91 185.1 436.78 186.56 437.16 187.94"/><line class="cls-10" x1="437.16" y1="187.94" x2="437.45" y2="189.32"/><polyline class="cls-10" points="437.45 189.32 437.99 190.62 438.66 191.79 439.2 192.33"/><line class="cls-10" x1="439.2" y1="192.33" x2="439.91" y2="192.62"/><polyline class="cls-10" points="439.91 192.62 440.67 192.62 440.75 192.66 440.83 192.66 440.96 192.66"/><polyline class="cls-10" points="440.96 192.66 441.29 192.66 441.42 192.62"/><line class="cls-10" x1="441.42" y1="192.62" x2="442.13" y2="192.33"/><rect class="cls-1" x="413.5" y="206.84" width="2.22" height="1.8"/><rect class="cls-1" x="434.23" y="206.84" width="35.6" height="1.8"/><line class="cls-2" x1="415.71" y1="206.84" x2="413.5" y2="206.84"/><line class="cls-2" x1="467.29" y1="206.84" x2="451.12" y2="206.84"/><line class="cls-2" x1="449.28" y1="206.84" x2="434.23" y2="206.84"/><line class="cls-2" x1="415.71" y1="206.84" x2="415.71" y2="208.63"/><line class="cls-2" x1="434.23" y1="206.84" x2="434.23" y2="208.63"/><line class="cls-2" x1="413.5" y1="208.63" x2="415.71" y2="208.63"/><line class="cls-2" x1="434.23" y1="208.63" x2="469.44" y2="208.63"/><line class="cls-3" x1="434.23" y1="206.54" x2="433.85" y2="206.54"/><line class="cls-3" x1="434.23" y1="208.93" x2="433.85" y2="208.93"/><line class="cls-3" x1="434.23" y1="206.54" x2="434.23" y2="208.93"/><line class="cls-3" x1="433.85" y1="206.54" x2="433.85" y2="208.93"/><line class="cls-3" x1="416.09" y1="206.54" x2="415.71" y2="206.54"/><line class="cls-3" x1="416.09" y1="208.93" x2="415.71" y2="208.93"/><line class="cls-3" x1="416.09" y1="206.54" x2="416.09" y2="208.93"/><line class="cls-3" x1="415.71" y1="206.54" x2="415.71" y2="208.93"/><line class="cls-3" x1="416.09" y1="208.93" x2="416.09" y2="226.69"/><line class="cls-3" x1="416.8" y1="208.93" x2="416.8" y2="226.69"/><line class="cls-3" x1="416.09" y1="226.69" x2="416.8" y2="226.69"/><line class="cls-3" x1="416.8" y1="208.93" x2="416.09" y2="208.93"/><polyline class="cls-3" points="433.85 208.93 433.85 209.55 433.77 210.81 433.56 212.06 433.31 213.27"/><polyline class="cls-3" points="433.31 213.27 432.98 214.48 432.52 215.66 432.01 216.78 431.43 217.91"/><polyline class="cls-3" points="431.43 217.91 430.72 218.96 430.01 219.96 429.17 220.92 428.3 221.8"/><polyline class="cls-3" points="428.3 221.8 427.38 222.64 426.37 223.39"/><polyline class="cls-3" points="426.37 223.39 425.33 224.1 424.24 224.68"/><polyline class="cls-3" points="424.24 224.68 423.07 225.23 421.9 225.69"/><polyline class="cls-3" points="421.9 225.69 420.73 226.06 419.52 226.35"/><line class="cls-3" x1="419.52" y1="226.36" x2="418.26" y2="226.52"/><polyline class="cls-3" points="418.26 226.52 417.18 226.65 416.09 226.69"/><polyline class="cls-3" points="433.98 206.54 433.98 206.21 435.69 206.21"/><line class="cls-3" x1="435.69" y1="206.54" x2="435.69" y2="206.21"/><line class="cls-3" x1="415.96" y1="206.54" x2="415.96" y2="206.21"/><line class="cls-3" x1="414.25" y1="206.21" x2="415.96" y2="206.21"/><line class="cls-3" x1="415.96" y1="208.93" x2="415.96" y2="209.22"/><line class="cls-3" x1="414.25" y1="209.22" x2="415.96" y2="209.22"/><polyline class="cls-3" points="433.98 208.93 433.98 209.22 435.69 209.22"/><line class="cls-3" x1="435.69" y1="208.93" x2="435.69" y2="209.22"/><rect class="cls-1" x="467.58" y="175.53" width="1.84" height="31.35"/><line class="cls-2" x1="467.58" y1="175.53" x2="467.58" y2="206.88"/><line class="cls-2" x1="469.42" y1="206.88" x2="469.42" y2="175.53"/><text class="cls-4" transform="translate(422.64 194.01)">OPT</text><text class="cls-4" transform="translate(422.64 200.26)">BATH 7</text></g><rect class="cls-9" x="430.77" y="235.7" width="42.74" height="22.61"/><text class="cls-13" transform="translate(433.68 252.32)"><tspan class="cls-14">13</tspan><tspan class="cls-15" x="7.3" y="0">&apos;</tspan><tspan class="cls-16" x="8.57" y="0">-</tspan><tspan class="cls-17" x="10.75" y="0">4</tspan><tspan x="14.4" y="0">&quot;</tspan><tspan class="cls-18" x="16.44" y="0"> </tspan><tspan class="cls-17" x="18.22" y="0">X</tspan><tspan class="cls-19" x="22.24" y="0"> </tspan><tspan class="cls-20" x="24.11" y="0">15</tspan><tspan class="cls-21" x="31.25" y="0">&apos;</tspan><tspan class="cls-16" x="32.59" y="0">-</tspan><tspan class="cls-22" x="34.77" y="0">1</tspan><tspan x="38.35" y="0">&quot;</tspan></text><text class="cls-13" transform="translate(441.61 245.75)">S<tspan class="cls-23" x="3.29" y="0">T</tspan><tspan class="cls-15" x="6.1" y="0">U</tspan><tspan class="cls-24" x="10.39" y="0">D</tspan><tspan x="15.3" y="0">Y</tspan></text></g></svg>