
<svg id="图层_1" data-name="图层 1" xmlns="http://www.w3.org/2000/svg" viewBox="0 0 1152 576"><defs><style>.cls-1,.cls-4{fill:#0f5a83;}.cls-10,.cls-11,.cls-2,.cls-3,.cls-7,.cls-8{fill:none;stroke:#0f5a83;stroke-linejoin:bevel;}.cls-10,.cls-11,.cls-2,.cls-3{stroke-linecap:round;}.cls-2{stroke-width:0.93px;}.cls-3{stroke-width:0.46px;}.cls-13,.cls-4{font-size:6.6px;font-family:CenturyGothic, Century Gothic;}.cls-5,.cls-6{fill:#e8e2e1;}.cls-12,.cls-6{fill-rule:evenodd;}.cls-10,.cls-7{stroke-width:0.24px;}.cls-8{stroke-width:0;}.cls-12,.cls-9{fill:#fff;}.cls-11{stroke-width:0.69px;}.cls-13{fill:#0f577e;}.cls-14{letter-spacing:0em;}.cls-15{letter-spacing:-0.01em;}.cls-16{letter-spacing:0em;}.cls-17{letter-spacing:0em;}.cls-18{letter-spacing:-0.01em;}.cls-19{letter-spacing:0.01em;}.cls-20{letter-spacing:-0.01em;}.cls-21{letter-spacing:0.01em;}.cls-22{letter-spacing:-0.01em;}.cls-23{letter-spacing:0em;}.cls-24{letter-spacing:0em;}</style></defs><title>OPT .BATH 7</title><g id="OPT_.BATH_7" data-name="OPT .BATH 7"><g id="OPT_.STUDY_BATH_CLOSET" data-name="OPT .STUDY BATH CLOSET"><rect class="cls-1" x="489.4" y="218.41" width="8.48" height="1.8"/><rect class="cls-1" x="467.58" y="187.06" width="1.84" height="31.35"/><line class="cls-2" x1="473.98" y1="218.41" x2="469.42" y2="218.41"/><line class="cls-2" x1="497.89" y1="218.41" x2="489.4" y2="218.41"/><line class="cls-2" x1="473.98" y1="218.41" x2="473.98" y2="220.2"/><line class="cls-2" x1="489.4" y1="218.41" x2="489.4" y2="220.2"/><line class="cls-2" x1="489.4" y1="220.2" x2="497.89" y2="220.2"/><rect class="cls-1" x="467.14" y="218.41" width="6.77" height="1.8"/><line class="cls-2" x1="473.92" y1="218.41" x2="467.46" y2="218.41"/><line class="cls-2" x1="467.52" y1="220.2" x2="473.92" y2="220.2"/><line class="cls-3" x1="489.4" y1="218.11" x2="489.03" y2="218.11"/><line class="cls-3" x1="489.4" y1="220.5" x2="489.03" y2="220.5"/><line class="cls-3" x1="489.4" y1="218.11" x2="489.4" y2="220.5"/><line class="cls-3" x1="489.03" y1="218.11" x2="489.03" y2="220.5"/><line class="cls-3" x1="474.4" y1="218.11" x2="473.98" y2="218.11"/><line class="cls-3" x1="474.4" y1="220.5" x2="473.98" y2="220.5"/><line class="cls-3" x1="474.4" y1="218.11" x2="474.4" y2="220.5"/><line class="cls-3" x1="473.98" y1="218.11" x2="473.98" y2="220.5"/><line class="cls-3" x1="489.03" y1="220.5" x2="489.03" y2="235.13"/><line class="cls-3" x1="488.27" y1="220.5" x2="488.27" y2="235.13"/><line class="cls-3" x1="489.03" y1="235.13" x2="488.27" y2="235.13"/><line class="cls-3" x1="488.27" y1="220.5" x2="489.03" y2="220.5"/><polyline class="cls-3" points="474.4 220.5 474.4 221.12 474.52 222.38 474.73 223.63 475.02 224.84"/><polyline class="cls-3" points="475.02 224.84 475.48 226.01 475.99 227.14"/><polyline class="cls-3" points="475.98 227.14 476.61 228.23 477.32 229.27 478.12 230.24 478.99 231.11 479.91 231.95"/><polyline class="cls-3" points="479.91 231.95 480.96 232.7 482 233.33 483.13 233.87 484.3 234.33 485.51 234.67 486.77 234.92 487.86 235.04"/><line class="cls-3" x1="487.86" y1="235.04" x2="489.03" y2="235.12"/><polyline class="cls-3" points="489.15 218.11 489.15 217.78 490.82 217.78"/><line class="cls-3" x1="490.82" y1="218.11" x2="490.82" y2="217.78"/><line class="cls-3" x1="474.23" y1="218.11" x2="474.23" y2="217.78"/><line class="cls-3" x1="472.56" y1="217.78" x2="474.23" y2="217.78"/><line class="cls-3" x1="472.56" y1="218.11" x2="472.56" y2="217.78"/><line class="cls-3" x1="474.23" y1="220.5" x2="474.23" y2="220.79"/><line class="cls-3" x1="472.56" y1="220.79" x2="474.23" y2="220.79"/><line class="cls-3" x1="472.56" y1="220.5" x2="472.56" y2="220.79"/><polyline class="cls-3" points="489.15 220.5 489.15 220.79 490.82 220.79"/><line class="cls-3" x1="490.82" y1="220.5" x2="490.82" y2="220.79"/><line class="cls-2" x1="467.58" y1="187.06" x2="467.58" y2="218.41"/><line class="cls-2" x1="469.42" y1="218.41" x2="469.42" y2="187.06"/><text class="cls-4" transform="translate(473.18 204.17)"><tspan xml:space="preserve"> OPT</tspan></text><text class="cls-4" transform="translate(473.18 210.42)">CLOSET</text></g><g id="opt_.BATH_7-2" data-name="opt .BATH 7"><polygon class="cls-5" points="430.09 198.84 430.13 198.84 430.17 198.8 430.21 198.8 430.21 198.76 430.25 198.76 430.25 198.63 430.09 198.84"/><polyline class="cls-6" points="414.5 191.99 414.08 187.35 418.01 189.19"/><polygon class="cls-5" points="414.08 198.84 414.5 191.99 414.08 187.35 414.08 198.84"/><polyline class="cls-6" points="421.89 197.93 414.08 198.84 414.5 191.99 418.01 194.83"/><polygon class="cls-5" points="414.08 198.84 430.09 198.84 421.89 197.93 414.08 198.84"/><polyline class="cls-6" points="429.29 191.99 430.09 198.84 421.89 197.93 425.78 194.83"/><polygon class="cls-5" points="429.29 191.99 430.09 198.84 430.25 198.64 430.25 187.35 429.29 191.99"/><polyline class="cls-6" points="425.78 189.19 430.25 187.35 429.29 191.99"/><polyline class="cls-6" points="425.66 189.11 430.26 187.35 425.78 189.19"/><polyline class="cls-6" points="424.99 188.65 430.25 187.35 425.66 189.11"/><polyline class="cls-6" points="424.28 188.31 430.25 187.35 424.99 188.65"/><polygon class="cls-5" points="423.48 188.02 424.28 188.31 430.25 187.35 423.48 188.02"/><polygon class="cls-5" points="422.69 187.85 423.48 188.02 430.25 187.35 422.69 187.85"/><polygon class="cls-5" points="421.89 187.81 422.69 187.85 430.25 187.35 421.89 187.81"/><polygon class="cls-5" points="414.08 187.35 421.89 187.81 430.25 187.35 414.08 187.35"/><polygon class="cls-5" points="421.1 187.85 421.89 187.81 414.08 187.35 421.1 187.85"/><polygon class="cls-5" points="420.31 188.02 421.1 187.85 414.08 187.35 420.31 188.02"/><polygon class="cls-5" points="419.51 188.31 420.31 188.02 414.08 187.35 419.51 188.31"/><polyline class="cls-6" points="418.8 188.65 414.08 187.35 419.51 188.31"/><polyline class="cls-6" points="418.13 189.11 414.08 187.35 418.8 188.65"/><polyline class="cls-6" points="414.08 187.35 418.13 189.11 418.01 189.19"/><polyline class="cls-6" points="425.78 194.83 426.07 194.58 429.29 191.99"/><polyline class="cls-6" points="426.37 194.21 429.29 191.99 426.07 194.58"/><polyline class="cls-6" points="426.66 193.83 429.29 191.99 426.37 194.21"/><polyline class="cls-6" points="426.87 193.37 429.29 191.99 426.66 193.83"/><polyline class="cls-6" points="427 192.95 429.29 191.99 426.87 193.37"/><polygon class="cls-5" points="427.08 192.49 427 192.95 429.29 191.99 427.08 192.49"/><polygon class="cls-5" points="427.12 191.99 427.08 192.49 429.29 191.99 427.12 191.99"/><polygon class="cls-5" points="427.12 191.99 429.29 191.99 427.08 191.53 427.12 191.99"/><polygon class="cls-5" points="427.08 191.53 429.29 191.99 427 191.07 427.08 191.53"/><polyline class="cls-6" points="426.87 190.61 429.29 191.99 427 191.07"/><polyline class="cls-6" points="426.66 190.19 429.29 191.99 426.87 190.61"/><polyline class="cls-6" points="426.37 189.82 429.29 191.99 426.66 190.19"/><polyline class="cls-6" points="426.07 189.44 429.29 191.99 426.37 189.82"/><polyline class="cls-6" points="429.29 191.99 426.07 189.44 425.78 189.19"/><path class="cls-5" d="M418.13,194.92l-.12-.09Z"/><polyline class="cls-6" points="418.13 194.92 418.8 195.38 421.89 197.93"/><polyline class="cls-6" points="419.51 195.71 421.89 197.93 418.8 195.38"/><polyline class="cls-6" points="420.31 195.96 421.89 197.93 419.51 195.71"/><polyline class="cls-6" points="421.1 196.13 421.89 197.93 420.31 195.96"/><polygon class="cls-5" points="421.89 197.93 421.89 196.17 421.1 196.13 421.89 197.93"/><polygon class="cls-5" points="421.89 196.17 421.89 197.93 422.69 196.13 421.89 196.17"/><polyline class="cls-6" points="423.48 195.96 421.89 197.93 422.69 196.13"/><polyline class="cls-6" points="424.28 195.71 421.89 197.93 423.48 195.96"/><polyline class="cls-6" points="424.99 195.38 421.89 197.93 424.28 195.71"/><polyline class="cls-6" points="425.66 194.92 421.9 197.93 424.99 195.38"/><polyline class="cls-6" points="421.89 197.93 425.66 194.92 425.78 194.83"/><polyline class="cls-6" points="418.01 189.19 417.71 189.44 414.5 191.99"/><polyline class="cls-6" points="417.42 189.82 414.5 191.99 417.71 189.44"/><polyline class="cls-6" points="417.17 190.19 414.5 191.99 417.42 189.82"/><polyline class="cls-6" points="416.96 190.61 414.5 191.99 417.17 190.19"/><polyline class="cls-6" points="416.8 191.07 414.5 191.99 416.96 190.61"/><polygon class="cls-5" points="414.5 191.99 416.71 191.53 416.79 191.07 414.5 191.99"/><polygon class="cls-5" points="414.5 191.99 416.67 191.99 416.71 191.53 414.5 191.99"/><polygon class="cls-5" points="414.5 191.99 416.71 192.49 416.67 191.99 414.5 191.99"/><polygon class="cls-5" points="416.8 192.95 416.71 192.49 414.5 191.99 416.8 192.95"/><polyline class="cls-6" points="416.96 193.37 414.5 191.99 416.8 192.95"/><polyline class="cls-6" points="417.17 193.83 414.5 191.99 416.96 193.37"/><polyline class="cls-6" points="417.42 194.21 414.5 191.99 417.17 193.83"/><polyline class="cls-6" points="417.71 194.58 414.5 191.99 417.42 194.21"/><polyline class="cls-6" points="414.5 191.99 417.71 194.58 418.01 194.83"/><line class="cls-7" x1="418.01" y1="194.83" x2="418.55" y2="195.21"/><line class="cls-7" x1="418.55" y1="195.21" x2="419.09" y2="195.5"/><line class="cls-7" x1="419.09" y1="195.5" x2="419.68" y2="195.79"/><line class="cls-7" x1="419.68" y1="195.79" x2="420.26" y2="195.96"/><line class="cls-7" x1="420.26" y1="195.96" x2="420.89" y2="196.09"/><polyline class="cls-7" points="420.89 196.09 421.52 196.17 422.14 196.17"/><polyline class="cls-7" points="422.15 196.17 422.77 196.13 423.4 196 423.99 195.84"/><polyline class="cls-7" points="423.99 195.84 424.57 195.59 424.99 195.38"/><polyline class="cls-7" points="424.99 195.38 425.41 195.13 425.78 194.83"/><polyline class="cls-7" points="425.78 194.83 425.99 194.62 426.2 194.41"/><polyline class="cls-7" points="426.2 194.41 426.41 194.16 426.58 193.91"/><polyline class="cls-7" points="426.58 193.91 426.74 193.66 426.87 193.33"/><polyline class="cls-7" points="426.87 193.33 427 192.99 427.08 192.62 427.12 192.28"/><line class="cls-7" x1="427.12" y1="192.28" x2="427.12" y2="191.91"/><polyline class="cls-7" points="427.12 191.91 427.12 191.57 427.04 191.2 426.95 190.86 426.83 190.57 426.66 190.23 426.49 189.94"/><polyline class="cls-7" points="426.49 189.94 426.28 189.65 426.03 189.4"/><polyline class="cls-7" points="426.03 189.4 425.78 189.19 425.45 188.94"/><line class="cls-7" x1="425.45" y1="188.94" x2="425.11" y2="188.73"/><line class="cls-7" x1="425.11" y1="188.73" x2="424.57" y2="188.44"/><line class="cls-8" x1="424.57" y1="188.44" x2="423.99" y2="188.19"/><polyline class="cls-8" points="423.99 188.19 423.4 188.02 422.77 187.89"/><polyline class="cls-8" points="422.77 187.89 422.15 187.81 421.52 187.85"/><line class="cls-8" x1="421.52" y1="187.85" x2="420.89" y2="187.89"/><polyline class="cls-8" points="420.89 187.89 420.26 188.02 419.68 188.23 419.1 188.48"/><line class="cls-7" x1="419.09" y1="188.48" x2="418.55" y2="188.77"/><line class="cls-7" x1="418.55" y1="188.77" x2="418.05" y2="189.15"/><polyline class="cls-7" points="418.05 189.15 418.01 189.19 417.8 189.4 417.55 189.61 417.38 189.86"/><polyline class="cls-7" points="417.38 189.86 417.17 190.15 417.05 190.44"/><polyline class="cls-7" points="417.05 190.44 416.88 190.74 416.8 191.11"/><line class="cls-7" x1="416.79" y1="191.11" x2="416.71" y2="191.45"/><polyline class="cls-7" points="416.71 191.45 416.67 191.82 416.67 192.16 416.71 192.53"/><polyline class="cls-7" points="416.71 192.53 416.75 192.87 416.88 193.2 417 193.5 417.13 193.83"/><polyline class="cls-7" points="417.13 193.83 417.34 194.08 417.55 194.37"/><line class="cls-7" x1="417.55" y1="194.37" x2="417.76" y2="194.62"/><line class="cls-7" x1="417.76" y1="194.62" x2="418.01" y2="194.83"/><rect class="cls-9" x="414.08" y="187.35" width="15.67" height="10.95"/><line class="cls-10" x1="429.75" y1="189.52" x2="429.75" y2="191.4"/><line class="cls-10" x1="429.75" y1="193.29" x2="429.75" y2="195.17"/><line class="cls-10" x1="429.75" y1="187.35" x2="429.75" y2="188.9"/><line class="cls-10" x1="429.75" y1="198.3" x2="429.75" y2="196.75"/><line class="cls-10" x1="417.42" y1="198.3" x2="419.3" y2="198.3"/><line class="cls-10" x1="421.18" y1="198.3" x2="423.06" y2="198.3"/><line class="cls-10" x1="424.95" y1="198.3" x2="426.83" y2="198.3"/><line class="cls-10" x1="414.08" y1="198.3" x2="415.62" y2="198.3"/><line class="cls-10" x1="429.75" y1="198.3" x2="428.16" y2="198.3"/><polyline class="cls-10" points="430.25 187.35 430.25 198.64 430.25 198.68 430.25 198.72"/><line class="cls-10" x1="430.25" y1="198.72" x2="430.25" y2="198.76"/><polyline class="cls-10" points="430.25 198.76 430.21 198.76 430.21 198.8 430.17 198.8 430.13 198.85 430.09 198.85 414.08 198.85"/><polyline class="cls-11" points="414.08 198.84 414.08 187.35 430.25 187.35"/><line class="cls-10" x1="418.01" y1="194.83" x2="418.55" y2="195.21"/><line class="cls-10" x1="418.55" y1="195.21" x2="419.09" y2="195.5"/><line class="cls-10" x1="419.09" y1="195.5" x2="419.68" y2="195.79"/><line class="cls-10" x1="419.68" y1="195.79" x2="420.26" y2="195.96"/><line class="cls-10" x1="420.26" y1="195.96" x2="420.89" y2="196.09"/><polyline class="cls-10" points="420.89 196.09 421.52 196.17 422.14 196.17"/><polyline class="cls-10" points="422.15 196.17 422.77 196.13 423.4 196 423.99 195.84"/><polyline class="cls-10" points="423.99 195.84 424.57 195.59 424.99 195.38"/><polyline class="cls-10" points="424.99 195.38 425.41 195.13 425.78 194.83"/><polyline class="cls-10" points="425.78 194.83 425.99 194.62 426.2 194.41"/><polyline class="cls-10" points="426.2 194.41 426.41 194.16 426.58 193.91"/><polyline class="cls-10" points="426.58 193.91 426.74 193.66 426.87 193.33"/><polyline class="cls-10" points="426.87 193.33 427 192.99 427.08 192.62 427.12 192.28"/><line class="cls-10" x1="427.12" y1="192.28" x2="427.12" y2="191.91"/><polyline class="cls-10" points="427.12 191.91 427.12 191.57 427.04 191.2 426.95 190.86 426.83 190.57 426.66 190.23 426.49 189.94"/><polyline class="cls-10" points="426.49 189.94 426.28 189.65 426.03 189.4"/><polyline class="cls-10" points="426.03 189.4 425.78 189.19 425.45 188.94"/><line class="cls-10" x1="425.45" y1="188.94" x2="425.11" y2="188.73"/><line class="cls-10" x1="425.11" y1="188.73" x2="424.57" y2="188.44"/><line class="cls-11" x1="424.57" y1="188.44" x2="423.99" y2="188.19"/><polyline class="cls-11" points="423.99 188.19 423.4 188.02 422.77 187.89"/><polyline class="cls-11" points="422.77 187.89 422.15 187.81 421.52 187.85"/><line class="cls-11" x1="421.52" y1="187.85" x2="420.89" y2="187.89"/><polyline class="cls-11" points="420.89 187.89 420.26 188.02 419.68 188.23 419.1 188.48"/><line class="cls-10" x1="419.09" y1="188.48" x2="418.55" y2="188.77"/><line class="cls-10" x1="418.55" y1="188.77" x2="418.05" y2="189.15"/><polyline class="cls-10" points="418.05 189.15 418.01 189.19 417.8 189.4 417.55 189.61 417.38 189.86"/><polyline class="cls-10" points="417.38 189.86 417.17 190.15 417.05 190.44"/><polyline class="cls-10" points="417.05 190.44 416.88 190.74 416.8 191.11"/><line class="cls-10" x1="416.79" y1="191.11" x2="416.71" y2="191.45"/><polyline class="cls-10" points="416.71 191.45 416.67 191.82 416.67 192.16 416.71 192.53"/><polyline class="cls-10" points="416.71 192.53 416.75 192.87 416.88 193.2 417 193.5 417.13 193.83"/><polyline class="cls-10" points="417.13 193.83 417.34 194.08 417.55 194.37"/><line class="cls-10" x1="417.55" y1="194.37" x2="417.76" y2="194.62"/><line class="cls-10" x1="417.76" y1="194.62" x2="418.01" y2="194.83"/><path class="cls-12" d="M417.72,194.81v-5.69l-.29.3a3.6,3.6,0,0,0-.34,4.76l.34.34"/><path class="cls-12" d="M425.45,194.81h-7.73l.08,0a6.15,6.15,0,0,0,6.9.46l.67-.46"/><path class="cls-12" d="M425.45,189.12v5.69l.29-.29a3.62,3.62,0,0,0,.34-4.77l-.34-.33"/><path class="cls-12" d="M417.72,189.12h7.73l-.08-.08a6.26,6.26,0,0,0-6.9-.42l-.67.42"/><rect class="cls-9" x="417.72" y="189.12" width="7.73" height="5.68"/><line class="cls-10" x1="417.72" y1="189.12" x2="417.47" y2="189.37"/><polyline class="cls-10" points="417.47 189.38 417.22 189.58 417.01 189.88 416.84 190.13 416.67 190.46"/><line class="cls-10" x1="416.67" y1="190.46" x2="416.55" y2="190.75"/><line class="cls-10" x1="416.55" y1="190.75" x2="416.46" y2="191.09"/><line class="cls-10" x1="416.46" y1="191.09" x2="416.38" y2="191.46"/><line class="cls-10" x1="416.38" y1="191.46" x2="416.38" y2="191.8"/><polyline class="cls-10" points="416.38 191.8 416.38 192.18 416.38 192.51 416.46 192.89 416.59 193.22 416.72 193.51 416.84 193.81 417.05 194.1 417.26 194.35 417.47 194.56 417.72 194.81"/><polyline class="cls-10" points="417.72 194.81 418.1 195.06 418.47 195.31 418.85 195.52"/><line class="cls-10" x1="418.85" y1="195.52" x2="419.43" y2="195.77"/><line class="cls-10" x1="419.43" y1="195.77" x2="420.02" y2="195.94"/><line class="cls-10" x1="420.02" y1="195.94" x2="420.64" y2="196.06"/><polyline class="cls-10" points="420.64 196.06 421.27 196.15 421.9 196.15"/><polyline class="cls-10" points="421.9 196.15 422.53 196.06 423.11 195.94 423.74 195.77 424.2 195.56 424.62 195.35"/><polyline class="cls-10" points="424.62 195.35 425.08 195.1 425.45 194.81"/><polyline class="cls-10" points="425.45 194.81 425.75 194.56 426 194.26 426.2 193.97 426.41 193.64 426.54 193.3"/><polyline class="cls-10" points="426.54 193.3 426.67 192.97 426.75 192.63 426.79 192.3"/><line class="cls-10" x1="426.79" y1="192.3" x2="426.83" y2="191.92"/><polyline class="cls-10" points="426.83 191.93 426.79 191.55 426.75 191.21"/><line class="cls-10" x1="426.75" y1="191.21" x2="426.66" y2="190.88"/><line class="cls-10" x1="426.66" y1="190.88" x2="426.54" y2="190.55"/><polyline class="cls-10" points="426.54 190.54 426.37 190.21 426.16 189.92"/><polyline class="cls-10" points="426.16 189.92 425.95 189.63 425.7 189.37"/><polyline class="cls-10" points="425.7 189.38 425.45 189.12 425.08 188.87 424.7 188.62 424.28 188.41"/><line class="cls-3" x1="424.28" y1="188.41" x2="423.74" y2="188.16"/><line class="cls-3" x1="423.74" y1="188.16" x2="423.11" y2="187.95"/><line class="cls-3" x1="423.11" y1="187.95" x2="422.53" y2="187.83"/><polyline class="cls-3" points="422.53 187.83 421.9 187.79 421.27 187.79 420.65 187.87"/><polyline class="cls-3" points="420.64 187.87 420.02 188 419.43 188.16 418.97 188.37"/><polyline class="cls-10" points="418.97 188.37 418.51 188.58 418.1 188.83"/><line class="cls-10" x1="418.1" y1="188.83" x2="417.72" y2="189.12"/><path class="cls-10" d="M421.61,190.92a.55.55,0,1,0,0,1.09.55.55,0,0,0,0-1.09Z"/><path class="cls-10" d="M421.61,191.13a.32.32,0,1,0,.33.31.31.31,0,0,0-.31-.31Z"/><polyline class="cls-10" points="418.35 189.92 418.14 190.09 417.97 190.25 417.85 190.46 417.68 190.67"/><line class="cls-10" x1="417.68" y1="190.67" x2="417.59" y2="190.88"/><polyline class="cls-10" points="417.59 190.88 417.51 191.13 417.43 191.34"/><polyline class="cls-10" points="417.43 191.34 417.38 191.59 417.34 191.84 417.34 192.09"/><polyline class="cls-10" points="417.34 192.09 417.38 192.34 417.43 192.59 417.51 192.84 417.59 193.05 417.72 193.3 417.85 193.47"/><polyline class="cls-10" points="417.85 193.47 417.97 193.68 418.14 193.85 418.35 194.01 418.64 194.22"/><line class="cls-10" x1="418.64" y1="194.22" x2="418.93" y2="194.43"/><line class="cls-10" x1="418.93" y1="194.43" x2="419.39" y2="194.68"/><polyline class="cls-10" points="419.39 194.68 419.85 194.85 420.31 195.02"/><line class="cls-10" x1="420.31" y1="195.02" x2="420.81" y2="195.1"/><line class="cls-10" x1="420.81" y1="195.1" x2="421.31" y2="195.14"/><polyline class="cls-10" points="421.31 195.14 421.82 195.14 422.32 195.1 422.82 195.02"/><line class="cls-10" x1="422.82" y1="195.02" x2="423.28" y2="194.85"/><polyline class="cls-10" points="423.28 194.85 423.74 194.68 424.16 194.47"/><polyline class="cls-10" points="424.16 194.47 424.49 194.26 424.83 194.01"/><polyline class="cls-10" points="424.82 194.01 424.99 193.89 425.12 193.76 425.29 193.6 425.41 193.39"/><polyline class="cls-10" points="425.41 193.39 425.54 193.18 425.66 192.93"/><line class="cls-10" x1="425.66" y1="192.93" x2="425.7" y2="192.68"/><polyline class="cls-10" points="425.7 192.68 425.79 192.47 425.83 192.22 425.83 191.97 425.83 191.72 425.79 191.46"/><polyline class="cls-10" points="425.79 191.47 425.7 191.21 425.62 190.96 425.49 190.71"/><polyline class="cls-10" points="425.49 190.71 425.37 190.5 425.2 190.29 425.03 190.09"/><polyline class="cls-10" points="425.04 190.09 424.82 189.92 424.53 189.67 424.24 189.5 423.78 189.25 423.32 189.08"/><polyline class="cls-10" points="423.32 189.08 422.82 188.91 422.32 188.83 421.86 188.79 421.36 188.79"/><line class="cls-10" x1="421.36" y1="188.79" x2="420.85" y2="188.83"/><polyline class="cls-10" points="420.86 188.83 420.35 188.91 419.85 189.08 419.39 189.25 419.01 189.46 418.68 189.67"/><line class="cls-10" x1="418.68" y1="189.67" x2="418.35" y2="189.92"/><path class="cls-10" d="M420.39,188a.43.43,0,0,0-.41.42.44.44,0,1,0,.43-.42Z"/><polyline class="cls-10" points="421.23 188.08 421.23 190.46 421.98 190.46 421.98 188.08"/><line class="cls-3" x1="421.98" y1="188.08" x2="421.23" y2="188.08"/><path class="cls-10" d="M422.73,188a.44.44,0,1,0,.42.44A.43.43,0,0,0,422.73,188Z"/><polyline class="cls-12" points="438.12 187.91 437.82 187.66 437.82 187.7 437.87 187.75 437.87 187.79 437.91 187.83 437.91 187.87 437.95 187.87 437.95 187.91 438.08 187.91"/><polyline class="cls-12" points="443.51 187.66 443.26 187.91 443.38 187.91 443.43 187.87 443.47 187.83 443.47 187.79 443.51 187.79 443.51 187.7"/><polyline class="cls-12" points="443.51 187.33 437.82 187.33 437.82 187.66 438.12 187.91 443.26 187.91 443.51 187.66"/><polyline class="cls-3" points="437.82 187.33 437.82 187.66 437.82 187.7 437.87 187.74 437.87 187.79 437.87 187.83"/><polyline class="cls-3" points="437.87 187.83 437.91 187.83 437.91 187.87"/><polyline class="cls-3" points="437.91 187.87 437.95 187.87 437.99 187.91"/><polyline class="cls-3" points="437.99 187.91 438.03 187.91 438.08 187.91 438.12 187.91"/><line class="cls-10" x1="438.12" y1="187.91" x2="443.26" y2="187.91"/><polyline class="cls-3" points="443.26 187.91 443.3 187.91 443.34 187.91 443.38 187.91 443.38 187.87 443.43 187.87 443.47 187.83 443.47 187.79 443.51 187.79 443.51 187.74 443.51 187.7"/><polyline class="cls-3" points="443.51 187.7 443.51 187.66 443.51 187.33"/><line class="cls-10" x1="443.51" y1="187.33" x2="437.82" y2="187.33"/><line class="cls-10" x1="435.69" y1="188.08" x2="445.68" y2="188.08"/><polyline class="cls-10" points="445.68 188.08 445.68 193.34 445.14 193.85"/><polyline class="cls-10" points="445.14 193.85 436.19 193.85 435.69 193.3 435.69 188.08"/><line class="cls-3" x1="435.69" y1="188.08" x2="435.65" y2="188.04"/><polyline class="cls-10" points="435.65 188.04 435.65 193.34 436.19 193.85 445.18 193.85"/><line class="cls-10" x1="445.18" y1="193.85" x2="445.68" y2="193.35"/><line class="cls-10" x1="445.68" y1="193.35" x2="445.68" y2="188.04"/><line class="cls-10" x1="445.68" y1="188.04" x2="435.65" y2="188.04"/><line class="cls-3" x1="445.68" y1="188.04" x2="445.68" y2="188.08"/><line class="cls-10" x1="444.14" y1="193.85" x2="444.14" y2="194.22"/><line class="cls-10" x1="444.14" y1="194.22" x2="445.39" y2="194.18"/><polyline class="cls-10" points="445.39 194.18 445.39 193.68 445.35 193.68"/><polyline class="cls-10" points="436.95 194.35 437.03 193.85 436.82 194.85"/><polyline class="cls-10" points="436.82 194.85 436.91 196.69 436.95 194.35"/><polyline class="cls-10" points="443.93 200.7 443.97 200.53 444.22 199.53"/><polyline class="cls-10" points="443.8 201.12 443.68 201.54 443.26 202.5"/><line class="cls-10" x1="443.26" y1="202.5" x2="442.8" y2="203.25"/><polyline class="cls-10" points="442.8 203.25 442.71 203.34 442.71 203.38 442.67 203.38"/><polyline class="cls-10" points="437.57 201.12 437.7 201.54 438.12 202.5"/><polyline class="cls-10" points="438.12 202.5 438.16 202.58 438.2 202.71 438.28 202.88 438.54 203.25 438.66 203.38"/><line class="cls-10" x1="437.16" y1="199.53" x2="437.37" y2="200.54"/><line class="cls-10" x1="437.36" y1="200.54" x2="437.41" y2="200.7"/><polyline class="cls-10" points="444.39 194.35 444.43 196.69 444.39 194.35"/><line class="cls-10" x1="444.39" y1="194.35" x2="444.39" y2="194.22"/><line class="cls-10" x1="442.67" y1="203.42" x2="442.67" y2="203.38"/><line class="cls-10" x1="442.67" y1="203.38" x2="442.67" y2="203.42"/><line class="cls-10" x1="436.95" y1="198.65" x2="437.03" y2="199.57"/><polyline class="cls-10" points="437.03 199.57 437.24 200.58 437.53 201.58"/><line class="cls-10" x1="437.53" y1="201.58" x2="437.95" y2="202.54"/><line class="cls-10" x1="437.95" y1="202.54" x2="438.45" y2="203.33"/><polyline class="cls-10" points="438.45 203.34 438.54 203.42 438.54 203.46 438.58 203.5"/><polyline class="cls-10" points="438.58 203.5 439.54 204.13 440.67 204.38"/><polyline class="cls-10" points="440.67 204.38 441.8 204.13 442.76 203.5 442.92 203.34 443.18 202.96 443.3 202.75 443.34 202.67 443.38 202.54 443.8 201.58"/><line class="cls-10" x1="443.8" y1="201.58" x2="444.14" y2="200.58"/><line class="cls-10" x1="444.14" y1="200.58" x2="444.34" y2="199.57"/><line class="cls-10" x1="444.34" y1="199.57" x2="444.43" y2="198.65"/><line class="cls-10" x1="436.91" y1="196.69" x2="437.45" y2="195.39"/><polyline class="cls-10" points="437.45 195.39 438.41 194.31 442.92 194.31 443.89 195.39"/><line class="cls-10" x1="443.89" y1="195.39" x2="444.43" y2="196.69"/><line class="cls-10" x1="444.51" y1="197.65" x2="444.6" y2="196.94"/><polyline class="cls-10" points="444.6 196.94 444.55 194.31 444.51 194.22"/><line class="cls-3" x1="441.63" y1="187.95" x2="443.26" y2="187.95"/><polyline class="cls-3" points="443.26 187.95 443.38 187.91 443.47 187.83 443.51 187.66 443.51 187.33"/><line class="cls-10" x1="443.51" y1="187.33" x2="437.82" y2="187.33"/><polyline class="cls-3" points="437.82 187.33 437.82 187.66 437.87 187.83 437.95 187.91 438.12 187.95"/><line class="cls-3" x1="438.12" y1="187.95" x2="439.54" y2="187.95"/><line class="cls-3" x1="441.63" y1="188.04" x2="441.63" y2="187.91"/><line class="cls-10" x1="441.63" y1="187.91" x2="439.54" y2="187.91"/><line class="cls-3" x1="439.54" y1="187.91" x2="439.54" y2="188.04"/><polyline class="cls-3" points="442.13 188.04 442.09 188.04 442.05 188"/><line class="cls-3" x1="442.05" y1="187.99" x2="441.96" y2="187.95"/><polyline class="cls-3" points="439.2 187.95 439.12 188 439.08 188.04"/><line class="cls-3" x1="442.3" y1="188.04" x2="442.3" y2="187.95"/><line class="cls-3" x1="438.91" y1="187.95" x2="438.91" y2="188.04"/><rect class="cls-9" x="436.78" y="193.85" width="7.69" height="3.26"/><polyline class="cls-10" points="436.78 193.85 436.78 197.11 444.47 197.11"/><polyline class="cls-10" points="444.47 197.11 444.47 193.85 436.78 193.85"/><rect class="cls-9" x="444.14" y="193.68" width="1.25" height="0.54"/><rect class="cls-10" x="444.14" y="193.68" width="1.25" height="0.54"/><polyline class="cls-12" points="445.68 188.04 435.69 188.04 435.69 193.3 436.19 193.85 445.14 193.85 445.68 193.3"/><polyline class="cls-10" points="435.69 188.04 435.69 193.3 436.19 193.85"/><line class="cls-10" x1="436.19" y1="193.85" x2="445.14" y2="193.85"/><polyline class="cls-10" points="445.14 193.85 445.68 193.3 445.68 188.04 435.69 188.04"/><polyline class="cls-10" points="444.14 194.22 444.14 193.85 436.86 193.85 436.82 194.31 436.78 196.94 436.82 197.65"/><polyline class="cls-12" points="444.22 199.53 443.38 202.21 443.89 200.91"/><polyline class="cls-12" points="443.38 202.21 444.22 199.53 444.55 198.15 444.43 196.69 443.89 195.39 442.92 194.31 438.41 194.31 437.45 195.39 436.91 196.69 436.78 198.15 437.16 199.53 437.99 202.21 438.66 203.38 439.2 203.92 439.91 204.21 441.42 204.21 442.13 203.92 442.67 203.38"/><polyline class="cls-12" points="441.42 204.21 440.67 204.21 440.75 204.25 441.29 204.25"/><polyline class="cls-12" points="437.99 202.21 437.16 199.53 437.45 200.91"/><line class="cls-10" x1="442.13" y1="203.92" x2="442.67" y2="203.38"/><polyline class="cls-10" points="442.67 203.38 443.38 202.21 443.89 200.91"/><line class="cls-10" x1="443.89" y1="200.91" x2="444.22" y2="199.53"/><line class="cls-10" x1="444.22" y1="199.53" x2="444.55" y2="198.15"/><polyline class="cls-10" points="444.55 198.15 444.43 196.69 443.89 195.39"/><polyline class="cls-10" points="443.89 195.39 442.92 194.31 438.41 194.31"/><line class="cls-10" x1="438.41" y1="194.31" x2="437.45" y2="195.39"/><polyline class="cls-10" points="437.45 195.39 436.91 196.69 436.78 198.15 437.16 199.53"/><line class="cls-10" x1="437.16" y1="199.53" x2="437.45" y2="200.91"/><polyline class="cls-10" points="437.45 200.91 437.99 202.21 438.66 203.38 439.2 203.92"/><line class="cls-10" x1="439.2" y1="203.92" x2="439.91" y2="204.21"/><polyline class="cls-10" points="439.91 204.21 440.67 204.21 440.75 204.25 440.83 204.25 440.96 204.25"/><polyline class="cls-10" points="440.96 204.25 441.29 204.25 441.42 204.21"/><line class="cls-10" x1="441.42" y1="204.21" x2="442.13" y2="203.92"/><rect class="cls-1" x="413.5" y="218.43" width="2.22" height="1.8"/><rect class="cls-1" x="434.23" y="218.43" width="35.6" height="1.8"/><line class="cls-2" x1="415.71" y1="218.43" x2="413.5" y2="218.43"/><line class="cls-2" x1="467.29" y1="218.43" x2="451.12" y2="218.43"/><line class="cls-2" x1="449.28" y1="218.43" x2="434.23" y2="218.43"/><line class="cls-2" x1="415.71" y1="218.43" x2="415.71" y2="220.22"/><line class="cls-2" x1="434.23" y1="218.43" x2="434.23" y2="220.22"/><line class="cls-2" x1="413.5" y1="220.22" x2="415.71" y2="220.22"/><line class="cls-2" x1="434.23" y1="220.22" x2="469.44" y2="220.22"/><line class="cls-3" x1="434.23" y1="218.13" x2="433.85" y2="218.13"/><line class="cls-3" x1="434.23" y1="220.51" x2="433.85" y2="220.51"/><line class="cls-3" x1="434.23" y1="218.13" x2="434.23" y2="220.52"/><line class="cls-3" x1="433.85" y1="218.13" x2="433.85" y2="220.52"/><line class="cls-3" x1="416.09" y1="218.13" x2="415.71" y2="218.13"/><line class="cls-3" x1="416.09" y1="220.51" x2="415.71" y2="220.51"/><line class="cls-3" x1="416.09" y1="218.13" x2="416.09" y2="220.52"/><line class="cls-3" x1="415.71" y1="218.13" x2="415.71" y2="220.52"/><line class="cls-3" x1="416.09" y1="220.51" x2="416.09" y2="238.28"/><line class="cls-3" x1="416.8" y1="220.51" x2="416.8" y2="238.28"/><line class="cls-3" x1="416.09" y1="238.28" x2="416.8" y2="238.28"/><line class="cls-3" x1="416.8" y1="220.51" x2="416.09" y2="220.51"/><polyline class="cls-3" points="433.85 220.51 433.85 221.14 433.77 222.4 433.56 223.65 433.31 224.86"/><polyline class="cls-3" points="433.31 224.86 432.98 226.07 432.52 227.25 432.01 228.37 431.43 229.5"/><polyline class="cls-3" points="431.43 229.5 430.72 230.55 430.01 231.55 429.17 232.51 428.3 233.39"/><polyline class="cls-3" points="428.3 233.39 427.38 234.23 426.37 234.98"/><polyline class="cls-3" points="426.37 234.98 425.33 235.69 424.24 236.27"/><polyline class="cls-3" points="424.24 236.27 423.07 236.82 421.9 237.28"/><polyline class="cls-3" points="421.9 237.28 420.73 237.65 419.52 237.94"/><line class="cls-3" x1="419.52" y1="237.95" x2="418.26" y2="238.11"/><polyline class="cls-3" points="418.26 238.11 417.18 238.24 416.09 238.28"/><polyline class="cls-3" points="433.98 218.13 433.98 217.8 435.69 217.8"/><line class="cls-3" x1="435.69" y1="218.13" x2="435.69" y2="217.8"/><line class="cls-3" x1="415.96" y1="218.13" x2="415.96" y2="217.8"/><line class="cls-3" x1="414.25" y1="217.8" x2="415.96" y2="217.8"/><line class="cls-3" x1="415.96" y1="220.51" x2="415.96" y2="220.81"/><line class="cls-3" x1="414.25" y1="220.81" x2="415.96" y2="220.81"/><polyline class="cls-3" points="433.98 220.51 433.98 220.81 435.69 220.81"/><line class="cls-3" x1="435.69" y1="220.51" x2="435.69" y2="220.81"/><rect class="cls-1" x="467.58" y="187.12" width="1.84" height="31.35"/><line class="cls-2" x1="467.58" y1="187.12" x2="467.58" y2="218.47"/><line class="cls-2" x1="469.42" y1="218.47" x2="469.42" y2="187.12"/><text class="cls-4" transform="translate(422.64 205.6)">OPT</text><text class="cls-4" transform="translate(422.64 211.85)">BATH 7</text></g><rect class="cls-9" x="432.37" y="236.27" width="42.74" height="22.61"/><text class="cls-13" transform="translate(435.28 252.89)"><tspan class="cls-14">13</tspan><tspan class="cls-15" x="7.3" y="0">&apos;</tspan><tspan class="cls-16" x="8.57" y="0">-</tspan><tspan class="cls-17" x="10.75" y="0">4</tspan><tspan x="14.4" y="0">&quot;</tspan><tspan class="cls-18" x="16.44" y="0"> </tspan><tspan class="cls-17" x="18.22" y="0">X</tspan><tspan class="cls-19" x="22.24" y="0"> </tspan><tspan class="cls-20" x="24.11" y="0">1</tspan><tspan x="27.68" y="0">3</tspan><tspan class="cls-21" x="31.34" y="0">&apos;</tspan><tspan class="cls-16" x="32.68" y="0">-</tspan><tspan class="cls-22" x="34.86" y="0">1</tspan><tspan x="38.43" y="0">&quot;</tspan></text><text class="cls-13" transform="translate(443.21 246.32)">S<tspan class="cls-23" x="3.29" y="0">T</tspan><tspan class="cls-15" x="6.1" y="0">U</tspan><tspan class="cls-24" x="10.39" y="0">D</tspan><tspan x="15.3" y="0">Y</tspan></text></g></svg>