<svg id="图层_1" data-name="图层 1" xmlns="http://www.w3.org/2000/svg" viewBox="0 0 1152 576"><defs><style>.cls-1,.cls-3{fill:#fff;}.cls-2,.cls-5,.cls-6{fill:none;stroke:#0f5a83;stroke-linejoin:bevel;}.cls-2{stroke-width:0;}.cls-3{fill-rule:evenodd;}.cls-4{fill:#0f5a83;}.cls-5,.cls-6{stroke-linecap:round;}.cls-5{stroke-width:0.93px;}.cls-6{stroke-width:0.46px;}</style></defs><title>OPT BAY WINDOW AT study</title><g id="_OPT_BAY_WINDOW_AT_study" data-name=" OPT BAY WINDOW AT study"><g id="_OPT_BAY_WINDOW_AT_study-2" data-name=" OPT BAY WINDOW AT study"><rect class="cls-1" x="405.29" y="218.39" width="9.79" height="51.62"/><line class="cls-2" x1="410.64" y1="211.76" x2="410.89" y2="212.05"/><line class="cls-2" x1="410.64" y1="214.72" x2="410.89" y2="214.97"/><polyline class="cls-3" points="398.1 273.04 398.1 263.13 398.35 263.13 398.35 272.79"/><line class="cls-2" x1="398.1" y1="264.26" x2="398.35" y2="264.51"/><line class="cls-2" x1="398.1" y1="267.22" x2="398.35" y2="267.48"/><line class="cls-2" x1="398.1" y1="270.15" x2="398.35" y2="270.44"/><polyline class="cls-3" points="398.1 225.51 398.1 215.6 398.35 215.9 398.35 225.51"/><line class="cls-2" x1="398.1" y1="216.98" x2="398.35" y2="217.23"/><line class="cls-2" x1="398.1" y1="219.91" x2="398.35" y2="220.16"/><line class="cls-2" x1="398.1" y1="222.88" x2="398.35" y2="223.13"/><rect class="cls-4" x="398.6" y="263.13" width="1.8" height="9.4"/><rect class="cls-4" x="398.6" y="216.1" width="1.8" height="9.4"/><polyline class="cls-3" points="398.1 215.6 410.64 215.6 410.89 215.9 398.35 215.9"/><line class="cls-2" x1="399.65" y1="215.6" x2="399.4" y2="215.89"/><line class="cls-2" x1="402.62" y1="215.6" x2="402.37" y2="215.89"/><line class="cls-2" x1="405.29" y1="215.89" x2="405.58" y2="215.6"/><line class="cls-2" x1="408.51" y1="215.6" x2="408.26" y2="215.89"/><rect class="cls-4" x="400.4" y="216.1" width="10.74" height="1.84"/><polyline class="cls-3" points="410.64 273.04 398.1 273.04 398.35 272.79 410.89 272.79"/><line class="cls-2" x1="398.4" y1="273.03" x2="398.65" y2="272.78"/><line class="cls-2" x1="401.36" y1="273.03" x2="401.61" y2="272.78"/><line class="cls-2" x1="404.33" y1="273.03" x2="404.58" y2="272.78"/><line class="cls-2" x1="407.26" y1="273.03" x2="407.51" y2="272.78"/><line class="cls-2" x1="410.22" y1="273.03" x2="410.48" y2="272.78"/><rect class="cls-4" x="400.4" y="270.69" width="10.74" height="1.84"/><line class="cls-2" x1="410.64" y1="273.83" x2="410.89" y2="274.08"/><line class="cls-2" x1="410.64" y1="276.8" x2="410.89" y2="277.05"/><line class="cls-5" x1="411.14" y1="217.94" x2="412.94" y2="217.94"/><line class="cls-5" x1="398.6" y1="263.13" x2="398.6" y2="272.53"/><line class="cls-5" x1="398.6" y1="216.1" x2="398.6" y2="225.51"/><line class="cls-5" x1="398.6" y1="263.13" x2="400.4" y2="263.13"/><line class="cls-5" x1="398.6" y1="225.51" x2="400.4" y2="225.51"/><line class="cls-5" x1="398.6" y1="272.53" x2="400.4" y2="272.53"/><line class="cls-5" x1="400.4" y1="216.1" x2="398.6" y2="216.1"/><line class="cls-5" x1="400.4" y1="270.69" x2="400.4" y2="263.13"/><line class="cls-5" x1="400.4" y1="225.51" x2="400.4" y2="217.94"/><line class="cls-6" x1="397.98" y1="244.32" x2="400.82" y2="244.32"/><line class="cls-6" x1="398.1" y1="244.32" x2="398.1" y2="244.74"/><line class="cls-6" x1="400.69" y1="244.32" x2="400.69" y2="244.74"/><line class="cls-6" x1="398.1" y1="244.32" x2="400.69" y2="244.32"/><line class="cls-6" x1="398.1" y1="244.74" x2="400.69" y2="244.74"/><line class="cls-6" x1="398.1" y1="262.75" x2="398.1" y2="263.13"/><line class="cls-6" x1="400.69" y1="262.75" x2="400.69" y2="263.13"/><line class="cls-6" x1="398.1" y1="262.75" x2="400.69" y2="262.75"/><line class="cls-6" x1="398.1" y1="263.13" x2="400.69" y2="263.13"/><line class="cls-6" x1="398.73" y1="244.74" x2="398.73" y2="262.75"/><line class="cls-6" x1="399.15" y1="244.74" x2="399.15" y2="262.75"/><line class="cls-6" x1="397.98" y1="244.32" x2="400.82" y2="244.32"/><line class="cls-6" x1="397.98" y1="244.32" x2="397.98" y2="244.32"/><line class="cls-6" x1="400.82" y1="244.32" x2="400.82" y2="244.32"/><line class="cls-6" x1="398.1" y1="225.51" x2="398.1" y2="225.93"/><line class="cls-6" x1="400.69" y1="225.51" x2="400.69" y2="225.93"/><line class="cls-6" x1="398.1" y1="225.51" x2="400.69" y2="225.51"/><line class="cls-6" x1="398.1" y1="225.93" x2="400.69" y2="225.93"/><line class="cls-6" x1="398.1" y1="243.94" x2="398.1" y2="244.32"/><line class="cls-6" x1="400.69" y1="243.94" x2="400.69" y2="244.32"/><line class="cls-6" x1="398.1" y1="243.94" x2="400.69" y2="243.94"/><line class="cls-6" x1="398.1" y1="244.32" x2="400.69" y2="244.32"/><line class="cls-6" x1="398.73" y1="225.93" x2="398.73" y2="243.94"/><line class="cls-6" x1="399.15" y1="225.93" x2="399.15" y2="243.94"/><polyline class="cls-6" points="398.1 264.76 397.27 264.76 397.27 223.88"/><line class="cls-6" x1="398.1" y1="223.88" x2="397.27" y2="223.88"/><polyline class="cls-6" points="398.1 225.84 397.77 225.84 397.77 224.13"/><line class="cls-6" x1="398.1" y1="224.13" x2="397.77" y2="224.13"/><line class="cls-6" x1="398.1" y1="225.84" x2="398.1" y2="224.13"/><line class="cls-6" x1="398.1" y1="262.79" x2="397.77" y2="262.79"/><line class="cls-6" x1="397.77" y1="264.51" x2="397.77" y2="262.79"/><line class="cls-6" x1="398.1" y1="264.51" x2="397.77" y2="264.51"/><line class="cls-6" x1="398.1" y1="264.51" x2="398.1" y2="262.79"/><line class="cls-6" x1="400.69" y1="223.88" x2="401.53" y2="223.88"/><line class="cls-6" x1="401.53" y1="264.76" x2="401.53" y2="223.88"/><line class="cls-6" x1="400.69" y1="264.76" x2="401.53" y2="264.76"/><line class="cls-6" x1="400.69" y1="262.79" x2="401.03" y2="262.79"/><line class="cls-6" x1="401.03" y1="264.51" x2="401.03" y2="262.79"/><line class="cls-6" x1="400.69" y1="264.51" x2="401.03" y2="264.51"/><line class="cls-6" x1="400.69" y1="264.51" x2="400.69" y2="262.79"/><polyline class="cls-6" points="400.69 225.84 401.03 225.84 401.03 224.13"/><line class="cls-6" x1="400.69" y1="224.13" x2="401.03" y2="224.13"/><line class="cls-6" x1="400.69" y1="225.84" x2="400.69" y2="224.13"/><line class="cls-5" x1="411.14" y1="216.1" x2="400.4" y2="216.1"/><line class="cls-5" x1="400.4" y1="217.94" x2="411.14" y2="217.94"/><line class="cls-5" x1="400.4" y1="272.53" x2="411.14" y2="272.53"/><line class="cls-5" x1="411.14" y1="270.69" x2="400.4" y2="270.69"/></g></g></svg>