<svg id="图层_1" data-name="图层 1" xmlns="http://www.w3.org/2000/svg" viewBox="0 0 1152 576"><defs><style>.cls-1,.cls-3{fill:#fff;}.cls-2,.cls-5,.cls-6{fill:none;stroke:#0f5a83;stroke-linejoin:bevel;}.cls-2{stroke-width:0;}.cls-3{fill-rule:evenodd;}.cls-4{fill:#0f5a83;}.cls-5,.cls-6{stroke-linecap:round;}.cls-5{stroke-width:0.93px;}.cls-6{stroke-width:0.46px;}</style></defs><title>OPT BAY WINDOW AT LIVING</title><g id="_OPT_BAY_WINDOW_AT_LIVING" data-name=" OPT BAY WINDOW AT LIVING"><g id="_OPT_BAY_WINDOW" data-name=" OPT BAY WINDOW"><rect class="cls-1" x="409.6" y="366.65" width="4.84" height="57.99"/><line class="cls-2" x1="410.65" y1="429.39" x2="410.9" y2="429.64"/><line class="cls-2" x1="410.65" y1="361.38" x2="410.9" y2="361.68"/><polyline class="cls-3" points="398.11 427.72 398.11 414.93 398.36 414.93 398.36 427.47"/><line class="cls-2" x1="398.11" y1="416.85" x2="398.36" y2="417.1"/><line class="cls-2" x1="398.11" y1="419.78" x2="398.36" y2="420.07"/><line class="cls-2" x1="398.11" y1="422.74" x2="398.36" y2="423"/><line class="cls-2" x1="398.11" y1="425.71" x2="398.36" y2="425.96"/><polyline class="cls-3" points="398.11 377.31 398.11 364.02 398.36 364.31 398.36 377.31"/><line class="cls-2" x1="398.11" y1="366.61" x2="398.36" y2="366.86"/><line class="cls-2" x1="398.11" y1="369.53" x2="398.36" y2="369.78"/><line class="cls-2" x1="398.11" y1="372.5" x2="398.36" y2="372.75"/><line class="cls-2" x1="398.11" y1="375.47" x2="398.36" y2="375.72"/><rect class="cls-4" x="398.61" y="414.93" width="1.8" height="12.29"/><rect class="cls-4" x="398.61" y="364.52" width="1.8" height="12.79"/><polyline class="cls-3" points="398.11 364.02 410.65 364.02 410.9 364.31 398.36 364.31"/><line class="cls-2" x1="400.87" y1="364.02" x2="400.62" y2="364.31"/><line class="cls-2" x1="403.84" y1="364.02" x2="403.59" y2="364.31"/><line class="cls-2" x1="406.51" y1="364.31" x2="406.81" y2="364.01"/><line class="cls-2" x1="409.73" y1="364.02" x2="409.48" y2="364.31"/><rect class="cls-4" x="400.41" y="364.52" width="10.74" height="1.84"/><polyline class="cls-3" points="410.65 427.72 398.11 427.72 398.36 427.47 410.9 427.47"/><line class="cls-2" x1="399.24" y1="427.72" x2="399.53" y2="427.47"/><line class="cls-2" x1="402.21" y1="427.72" x2="402.46" y2="427.47"/><line class="cls-2" x1="405.17" y1="427.72" x2="405.43" y2="427.47"/><line class="cls-2" x1="408.14" y1="427.72" x2="408.39" y2="427.47"/><rect class="cls-4" x="400.41" y="425.42" width="10.74" height="1.8"/><line class="cls-5" x1="412.95" y1="425.42" x2="411.15" y2="425.42"/><line class="cls-5" x1="411.15" y1="366.36" x2="412.95" y2="366.36"/><line class="cls-5" x1="398.61" y1="414.93" x2="398.61" y2="427.22"/><line class="cls-5" x1="398.61" y1="364.52" x2="398.61" y2="377.31"/><line class="cls-5" x1="398.61" y1="414.93" x2="400.41" y2="414.93"/><line class="cls-5" x1="398.61" y1="377.31" x2="400.41" y2="377.31"/><line class="cls-5" x1="398.61" y1="427.22" x2="400.41" y2="427.22"/><line class="cls-5" x1="400.41" y1="364.52" x2="398.61" y2="364.52"/><line class="cls-5" x1="400.41" y1="425.42" x2="400.41" y2="414.93"/><line class="cls-5" x1="400.41" y1="377.31" x2="400.41" y2="366.36"/><line class="cls-6" x1="397.99" y1="396.12" x2="400.83" y2="396.12"/><line class="cls-6" x1="398.11" y1="396.12" x2="398.11" y2="396.49"/><line class="cls-6" x1="400.7" y1="396.12" x2="400.7" y2="396.49"/><line class="cls-6" x1="398.11" y1="396.12" x2="400.7" y2="396.12"/><line class="cls-6" x1="398.11" y1="396.49" x2="400.7" y2="396.49"/><line class="cls-6" x1="398.11" y1="414.51" x2="398.11" y2="414.93"/><line class="cls-6" x1="400.7" y1="414.51" x2="400.7" y2="414.93"/><line class="cls-6" x1="398.11" y1="414.51" x2="400.7" y2="414.51"/><line class="cls-6" x1="398.11" y1="414.93" x2="400.7" y2="414.93"/><line class="cls-6" x1="398.74" y1="396.49" x2="398.74" y2="414.51"/><line class="cls-6" x1="399.16" y1="396.49" x2="399.16" y2="414.51"/><line class="cls-6" x1="397.99" y1="396.12" x2="400.83" y2="396.12"/><line class="cls-6" x1="397.99" y1="396.12" x2="397.99" y2="396.12"/><line class="cls-6" x1="400.83" y1="396.12" x2="400.83" y2="396.12"/><line class="cls-6" x1="398.11" y1="377.31" x2="398.11" y2="377.68"/><line class="cls-6" x1="400.7" y1="377.31" x2="400.7" y2="377.68"/><line class="cls-6" x1="398.11" y1="377.31" x2="400.7" y2="377.31"/><line class="cls-6" x1="398.11" y1="377.68" x2="400.7" y2="377.68"/><line class="cls-6" x1="398.11" y1="395.7" x2="398.11" y2="396.12"/><line class="cls-6" x1="400.7" y1="395.7" x2="400.7" y2="396.12"/><line class="cls-6" x1="398.11" y1="395.7" x2="400.7" y2="395.7"/><line class="cls-6" x1="398.11" y1="396.12" x2="400.7" y2="396.12"/><line class="cls-6" x1="398.74" y1="377.68" x2="398.74" y2="395.7"/><line class="cls-6" x1="399.16" y1="377.68" x2="399.16" y2="395.7"/><polyline class="cls-6" points="398.11 416.56 397.27 416.56 397.27 375.68"/><line class="cls-6" x1="398.11" y1="375.68" x2="397.27" y2="375.68"/><polyline class="cls-6" points="398.11 377.64 397.77 377.64 397.77 375.93"/><line class="cls-6" x1="398.11" y1="375.93" x2="397.78" y2="375.93"/><line class="cls-6" x1="398.11" y1="377.64" x2="398.11" y2="375.93"/><line class="cls-6" x1="398.11" y1="414.59" x2="397.78" y2="414.59"/><line class="cls-6" x1="397.78" y1="416.31" x2="397.78" y2="414.59"/><line class="cls-6" x1="398.11" y1="416.31" x2="397.78" y2="416.31"/><line class="cls-6" x1="398.11" y1="416.31" x2="398.11" y2="414.59"/><line class="cls-6" x1="400.7" y1="375.68" x2="401.54" y2="375.68"/><line class="cls-6" x1="401.54" y1="416.56" x2="401.54" y2="375.68"/><line class="cls-6" x1="400.7" y1="416.56" x2="401.54" y2="416.56"/><line class="cls-6" x1="400.7" y1="414.59" x2="401.04" y2="414.59"/><line class="cls-6" x1="401.04" y1="416.31" x2="401.04" y2="414.59"/><line class="cls-6" x1="400.7" y1="416.31" x2="401.04" y2="416.31"/><line class="cls-6" x1="400.7" y1="416.31" x2="400.7" y2="414.59"/><polyline class="cls-6" points="400.7 377.64 401.04 377.64 401.04 375.93"/><line class="cls-6" x1="400.7" y1="375.93" x2="401.04" y2="375.93"/><line class="cls-6" x1="400.7" y1="377.64" x2="400.7" y2="375.93"/><line class="cls-5" x1="411.15" y1="364.52" x2="400.41" y2="364.52"/><line class="cls-5" x1="400.41" y1="427.22" x2="411.15" y2="427.22"/><line class="cls-5" x1="411.15" y1="425.42" x2="400.41" y2="425.42"/></g></g></svg>