
<svg id="图层_1" data-name="图层 1" xmlns="http://www.w3.org/2000/svg" viewBox="0 0 1152 576"><defs><style>.cls-1,.cls-4{fill:#fff;}.cls-2{fill:#0f577e;}.cls-3,.cls-6,.cls-7{fill:none;stroke:#0f5a83;stroke-linejoin:bevel;}.cls-3{stroke-width:0;}.cls-4{fill-rule:evenodd;}.cls-5{fill:#0f5a83;}.cls-6,.cls-7{stroke-linecap:round;}.cls-6{stroke-width:0.93px;}.cls-7{stroke-width:0.46px;}</style></defs><title>OPT BAY WINDOW AT study-2</title><g id="_OPT_BAY_WINDOW_AT_study-2" data-name=" OPT BAY WINDOW AT study-2"><rect class="cls-1" x="409.38" y="227.07" width="1.49" height="5.15"/><rect class="cls-1" x="413.61" y="226.8" width="1.49" height="8.22"/><rect class="cls-2" x="410.86" y="226.8" width="2.75" height="8.22"/><g id="_OPT_BAY_WINDOW_AT_study-2-2" data-name=" OPT BAY WINDOW AT study-2"><rect class="cls-1" x="405.29" y="235.01" width="9.79" height="51.62"/><line class="cls-3" x1="410.64" y1="228.38" x2="410.89" y2="228.67"/><line class="cls-3" x1="410.64" y1="231.34" x2="410.89" y2="231.59"/><polyline class="cls-4" points="398.1 289.65 398.1 279.75 398.35 279.75 398.35 289.4"/><line class="cls-3" x1="398.1" y1="280.88" x2="398.35" y2="281.13"/><line class="cls-3" x1="398.1" y1="283.84" x2="398.35" y2="284.1"/><line class="cls-3" x1="398.1" y1="286.77" x2="398.35" y2="287.06"/><polyline class="cls-4" points="398.1 242.13 398.1 232.22 398.35 232.51 398.35 242.13"/><line class="cls-3" x1="398.1" y1="233.6" x2="398.35" y2="233.85"/><line class="cls-3" x1="398.1" y1="236.53" x2="398.35" y2="236.78"/><line class="cls-3" x1="398.1" y1="239.49" x2="398.35" y2="239.75"/><rect class="cls-5" x="398.6" y="279.75" width="1.8" height="9.4"/><rect class="cls-5" x="398.6" y="232.72" width="1.8" height="9.4"/><polyline class="cls-4" points="398.1 232.22 410.64 232.22 410.89 232.51 398.35 232.51"/><line class="cls-3" x1="399.65" y1="232.22" x2="399.4" y2="232.51"/><line class="cls-3" x1="402.62" y1="232.22" x2="402.37" y2="232.51"/><line class="cls-3" x1="405.29" y1="232.51" x2="405.58" y2="232.22"/><line class="cls-3" x1="408.51" y1="232.22" x2="408.26" y2="232.51"/><rect class="cls-5" x="400.4" y="232.72" width="10.74" height="1.84"/><polyline class="cls-4" points="410.64 289.65 398.1 289.65 398.35 289.4 410.89 289.4"/><line class="cls-3" x1="398.4" y1="289.65" x2="398.65" y2="289.4"/><line class="cls-3" x1="401.36" y1="289.65" x2="401.61" y2="289.4"/><line class="cls-3" x1="404.33" y1="289.65" x2="404.58" y2="289.4"/><line class="cls-3" x1="407.26" y1="289.65" x2="407.51" y2="289.4"/><line class="cls-3" x1="410.22" y1="289.65" x2="410.48" y2="289.4"/><rect class="cls-5" x="400.4" y="287.31" width="10.74" height="1.84"/><line class="cls-3" x1="410.64" y1="290.45" x2="410.89" y2="290.7"/><line class="cls-3" x1="410.64" y1="293.42" x2="410.89" y2="293.67"/><line class="cls-6" x1="411.14" y1="234.56" x2="412.94" y2="234.56"/><line class="cls-6" x1="398.6" y1="279.75" x2="398.6" y2="289.15"/><line class="cls-6" x1="398.6" y1="232.72" x2="398.6" y2="242.13"/><line class="cls-6" x1="398.6" y1="279.75" x2="400.4" y2="279.75"/><line class="cls-6" x1="398.6" y1="242.13" x2="400.4" y2="242.13"/><line class="cls-6" x1="398.6" y1="289.15" x2="400.4" y2="289.15"/><line class="cls-6" x1="400.4" y1="232.72" x2="398.6" y2="232.72"/><line class="cls-6" x1="400.4" y1="287.31" x2="400.4" y2="279.75"/><line class="cls-6" x1="400.4" y1="242.13" x2="400.4" y2="234.56"/><line class="cls-7" x1="397.98" y1="260.94" x2="400.82" y2="260.94"/><line class="cls-7" x1="398.1" y1="260.94" x2="398.1" y2="261.36"/><line class="cls-7" x1="400.69" y1="260.94" x2="400.69" y2="261.36"/><line class="cls-7" x1="398.1" y1="260.94" x2="400.69" y2="260.94"/><line class="cls-7" x1="398.1" y1="261.36" x2="400.69" y2="261.36"/><line class="cls-7" x1="398.1" y1="279.37" x2="398.1" y2="279.75"/><line class="cls-7" x1="400.69" y1="279.37" x2="400.69" y2="279.75"/><line class="cls-7" x1="398.1" y1="279.37" x2="400.69" y2="279.37"/><line class="cls-7" x1="398.1" y1="279.75" x2="400.69" y2="279.75"/><line class="cls-7" x1="398.73" y1="261.36" x2="398.73" y2="279.37"/><line class="cls-7" x1="399.15" y1="261.36" x2="399.15" y2="279.37"/><line class="cls-7" x1="397.98" y1="260.94" x2="400.82" y2="260.94"/><line class="cls-7" x1="397.98" y1="260.94" x2="397.98" y2="260.94"/><line class="cls-7" x1="400.82" y1="260.94" x2="400.82" y2="260.94"/><line class="cls-7" x1="398.1" y1="242.13" x2="398.1" y2="242.55"/><line class="cls-7" x1="400.69" y1="242.13" x2="400.69" y2="242.55"/><line class="cls-7" x1="398.1" y1="242.13" x2="400.69" y2="242.13"/><line class="cls-7" x1="398.1" y1="242.55" x2="400.69" y2="242.55"/><line class="cls-7" x1="398.1" y1="260.56" x2="398.1" y2="260.94"/><line class="cls-7" x1="400.69" y1="260.56" x2="400.69" y2="260.94"/><line class="cls-7" x1="398.1" y1="260.56" x2="400.69" y2="260.56"/><line class="cls-7" x1="398.1" y1="260.94" x2="400.69" y2="260.94"/><line class="cls-7" x1="398.73" y1="242.55" x2="398.73" y2="260.56"/><line class="cls-7" x1="399.15" y1="242.55" x2="399.15" y2="260.56"/><polyline class="cls-7" points="398.1 281.38 397.27 281.38 397.27 240.5"/><line class="cls-7" x1="398.1" y1="240.5" x2="397.27" y2="240.5"/><polyline class="cls-7" points="398.1 242.46 397.77 242.46 397.77 240.75"/><line class="cls-7" x1="398.1" y1="240.75" x2="397.77" y2="240.75"/><line class="cls-7" x1="398.1" y1="242.46" x2="398.1" y2="240.75"/><line class="cls-7" x1="398.1" y1="279.41" x2="397.77" y2="279.41"/><line class="cls-7" x1="397.77" y1="281.13" x2="397.77" y2="279.41"/><line class="cls-7" x1="398.1" y1="281.13" x2="397.77" y2="281.13"/><line class="cls-7" x1="398.1" y1="281.13" x2="398.1" y2="279.41"/><line class="cls-7" x1="400.69" y1="240.5" x2="401.53" y2="240.5"/><line class="cls-7" x1="401.53" y1="281.38" x2="401.53" y2="240.5"/><line class="cls-7" x1="400.69" y1="281.38" x2="401.53" y2="281.38"/><line class="cls-7" x1="400.69" y1="279.41" x2="401.03" y2="279.41"/><line class="cls-7" x1="401.03" y1="281.13" x2="401.03" y2="279.41"/><line class="cls-7" x1="400.69" y1="281.13" x2="401.03" y2="281.13"/><line class="cls-7" x1="400.69" y1="281.13" x2="400.69" y2="279.41"/><polyline class="cls-7" points="400.69 242.46 401.03 242.46 401.03 240.75"/><line class="cls-7" x1="400.69" y1="240.75" x2="401.03" y2="240.75"/><line class="cls-7" x1="400.69" y1="242.46" x2="400.69" y2="240.75"/><line class="cls-6" x1="411.14" y1="232.72" x2="400.4" y2="232.72"/><line class="cls-6" x1="400.4" y1="234.56" x2="411.14" y2="234.56"/><line class="cls-6" x1="400.4" y1="289.15" x2="411.14" y2="289.15"/><line class="cls-6" x1="411.14" y1="287.31" x2="400.4" y2="287.31"/></g></g></svg>