<svg id="图层_1" data-name="图层 1" xmlns="http://www.w3.org/2000/svg" viewBox="0 0 1152 576"><defs><style>.cls-1,.cls-7{fill:#fff;}.cls-2,.cls-3{fill:#e8e2e1;}.cls-3,.cls-7{fill-rule:evenodd;}.cls-11,.cls-4,.cls-5,.cls-6,.cls-8,.cls-9{fill:none;stroke:#0b6190;stroke-linejoin:bevel;}.cls-4,.cls-5{stroke-width:0.24px;}.cls-11,.cls-5,.cls-6,.cls-8{stroke-linecap:round;}.cls-6{stroke-width:0.69px;}.cls-8{stroke-width:0.46px;}.cls-9{stroke-width:0;}.cls-10{fill:#0b6190;}.cls-11{stroke-width:0.93px;}.cls-12{font-size:6.5px;fill:#0f5d89;font-family:CenturyGothic, Century Gothic;}.cls-13{letter-spacing:0em;}.cls-14{letter-spacing:-0.01em;}.cls-15{letter-spacing:0em;}.cls-16{letter-spacing:-0.01em;}.cls-17{letter-spacing:0.01em;}.cls-18{letter-spacing:-0.01em;}.cls-19{letter-spacing:0em;}.cls-20{letter-spacing:0.01em;}.cls-21{letter-spacing:-0.01em;}.cls-22{letter-spacing:0em;}.cls-23{letter-spacing:0em;}.cls-24{letter-spacing:0em;}.cls-25{letter-spacing:0.28em;}.cls-26{letter-spacing:0.27em;}</style></defs><title>AT BED 2 OVER 3 CAR GARAGE</title><g id="AT_BED_2_OVER_3_CAR_GARAGE" data-name="AT BED 2 OVER 3 CAR GARAGE"><polygon class="cls-1" points="757.08 347.51 757.08 362.04 727.05 362.04 727.05 347.51 626.44 347.51 626.44 432.7 760.06 432.7 760.06 347.51 757.08 347.51"/><polygon class="cls-2" points="748.97 409.66 748.93 409.66 748.88 409.7 748.88 409.74 748.84 409.74 748.84 409.82 749.01 409.66 748.97 409.66"/><polyline class="cls-3" points="754.14 412.18 760.4 409.66 760.11 419.62 757 415.71"/><polyline class="cls-3" points="760.4 409.66 754.14 412.18 748.84 409.82 749.01 409.66"/><polyline class="cls-3" points="751.28 415.71 748.84 409.82 754.14 412.18"/><polyline class="cls-3" points="751.24 415.84 748.84 409.82 751.28 415.71"/><polyline class="cls-3" points="750.77 416.51 748.84 409.82 751.24 415.84"/><polyline class="cls-3" points="750.4 417.23 748.84 409.82 750.77 416.51"/><polyline class="cls-3" points="750.14 417.98 748.84 409.82 750.4 417.23"/><polyline class="cls-3" points="749.98 418.78 748.84 409.82 750.14 417.98"/><polyline class="cls-3" points="748.84 409.82 749.98 418.78 749.93 419.62 748.84 429.08"/><polyline class="cls-3" points="749.98 420.42 748.84 429.08 749.93 419.62"/><polyline class="cls-3" points="750.14 421.22 748.84 429.08 749.98 420.42"/><polyline class="cls-3" points="750.4 422.02 748.84 429.08 750.14 421.22"/><polyline class="cls-3" points="750.77 422.73 748.84 429.08 750.4 422.02"/><polyline class="cls-3" points="751.24 423.41 748.84 429.08 750.78 422.74"/><polyline class="cls-3" points="751.28 423.49 748.84 429.08 751.24 423.41"/><polyline class="cls-3" points="754.14 427.06 748.84 429.08 751.28 423.49"/><polyline class="cls-3" points="748.84 429.08 754.14 427.06 760.4 429.08"/><polyline class="cls-3" points="760.11 419.62 760.4 429.08 754.14 427.06 757 423.49"/><polygon class="cls-2" points="760.11 419.62 760.4 429.08 760.4 409.66 760.11 419.62"/><polyline class="cls-3" points="751.28 423.49 751.57 423.83 754.14 427.06"/><polyline class="cls-3" points="751.91 424.12 754.14 427.06 751.57 423.83"/><polyline class="cls-3" points="752.33 424.37 754.14 427.06 751.91 424.12"/><polyline class="cls-3" points="752.75 424.58 754.14 427.06 752.33 424.37"/><polyline class="cls-3" points="753.21 424.75 754.14 427.06 752.75 424.58"/><polygon class="cls-2" points="754.14 427.07 753.68 424.84 753.21 424.75 754.14 427.07"/><polygon class="cls-2" points="754.14 427.07 754.14 424.88 753.68 424.84 754.14 427.07"/><polygon class="cls-2" points="754.14 424.88 754.14 427.07 754.6 424.84 754.14 424.88"/><polygon class="cls-2" points="754.6 424.84 754.14 427.06 755.07 424.75 754.6 424.84"/><polyline class="cls-3" points="755.53 424.58 754.14 427.06 755.06 424.75"/><polyline class="cls-3" points="755.95 424.37 754.14 427.06 755.53 424.58"/><polyline class="cls-3" points="756.37 424.12 754.14 427.06 755.95 424.37"/><polyline class="cls-3" points="756.7 423.83 754.14 427.06 756.37 424.12"/><polyline class="cls-3" points="754.14 427.06 756.7 423.83 757 423.49"/><polyline class="cls-3" points="757 415.71 756.7 415.42 754.14 412.18"/><polyline class="cls-3" points="756.37 415.12 754.14 412.18 756.7 415.42"/><polyline class="cls-3" points="755.95 414.83 754.14 412.18 756.37 415.12"/><polyline class="cls-3" points="755.53 414.62 754.14 412.18 755.95 414.83"/><polyline class="cls-3" points="755.06 414.49 754.14 412.18 755.53 414.62"/><polygon class="cls-2" points="754.6 414.37 755.07 414.49 754.14 412.18 754.6 414.37"/><polygon class="cls-2" points="754.14 414.37 754.6 414.37 754.14 412.18 754.14 414.37"/><polygon class="cls-2" points="753.68 414.37 754.14 414.37 754.14 412.18 753.68 414.37"/><polygon class="cls-2" points="753.22 414.49 753.68 414.37 754.14 412.18 753.22 414.49"/><polyline class="cls-3" points="752.75 414.62 754.14 412.18 753.21 414.49"/><polyline class="cls-3" points="752.33 414.83 754.14 412.18 752.75 414.62"/><polyline class="cls-3" points="751.91 415.12 754.14 412.18 752.33 414.83"/><polyline class="cls-3" points="751.57 415.42 754.14 412.18 751.91 415.12"/><polyline class="cls-3" points="754.14 412.18 751.57 415.42 751.28 415.71"/><polygon class="cls-2" points="757.04 423.41 757 423.49 757.08 423.41 757.04 423.41"/><polyline class="cls-3" points="757.08 423.41 757.04 423.41 757.5 422.74 760.11 419.62"/><polyline class="cls-3" points="757.88 422.02 760.11 419.62 757.5 422.73"/><polyline class="cls-3" points="758.13 421.22 760.11 419.62 757.88 422.02"/><polyline class="cls-3" points="758.3 420.42 760.11 419.62 758.13 421.22"/><polygon class="cls-2" points="758.35 419.62 758.3 420.42 760.11 419.62 758.35 419.62"/><polygon class="cls-2" points="758.35 419.62 760.11 419.62 758.3 418.78 758.35 419.62"/><polyline class="cls-3" points="758.13 417.98 760.11 419.62 758.3 418.78"/><polyline class="cls-3" points="757.88 417.23 760.11 419.62 758.13 417.98"/><polyline class="cls-3" points="757.5 416.51 760.11 419.62 757.88 417.23"/><polyline class="cls-3" points="757.04 415.84 760.11 419.62 757.5 416.51"/><polyline class="cls-3" points="760.11 419.62 757.04 415.84 757 415.71"/><polyline class="cls-4" points="757 415.71 756.75 415.46 756.53 415.25"/><line class="cls-4" x1="756.54" y1="415.25" x2="756.24" y2="415.04"/><polyline class="cls-4" points="756.24 415.04 755.99 414.83 755.69 414.7"/><polyline class="cls-4" points="755.7 414.7 755.36 414.58 755.02 414.45 754.68 414.41"/><line class="cls-4" x1="754.69" y1="414.41" x2="754.31" y2="414.37"/><polyline class="cls-4" points="754.31 414.37 753.93 414.37 753.59 414.41"/><line class="cls-4" x1="753.59" y1="414.41" x2="753.21" y2="414.45"/><polyline class="cls-4" points="753.21 414.45 752.88 414.58 752.58 414.7 752.29 414.87 751.99 415.04 751.74 415.25 751.53 415.46 751.28 415.71"/><polyline class="cls-4" points="751.28 415.71 750.99 416.13 750.69 416.6 750.44 417.18"/><line class="cls-4" x1="750.44" y1="417.18" x2="750.23" y2="417.77"/><polyline class="cls-4" points="750.23 417.77 750.06 418.36 749.98 418.99"/><polyline class="cls-4" points="749.98 418.99 749.93 419.62 749.98 420.25 750.06 420.88"/><line class="cls-4" x1="750.06" y1="420.88" x2="750.23" y2="421.47"/><polyline class="cls-4" points="750.23 421.47 750.44 422.02 750.65 422.56"/><polyline class="cls-4" points="750.65 422.57 750.94 423.03 751.28 423.49"/><line class="cls-4" x1="751.28" y1="423.49" x2="751.49" y2="423.74"/><line class="cls-4" x1="751.49" y1="423.74" x2="751.7" y2="423.91"/><line class="cls-4" x1="751.7" y1="423.91" x2="751.91" y2="424.12"/><polyline class="cls-4" points="751.91 424.12 752.16 424.29 752.46 424.46 752.79 424.63"/><polyline class="cls-4" points="752.79 424.63 753.13 424.71 753.47 424.79"/><polyline class="cls-4" points="753.47 424.79 753.85 424.88 754.18 424.88"/><line class="cls-4" x1="754.18" y1="424.88" x2="754.56" y2="424.84"/><polyline class="cls-4" points="754.56 424.84 754.9 424.79 755.23 424.71"/><polyline class="cls-4" points="755.23 424.71 755.57 424.58 755.9 424.42 756.2 424.2 756.49 424 756.75 423.74"/><polyline class="cls-4" points="756.75 423.74 757 423.49 757.29 423.07"/><polyline class="cls-4" points="757.29 423.07 757.59 422.57 757.84 422.06"/><polyline class="cls-4" points="757.84 422.06 758.05 421.47 758.22 420.88 758.3 420.25"/><polyline class="cls-4" points="758.3 420.25 758.34 419.62 758.3 418.99 758.22 418.36 758.05 417.77"/><line class="cls-4" x1="758.05" y1="417.77" x2="757.84" y2="417.18"/><polyline class="cls-4" points="757.84 417.18 757.59 416.64 757.33 416.18"/><line class="cls-4" x1="757.33" y1="416.17" x2="757" y2="415.71"/><rect class="cls-1" x="749.39" y="410.16" width="11.02" height="18.92"/><line class="cls-5" x1="749.39" y1="410.16" x2="751.83" y2="410.16"/><line class="cls-5" x1="753.72" y1="410.16" x2="755.61" y2="410.16"/><line class="cls-5" x1="757.5" y1="410.16" x2="760.41" y2="410.16"/><line class="cls-5" x1="749.39" y1="410.16" x2="749.39" y2="413.65"/><line class="cls-5" x1="749.39" y1="415.54" x2="749.39" y2="417.44"/><line class="cls-5" x1="749.39" y1="419.33" x2="749.39" y2="421.22"/><line class="cls-5" x1="749.39" y1="423.11" x2="749.39" y2="425"/><line class="cls-5" x1="749.39" y1="426.9" x2="749.39" y2="429.08"/><polyline class="cls-5" points="748.84 409.82 748.84 409.78 748.84 409.74 748.88 409.74 748.88 409.7 748.92 409.7 748.92 409.66 748.97 409.66 749.01 409.66 760.4 409.66"/><polyline class="cls-6" points="760.4 409.66 760.4 429.08 748.84 429.08"/><line class="cls-5" x1="748.84" y1="429.08" x2="748.84" y2="409.83"/><polyline class="cls-5" points="757 415.71 756.75 415.46 756.53 415.25"/><line class="cls-5" x1="756.54" y1="415.25" x2="756.24" y2="415.04"/><polyline class="cls-5" points="756.24 415.04 755.99 414.83 755.69 414.7"/><polyline class="cls-5" points="755.7 414.7 755.36 414.58 755.02 414.45 754.68 414.41"/><line class="cls-5" x1="754.69" y1="414.41" x2="754.31" y2="414.37"/><polyline class="cls-5" points="754.31 414.37 753.93 414.37 753.59 414.41"/><line class="cls-5" x1="753.59" y1="414.41" x2="753.21" y2="414.45"/><polyline class="cls-5" points="753.21 414.45 752.88 414.58 752.58 414.7 752.29 414.87 751.99 415.04 751.74 415.25 751.53 415.46 751.28 415.71"/><polyline class="cls-5" points="751.28 415.71 750.99 416.13 750.69 416.6 750.44 417.18"/><line class="cls-5" x1="750.44" y1="417.18" x2="750.23" y2="417.77"/><polyline class="cls-5" points="750.23 417.77 750.06 418.36 749.98 418.99"/><polyline class="cls-5" points="749.98 418.99 749.93 419.62 749.98 420.25 750.06 420.88"/><line class="cls-5" x1="750.06" y1="420.88" x2="750.23" y2="421.47"/><polyline class="cls-5" points="750.23 421.47 750.44 422.02 750.65 422.56"/><polyline class="cls-5" points="750.65 422.57 750.94 423.03 751.28 423.49"/><line class="cls-5" x1="751.28" y1="423.49" x2="751.49" y2="423.74"/><line class="cls-5" x1="751.49" y1="423.74" x2="751.7" y2="423.91"/><line class="cls-5" x1="751.7" y1="423.91" x2="751.91" y2="424.12"/><polyline class="cls-5" points="751.91 424.12 752.16 424.29 752.46 424.46 752.79 424.63"/><polyline class="cls-5" points="752.79 424.63 753.13 424.71 753.47 424.79"/><polyline class="cls-5" points="753.47 424.79 753.85 424.88 754.18 424.88"/><line class="cls-5" x1="754.18" y1="424.88" x2="754.56" y2="424.84"/><polyline class="cls-5" points="754.56 424.84 754.9 424.79 755.23 424.71"/><polyline class="cls-5" points="755.23 424.71 755.57 424.58 755.9 424.42 756.2 424.2 756.49 424 756.75 423.74"/><polyline class="cls-5" points="756.75 423.74 757 423.49 757.29 423.07"/><polyline class="cls-5" points="757.29 423.07 757.59 422.57 757.84 422.06"/><polyline class="cls-5" points="757.84 422.06 758.05 421.47 758.22 420.88 758.3 420.25"/><polyline class="cls-5" points="758.3 420.25 758.34 419.62 758.3 418.99 758.22 418.36 758.05 417.77"/><line class="cls-5" x1="758.05" y1="417.77" x2="757.84" y2="417.18"/><polyline class="cls-5" points="757.84 417.18 757.59 416.64 757.33 416.18"/><line class="cls-5" x1="757.33" y1="416.17" x2="757" y2="415.71"/><path class="cls-7" d="M751.32,415.75H757l-.25-.29a3.63,3.63,0,0,0-4.8-.34l-.38.34"/><path class="cls-7" d="M751.32,423.53v-7.78l-.08.09a6.21,6.21,0,0,0-.46,6.89l.46.72"/><path class="cls-7" d="M757,423.53h-5.68l.25.3a3.69,3.69,0,0,0,4.8.33l.38-.33"/><path class="cls-7" d="M757,415.75v7.78l.08-.08a6.31,6.31,0,0,0,.46-6.94l-.46-.67"/><rect class="cls-1" x="751.32" y="415.75" width="5.68" height="7.78"/><polyline class="cls-5" points="757 415.75 756.79 415.5 756.53 415.25"/><line class="cls-5" x1="756.54" y1="415.25" x2="756.28" y2="415.04"/><line class="cls-5" x1="756.28" y1="415.04" x2="755.99" y2="414.87"/><line class="cls-5" x1="755.99" y1="414.87" x2="755.69" y2="414.7"/><polyline class="cls-5" points="755.7 414.7 755.36 414.58 755.02 414.49 754.68 414.41"/><line class="cls-5" x1="754.69" y1="414.41" x2="754.31" y2="414.37"/><polyline class="cls-5" points="754.31 414.37 753.97 414.37 753.59 414.41"/><polyline class="cls-5" points="753.59 414.41 753.26 414.49 752.92 414.58"/><polyline class="cls-5" points="752.92 414.58 752.58 414.75 752.29 414.87 752.04 415.04 751.78 415.25 751.53 415.5"/><line class="cls-5" x1="751.53" y1="415.5" x2="751.32" y2="415.75"/><line class="cls-5" x1="751.32" y1="415.75" x2="751.03" y2="416.09"/><line class="cls-5" x1="751.03" y1="416.09" x2="750.82" y2="416.47"/><line class="cls-5" x1="750.82" y1="416.47" x2="750.61" y2="416.89"/><polyline class="cls-5" points="750.61 416.89 750.36 417.48 750.14 418.07"/><line class="cls-5" x1="750.15" y1="418.07" x2="750.02" y2="418.7"/><polyline class="cls-5" points="750.02 418.7 749.98 419.33 749.98 419.96 750.02 420.59"/><line class="cls-5" x1="750.02" y1="420.59" x2="750.15" y2="421.18"/><polyline class="cls-5" points="750.14 421.18 750.31 421.81 750.52 422.27"/><polyline class="cls-5" points="750.52 422.27 750.73 422.69 751.03 423.11"/><line class="cls-5" x1="751.03" y1="423.11" x2="751.32" y2="423.53"/><line class="cls-5" x1="751.32" y1="423.53" x2="751.57" y2="423.83"/><polyline class="cls-5" points="751.57 423.83 751.83 424.08 752.16 424.29 752.46 424.46 752.79 424.63"/><polyline class="cls-5" points="752.79 424.63 753.13 424.75 753.47 424.84"/><polyline class="cls-5" points="753.47 424.84 753.85 424.88 754.18 424.88"/><line class="cls-5" x1="754.18" y1="424.88" x2="754.56" y2="424.88"/><polyline class="cls-5" points="754.56 424.88 754.9 424.84 755.27 424.71 755.61 424.58 755.9 424.46 756.24 424.25"/><line class="cls-5" x1="756.24" y1="424.25" x2="756.49" y2="424.04"/><polyline class="cls-5" points="756.49 424.04 756.79 423.79 757 423.53 757.29 423.15"/><line class="cls-5" x1="757.29" y1="423.16" x2="757.5" y2="422.78"/><line class="cls-5" x1="757.5" y1="422.78" x2="757.76" y2="422.36"/><polyline class="cls-5" points="757.76 422.36 757.97 421.77 758.18 421.18 758.3 420.55"/><polyline class="cls-5" points="758.3 420.55 758.34 419.92 758.34 419.29 758.3 418.7 758.18 418.07 757.97 417.48"/><polyline class="cls-5" points="757.97 417.48 757.8 417.02 757.54 416.55"/><line class="cls-5" x1="757.55" y1="416.55" x2="757.29" y2="416.13"/><line class="cls-5" x1="757.29" y1="416.13" x2="757" y2="415.75"/><path class="cls-5" d="M754.69,419.12h0a.55.55,0,1,0,.53.54A.53.53,0,0,0,754.66,419.12Z"/><path class="cls-5" d="M754.68,419.33h0a.34.34,0,1,0,.32.34A.33.33,0,0,0,754.68,419.33Z"/><line class="cls-5" x1="756.24" y1="416.34" x2="756.07" y2="416.17"/><line class="cls-5" x1="756.07" y1="416.17" x2="755.86" y2="416.01"/><line class="cls-5" x1="755.86" y1="416.01" x2="755.7" y2="415.84"/><line class="cls-5" x1="755.7" y1="415.84" x2="755.48" y2="415.71"/><polyline class="cls-5" points="755.49 415.71 755.23 415.59 755.02 415.5 754.77 415.46 754.52 415.38 754.26 415.38 754.01 415.38"/><polyline class="cls-5" points="754.01 415.38 753.76 415.42 753.51 415.46"/><line class="cls-5" x1="753.51" y1="415.46" x2="753.3" y2="415.5"/><polyline class="cls-5" points="753.3 415.5 753.05 415.63 752.84 415.71 752.63 415.88 752.41 416.01"/><polyline class="cls-5" points="752.41 416.01 752.25 416.17 752.08 416.34 751.87 416.68"/><polyline class="cls-5" points="751.87 416.68 751.66 416.97 751.45 417.44"/><polyline class="cls-5" points="751.45 417.44 751.24 417.9 751.11 418.36"/><polyline class="cls-5" points="751.11 418.36 750.99 418.87 750.94 419.37 750.94 419.87 750.99 420.38"/><line class="cls-5" x1="750.99" y1="420.38" x2="751.11" y2="420.88"/><polyline class="cls-5" points="751.11 420.88 751.24 421.35 751.41 421.81"/><polyline class="cls-5" points="751.4 421.81 751.62 422.19 751.83 422.57 752.08 422.9"/><polyline class="cls-5" points="752.08 422.9 752.21 423.03 752.33 423.15 752.54 423.32 752.75 423.49 752.96 423.62 753.17 423.7"/><polyline class="cls-5" points="753.17 423.7 753.42 423.79 753.68 423.87"/><polyline class="cls-5" points="753.68 423.87 753.93 423.87 754.18 423.91"/><polyline class="cls-5" points="754.18 423.91 754.43 423.87 754.69 423.83 754.94 423.79 755.19 423.7 755.4 423.57 755.65 423.45"/><polyline class="cls-5" points="755.65 423.45 755.86 423.28 756.03 423.11 756.24 422.9"/><polyline class="cls-5" points="756.24 422.9 756.45 422.61 756.66 422.27"/><polyline class="cls-5" points="756.66 422.27 756.87 421.85 757.08 421.35"/><polyline class="cls-5" points="757.08 421.35 757.21 420.88 757.34 420.38"/><line class="cls-5" x1="757.33" y1="420.38" x2="757.38" y2="419.88"/><line class="cls-5" x1="757.38" y1="419.87" x2="757.38" y2="419.37"/><line class="cls-5" x1="757.38" y1="419.37" x2="757.33" y2="418.87"/><polyline class="cls-5" points="757.33 418.87 757.21 418.4 757.08 417.9"/><polyline class="cls-5" points="757.08 417.9 756.87 417.44 756.7 417.06 756.45 416.72"/><line class="cls-5" x1="756.45" y1="416.72" x2="756.24" y2="416.34"/><path class="cls-5" d="M757.76,418a.42.42,0,0,0-.43.42.43.43,0,0,0,.85,0A.42.42,0,0,0,757.76,418Z"/><line class="cls-5" x1="758.09" y1="419.24" x2="755.65" y2="419.24"/><polyline class="cls-5" points="755.65 419.24 755.65 420.04 758.09 420.04 758.09 419.24"/><path class="cls-5" d="M757.76,420.34h0a.44.44,0,1,0,.45.44A.44.44,0,0,0,757.73,420.34Z"/><rect class="cls-1" x="657.64" y="369.21" width="41.08" height="33.01"/><rect class="cls-1" x="657.13" y="369.67" width="0.5" height="32"/><line class="cls-6" x1="657.64" y1="369.67" x2="657.13" y2="369.67"/><polyline class="cls-6" points="657.13 369.67 657.13 401.67 657.64 401.67 657.64 402.21"/><polyline class="cls-5" points="657.64 402.21 698.72 402.21 698.72 369.21 657.64 369.21"/><line class="cls-6" x1="657.64" y1="369.21" x2="657.64" y2="369.67"/><rect class="cls-1" x="657.13" y="369.67" width="1.43" height="32"/><line class="cls-5" x1="657.13" y1="401.67" x2="658.56" y2="401.67"/><polyline class="cls-5" points="658.56 401.67 658.56 369.67 657.13 369.67"/><line class="cls-6" x1="657.13" y1="369.67" x2="657.13" y2="401.67"/><line class="cls-5" x1="658.56" y1="399.82" x2="658.82" y2="399.9"/><polyline class="cls-5" points="658.82 399.9 659.78 399.56 662.77 399.99"/><line class="cls-5" x1="662.77" y1="399.99" x2="665.21" y2="399.44"/><line class="cls-5" x1="658.56" y1="385.52" x2="658.82" y2="385.61"/><polyline class="cls-5" points="658.82 385.61 659.78 385.31 662.77 385.69"/><line class="cls-5" x1="662.77" y1="385.69" x2="659.78" y2="386.15"/><line class="cls-5" x1="659.78" y1="386.15" x2="658.65" y2="385.82"/><line class="cls-5" x1="658.65" y1="385.82" x2="658.56" y2="385.86"/><polyline class="cls-5" points="670.88 372.36 670.88 372.27 670.72 371.73 670.09 371.56"/><polyline class="cls-5" points="670.08 371.56 668.11 372.06 665.21 371.86 662.77 371.43"/><polyline class="cls-5" points="662.77 371.44 659.78 371.9 658.65 371.52"/><line class="cls-5" x1="658.65" y1="371.52" x2="658.56" y2="371.56"/><polyline class="cls-5" points="670.13 399.86 668.19 399.82 665.21 399.44"/><line class="cls-5" x1="665.21" y1="399.44" x2="667.48" y2="398.51"/><line class="cls-5" x1="662.77" y1="385.69" x2="665.21" y2="385.14"/><line class="cls-5" x1="665.21" y1="385.14" x2="667.48" y2="384.26"/><polyline class="cls-5" points="667.35 385.44 668.15 385.56 670.08 385.61 670.13 385.61 668.19 385.56 665.21 385.14"/><line class="cls-5" x1="668.15" y1="386.32" x2="665.21" y2="386.15"/><line class="cls-5" x1="665.21" y1="386.15" x2="662.77" y2="385.69"/><line class="cls-5" x1="665.21" y1="386.15" x2="668.11" y2="386.36"/><polyline class="cls-5" points="668.11 386.36 670.08 385.86 670.71 385.98"/><line class="cls-5" x1="670.72" y1="385.98" x2="670.88" y2="386.57"/><line class="cls-5" x1="670.88" y1="386.57" x2="670.55" y2="388.8"/><line class="cls-5" x1="670.55" y1="388.8" x2="670.88" y2="391.62"/><polyline class="cls-5" points="670.88 391.62 670.59 393.93 670.46 395.95 670.38 396.79 670.55 398.51 670.72 398.94 670.76 399.1"/><polyline class="cls-5" points="670.76 399.1 670.67 399.69 670.13 399.86 670.08 399.86 668.15 399.86 667.35 399.73"/><polyline class="cls-5" points="670.13 385.61 670.67 385.39 670.76 384.85"/><line class="cls-5" x1="670.76" y1="384.85" x2="670.42" y2="382.54"/><line class="cls-5" x1="670.42" y1="382.54" x2="670.59" y2="379.63"/><line class="cls-5" x1="670.59" y1="379.64" x2="670.88" y2="377.36"/><line class="cls-5" x1="670.88" y1="377.36" x2="670.88" y2="377.32"/><polyline class="cls-5" points="670.34 385.9 670.08 385.86 668.15 386.32"/><line class="cls-5" x1="696.57" y1="374.04" x2="696.74" y2="372.91"/><polyline class="cls-5" points="696.74 372.91 696.45 372.15 695.94 371.64 695.19 371.35 660.5 371.35"/><polyline class="cls-5" points="660.5 371.35 659.74 371.64 659.57 371.81"/><line class="cls-5" x1="658.94" y1="385.56" x2="658.94" y2="385.9"/><polyline class="cls-5" points="659.61 399.65 659.74 399.77 660.5 400.07"/><polyline class="cls-5" points="660.5 400.07 695.19 400.07 695.94 399.77 696.45 399.27"/><line class="cls-5" x1="696.45" y1="399.27" x2="696.74" y2="398.51"/><polyline class="cls-5" points="696.74 398.51 696.74 397.38 696.57 390.61"/><line class="cls-5" x1="697.33" y1="390.61" x2="697.33" y2="380.81"/><line class="cls-5" x1="658.56" y1="399.9" x2="658.98" y2="400.36"/><line class="cls-5" x1="658.98" y1="400.36" x2="659.78" y2="400.66"/><polyline class="cls-5" points="659.78 400.66 695.94 400.66 696.7 400.36 697.21 399.82"/><polyline class="cls-5" points="697.21 399.82 697.54 399.06 697.54 372.36 697.21 371.6"/><line class="cls-5" x1="697.21" y1="371.6" x2="696.7" y2="371.06"/><polyline class="cls-5" points="696.7 371.06 695.94 370.76 659.78 370.76 658.98 371.06 658.56 371.52"/><line class="cls-6" x1="657.64" y1="401.67" x2="657.64" y2="402.21"/><polyline class="cls-5" points="657.64 402.21 698.72 402.21 698.72 369.21 657.64 369.21"/><line class="cls-6" x1="657.64" y1="369.21" x2="657.64" y2="369.67"/><line class="cls-5" x1="670.76" y1="376.35" x2="670.5" y2="374.59"/><polyline class="cls-5" points="670.5 374.59 670.67 372.95 670.97 372.19"/><polyline class="cls-5" points="670.34 371.64 670.08 371.56 668.15 372.02"/><line class="cls-5" x1="668.15" y1="372.02" x2="665.21" y2="371.86"/><line class="cls-5" x1="658.61" y1="371.9" x2="658.56" y2="371.9"/><rect class="cls-1" x="728.87" y="376.02" width="31.54" height="15.77"/><polyline class="cls-8" points="760.4 391.79 760.4 376.02 728.87 376.02"/><line class="cls-8" x1="728.87" y1="376.02" x2="728.87" y2="391.79"/><line class="cls-5" x1="728.87" y1="391.79" x2="760.41" y2="391.79"/><line class="cls-8" x1="729.92" y1="386.45" x2="729.96" y2="386.83"/><line class="cls-8" x1="729.96" y1="386.82" x2="730" y2="387.2"/><polyline class="cls-8" points="730 387.2 730.13 387.58 730.26 387.96 730.42 388.34 730.68 388.63"/><line class="cls-5" x1="730.68" y1="388.63" x2="730.93" y2="388.97"/><line class="cls-5" x1="730.93" y1="388.97" x2="731.22" y2="389.26"/><polyline class="cls-5" points="731.22 389.26 731.56 389.52 731.9 389.73"/><line class="cls-5" x1="731.9" y1="389.73" x2="732.27" y2="389.9"/><polyline class="cls-5" points="732.27 389.89 732.65 390.06 732.99 390.15"/><polyline class="cls-5" points="732.99 390.15 733.33 390.23 733.66 390.27 734.04 390.27 753.47 390.27 753.97 390.27 754.48 390.19 754.98 390.1"/><polyline class="cls-5" points="754.98 390.1 755.44 389.98 755.9 389.77 756.37 389.56"/><polyline class="cls-8" points="756.37 389.56 756.79 389.31 757.21 389.01"/><polyline class="cls-8" points="757.21 389.01 757.59 388.72 757.92 388.38"/><line class="cls-8" x1="757.92" y1="388.38" x2="758.22" y2="388"/><line class="cls-8" x1="758.22" y1="388" x2="758.51" y2="387.62"/><polyline class="cls-8" points="758.51 387.62 758.76 387.2 758.98 386.74 759.1 386.32 759.23 385.86 759.31 385.31 759.35 384.76"/><polyline class="cls-8" points="759.35 384.76 759.35 383.12 759.35 382.66"/><line class="cls-8" x1="759.35" y1="382.66" x2="759.27" y2="382.16"/><line class="cls-8" x1="759.27" y1="382.16" x2="759.14" y2="381.7"/><line class="cls-8" x1="759.14" y1="381.69" x2="759.02" y2="381.27"/><line class="cls-8" x1="759.02" y1="381.27" x2="758.81" y2="380.81"/><polyline class="cls-8" points="758.81 380.81 758.6 380.39 758.3 380.01 758.01 379.63"/><line class="cls-8" x1="758.01" y1="379.64" x2="757.67" y2="379.3"/><line class="cls-8" x1="757.67" y1="379.3" x2="757.29" y2="378.96"/><polyline class="cls-8" points="757.29 378.96 756.91 378.67 756.49 378.42"/><line class="cls-5" x1="756.49" y1="378.42" x2="756.03" y2="378.2"/><polyline class="cls-5" points="756.03 378.2 755.57 378.04 755.07 377.87"/><polyline class="cls-5" points="755.06 377.87 754.6 377.78 754.1 377.7 753.59 377.7 734.12 377.7 733.75 377.7 733.41 377.74"/><polyline class="cls-5" points="733.41 377.74 732.99 377.83 732.61 377.95"/><polyline class="cls-5" points="732.61 377.95 732.19 378.12 731.85 378.33"/><line class="cls-5" x1="731.85" y1="378.33" x2="731.52" y2="378.54"/><polyline class="cls-5" points="731.52 378.54 731.18 378.79 730.89 379.09"/><line class="cls-8" x1="730.89" y1="379.09" x2="730.63" y2="379.42"/><polyline class="cls-8" points="730.63 379.42 730.42 379.76 730.26 380.1"/><line class="cls-8" x1="730.26" y1="380.1" x2="730.09" y2="380.48"/><polyline class="cls-8" points="730.09 380.48 730 380.85 729.96 381.23 729.92 381.65"/><line class="cls-8" x1="729.92" y1="381.65" x2="729.92" y2="386.45"/><polyline class="cls-5" points="733.91 383.88 733.87 383.88 733.83 383.88 733.79 383.88 733.75 383.88 733.75 383.84 733.7 383.84"/><polyline class="cls-5" points="733.7 383.84 733.66 383.8 733.62 383.8 733.58 383.75 733.53 383.71 733.53 383.67 733.49 383.67 733.49 383.63 733.49 383.59"/><polyline class="cls-5" points="733.49 383.59 733.45 383.59 733.45 383.55 733.45 383.5 733.45 383.46 733.45 383.42 733.45 383.38 733.49 383.33 733.49 383.29 733.49 383.25 733.53 383.25 733.53 383.21 733.58 383.17 733.62 383.12 733.66 383.12 733.7 383.08 733.75 383.08 733.79 383.08 733.83 383.04 733.87 383.04 733.91 383.04 733.96 383.04 734 383.04 734 383.08"/><polyline class="cls-5" points="734 383.08 734.04 383.08 734.08 383.08 734.12 383.08 734.12 383.12 734.17 383.12 734.21 383.17 734.25 383.21 734.25 383.25 734.29 383.25 734.29 383.29 734.33 383.33 734.33 383.38"/><polyline class="cls-5" points="734.33 383.38 734.33 383.42 734.33 383.46 734.33 383.5 734.33 383.55 734.33 383.59 734.29 383.63 734.29 383.67 734.25 383.67 734.25 383.71 734.21 383.75 734.17 383.8 734.12 383.8 734.12 383.84 734.08 383.84 734.04 383.84 734.04 383.88 734 383.88"/><polyline class="cls-5" points="734 383.88 733.96 383.88 733.91 383.88"/><line class="cls-8" x1="754.35" y1="405.75" x2="759.65" y2="405.75"/><line class="cls-8" x1="754.39" y1="405.75" x2="759.69" y2="405.75"/><polyline class="cls-7" points="759.77 398.09 760.07 397.84 759.98 397.84 759.94 397.88 759.9 397.88 759.86 397.93 759.86 397.97 759.82 397.97 759.82 398.09"/><polyline class="cls-7" points="760.07 403.56 759.77 403.31 759.82 403.35 759.82 403.43 759.86 403.48 759.9 403.52 759.94 403.52 759.98 403.56 760.03 403.56"/><polyline class="cls-7" points="760.4 403.56 760.4 397.84 760.07 397.84 759.77 398.09 759.77 403.31 760.07 403.56"/><polyline class="cls-8" points="760.4 397.84 760.07 397.84 760.03 397.84 759.98 397.84 759.94 397.88 759.9 397.88 759.9 397.93 759.86 397.93 759.86 397.97 759.82 397.97"/><polyline class="cls-8" points="759.82 397.97 759.82 398.01 759.82 398.05 759.77 398.09 759.77 403.31 759.82 403.35"/><polyline class="cls-8" points="759.82 403.35 759.82 403.39 759.82 403.43 759.86 403.43 759.86 403.48 759.9 403.52 759.94 403.52 759.98 403.56 760.03 403.56 760.07 403.56 760.4 403.56"/><line class="cls-8" x1="760.4" y1="403.56" x2="760.4" y2="397.84"/><line class="cls-5" x1="759.65" y1="395.7" x2="759.65" y2="405.75"/><polyline class="cls-8" points="759.65 405.75 754.35 405.75 753.85 405.2"/><polyline class="cls-5" points="753.85 405.2 753.85 396.2 754.35 395.7 759.65 395.7"/><line class="cls-8" x1="759.65" y1="395.7" x2="759.65" y2="395.66"/><polyline class="cls-5" points="759.65 395.65 754.35 395.65 753.85 396.2"/><line class="cls-5" x1="753.85" y1="396.2" x2="753.85" y2="405.2"/><line class="cls-8" x1="753.85" y1="405.2" x2="754.35" y2="405.75"/><line class="cls-5" x1="759.65" y1="405.75" x2="759.65" y2="395.66"/><polyline class="cls-8" points="753.85 404.19 753.47 404.19 753.47 405.45 754.01 405.45"/><line class="cls-8" x1="754.01" y1="405.45" x2="754.01" y2="405.37"/><polyline class="cls-5" points="753.34 396.96 753.85 397 752.84 396.79 750.99 396.92 753.34 396.96"/><polyline class="cls-5" points="746.95 403.98 747.12 404.02 748.13 404.23"/><line class="cls-5" x1="746.53" y1="403.85" x2="746.11" y2="403.73"/><line class="cls-5" x1="746.11" y1="403.73" x2="745.14" y2="403.31"/><line class="cls-5" x1="745.14" y1="403.31" x2="744.38" y2="402.85"/><polyline class="cls-5" points="744.38 402.85 744.3 402.76 744.26 402.72 744.22 402.72"/><line class="cls-5" x1="744.22" y1="398.73" x2="744.22" y2="398.68"/><line class="cls-5" x1="746.53" y1="397.55" x2="746.11" y2="397.67"/><line class="cls-5" x1="746.11" y1="397.67" x2="745.14" y2="398.09"/><polyline class="cls-5" points="745.14 398.09 745.06 398.14 744.93 398.18 744.76 398.3"/><line class="cls-5" x1="744.76" y1="398.3" x2="744.38" y2="398.56"/><line class="cls-5" x1="744.38" y1="398.56" x2="744.26" y2="398.68"/><polyline class="cls-5" points="748.13 397.17 747.12 397.38 746.95 397.42"/><line class="cls-5" x1="753.34" y1="404.44" x2="750.99" y2="404.49"/><line class="cls-5" x1="750.99" y1="404.49" x2="753.34" y2="404.44"/><line class="cls-8" x1="753.34" y1="404.44" x2="753.47" y2="404.44"/><polyline class="cls-5" points="744.22 402.68 744.22 402.72 744.22 402.68"/><polyline class="cls-5" points="749.01 396.92 748.08 397 747.08 397.25 746.07 397.55"/><polyline class="cls-5" points="746.07 397.55 745.1 397.97 744.3 398.47 744.22 398.51"/><polyline class="cls-5" points="744.22 398.51 744.17 398.56 744.13 398.6 743.46 399.56 743.25 400.7 743.46 401.84 744.13 402.8 744.3 402.97"/><line class="cls-5" x1="744.3" y1="402.97" x2="744.68" y2="403.22"/><line class="cls-5" x1="744.68" y1="403.22" x2="744.89" y2="403.35"/><line class="cls-5" x1="744.89" y1="403.35" x2="744.97" y2="403.39"/><polyline class="cls-5" points="744.97 403.39 745.1 403.43 746.07 403.86"/><line class="cls-5" x1="746.07" y1="403.85" x2="747.08" y2="404.15"/><polyline class="cls-5" points="747.08 404.15 748.08 404.4 749.01 404.49"/><line class="cls-5" x1="750.99" y1="396.92" x2="752.29" y2="397.46"/><line class="cls-5" x1="752.29" y1="397.46" x2="753.38" y2="398.43"/><polyline class="cls-5" points="753.38 398.43 753.38 402.97 752.29 403.94 750.99 404.48"/><line class="cls-5" x1="750.02" y1="404.57" x2="750.73" y2="404.65"/><line class="cls-5" x1="750.73" y1="404.65" x2="753.34" y2="404.57"/><line class="cls-8" x1="753.34" y1="404.57" x2="753.47" y2="404.57"/><polyline class="cls-8" points="759.77 401.67 759.77 403.31 759.82 403.43"/><polyline class="cls-8" points="759.82 403.43 759.9 403.52 760.03 403.56 760.4 403.56"/><line class="cls-8" x1="760.4" y1="403.56" x2="760.4" y2="397.84"/><line class="cls-8" x1="760.4" y1="397.84" x2="760.03" y2="397.84"/><polyline class="cls-8" points="760.03 397.84 759.9 397.88 759.82 397.97"/><polyline class="cls-8" points="759.82 397.97 759.77 398.09 759.77 399.56"/><polyline class="cls-8" points="759.65 401.67 759.77 401.67 759.77 399.56 759.65 399.56"/><polyline class="cls-8" points="759.65 402.13 759.69 402.13 759.73 402.09 759.77 402"/><polyline class="cls-8" points="759.77 399.23 759.73 399.14 759.69 399.1 759.65 399.1"/><line class="cls-8" x1="759.65" y1="402.34" x2="759.77" y2="402.34"/><line class="cls-8" x1="759.77" y1="398.89" x2="759.65" y2="398.89"/><rect class="cls-1" x="750.57" y="396.79" width="3.28" height="7.74"/><polyline class="cls-5" points="753.85 396.79 750.57 396.79 750.57 404.53"/><polyline class="cls-5" points="750.57 404.53 753.85 404.53 753.85 396.79"/><rect class="cls-1" x="753.47" y="404.19" width="0.55" height="1.26"/><line class="cls-8" x1="754.01" y1="404.19" x2="753.47" y2="404.19"/><polyline class="cls-8" points="753.47 404.19 753.47 405.45 754.01 405.45"/><line class="cls-8" x1="754.01" y1="405.45" x2="754.01" y2="404.19"/><polyline class="cls-7" points="759.69 405.75 759.69 395.7 754.39 395.7 753.85 396.2 753.85 405.2 754.39 405.75"/><polyline class="cls-5" points="759.69 395.7 754.39 395.7 753.85 396.2 753.85 405.2"/><line class="cls-8" x1="753.85" y1="405.2" x2="754.39" y2="405.75"/><line class="cls-5" x1="759.69" y1="405.75" x2="759.69" y2="395.7"/><line class="cls-8" x1="753.47" y1="404.19" x2="753.85" y2="404.19"/><polyline class="cls-5" points="753.85 404.19 753.85 396.87 753.34 396.83 750.73 396.79 750.02 396.83"/><polyline class="cls-7" points="748.13 404.23 745.43 403.43 746.74 403.94"/><polyline class="cls-7" points="745.44 403.43 748.13 404.23 749.51 404.61 750.94 404.49 752.29 403.94 753.38 402.97 753.38 398.43 752.29 397.46 750.94 396.92 749.51 396.79 748.13 397.17 745.44 397.97 744.22 398.68 743.71 399.23 743.42 399.94 743.42 401.46 743.71 402.17 744.22 402.72"/><polyline class="cls-7" points="743.42 401.46 743.42 400.7 743.37 400.79 743.37 401.33"/><polyline class="cls-7" points="745.44 397.97 748.13 397.17 746.74 397.46"/><line class="cls-5" x1="743.71" y1="402.17" x2="744.22" y2="402.72"/><polyline class="cls-5" points="744.22 402.72 745.43 403.43 746.74 403.94"/><line class="cls-5" x1="746.74" y1="403.94" x2="748.13" y2="404.23"/><line class="cls-5" x1="748.13" y1="404.23" x2="749.51" y2="404.61"/><line class="cls-5" x1="749.51" y1="404.61" x2="750.94" y2="404.49"/><line class="cls-5" x1="750.94" y1="404.49" x2="752.29" y2="403.94"/><line class="cls-5" x1="752.29" y1="403.94" x2="753.38" y2="402.97"/><polyline class="cls-5" points="753.38 402.97 753.38 398.43 752.29 397.46 750.94 396.92"/><line class="cls-5" x1="750.94" y1="396.92" x2="749.51" y2="396.79"/><line class="cls-5" x1="749.51" y1="396.79" x2="748.13" y2="397.17"/><line class="cls-5" x1="748.13" y1="397.17" x2="746.74" y2="397.46"/><polyline class="cls-5" points="746.74 397.46 745.43 397.97 744.22 398.68"/><line class="cls-5" x1="744.22" y1="398.68" x2="743.71" y2="399.23"/><line class="cls-5" x1="743.71" y1="399.23" x2="743.42" y2="399.94"/><polyline class="cls-5" points="743.42 399.94 743.42 400.7 743.37 400.79"/><polyline class="cls-5" points="743.37 400.78 743.37 400.87 743.37 401 743.37 401.33 743.42 401.46 743.71 402.17"/><line class="cls-9" x1="626.02" y1="431.59" x2="626.19" y2="431.57"/><rect class="cls-10" x="623.28" y="431.38" width="0.71" height="0.16"/><polyline class="cls-7" points="626.35 429.54 626.35 431.59 626.1 431.56 626.1 429.52"/><line class="cls-9" x1="626.1" y1="431.44" x2="626.35" y2="431.73"/><line class="cls-9" x1="626.1" y1="434.42" x2="626.35" y2="434.68"/><line class="cls-9" x1="626.1" y1="437.41" x2="626.35" y2="437.66"/><line class="cls-9" x1="626.1" y1="440.35" x2="626.35" y2="440.65"/><line class="cls-9" x1="626.1" y1="443.34" x2="626.35" y2="443.59"/><line class="cls-9" x1="626.1" y1="446.32" x2="626.35" y2="446.58"/><line class="cls-9" x1="626.1" y1="449.31" x2="626.35" y2="449.56"/><line class="cls-9" x1="626.1" y1="431.36" x2="626.35" y2="431.39"/><rect class="cls-10" x="624" y="429.34" width="1.85" height="2.21"/><polyline class="cls-7" points="763.01 431.69 734.63 431.69 734.38 431.44 762.76 431.44"/><line class="cls-9" x1="735.34" y1="431.69" x2="735.64" y2="431.44"/><line class="cls-9" x1="738.33" y1="431.69" x2="738.58" y2="431.44"/><line class="cls-9" x1="741.31" y1="431.69" x2="741.57" y2="431.44"/><line class="cls-9" x1="744.26" y1="431.69" x2="744.55" y2="431.44"/><line class="cls-9" x1="747.24" y1="431.69" x2="747.5" y2="431.44"/><line class="cls-9" x1="750.23" y1="431.69" x2="750.48" y2="431.44"/><line class="cls-9" x1="753.21" y1="431.69" x2="753.47" y2="431.44"/><line class="cls-9" x1="756.16" y1="431.69" x2="756.45" y2="431.44"/><line class="cls-9" x1="759.14" y1="431.69" x2="759.4" y2="431.44"/><line class="cls-9" x1="762.13" y1="431.69" x2="762.38" y2="431.44"/><rect class="cls-10" x="734.12" y="429.34" width="26.53" height="1.85"/><line class="cls-9" x1="762.76" y1="373.65" x2="763.01" y2="373.73"/><line class="cls-9" x1="762.76" y1="330.23" x2="763.01" y2="330.52"/><line class="cls-9" x1="762.76" y1="333.21" x2="763.01" y2="333.47"/><line class="cls-9" x1="762.76" y1="336.2" x2="763.01" y2="336.45"/><line class="cls-9" x1="762.76" y1="339.18" x2="763.01" y2="339.44"/><line class="cls-9" x1="762.76" y1="342.13" x2="763.01" y2="342.42"/><line class="cls-9" x1="762.76" y1="345.11" x2="763.01" y2="345.37"/><line class="cls-9" x1="762.76" y1="348.1" x2="763.01" y2="348.35"/><line class="cls-9" x1="762.76" y1="351.04" x2="763.01" y2="351.34"/><line class="cls-9" x1="762.76" y1="354.03" x2="763.01" y2="354.28"/><line class="cls-9" x1="762.76" y1="357.01" x2="763.01" y2="357.27"/><line class="cls-9" x1="762.76" y1="360" x2="763.01" y2="360.25"/><line class="cls-9" x1="762.76" y1="362.94" x2="763.01" y2="363.24"/><line class="cls-9" x1="762.76" y1="365.93" x2="763.01" y2="366.18"/><line class="cls-9" x1="762.76" y1="368.91" x2="763.01" y2="369.16"/><line class="cls-9" x1="762.76" y1="371.86" x2="763.01" y2="372.15"/><line class="cls-9" x1="762.76" y1="374.84" x2="763.01" y2="375.09"/><line class="cls-9" x1="762.76" y1="377.83" x2="763.01" y2="378.08"/><line class="cls-9" x1="762.76" y1="380.81" x2="763.01" y2="381.06"/><line class="cls-9" x1="762.76" y1="383.76" x2="763.01" y2="384.05"/><line class="cls-9" x1="762.76" y1="386.74" x2="763.01" y2="386.99"/><line class="cls-9" x1="762.76" y1="389.73" x2="763.01" y2="389.98"/><polyline class="cls-7" points="763.01 408.86 763.01 431.69 762.76 431.44 762.76 408.86"/><line class="cls-9" x1="762.76" y1="410.54" x2="763.01" y2="410.79"/><line class="cls-9" x1="762.76" y1="413.48" x2="763.01" y2="413.78"/><line class="cls-9" x1="762.76" y1="416.47" x2="763.01" y2="416.72"/><line class="cls-9" x1="762.76" y1="419.45" x2="763.01" y2="419.71"/><line class="cls-9" x1="762.76" y1="422.44" x2="763.01" y2="422.69"/><line class="cls-9" x1="762.76" y1="425.38" x2="763.01" y2="425.64"/><line class="cls-9" x1="762.76" y1="428.37" x2="763.01" y2="428.62"/><line class="cls-9" x1="762.76" y1="431.35" x2="763.01" y2="431.61"/><rect class="cls-10" x="760.66" y="394.71" width="1.85" height="36.37"/><rect class="cls-10" x="624" y="353.4" width="1.85" height="1.98"/><rect class="cls-10" x="624" y="370.89" width="1.85" height="58.45"/><rect class="cls-10" x="655.03" y="427.36" width="1.85" height="8.28"/><rect class="cls-10" x="655.03" y="351.55" width="1.85" height="60.34"/><rect class="cls-10" x="729.12" y="429.34" width="3.16" height="1.85"/><rect class="cls-10" x="727.31" y="327.66" width="1.81" height="84.22"/><rect class="cls-10" x="727.31" y="427.36" width="1.81" height="8.28"/><rect class="cls-10" x="647.42" y="327.66" width="79.89" height="1.81"/><rect class="cls-10" x="729.12" y="373.92" width="31.54" height="1.81"/><polyline class="cls-7" points="651.63 431.69 626.35 431.69 626.1 431.44 651.88 431.44"/><line class="cls-9" x1="628.33" y1="431.69" x2="628.58" y2="431.44"/><line class="cls-9" x1="631.27" y1="431.69" x2="631.57" y2="431.44"/><line class="cls-9" x1="634.26" y1="431.69" x2="634.51" y2="431.44"/><line class="cls-9" x1="637.24" y1="431.69" x2="637.5" y2="431.44"/><line class="cls-9" x1="640.23" y1="431.69" x2="640.48" y2="431.44"/><line class="cls-9" x1="643.17" y1="431.69" x2="643.47" y2="431.44"/><line class="cls-9" x1="646.16" y1="431.69" x2="646.41" y2="431.44"/><line class="cls-9" x1="649.14" y1="431.69" x2="649.4" y2="431.44"/><rect class="cls-10" x="625.85" y="429.34" width="26.28" height="1.85"/><rect class="cls-10" x="625.85" y="386.53" width="29.18" height="1.81"/><polyline class="cls-7" points="651.63 438 651.63 431.69 651.88 431.44 651.88 437.75"/><line class="cls-9" x1="651.63" y1="433.2" x2="651.88" y2="433.46"/><line class="cls-9" x1="651.63" y1="436.19" x2="651.88" y2="436.44"/><rect class="cls-10" x="652.13" y="429.34" width="1.85" height="8.16"/><polyline class="cls-7" points="734.63 438 724.66 438 724.66 437.75 734.38 437.75"/><line class="cls-9" x1="726.09" y1="438" x2="726.35" y2="437.75"/><line class="cls-9" x1="729.04" y1="438" x2="729.33" y2="437.75"/><line class="cls-9" x1="732.02" y1="438" x2="732.27" y2="437.75"/><rect class="cls-1" x="702.59" y="437.75" width="3.15" height="0.25"/><line class="cls-9" x1="705.28" y1="438" x2="705.53" y2="437.75"/><rect class="cls-1" x="680.51" y="437.75" width="3.15" height="0.25"/><line class="cls-9" x1="681.48" y1="438" x2="681.73" y2="437.75"/><polyline class="cls-7" points="661.59 438 651.63 438 651.88 437.75 661.59 437.75"/><line class="cls-9" x1="651.75" y1="438" x2="652" y2="437.75"/><line class="cls-9" x1="654.74" y1="438" x2="654.99" y2="437.75"/><line class="cls-9" x1="657.68" y1="438" x2="657.93" y2="437.75"/><line class="cls-9" x1="660.67" y1="438" x2="660.92" y2="437.75"/><rect class="cls-10" x="724.66" y="435.64" width="7.61" height="1.85"/><rect class="cls-10" x="702.59" y="435.64" width="3.15" height="1.85"/><rect class="cls-10" x="680.51" y="435.64" width="3.15" height="1.85"/><rect class="cls-10" x="653.98" y="435.64" width="7.61" height="1.85"/><rect class="cls-10" x="653.98" y="429.34" width="1.05" height="1.85"/><polyline class="cls-7" points="734.63 431.69 734.63 438 734.38 437.75 734.38 431.44"/><line class="cls-9" x1="734.38" y1="432.7" x2="734.63" y2="432.95"/><line class="cls-9" x1="734.38" y1="435.64" x2="734.63" y2="435.94"/><rect class="cls-10" x="732.27" y="429.34" width="1.85" height="8.16"/><rect class="cls-10" x="645.57" y="349.32" width="1.85" height="2.23"/><line class="cls-11" x1="623.87" y1="431.54" x2="624" y2="431.54"/><line class="cls-11" x1="624" y1="431.38" x2="623.87" y2="431.38"/><line class="cls-11" x1="625.85" y1="431.54" x2="625.85" y2="429.5"/><line class="cls-11" x1="624" y1="431.54" x2="625.85" y2="431.54"/><line class="cls-11" x1="624" y1="429.34" x2="624" y2="431.38"/><line class="cls-11" x1="734.12" y1="431.19" x2="760.66" y2="431.19"/><line class="cls-11" x1="760.66" y1="429.34" x2="734.12" y2="429.34"/><line class="cls-11" x1="762.51" y1="394.39" x2="762.51" y2="373.67"/><line class="cls-11" x1="762.51" y1="431.08" x2="762.51" y2="394.71"/><line class="cls-11" x1="760.66" y1="431.19" x2="762.51" y2="431.19"/><line class="cls-11" x1="760.66" y1="373.67" x2="760.66" y2="388.07"/><line class="cls-11" x1="760.66" y1="375.72" x2="760.66" y2="394.39"/><line class="cls-11" x1="760.66" y1="394.71" x2="760.66" y2="428.3"/><line class="cls-11" x1="625.85" y1="355.37" x2="625.85" y2="353.4"/><line class="cls-11" x1="625.85" y1="429.34" x2="625.85" y2="388.34"/><line class="cls-11" x1="625.85" y1="386.53" x2="625.85" y2="370.89"/><line class="cls-11" x1="625.85" y1="355.37" x2="624" y2="355.37"/><line class="cls-11" x1="625.85" y1="370.89" x2="624" y2="370.89"/><line class="cls-11" x1="624" y1="353.4" x2="624" y2="355.37"/><line class="cls-11" x1="624" y1="370.89" x2="624" y2="429.34"/><line class="cls-8" x1="626.1" y1="370.89" x2="626.1" y2="370.47"/><line class="cls-8" x1="626.1" y1="370.89" x2="623.87" y2="370.89"/><line class="cls-8" x1="626.1" y1="370.47" x2="623.87" y2="370.47"/><line class="cls-8" x1="626.1" y1="355.75" x2="626.1" y2="355.37"/><line class="cls-8" x1="626.1" y1="355.75" x2="623.87" y2="355.75"/><line class="cls-8" x1="626.1" y1="355.37" x2="623.87" y2="355.37"/><line class="cls-8" x1="626.1" y1="355.75" x2="640.82" y2="355.75"/><line class="cls-8" x1="626.1" y1="356.47" x2="640.82" y2="356.47"/><line class="cls-8" x1="640.82" y1="355.75" x2="640.82" y2="356.47"/><line class="cls-8" x1="626.1" y1="356.47" x2="626.1" y2="355.75"/><polyline class="cls-8" points="626.1 370.47 626.86 370.47 628.12 370.34 629.38 370.13"/><line class="cls-8" x1="629.38" y1="370.13" x2="630.6" y2="369.8"/><line class="cls-8" x1="630.6" y1="369.8" x2="631.78" y2="369.33"/><line class="cls-8" x1="631.78" y1="369.33" x2="632.91" y2="368.83"/><polyline class="cls-8" points="632.91 368.83 634.01 368.2 635.02 367.48 635.98 366.64 636.91 365.76 637.71 364.83 638.46 363.78 639.09 362.69 639.64 361.55"/><polyline class="cls-8" points="639.64 361.55 640.1 360.38 640.44 359.16"/><polyline class="cls-8" points="640.44 359.16 640.65 357.94 640.78 356.84 640.82 355.75"/><polyline class="cls-8" points="626.1 370.59 626.44 370.59 626.44 372.32"/><line class="cls-8" x1="626.1" y1="372.32" x2="626.44" y2="372.32"/><line class="cls-8" x1="626.1" y1="355.63" x2="626.44" y2="355.63"/><line class="cls-8" x1="626.44" y1="353.94" x2="626.44" y2="355.63"/><line class="cls-8" x1="626.1" y1="353.94" x2="626.44" y2="353.94"/><line class="cls-11" x1="655.03" y1="351.55" x2="647.42" y2="351.55"/><line class="cls-11" x1="645.57" y1="351.55" x2="623.87" y2="351.55"/><line class="cls-11" x1="623.87" y1="353.4" x2="624" y2="353.4"/><line class="cls-11" x1="625.85" y1="353.4" x2="655.03" y2="353.4"/><line class="cls-11" x1="655.03" y1="427.36" x2="655.03" y2="429.34"/><line class="cls-11" x1="655.03" y1="431.19" x2="655.03" y2="435.64"/><line class="cls-11" x1="655.03" y1="353.4" x2="655.03" y2="386.53"/><line class="cls-11" x1="655.03" y1="388.34" x2="655.03" y2="411.89"/><line class="cls-11" x1="655.03" y1="427.36" x2="656.88" y2="427.36"/><line class="cls-11" x1="655.03" y1="411.89" x2="656.88" y2="411.89"/><line class="cls-11" x1="656.88" y1="351.55" x2="655.03" y2="351.55"/><line class="cls-11" x1="656.88" y1="435.64" x2="656.88" y2="427.36"/><line class="cls-11" x1="656.88" y1="411.89" x2="656.88" y2="351.55"/><line class="cls-8" x1="654.78" y1="411.89" x2="654.78" y2="412.26"/><line class="cls-8" x1="657.13" y1="411.89" x2="657.13" y2="412.26"/><line class="cls-8" x1="654.78" y1="411.89" x2="657.13" y2="411.89"/><line class="cls-8" x1="654.78" y1="412.26" x2="657.13" y2="412.26"/><line class="cls-8" x1="654.78" y1="426.98" x2="654.78" y2="427.36"/><line class="cls-8" x1="657.13" y1="426.98" x2="657.13" y2="427.36"/><line class="cls-8" x1="654.78" y1="426.98" x2="657.13" y2="426.98"/><line class="cls-8" x1="654.78" y1="427.36" x2="657.13" y2="427.36"/><line class="cls-8" x1="654.78" y1="426.98" x2="640.06" y2="426.98"/><line class="cls-8" x1="654.78" y1="426.27" x2="640.06" y2="426.27"/><line class="cls-8" x1="640.06" y1="426.98" x2="640.06" y2="426.27"/><line class="cls-8" x1="654.78" y1="426.27" x2="654.78" y2="426.98"/><line class="cls-8" x1="654.78" y1="412.26" x2="654.06" y2="412.26"/><line class="cls-8" x1="654.06" y1="412.26" x2="652.8" y2="412.39"/><line class="cls-8" x1="652.8" y1="412.39" x2="651.54" y2="412.6"/><line class="cls-8" x1="651.54" y1="412.6" x2="650.32" y2="412.94"/><line class="cls-8" x1="650.32" y1="412.94" x2="649.14" y2="413.36"/><polyline class="cls-8" points="649.14 413.36 648.01 413.9 646.91 414.53 645.86 415.25"/><polyline class="cls-8" points="645.87 415.25 644.9 416.05 644.01 416.93 643.17 417.9"/><polyline class="cls-8" points="643.17 417.9 642.46 418.91 641.78 420 641.24 421.14 640.82 422.31 640.44 423.53"/><line class="cls-8" x1="640.44" y1="423.53" x2="640.23" y2="424.75"/><line class="cls-8" x1="640.23" y1="424.75" x2="640.1" y2="425.89"/><line class="cls-8" x1="640.1" y1="425.89" x2="640.06" y2="426.98"/><polyline class="cls-8" points="654.78 412.14 654.44 412.14 654.44 410.41"/><line class="cls-8" x1="654.78" y1="410.41" x2="654.44" y2="410.41"/><line class="cls-8" x1="654.78" y1="427.11" x2="654.44" y2="427.11"/><line class="cls-8" x1="654.44" y1="428.83" x2="654.44" y2="427.11"/><line class="cls-8" x1="654.78" y1="428.83" x2="654.44" y2="428.83"/><line class="cls-8" x1="657.13" y1="427.11" x2="657.47" y2="427.11"/><line class="cls-8" x1="657.47" y1="428.83" x2="657.47" y2="427.11"/><line class="cls-8" x1="657.13" y1="428.83" x2="657.47" y2="428.83"/><polyline class="cls-8" points="657.13 412.14 657.47 412.14 657.47 410.41"/><line class="cls-8" x1="657.13" y1="410.41" x2="657.47" y2="410.41"/><line class="cls-11" x1="729.12" y1="431.19" x2="732.27" y2="431.19"/><line class="cls-11" x1="732.27" y1="429.34" x2="729.12" y2="429.34"/><line class="cls-11" x1="729.12" y1="411.89" x2="729.12" y2="375.72"/><line class="cls-11" x1="729.12" y1="373.92" x2="729.12" y2="327.66"/><line class="cls-11" x1="729.12" y1="435.64" x2="729.12" y2="431.19"/><line class="cls-11" x1="729.12" y1="429.34" x2="729.12" y2="427.36"/><line class="cls-11" x1="729.12" y1="411.89" x2="727.31" y2="411.89"/><line class="cls-11" x1="729.12" y1="427.36" x2="727.31" y2="427.36"/><line class="cls-11" x1="729.12" y1="327.66" x2="727.31" y2="327.66"/><line class="cls-11" x1="727.31" y1="329.47" x2="727.31" y2="411.89"/><line class="cls-11" x1="727.31" y1="427.36" x2="727.31" y2="435.64"/><line class="cls-8" x1="729.41" y1="427.36" x2="729.41" y2="426.98"/><line class="cls-8" x1="727.02" y1="427.36" x2="727.02" y2="426.98"/><line class="cls-8" x1="729.41" y1="427.36" x2="727.02" y2="427.36"/><line class="cls-8" x1="729.41" y1="426.98" x2="727.02" y2="426.98"/><line class="cls-8" x1="729.41" y1="412.26" x2="729.41" y2="411.89"/><line class="cls-8" x1="727.02" y1="412.26" x2="727.02" y2="411.89"/><line class="cls-8" x1="729.41" y1="412.26" x2="727.02" y2="412.26"/><line class="cls-8" x1="729.41" y1="411.89" x2="727.02" y2="411.89"/><line class="cls-8" x1="729.41" y1="426.98" x2="744.13" y2="426.98"/><line class="cls-8" x1="729.41" y1="426.27" x2="744.13" y2="426.27"/><line class="cls-8" x1="744.13" y1="426.98" x2="744.13" y2="426.27"/><line class="cls-8" x1="729.41" y1="426.27" x2="729.41" y2="426.98"/><polyline class="cls-8" points="729.41 412.26 730.09 412.26 731.35 412.39 732.61 412.6 733.83 412.94"/><polyline class="cls-8" points="733.83 412.94 735.01 413.36 736.14 413.9 737.24 414.53 738.29 415.25"/><polyline class="cls-8" points="738.29 415.25 739.25 416.05 740.14 416.93 740.98 417.9"/><polyline class="cls-8" points="740.98 417.9 741.69 418.91 742.37 420 742.91 421.14"/><polyline class="cls-8" points="742.91 421.14 743.33 422.31 743.71 423.53"/><line class="cls-8" x1="743.71" y1="423.53" x2="743.96" y2="424.75"/><line class="cls-8" x1="743.96" y1="424.75" x2="744.09" y2="425.89"/><line class="cls-8" x1="744.09" y1="425.89" x2="744.13" y2="426.98"/><polyline class="cls-8" points="729.41 427.11 729.71 427.11 729.71 428.83"/><line class="cls-8" x1="729.41" y1="428.83" x2="729.71" y2="428.83"/><line class="cls-8" x1="729.41" y1="412.14" x2="729.71" y2="412.14"/><line class="cls-8" x1="729.71" y1="410.41" x2="729.71" y2="412.14"/><line class="cls-8" x1="729.41" y1="410.41" x2="729.71" y2="410.41"/><line class="cls-8" x1="727.02" y1="412.14" x2="726.72" y2="412.14"/><line class="cls-8" x1="726.72" y1="410.41" x2="726.72" y2="412.14"/><line class="cls-8" x1="727.02" y1="410.41" x2="726.72" y2="410.41"/><polyline class="cls-8" points="727.02 427.11 726.72 427.11 726.72 428.83"/><line class="cls-8" x1="727.02" y1="428.83" x2="726.72" y2="428.83"/><line class="cls-11" x1="647.42" y1="329.47" x2="727.31" y2="329.47"/><line class="cls-11" x1="727.31" y1="327.66" x2="704.94" y2="327.66"/><line class="cls-11" x1="703.13" y1="327.66" x2="647.42" y2="327.66"/><line class="cls-11" x1="729.12" y1="375.72" x2="760.66" y2="375.72"/><line class="cls-11" x1="760.66" y1="373.92" x2="729.12" y2="373.92"/><line class="cls-11" x1="625.85" y1="431.19" x2="652.13" y2="431.19"/><line class="cls-11" x1="652.13" y1="429.34" x2="625.85" y2="429.34"/><line class="cls-11" x1="625.85" y1="388.34" x2="655.03" y2="388.34"/><line class="cls-11" x1="655.03" y1="386.53" x2="625.85" y2="386.53"/><line class="cls-11" x1="652.13" y1="431.19" x2="652.13" y2="437.49"/><line class="cls-11" x1="652.13" y1="437.49" x2="653.98" y2="437.49"/><line class="cls-11" x1="653.98" y1="429.34" x2="652.13" y2="429.34"/><line class="cls-11" x1="653.98" y1="435.64" x2="653.98" y2="431.19"/><line class="cls-11" x1="724.66" y1="437.49" x2="732.27" y2="437.49"/><line class="cls-11" x1="702.59" y1="437.49" x2="705.74" y2="437.49"/><line class="cls-11" x1="680.51" y1="437.49" x2="683.67" y2="437.49"/><line class="cls-11" x1="653.98" y1="437.49" x2="661.59" y2="437.49"/><line class="cls-11" x1="724.66" y1="437.49" x2="724.66" y2="435.64"/><line class="cls-11" x1="661.59" y1="437.49" x2="661.59" y2="435.64"/><line class="cls-11" x1="732.27" y1="435.64" x2="729.12" y2="435.64"/><line class="cls-11" x1="727.31" y1="435.64" x2="724.66" y2="435.64"/><line class="cls-11" x1="705.74" y1="435.64" x2="702.59" y2="435.64"/><line class="cls-11" x1="683.67" y1="435.64" x2="680.51" y2="435.64"/><line class="cls-11" x1="661.59" y1="435.64" x2="656.88" y2="435.64"/><line class="cls-11" x1="655.03" y1="435.64" x2="653.98" y2="435.64"/><line class="cls-8" x1="705.74" y1="438.12" x2="705.74" y2="435.26"/><line class="cls-8" x1="705.74" y1="438" x2="706.12" y2="438"/><line class="cls-8" x1="705.74" y1="435.39" x2="706.12" y2="435.39"/><line class="cls-8" x1="705.74" y1="438" x2="705.74" y2="435.39"/><line class="cls-8" x1="706.12" y1="438" x2="706.12" y2="435.39"/><line class="cls-8" x1="724.28" y1="438" x2="724.66" y2="438"/><line class="cls-8" x1="724.28" y1="435.39" x2="724.66" y2="435.39"/><line class="cls-8" x1="724.28" y1="438" x2="724.28" y2="435.39"/><line class="cls-8" x1="724.66" y1="438" x2="724.66" y2="435.39"/><line class="cls-8" x1="706.12" y1="437.37" x2="724.28" y2="437.37"/><line class="cls-8" x1="706.12" y1="436.95" x2="724.28" y2="436.95"/><line class="cls-8" x1="702.59" y1="438.12" x2="702.59" y2="435.26"/><line class="cls-8" x1="683.67" y1="438.12" x2="683.67" y2="435.26"/><line class="cls-8" x1="702.59" y1="438.12" x2="705.74" y2="438.12"/><line class="cls-8" x1="702.59" y1="435.26" x2="705.74" y2="435.26"/><line class="cls-8" x1="683.67" y1="438" x2="684.05" y2="438"/><line class="cls-8" x1="683.67" y1="435.39" x2="684.05" y2="435.39"/><line class="cls-8" x1="683.67" y1="438" x2="683.67" y2="435.39"/><line class="cls-8" x1="684.04" y1="438" x2="684.04" y2="435.39"/><line class="cls-8" x1="702.21" y1="438" x2="702.59" y2="438"/><line class="cls-8" x1="702.21" y1="435.39" x2="702.59" y2="435.39"/><line class="cls-8" x1="702.21" y1="438" x2="702.21" y2="435.39"/><line class="cls-8" x1="702.59" y1="438" x2="702.59" y2="435.39"/><line class="cls-8" x1="684.04" y1="437.37" x2="702.21" y2="437.37"/><line class="cls-8" x1="684.04" y1="436.95" x2="702.21" y2="436.95"/><line class="cls-8" x1="680.51" y1="438.12" x2="680.51" y2="435.26"/><line class="cls-8" x1="680.51" y1="438.12" x2="683.67" y2="438.12"/><line class="cls-8" x1="680.51" y1="435.26" x2="683.67" y2="435.26"/><line class="cls-8" x1="661.59" y1="438" x2="661.97" y2="438"/><line class="cls-8" x1="661.59" y1="435.39" x2="661.97" y2="435.39"/><line class="cls-8" x1="661.59" y1="438" x2="661.59" y2="435.39"/><line class="cls-8" x1="661.97" y1="438" x2="661.97" y2="435.39"/><line class="cls-8" x1="680.13" y1="438" x2="680.51" y2="438"/><line class="cls-8" x1="680.13" y1="435.39" x2="680.51" y2="435.39"/><line class="cls-8" x1="680.13" y1="438" x2="680.13" y2="435.39"/><line class="cls-8" x1="680.51" y1="438" x2="680.51" y2="435.39"/><line class="cls-8" x1="661.97" y1="437.37" x2="680.13" y2="437.37"/><line class="cls-8" x1="661.97" y1="436.95" x2="680.13" y2="436.95"/><polyline class="cls-8" points="727.82 438 727.82 439.55 658.44 439.55"/><line class="cls-8" x1="658.44" y1="438" x2="658.44" y2="439.55"/><line class="cls-8" x1="661.59" y1="438" x2="661.59" y2="439.05"/><line class="cls-8" x1="661.59" y1="439.05" x2="658.44" y2="439.05"/><line class="cls-8" x1="658.44" y1="438" x2="658.44" y2="439.05"/><line class="cls-8" x1="724.66" y1="438" x2="724.66" y2="439.05"/><line class="cls-8" x1="727.82" y1="439.05" x2="724.66" y2="439.05"/><line class="cls-8" x1="727.82" y1="438" x2="727.82" y2="439.05"/><line class="cls-8" x1="659.95" y1="435.39" x2="659.95" y2="434.55"/><line class="cls-8" x1="726.3" y1="434.55" x2="659.95" y2="434.55"/><line class="cls-8" x1="726.3" y1="435.39" x2="726.3" y2="434.55"/><line class="cls-8" x1="724.33" y1="435.39" x2="724.33" y2="435.05"/><line class="cls-8" x1="726.05" y1="435.05" x2="724.33" y2="435.05"/><line class="cls-8" x1="726.05" y1="435.39" x2="726.05" y2="435.05"/><line class="cls-8" x1="726.05" y1="435.39" x2="724.33" y2="435.39"/><polyline class="cls-8" points="661.93 435.39 661.93 435.05 660.2 435.05"/><line class="cls-8" x1="660.2" y1="435.39" x2="660.2" y2="435.05"/><line class="cls-8" x1="661.93" y1="435.39" x2="660.2" y2="435.39"/><line class="cls-11" x1="653.98" y1="431.19" x2="655.03" y2="431.19"/><line class="cls-11" x1="655.03" y1="429.34" x2="653.98" y2="429.34"/><line class="cls-11" x1="734.12" y1="437.49" x2="734.12" y2="431.19"/><line class="cls-11" x1="734.12" y1="429.34" x2="732.27" y2="429.34"/><line class="cls-11" x1="732.27" y1="437.49" x2="734.12" y2="437.49"/><line class="cls-11" x1="732.27" y1="431.19" x2="732.27" y2="435.64"/><line class="cls-11" x1="704.94" y1="327.66" x2="704.94" y2="327.33"/><line class="cls-11" x1="703.13" y1="327.33" x2="703.13" y2="327.66"/><line class="cls-11" x1="647.42" y1="331.7" x2="647.42" y2="329.47"/><line class="cls-11" x1="647.42" y1="327.66" x2="647.42" y2="327.33"/><line class="cls-11" x1="647.42" y1="351.55" x2="647.42" y2="349.32"/><line class="cls-11" x1="647.42" y1="331.7" x2="645.57" y2="331.7"/><line class="cls-11" x1="647.42" y1="349.32" x2="645.57" y2="349.32"/><line class="cls-11" x1="645.57" y1="327.33" x2="645.57" y2="331.7"/><line class="cls-11" x1="645.57" y1="349.32" x2="645.57" y2="351.55"/><line class="cls-8" x1="647.67" y1="349.32" x2="647.67" y2="348.94"/><line class="cls-8" x1="645.32" y1="349.32" x2="645.32" y2="348.94"/><line class="cls-8" x1="647.67" y1="349.32" x2="645.32" y2="349.32"/><line class="cls-8" x1="647.67" y1="348.94" x2="645.32" y2="348.94"/><line class="cls-8" x1="647.67" y1="332.12" x2="647.67" y2="331.7"/><line class="cls-8" x1="645.32" y1="332.12" x2="645.32" y2="331.7"/><line class="cls-8" x1="647.67" y1="332.12" x2="645.32" y2="332.12"/><line class="cls-8" x1="647.67" y1="331.7" x2="645.32" y2="331.7"/><line class="cls-8" x1="647.67" y1="332.12" x2="664.49" y2="332.12"/><line class="cls-8" x1="647.67" y1="332.83" x2="664.49" y2="332.83"/><line class="cls-8" x1="664.49" y1="332.12" x2="664.49" y2="332.83"/><line class="cls-8" x1="647.67" y1="332.83" x2="647.67" y2="332.12"/><polyline class="cls-8" points="647.67 348.94 648.22 348.94 649.48 348.81 650.74 348.64 651.96 348.39 653.14 348.01 654.32 347.55"/><polyline class="cls-8" points="654.32 347.55 655.49 347 656.59 346.38"/><polyline class="cls-8" points="656.59 346.37 657.6 345.66 658.61 344.9"/><polyline class="cls-8" points="658.61 344.9 659.53 344.02 660.37 343.09 661.17 342.13 661.88 341.08 662.51 339.98"/><polyline class="cls-8" points="662.52 339.98 663.06 338.85 663.52 337.67 663.9 336.49"/><polyline class="cls-8" points="663.9 336.49 664.2 335.27 664.37 334.01 664.49 332.75"/><line class="cls-8" x1="664.49" y1="332.75" x2="664.49" y2="332.12"/><line class="cls-8" x1="647.67" y1="349.07" x2="648.01" y2="349.07"/><line class="cls-8" x1="648.01" y1="349.07" x2="648.01" y2="350.79"/><line class="cls-8" x1="647.67" y1="350.79" x2="648.01" y2="350.79"/><line class="cls-8" x1="647.67" y1="331.99" x2="648.01" y2="331.99"/><line class="cls-8" x1="648.01" y1="330.27" x2="648.01" y2="331.99"/><line class="cls-8" x1="647.67" y1="330.27" x2="648.01" y2="330.27"/><line class="cls-8" x1="645.32" y1="331.99" x2="644.98" y2="331.99"/><line class="cls-8" x1="644.98" y1="330.27" x2="644.98" y2="331.99"/><line class="cls-8" x1="645.32" y1="330.27" x2="644.98" y2="330.27"/><line class="cls-8" x1="645.32" y1="349.07" x2="644.98" y2="349.07"/><line class="cls-8" x1="644.98" y1="349.07" x2="644.98" y2="350.79"/><line class="cls-8" x1="645.32" y1="350.79" x2="644.98" y2="350.79"/><line class="cls-8" x1="652.17" y1="433.29" x2="652.17" y2="436.44"/><text class="cls-12" transform="translate(687.57 391.61)"><tspan class="cls-13">11</tspan><tspan class="cls-14" x="7.18" y="0">&apos;</tspan><tspan class="cls-15" x="8.42" y="0">-</tspan><tspan class="cls-13" x="10.58" y="0">4</tspan><tspan class="cls-15" x="14.17" y="0">&quot;</tspan><tspan class="cls-16" x="16.17" y="0"> </tspan><tspan class="cls-13" x="17.94" y="0">X</tspan><tspan class="cls-17" x="21.88" y="0"> </tspan><tspan class="cls-18" x="23.72" y="0">1</tspan><tspan class="cls-19" x="27.24" y="0">6</tspan><tspan class="cls-20" x="30.84" y="0">&apos;</tspan><tspan class="cls-13" x="32.16" y="0">-</tspan><tspan class="cls-21" x="34.3" y="0">7</tspan><tspan x="37.82" y="0">&quot;</tspan></text><text class="cls-12" transform="translate(626.17 407.08)">CL<tspan class="cls-17" x="8.29" y="0">O</tspan><tspan x="13.98" y="0">SE</tspan><tspan class="cls-14" x="20.7" y="0">T</tspan><tspan x="23.43" y="0" xml:space="preserve"> 2</tspan></text><text class="cls-12" transform="translate(697.91 385.06)"><tspan class="cls-22">B</tspan><tspan class="cls-15" x="3.75" y="0">E</tspan><tspan class="cls-22" x="7.23" y="0">D</tspan><tspan x="12.09" y="0" xml:space="preserve"> 2</tspan></text><text class="cls-12" transform="translate(730.32 409.4)"><tspan class="cls-23">B</tspan><tspan class="cls-24" x="3.76" y="0">A</tspan><tspan class="cls-23" x="8.57" y="0">T</tspan><tspan class="cls-25" x="11.36" y="0">H</tspan><tspan x="17.63" y="0">2</tspan></text><rect class="cls-10" x="645.57" y="327.18" width="1.85" height="4.52"/><rect class="cls-10" x="703.13" y="327.18" width="1.81" height="0.49"/><rect class="cls-10" x="760.66" y="373.62" width="1.85" height="20.77"/><rect class="cls-10" x="623.03" y="351.55" width="32" height="1.85"/><text class="cls-12" transform="translate(625.78 376.14)">CL<tspan class="cls-17" x="8.29" y="0">O</tspan><tspan x="13.98" y="0">SE</tspan><tspan class="cls-26" x="20.7" y="0">T</tspan><tspan class="cls-24" x="25.23" y="0">3</tspan></text></g></svg>