<svg id="图层_1" data-name="图层 1" xmlns="http://www.w3.org/2000/svg" viewBox="0 0 1152 576"><defs><style>.cls-1{font-size:6.6px;fill:#0f5a83;font-family:CenturyGothic, Century Gothic;}.cls-2,.cls-3,.cls-4,.cls-5{fill:none;stroke:#0f5a83;stroke-linecap:round;stroke-linejoin:bevel;stroke-width:0.24px;}.cls-3{stroke-dasharray:13.14 3.87;}.cls-4{stroke-dasharray:13.16 3.87;}.cls-5{stroke-dasharray:11.35 3.34;}</style></defs><title>COFFER ceiling at family-2</title><g id="COFFER_ceiling_at_family-2" data-name="COFFER ceiling at family-2"><text class="cls-1" transform="translate(508.16 289.7)">OPT</text><text class="cls-1" transform="translate(508.16 296.51)">COFFER</text><line class="cls-2" x1="567.99" y1="180.38" x2="567.99" y2="183.37"/><line class="cls-2" x1="567.99" y1="186.69" x2="567.99" y2="199.99"/><line class="cls-2" x1="567.99" y1="203.31" x2="567.99" y2="209.96"/><line class="cls-2" x1="567.99" y1="213.28" x2="567.99" y2="226.57"/><line class="cls-2" x1="567.99" y1="229.9" x2="567.99" y2="236.54"/><line class="cls-2" x1="567.99" y1="239.87" x2="567.99" y2="253.16"/><line class="cls-2" x1="567.99" y1="256.48" x2="567.99" y2="263.13"/><line class="cls-2" x1="567.99" y1="266.45" x2="567.99" y2="279.75"/><line class="cls-2" x1="567.99" y1="283.07" x2="567.99" y2="298.64"/><line class="cls-2" x1="571.12" y1="180.38" x2="571.12" y2="183.37"/><line class="cls-2" x1="571.12" y1="186.69" x2="571.12" y2="199.99"/><line class="cls-2" x1="571.12" y1="203.31" x2="571.12" y2="209.96"/><line class="cls-2" x1="571.12" y1="213.28" x2="571.12" y2="226.57"/><line class="cls-2" x1="571.12" y1="229.9" x2="571.12" y2="236.54"/><line class="cls-2" x1="571.12" y1="239.87" x2="571.12" y2="253.16"/><line class="cls-2" x1="571.12" y1="256.48" x2="571.12" y2="263.13"/><line class="cls-2" x1="571.12" y1="266.45" x2="571.12" y2="279.75"/><line class="cls-2" x1="571.12" y1="283.07" x2="571.12" y2="298.64"/><line class="cls-2" x1="534.17" y1="180.38" x2="534.17" y2="187.69"/><line class="cls-2" x1="534.17" y1="186.69" x2="534.17" y2="199.99"/><line class="cls-2" x1="534.17" y1="203.31" x2="534.17" y2="209.96"/><line class="cls-2" x1="534.17" y1="213.28" x2="534.17" y2="226.57"/><line class="cls-2" x1="534.17" y1="229.9" x2="534.17" y2="236.54"/><line class="cls-2" x1="534.17" y1="239.87" x2="534.17" y2="253.16"/><line class="cls-2" x1="534.17" y1="256.48" x2="534.17" y2="263.13"/><line class="cls-2" x1="534.17" y1="266.45" x2="534.17" y2="279.75"/><line class="cls-2" x1="534.17" y1="283.07" x2="534.17" y2="298.07"/><line class="cls-2" x1="537.35" y1="180.38" x2="537.35" y2="187.69"/><line class="cls-2" x1="537.35" y1="186.69" x2="537.35" y2="199.99"/><line class="cls-2" x1="537.35" y1="203.31" x2="537.35" y2="209.96"/><line class="cls-2" x1="537.35" y1="213.28" x2="537.35" y2="226.57"/><line class="cls-2" x1="537.35" y1="229.9" x2="537.35" y2="236.54"/><line class="cls-2" x1="537.35" y1="239.87" x2="537.35" y2="253.16"/><line class="cls-2" x1="537.35" y1="256.48" x2="537.35" y2="263.13"/><line class="cls-2" x1="537.35" y1="266.45" x2="537.35" y2="279.75"/><line class="cls-2" x1="537.35" y1="283.07" x2="537.35" y2="298.07"/><line class="cls-2" x1="504.71" y1="260.77" x2="518.01" y2="260.77"/><line class="cls-2" x1="521.33" y1="260.77" x2="527.98" y2="260.77"/><line class="cls-2" x1="531.3" y1="260.77" x2="544.59" y2="260.77"/><line class="cls-2" x1="547.92" y1="260.77" x2="554.56" y2="260.77"/><line class="cls-2" x1="557.89" y1="260.77" x2="571.18" y2="260.77"/><line class="cls-2" x1="574.5" y1="260.77" x2="581.15" y2="260.77"/><line class="cls-2" x1="584.47" y1="260.77" x2="597.77" y2="260.77"/><line class="cls-2" x1="504.71" y1="257.59" x2="518.01" y2="257.59"/><line class="cls-2" x1="521.33" y1="257.59" x2="527.98" y2="257.59"/><line class="cls-2" x1="531.3" y1="257.59" x2="544.59" y2="257.59"/><line class="cls-2" x1="547.92" y1="257.59" x2="554.56" y2="257.59"/><line class="cls-2" x1="557.89" y1="257.59" x2="571.18" y2="257.59"/><line class="cls-2" x1="574.5" y1="257.59" x2="581.15" y2="257.59"/><line class="cls-2" x1="584.47" y1="257.59" x2="597.77" y2="257.59"/><line class="cls-2" x1="504.71" y1="220.83" x2="518.01" y2="220.83"/><line class="cls-2" x1="521.33" y1="220.83" x2="527.98" y2="220.83"/><line class="cls-2" x1="531.3" y1="220.83" x2="544.59" y2="220.83"/><line class="cls-2" x1="547.92" y1="220.83" x2="554.56" y2="220.83"/><line class="cls-2" x1="557.89" y1="220.83" x2="571.18" y2="220.83"/><line class="cls-2" x1="574.5" y1="220.83" x2="581.15" y2="220.83"/><line class="cls-2" x1="584.47" y1="220.83" x2="597.77" y2="220.83"/><line class="cls-2" x1="504.71" y1="217.69" x2="518.01" y2="217.69"/><line class="cls-2" x1="521.33" y1="217.69" x2="527.98" y2="217.69"/><line class="cls-2" x1="531.3" y1="217.69" x2="544.59" y2="217.69"/><line class="cls-2" x1="547.92" y1="217.69" x2="554.56" y2="217.69"/><line class="cls-2" x1="557.89" y1="217.69" x2="571.18" y2="217.69"/><line class="cls-2" x1="574.5" y1="217.69" x2="581.15" y2="217.69"/><line class="cls-2" x1="584.47" y1="217.69" x2="597.77" y2="217.69"/><line class="cls-2" x1="599.26" y1="214.11" x2="599.26" y2="217.25"/><polyline class="cls-2" points="504.71 292.52 504.71 298.64 500.2 298.64 500.2 292.52"/><line class="cls-3" x1="500.2" y1="288.66" x2="500.2" y2="188.55"/><polyline class="cls-2" points="500.2 186.62 500.2 180.5 504.71 180.5 504.71 186.62"/><line class="cls-3" x1="504.71" y1="190.49" x2="504.71" y2="290.59"/><polyline class="cls-2" points="603.77 292.52 603.77 298.64 599.26 298.64 599.26 292.52"/><line class="cls-4" x1="599.26" y1="288.65" x2="599.26" y2="188.44"/><polyline class="cls-2" points="599.26 186.5 599.26 180.38 603.77 180.38 603.77 186.5"/><line class="cls-4" x1="603.77" y1="190.37" x2="603.77" y2="290.59"/><polyline class="cls-2" points="506.16 303.15 500.04 303.15 500.04 298.64 506.16 298.64"/><line class="cls-5" x1="509.5" y1="298.64" x2="595.98" y2="298.64"/><polyline class="cls-2" points="597.65 298.64 603.77 298.64 603.77 303.15 597.65 303.15"/><line class="cls-5" x1="594.31" y1="303.15" x2="507.83" y2="303.15"/><polyline class="cls-2" points="506.16 180.38 500.04 180.38 500.04 175.88 506.16 175.88"/><line class="cls-5" x1="509.5" y1="175.87" x2="595.98" y2="175.87"/><polyline class="cls-2" points="597.65 175.88 603.77 175.88 603.77 180.38 597.65 180.38"/><line class="cls-5" x1="594.31" y1="180.38" x2="507.83" y2="180.38"/></g></svg>