<svg id="图层_1" data-name="图层 1" xmlns="http://www.w3.org/2000/svg" viewBox="0 0 1152 576"><defs><style>.cls-1{font-size:6.6px;fill:#0f5a83;font-family:CenturyGothic, Century Gothic;}.cls-2,.cls-3,.cls-4,.cls-5{fill:none;stroke:#0f5a83;stroke-linecap:round;stroke-linejoin:bevel;stroke-width:0.24px;}.cls-3{stroke-dasharray:11.61 3.41;}.cls-4{stroke-dasharray:12.18 3.58;}.cls-5{stroke-dasharray:11.35 3.34;}</style></defs><title>COFFER ceiling at family</title><g id="COFFER_ceiling_at_family" data-name="COFFER ceiling at family"><text class="cls-1" transform="translate(508.16 289.83)">OPT</text><text class="cls-1" transform="translate(508.16 295.08)">COFFER</text><line class="cls-2" x1="567.99" y1="192.02" x2="567.99" y2="195.01"/><line class="cls-2" x1="567.99" y1="198.33" x2="567.99" y2="211.63"/><line class="cls-2" x1="567.99" y1="214.95" x2="567.99" y2="221.6"/><line class="cls-2" x1="567.99" y1="224.92" x2="567.99" y2="238.22"/><line class="cls-2" x1="567.99" y1="241.54" x2="567.99" y2="248.18"/><line class="cls-2" x1="567.99" y1="251.51" x2="567.99" y2="264.8"/><line class="cls-2" x1="567.99" y1="268.13" x2="567.99" y2="274.77"/><line class="cls-2" x1="567.99" y1="278.1" x2="567.99" y2="291.39"/><line class="cls-2" x1="567.99" y1="294.71" x2="567.99" y2="298.04"/><line class="cls-2" x1="571.12" y1="192.02" x2="571.12" y2="195.01"/><line class="cls-2" x1="571.12" y1="198.33" x2="571.12" y2="211.63"/><line class="cls-2" x1="571.12" y1="214.95" x2="571.12" y2="221.6"/><line class="cls-2" x1="571.12" y1="224.92" x2="571.12" y2="238.22"/><line class="cls-2" x1="571.12" y1="241.54" x2="571.12" y2="248.18"/><line class="cls-2" x1="571.12" y1="251.51" x2="571.12" y2="264.8"/><line class="cls-2" x1="571.12" y1="268.13" x2="571.12" y2="274.77"/><line class="cls-2" x1="571.12" y1="278.1" x2="571.12" y2="291.39"/><line class="cls-2" x1="571.12" y1="294.71" x2="571.12" y2="298.04"/><line class="cls-2" x1="534.17" y1="192.02" x2="534.17" y2="199.33"/><line class="cls-2" x1="534.17" y1="198.33" x2="534.17" y2="211.63"/><line class="cls-2" x1="534.17" y1="214.95" x2="534.17" y2="221.6"/><line class="cls-2" x1="534.17" y1="224.92" x2="534.17" y2="238.22"/><line class="cls-2" x1="534.17" y1="241.54" x2="534.17" y2="248.18"/><line class="cls-2" x1="534.17" y1="251.51" x2="534.17" y2="264.8"/><line class="cls-2" x1="534.17" y1="268.13" x2="534.17" y2="274.77"/><line class="cls-2" x1="534.17" y1="278.1" x2="534.17" y2="291.39"/><line class="cls-2" x1="534.17" y1="294.71" x2="534.17" y2="297.91"/><line class="cls-2" x1="537.35" y1="192.02" x2="537.35" y2="199.33"/><line class="cls-2" x1="537.35" y1="198.33" x2="537.35" y2="211.63"/><line class="cls-2" x1="537.35" y1="214.95" x2="537.35" y2="221.6"/><line class="cls-2" x1="537.35" y1="224.92" x2="537.35" y2="238.22"/><line class="cls-2" x1="537.35" y1="241.54" x2="537.35" y2="248.18"/><line class="cls-2" x1="537.35" y1="251.51" x2="537.35" y2="264.8"/><line class="cls-2" x1="537.35" y1="268.13" x2="537.35" y2="274.77"/><line class="cls-2" x1="537.35" y1="278.1" x2="537.35" y2="291.39"/><line class="cls-2" x1="537.35" y1="294.71" x2="537.35" y2="297.91"/><line class="cls-2" x1="504.71" y1="269.88" x2="518.01" y2="269.88"/><line class="cls-2" x1="521.33" y1="269.88" x2="527.98" y2="269.88"/><line class="cls-2" x1="531.3" y1="269.88" x2="544.59" y2="269.88"/><line class="cls-2" x1="547.92" y1="269.88" x2="554.56" y2="269.88"/><line class="cls-2" x1="557.89" y1="269.88" x2="571.18" y2="269.88"/><line class="cls-2" x1="574.5" y1="269.88" x2="581.15" y2="269.88"/><line class="cls-2" x1="584.47" y1="269.88" x2="597.77" y2="269.88"/><line class="cls-2" x1="504.71" y1="266.69" x2="518.01" y2="266.69"/><line class="cls-2" x1="521.33" y1="266.69" x2="527.98" y2="266.69"/><line class="cls-2" x1="531.3" y1="266.69" x2="544.59" y2="266.69"/><line class="cls-2" x1="547.92" y1="266.69" x2="554.56" y2="266.69"/><line class="cls-2" x1="557.89" y1="266.69" x2="571.18" y2="266.69"/><line class="cls-2" x1="574.5" y1="266.69" x2="581.15" y2="266.69"/><line class="cls-2" x1="584.47" y1="266.69" x2="597.77" y2="266.69"/><line class="cls-2" x1="504.71" y1="228.61" x2="518.01" y2="228.61"/><line class="cls-2" x1="521.33" y1="228.61" x2="527.98" y2="228.61"/><line class="cls-2" x1="531.3" y1="228.61" x2="544.59" y2="228.61"/><line class="cls-2" x1="547.92" y1="228.61" x2="554.56" y2="228.61"/><line class="cls-2" x1="557.89" y1="228.61" x2="571.18" y2="228.61"/><line class="cls-2" x1="574.5" y1="228.61" x2="581.15" y2="228.61"/><line class="cls-2" x1="584.47" y1="228.61" x2="597.77" y2="228.61"/><line class="cls-2" x1="504.71" y1="225.47" x2="518.01" y2="225.47"/><line class="cls-2" x1="521.33" y1="225.47" x2="527.98" y2="225.47"/><line class="cls-2" x1="531.3" y1="225.47" x2="544.59" y2="225.47"/><line class="cls-2" x1="547.92" y1="225.47" x2="554.56" y2="225.47"/><line class="cls-2" x1="557.89" y1="225.47" x2="571.18" y2="225.47"/><line class="cls-2" x1="574.5" y1="225.47" x2="581.15" y2="225.47"/><line class="cls-2" x1="584.47" y1="225.47" x2="597.77" y2="225.47"/><line class="cls-2" x1="599.26" y1="225.75" x2="599.26" y2="228.89"/><polyline class="cls-2" points="504.71 291.79 504.71 297.91 500.2 297.91 500.2 291.79"/><line class="cls-3" x1="500.2" y1="288.38" x2="500.2" y2="199.97"/><polyline class="cls-2" points="500.2 198.26 500.2 192.14 504.71 192.14 504.71 198.26"/><line class="cls-3" x1="504.71" y1="201.67" x2="504.71" y2="290.09"/><polyline class="cls-2" points="603.77 296.3 603.77 302.42 599.26 302.42 599.26 296.3"/><line class="cls-4" x1="599.26" y1="292.72" x2="599.26" y2="199.94"/><polyline class="cls-2" points="599.26 198.15 599.26 192.03 603.77 192.03 603.77 198.15"/><line class="cls-4" x1="603.77" y1="201.73" x2="603.77" y2="294.51"/><polyline class="cls-2" points="506.16 302.42 500.04 302.42 500.04 297.91 506.16 297.91"/><line class="cls-5" x1="509.5" y1="297.91" x2="595.98" y2="297.91"/><polyline class="cls-2" points="597.65 297.91 603.77 297.91 603.77 302.42 597.65 302.42"/><line class="cls-5" x1="594.31" y1="302.42" x2="507.83" y2="302.42"/><polyline class="cls-2" points="506.16 192.03 500.04 192.03 500.04 187.52 506.16 187.52"/><line class="cls-5" x1="509.5" y1="187.52" x2="595.98" y2="187.52"/><polyline class="cls-2" points="597.65 187.52 603.77 187.52 603.77 192.03 597.65 192.03"/><line class="cls-5" x1="594.31" y1="192.02" x2="507.83" y2="192.02"/></g></svg>