<svg id="图层_1" data-name="图层 1" xmlns="http://www.w3.org/2000/svg" viewBox="0 0 1152 576"><defs><style>.cls-1,.cls-29,.cls-30,.cls-5{font-size:6.5px;font-family:CenturyGothic, Century Gothic;}.cls-1,.cls-10,.cls-5{fill:#0f577e;}.cls-2,.cls-28{fill:#fff;}.cls-3,.cls-4,.cls-7,.cls-8,.cls-9{fill:none;stroke:#0f577e;}.cls-3,.cls-4,.cls-8,.cls-9{stroke-linecap:round;stroke-linejoin:bevel;}.cls-3{stroke-width:0.93px;}.cls-4{stroke-width:0.46px;}.cls-5{letter-spacing:0em;}.cls-6{letter-spacing:0em;}.cls-7{stroke-miterlimit:10;stroke-dasharray:0.97 0.97;}.cls-7,.cls-9{stroke-width:0.24px;}.cls-8{stroke-width:0.69px;}.cls-11{letter-spacing:0em;}.cls-12{letter-spacing:-0.01em;}.cls-13{letter-spacing:0em;}.cls-14{letter-spacing:0em;}.cls-15{letter-spacing:-0.01em;}.cls-16{letter-spacing:0.01em;}.cls-17{letter-spacing:-0.01em;}.cls-18{letter-spacing:0.01em;}.cls-19{letter-spacing:-0.01em;}.cls-20{letter-spacing:0em;}.cls-21{letter-spacing:0em;}.cls-22{letter-spacing:0em;}.cls-23{letter-spacing:0em;}.cls-24{letter-spacing:0.09em;}.cls-25{letter-spacing:-0.07em;}.cls-26{letter-spacing:0.17em;}.cls-27{letter-spacing:0.04em;}.cls-28{fill-rule:evenodd;}.cls-29,.cls-30{fill:#0e5579;}.cls-30{letter-spacing:-0.09em;}.cls-31{letter-spacing:0.07em;}.cls-32{letter-spacing:0.01em;}.cls-33{letter-spacing:-0.02em;}</style></defs><title>optional finished basement</title><g id="optional_finished_basement" data-name="optional finished basement"><g id="OPT_REC_WINDOW" data-name="OPT  REC WINDOW"><text class="cls-1" transform="translate(406.14 250.83) rotate(-90)"><tspan xml:space="preserve"> WINDOW</tspan></text><rect class="cls-2" x="410.34" y="217.74" width="8.44" height="50.86"/><line class="cls-3" x1="411.27" y1="268.6" x2="415.51" y2="268.6"/><line class="cls-3" x1="411.27" y1="217.74" x2="415.51" y2="217.74"/><line class="cls-4" x1="411.15" y1="251.64" x2="415.64" y2="251.64"/><line class="cls-4" x1="411.27" y1="251.64" x2="411.27" y2="252.03"/><line class="cls-4" x1="415.51" y1="251.64" x2="415.51" y2="252.03"/><line class="cls-4" x1="411.27" y1="251.64" x2="415.51" y2="251.64"/><line class="cls-4" x1="411.27" y1="252.03" x2="415.51" y2="252.03"/><line class="cls-4" x1="411.27" y1="268.22" x2="411.27" y2="268.6"/><line class="cls-4" x1="415.51" y1="268.22" x2="415.51" y2="268.6"/><line class="cls-4" x1="411.27" y1="268.22" x2="415.51" y2="268.22"/><line class="cls-4" x1="411.27" y1="268.6" x2="415.51" y2="268.6"/><line class="cls-4" x1="411.95" y1="252.03" x2="411.95" y2="268.22"/><line class="cls-4" x1="412.38" y1="252.03" x2="412.38" y2="268.22"/><line class="cls-4" x1="411.15" y1="251.64" x2="415.64" y2="251.64"/><line class="cls-4" x1="411.15" y1="234.69" x2="415.64" y2="234.69"/><line class="cls-4" x1="411.15" y1="251.64" x2="411.15" y2="251.64"/><line class="cls-4" x1="415.64" y1="251.64" x2="415.64" y2="251.64"/><line class="cls-4" x1="411.27" y1="234.69" x2="411.27" y2="235.07"/><line class="cls-4" x1="415.51" y1="234.69" x2="415.51" y2="235.07"/><line class="cls-4" x1="411.27" y1="234.69" x2="415.51" y2="234.69"/><line class="cls-4" x1="411.27" y1="235.07" x2="415.51" y2="235.07"/><line class="cls-4" x1="411.27" y1="251.26" x2="411.27" y2="251.64"/><line class="cls-4" x1="415.51" y1="251.26" x2="415.51" y2="251.64"/><line class="cls-4" x1="411.27" y1="251.26" x2="415.51" y2="251.26"/><line class="cls-4" x1="411.27" y1="251.64" x2="415.51" y2="251.64"/><line class="cls-4" x1="411.95" y1="235.07" x2="411.95" y2="251.26"/><line class="cls-4" x1="412.38" y1="235.07" x2="412.38" y2="251.26"/><line class="cls-4" x1="411.15" y1="234.69" x2="415.64" y2="234.69"/><line class="cls-4" x1="411.15" y1="234.69" x2="411.15" y2="234.69"/><line class="cls-4" x1="415.64" y1="234.69" x2="415.64" y2="234.69"/><line class="cls-4" x1="411.27" y1="217.74" x2="411.27" y2="218.12"/><line class="cls-4" x1="415.51" y1="217.74" x2="415.51" y2="218.12"/><line class="cls-4" x1="411.27" y1="217.74" x2="415.51" y2="217.74"/><line class="cls-4" x1="411.27" y1="218.12" x2="415.51" y2="218.12"/><line class="cls-4" x1="411.27" y1="234.31" x2="411.27" y2="234.69"/><line class="cls-4" x1="415.51" y1="234.31" x2="415.51" y2="234.69"/><line class="cls-4" x1="411.27" y1="234.31" x2="415.51" y2="234.31"/><line class="cls-4" x1="411.27" y1="234.69" x2="415.51" y2="234.69"/><line class="cls-4" x1="411.95" y1="218.12" x2="411.95" y2="234.31"/><line class="cls-4" x1="412.38" y1="218.12" x2="412.38" y2="234.31"/><polyline class="cls-4" points="411.27 270.46 410.34 270.46 410.34 215.87"/><line class="cls-4" x1="411.27" y1="215.87" x2="410.34" y2="215.87"/><line class="cls-4" x1="411.27" y1="217.74" x2="410.89" y2="217.74"/><line class="cls-4" x1="410.89" y1="217.74" x2="410.89" y2="215.87"/><line class="cls-4" x1="411.27" y1="215.87" x2="410.89" y2="215.87"/><line class="cls-4" x1="411.27" y1="268.6" x2="410.89" y2="268.6"/><line class="cls-4" x1="410.89" y1="270.46" x2="410.89" y2="268.6"/><line class="cls-4" x1="411.27" y1="270.46" x2="410.89" y2="270.46"/><line class="cls-3" x1="417.63" y1="217.74" x2="415.77" y2="217.74"/><line class="cls-3" x1="417.63" y1="268.6" x2="415.77" y2="268.6"/><line class="cls-4" x1="417.89" y1="268.6" x2="417.89" y2="268.22"/><line class="cls-4" x1="415.51" y1="268.6" x2="415.51" y2="268.22"/><line class="cls-4" x1="417.89" y1="268.6" x2="415.51" y2="268.6"/><line class="cls-4" x1="417.89" y1="268.22" x2="415.51" y2="268.22"/><line class="cls-4" x1="417.89" y1="218.12" x2="417.89" y2="217.74"/><line class="cls-4" x1="415.51" y1="218.12" x2="415.51" y2="217.74"/><line class="cls-4" x1="417.89" y1="218.12" x2="415.51" y2="218.12"/><line class="cls-4" x1="417.89" y1="217.74" x2="415.51" y2="217.74"/><polyline class="cls-4" points="417.89 216.08 418.77 216.08 418.77 270.25"/><line class="cls-4" x1="417.89" y1="270.25" x2="418.77" y2="270.25"/><polyline class="cls-4" points="417.89 268.26 418.23 268.26 418.23 270"/><line class="cls-4" x1="417.89" y1="270" x2="418.22" y2="270"/><line class="cls-4" x1="417.89" y1="268.26" x2="417.89" y2="270"/><line class="cls-4" x1="417.89" y1="218.08" x2="418.22" y2="218.08"/><line class="cls-4" x1="418.23" y1="216.34" x2="418.23" y2="218.08"/><line class="cls-4" x1="417.89" y1="216.34" x2="418.22" y2="216.34"/><line class="cls-4" x1="417.89" y1="216.34" x2="417.89" y2="218.08"/><text class="cls-1" transform="translate(406.14 262.23) rotate(-90)">O</text><text class="cls-1" transform="translate(406.14 257.07) rotate(-90)">P</text><text class="cls-5" transform="translate(406.14 253.49) rotate(-90)">T<tspan class="cls-6" x="2.79" y="0">.</tspan></text></g><g id="OPT_BED6_WINDOW" data-name="OPT  BED6 WINDOW"><rect class="cls-2" x="410.4" y="374.11" width="8.44" height="37.57"/><text class="cls-1" transform="translate(406.14 412.85) rotate(-90)">O</text><text class="cls-1" transform="translate(406.14 408.19) rotate(-90)">P</text><text class="cls-5" transform="translate(406.14 405.05) rotate(-90)">T<tspan class="cls-6" x="2.79" y="0">.</tspan></text><text class="cls-1" transform="translate(406.14 401.28) rotate(-90)"><tspan xml:space="preserve"> WINDOW</tspan></text><path class="cls-7" d="M435.12,392.58a26.88,26.88,0,1,1-26.87-26.88A26.87,26.87,0,0,1,435.12,392.58Z"/><line class="cls-3" x1="411.33" y1="412.07" x2="415.57" y2="412.07"/><line class="cls-3" x1="411.33" y1="373.92" x2="415.57" y2="373.92"/><line class="cls-4" x1="411.34" y1="373.92" x2="411.34" y2="374.3"/><line class="cls-4" x1="415.57" y1="373.92" x2="415.57" y2="374.3"/><line class="cls-4" x1="411.34" y1="373.92" x2="415.57" y2="373.92"/><line class="cls-4" x1="411.34" y1="374.3" x2="415.57" y2="374.3"/><line class="cls-4" x1="411.34" y1="411.69" x2="411.34" y2="412.07"/><line class="cls-4" x1="415.57" y1="411.69" x2="415.57" y2="412.07"/><line class="cls-4" x1="411.34" y1="411.69" x2="415.57" y2="411.69"/><line class="cls-4" x1="411.34" y1="412.07" x2="415.57" y2="412.07"/><line class="cls-4" x1="411.72" y1="374.3" x2="411.72" y2="392.61"/><line class="cls-4" x1="412.14" y1="374.3" x2="412.14" y2="392.61"/><line class="cls-4" x1="411.42" y1="392.61" x2="411.42" y2="393.38"/><line class="cls-4" x1="412.99" y1="392.61" x2="412.99" y2="393.38"/><line class="cls-4" x1="411.42" y1="392.61" x2="412.99" y2="392.61"/><line class="cls-4" x1="411.42" y1="393.38" x2="412.99" y2="393.38"/><line class="cls-4" x1="412.27" y1="393.38" x2="412.27" y2="411.69"/><line class="cls-4" x1="412.69" y1="393.38" x2="412.69" y2="411.69"/><polyline class="cls-4" points="411.34 413.93 410.4 413.93 410.4 372.06"/><line class="cls-4" x1="411.34" y1="372.06" x2="410.4" y2="372.06"/><line class="cls-4" x1="411.34" y1="373.92" x2="410.95" y2="373.92"/><line class="cls-4" x1="410.95" y1="373.92" x2="410.95" y2="372.06"/><line class="cls-4" x1="411.34" y1="372.06" x2="410.95" y2="372.06"/><line class="cls-4" x1="411.34" y1="412.07" x2="410.95" y2="412.07"/><line class="cls-4" x1="410.95" y1="413.93" x2="410.95" y2="412.07"/><line class="cls-4" x1="411.34" y1="413.93" x2="410.95" y2="413.93"/><line class="cls-3" x1="417.69" y1="373.92" x2="415.83" y2="373.92"/><line class="cls-3" x1="417.69" y1="412.07" x2="415.83" y2="412.07"/><line class="cls-4" x1="417.95" y1="412.07" x2="417.95" y2="411.69"/><line class="cls-4" x1="415.57" y1="412.07" x2="415.57" y2="411.69"/><line class="cls-4" x1="417.95" y1="412.07" x2="415.57" y2="412.07"/><line class="cls-4" x1="417.95" y1="411.69" x2="415.57" y2="411.69"/><line class="cls-4" x1="417.95" y1="374.3" x2="417.95" y2="373.92"/><line class="cls-4" x1="415.57" y1="374.3" x2="415.57" y2="373.92"/><line class="cls-4" x1="417.95" y1="374.3" x2="415.57" y2="374.3"/><line class="cls-4" x1="417.95" y1="373.92" x2="415.57" y2="373.92"/><polyline class="cls-4" points="417.95 372.27 418.84 372.27 418.84 413.72"/><line class="cls-4" x1="417.95" y1="413.72" x2="418.84" y2="413.72"/><polyline class="cls-4" points="417.95 411.73 418.29 411.73 418.29 413.47"/><line class="cls-4" x1="417.95" y1="413.47" x2="418.29" y2="413.47"/><line class="cls-4" x1="417.95" y1="411.73" x2="417.95" y2="413.47"/><line class="cls-4" x1="417.95" y1="374.26" x2="418.29" y2="374.26"/><line class="cls-4" x1="418.29" y1="372.52" x2="418.29" y2="374.26"/><line class="cls-4" x1="417.95" y1="372.52" x2="418.29" y2="372.52"/><line class="cls-4" x1="417.95" y1="372.52" x2="417.95" y2="374.26"/></g><g id="OPT_BATH_6" data-name="OPT BATH 6"><g id="OPT._BEDROOM_6" data-name="OPT. BEDROOM 6"><rect class="cls-2" x="438.21" y="393" width="33.27" height="41.45"/><rect class="cls-2" x="438.68" y="434.45" width="32.26" height="0.51"/><line class="cls-8" x1="438.68" y1="434.45" x2="438.68" y2="434.96"/><polyline class="cls-8" points="438.68 434.96 470.94 434.96 470.94 434.45 471.49 434.45"/><polyline class="cls-9" points="471.49 434.45 471.49 393 438.21 393"/><line class="cls-9" x1="438.21" y1="393" x2="438.21" y2="434.45"/><line class="cls-8" x1="438.21" y1="434.45" x2="438.68" y2="434.45"/><rect class="cls-2" x="438.68" y="433.52" width="32.26" height="1.44"/><line class="cls-8" x1="470.93" y1="434.96" x2="470.93" y2="433.52"/><line class="cls-9" x1="470.93" y1="433.52" x2="438.68" y2="433.52"/><polyline class="cls-8" points="438.68 433.52 438.68 434.96 470.94 434.96"/><line class="cls-9" x1="469.03" y1="433.52" x2="469.11" y2="433.26"/><line class="cls-9" x1="469.11" y1="433.26" x2="468.81" y2="432.29"/><line class="cls-9" x1="468.82" y1="432.29" x2="469.2" y2="429.23"/><line class="cls-9" x1="469.2" y1="429.23" x2="468.65" y2="426.82"/><line class="cls-9" x1="454.66" y1="433.52" x2="454.74" y2="433.26"/><polyline class="cls-9" points="454.74 433.26 454.4 432.29 454.83 429.24 455.29 432.29"/><line class="cls-9" x1="455.29" y1="432.29" x2="454.91" y2="433.39"/><line class="cls-8" x1="454.91" y1="433.39" x2="454.95" y2="433.52"/><polyline class="cls-9" points="441.35 421.06 441.31 421.06 440.71 421.23"/><polyline class="cls-9" points="440.71 421.23 440.59 421.86 441.1 423.85"/><polyline class="cls-9" points="441.1 423.85 440.88 426.82 440.42 429.24 440.88 432.29 440.54 433.39"/><line class="cls-8" x1="440.54" y1="433.39" x2="440.59" y2="433.52"/><line class="cls-9" x1="469.11" y1="421.86" x2="469.07" y2="423.81"/><polyline class="cls-9" points="469.07 423.81 468.65 426.82 467.75 424.53"/><polyline class="cls-9" points="454.83 429.24 454.28 426.82 453.35 424.53"/><polyline class="cls-9" points="454.57 424.62 454.7 423.81 454.7 421.86"/><line class="cls-9" x1="454.7" y1="421.86" x2="454.66" y2="423.81"/><line class="cls-9" x1="454.66" y1="423.81" x2="454.28" y2="426.82"/><polyline class="cls-9" points="455.42 423.85 455.25 426.82 454.83 429.24"/><polyline class="cls-9" points="455.25 426.82 455.46 423.85 454.96 421.86"/><polyline class="cls-9" points="454.95 421.86 455.13 421.23 455.68 421.06 457.96 421.39"/><polyline class="cls-9" points="457.96 421.39 460.81 421.06 463.09 421.35 465.13 421.48 466.02 421.56 467.71 421.39 468.18 421.27 468.35 421.23 468.9 421.27 469.11 421.86"/><line class="cls-9" x1="469.11" y1="421.86" x2="469.07" y2="423.81"/><line class="cls-9" x1="469.07" y1="423.81" x2="468.94" y2="424.61"/><polyline class="cls-9" points="454.7 421.86 454.53 421.27 453.94 421.23 451.61 421.56 448.68 421.35"/><line class="cls-9" x1="448.68" y1="421.35" x2="446.39" y2="421.05"/><line class="cls-9" x1="446.39" y1="421.05" x2="446.35" y2="421.05"/><polyline class="cls-9" points="455.04 421.65 454.95 421.86 455.42 423.85"/><polyline class="cls-9" points="443.09 395.16 441.9 394.99 441.18 395.33 440.67 395.84 440.33 396.6"/><polyline class="cls-9" points="440.33 396.6 440.33 431.52 440.67 432.29 440.84 432.46"/><line class="cls-9" x1="454.7" y1="433.13" x2="455" y2="433.13"/><polyline class="cls-9" points="468.86 432.46 469.03 432.29 469.32 431.52"/><polyline class="cls-9" points="469.32 431.52 469.32 396.6 469.03 395.84"/><line class="cls-9" x1="469.03" y1="395.84" x2="468.48" y2="395.33"/><polyline class="cls-9" points="468.48 395.33 467.75 394.99 466.57 394.99"/><line class="cls-9" x1="466.57" y1="394.99" x2="459.79" y2="395.16"/><line class="cls-9" x1="459.79" y1="394.4" x2="449.87" y2="394.4"/><line class="cls-9" x1="469.15" y1="433.52" x2="469.58" y2="433.05"/><polyline class="cls-9" points="469.58 433.05 469.92 432.29 469.92 395.84"/><line class="cls-9" x1="469.92" y1="395.84" x2="469.58" y2="395.07"/><polyline class="cls-9" points="469.58 395.07 469.07 394.52 468.31 394.23 441.35 394.23 440.59 394.52 440.08 395.07"/><polyline class="cls-9" points="440.08 395.07 439.74 395.84 439.74 432.29 440.08 433.05"/><line class="cls-9" x1="440.08" y1="433.05" x2="440.5" y2="433.52"/><line class="cls-8" x1="470.93" y1="434.45" x2="471.49" y2="434.45"/><polyline class="cls-9" points="471.49 434.45 471.49 393 438.21 393"/><line class="cls-9" x1="438.21" y1="393" x2="438.21" y2="434.45"/><line class="cls-8" x1="438.21" y1="434.45" x2="438.68" y2="434.45"/><line class="cls-9" x1="445.42" y1="421.18" x2="443.6" y2="421.48"/><polyline class="cls-9" points="443.6 421.48 441.94 421.31 441.18 421.01"/><polyline class="cls-9" points="440.63 421.65 440.59 421.86 441.01 423.85"/><line class="cls-9" x1="441.01" y1="423.85" x2="440.88" y2="426.82"/><line class="cls-8" x1="440.93" y1="433.43" x2="440.93" y2="433.52"/><rect class="cls-10" x="504.88" y="352.56" width="1.87" height="2.12"/><rect class="cls-10" x="504.88" y="372.44" width="1.87" height="3.18"/><line class="cls-3" x1="506.75" y1="354.68" x2="506.75" y2="352.56"/><line class="cls-3" x1="506.75" y1="375.62" x2="506.75" y2="372.44"/><line class="cls-3" x1="506.75" y1="354.68" x2="504.88" y2="354.68"/><line class="cls-3" x1="506.75" y1="372.44" x2="504.88" y2="372.44"/><line class="cls-3" x1="504.88" y1="352.56" x2="504.88" y2="354.68"/><line class="cls-3" x1="504.88" y1="372.44" x2="504.88" y2="375.62"/><line class="cls-4" x1="507" y1="372.44" x2="507" y2="372.02"/><line class="cls-4" x1="504.63" y1="372.44" x2="504.63" y2="372.02"/><line class="cls-4" x1="507" y1="372.44" x2="504.63" y2="372.44"/><line class="cls-4" x1="507" y1="372.02" x2="504.63" y2="372.02"/><line class="cls-4" x1="507" y1="355.06" x2="507" y2="354.68"/><line class="cls-4" x1="504.63" y1="355.06" x2="504.63" y2="354.68"/><line class="cls-4" x1="507" y1="355.06" x2="504.63" y2="355.06"/><line class="cls-4" x1="507" y1="354.68" x2="504.63" y2="354.68"/><line class="cls-4" x1="504.63" y1="355.06" x2="487.68" y2="355.06"/><line class="cls-4" x1="504.63" y1="355.78" x2="487.68" y2="355.78"/><line class="cls-4" x1="487.68" y1="355.06" x2="487.68" y2="355.78"/><line class="cls-4" x1="504.63" y1="355.78" x2="504.63" y2="355.06"/><polyline class="cls-4" points="504.63 372.02 504.29 372.02 503.02 371.93 501.75 371.76"/><polyline class="cls-4" points="501.75 371.76 500.52 371.51 499.29 371.17"/><line class="cls-4" x1="499.29" y1="371.17" x2="498.1" y2="370.7"/><polyline class="cls-4" points="498.1 370.7 496.96 370.19 495.86 369.56"/><polyline class="cls-4" points="495.86 369.56 494.8 368.88 493.78 368.07"/><polyline class="cls-4" points="493.78 368.07 492.81 367.23 491.96 366.34 491.15 365.32 490.43 364.3 489.75 363.2"/><polyline class="cls-4" points="489.75 363.2 489.2 362.06 488.69 360.87"/><line class="cls-4" x1="488.69" y1="360.87" x2="488.31" y2="359.68"/><line class="cls-4" x1="488.31" y1="359.68" x2="488.01" y2="358.45"/><line class="cls-4" x1="488.02" y1="358.45" x2="487.8" y2="357.18"/><line class="cls-4" x1="487.8" y1="357.18" x2="487.72" y2="355.91"/><line class="cls-4" x1="487.72" y1="355.91" x2="487.68" y2="355.06"/><line class="cls-4" x1="507" y1="372.14" x2="507.34" y2="372.14"/><line class="cls-4" x1="507.34" y1="372.14" x2="507.34" y2="373.88"/><line class="cls-4" x1="507" y1="373.88" x2="507.34" y2="373.88"/><line class="cls-4" x1="507" y1="354.93" x2="507.34" y2="354.93"/><line class="cls-4" x1="507.34" y1="353.24" x2="507.34" y2="354.93"/><line class="cls-4" x1="504.63" y1="354.93" x2="504.29" y2="354.93"/><line class="cls-4" x1="504.29" y1="353.24" x2="504.29" y2="354.93"/><polyline class="cls-4" points="504.63 372.14 504.29 372.14 504.29 373.88"/><line class="cls-4" x1="504.63" y1="373.88" x2="504.29" y2="373.88"/><rect class="cls-10" x="504.46" y="375.87" width="38.57" height="1.87"/><line class="cls-3" x1="543.03" y1="375.87" x2="504.88" y2="375.87"/><line class="cls-3" x1="504.88" y1="377.74" x2="543.03" y2="377.74"/><rect class="cls-10" x="541.15" y="375.62" width="1.87" height="66.75"/><line class="cls-3" x1="543.01" y1="442.37" x2="543.01" y2="376.35"/><line class="cls-3" x1="541.15" y1="376.35" x2="541.15" y2="442.37"/><text class="cls-1" transform="translate(439.74 391.48)"><tspan class="cls-11">11</tspan><tspan class="cls-12" x="7.19" y="0">&apos;</tspan><tspan class="cls-13" x="8.44" y="0">-</tspan><tspan class="cls-14" x="10.58" y="0">4</tspan><tspan x="14.18" y="0">&quot;</tspan><tspan class="cls-15" x="16.19" y="0"> </tspan><tspan class="cls-11" x="17.96" y="0">X</tspan><tspan class="cls-16" x="21.91" y="0"> </tspan><tspan class="cls-17" x="23.75" y="0">1</tspan><tspan class="cls-14" x="27.27" y="0">2</tspan><tspan class="cls-18" x="30.87" y="0">&apos;</tspan><tspan class="cls-13" x="32.18" y="0">-1</tspan><tspan class="cls-19" x="37.92" y="0">0</tspan><tspan class="cls-20" x="41.44" y="0">&quot;</tspan></text><text class="cls-1" transform="translate(433.59 385.45)"><tspan class="cls-18">O</tspan><tspan class="cls-13" x="5.68" y="0">P</tspan><tspan class="cls-21" x="9.52" y="0">T</tspan><tspan x="12.32" y="0">. </tspan><tspan class="cls-22" x="15.91" y="0">B</tspan><tspan x="19.67" y="0">E</tspan><tspan class="cls-23" x="23.16" y="0">DR</tspan><tspan class="cls-13" x="31.99" y="0">O</tspan><tspan class="cls-16" x="37.63" y="0">O</tspan><tspan class="cls-18" x="43.32" y="0">M</tspan><tspan x="49.32" y="0" xml:space="preserve"> 6</tspan></text></g><g id="OPT_BATH_6-2" data-name="OPT BATH 6"><rect class="cls-2" x="521.22" y="374.4" width="15.15" height="4.23"/><line class="cls-9" x1="526.88" y1="397.87" x2="526.88" y2="400.75"/><line class="cls-9" x1="526.88" y1="402.66" x2="526.88" y2="404.57"/><line class="cls-9" x1="526.88" y1="406.47" x2="526.88" y2="408.97"/><line class="cls-9" x1="526.88" y1="397.87" x2="529.47" y2="397.87"/><line class="cls-9" x1="531.37" y1="397.87" x2="533.28" y2="397.87"/><line class="cls-9" x1="535.19" y1="397.87" x2="537.1" y2="397.87"/><line class="cls-9" x1="539" y1="397.87" x2="540.91" y2="397.87"/><line class="cls-9" x1="542.78" y1="397.87" x2="541.21" y2="397.87"/><line class="cls-8" x1="542.78" y1="408.98" x2="526.37" y2="408.98"/><polyline class="cls-9" points="526.37 408.98 526.37 397.53 526.37 397.49 526.37 397.45 526.37 397.4 526.42 397.4 526.42 397.36 526.46 397.36 526.5 397.32 526.54 397.32"/><line class="cls-9" x1="526.54" y1="397.32" x2="542.78" y2="397.32"/><line class="cls-9" x1="538.79" y1="405.54" x2="539" y2="405.33"/><line class="cls-9" x1="539" y1="405.33" x2="539.26" y2="405.08"/><line class="cls-9" x1="539.26" y1="405.08" x2="539.47" y2="404.78"/><polyline class="cls-9" points="539.47 404.78 539.68 404.48 539.85 404.14"/><polyline class="cls-9" points="539.85 404.14 539.98 403.8 540.06 403.46 540.11 403.08"/><polyline class="cls-9" points="540.11 403.08 540.15 402.75 540.15 402.36"/><line class="cls-9" x1="540.15" y1="402.36" x2="540.11" y2="402.02"/><line class="cls-9" x1="540.11" y1="402.02" x2="540.02" y2="401.64"/><line class="cls-9" x1="540.02" y1="401.64" x2="539.89" y2="401.3"/><line class="cls-9" x1="539.89" y1="401.3" x2="539.72" y2="401.01"/><line class="cls-9" x1="539.72" y1="401.01" x2="539.55" y2="400.67"/><polyline class="cls-9" points="539.56 400.67 539.39 400.41 539.22 400.2 539 399.99 538.79 399.82 538.33 399.44"/><polyline class="cls-9" points="538.33 399.44 537.82 399.18 537.27 398.93 536.76 398.72 536.12 398.55 535.49 398.46 534.85 398.42 534.22 398.46"/><polyline class="cls-9" points="534.22 398.46 533.58 398.55 532.99 398.72 532.39 398.93"/><line class="cls-9" x1="532.39" y1="398.93" x2="531.8" y2="399.18"/><line class="cls-9" x1="531.8" y1="399.18" x2="531.37" y2="399.48"/><line class="cls-9" x1="531.37" y1="399.48" x2="530.91" y2="399.82"/><line class="cls-9" x1="530.91" y1="399.82" x2="530.65" y2="400.03"/><line class="cls-9" x1="530.65" y1="400.03" x2="530.44" y2="400.29"/><polyline class="cls-9" points="530.44 400.29 530.19 400.58 530.02 400.88"/><polyline class="cls-9" points="530.02 400.88 529.85 401.22 529.72 401.56 529.64 401.9"/><line class="cls-9" x1="529.64" y1="401.9" x2="529.55" y2="402.24"/><line class="cls-9" x1="529.55" y1="402.24" x2="529.55" y2="402.62"/><polyline class="cls-9" points="529.55 402.62 529.55 403 529.6 403.34 529.68 403.68"/><polyline class="cls-9" points="529.68 403.68 529.81 404.06 529.98 404.36 530.15 404.69 530.32 404.91 530.49 405.12 530.7 405.33 530.91 405.54 531.29 405.8 531.84 406.14 532.39 406.39 532.99 406.64 533.62 406.77 534.22 406.9 534.85 406.9 535.49 406.86"/><polyline class="cls-9" points="535.49 406.86 536.12 406.77 536.76 406.6 537.35 406.39"/><polyline class="cls-9" points="537.35 406.39 537.9 406.09 538.45 405.75 538.79 405.54"/><text class="cls-1" transform="translate(509.33 391.17)"><tspan class="cls-24">B</tspan><tspan class="cls-25" x="4.33" y="0">A</tspan><tspan class="cls-26" x="8.67" y="0">T</tspan><tspan class="cls-27" x="12.57" y="0">H</tspan><tspan x="17.27" y="0" xml:space="preserve"> 6</tspan></text><text class="cls-1" transform="translate(508.96 385.55)">OPT</text><path class="cls-28" d="M538.84,399.83v5.72l.29-.26a3.64,3.64,0,0,0,.34-4.83l-.34-.38"/><path class="cls-28" d="M531,399.83h7.85l-.09-.09a6.33,6.33,0,0,0-7-.46l-.68.46"/><path class="cls-28" d="M531,405.55v-5.72l-.29.25a3.64,3.64,0,0,0-.34,4.83l.34.38"/><path class="cls-28" d="M538.84,405.55H531l.09.08a6.35,6.35,0,0,0,7,.47l.68-.47"/><rect class="cls-2" x="530.99" y="399.83" width="7.84" height="5.72"/><line class="cls-9" x1="538.84" y1="405.55" x2="539.09" y2="405.34"/><line class="cls-9" x1="539.09" y1="405.34" x2="539.34" y2="405.08"/><polyline class="cls-9" points="539.34 405.08 539.56 404.83 539.73 404.53"/><line class="cls-9" x1="539.73" y1="404.53" x2="539.89" y2="404.23"/><polyline class="cls-9" points="539.89 404.24 540.02 403.89 540.11 403.56 540.19 403.22"/><polyline class="cls-9" points="540.19 403.22 540.23 402.84 540.19 402.5"/><polyline class="cls-9" points="540.19 402.5 540.19 402.12 540.11 401.78 539.98 401.44"/><line class="cls-9" x1="539.98" y1="401.44" x2="539.85" y2="401.1"/><line class="cls-9" x1="539.85" y1="401.1" x2="539.73" y2="400.8"/><polyline class="cls-9" points="539.73 400.8 539.51 400.55 539.3 400.29 539.09 400.04 538.84 399.83 538.45 399.57 538.07 399.32"/><line class="cls-9" x1="538.07" y1="399.32" x2="537.69" y2="399.1"/><line class="cls-9" x1="537.69" y1="399.11" x2="537.1" y2="398.85"/><polyline class="cls-9" points="537.1 398.85 536.5 398.64 535.87 398.51 535.23 398.47 534.6 398.47 533.96 398.51"/><polyline class="cls-9" points="533.96 398.51 533.37 398.64 532.73 398.85 532.27 399.02"/><line class="cls-9" x1="532.27" y1="399.02" x2="531.84" y2="399.27"/><polyline class="cls-9" points="531.84 399.27 531.38 399.53 530.99 399.83"/><polyline class="cls-9" points="530.99 399.83 530.7 400.08 530.44 400.38 530.23 400.68"/><line class="cls-9" x1="530.23" y1="400.67" x2="530.02" y2="400.97"/><line class="cls-9" x1="530.02" y1="400.97" x2="529.89" y2="401.31"/><polyline class="cls-9" points="529.89 401.31 529.76 401.65 529.68 401.99"/><polyline class="cls-9" points="529.68 401.99 529.64 402.37 529.6 402.71 529.64 403.09 529.68 403.47"/><line class="cls-9" x1="529.68" y1="403.47" x2="529.76" y2="403.81"/><polyline class="cls-9" points="529.76 403.81 529.89 404.15 530.06 404.49 530.27 404.79 530.49 405.08"/><polyline class="cls-9" points="530.49 405.08 530.74 405.34 530.99 405.55 531.38 405.85 531.76 406.1"/><line class="cls-9" x1="531.76" y1="406.1" x2="532.18" y2="406.31"/><line class="cls-9" x1="532.18" y1="406.31" x2="532.73" y2="406.57"/><line class="cls-9" x1="532.73" y1="406.57" x2="533.37" y2="406.74"/><polyline class="cls-9" points="533.37 406.74 533.96 406.86 534.6 406.9"/><line class="cls-9" x1="534.6" y1="406.9" x2="535.23" y2="406.9"/><line class="cls-9" x1="535.23" y1="406.9" x2="535.87" y2="406.86"/><polyline class="cls-9" points="535.87 406.86 536.5 406.74 537.1 406.52 537.56 406.35"/><polyline class="cls-9" points="537.56 406.35 538.03 406.1 538.45 405.85 538.84 405.55"/><path class="cls-9" d="M534.89,402.67a.55.55,0,0,0-.55.55.55.55,0,0,0,.55.55.55.55,0,0,0,.55-.55A.54.54,0,0,0,534.89,402.67Z"/><path class="cls-9" d="M534.89,402.88h0a.32.32,0,1,0,0,.63.31.31,0,0,0,.32-.31A.32.32,0,0,0,534.89,402.88Z"/><polyline class="cls-9" points="538.2 404.79 538.41 404.62 538.58 404.4 538.71 404.23"/><line class="cls-9" x1="538.71" y1="404.23" x2="538.88" y2="404.02"/><polyline class="cls-9" points="538.88 404.02 538.96 403.77 539.09 403.56"/><line class="cls-9" x1="539.09" y1="403.56" x2="539.13" y2="403.3"/><polyline class="cls-9" points="539.13 403.3 539.17 403.05 539.22 402.79"/><polyline class="cls-9" points="539.22 402.79 539.22 402.54 539.17 402.29 539.13 402.03 539.05 401.82 538.96 401.56 538.84 401.35 538.71 401.14 538.58 400.93"/><polyline class="cls-9" points="538.58 400.93 538.41 400.76 538.2 400.59"/><line class="cls-9" x1="538.2" y1="400.59" x2="537.9" y2="400.38"/><line class="cls-9" x1="537.9" y1="400.38" x2="537.61" y2="400.16"/><line class="cls-9" x1="537.61" y1="400.17" x2="537.14" y2="399.95"/><line class="cls-9" x1="537.14" y1="399.95" x2="536.67" y2="399.74"/><polyline class="cls-9" points="536.67 399.74 536.21 399.61 535.7 399.53 535.19 399.44"/><line class="cls-9" x1="535.19" y1="399.44" x2="534.68" y2="399.44"/><polyline class="cls-9" points="534.68 399.44 534.17 399.49 533.66 399.62"/><polyline class="cls-9" points="533.66 399.61 533.2 399.74 532.73 399.91 532.35 400.12 531.97 400.33 531.63 400.59 531.46 400.72"/><polyline class="cls-9" points="531.46 400.72 531.33 400.84 531.16 401.06"/><line class="cls-9" x1="531.16" y1="401.05" x2="531.04" y2="401.27"/><line class="cls-9" x1="531.04" y1="401.27" x2="530.91" y2="401.48"/><polyline class="cls-9" points="530.91 401.48 530.78 401.69 530.74 401.95 530.65 402.2 530.61 402.45"/><polyline class="cls-9" points="530.61 402.45 530.61 402.71 530.61 402.96"/><polyline class="cls-9" points="530.61 402.96 530.65 403.22 530.74 403.47"/><line class="cls-9" x1="530.74" y1="403.47" x2="530.83" y2="403.73"/><polyline class="cls-9" points="530.82 403.73 530.95 403.94 531.08 404.19 531.25 404.4 531.42 404.57 531.63 404.79 531.93 405 532.27 405.21"/><polyline class="cls-9" points="532.26 405.21 532.69 405.42 533.15 405.63"/><line class="cls-9" x1="533.16" y1="405.63" x2="533.66" y2="405.76"/><line class="cls-9" x1="533.66" y1="405.76" x2="534.17" y2="405.89"/><polyline class="cls-9" points="534.17 405.89 534.64 405.93 535.15 405.93"/><line class="cls-9" x1="535.15" y1="405.93" x2="535.66" y2="405.89"/><polyline class="cls-9" points="535.66 405.89 536.16 405.76 536.67 405.63 537.14 405.42"/><line class="cls-9" x1="537.14" y1="405.42" x2="537.52" y2="405.25"/><polyline class="cls-9" points="537.52 405.25 537.86 405.04 538.2 404.79"/><path class="cls-9" d="M536.12,405.89h0a.45.45,0,1,0,.45.44A.44.44,0,0,0,536.1,405.89Z"/><rect class="cls-9" x="534.51" y="404.19" width="0.76" height="2.46"/><path class="cls-9" d="M533.75,405.89a.42.42,0,1,0,.42.42A.42.42,0,0,0,533.75,405.89Z"/><rect class="cls-2" x="492" y="377.74" width="15.89" height="31.79"/><polyline class="cls-4" points="507.89 377.74 492 377.74 492 409.53 507.89 409.53"/><line class="cls-9" x1="507.9" y1="409.53" x2="507.9" y2="377.74"/><line class="cls-9" x1="502.55" y1="408.47" x2="502.94" y2="408.43"/><polyline class="cls-9" points="502.94 408.43 503.32 408.39 503.7 408.26 504.08 408.13"/><line class="cls-9" x1="504.08" y1="408.13" x2="504.42" y2="407.92"/><line class="cls-9" x1="504.42" y1="407.92" x2="504.76" y2="407.71"/><polyline class="cls-9" points="504.76 407.71 505.1 407.45 505.35 407.16"/><polyline class="cls-9" points="505.35 407.16 505.61 406.82 505.86 406.48"/><polyline class="cls-9" points="505.86 406.48 506.03 406.1 506.2 405.72"/><polyline class="cls-9" points="506.2 405.72 506.28 405.38 506.37 405.04 506.41 404.66 506.41 404.32 506.41 384.74 506.41 384.19 506.33 383.72 506.24 383.21 506.07 382.7 505.9 382.24"/><line class="cls-9" x1="505.9" y1="382.24" x2="505.69" y2="381.81"/><polyline class="cls-9" points="505.69 381.81 505.44 381.35 505.14 380.96 504.84 380.58"/><line class="cls-9" x1="504.84" y1="380.58" x2="504.46" y2="380.24"/><line class="cls-9" x1="504.46" y1="380.24" x2="504.12" y2="379.9"/><polyline class="cls-9" points="504.12 379.9 503.7 379.65 503.27 379.4 502.85 379.19 502.38 379.02 501.96 378.89"/><polyline class="cls-9" points="501.96 378.89 501.41 378.8 500.86 378.8 499.16 378.8 498.7 378.8 498.23 378.89"/><line class="cls-9" x1="498.23" y1="378.89" x2="497.76" y2="378.97"/><polyline class="cls-9" points="497.76 378.97 497.3 379.14 496.88 379.31 496.45 379.57"/><line class="cls-9" x1="496.45" y1="379.57" x2="496.07" y2="379.82"/><polyline class="cls-9" points="496.07 379.82 495.69 380.16 495.31 380.5"/><line class="cls-9" x1="495.31" y1="380.5" x2="495.01" y2="380.88"/><line class="cls-9" x1="495.01" y1="380.88" x2="494.71" y2="381.26"/><polyline class="cls-9" points="494.71 381.26 494.46 381.69 494.25 382.15"/><polyline class="cls-9" points="494.25 382.15 494.03 382.62 493.91 383.08"/><line class="cls-9" x1="493.91" y1="383.08" x2="493.78" y2="383.59"/><line class="cls-9" x1="493.78" y1="383.59" x2="493.74" y2="384.1"/><polyline class="cls-9" points="493.74 384.1 493.74 384.61 493.74 404.24 493.74 404.57 493.78 404.96"/><polyline class="cls-9" points="493.78 404.95 493.87 405.38 493.99 405.76"/><polyline class="cls-9" points="493.99 405.76 494.16 406.14 494.33 406.52"/><polyline class="cls-9" points="494.33 406.52 494.59 406.86 494.84 407.2 495.14 407.46"/><line class="cls-9" x1="495.14" y1="407.45" x2="495.48" y2="407.71"/><line class="cls-9" x1="495.48" y1="407.71" x2="495.82" y2="407.96"/><polyline class="cls-9" points="495.81 407.96 496.15 408.13 496.54 408.26"/><polyline class="cls-9" points="496.54 408.26 496.92 408.39 497.3 408.43 497.68 408.47"/><line class="cls-9" x1="497.68" y1="408.47" x2="502.55" y2="408.47"/><polyline class="cls-9" points="499.97 404.45 499.97 404.49 499.97 404.53 499.93 404.57 499.93 404.62 499.93 404.66"/><polyline class="cls-9" points="499.93 404.66 499.88 404.66 499.88 404.7 499.84 404.74 499.84 404.79 499.8 404.79 499.8 404.83 499.76 404.83 499.71 404.87 499.67 404.87 499.63 404.87 499.63 404.91 499.59 404.91 499.54 404.91 499.5 404.91 499.46 404.91 499.42 404.87 499.38 404.87 499.33 404.83 499.29 404.83"/><polyline class="cls-9" points="499.29 404.83 499.29 404.79 499.25 404.79 499.25 404.74 499.21 404.74 499.21 404.7 499.16 404.7 499.16 404.66"/><polyline class="cls-9" points="499.16 404.66 499.16 404.62 499.12 404.57 499.12 404.53 499.12 404.49 499.12 404.45"/><polyline class="cls-9" points="499.12 404.45 499.12 404.4 499.12 404.36 499.12 404.32 499.16 404.28 499.16 404.23"/><polyline class="cls-9" points="499.16 404.24 499.21 404.19 499.21 404.15 499.25 404.15 499.25 404.11 499.29 404.11 499.33 404.06 499.38 404.06 499.38 404.02 499.42 404.02 499.46 404.02 499.5 404.02 499.54 404.02 499.59 404.02 499.63 404.02 499.67 404.02 499.71 404.06 499.76 404.06 499.8 404.11 499.84 404.11 499.84 404.15 499.88 404.19 499.88 404.24 499.93 404.28 499.93 404.32 499.93 404.36 499.97 404.36 499.97 404.4 499.97 404.45"/><polyline class="cls-28" points="520.14 408.64 520.4 408.9 520.4 408.81 520.36 408.81 520.36 408.73 520.31 408.73 520.27 408.69 520.23 408.64 520.19 408.64"/><polyline class="cls-28" points="514.63 408.9 514.89 408.64 514.8 408.64 514.76 408.69 514.72 408.69 514.72 408.73 514.67 408.73 514.67 408.77 514.63 408.81 514.63 408.86"/><polyline class="cls-28" points="514.63 409.24 520.4 409.24 520.4 408.9 520.14 408.64 514.89 408.64 514.63 408.9"/><polyline class="cls-4" points="520.4 409.24 520.4 408.9 520.4 408.86 520.4 408.81 520.36 408.81 520.36 408.77 520.31 408.73 520.31 408.69 520.27 408.69 520.23 408.64 520.19 408.64 520.14 408.64 514.89 408.64"/><polyline class="cls-4" points="514.89 408.64 514.85 408.64 514.8 408.64 514.76 408.69 514.72 408.69 514.72 408.73 514.67 408.73 514.67 408.77 514.63 408.81 514.63 408.86 514.63 408.9 514.63 409.24"/><line class="cls-4" x1="514.63" y1="409.24" x2="520.4" y2="409.24"/><line class="cls-4" x1="522.56" y1="408.47" x2="512.43" y2="408.47"/><polyline class="cls-9" points="512.43 408.47 512.43 403.13 512.98 402.62 522.05 402.62"/><line class="cls-9" x1="522.05" y1="402.62" x2="522.56" y2="403.17"/><line class="cls-9" x1="522.56" y1="403.17" x2="522.56" y2="408.47"/><line class="cls-4" x1="522.56" y1="408.47" x2="522.6" y2="408.51"/><line class="cls-9" x1="522.6" y1="408.51" x2="522.6" y2="403.17"/><polyline class="cls-9" points="522.6 403.17 522.05 402.62 512.98 402.62"/><polyline class="cls-9" points="512.98 402.62 512.43 403.17 512.43 408.51"/><line class="cls-4" x1="512.43" y1="408.51" x2="522.6" y2="408.51"/><line class="cls-4" x1="512.43" y1="408.51" x2="512.43" y2="408.47"/><line class="cls-9" x1="514" y1="402.62" x2="514" y2="402.28"/><polyline class="cls-9" points="514 402.29 512.73 402.29 512.73 402.79"/><line class="cls-9" x1="512.73" y1="402.79" x2="512.81" y2="402.79"/><polyline class="cls-9" points="521.29 402.16 521.2 402.62 521.41 401.61 521.33 399.74"/><line class="cls-9" x1="521.33" y1="399.74" x2="521.29" y2="402.16"/><line class="cls-9" x1="514.21" y1="395.67" x2="514.17" y2="395.84"/><line class="cls-9" x1="514.17" y1="395.84" x2="513.96" y2="396.86"/><polyline class="cls-9" points="514.34 395.25 514.46 394.82 514.89 393.85 515.35 393.09"/><polyline class="cls-9" points="515.35 393.09 515.44 393 515.48 392.96"/><line class="cls-9" x1="519.51" y1="392.92" x2="519.51" y2="392.96"/><polyline class="cls-9" points="520.7 395.25 520.52 394.82 520.14 393.85"/><line class="cls-9" x1="520.14" y1="393.85" x2="520.1" y2="393.76"/><polyline class="cls-9" points="520.1 393.77 520.02 393.68 519.93 393.47"/><polyline class="cls-9" points="519.93 393.47 519.68 393.09 519.55 392.96"/><polyline class="cls-9" points="521.08 396.86 520.86 395.84 520.82 395.67"/><polyline class="cls-9" points="513.74 402.16 513.7 399.74 513.74 402.16"/><line class="cls-9" x1="513.74" y1="402.16" x2="513.74" y2="402.28"/><polyline class="cls-9" points="515.48 392.92 515.48 392.96 515.48 392.92"/><polyline class="cls-9" points="521.33 397.75 521.2 396.86 520.99 395.8"/><line class="cls-9" x1="520.99" y1="395.8" x2="520.69" y2="394.78"/><polyline class="cls-9" points="520.7 394.78 520.27 393.81 519.76 393 519.72 392.92"/><polyline class="cls-9" points="519.72 392.92 519.68 392.88 519.63 392.88 519.63 392.83 518.66 392.2"/><line class="cls-4" x1="518.66" y1="392.2" x2="517.52" y2="391.98"/><line class="cls-4" x1="517.52" y1="391.99" x2="516.37" y2="392.2"/><polyline class="cls-9" points="516.37 392.2 515.4 392.83 515.23 393"/><polyline class="cls-9" points="515.23 393 514.97 393.38 514.85 393.6 514.8 393.72 514.76 393.81 514.34 394.78"/><line class="cls-9" x1="514.34" y1="394.78" x2="514" y2="395.8"/><polyline class="cls-9" points="514 395.8 513.79 396.86 513.7 397.75"/><line class="cls-9" x1="521.33" y1="399.74" x2="520.78" y2="401.1"/><polyline class="cls-9" points="520.78 401.1 519.8 402.16 515.23 402.16 514.25 401.1"/><line class="cls-9" x1="514.25" y1="401.1" x2="513.7" y2="399.74"/><line class="cls-9" x1="513.62" y1="398.77" x2="513.53" y2="399.49"/><polyline class="cls-9" points="513.53 399.49 513.57 402.16 513.62 402.29"/><polyline class="cls-4" points="516.54 408.64 514.89 408.64 514.76 408.64 514.67 408.77 514.63 408.9 514.63 409.24"/><polyline class="cls-4" points="514.63 409.24 520.4 409.24 520.4 408.9 520.36 408.77 520.27 408.64"/><line class="cls-4" x1="520.27" y1="408.64" x2="520.14" y2="408.64"/><line class="cls-4" x1="520.14" y1="408.64" x2="518.66" y2="408.64"/><polyline class="cls-4" points="516.54 408.51 516.54 408.64 518.66 408.64 518.66 408.51"/><polyline class="cls-4" points="516.03 408.51 516.08 408.51 516.12 408.6 516.2 408.64"/><polyline class="cls-4" points="519 408.64 519.08 408.6 519.13 408.51"/><line class="cls-4" x1="515.86" y1="408.51" x2="515.86" y2="408.64"/><line class="cls-4" x1="519.34" y1="408.64" x2="519.34" y2="408.51"/><rect class="cls-2" x="513.66" y="399.36" width="7.8" height="3.31"/><rect class="cls-9" x="513.66" y="399.36" width="7.8" height="3.31"/><rect class="cls-2" x="512.73" y="402.28" width="1.27" height="0.51"/><polyline class="cls-9" points="514 402.79 514 402.29 512.73 402.29 512.73 402.79"/><line class="cls-9" x1="512.73" y1="402.79" x2="514" y2="402.79"/><polyline class="cls-28" points="512.43 408.51 522.56 408.51 522.56 403.18 522.05 402.63 512.98 402.63 512.43 403.18"/><line class="cls-9" x1="522.56" y1="408.51" x2="522.56" y2="403.17"/><polyline class="cls-9" points="522.56 403.17 522.05 402.62 512.98 402.62"/><polyline class="cls-9" points="512.98 402.62 512.43 403.17 512.43 408.51"/><line class="cls-4" x1="512.43" y1="408.51" x2="522.56" y2="408.51"/><line class="cls-9" x1="514" y1="402.28" x2="514" y2="402.62"/><line class="cls-9" x1="514" y1="402.62" x2="521.37" y2="402.62"/><polyline class="cls-9" points="521.37 402.62 521.41 402.16 521.46 399.49 521.41 398.77"/><polyline class="cls-28" points="513.96 396.86 514.76 394.19 514.25 395.5"/><polyline class="cls-28" points="514.76 394.19 513.96 396.86 513.57 398.3 513.7 399.74 514.25 401.1 515.23 402.16 519.8 402.16 520.78 401.1 521.33 399.74 521.46 398.3 521.08 396.86 520.27 394.19 519.55 392.96 519 392.41 518.28 392.11 516.75 392.11 516.03 392.41 515.48 392.96"/><polyline class="cls-28" points="516.75 392.11 517.52 392.11 517.43 392.11 517.35 392.07 517.22 392.07 516.88 392.11"/><polyline class="cls-28" points="520.27 394.19 521.08 396.86 520.78 395.5"/><polyline class="cls-9" points="516.03 392.41 515.48 392.96 514.76 394.19"/><line class="cls-9" x1="514.76" y1="394.19" x2="514.25" y2="395.5"/><line class="cls-9" x1="514.25" y1="395.5" x2="513.96" y2="396.86"/><line class="cls-9" x1="513.96" y1="396.86" x2="513.57" y2="398.3"/><line class="cls-9" x1="513.57" y1="398.3" x2="513.7" y2="399.74"/><line class="cls-9" x1="513.7" y1="399.74" x2="514.25" y2="401.1"/><polyline class="cls-9" points="514.25 401.1 515.23 402.16 519.8 402.16 520.78 401.1"/><polyline class="cls-9" points="520.78 401.1 521.33 399.74 521.46 398.3 521.08 396.86 520.78 395.5"/><polyline class="cls-9" points="520.78 395.5 520.27 394.19 519.55 392.96 519 392.41 518.28 392.11"/><polyline class="cls-4" points="518.28 392.11 517.52 392.11 517.43 392.11 517.35 392.07 517.22 392.07 516.88 392.11 516.75 392.11"/><line class="cls-9" x1="516.75" y1="392.11" x2="516.03" y2="392.41"/><rect class="cls-10" x="491.75" y="409.24" width="51.37" height="1.87"/><rect class="cls-10" x="489.88" y="375.62" width="1.87" height="37.47"/><rect class="cls-10" x="491.75" y="375.62" width="29.29" height="1.82"/><rect class="cls-10" x="536.63" y="375.62" width="6.48" height="1.82"/><line class="cls-3" x1="543.12" y1="409.24" x2="491.75" y2="409.24"/><line class="cls-3" x1="489.88" y1="375.62" x2="489.88" y2="413.09"/><line class="cls-3" x1="491.75" y1="375.62" x2="489.88" y2="375.62"/><line class="cls-3" x1="491.75" y1="409.24" x2="491.75" y2="377.45"/><rect class="cls-10" x="541.12" y="375.62" width="1.87" height="37.47"/><line class="cls-3" x1="541.12" y1="375.62" x2="541.12" y2="413.09"/><line class="cls-3" x1="542.99" y1="409.24" x2="542.99" y2="375.56"/><line class="cls-3" x1="521.03" y1="375.62" x2="506.83" y2="375.62"/><line class="cls-3" x1="504.97" y1="375.62" x2="491.75" y2="375.62"/><line class="cls-3" x1="543.12" y1="375.62" x2="540.49" y2="375.62"/><line class="cls-3" x1="538.62" y1="375.62" x2="536.63" y2="375.62"/><line class="cls-3" x1="521.03" y1="375.62" x2="521.03" y2="377.45"/><line class="cls-3" x1="536.63" y1="375.62" x2="536.63" y2="377.45"/><line class="cls-3" x1="491.75" y1="377.45" x2="521.03" y2="377.45"/><line class="cls-3" x1="536.63" y1="377.45" x2="543.12" y2="377.45"/><line class="cls-4" x1="536.63" y1="375.33" x2="536.25" y2="375.33"/><line class="cls-4" x1="536.63" y1="377.74" x2="536.25" y2="377.74"/><line class="cls-4" x1="536.63" y1="375.33" x2="536.63" y2="377.74"/><line class="cls-4" x1="536.25" y1="375.33" x2="536.25" y2="377.74"/><line class="cls-4" x1="521.42" y1="375.33" x2="521.03" y2="375.33"/><line class="cls-4" x1="521.42" y1="377.74" x2="521.03" y2="377.74"/><line class="cls-4" x1="521.42" y1="375.33" x2="521.42" y2="377.74"/><line class="cls-4" x1="521.03" y1="375.33" x2="521.03" y2="377.74"/><line class="cls-4" x1="536.25" y1="377.74" x2="536.25" y2="392.58"/><line class="cls-4" x1="535.53" y1="377.74" x2="535.53" y2="392.58"/><line class="cls-4" x1="536.25" y1="392.58" x2="535.53" y2="392.58"/><line class="cls-4" x1="535.53" y1="377.74" x2="536.25" y2="377.74"/><polyline class="cls-4" points="521.41 377.74 521.46 378.59 521.5 379.48 521.71 380.75 522.05 381.98 522.43 383.17"/><line class="cls-4" x1="522.43" y1="383.17" x2="522.98" y2="384.35"/><line class="cls-4" x1="522.98" y1="384.36" x2="523.58" y2="385.46"/><line class="cls-4" x1="523.58" y1="385.46" x2="524.3" y2="386.52"/><polyline class="cls-4" points="524.3 386.52 525.1 387.49 525.95 388.43 526.93 389.27"/><polyline class="cls-4" points="526.92 389.27 527.94 390.04 529 390.67 530.15 391.26"/><polyline class="cls-4" points="530.15 391.26 531.33 391.73 532.56 392.11 533.79 392.37"/><polyline class="cls-4" points="533.79 392.37 535.06 392.54 536.25 392.58"/><line class="cls-4" x1="536.38" y1="375.33" x2="536.38" y2="375.03"/><line class="cls-4" x1="536.38" y1="375.03" x2="538.11" y2="375.03"/><line class="cls-4" x1="538.11" y1="375.33" x2="538.11" y2="375.03"/><line class="cls-4" x1="521.29" y1="375.33" x2="521.29" y2="375.03"/><line class="cls-4" x1="519.55" y1="375.03" x2="521.29" y2="375.03"/><line class="cls-4" x1="519.55" y1="375.33" x2="519.55" y2="375.03"/><line class="cls-4" x1="521.29" y1="377.74" x2="521.29" y2="378.04"/><line class="cls-4" x1="519.55" y1="378.04" x2="521.29" y2="378.04"/><line class="cls-4" x1="519.55" y1="377.74" x2="519.55" y2="378.04"/><polyline class="cls-4" points="536.38 377.74 536.38 378.04 538.11 378.04"/><line class="cls-4" x1="538.11" y1="377.74" x2="538.11" y2="378.04"/><line class="cls-3" x1="491.66" y1="411.51" x2="543.03" y2="411.51"/></g><g id="OPT_BED6_CLOSET" data-name="OPT BED6 CLOSET"><text class="cls-1" transform="translate(500.04 428.75)">OPT CLOSET</text><rect class="cls-10" x="487.82" y="429.05" width="1.87" height="6.49"/><rect class="cls-10" x="489.68" y="409.55" width="51.37" height="1.87"/><line class="cls-3" x1="541.05" y1="409.55" x2="489.68" y2="409.55"/><line class="cls-3" x1="489.68" y1="411.42" x2="541.05" y2="411.42"/><rect class="cls-10" x="487.82" y="408.98" width="1.87" height="4.62"/><line class="cls-3" x1="487.82" y1="409.41" x2="487.82" y2="413.55"/><line class="cls-3" x1="489.68" y1="413.55" x2="489.68" y2="409.41"/><line class="cls-3" x1="487.82" y1="429.05" x2="487.82" y2="435.53"/><line class="cls-3" x1="487.82" y1="429.05" x2="489.68" y2="429.05"/><line class="cls-3" x1="487.82" y1="413.41" x2="489.68" y2="413.41"/><line class="cls-3" x1="489.68" y1="435.53" x2="489.68" y2="429.05"/><line class="cls-3" x1="489.68" y1="413.41" x2="489.68" y2="411.42"/><rect class="cls-10" x="539.12" y="409.3" width="1.87" height="32.8"/><line class="cls-3" x1="539.12" y1="409.3" x2="539.12" y2="442.09"/><line class="cls-3" x1="540.99" y1="442.09" x2="540.99" y2="409.3"/><line class="cls-4" x1="487.56" y1="413.41" x2="487.56" y2="413.79"/><line class="cls-4" x1="489.94" y1="413.41" x2="489.94" y2="413.79"/><line class="cls-4" x1="487.56" y1="413.41" x2="489.94" y2="413.41"/><line class="cls-4" x1="487.56" y1="413.79" x2="489.94" y2="413.79"/><line class="cls-4" x1="487.56" y1="428.63" x2="487.56" y2="429.05"/><line class="cls-4" x1="489.94" y1="428.63" x2="489.94" y2="429.05"/><line class="cls-4" x1="487.56" y1="428.63" x2="489.94" y2="428.63"/><line class="cls-4" x1="487.56" y1="429.05" x2="489.94" y2="429.05"/><line class="cls-4" x1="489.94" y1="413.79" x2="504.77" y2="413.79"/><line class="cls-4" x1="489.94" y1="414.55" x2="504.77" y2="414.55"/><line class="cls-4" x1="504.77" y1="413.79" x2="504.77" y2="414.55"/><line class="cls-4" x1="489.94" y1="414.55" x2="489.94" y2="413.79"/><polyline class="cls-4" points="489.94 428.63 491.08 428.58 492.35 428.45"/><line class="cls-4" x1="492.35" y1="428.46" x2="493.58" y2="428.2"/><line class="cls-4" x1="493.58" y1="428.2" x2="494.81" y2="427.82"/><line class="cls-4" x1="494.81" y1="427.82" x2="496" y2="427.35"/><line class="cls-4" x1="496" y1="427.35" x2="497.1" y2="426.8"/><line class="cls-4" x1="497.1" y1="426.8" x2="498.2" y2="426.13"/><polyline class="cls-4" points="498.2 426.12 499.22 425.36 500.19 424.56 501.08 423.62"/><polyline class="cls-4" points="501.08 423.62 501.85 422.65 502.57 421.59"/><line class="cls-4" x1="502.57" y1="421.59" x2="503.2" y2="420.49"/><line class="cls-4" x1="503.2" y1="420.49" x2="503.71" y2="419.3"/><line class="cls-4" x1="503.71" y1="419.3" x2="504.13" y2="418.11"/><line class="cls-4" x1="504.14" y1="418.11" x2="504.47" y2="416.89"/><polyline class="cls-4" points="504.48 416.88 504.69 415.61 504.77 414.72"/><line class="cls-4" x1="504.77" y1="414.72" x2="504.77" y2="413.79"/><polyline class="cls-4" points="487.56 413.66 487.22 413.66 487.22 411.97"/><line class="cls-4" x1="487.56" y1="411.97" x2="487.22" y2="411.97"/><line class="cls-4" x1="487.56" y1="428.8" x2="487.22" y2="428.8"/><line class="cls-4" x1="487.22" y1="430.49" x2="487.22" y2="428.8"/><line class="cls-4" x1="487.56" y1="430.49" x2="487.22" y2="430.49"/><line class="cls-4" x1="489.94" y1="428.8" x2="490.28" y2="428.8"/><line class="cls-4" x1="490.28" y1="430.49" x2="490.28" y2="428.8"/><line class="cls-4" x1="489.94" y1="430.49" x2="490.28" y2="430.49"/><line class="cls-4" x1="489.94" y1="413.66" x2="490.28" y2="413.66"/><line class="cls-4" x1="490.28" y1="413.66" x2="490.28" y2="411.97"/><line class="cls-4" x1="489.94" y1="411.97" x2="490.28" y2="411.97"/></g></g><g id="OPT._REC_ROOM" data-name="OPT. REC ROOM"><text class="cls-29" transform="translate(532.85 252.11)">39′-3″ X 17′-9″</text><text class="cls-30" transform="translate(526.6 244.23)">O<tspan class="cls-31" x="5.08" y="0">P</tspan><tspan class="cls-26" x="9.41" y="0">T</tspan><tspan class="cls-32" x="13.31" y="0">.</tspan><tspan class="cls-6" x="15.17" y="0"> </tspan><tspan class="cls-33" x="16.97" y="0">REC ROOM</tspan></text></g></g></svg>