<svg id="图层_1" data-name="图层 1" xmlns="http://www.w3.org/2000/svg" viewBox="0 0 1152 576">
    <defs>
        <style>
            .cls-1{font-size:6.6px;font-family:CenturyGothic, Century
            Gothic;}.cls-1,.cls-5{fill:#0f5a83;}.cls-2,.cls-4{fill:#fff;}.cls-3,.cls-6{fill:none;stroke:#0f5a83;stroke-linecap:round;stroke-linejoin:bevel;}.cls-3{stroke-width:0.24px;}.cls-4{fill-rule:evenodd;}.cls-6{stroke-width:0.46px;}</style>
    </defs>
    <title>opt .fireplace-2_画板 1 副本</title>
    <g id="opt_.fireplace" data-name="opt .fireplace">
        <text class="cls-1" transform="translate(499.3 245.49)">
            <tspan xml:space="preserve"> OPT</tspan>
        </text>
        <rect class="cls-2" x="499.79" y="231.05" width="12.14" height="30" />
        <polyline class="cls-3" points="499.79 231.04 511.93 231.04 511.93 261.05" />
        <line class="cls-3" x1="511.93" y1="261.05" x2="499.79" y2="261.05" />
        <polyline class="cls-3" points="499.79 232.48 510.45 232.48 510.17 232.75" />
        <line class="cls-3" x1="510.17" y1="232.75" x2="499.79" y2="232.75" />
        <polyline class="cls-3" points="499.79 259.29 510.17 259.29 510.45 259.57" />
        <polyline class="cls-3" points="510.45 232.48 510.45 259.57 499.79 259.57" />
        <line class="cls-3" x1="510.17" y1="259.29" x2="510.17" y2="232.75" />
        <line class="cls-3" x1="510.17" y1="254.68" x2="500.39" y2="254.68" />
        <line class="cls-3" x1="500.39" y1="237.37" x2="510.17" y2="237.37" />
        <polyline class="cls-3" points="511.61 260.72 511.93 261.05 499.79 261.05" />
        <polyline class="cls-3"
            points="499.79 231.04 511.93 231.04 511.61 231.32 511.61 260.72 499.79 260.72" />
        <line class="cls-3" x1="499.79" y1="231.32" x2="511.61" y2="231.32" />
        <line class="cls-3" x1="511.93" y1="231.05" x2="511.93" y2="261.05" />
        <line class="cls-3" x1="499.79" y1="231.46" x2="511.47" y2="231.46" />
        <line class="cls-3" x1="511.47" y1="260.59" x2="499.79" y2="260.59" />
        <rect class="cls-2" x="509.3" y="237.65" width="0.88" height="16.76" />
        <line class="cls-3" x1="509.3" y1="237.65" x2="510.17" y2="237.65" />
        <polyline class="cls-3" points="510.17 237.65 510.17 254.4 509.3 254.4 509.3 237.65" />
        <line class="cls-3" x1="509.9" y1="237.65" x2="509.9" y2="254.4" />
        <polyline class="cls-3" points="510.17 254.4 509.3 254.4 509.3 237.65" />
        <line class="cls-3" x1="509.3" y1="237.65" x2="510.17" y2="237.65" />
        <line class="cls-3" x1="510.17" y1="237.37" x2="510.17" y2="254.68" />
        <polyline class="cls-4"
            points="507.27 251.82 507.27 238.38 509.25 238.38 509.25 253.75 507.27 253.75" />
        <polyline class="cls-3" points="507.27 238.38 509.25 238.38 509.25 253.75" />
        <line class="cls-3" x1="509.25" y1="253.75" x2="507.27" y2="253.75" />
        <polyline class="cls-3" points="507.27 238.38 509.25 238.38 509.25 253.75" />
        <line class="cls-3" x1="509.25" y1="253.75" x2="507.27" y2="253.75" />
        <line class="cls-3" x1="510.17" y1="246.74" x2="510.22" y2="246.78" />
        <line class="cls-3" x1="510.22" y1="247.02" x2="510.17" y2="247.02" />
        <rect class="cls-2" x="510.22" y="246.83" width="0.14" height="0.14" />
        <polygon class="cls-2"
            points="510.41 246.6 510.36 246.83 510.36 246.97 510.41 247.2 510.59 247.2 510.63 247.01 510.63 246.78 510.59 246.6 510.41 246.6" />
        <line class="cls-3" x1="510.22" y1="246.83" x2="510.36" y2="246.83" />
        <line class="cls-3" x1="510.36" y1="246.83" x2="510.41" y2="246.6" />
        <polyline class="cls-3"
            points="510.4 246.6 510.59 246.6 510.63 246.78 510.63 247.01 510.59 247.2" />
        <line class="cls-3" x1="510.59" y1="247.2" x2="510.41" y2="247.2" />
        <polyline class="cls-3" points="510.4 247.2 510.36 246.97 510.22 246.97" />
        <line class="cls-3" x1="510.22" y1="246.97" x2="510.22" y2="246.83" />
        <polygon class="cls-2"
            points="510.17 246.55 510.17 247.25 510.22 247.2 510.22 246.55 510.17 246.55" />
        <polyline class="cls-3" points="510.17 247.25 510.17 246.55 510.22 246.55 510.22 247.2" />
        <line class="cls-3" x1="510.22" y1="247.2" x2="510.17" y2="247.25" />
        <line class="cls-3" x1="510.4" y1="247.2" x2="510.4" y2="246.6" />
        <line class="cls-3" x1="510.59" y1="246.6" x2="510.59" y2="247.2" />
        <line class="cls-3" x1="510.17" y1="245.08" x2="510.22" y2="245.12" />
        <line class="cls-3" x1="510.22" y1="245.35" x2="510.17" y2="245.35" />
        <rect class="cls-2" x="510.22" y="245.17" width="0.14" height="0.14" />
        <polygon class="cls-2"
            points="510.41 244.94 510.36 245.17 510.36 245.31 510.41 245.54 510.59 245.54 510.63 245.35 510.63 245.12 510.59 244.94 510.41 244.94" />
        <line class="cls-3" x1="510.22" y1="245.17" x2="510.36" y2="245.17" />
        <line class="cls-3" x1="510.36" y1="245.17" x2="510.41" y2="244.94" />
        <polyline class="cls-3" points="510.4 244.94 510.59 244.94 510.63 245.12 510.63 245.35" />
        <polyline class="cls-3" points="510.63 245.35 510.59 245.54 510.4 245.54" />
        <line class="cls-3" x1="510.4" y1="245.54" x2="510.36" y2="245.31" />
        <line class="cls-3" x1="510.36" y1="245.31" x2="510.22" y2="245.31" />
        <line class="cls-3" x1="510.22" y1="245.31" x2="510.22" y2="245.17" />
        <polygon class="cls-2"
            points="510.17 244.89 510.17 245.58 510.22 245.54 510.22 244.89 510.17 244.89" />
        <polyline class="cls-3"
            points="510.17 245.58 510.17 244.89 510.22 244.89 510.22 245.54 510.17 245.58" />
        <line class="cls-3" x1="510.4" y1="245.54" x2="510.4" y2="244.94" />
        <line class="cls-3" x1="510.59" y1="244.94" x2="510.59" y2="245.54" />
        <line class="cls-3" x1="511.93" y1="231.05" x2="511.93" y2="238.29" />
        <line class="cls-3" x1="511.93" y1="241.62" x2="511.93" y2="248.26" />
        <line class="cls-3" x1="511.93" y1="251.59" x2="511.93" y2="261.05" />
        <line class="cls-3" x1="504.91" y1="261.05" x2="511.93" y2="261.05" />
        <path class="cls-5"
            d="M516.42,232a1.62,1.62,0,0,1-.48,1.19,1.59,1.59,0,0,1-1.17.48,1.62,1.62,0,0,1-1.17-.47,1.66,1.66,0,0,1,1.15-2.84,1.75,1.75,0,0,1,.84.22,1.67,1.67,0,0,1,.61.6,1.65,1.65,0,0,1,.22.82m-.31,0a1.31,1.31,0,0,0-.18-.66,1.35,1.35,0,0,0-.49-.49,1.47,1.47,0,0,0-.69-.17,1.33,1.33,0,0,0-1.33,1.32,1.33,1.33,0,0,0,.18.68,1.23,1.23,0,0,0,.48.48,1.37,1.37,0,0,0,.69.18,1.27,1.27,0,0,0,.67-.18,1.22,1.22,0,0,0,.49-.49,1.32,1.32,0,0,0,.18-.67" />
        <path class="cls-5"
            d="M516.34,234.26v.63a3.51,3.51,0,0,1-.05.72.8.8,0,0,1-.27.44.76.76,0,0,1-.52.17.81.81,0,0,1-.52-.16.74.74,0,0,1-.27-.46,3.66,3.66,0,0,1-.05-.8v-.22h-1.47v-.32m2.84.32H515v.53a1.37,1.37,0,0,0,.06.47.42.42,0,0,0,.18.23.53.53,0,0,0,.3.09.52.52,0,0,0,.29-.09.43.43,0,0,0,.18-.22,1.27,1.27,0,0,0,.06-.46Z" />
        <polyline class="cls-5"
            points="516.03 236.54 516.34 236.54 516.34 238.26 516.03 238.26 516.03 237.56 513.19 237.56 513.19 237.24 516.03 237.24" />
        <polyline class="cls-5"
            points="516.34 239.93 516.34 241.5 516.03 241.5 516.03 240.24 515.04 240.24 515.04 241.5 514.74 241.5 514.74 240.24 513.19 240.24 513.19 239.93" />
        <rect class="cls-5" x="513.19" y="242" width="3.14" height="0.31" />
        <path class="cls-5"
            d="M516.34,243.05v.63a3.54,3.54,0,0,1-.05.71.75.75,0,0,1-.27.45.77.77,0,0,1-.52.18.84.84,0,0,1-.45-.12.79.79,0,0,1-.3-.35,1.66,1.66,0,0,1-.1-.62l-1.46,1.13v-.39l1.46-1.12v-.18h-1.46v-.32m2.84.32H515v.54a1.3,1.3,0,0,0,.06.46.46.46,0,0,0,.19.24.57.57,0,0,0,.58,0,.48.48,0,0,0,.18-.22,1.33,1.33,0,0,0,.06-.47Z" />
        <polyline class="cls-5"
            points="516.34 245.69 516.34 247.5 516.03 247.5 516.03 246.01 515.04 246.01 515.04 247.48 514.74 247.48 514.74 246.01 513.5 246.01 513.5 247.48 513.19 247.48 513.19 245.69" />
        <path class="cls-5"
            d="M516.34,248v.62a3.71,3.71,0,0,1-.05.73.84.84,0,0,1-.27.44.88.88,0,0,1-1,0,.74.74,0,0,1-.27-.46,3.66,3.66,0,0,1-.05-.8v-.22h-1.47V248m2.84.31H515v.53a1.33,1.33,0,0,0,.06.47.48.48,0,0,0,.18.24.52.52,0,0,0,.3.08.51.51,0,0,0,.29-.08.46.46,0,0,0,.18-.23,1.23,1.23,0,0,0,.06-.46Z" />
        <polyline class="cls-5"
            points="516.34 250.63 516.34 250.94 513.5 250.94 513.5 252.15 513.19 252.15 513.19 250.63" />
        <path class="cls-5"
            d="M516.34,253.93l-3.15,1.47v-.34l1-.5v-1.35l-1-.49v-.35l3.15,1.48m-.67,0-1.14-.54v1.08Z" />
        <path class="cls-5"
            d="M515.75,258.81l-.19-.25a1.36,1.36,0,0,0,.41-.49,1.46,1.46,0,0,0,.14-.63,1.34,1.34,0,0,0-.19-.7,1.28,1.28,0,0,0-.48-.5,1.4,1.4,0,0,0-.68-.17,1.27,1.27,0,0,0-1,.39,1.45,1.45,0,0,0,.13,2.1l-.19.25a1.58,1.58,0,0,1-.46-.59,1.78,1.78,0,0,1-.16-.78,1.63,1.63,0,0,1,.54-1.3,1.66,1.66,0,0,1,1.12-.4,1.55,1.55,0,0,1,1.16.48,1.65,1.65,0,0,1,.48,1.21,1.74,1.74,0,0,1-.18.8,1.45,1.45,0,0,1-.49.58" />
        <polyline class="cls-5"
            points="516.34 259.44 516.34 261.24 516.03 261.24 516.03 259.75 515.04 259.75 515.04 261.23 514.74 261.23 514.74 259.75 513.5 259.75 513.5 261.23 513.19 261.23 513.19 259.44" />
        <rect class="cls-2" x="499.65" y="232.11" width="10.99" height="27.17" />
        <polyline class="cls-3" points="499.65 232.11 510.64 232.11 510.64 259.28 499.65 259.28" />
        <line class="cls-6" x1="499.65" y1="259.28" x2="499.65" y2="232.11" />
        <polyline class="cls-3" points="499.65 233.45 509.3 233.45 509.05 233.7 499.65 233.7" />
        <polyline class="cls-3" points="499.65 257.73 509.05 257.73 509.3 257.98" />
        <line class="cls-3" x1="509.3" y1="233.45" x2="509.3" y2="257.98" />
        <line class="cls-3" x1="509.3" y1="257.98" x2="499.65" y2="257.98" />
        <line class="cls-3" x1="509.05" y1="257.73" x2="509.05" y2="233.7" />
        <line class="cls-3" x1="509.05" y1="253.55" x2="500.19" y2="253.55" />
        <line class="cls-6" x1="500.19" y1="253.55" x2="500.19" y2="237.88" />
        <line class="cls-3" x1="500.19" y1="237.88" x2="509.05" y2="237.88" />
        <polyline class="cls-3" points="510.35 259.03 510.64 259.28 499.65 259.28" />
        <line class="cls-6" x1="499.65" y1="259.28" x2="499.65" y2="232.11" />
        <polyline class="cls-3" points="499.65 232.11 510.64 232.11 510.35 232.4" />
        <line class="cls-3" x1="510.35" y1="232.4" x2="510.35" y2="259.03" />
        <line class="cls-3" x1="510.35" y1="259.03" x2="499.65" y2="259.03" />
        <line class="cls-3" x1="499.65" y1="232.4" x2="510.35" y2="232.4" />
        <line class="cls-3" x1="510.64" y1="232.11" x2="510.64" y2="259.28" />
        <rect class="cls-2" x="499.65" y="232.53" width="10.58" height="26.38" />
        <line class="cls-6" x1="499.65" y1="258.9" x2="499.65" y2="232.53" />
        <polyline class="cls-3" points="499.65 232.53 510.22 232.53 510.22 258.9" />
        <line class="cls-3" x1="510.22" y1="258.9" x2="499.65" y2="258.9" />
        <rect class="cls-2" x="508.26" y="238.13" width="0.79" height="15.17" />
        <rect class="cls-3" x="508.26" y="238.13" width="0.79" height="15.17" />
        <line class="cls-3" x1="508.8" y1="238.13" x2="508.8" y2="253.3" />
        <polyline class="cls-3" points="509.05 253.3 508.26 253.3 508.26 238.13 509.05 238.13" />
        <line class="cls-3" x1="509.05" y1="237.88" x2="509.05" y2="253.55" />
        <rect class="cls-2" x="502.57" y="238.8" width="3.68" height="13.88" />
        <rect class="cls-2" x="506.25" y="240.51" width="0.13" height="10.45" />
        <polyline class="cls-4"
            points="506.38 250.96 506.38 238.8 508.22 238.8 508.22 252.68 506.38 252.68" />
        <polyline class="cls-3"
            points="502.57 238.8 506.25 238.8 506.25 240.51 506.38 240.51 506.38 238.8" />
        <polyline class="cls-3"
            points="506.38 238.8 508.22 238.8 508.22 252.68 506.38 252.68 506.38 250.96 506.25 250.96 506.25 252.68 502.57 252.68" />
        <line class="cls-3" x1="502.57" y1="252.68" x2="502.57" y2="238.8" />
        <line class="cls-3" x1="507.13" y1="250.96" x2="504.62" y2="250.96" />
        <polyline class="cls-3" points="504.62 250.96 504.62 240.51 507.13 240.51 507.13 250.96" />
        <line class="cls-3" x1="504.41" y1="238.8" x2="504.41" y2="252.68" />
        <polyline class="cls-3"
            points="506.38 238.8 508.22 238.8 508.22 252.68 506.38 252.68 506.38 250.96" />
        <polyline class="cls-3" points="506.25 250.96 506.25 252.68 502.57 252.68" />
        <polyline class="cls-3" points="502.57 252.68 502.57 238.8 506.25 238.8 506.25 240.51" />
        <line class="cls-3" x1="506.38" y1="240.51" x2="506.38" y2="238.8" />
        <rect class="cls-2" x="509.05" y="246.41" width="0.17" height="0.17" />
        <polyline class="cls-4"
            points="509.22 246.57 509.22 246.24 509.43 246.24 509.47 246.41 509.47 246.62 509.43 246.74 509.22 246.74" />
        <polyline class="cls-3"
            points="509.05 246.41 509.22 246.41 509.22 246.24 509.43 246.24 509.47 246.41" />
        <polyline class="cls-3"
            points="509.47 246.41 509.47 246.62 509.43 246.74 509.22 246.74 509.22 246.57 509.05 246.57 509.05 246.41" />
        <polyline class="cls-3"
            points="509.05 246.82 509.05 246.16 509.05 246.2 509.05 246.78 509.05 246.82" />
        <line class="cls-3" x1="509.22" y1="246.74" x2="509.22" y2="246.24" />
        <line class="cls-3" x1="509.43" y1="246.24" x2="509.43" y2="246.74" />
        <rect class="cls-2" x="509.05" y="244.9" width="0.17" height="0.13" />
        <polyline class="cls-4"
            points="509.22 245.03 509.22 244.73 509.43 244.73 509.47 244.86 509.47 245.07 509.43 245.24 509.22 245.24" />
        <polyline class="cls-3"
            points="509.05 244.9 509.22 244.9 509.22 244.73 509.43 244.73 509.47 244.86 509.47 245.07 509.43 245.23 509.22 245.23 509.22 245.03 509.05 245.03 509.05 244.9" />
        <polyline class="cls-3" points="509.05 245.28 509.05 244.65 509.05 244.69 509.05 245.28" />
        <line class="cls-3" x1="509.22" y1="245.23" x2="509.22" y2="244.73" />
        <line class="cls-3" x1="509.43" y1="244.73" x2="509.43" y2="245.24" />
        <line class="cls-3" x1="499.65" y1="232.11" x2="501.32" y2="232.11" />
        <line class="cls-3" x1="510.64" y1="232.11" x2="510.64" y2="238.34" />
        <line class="cls-3" x1="510.64" y1="241.35" x2="510.64" y2="253.39" />
        <line class="cls-3" x1="510.64" y1="256.4" x2="510.64" y2="259.28" />
        <line class="cls-3" x1="499.65" y1="259.28" x2="501.32" y2="259.28" />
        <line class="cls-3" x1="504.33" y1="259.28" x2="510.64" y2="259.28" />
    </g>
</svg>