<svg id="图层_1" data-name="图层 1" xmlns="http://www.w3.org/2000/svg" viewBox="0 0 1152 576"><defs><style>.cls-1,.cls-3{fill:#fff;}.cls-2{fill:none;stroke:#0f577e;stroke-linecap:round;stroke-linejoin:bevel;stroke-width:0.24px;}.cls-3{fill-rule:evenodd;}.cls-4,.cls-5{font-size:6.5px;fill:#0f577e;font-family:CenturyGothic, Century Gothic;}.cls-5{letter-spacing:-0.09em;}.cls-6{letter-spacing:0.07em;}.cls-7{letter-spacing:0.17em;}.cls-8{letter-spacing:0.01em;}.cls-9{letter-spacing:0em;}.cls-10{letter-spacing:-0.02em;}</style></defs><title>OPT .fireplace-2</title><g id="OPT_.fireplace-2" data-name="OPT .fireplace-2"><rect class="cls-1" x="521.35" y="173.58" width="28.2" height="11.41"/><polyline class="cls-2" points="549.55 173.58 549.55 184.99 521.35 184.99 521.35 173.58"/><polyline class="cls-2" points="548.16 173.58 548.16 183.6 547.9 183.34"/><line class="cls-2" x1="547.9" y1="183.34" x2="547.9" y2="173.58"/><line class="cls-2" x1="522.95" y1="173.58" x2="522.95" y2="183.34"/><line class="cls-2" x1="522.95" y1="183.34" x2="522.69" y2="183.6"/><line class="cls-2" x1="548.16" y1="183.6" x2="522.69" y2="183.6"/><line class="cls-2" x1="522.69" y1="183.6" x2="522.69" y2="173.58"/><line class="cls-2" x1="522.95" y1="183.34" x2="547.9" y2="183.34"/><line class="cls-2" x1="527.29" y1="183.34" x2="527.29" y2="174.14"/><line class="cls-2" x1="543.56" y1="174.14" x2="543.56" y2="183.34"/><line class="cls-2" x1="521.61" y1="184.69" x2="521.34" y2="184.99"/><line class="cls-2" x1="521.35" y1="184.99" x2="521.35" y2="173.58"/><polyline class="cls-2" points="549.55 173.58 549.55 184.99 549.25 184.69"/><polyline class="cls-2" points="549.25 184.69 521.61 184.69 521.61 173.58"/><line class="cls-2" x1="549.25" y1="173.58" x2="549.25" y2="184.69"/><line class="cls-2" x1="549.55" y1="184.99" x2="521.35" y2="184.99"/><rect class="cls-1" x="521.74" y="173.58" width="27.38" height="10.98"/><polyline class="cls-2" points="549.12 173.58 549.12 184.56 521.74 184.56 521.74 173.58"/><rect class="cls-1" x="527.55" y="182.52" width="15.75" height="0.82"/><rect class="cls-2" x="527.55" y="182.52" width="15.75" height="0.82"/><line class="cls-2" x1="543.3" y1="183.08" x2="527.55" y2="183.08"/><polyline class="cls-2" points="527.55 183.34 527.55 182.52 543.3 182.52 543.3 183.34"/><line class="cls-2" x1="543.56" y1="183.34" x2="527.29" y2="183.34"/><rect class="cls-1" x="528.2" y="176.62" width="14.41" height="3.82"/><rect class="cls-1" x="529.98" y="180.44" width="10.85" height="0.13"/><polyline class="cls-3" points="529.98 180.57 542.61 180.57 542.61 182.48 528.2 182.48 528.2 180.57"/><polyline class="cls-2" points="542.61 176.62 542.61 180.44 540.83 180.44"/><polyline class="cls-2" points="540.83 180.44 540.83 180.57 542.61 180.57 542.61 182.48 528.2 182.48 528.2 180.57 529.98 180.57 529.98 180.44 528.2 180.44 528.2 176.62"/><line class="cls-2" x1="528.2" y1="175.1" x2="542.61" y2="175.1"/><polyline class="cls-2" points="529.98 181.35 529.98 178.74 540.83 178.74"/><polyline class="cls-2" points="540.83 178.74 540.83 181.35 529.98 181.35"/><line class="cls-2" x1="542.61" y1="178.53" x2="528.2" y2="178.53"/><polyline class="cls-2" points="542.61 180.57 542.61 182.48 528.2 182.48 528.2 180.57 529.98 180.57"/><polyline class="cls-2" points="529.98 180.44 528.2 180.44 528.2 176.62"/><line class="cls-2" x1="528.2" y1="175.1" x2="542.61" y2="175.1"/><polyline class="cls-2" points="542.61 176.62 542.61 180.44 540.83 180.44"/><line class="cls-2" x1="540.83" y1="180.57" x2="542.61" y2="180.57"/><rect class="cls-1" x="534.54" y="183.34" width="0.17" height="0.17"/><polygon class="cls-1" points="534.54 183.52 534.36 183.52 534.36 183.73 534.49 183.78 534.71 183.78 534.88 183.73 534.88 183.52 534.54 183.52"/><polyline class="cls-2" points="534.71 183.34 534.71 183.52 534.88 183.52 534.88 183.73 534.71 183.78 534.49 183.78"/><line class="cls-2" x1="534.49" y1="183.78" x2="534.36" y2="183.73"/><line class="cls-2" x1="534.36" y1="183.73" x2="534.36" y2="183.52"/><polyline class="cls-2" points="534.36 183.52 534.54 183.52 534.54 183.34 534.71 183.34"/><line class="cls-2" x1="534.28" y1="183.34" x2="534.97" y2="183.34"/><polyline class="cls-2" points="534.97 183.34 534.93 183.34 534.32 183.34 534.28 183.34"/><line class="cls-2" x1="534.36" y1="183.52" x2="534.88" y2="183.52"/><line class="cls-2" x1="534.88" y1="183.73" x2="534.36" y2="183.73"/><rect class="cls-1" x="536.14" y="183.34" width="0.13" height="0.17"/><polygon class="cls-1" points="536.14 183.52 535.93 183.52 535.93 183.73 536.1 183.78 536.32 183.78 536.45 183.73 536.45 183.52 536.14 183.52"/><polyline class="cls-2" points="536.27 183.34 536.27 183.52 536.45 183.52 536.45 183.73 536.32 183.78 536.1 183.78 535.93 183.73 535.93 183.52"/><polyline class="cls-2" points="535.93 183.52 536.14 183.52 536.14 183.34 536.27 183.34"/><polyline class="cls-2" points="535.88 183.34 536.53 183.34 536.49 183.34 535.88 183.34"/><line class="cls-2" x1="535.93" y1="183.52" x2="536.45" y2="183.52"/><line class="cls-2" x1="536.45" y1="183.73" x2="535.93" y2="183.73"/><line class="cls-2" x1="549.55" y1="172.07" x2="549.55" y2="173.8"/><line class="cls-2" x1="549.55" y1="184.99" x2="543.09" y2="184.99"/><line class="cls-2" x1="539.96" y1="184.99" x2="527.46" y2="184.99"/><line class="cls-2" x1="524.34" y1="184.99" x2="521.34" y2="184.99"/><line class="cls-2" x1="521.35" y1="172.07" x2="521.35" y2="173.8"/><line class="cls-2" x1="521.35" y1="178.44" x2="521.35" y2="184.99"/><text class="cls-4" transform="translate(533.92 172.6) rotate(90)"><tspan xml:space="preserve"> OPT</tspan></text><rect class="cls-1" x="517.78" y="173.11" width="31.15" height="12.6"/><polyline class="cls-2" points="548.92 173.12 548.92 185.72 517.78 185.72"/><line class="cls-2" x1="517.77" y1="185.72" x2="517.77" y2="173.11"/><polyline class="cls-2" points="547.44 173.12 547.44 184.18 547.15 183.9"/><line class="cls-2" x1="547.15" y1="183.9" x2="547.15" y2="173.11"/><polyline class="cls-2" points="519.6 173.12 519.6 183.9 519.31 184.18"/><polyline class="cls-2" points="547.44 184.18 519.31 184.18 519.31 173.12"/><line class="cls-2" x1="519.6" y1="183.9" x2="547.15" y2="183.9"/><line class="cls-2" x1="524.39" y1="183.9" x2="524.39" y2="173.74"/><line class="cls-2" x1="542.36" y1="173.74" x2="542.36" y2="183.9"/><polyline class="cls-2" points="518.11 185.38 517.77 185.72 517.77 173.12"/><polyline class="cls-2" points="548.92 173.12 548.92 185.72 548.63 185.38 518.11 185.38 518.11 173.12"/><line class="cls-2" x1="548.63" y1="173.11" x2="548.63" y2="185.38"/><line class="cls-2" x1="548.92" y1="185.72" x2="517.78" y2="185.72"/><line class="cls-2" x1="548.49" y1="173.11" x2="548.49" y2="185.24"/><line class="cls-2" x1="518.25" y1="185.24" x2="518.25" y2="173.11"/><rect class="cls-1" x="524.68" y="182.98" width="17.39" height="0.91"/><polyline class="cls-2" points="542.07 182.99 542.07 183.9 524.68 183.9 524.68 182.99 542.07 182.99"/><line class="cls-2" x1="542.07" y1="183.61" x2="524.68" y2="183.61"/><polyline class="cls-2" points="524.68 183.9 524.68 182.99 542.07 182.99"/><line class="cls-2" x1="542.07" y1="182.99" x2="542.07" y2="183.9"/><line class="cls-2" x1="542.36" y1="183.9" x2="524.39" y2="183.9"/><polyline class="cls-3" points="527.36 180.88 541.3 180.88 541.3 182.94 525.35 182.94 525.35 180.88"/><polyline class="cls-2" points="541.3 180.88 541.3 182.94 525.35 182.94 525.35 180.88"/><polyline class="cls-2" points="541.3 180.88 541.3 182.94 525.35 182.94 525.35 180.88"/><line class="cls-2" x1="532.63" y1="183.9" x2="532.58" y2="183.94"/><line class="cls-2" x1="532.34" y1="183.94" x2="532.34" y2="183.9"/><rect class="cls-1" x="532.39" y="183.94" width="0.14" height="0.14"/><polygon class="cls-1" points="532.39 184.09 532.15 184.14 532.15 184.33 532.34 184.38 532.58 184.38 532.77 184.33 532.77 184.14 532.53 184.09 532.39 184.09"/><polyline class="cls-2" points="532.53 183.94 532.53 184.09 532.77 184.14 532.77 184.33 532.58 184.38 532.34 184.38 532.15 184.33"/><polyline class="cls-2" points="532.15 184.33 532.15 184.14 532.39 184.09"/><polyline class="cls-2" points="532.39 184.09 532.39 183.94 532.53 183.94"/><polygon class="cls-1" points="532.1 183.9 532.15 183.94 532.82 183.94 532.82 183.9 532.1 183.9"/><polyline class="cls-2" points="532.1 183.9 532.82 183.9 532.82 183.94 532.15 183.94 532.1 183.9"/><line class="cls-2" x1="532.15" y1="184.14" x2="532.77" y2="184.14"/><line class="cls-2" x1="532.77" y1="184.33" x2="532.15" y2="184.33"/><line class="cls-2" x1="534.35" y1="183.9" x2="534.31" y2="183.94"/><line class="cls-2" x1="534.07" y1="183.94" x2="534.07" y2="183.9"/><rect class="cls-1" x="534.12" y="183.94" width="0.14" height="0.14"/><polygon class="cls-1" points="534.12 184.09 533.88 184.14 533.88 184.33 534.07 184.38 534.31 184.38 534.5 184.33 534.5 184.14 534.26 184.09 534.12 184.09"/><polyline class="cls-2" points="534.26 183.94 534.26 184.09 534.5 184.14 534.5 184.33 534.31 184.38 534.07 184.38 533.88 184.33"/><polyline class="cls-2" points="533.88 184.33 533.88 184.14 534.12 184.09"/><polyline class="cls-2" points="534.12 184.09 534.12 183.94 534.26 183.94"/><polygon class="cls-1" points="533.83 183.9 533.88 183.94 534.55 183.94 534.55 183.9 533.83 183.9"/><polyline class="cls-2" points="533.83 183.9 534.55 183.9 534.55 183.94 533.88 183.94"/><line class="cls-2" x1="533.88" y1="183.94" x2="533.83" y2="183.9"/><line class="cls-2" x1="533.88" y1="184.14" x2="534.5" y2="184.14"/><line class="cls-2" x1="534.5" y1="184.33" x2="533.88" y2="184.33"/><line class="cls-2" x1="548.92" y1="185.72" x2="541.4" y2="185.72"/><line class="cls-2" x1="537.95" y1="185.72" x2="531.05" y2="185.72"/><line class="cls-2" x1="527.6" y1="185.72" x2="517.77" y2="185.72"/><line class="cls-2" x1="517.77" y1="178.43" x2="517.77" y2="185.72"/><text class="cls-5" transform="translate(510 191.39)">O<tspan class="cls-6" x="5.08" y="0">P</tspan><tspan class="cls-7" x="9.41" y="0">T</tspan><tspan class="cls-8" x="13.31" y="0">.</tspan><tspan class="cls-9" x="15.17" y="0"> </tspan><tspan class="cls-10" x="16.97" y="0">FIREPLACE</tspan></text></g></svg>