<svg id="图层_1" data-name="图层 1" xmlns="http://www.w3.org/2000/svg" viewBox="0 0 1152 576"><defs><style>.cls-1,.cls-3{fill:#fff;}.cls-2{fill:none;stroke:#0f577e;stroke-linecap:round;stroke-linejoin:bevel;stroke-width:0.24px;}.cls-3{fill-rule:evenodd;}.cls-4,.cls-5{font-size:6.5px;fill:#0f577e;font-family:CenturyGothic, Century Gothic;}.cls-5{letter-spacing:-0.09em;}.cls-6{letter-spacing:0.07em;}.cls-7{letter-spacing:0.17em;}.cls-8{letter-spacing:0.01em;}.cls-9{letter-spacing:0em;}.cls-10{letter-spacing:-0.02em;}</style></defs><title>OPT .fireplace</title><g id="OPT_.fireplace" data-name="OPT .fireplace"><rect class="cls-1" x="521.35" y="187.61" width="28.2" height="11.41"/><polyline class="cls-2" points="549.55 187.61 549.55 199.02 521.35 199.02 521.35 187.61"/><polyline class="cls-2" points="548.16 187.61 548.16 197.63 547.9 197.37"/><line class="cls-2" x1="547.9" y1="197.37" x2="547.9" y2="187.61"/><line class="cls-2" x1="522.95" y1="187.61" x2="522.95" y2="197.37"/><line class="cls-2" x1="522.95" y1="197.37" x2="522.69" y2="197.63"/><line class="cls-2" x1="548.16" y1="197.63" x2="522.69" y2="197.63"/><line class="cls-2" x1="522.69" y1="197.63" x2="522.69" y2="187.61"/><line class="cls-2" x1="522.95" y1="197.37" x2="547.9" y2="197.37"/><line class="cls-2" x1="527.29" y1="197.37" x2="527.29" y2="188.17"/><line class="cls-2" x1="543.56" y1="188.17" x2="543.56" y2="197.37"/><line class="cls-2" x1="521.61" y1="198.72" x2="521.34" y2="199.02"/><line class="cls-2" x1="521.35" y1="199.02" x2="521.35" y2="187.61"/><polyline class="cls-2" points="549.55 187.61 549.55 199.02 549.25 198.72"/><polyline class="cls-2" points="549.25 198.72 521.61 198.72 521.61 187.61"/><line class="cls-2" x1="549.25" y1="187.61" x2="549.25" y2="198.72"/><line class="cls-2" x1="549.55" y1="199.02" x2="521.35" y2="199.02"/><rect class="cls-1" x="521.74" y="187.61" width="27.38" height="10.98"/><polyline class="cls-2" points="549.12 187.61 549.12 198.59 521.74 198.59 521.74 187.61"/><rect class="cls-1" x="527.55" y="196.55" width="15.75" height="0.82"/><rect class="cls-2" x="527.55" y="196.55" width="15.75" height="0.82"/><line class="cls-2" x1="543.3" y1="197.11" x2="527.55" y2="197.11"/><polyline class="cls-2" points="527.55 197.37 527.55 196.55 543.3 196.55 543.3 197.37"/><line class="cls-2" x1="543.56" y1="197.37" x2="527.29" y2="197.37"/><rect class="cls-1" x="528.2" y="190.65" width="14.41" height="3.82"/><rect class="cls-1" x="529.98" y="194.47" width="10.85" height="0.13"/><polyline class="cls-3" points="529.98 194.6 542.61 194.6 542.61 196.51 528.2 196.51 528.2 194.6"/><polyline class="cls-2" points="542.61 190.65 542.61 194.47 540.83 194.47"/><polyline class="cls-2" points="540.83 194.47 540.83 194.6 542.61 194.6 542.61 196.51 528.2 196.51 528.2 194.6 529.98 194.6 529.98 194.47 528.2 194.47 528.2 190.65"/><line class="cls-2" x1="528.2" y1="189.13" x2="542.61" y2="189.13"/><polyline class="cls-2" points="529.98 195.38 529.98 192.78 540.83 192.78"/><polyline class="cls-2" points="540.83 192.78 540.83 195.38 529.98 195.38"/><line class="cls-2" x1="542.61" y1="192.56" x2="528.2" y2="192.56"/><polyline class="cls-2" points="542.61 194.6 542.61 196.51 528.2 196.51 528.2 194.6 529.98 194.6"/><polyline class="cls-2" points="529.98 194.47 528.2 194.47 528.2 190.65"/><line class="cls-2" x1="528.2" y1="189.13" x2="542.61" y2="189.13"/><polyline class="cls-2" points="542.61 190.65 542.61 194.47 540.83 194.47"/><line class="cls-2" x1="540.83" y1="194.6" x2="542.61" y2="194.6"/><rect class="cls-1" x="534.54" y="197.37" width="0.17" height="0.17"/><polygon class="cls-1" points="534.54 197.55 534.36 197.55 534.36 197.76 534.49 197.81 534.71 197.81 534.88 197.76 534.88 197.55 534.54 197.55"/><polyline class="cls-2" points="534.71 197.37 534.71 197.55 534.88 197.55 534.88 197.76 534.71 197.81 534.49 197.81"/><line class="cls-2" x1="534.49" y1="197.81" x2="534.36" y2="197.76"/><line class="cls-2" x1="534.36" y1="197.76" x2="534.36" y2="197.55"/><polyline class="cls-2" points="534.36 197.55 534.54 197.55 534.54 197.37 534.71 197.37"/><line class="cls-2" x1="534.28" y1="197.37" x2="534.97" y2="197.37"/><polyline class="cls-2" points="534.97 197.37 534.93 197.37 534.32 197.37 534.28 197.37"/><line class="cls-2" x1="534.36" y1="197.55" x2="534.88" y2="197.55"/><line class="cls-2" x1="534.88" y1="197.76" x2="534.36" y2="197.76"/><rect class="cls-1" x="536.14" y="197.37" width="0.13" height="0.17"/><polygon class="cls-1" points="536.14 197.55 535.93 197.55 535.93 197.76 536.1 197.81 536.32 197.81 536.45 197.76 536.45 197.55 536.14 197.55"/><polyline class="cls-2" points="536.27 197.37 536.27 197.55 536.45 197.55 536.45 197.76 536.32 197.81 536.1 197.81 535.93 197.76 535.93 197.55"/><polyline class="cls-2" points="535.93 197.55 536.14 197.55 536.14 197.37 536.27 197.37"/><polyline class="cls-2" points="535.88 197.37 536.53 197.37 536.49 197.37 535.88 197.37"/><line class="cls-2" x1="535.93" y1="197.55" x2="536.45" y2="197.55"/><line class="cls-2" x1="536.45" y1="197.76" x2="535.93" y2="197.76"/><line class="cls-2" x1="549.55" y1="186.1" x2="549.55" y2="187.83"/><line class="cls-2" x1="549.55" y1="199.02" x2="543.09" y2="199.02"/><line class="cls-2" x1="539.96" y1="199.02" x2="527.46" y2="199.02"/><line class="cls-2" x1="524.34" y1="199.02" x2="521.34" y2="199.02"/><line class="cls-2" x1="521.35" y1="186.1" x2="521.35" y2="187.83"/><line class="cls-2" x1="521.35" y1="192.47" x2="521.35" y2="199.02"/><text class="cls-4" transform="translate(533.92 186.63) rotate(90)"><tspan xml:space="preserve"> OPT</tspan></text><rect class="cls-1" x="517.78" y="187.15" width="31.15" height="12.6"/><polyline class="cls-2" points="548.92 187.15 548.92 199.75 517.78 199.75"/><line class="cls-2" x1="517.77" y1="199.75" x2="517.77" y2="187.15"/><polyline class="cls-2" points="547.44 187.15 547.44 198.22 547.15 197.93"/><line class="cls-2" x1="547.15" y1="197.93" x2="547.15" y2="187.15"/><polyline class="cls-2" points="519.6 187.15 519.6 197.93 519.31 198.22"/><polyline class="cls-2" points="547.44 198.22 519.31 198.22 519.31 187.15"/><line class="cls-2" x1="519.6" y1="197.93" x2="547.15" y2="197.93"/><line class="cls-2" x1="524.39" y1="197.93" x2="524.39" y2="187.77"/><line class="cls-2" x1="542.36" y1="187.77" x2="542.36" y2="197.93"/><polyline class="cls-2" points="518.11 199.41 517.77 199.75 517.77 187.15"/><polyline class="cls-2" points="548.92 187.15 548.92 199.75 548.63 199.41 518.11 199.41 518.11 187.15"/><line class="cls-2" x1="548.63" y1="187.15" x2="548.63" y2="199.41"/><line class="cls-2" x1="548.92" y1="199.75" x2="517.78" y2="199.75"/><line class="cls-2" x1="548.49" y1="187.15" x2="548.49" y2="199.27"/><line class="cls-2" x1="518.25" y1="199.27" x2="518.25" y2="187.15"/><rect class="cls-1" x="524.68" y="197.02" width="17.39" height="0.91"/><polyline class="cls-2" points="542.07 197.02 542.07 197.93 524.68 197.93 524.68 197.02 542.07 197.02"/><line class="cls-2" x1="542.07" y1="197.64" x2="524.68" y2="197.64"/><polyline class="cls-2" points="524.68 197.93 524.68 197.02 542.07 197.02"/><line class="cls-2" x1="542.07" y1="197.02" x2="542.07" y2="197.93"/><line class="cls-2" x1="542.36" y1="197.93" x2="524.39" y2="197.93"/><polyline class="cls-3" points="527.36 194.91 541.3 194.91 541.3 196.97 525.35 196.97 525.35 194.91"/><polyline class="cls-2" points="541.3 194.91 541.3 196.97 525.35 196.97 525.35 194.91"/><polyline class="cls-2" points="541.3 194.91 541.3 196.97 525.35 196.97 525.35 194.91"/><line class="cls-2" x1="532.63" y1="197.93" x2="532.58" y2="197.98"/><line class="cls-2" x1="532.34" y1="197.98" x2="532.34" y2="197.93"/><rect class="cls-1" x="532.39" y="197.97" width="0.14" height="0.14"/><polygon class="cls-1" points="532.39 198.12 532.15 198.17 532.15 198.36 532.34 198.41 532.58 198.41 532.77 198.36 532.77 198.17 532.53 198.12 532.39 198.12"/><polyline class="cls-2" points="532.53 197.98 532.53 198.12 532.77 198.17 532.77 198.36 532.58 198.41 532.34 198.41 532.15 198.36"/><polyline class="cls-2" points="532.15 198.36 532.15 198.17 532.39 198.12"/><polyline class="cls-2" points="532.39 198.12 532.39 197.98 532.53 197.98"/><polygon class="cls-1" points="532.1 197.93 532.15 197.97 532.82 197.97 532.82 197.93 532.1 197.93"/><polyline class="cls-2" points="532.1 197.93 532.82 197.93 532.82 197.98 532.15 197.98 532.1 197.93"/><line class="cls-2" x1="532.15" y1="198.17" x2="532.77" y2="198.17"/><line class="cls-2" x1="532.77" y1="198.36" x2="532.15" y2="198.36"/><line class="cls-2" x1="534.35" y1="197.93" x2="534.31" y2="197.98"/><line class="cls-2" x1="534.07" y1="197.98" x2="534.07" y2="197.93"/><rect class="cls-1" x="534.12" y="197.97" width="0.14" height="0.14"/><polygon class="cls-1" points="534.12 198.12 533.88 198.17 533.88 198.36 534.07 198.41 534.31 198.41 534.5 198.36 534.5 198.17 534.26 198.12 534.12 198.12"/><polyline class="cls-2" points="534.26 197.98 534.26 198.12 534.5 198.17 534.5 198.36 534.31 198.41 534.07 198.41 533.88 198.36"/><polyline class="cls-2" points="533.88 198.36 533.88 198.17 534.12 198.12"/><polyline class="cls-2" points="534.12 198.12 534.12 197.98 534.26 197.98"/><polygon class="cls-1" points="533.83 197.93 533.88 197.97 534.55 197.97 534.55 197.93 533.83 197.93"/><polyline class="cls-2" points="533.83 197.93 534.55 197.93 534.55 197.98 533.88 197.98"/><line class="cls-2" x1="533.88" y1="197.98" x2="533.83" y2="197.93"/><line class="cls-2" x1="533.88" y1="198.17" x2="534.5" y2="198.17"/><line class="cls-2" x1="534.5" y1="198.36" x2="533.88" y2="198.36"/><line class="cls-2" x1="548.92" y1="199.75" x2="541.4" y2="199.75"/><line class="cls-2" x1="537.95" y1="199.75" x2="531.05" y2="199.75"/><line class="cls-2" x1="527.6" y1="199.75" x2="517.77" y2="199.75"/><line class="cls-2" x1="517.77" y1="192.46" x2="517.77" y2="199.75"/><text class="cls-5" transform="translate(509.34 205.41)">O<tspan class="cls-6" x="5.08" y="0">P</tspan><tspan class="cls-7" x="9.41" y="0">T</tspan><tspan class="cls-8" x="13.31" y="0">.</tspan><tspan class="cls-9" x="15.17" y="0"> </tspan><tspan class="cls-10" x="16.97" y="0">FIREPLACE</tspan></text></g></svg>