<svg id="图层_1" data-name="图层 1" xmlns="http://www.w3.org/2000/svg" viewBox="0 0 1152 576"><defs><style>.cls-1,.cls-3{fill:#fff;}.cls-2{fill:none;stroke:#0b6190;stroke-linecap:round;stroke-linejoin:bevel;stroke-width:0.24px;}.cls-3{fill-rule:evenodd;}.cls-4{font-size:6.5px;fill:#0b6190;font-family:CenturyGothic, Century Gothic;}</style></defs><title>OPT ,Master Tray-2_画板 1</title><g id="opt.fireplace"><rect class="cls-1" x="653.16" y="213.93" width="11.19" height="27.65"/><polyline class="cls-2" points="664.35 241.58 653.16 241.58 653.16 213.93"/><line class="cls-2" x1="653.16" y1="213.93" x2="664.35" y2="213.93"/><polyline class="cls-2" points="664.35 240.22 654.52 240.22 654.78 239.97"/><line class="cls-2" x1="654.78" y1="239.97" x2="664.35" y2="239.97"/><polyline class="cls-2" points="664.35 215.5 654.78 215.5 654.52 215.25"/><polyline class="cls-2" points="654.52 240.22 654.52 215.25 664.35 215.25"/><line class="cls-2" x1="654.78" y1="215.5" x2="654.78" y2="239.97"/><line class="cls-2" x1="654.78" y1="219.76" x2="663.8" y2="219.76"/><line class="cls-2" x1="663.8" y1="235.71" x2="654.78" y2="235.71"/><polyline class="cls-2" points="653.46 214.19 653.16 213.93 664.35 213.93"/><polyline class="cls-2" points="664.35 241.58 653.16 241.58 653.46 241.29"/><line class="cls-2" x1="664.35" y1="241.29" x2="653.46" y2="241.29"/><line class="cls-2" x1="653.16" y1="241.58" x2="653.16" y2="213.93"/><rect class="cls-1" x="653.59" y="214.31" width="10.76" height="26.85"/><line class="cls-2" x1="664.35" y1="241.16" x2="653.59" y2="241.16"/><line class="cls-2" x1="653.59" y1="241.16" x2="653.59" y2="214.31"/><line class="cls-2" x1="653.59" y1="214.31" x2="664.35" y2="214.31"/><rect class="cls-1" x="654.78" y="220.01" width="0.81" height="15.45"/><rect class="cls-2" x="654.78" y="220.01" width="0.81" height="15.44"/><line class="cls-2" x1="655.03" y1="235.46" x2="655.03" y2="220.01"/><polyline class="cls-2" points="654.78 220.01 655.59 220.01 655.59 235.46 654.78 235.46"/><line class="cls-2" x1="654.78" y1="235.71" x2="654.78" y2="219.76"/><rect class="cls-1" x="657.63" y="220.65" width="3.74" height="14.13"/><rect class="cls-1" x="657.5" y="222.4" width="0.13" height="10.64"/><polyline class="cls-3" points="657.5 222.4 657.5 234.78 655.63 234.78 655.63 220.65 657.5 220.65"/><polyline class="cls-2" points="661.37 234.78 657.63 234.78 657.63 233.03"/><polyline class="cls-2" points="657.63 233.03 657.5 233.03 657.5 234.78 655.63 234.78"/><line class="cls-2" x1="655.63" y1="234.78" x2="655.63" y2="220.65"/><line class="cls-2" x1="655.63" y1="220.65" x2="657.5" y2="220.65"/><polyline class="cls-2" points="657.5 220.65 657.5 222.4 657.63 222.4 657.63 220.65"/><line class="cls-2" x1="657.63" y1="220.65" x2="661.37" y2="220.65"/><line class="cls-2" x1="656.74" y1="222.4" x2="659.29" y2="222.4"/><line class="cls-2" x1="659.29" y1="222.4" x2="659.29" y2="233.03"/><line class="cls-2" x1="659.29" y1="233.03" x2="656.73" y2="233.03"/><line class="cls-2" x1="656.74" y1="233.03" x2="656.74" y2="222.4"/><line class="cls-2" x1="659.5" y1="234.78" x2="659.5" y2="220.65"/><line class="cls-2" x1="657.5" y1="234.78" x2="655.63" y2="234.78"/><line class="cls-2" x1="655.63" y1="234.78" x2="655.63" y2="220.65"/><line class="cls-2" x1="655.63" y1="220.65" x2="657.5" y2="220.65"/><line class="cls-2" x1="657.5" y1="220.65" x2="657.5" y2="222.4"/><line class="cls-2" x1="657.63" y1="222.4" x2="657.63" y2="220.65"/><line class="cls-2" x1="657.63" y1="220.65" x2="661.37" y2="220.65"/><polyline class="cls-2" points="661.37 234.78 657.63 234.78 657.63 233.03"/><line class="cls-2" x1="657.5" y1="233.03" x2="657.5" y2="234.78"/><rect class="cls-1" x="654.61" y="226.86" width="0.17" height="0.17"/><polyline class="cls-3" points="654.61 226.86 654.61 227.2 654.39 227.2 654.35 227.03 654.35 226.82 654.39 226.69 654.61 226.69"/><polyline class="cls-2" points="654.78 227.03 654.61 227.03 654.61 227.2 654.39 227.2 654.35 227.03"/><polyline class="cls-2" points="654.35 227.03 654.35 226.82 654.39 226.69 654.61 226.69 654.61 226.86 654.78 226.86"/><line class="cls-2" x1="654.78" y1="226.86" x2="654.78" y2="227.03"/><polyline class="cls-2" points="654.78 226.61 654.78 227.29 654.78 227.25 654.78 226.65"/><line class="cls-2" x1="654.78" y1="226.65" x2="654.78" y2="226.61"/><line class="cls-2" x1="654.61" y1="226.69" x2="654.61" y2="227.2"/><line class="cls-2" x1="654.39" y1="227.2" x2="654.39" y2="226.69"/><rect class="cls-1" x="654.61" y="228.44" width="0.17" height="0.13"/><polyline class="cls-3" points="654.61 228.44 654.61 228.74 654.39 228.74 654.35 228.61 654.35 228.4 654.39 228.22 654.61 228.22"/><polyline class="cls-2" points="654.78 228.56 654.61 228.56 654.61 228.74 654.39 228.74 654.35 228.61"/><polyline class="cls-2" points="654.35 228.61 654.35 228.4 654.39 228.22 654.61 228.22 654.61 228.44"/><line class="cls-2" x1="654.61" y1="228.44" x2="654.78" y2="228.44"/><line class="cls-2" x1="654.78" y1="228.44" x2="654.78" y2="228.57"/><line class="cls-2" x1="654.78" y1="228.18" x2="654.78" y2="228.82"/><polyline class="cls-2" points="654.78 228.82 654.78 228.78 654.78 228.18"/><line class="cls-2" x1="654.61" y1="228.22" x2="654.61" y2="228.74"/><line class="cls-2" x1="654.39" y1="228.74" x2="654.39" y2="228.23"/><line class="cls-2" x1="653.16" y1="241.58" x2="653.16" y2="235.24"/><line class="cls-2" x1="653.16" y1="232.18" x2="653.16" y2="219.93"/><line class="cls-2" x1="653.16" y1="216.87" x2="653.16" y2="213.93"/><line class="cls-2" x1="659.59" y1="213.93" x2="653.16" y2="213.93"/><text class="cls-4" transform="translate(665.32 226.26) rotate(180)"><tspan xml:space="preserve"> OPT</tspan></text><rect class="cls-1" x="652.45" y="210.43" width="12.36" height="30.54"/><polyline class="cls-2" points="664.81 240.97 652.45 240.97 652.45 210.43 664.81 210.43"/><polyline class="cls-2" points="664.81 239.51 653.95 239.51 654.24 239.23 664.81 239.23"/><polyline class="cls-2" points="664.81 212.21 654.24 212.21 653.95 211.93"/><polyline class="cls-2" points="653.95 239.51 653.95 211.93 664.81 211.93"/><line class="cls-2" x1="654.24" y1="212.21" x2="654.24" y2="239.23"/><line class="cls-2" x1="654.24" y1="216.91" x2="664.2" y2="216.91"/><line class="cls-2" x1="664.2" y1="234.53" x2="654.24" y2="234.53"/><polyline class="cls-2" points="652.78 210.76 652.45 210.43 664.81 210.43"/><polyline class="cls-2" points="664.81 240.97 652.45 240.97 652.78 240.69 652.78 210.76 664.81 210.76"/><line class="cls-2" x1="664.81" y1="240.69" x2="652.78" y2="240.69"/><line class="cls-2" x1="652.45" y1="240.97" x2="652.45" y2="210.43"/><line class="cls-2" x1="664.81" y1="240.55" x2="652.92" y2="240.55"/><line class="cls-2" x1="652.92" y1="210.9" x2="664.81" y2="210.9"/><rect class="cls-1" x="654.23" y="217.19" width="0.89" height="17.05"/><line class="cls-2" x1="655.13" y1="234.25" x2="654.23" y2="234.25"/><polyline class="cls-2" points="654.24 234.25 654.24 217.19 655.13 217.19 655.13 234.25"/><line class="cls-2" x1="654.52" y1="234.25" x2="654.52" y2="217.19"/><polyline class="cls-2" points="654.24 217.19 655.13 217.19 655.13 234.25 654.23 234.25"/><line class="cls-2" x1="654.24" y1="234.53" x2="654.24" y2="216.91"/><polyline class="cls-3" points="657.2 219.82 657.2 233.5 655.17 233.5 655.17 217.85 657.2 217.85"/><polyline class="cls-2" points="657.2 233.5 655.17 233.5 655.17 217.85 657.2 217.85"/><polyline class="cls-2" points="657.2 233.5 655.17 233.5 655.17 217.85 657.2 217.85"/><line class="cls-2" x1="654.24" y1="224.99" x2="654.19" y2="224.95"/><line class="cls-2" x1="654.19" y1="224.71" x2="654.24" y2="224.71"/><rect class="cls-1" x="654.05" y="224.76" width="0.14" height="0.14"/><polygon class="cls-1" points="653.81 224.52 653.76 224.71 653.76 224.95 653.81 225.13 654 225.13 654.05 224.9 654.05 224.76 654 224.52 653.81 224.52"/><line class="cls-2" x1="654.19" y1="224.9" x2="654.05" y2="224.9"/><line class="cls-2" x1="654.05" y1="224.9" x2="654" y2="225.14"/><polyline class="cls-2" points="654 225.13 653.81 225.13 653.76 224.95"/><polyline class="cls-2" points="653.77 224.95 653.77 224.71 653.81 224.52 654 224.52 654.05 224.76"/><line class="cls-2" x1="654.05" y1="224.76" x2="654.19" y2="224.76"/><line class="cls-2" x1="654.19" y1="224.76" x2="654.19" y2="224.9"/><polygon class="cls-1" points="654.19 224.52 654.19 225.18 654.24 225.18 654.24 224.48 654.19 224.52"/><polyline class="cls-2" points="654.24 224.47 654.24 225.18 654.19 225.18"/><polyline class="cls-2" points="654.19 225.18 654.19 224.52 654.24 224.48"/><line class="cls-2" x1="654" y1="224.52" x2="654" y2="225.13"/><line class="cls-2" x1="653.81" y1="225.13" x2="653.81" y2="224.52"/><line class="cls-2" x1="654.24" y1="226.68" x2="654.19" y2="226.64"/><line class="cls-2" x1="654.19" y1="226.4" x2="654.24" y2="226.4"/><rect class="cls-1" x="654.05" y="226.45" width="0.14" height="0.14"/><polygon class="cls-1" points="653.81 226.21 653.76 226.4 653.76 226.64 653.81 226.83 654 226.83 654.05 226.59 654.05 226.45 654 226.21 653.81 226.21"/><line class="cls-2" x1="654.19" y1="226.59" x2="654.05" y2="226.59"/><polyline class="cls-2" points="654.05 226.59 654 226.83 653.81 226.83 653.76 226.64"/><line class="cls-2" x1="653.77" y1="226.64" x2="653.77" y2="226.4"/><line class="cls-2" x1="653.77" y1="226.4" x2="653.81" y2="226.21"/><polyline class="cls-2" points="653.81 226.21 654 226.21 654.05 226.45 654.19 226.45"/><line class="cls-2" x1="654.19" y1="226.45" x2="654.19" y2="226.59"/><polygon class="cls-1" points="654.19 226.22 654.19 226.87 654.24 226.87 654.24 226.17 654.19 226.22"/><polyline class="cls-2" points="654.24 226.17 654.24 226.87 654.19 226.87"/><line class="cls-2" x1="654.19" y1="226.87" x2="654.19" y2="226.21"/><line class="cls-2" x1="654.19" y1="226.22" x2="654.24" y2="226.17"/><line class="cls-2" x1="654" y1="226.22" x2="654" y2="226.83"/><line class="cls-2" x1="653.81" y1="226.83" x2="653.81" y2="226.22"/><line class="cls-2" x1="652.45" y1="240.97" x2="652.45" y2="233.59"/><line class="cls-2" x1="652.45" y1="230.21" x2="652.45" y2="223.44"/><line class="cls-2" x1="652.45" y1="220.06" x2="652.45" y2="210.43"/><line class="cls-2" x1="659.59" y1="210.43" x2="652.45" y2="210.43"/><text class="cls-4" transform="translate(644.89 205.49) rotate(90)"><tspan xml:space="preserve"> OPT  FIREPLACE</tspan></text></g></svg>