<svg id="图层_1" data-name="图层 1" xmlns="http://www.w3.org/2000/svg" viewBox="0 0 1152 576"><defs><style>.cls-1{font-size:6.6px;font-family:CenturyGothic, Century Gothic;}.cls-1,.cls-5{fill:#0f5a83;}.cls-2,.cls-4{fill:#fff;}.cls-3,.cls-6{fill:none;stroke:#0f5a83;stroke-linecap:round;stroke-linejoin:bevel;}.cls-3{stroke-width:0.24px;}.cls-4{fill-rule:evenodd;}.cls-6{stroke-width:0.46px;}</style></defs><title>opt .fireplace-2</title><g id="opt_.fireplace-2" data-name="opt .fireplace-2"><text class="cls-1" transform="translate(499.3 237.97)"><tspan xml:space="preserve"> OPT</tspan></text><rect class="cls-2" x="499.79" y="223.53" width="12.14" height="30"/><polyline class="cls-3" points="499.79 223.53 511.93 223.53 511.93 253.53"/><line class="cls-3" x1="511.93" y1="253.53" x2="499.79" y2="253.53"/><polyline class="cls-3" points="499.79 224.96 510.45 224.96 510.17 225.23"/><line class="cls-3" x1="510.17" y1="225.23" x2="499.79" y2="225.23"/><polyline class="cls-3" points="499.79 251.77 510.17 251.77 510.45 252.05"/><polyline class="cls-3" points="510.45 224.96 510.45 252.05 499.79 252.05"/><line class="cls-3" x1="510.17" y1="251.77" x2="510.17" y2="225.23"/><line class="cls-3" x1="510.17" y1="247.16" x2="500.39" y2="247.16"/><line class="cls-3" x1="500.39" y1="229.85" x2="510.17" y2="229.85"/><polyline class="cls-3" points="511.61 253.2 511.93 253.53 499.79 253.53"/><polyline class="cls-3" points="499.79 223.53 511.93 223.53 511.61 223.8 511.61 253.2 499.79 253.2"/><line class="cls-3" x1="499.79" y1="223.8" x2="511.61" y2="223.8"/><line class="cls-3" x1="511.93" y1="223.53" x2="511.93" y2="253.53"/><line class="cls-3" x1="499.79" y1="223.94" x2="511.47" y2="223.94"/><line class="cls-3" x1="511.47" y1="253.07" x2="499.79" y2="253.07"/><rect class="cls-2" x="509.3" y="230.13" width="0.88" height="16.76"/><line class="cls-3" x1="509.3" y1="230.13" x2="510.17" y2="230.13"/><polyline class="cls-3" points="510.17 230.13 510.17 246.88 509.3 246.88 509.3 230.13"/><line class="cls-3" x1="509.9" y1="230.13" x2="509.9" y2="246.88"/><polyline class="cls-3" points="510.17 246.88 509.3 246.88 509.3 230.13"/><line class="cls-3" x1="509.3" y1="230.13" x2="510.17" y2="230.13"/><line class="cls-3" x1="510.17" y1="229.85" x2="510.17" y2="247.16"/><polyline class="cls-4" points="507.27 244.3 507.27 230.86 509.25 230.86 509.25 246.23 507.27 246.23"/><polyline class="cls-3" points="507.27 230.86 509.25 230.86 509.25 246.24"/><line class="cls-3" x1="509.25" y1="246.23" x2="507.27" y2="246.23"/><polyline class="cls-3" points="507.27 230.86 509.25 230.86 509.25 246.24"/><line class="cls-3" x1="509.25" y1="246.23" x2="507.27" y2="246.23"/><line class="cls-3" x1="510.17" y1="239.22" x2="510.22" y2="239.26"/><line class="cls-3" x1="510.22" y1="239.5" x2="510.17" y2="239.5"/><rect class="cls-2" x="510.22" y="239.31" width="0.14" height="0.14"/><polygon class="cls-2" points="510.41 239.08 510.36 239.31 510.36 239.45 510.41 239.68 510.59 239.68 510.63 239.5 510.63 239.26 510.59 239.08 510.41 239.08"/><line class="cls-3" x1="510.22" y1="239.31" x2="510.36" y2="239.31"/><line class="cls-3" x1="510.36" y1="239.31" x2="510.41" y2="239.08"/><polyline class="cls-3" points="510.4 239.08 510.59 239.08 510.63 239.26 510.63 239.5 510.59 239.68"/><line class="cls-3" x1="510.59" y1="239.68" x2="510.41" y2="239.68"/><polyline class="cls-3" points="510.4 239.68 510.36 239.45 510.22 239.45"/><line class="cls-3" x1="510.22" y1="239.45" x2="510.22" y2="239.31"/><polygon class="cls-2" points="510.17 239.03 510.17 239.73 510.22 239.68 510.22 239.03 510.17 239.03"/><polyline class="cls-3" points="510.17 239.73 510.17 239.03 510.22 239.03 510.22 239.68"/><line class="cls-3" x1="510.22" y1="239.68" x2="510.17" y2="239.73"/><line class="cls-3" x1="510.4" y1="239.68" x2="510.4" y2="239.08"/><line class="cls-3" x1="510.59" y1="239.08" x2="510.59" y2="239.68"/><line class="cls-3" x1="510.17" y1="237.56" x2="510.22" y2="237.6"/><line class="cls-3" x1="510.22" y1="237.83" x2="510.17" y2="237.83"/><rect class="cls-2" x="510.22" y="237.65" width="0.14" height="0.14"/><polygon class="cls-2" points="510.41 237.42 510.36 237.65 510.36 237.79 510.41 238.02 510.59 238.02 510.63 237.84 510.63 237.6 510.59 237.42 510.41 237.42"/><line class="cls-3" x1="510.22" y1="237.65" x2="510.36" y2="237.65"/><line class="cls-3" x1="510.36" y1="237.65" x2="510.41" y2="237.42"/><polyline class="cls-3" points="510.4 237.42 510.59 237.42 510.63 237.6 510.63 237.83"/><polyline class="cls-3" points="510.63 237.83 510.59 238.02 510.4 238.02"/><line class="cls-3" x1="510.4" y1="238.02" x2="510.36" y2="237.79"/><line class="cls-3" x1="510.36" y1="237.79" x2="510.22" y2="237.79"/><line class="cls-3" x1="510.22" y1="237.79" x2="510.22" y2="237.65"/><polygon class="cls-2" points="510.17 237.37 510.17 238.06 510.22 238.02 510.22 237.37 510.17 237.37"/><polyline class="cls-3" points="510.17 238.06 510.17 237.37 510.22 237.37 510.22 238.02 510.17 238.06"/><line class="cls-3" x1="510.4" y1="238.02" x2="510.4" y2="237.42"/><line class="cls-3" x1="510.59" y1="237.42" x2="510.59" y2="238.02"/><line class="cls-3" x1="511.93" y1="223.53" x2="511.93" y2="230.77"/><line class="cls-3" x1="511.93" y1="234.1" x2="511.93" y2="240.74"/><line class="cls-3" x1="511.93" y1="244.07" x2="511.93" y2="253.53"/><line class="cls-3" x1="504.91" y1="253.53" x2="511.93" y2="253.53"/><path class="cls-5" d="M516.42,224.44a1.62,1.62,0,0,1-.48,1.19,1.59,1.59,0,0,1-1.17.48,1.62,1.62,0,0,1-1.17-.47,1.66,1.66,0,0,1,1.15-2.84,1.75,1.75,0,0,1,.84.22,1.67,1.67,0,0,1,.61.6,1.65,1.65,0,0,1,.22.82m-.31,0a1.31,1.31,0,0,0-.18-.66,1.35,1.35,0,0,0-.49-.49,1.47,1.47,0,0,0-.69-.17,1.33,1.33,0,0,0-1.33,1.32,1.33,1.33,0,0,0,.18.68,1.23,1.23,0,0,0,.48.48,1.37,1.37,0,0,0,.69.18,1.27,1.27,0,0,0,.67-.18,1.22,1.22,0,0,0,.49-.49,1.32,1.32,0,0,0,.18-.67"/><path class="cls-5" d="M516.34,226.74v.63a3.51,3.51,0,0,1-.05.72.8.8,0,0,1-.27.44.76.76,0,0,1-.52.17.81.81,0,0,1-.52-.16.74.74,0,0,1-.27-.46,3.66,3.66,0,0,1-.05-.8v-.22h-1.47v-.32m2.84.32H515v.53a1.37,1.37,0,0,0,.06.47.42.42,0,0,0,.18.23.53.53,0,0,0,.3.09.52.52,0,0,0,.29-.09.43.43,0,0,0,.18-.22,1.27,1.27,0,0,0,.06-.46Z"/><polyline class="cls-5" points="516.03 229.02 516.34 229.02 516.34 230.74 516.03 230.74 516.03 230.04 513.19 230.04 513.19 229.72 516.03 229.72"/><polyline class="cls-5" points="516.34 232.41 516.34 233.98 516.03 233.98 516.03 232.72 515.04 232.72 515.04 233.98 514.74 233.98 514.74 232.72 513.19 232.72 513.19 232.41"/><rect class="cls-5" x="513.19" y="234.48" width="3.14" height="0.31"/><path class="cls-5" d="M516.34,235.53v.63a3.54,3.54,0,0,1-.05.71.75.75,0,0,1-.27.45.77.77,0,0,1-.52.18.84.84,0,0,1-.45-.12.79.79,0,0,1-.3-.35,1.66,1.66,0,0,1-.1-.62l-1.46,1.13v-.39l1.46-1.12v-.18h-1.46v-.32m2.84.32H515v.54a1.3,1.3,0,0,0,.06.46.46.46,0,0,0,.19.24.57.57,0,0,0,.58,0,.48.48,0,0,0,.18-.22,1.33,1.33,0,0,0,.06-.47Z"/><polyline class="cls-5" points="516.34 238.17 516.34 239.97 516.03 239.97 516.03 238.49 515.04 238.49 515.04 239.96 514.74 239.96 514.74 238.49 513.5 238.49 513.5 239.96 513.19 239.96 513.19 238.17"/><path class="cls-5" d="M516.34,240.52v.62a3.71,3.71,0,0,1-.05.73.84.84,0,0,1-.27.44.88.88,0,0,1-1,0,.74.74,0,0,1-.27-.46,3.66,3.66,0,0,1-.05-.8v-.22h-1.47v-.31m2.84.31H515v.53a1.33,1.33,0,0,0,.06.47.48.48,0,0,0,.18.24.52.52,0,0,0,.3.08.51.51,0,0,0,.29-.08.46.46,0,0,0,.18-.23,1.23,1.23,0,0,0,.06-.46Z"/><polyline class="cls-5" points="516.34 243.11 516.34 243.42 513.5 243.42 513.5 244.63 513.19 244.63 513.19 243.11"/><path class="cls-5" d="M516.34,246.41l-3.15,1.47v-.34l1-.5v-1.35l-1-.49v-.35l3.15,1.48m-.67,0-1.14-.54v1.08Z"/><path class="cls-5" d="M515.75,251.29l-.19-.25a1.36,1.36,0,0,0,.41-.49,1.46,1.46,0,0,0,.14-.63,1.34,1.34,0,0,0-.19-.7,1.28,1.28,0,0,0-.48-.5,1.4,1.4,0,0,0-.68-.17,1.27,1.27,0,0,0-1,.39,1.45,1.45,0,0,0,.13,2.1l-.19.25a1.58,1.58,0,0,1-.46-.59,1.78,1.78,0,0,1-.16-.78,1.63,1.63,0,0,1,.54-1.3,1.66,1.66,0,0,1,1.12-.4,1.55,1.55,0,0,1,1.16.48,1.65,1.65,0,0,1,.48,1.21,1.74,1.74,0,0,1-.18.8,1.45,1.45,0,0,1-.49.58"/><polyline class="cls-5" points="516.34 251.92 516.34 253.72 516.03 253.72 516.03 252.23 515.04 252.23 515.04 253.71 514.74 253.71 514.74 252.23 513.5 252.23 513.5 253.71 513.19 253.71 513.19 251.92"/><rect class="cls-2" x="499.65" y="224.59" width="10.99" height="27.17"/><polyline class="cls-3" points="499.65 224.59 510.64 224.59 510.64 251.76 499.65 251.76"/><line class="cls-6" x1="499.65" y1="251.76" x2="499.65" y2="224.59"/><polyline class="cls-3" points="499.65 225.93 509.3 225.93 509.05 226.18 499.65 226.18"/><polyline class="cls-3" points="499.65 250.21 509.05 250.21 509.3 250.46"/><line class="cls-3" x1="509.3" y1="225.93" x2="509.3" y2="250.46"/><line class="cls-3" x1="509.3" y1="250.46" x2="499.65" y2="250.46"/><line class="cls-3" x1="509.05" y1="250.21" x2="509.05" y2="226.18"/><line class="cls-3" x1="509.05" y1="246.03" x2="500.19" y2="246.03"/><line class="cls-6" x1="500.19" y1="246.03" x2="500.19" y2="230.36"/><line class="cls-3" x1="500.19" y1="230.36" x2="509.05" y2="230.36"/><polyline class="cls-3" points="510.35 251.51 510.64 251.76 499.65 251.76"/><line class="cls-6" x1="499.65" y1="251.76" x2="499.65" y2="224.59"/><polyline class="cls-3" points="499.65 224.59 510.64 224.59 510.35 224.88"/><line class="cls-3" x1="510.35" y1="224.88" x2="510.35" y2="251.51"/><line class="cls-3" x1="510.35" y1="251.51" x2="499.65" y2="251.51"/><line class="cls-3" x1="499.65" y1="224.88" x2="510.35" y2="224.88"/><line class="cls-3" x1="510.64" y1="224.59" x2="510.64" y2="251.76"/><rect class="cls-2" x="499.65" y="225.01" width="10.58" height="26.38"/><line class="cls-6" x1="499.65" y1="251.38" x2="499.65" y2="225.01"/><polyline class="cls-3" points="499.65 225.01 510.22 225.01 510.22 251.38"/><line class="cls-3" x1="510.22" y1="251.38" x2="499.65" y2="251.38"/><rect class="cls-2" x="508.26" y="230.61" width="0.79" height="15.17"/><rect class="cls-3" x="508.26" y="230.61" width="0.79" height="15.17"/><line class="cls-3" x1="508.8" y1="230.61" x2="508.8" y2="245.78"/><polyline class="cls-3" points="509.05 245.78 508.26 245.78 508.26 230.61 509.05 230.61"/><line class="cls-3" x1="509.05" y1="230.36" x2="509.05" y2="246.03"/><rect class="cls-2" x="502.57" y="231.28" width="3.68" height="13.88"/><rect class="cls-2" x="506.25" y="232.99" width="0.13" height="10.45"/><polyline class="cls-4" points="506.38 243.44 506.38 231.28 508.22 231.28 508.22 245.16 506.38 245.16"/><polyline class="cls-3" points="502.57 231.28 506.25 231.28 506.25 232.99 506.38 232.99 506.38 231.28"/><polyline class="cls-3" points="506.38 231.28 508.22 231.28 508.22 245.16 506.38 245.16 506.38 243.44 506.25 243.44 506.25 245.16 502.57 245.16"/><line class="cls-3" x1="502.57" y1="245.16" x2="502.57" y2="231.28"/><line class="cls-3" x1="507.13" y1="243.44" x2="504.62" y2="243.44"/><polyline class="cls-3" points="504.62 243.44 504.62 232.99 507.13 232.99 507.13 243.44"/><line class="cls-3" x1="504.41" y1="231.28" x2="504.41" y2="245.16"/><polyline class="cls-3" points="506.38 231.28 508.22 231.28 508.22 245.16 506.38 245.16 506.38 243.44"/><polyline class="cls-3" points="506.25 243.44 506.25 245.16 502.57 245.16"/><polyline class="cls-3" points="502.57 245.16 502.57 231.28 506.25 231.28 506.25 232.99"/><line class="cls-3" x1="506.38" y1="232.99" x2="506.38" y2="231.28"/><rect class="cls-2" x="509.05" y="238.89" width="0.17" height="0.17"/><polyline class="cls-4" points="509.22 239.05 509.22 238.72 509.43 238.72 509.47 238.88 509.47 239.09 509.43 239.22 509.22 239.22"/><polyline class="cls-3" points="509.05 238.88 509.22 238.88 509.22 238.72 509.43 238.72 509.47 238.88"/><polyline class="cls-3" points="509.47 238.88 509.47 239.09 509.43 239.22 509.22 239.22 509.22 239.05 509.05 239.05 509.05 238.88"/><polyline class="cls-3" points="509.05 239.3 509.05 238.63 509.05 238.68 509.05 239.26 509.05 239.3"/><line class="cls-3" x1="509.22" y1="239.22" x2="509.22" y2="238.72"/><line class="cls-3" x1="509.43" y1="238.72" x2="509.43" y2="239.22"/><rect class="cls-2" x="509.05" y="237.38" width="0.17" height="0.13"/><polyline class="cls-4" points="509.22 237.5 509.22 237.21 509.43 237.21 509.47 237.34 509.47 237.55 509.43 237.72 509.22 237.72"/><polyline class="cls-3" points="509.05 237.38 509.22 237.38 509.22 237.21 509.43 237.21 509.47 237.34 509.47 237.55 509.43 237.71 509.22 237.71 509.22 237.5 509.05 237.5 509.05 237.38"/><polyline class="cls-3" points="509.05 237.76 509.05 237.13 509.05 237.17 509.05 237.76"/><line class="cls-3" x1="509.22" y1="237.71" x2="509.22" y2="237.21"/><line class="cls-3" x1="509.43" y1="237.21" x2="509.43" y2="237.72"/><line class="cls-3" x1="499.65" y1="224.59" x2="501.32" y2="224.59"/><line class="cls-3" x1="510.64" y1="224.59" x2="510.64" y2="230.82"/><line class="cls-3" x1="510.64" y1="233.83" x2="510.64" y2="245.87"/><line class="cls-3" x1="510.64" y1="248.88" x2="510.64" y2="251.76"/><line class="cls-3" x1="499.65" y1="251.76" x2="501.32" y2="251.76"/><line class="cls-3" x1="504.33" y1="251.76" x2="510.64" y2="251.76"/></g></svg>