<svg id="图层_1" data-name="图层 1" xmlns="http://www.w3.org/2000/svg" viewBox="0 0 1152 576"><defs><style>.cls-1{font-size:6.5px;fill:#0b6190;font-family:CenturyGothic, Century Gothic;}.cls-2{fill:#fff;fill-rule:evenodd;}.cls-3{fill:none;stroke:#0b6190;stroke-linecap:round;stroke-linejoin:bevel;stroke-width:0.24px;}</style></defs><title>OPT master bath TUB</title><g id="_OPT_master_bath_TUB" data-name=" OPT master bath TUB"><text class="cls-1" transform="translate(703.73 220.73)">OPT. <tspan x="-22.48" y="7.8">FREE STANDING TUB</tspan></text><polyline class="cls-2" points="693.16 202.59 693.16 202.54 693.54 201.03"/><polyline class="cls-2" points="693.16 202.54 693.16 202.59 693.04 204.14 693.16 205.66 693.16 205.7 693.04 204.14"/><polyline class="cls-2" points="693.16 205.7 693.16 205.65 693.54 207.21"/><polyline class="cls-3" points="693.16 205.7 693.04 204.14 693.16 202.54 693.54 201.03 693.16 202.58"/><polyline class="cls-3" points="693.16 202.58 693.04 204.14 693.16 205.65 693.54 207.21 693.16 205.7"/><polyline class="cls-2" points="727.64 207.21 728.06 205.7 728.19 204.14 728.02 202.59 728.06 202.54 728.19 204.14 728.02 205.65"/><polyline class="cls-2" points="728.07 202.54 728.02 202.59 727.64 201.03"/><polyline class="cls-3" points="728.07 205.7 728.19 204.14 728.02 202.59"/><polyline class="cls-3" points="728.02 202.58 727.64 201.03 728.07 202.54 728.19 204.14 728.02 205.65 727.64 207.21 728.07 205.7"/><path class="cls-2" d="M692.37,207.63l-.43-1.72-.16-1.77.16-1.81c1.17-5.92,5.75-8.85,11.61-9l2-.17,2-.09,2-.08h2l2,.08,2,.09,2,.17,2,.21,1.81.29,1.68.55,1.52.84,1.34,1,1.18,1.26.93,1.47.71,1.56.46,1.72a10.56,10.56,0,0,1-9.63,12.32l-2,.21-2,.17c-4.19.26-15.86.55-19.09-2.06l-1.35-1.05-1.17-1.26-1-1.43"/><polyline class="cls-3" points="691.95 205.91 691.78 204.14 691.95 202.33"/><polyline class="cls-3" points="691.95 202.33 692.37 200.61 693.08 199.05"/><line class="cls-3" x1="693.08" y1="199.05" x2="694.05" y2="197.58"/><polyline class="cls-3" points="694.05 197.58 695.22 196.32 696.57 195.27"/><line class="cls-3" x1="696.57" y1="195.27" x2="698.08" y2="194.43"/><line class="cls-3" x1="698.08" y1="194.43" x2="699.77" y2="193.88"/><polyline class="cls-3" points="699.77 193.88 701.53 193.59 703.55 193.38 705.57 193.21 707.59 193.12"/><polyline class="cls-3" points="707.59 193.12 709.6 193.04 711.62 193.04"/><polyline class="cls-3" points="711.62 193.04 713.64 193.12 715.66 193.21"/><polyline class="cls-3" points="715.66 193.21 717.68 193.38 719.65 193.59 721.46 193.88 723.14 194.43 724.66 195.27 726 196.32 727.18 197.58 728.11 199.05 728.82 200.61 729.28 202.33"/><polyline class="cls-3" points="729.28 202.33 729.45 204.14 729.28 205.91 728.82 207.63"/><polyline class="cls-3" points="728.82 207.63 728.11 209.23 727.18 210.66"/><polyline class="cls-3" points="727.18 210.66 726 211.92 724.66 212.97 723.14 213.81 721.46 214.36 719.65 214.65"/><polyline class="cls-3" points="719.65 214.65 717.68 214.86 715.66 215.03"/><line class="cls-3" x1="715.66" y1="215.03" x2="713.64" y2="215.16"/><polyline class="cls-3" points="713.64 215.16 711.62 215.2 709.6 215.2 707.59 215.16"/><polyline class="cls-3" points="707.59 215.16 705.57 215.03 703.55 214.86 701.53 214.65"/><polyline class="cls-3" points="701.53 214.65 699.77 214.36 698.08 213.81 696.57 212.97"/><line class="cls-3" x1="696.57" y1="212.97" x2="695.22" y2="211.92"/><polyline class="cls-3" points="695.23 211.92 694.05 210.66 693.08 209.23"/><polyline class="cls-3" points="693.08 209.23 692.37 207.63 691.94 205.91"/><line class="cls-3" x1="710.49" y1="196.32" x2="710.32" y2="196.28"/><line class="cls-3" x1="710.32" y1="196.28" x2="710.15" y2="196.28"/><polyline class="cls-3" points="710.15 196.28 710.02 196.28 709.94 196.24 709.9 196.24 709.82 195.94 709.9 195.9 709.98 195.86 710.15 195.86 710.32 195.86 710.53 195.86"/><polyline class="cls-3" points="710.53 195.86 710.74 195.86 710.91 195.86 711.08 195.86 711.25 195.9 711.33 195.9"/><polyline class="cls-3" points="711.33 195.9 711.37 195.94 711.37 195.98"/><line class="cls-3" x1="711.37" y1="195.98" x2="711.29" y2="196.24"/><line class="cls-3" x1="710.74" y1="196.32" x2="710.87" y2="196.28"/><polyline class="cls-3" points="710.87 196.28 710.99 196.28 711.12 196.28 711.25 196.24 711.29 196.24 711.29 196.19 711.25 196.15 711.16 196.15 711.03 196.15 710.87 196.11"/><polyline class="cls-3" points="710.87 196.11 710.7 196.11 710.53 196.11 710.36 196.11 710.19 196.11 710.07 196.15 709.98 196.15 709.9 196.19 709.9 196.23"/><polyline class="cls-3" points="710.74 196.49 710.61 196.62 710.49 196.49 710.53 196.49 710.57 196.49 710.61 196.49"/><line class="cls-3" x1="710.61" y1="196.19" x2="710.66" y2="196.23"/><polyline class="cls-3" points="710.66 196.24 710.7 196.24 710.74 196.24 710.74 196.49"/><polyline class="cls-3" points="710.74 196.49 710.7 196.49 710.66 196.49 710.61 196.49"/><polyline class="cls-3" points="710.49 196.49 710.49 196.24 710.53 196.24 710.57 196.19 710.61 196.19"/><path class="cls-2" d="M710.15,199.35l0-.13,0-.13a.45.45,0,0,1,.76-.2l.08.08,0,.12v.26l0,.08-.08.13-.09,0-.12,0-.13,0-.12,0-.09,0-.08,0-.09-.13"/><polyline class="cls-3" points="710.11 199.22 710.15 199.09 710.19 198.97 710.28 198.88 710.36 198.8 710.45 198.76 710.57 198.76 710.7 198.76 710.82 198.8"/><polyline class="cls-3" points="710.82 198.8 710.91 198.88 710.99 198.97 711.03 199.09"/><polyline class="cls-3" points="711.03 199.09 711.03 199.22 711.03 199.35 710.99 199.43 710.91 199.56 710.82 199.6"/><line class="cls-3" x1="710.82" y1="199.6" x2="710.7" y2="199.64"/><polyline class="cls-3" points="710.7 199.64 710.57 199.68 710.45 199.64"/><polyline class="cls-3" points="710.45 199.64 710.36 199.6 710.28 199.56 710.19 199.43"/><line class="cls-3" x1="710.19" y1="199.43" x2="710.15" y2="199.35"/><line class="cls-3" x1="710.15" y1="199.35" x2="710.11" y2="199.22"/><path class="cls-2" d="M709.86,199.39l0-.17,0-.21a.75.75,0,0,1,1.26-.34l.12.17.09.17v.38l-.09.21-.12.17-.17.08-.17.09-.21,0-.17,0-.21-.09-.12-.08-.13-.17"/><polyline class="cls-3" points="709.82 199.22 709.86 199.01 709.94 198.84"/><polyline class="cls-3" points="709.94 198.84 710.07 198.67 710.19 198.55 710.4 198.46 710.57 198.46 710.78 198.46 710.95 198.55 711.12 198.67 711.25 198.84 711.33 199.01"/><polyline class="cls-3" points="711.33 199.01 711.33 199.22 711.33 199.39"/><polyline class="cls-3" points="711.33 199.39 711.25 199.6 711.12 199.77 710.95 199.85"/><polyline class="cls-3" points="710.95 199.85 710.78 199.94 710.57 199.98 710.4 199.94"/><polyline class="cls-3" points="710.4 199.94 710.19 199.85 710.07 199.77 709.94 199.6 709.86 199.39"/><line class="cls-3" x1="709.86" y1="199.39" x2="709.82" y2="199.22"/><polyline class="cls-2" points="710.19 199.3 710.15 199.22 710.19 199.09 710.24 199.01 710.28 198.93 710.36 198.84 710.49 198.8 710.7 198.8 710.78 198.84 710.87 198.93 710.95 199.01 710.99 199.09 710.99 199.3 710.95 199.43 710.87 199.52 710.78 199.56 710.7 199.6 710.57 199.64 710.49 199.6 710.36 199.56 710.28 199.52 710.24 199.43"/><polyline class="cls-3" points="710.15 199.22 710.19 199.09 710.24 199.01 710.28 198.93 710.36 198.84 710.49 198.8 710.57 198.8 710.7 198.8 710.78 198.84 710.87 198.93 710.95 199.01 710.99 199.09 710.99 199.22 710.99 199.3 710.95 199.43 710.87 199.51 710.78 199.56 710.7 199.6"/><line class="cls-3" x1="710.7" y1="199.6" x2="710.57" y2="199.64"/><polyline class="cls-3" points="710.57 199.64 710.49 199.6 710.36 199.56 710.28 199.52 710.24 199.43 710.19 199.31 710.15 199.22"/><line class="cls-3" x1="694.55" y1="205.49" x2="694.42" y2="204.14"/><polyline class="cls-3" points="694.43 204.14 694.55 202.75 694.89 201.49"/><polyline class="cls-3" points="694.89 201.49 695.39 200.31 696.11 199.22"/><line class="cls-3" x1="696.11" y1="199.22" x2="696.99" y2="198.3"/><polyline class="cls-3" points="696.99 198.3 698 197.5 699.13 196.87 700.4 196.44 701.91 196.19 703.8 195.98 705.74 195.81 707.67 195.73"/><line class="cls-3" x1="707.67" y1="195.73" x2="709.65" y2="195.69"/><polyline class="cls-3" points="709.65 195.69 711.58 195.69 713.52 195.73 715.49 195.81"/><line class="cls-3" x1="715.49" y1="195.82" x2="717.43" y2="195.98"/><polyline class="cls-3" points="717.43 195.98 719.32 196.19 720.83 196.45"/><polyline class="cls-3" points="720.83 196.44 722.05 196.87 723.19 197.5"/><polyline class="cls-3" points="723.19 197.5 724.24 198.3 725.12 199.22"/><line class="cls-3" x1="725.12" y1="199.22" x2="725.79" y2="200.31"/><polyline class="cls-3" points="725.79 200.31 726.34 201.49 726.68 202.75 726.8 204.14 726.68 205.49"/><polyline class="cls-3" points="726.68 205.49 726.34 206.75 725.79 207.93 725.12 209.02 724.24 209.98"/><polyline class="cls-3" points="724.24 209.99 723.19 210.78 722.05 211.37"/><line class="cls-3" x1="722.05" y1="211.37" x2="720.83" y2="211.84"/><line class="cls-3" x1="720.83" y1="211.84" x2="719.32" y2="212.05"/><line class="cls-3" x1="719.32" y1="212.05" x2="717.43" y2="212.26"/><line class="cls-3" x1="717.43" y1="212.26" x2="715.49" y2="212.42"/><line class="cls-3" x1="715.49" y1="212.42" x2="713.51" y2="212.51"/><line class="cls-3" x1="713.52" y1="212.51" x2="711.58" y2="212.55"/><polyline class="cls-3" points="711.58 212.55 709.65 212.55 707.67 212.51 705.74 212.43 703.8 212.26"/><polyline class="cls-3" points="703.8 212.25 701.91 212.04 700.4 211.84 699.13 211.37"/><line class="cls-3" x1="699.13" y1="211.37" x2="698" y2="210.78"/><line class="cls-3" x1="698" y1="210.78" x2="696.99" y2="209.99"/><polyline class="cls-3" points="696.99 209.99 696.11 209.02 695.39 207.93"/><line class="cls-3" x1="695.39" y1="207.92" x2="694.89" y2="206.75"/><line class="cls-3" x1="694.89" y1="206.75" x2="694.55" y2="205.49"/><polyline class="cls-3" points="697.66 204.94 697.58 204.14 697.66 203.3 697.87 202.54"/><line class="cls-3" x1="697.87" y1="202.54" x2="698.17" y2="201.83"/><polyline class="cls-3" points="698.17 201.83 698.59 201.2 699.13 200.61 699.77 200.15"/><polyline class="cls-3" points="699.77 200.15 700.44 199.77 701.2 199.52 702.33 199.31"/><polyline class="cls-3" points="702.33 199.3 704.1 199.14 705.95 198.97 707.8 198.88 709.69 198.84"/><polyline class="cls-3" points="709.69 198.84 711.54 198.84 713.39 198.88 715.28 198.97 717.13 199.14 718.9 199.3 720.03 199.51"/><polyline class="cls-3" points="720.03 199.51 720.79 199.77 721.46 200.15 722.09 200.61 722.6 201.2 723.06 201.83 723.35 202.54 723.56 203.3"/><line class="cls-3" x1="723.56" y1="203.3" x2="723.65" y2="204.14"/><polyline class="cls-3" points="723.65 204.14 723.56 204.94 723.35 205.7 723.06 206.41 722.6 207.08"/><line class="cls-3" x1="722.6" y1="207.08" x2="722.09" y2="207.63"/><polyline class="cls-3" points="722.09 207.63 721.46 208.13 720.79 208.47 720.03 208.76"/><line class="cls-3" x1="720.03" y1="208.77" x2="718.9" y2="208.93"/><polyline class="cls-3" points="718.9 208.93 717.13 209.1 715.28 209.27 713.39 209.35 711.54 209.4 709.69 209.4 707.8 209.35 705.95 209.27 704.1 209.1 702.33 208.93"/><polyline class="cls-3" points="702.33 208.93 701.2 208.77 700.44 208.47"/><line class="cls-3" x1="700.44" y1="208.47" x2="699.77" y2="208.13"/><polyline class="cls-3" points="699.77 208.13 699.13 207.63 698.59 207.08"/><polyline class="cls-3" points="698.59 207.08 698.17 206.41 697.87 205.7 697.66 204.94"/></g></svg>