<svg id="图层_1" data-name="图层 1" xmlns="http://www.w3.org/2000/svg" viewBox="0 0 1152 576"><defs><style>.cls-1{font-size:6.5px;fill:#0b6190;font-family:CenturyGothic, Century Gothic;}.cls-2{fill:#fff;fill-rule:evenodd;}.cls-3{fill:none;stroke:#0b6190;stroke-linecap:round;stroke-linejoin:bevel;stroke-width:0.24px;}</style></defs><title>OPT master bath TUB-2</title><g id="_OPT_master_bath_TUB-2" data-name=" OPT master bath TUB-2"><text class="cls-1" transform="translate(703.21 209.11)">OPT. <tspan x="-22.48" y="7.8">FREE STANDING TUB</tspan></text><polyline class="cls-2" points="693.16 189.05 693.16 189 693.54 187.49"/><polyline class="cls-2" points="693.16 189 693.16 189.05 693.04 190.6 693.16 192.12 693.16 192.16 693.04 190.6"/><polyline class="cls-2" points="693.16 192.16 693.16 192.12 693.54 193.67"/><polyline class="cls-3" points="693.16 192.16 693.04 190.6 693.16 189 693.54 187.49 693.16 189.05"/><polyline class="cls-3" points="693.16 189.05 693.04 190.6 693.16 192.12 693.54 193.67 693.16 192.16"/><polyline class="cls-2" points="727.64 193.67 728.06 192.16 728.19 190.6 728.02 189.05 728.06 189.01 728.19 190.6 728.02 192.12"/><polyline class="cls-2" points="728.07 189 728.02 189.05 727.64 187.49"/><polyline class="cls-3" points="728.07 192.16 728.19 190.6 728.02 189.05"/><polyline class="cls-3" points="728.02 189.05 727.64 187.49 728.07 189 728.19 190.6 728.02 192.12 727.64 193.67 728.07 192.16"/><path class="cls-2" d="M692.37,194.09l-.43-1.72-.16-1.77.16-1.8c1.17-5.93,5.75-8.86,11.61-9l2-.17,2-.08,2-.09h2l2,.09,2,.08,2,.17,2,.21,1.81.29,1.68.55,1.52.84,1.34,1.05,1.18,1.26.93,1.48.71,1.55.46,1.73a10.56,10.56,0,0,1-9.63,12.32l-2,.21-2,.16c-4.19.26-15.86.55-19.09-2.06l-1.35-1.05-1.17-1.26-1-1.43"/><polyline class="cls-3" points="691.95 192.37 691.78 190.6 691.95 188.79"/><polyline class="cls-3" points="691.95 188.79 692.37 187.07 693.08 185.52"/><line class="cls-3" x1="693.08" y1="185.52" x2="694.05" y2="184.04"/><polyline class="cls-3" points="694.05 184.04 695.22 182.78 696.57 181.73"/><line class="cls-3" x1="696.57" y1="181.73" x2="698.08" y2="180.89"/><line class="cls-3" x1="698.08" y1="180.89" x2="699.77" y2="180.34"/><polyline class="cls-3" points="699.77 180.34 701.53 180.05 703.55 179.84 705.57 179.67 707.59 179.59"/><polyline class="cls-3" points="707.59 179.59 709.6 179.5 711.62 179.5"/><polyline class="cls-3" points="711.62 179.5 713.64 179.59 715.66 179.67"/><polyline class="cls-3" points="715.66 179.67 717.68 179.84 719.65 180.05 721.46 180.34 723.14 180.89 724.66 181.73 726 182.78 727.18 184.04 728.11 185.51 728.82 187.07 729.28 188.79"/><polyline class="cls-3" points="729.28 188.79 729.45 190.6 729.28 192.37 728.82 194.09"/><polyline class="cls-3" points="728.82 194.09 728.11 195.69 727.18 197.12"/><polyline class="cls-3" points="727.18 197.12 726 198.38 724.66 199.43 723.14 200.28 721.46 200.82 719.65 201.12"/><polyline class="cls-3" points="719.65 201.12 717.68 201.33 715.66 201.49"/><line class="cls-3" x1="715.66" y1="201.49" x2="713.64" y2="201.62"/><polyline class="cls-3" points="713.64 201.62 711.62 201.66 709.6 201.66 707.59 201.62"/><polyline class="cls-3" points="707.59 201.62 705.57 201.49 703.55 201.33 701.53 201.12"/><polyline class="cls-3" points="701.53 201.12 699.77 200.82 698.08 200.28 696.57 199.43"/><line class="cls-3" x1="696.57" y1="199.43" x2="695.22" y2="198.38"/><polyline class="cls-3" points="695.23 198.38 694.05 197.12 693.08 195.69"/><polyline class="cls-3" points="693.08 195.69 692.37 194.09 691.94 192.37"/><line class="cls-3" x1="710.49" y1="182.78" x2="710.32" y2="182.74"/><line class="cls-3" x1="710.32" y1="182.74" x2="710.15" y2="182.74"/><polyline class="cls-3" points="710.15 182.74 710.02 182.74 709.94 182.7 709.9 182.7 709.82 182.4 709.9 182.36 709.98 182.32 710.15 182.32 710.32 182.32 710.53 182.32"/><polyline class="cls-3" points="710.53 182.32 710.74 182.32 710.91 182.32 711.08 182.32 711.25 182.36 711.33 182.36"/><polyline class="cls-3" points="711.33 182.36 711.37 182.4 711.37 182.44"/><line class="cls-3" x1="711.37" y1="182.45" x2="711.29" y2="182.7"/><line class="cls-3" x1="710.74" y1="182.78" x2="710.87" y2="182.74"/><polyline class="cls-3" points="710.87 182.74 710.99 182.74 711.12 182.74 711.25 182.7 711.29 182.7 711.29 182.66 711.25 182.61 711.16 182.61 711.03 182.61 710.87 182.57"/><polyline class="cls-3" points="710.87 182.57 710.7 182.57 710.53 182.57 710.36 182.57 710.19 182.57 710.07 182.61 709.98 182.61 709.9 182.66 709.9 182.7"/><polyline class="cls-3" points="710.74 182.95 710.61 183.08 710.49 182.95 710.53 182.95 710.57 182.95 710.61 182.95"/><line class="cls-3" x1="710.61" y1="182.66" x2="710.66" y2="182.7"/><polyline class="cls-3" points="710.66 182.7 710.7 182.7 710.74 182.7 710.74 182.95"/><polyline class="cls-3" points="710.74 182.95 710.7 182.95 710.66 182.95 710.61 182.95"/><polyline class="cls-3" points="710.49 182.95 710.49 182.7 710.53 182.7 710.57 182.66 710.61 182.66"/><path class="cls-2" d="M710.15,185.81l0-.13,0-.12a.45.45,0,0,1,.76-.21l.08.08,0,.13v.25l0,.08-.08.13-.09,0-.12,0-.13.05-.12-.05-.09,0-.08,0-.09-.13"/><polyline class="cls-3" points="710.11 185.68 710.15 185.56 710.19 185.43 710.28 185.35 710.36 185.26 710.45 185.22 710.57 185.22 710.7 185.22 710.82 185.26"/><polyline class="cls-3" points="710.82 185.26 710.91 185.35 710.99 185.43 711.03 185.56"/><polyline class="cls-3" points="711.03 185.56 711.03 185.68 711.03 185.81 710.99 185.89 710.91 186.02 710.82 186.06"/><line class="cls-3" x1="710.82" y1="186.06" x2="710.7" y2="186.1"/><polyline class="cls-3" points="710.7 186.1 710.57 186.15 710.45 186.1"/><polyline class="cls-3" points="710.45 186.1 710.36 186.06 710.28 186.02 710.19 185.89"/><line class="cls-3" x1="710.19" y1="185.89" x2="710.15" y2="185.81"/><line class="cls-3" x1="710.15" y1="185.81" x2="710.11" y2="185.68"/><path class="cls-2" d="M709.86,185.85l0-.17,0-.21a.75.75,0,0,1,1.26-.33l.12.17.09.16v.38l-.09.21-.12.17-.17.08-.17.09-.21,0-.17,0-.21-.09-.12-.08-.13-.17"/><polyline class="cls-3" points="709.82 185.68 709.86 185.47 709.94 185.31"/><polyline class="cls-3" points="709.94 185.31 710.07 185.14 710.19 185.01 710.4 184.93 710.57 184.93 710.78 184.93 710.95 185.01 711.12 185.14 711.25 185.31 711.33 185.47"/><polyline class="cls-3" points="711.33 185.47 711.33 185.68 711.33 185.85"/><polyline class="cls-3" points="711.33 185.85 711.25 186.06 711.12 186.23 710.95 186.31"/><polyline class="cls-3" points="710.95 186.31 710.78 186.4 710.57 186.44 710.4 186.4"/><polyline class="cls-3" points="710.4 186.4 710.19 186.31 710.07 186.23 709.94 186.06 709.86 185.85"/><line class="cls-3" x1="709.86" y1="185.85" x2="709.82" y2="185.68"/><polyline class="cls-2" points="710.19 185.77 710.15 185.68 710.19 185.56 710.24 185.47 710.28 185.39 710.36 185.31 710.49 185.26 710.7 185.26 710.78 185.31 710.87 185.39 710.95 185.47 710.99 185.56 710.99 185.77 710.95 185.89 710.87 185.98 710.78 186.02 710.7 186.06 710.57 186.1 710.49 186.06 710.36 186.02 710.28 185.98 710.24 185.89"/><polyline class="cls-3" points="710.15 185.68 710.19 185.56 710.24 185.47 710.28 185.39 710.36 185.31 710.49 185.26 710.57 185.26 710.7 185.26 710.78 185.31 710.87 185.39 710.95 185.47 710.99 185.56 710.99 185.68 710.99 185.77 710.95 185.89 710.87 185.98 710.78 186.02 710.7 186.06"/><line class="cls-3" x1="710.7" y1="186.06" x2="710.57" y2="186.1"/><polyline class="cls-3" points="710.57 186.1 710.49 186.06 710.36 186.02 710.28 185.98 710.24 185.89 710.19 185.77 710.15 185.68"/><line class="cls-3" x1="694.55" y1="191.95" x2="694.42" y2="190.6"/><polyline class="cls-3" points="694.43 190.6 694.55 189.22 694.89 187.95"/><polyline class="cls-3" points="694.89 187.95 695.39 186.78 696.11 185.68"/><line class="cls-3" x1="696.11" y1="185.68" x2="696.99" y2="184.76"/><polyline class="cls-3" points="696.99 184.76 698 183.96 699.13 183.33 700.4 182.91 701.91 182.66 703.8 182.45 705.74 182.28 707.67 182.19"/><line class="cls-3" x1="707.67" y1="182.19" x2="709.65" y2="182.15"/><polyline class="cls-3" points="709.65 182.15 711.58 182.15 713.52 182.19 715.49 182.28"/><line class="cls-3" x1="715.49" y1="182.28" x2="717.43" y2="182.45"/><polyline class="cls-3" points="717.43 182.45 719.32 182.66 720.83 182.91"/><polyline class="cls-3" points="720.83 182.91 722.05 183.33 723.19 183.96"/><polyline class="cls-3" points="723.19 183.96 724.24 184.76 725.12 185.68"/><line class="cls-3" x1="725.12" y1="185.68" x2="725.79" y2="186.78"/><polyline class="cls-3" points="725.79 186.78 726.34 187.95 726.68 189.22 726.8 190.6 726.68 191.95"/><polyline class="cls-3" points="726.68 191.95 726.34 193.21 725.79 194.39 725.12 195.48 724.24 196.45"/><polyline class="cls-3" points="724.24 196.45 723.19 197.25 722.05 197.84"/><line class="cls-3" x1="722.05" y1="197.84" x2="720.83" y2="198.3"/><line class="cls-3" x1="720.83" y1="198.3" x2="719.32" y2="198.51"/><line class="cls-3" x1="719.32" y1="198.51" x2="717.43" y2="198.72"/><line class="cls-3" x1="717.43" y1="198.72" x2="715.49" y2="198.89"/><line class="cls-3" x1="715.49" y1="198.89" x2="713.51" y2="198.97"/><line class="cls-3" x1="713.52" y1="198.97" x2="711.58" y2="199.01"/><polyline class="cls-3" points="711.58 199.01 709.65 199.01 707.67 198.97 705.74 198.89 703.8 198.72"/><polyline class="cls-3" points="703.8 198.72 701.91 198.51 700.4 198.3 699.13 197.84"/><line class="cls-3" x1="699.13" y1="197.84" x2="698" y2="197.25"/><line class="cls-3" x1="698" y1="197.25" x2="696.99" y2="196.45"/><polyline class="cls-3" points="696.99 196.45 696.11 195.48 695.39 194.39"/><line class="cls-3" x1="695.39" y1="194.39" x2="694.89" y2="193.21"/><line class="cls-3" x1="694.89" y1="193.21" x2="694.55" y2="191.95"/><polyline class="cls-3" points="697.66 191.4 697.58 190.6 697.66 189.76 697.87 189"/><line class="cls-3" x1="697.87" y1="189.01" x2="698.17" y2="188.29"/><polyline class="cls-3" points="698.17 188.29 698.59 187.66 699.13 187.07 699.77 186.61"/><polyline class="cls-3" points="699.77 186.61 700.44 186.23 701.2 185.98 702.33 185.77"/><polyline class="cls-3" points="702.33 185.77 704.1 185.6 705.95 185.43 707.8 185.35 709.69 185.31"/><polyline class="cls-3" points="709.69 185.31 711.54 185.31 713.39 185.35 715.28 185.43 717.13 185.6 718.9 185.77 720.03 185.98"/><polyline class="cls-3" points="720.03 185.98 720.79 186.23 721.46 186.61 722.09 187.07 722.6 187.66 723.06 188.29 723.35 189 723.56 189.76"/><line class="cls-3" x1="723.56" y1="189.76" x2="723.65" y2="190.6"/><polyline class="cls-3" points="723.65 190.6 723.56 191.4 723.35 192.16 723.06 192.87 722.6 193.55"/><line class="cls-3" x1="722.6" y1="193.55" x2="722.09" y2="194.09"/><polyline class="cls-3" points="722.09 194.09 721.46 194.6 720.79 194.93 720.03 195.23"/><line class="cls-3" x1="720.03" y1="195.23" x2="718.9" y2="195.4"/><polyline class="cls-3" points="718.9 195.4 717.13 195.56 715.28 195.73 713.39 195.82 711.54 195.86 709.69 195.86 707.8 195.82 705.95 195.73 704.1 195.56 702.33 195.4"/><polyline class="cls-3" points="702.33 195.4 701.2 195.23 700.44 194.93"/><line class="cls-3" x1="700.44" y1="194.93" x2="699.77" y2="194.6"/><polyline class="cls-3" points="699.77 194.6 699.13 194.09 698.59 193.55"/><polyline class="cls-3" points="698.59 193.55 698.17 192.87 697.87 192.16 697.66 191.4"/></g></svg>