<svg id="图层_1" data-name="图层 1" xmlns="http://www.w3.org/2000/svg" viewBox="0 0 1152 576"><defs><style>.cls-1{fill:#fff;}.cls-2,.cls-6{fill:#0f577e;}.cls-3,.cls-4,.cls-5{fill:none;stroke:#0f577e;stroke-linejoin:bevel;}.cls-3,.cls-4{stroke-linecap:round;}.cls-3{stroke-width:0.93px;}.cls-4{stroke-width:0.46px;}.cls-5{stroke-width:0;}.cls-6{font-size:6.5px;font-family:CenturyGothic, Century Gothic;}</style></defs><title>OPT FRENCH DOOR-2</title><g id="OPT_FRENCH_DOOR-2" data-name="OPT FRENCH DOOR-2"><rect class="cls-1" x="426.9" y="165.98" width="32.81" height="7.12"/><rect class="cls-2" x="415.62" y="166.15" width="11.27" height="4.24"/><rect class="cls-2" x="459.49" y="166.15" width="10.72" height="4.24"/><rect class="cls-2" x="411.38" y="166.15" width="4.24" height="18.56"/><rect class="cls-2" x="415.88" y="170.69" width="1.87" height="14.03"/><rect class="cls-2" x="417.74" y="170.69" width="9.15" height="1.82"/><rect class="cls-2" x="459.49" y="170.69" width="10.72" height="1.82"/><line class="cls-3" x1="426.9" y1="166.15" x2="415.62" y2="166.15"/><line class="cls-3" x1="470.21" y1="166.15" x2="459.49" y2="166.15"/><line class="cls-3" x1="426.9" y1="166.15" x2="426.9" y2="170.39"/><line class="cls-3" x1="459.49" y1="166.15" x2="459.49" y2="170.39"/><line class="cls-3" x1="470.21" y1="170.39" x2="470.21" y2="166.15"/><line class="cls-3" x1="470.21" y1="170.39" x2="470.21" y2="166.15"/><line class="cls-3" x1="415.62" y1="170.39" x2="426.9" y2="170.39"/><line class="cls-3" x1="459.49" y1="170.39" x2="470.21" y2="170.39"/><line class="cls-4" x1="459.49" y1="166.15" x2="459.07" y2="166.15"/><line class="cls-4" x1="459.49" y1="170.39" x2="459.07" y2="170.39"/><line class="cls-4" x1="459.49" y1="166.15" x2="459.49" y2="170.39"/><line class="cls-4" x1="459.07" y1="166.15" x2="459.07" y2="170.39"/><line class="cls-4" x1="427.28" y1="166.15" x2="426.9" y2="166.15"/><line class="cls-4" x1="427.28" y1="170.39" x2="426.9" y2="170.39"/><line class="cls-4" x1="427.28" y1="166.15" x2="427.28" y2="170.39"/><line class="cls-4" x1="426.9" y1="166.15" x2="426.9" y2="170.39"/><line class="cls-4" x1="459.19" y1="166.15" x2="459.19" y2="165.81"/><line class="cls-4" x1="459.19" y1="165.82" x2="460.93" y2="165.82"/><line class="cls-4" x1="460.93" y1="166.15" x2="460.93" y2="165.81"/><line class="cls-4" x1="427.15" y1="166.15" x2="427.15" y2="165.81"/><line class="cls-4" x1="425.41" y1="165.82" x2="427.15" y2="165.82"/><line class="cls-4" x1="425.41" y1="166.15" x2="425.41" y2="165.81"/><polyline class="cls-3" points="411.38 166.15 411.38 184.72 415.62 184.72"/><line class="cls-3" x1="411.38" y1="184.72" x2="415.62" y2="184.72"/><polyline class="cls-3" points="415.62 166.15 411.38 166.15 415.62 166.15"/><line class="cls-3" x1="415.62" y1="184.72" x2="415.62" y2="170.39"/><polyline class="cls-5" points="415.62 170.39 415.62 184.72 418 184.72"/><polyline class="cls-3" points="415.88 170.69 415.88 184.72 417.74 184.72"/><line class="cls-3" x1="417.74" y1="170.69" x2="415.88" y2="170.69"/><line class="cls-3" x1="417.74" y1="184.72" x2="417.74" y2="172.51"/><line class="cls-3" x1="426.9" y1="170.69" x2="417.74" y2="170.69"/><line class="cls-3" x1="470.21" y1="170.69" x2="459.49" y2="170.69"/><line class="cls-3" x1="426.9" y1="170.69" x2="426.9" y2="172.51"/><line class="cls-3" x1="459.49" y1="170.69" x2="459.49" y2="172.51"/><line class="cls-3" x1="470.21" y1="172.51" x2="470.21" y2="170.69"/><line class="cls-3" x1="417.74" y1="172.51" x2="426.9" y2="172.51"/><line class="cls-3" x1="459.49" y1="172.51" x2="470.21" y2="172.51"/><line class="cls-4" x1="459.49" y1="170.39" x2="459.07" y2="170.39"/><line class="cls-4" x1="459.49" y1="172.81" x2="459.07" y2="172.81"/><line class="cls-4" x1="459.49" y1="170.39" x2="459.49" y2="172.81"/><line class="cls-4" x1="459.07" y1="170.39" x2="459.07" y2="172.81"/><line class="cls-4" x1="427.28" y1="170.39" x2="426.9" y2="170.39"/><line class="cls-4" x1="427.28" y1="172.81" x2="426.9" y2="172.81"/><line class="cls-4" x1="427.28" y1="170.39" x2="427.28" y2="172.81"/><line class="cls-4" x1="426.9" y1="170.39" x2="426.9" y2="172.81"/><line class="cls-4" x1="427.28" y1="172.81" x2="427.28" y2="188.7"/><line class="cls-4" x1="428" y1="172.81" x2="428" y2="188.7"/><line class="cls-4" x1="427.28" y1="188.7" x2="428" y2="188.7"/><line class="cls-4" x1="428" y1="172.81" x2="427.28" y2="172.81"/><polyline class="cls-4" points="443.17 172.81 443.13 173.74 443 175.01"/><polyline class="cls-4" points="443 175.01 442.79 176.24 442.45 177.47"/><polyline class="cls-4" points="442.45 177.47 442.03 178.7 441.52 179.84 440.93 180.95"/><polyline class="cls-4" points="440.93 180.95 440.21 182.05 439.44 183.02 438.6 183.96 437.66 184.84 436.64 185.61 435.59 186.33 434.48 186.97"/><line class="cls-4" x1="434.48" y1="186.97" x2="433.34" y2="187.47"/><polyline class="cls-4" points="433.34 187.47 432.15 187.94 430.92 188.28 429.65 188.49 428.42 188.66 427.28 188.7"/><line class="cls-4" x1="459.07" y1="172.81" x2="443.17" y2="172.81"/><line class="cls-4" x1="459.07" y1="172.05" x2="443.17" y2="172.05"/><line class="cls-4" x1="443.17" y1="172.81" x2="443.17" y2="172.05"/><line class="cls-4" x1="459.07" y1="172.05" x2="459.07" y2="172.81"/><line class="cls-4" x1="427.15" y1="172.81" x2="427.15" y2="173.11"/><line class="cls-4" x1="425.41" y1="173.11" x2="427.15" y2="173.11"/><line class="cls-4" x1="425.41" y1="172.81" x2="425.41" y2="173.11"/><polyline class="cls-4" points="459.19 172.81 459.19 173.1 460.93 173.1"/><line class="cls-4" x1="460.93" y1="172.81" x2="460.93" y2="173.11"/><text class="cls-6" transform="translate(412.54 162.01)">OPT FRENCH DOOR</text></g></svg>