<svg preserveAspectRatio="xMidYMid meet" data-bbox="411.27 169.637 61.719 32.753" viewBox="0 0 1152 576" xmlns="http://www.w3.org/2000/svg" data-type="ugc" role="presentation" aria-hidden="true" aria-label="">
    <g>
        <path fill="#ffffff" d="M459.71 179.68v7.12H426.9v-7.12h32.81z"></path>
        <path fill="#0f577e" d="M426.89 179.85v4.24h-11.27v-4.24h11.27z"></path>
        <path fill="#0f577e" d="M470.21 179.85v4.24h-10.72v-4.24h10.72z"></path>
        <path fill="#0f577e" d="M415.62 179.85v18.56h-4.24v-18.56h4.24z"></path>
        <path fill="#0f577e" d="M417.75 184.38v14.03h-1.87v-14.03h1.87z"></path>
        <path fill="#0f577e" d="M426.89 184.38v1.82h-9.15v-1.82h9.15z"></path>
        <path fill="#0f577e" d="M470.21 184.38v1.82h-10.72v-1.82h10.72z"></path>
        <path stroke-width=".93" stroke-linecap="round" fill="none" stroke="#0f577e" stroke-linejoin="bevel" d="M426.9 179.85h-11.28"></path>
        <path stroke-width=".93" stroke-linecap="round" fill="none" stroke="#0f577e" stroke-linejoin="bevel" d="M470.21 179.85h-10.72"></path>
        <path stroke-width=".93" stroke-linecap="round" fill="none" stroke="#0f577e" stroke-linejoin="bevel" d="M426.9 179.85v4.23"></path>
        <path stroke-width=".93" stroke-linecap="round" fill="none" stroke="#0f577e" stroke-linejoin="bevel" d="M459.49 179.85v4.23"></path>
        <path stroke-width=".93" stroke-linecap="round" fill="none" stroke="#0f577e" stroke-linejoin="bevel" d="M470.21 184.08v-4.23"></path>
        <path stroke-width=".93" stroke-linecap="round" fill="none" stroke="#0f577e" stroke-linejoin="bevel" d="M470.21 184.08v-4.23"></path>
        <path stroke-width=".93" stroke-linecap="round" fill="none" stroke="#0f577e" stroke-linejoin="bevel" d="M415.62 184.08h11.28"></path>
        <path stroke-width=".93" stroke-linecap="round" fill="none" stroke="#0f577e" stroke-linejoin="bevel" d="M459.49 184.08h10.72"></path>
        <path stroke-width=".46" stroke-linecap="round" fill="none" stroke="#0f577e" stroke-linejoin="bevel" d="M459.49 179.85h-.42"></path>
        <path stroke-width=".46" stroke-linecap="round" fill="none" stroke="#0f577e" stroke-linejoin="bevel" d="M459.49 184.08h-.42"></path>
        <path stroke-width=".46" stroke-linecap="round" fill="none" stroke="#0f577e" stroke-linejoin="bevel" d="M459.49 179.85v4.23"></path>
        <path stroke-width=".46" stroke-linecap="round" fill="none" stroke="#0f577e" stroke-linejoin="bevel" d="M459.07 179.85v4.23"></path>
        <path stroke-width=".46" stroke-linecap="round" fill="none" stroke="#0f577e" stroke-linejoin="bevel" d="M427.28 179.85h-.38"></path>
        <path stroke-width=".46" stroke-linecap="round" fill="none" stroke="#0f577e" stroke-linejoin="bevel" d="M427.28 184.08h-.38"></path>
        <path stroke-width=".46" stroke-linecap="round" fill="none" stroke="#0f577e" stroke-linejoin="bevel" d="M427.28 179.85v4.23"></path>
        <path stroke-width=".46" stroke-linecap="round" fill="none" stroke="#0f577e" stroke-linejoin="bevel" d="M426.9 179.85v4.23"></path>
        <path stroke-width=".46" stroke-linecap="round" fill="none" stroke="#0f577e" stroke-linejoin="bevel" d="M459.19 179.85v-.34"></path>
        <path stroke-width=".46" stroke-linecap="round" fill="none" stroke="#0f577e" stroke-linejoin="bevel" d="M459.19 179.51h1.74"></path>
        <path stroke-width=".46" stroke-linecap="round" fill="none" stroke="#0f577e" stroke-linejoin="bevel" d="M460.93 179.85v-.34"></path>
        <path stroke-width=".46" stroke-linecap="round" fill="none" stroke="#0f577e" stroke-linejoin="bevel" d="M427.15 179.85v-.34"></path>
        <path stroke-width=".46" stroke-linecap="round" fill="none" stroke="#0f577e" stroke-linejoin="bevel" d="M425.41 179.51h1.74"></path>
        <path stroke-width=".46" stroke-linecap="round" fill="none" stroke="#0f577e" stroke-linejoin="bevel" d="M425.41 179.85v-.34"></path>
        <path stroke-width=".93" stroke-linecap="round" fill="none" stroke="#0f577e" stroke-linejoin="bevel" d="M411.38 179.84v18.57h4.24"></path>
        <path stroke-width=".93" stroke-linecap="round" fill="none" stroke="#0f577e" stroke-linejoin="bevel" d="M411.38 198.41h4.24"></path>
        <path stroke-width=".93" stroke-linecap="round" fill="none" stroke="#0f577e" stroke-linejoin="bevel" d="M415.62 179.84h-4.24 4.24"></path>
        <path stroke-width=".93" stroke-linecap="round" fill="none" stroke="#0f577e" stroke-linejoin="bevel" d="M415.62 198.41v-14.33"></path>
        <path stroke-width="0" fill="none" stroke="#0f577e" stroke-linejoin="bevel" d="M415.62 184.08v14.33H418"></path>
        <path stroke-width=".93" stroke-linecap="round" fill="none" stroke="#0f577e" stroke-linejoin="bevel" d="M415.88 184.38v14.03h1.86"></path>
        <path stroke-width=".93" stroke-linecap="round" fill="none" stroke="#0f577e" stroke-linejoin="bevel" d="M417.74 184.38h-1.86"></path>
        <path stroke-width=".93" stroke-linecap="round" fill="none" stroke="#0f577e" stroke-linejoin="bevel" d="M417.74 198.41V186.2"></path>
        <path stroke-width=".93" stroke-linecap="round" fill="none" stroke="#0f577e" stroke-linejoin="bevel" d="M426.9 184.38h-9.16"></path>
        <path stroke-width=".93" stroke-linecap="round" fill="none" stroke="#0f577e" stroke-linejoin="bevel" d="M470.21 184.38h-10.72"></path>
        <path stroke-width=".93" stroke-linecap="round" fill="none" stroke="#0f577e" stroke-linejoin="bevel" d="M426.9 184.38v1.82"></path>
        <path stroke-width=".93" stroke-linecap="round" fill="none" stroke="#0f577e" stroke-linejoin="bevel" d="M459.49 184.38v1.82"></path>
        <path stroke-width=".93" stroke-linecap="round" fill="none" stroke="#0f577e" stroke-linejoin="bevel" d="M470.21 186.2v-1.82"></path>
        <path stroke-width=".93" stroke-linecap="round" fill="none" stroke="#0f577e" stroke-linejoin="bevel" d="M417.74 186.2h9.16"></path>
        <path stroke-width=".93" stroke-linecap="round" fill="none" stroke="#0f577e" stroke-linejoin="bevel" d="M459.49 186.2h10.72"></path>
        <path stroke-width=".46" stroke-linecap="round" fill="none" stroke="#0f577e" stroke-linejoin="bevel" d="M459.49 184.08h-.42"></path>
        <path stroke-width=".46" stroke-linecap="round" fill="none" stroke="#0f577e" stroke-linejoin="bevel" d="M459.49 186.5h-.42"></path>
        <path stroke-width=".46" stroke-linecap="round" fill="none" stroke="#0f577e" stroke-linejoin="bevel" d="M459.49 184.08v2.42"></path>
        <path stroke-width=".46" stroke-linecap="round" fill="none" stroke="#0f577e" stroke-linejoin="bevel" d="M459.07 184.08v2.42"></path>
        <path stroke-width=".46" stroke-linecap="round" fill="none" stroke="#0f577e" stroke-linejoin="bevel" d="M427.28 184.08h-.38"></path>
        <path stroke-width=".46" stroke-linecap="round" fill="none" stroke="#0f577e" stroke-linejoin="bevel" d="M427.28 186.5h-.38"></path>
        <path stroke-width=".46" stroke-linecap="round" fill="none" stroke="#0f577e" stroke-linejoin="bevel" d="M427.28 184.08v2.42"></path>
        <path stroke-width=".46" stroke-linecap="round" fill="none" stroke="#0f577e" stroke-linejoin="bevel" d="M426.9 184.08v2.42"></path>
        <path stroke-width=".46" stroke-linecap="round" fill="none" stroke="#0f577e" stroke-linejoin="bevel" d="M427.28 186.5v15.89"></path>
        <path stroke-width=".46" stroke-linecap="round" fill="none" stroke="#0f577e" stroke-linejoin="bevel" d="M428 186.5v15.89"></path>
        <path stroke-width=".46" stroke-linecap="round" fill="none" stroke="#0f577e" stroke-linejoin="bevel" d="M427.28 202.39h.72"></path>
        <path stroke-width=".46" stroke-linecap="round" fill="none" stroke="#0f577e" stroke-linejoin="bevel" d="M428 186.5h-.72"></path>
        <path stroke-width=".46" stroke-linecap="round" fill="none" stroke="#0f577e" stroke-linejoin="bevel" d="M443.17 186.5l-.04.93-.13 1.27"></path>
        <path stroke-width=".46" stroke-linecap="round" fill="none" stroke="#0f577e" stroke-linejoin="bevel" d="M443 188.7l-.21 1.23-.34 1.23"></path>
        <path stroke-width=".46" stroke-linecap="round" fill="none" stroke="#0f577e" stroke-linejoin="bevel" d="M442.45 191.16l-.42 1.23-.51 1.14-.59 1.11"></path>
        <path stroke-width=".46" stroke-linecap="round" fill="none" stroke="#0f577e" stroke-linejoin="bevel" d="M440.93 194.64l-.72 1.1-.77.97-.84.94-.94.89-1.02.76-1.05.72-1.11.64"></path>
        <path stroke-width=".46" stroke-linecap="round" fill="none" stroke="#0f577e" stroke-linejoin="bevel" d="M434.48 200.66l-1.14.5"></path>
        <path stroke-width=".46" stroke-linecap="round" fill="none" stroke="#0f577e" stroke-linejoin="bevel" d="M433.34 201.16l-1.19.47-1.23.34-1.27.21-1.23.17-1.14.04"></path>
        <path stroke-width=".46" stroke-linecap="round" fill="none" stroke="#0f577e" stroke-linejoin="bevel" d="M459.07 186.5h-15.9"></path>
        <path stroke-width=".46" stroke-linecap="round" fill="none" stroke="#0f577e" stroke-linejoin="bevel" d="M459.07 185.74h-15.9"></path>
        <path stroke-width=".46" stroke-linecap="round" fill="none" stroke="#0f577e" stroke-linejoin="bevel" d="M443.17 186.5v-.76"></path>
        <path stroke-width=".46" stroke-linecap="round" fill="none" stroke="#0f577e" stroke-linejoin="bevel" d="M459.07 185.74v.76"></path>
        <path stroke-width=".46" stroke-linecap="round" fill="none" stroke="#0f577e" stroke-linejoin="bevel" d="M427.15 186.5v.3"></path>
        <path stroke-width=".46" stroke-linecap="round" fill="none" stroke="#0f577e" stroke-linejoin="bevel" d="M425.41 186.8h1.74"></path>
        <path stroke-width=".46" stroke-linecap="round" fill="none" stroke="#0f577e" stroke-linejoin="bevel" d="M425.41 186.5v.3"></path>
        <path stroke-width=".46" stroke-linecap="round" fill="none" stroke="#0f577e" stroke-linejoin="bevel" d="M459.19 186.5v.3h1.74"></path>
        <path stroke-width=".46" stroke-linecap="round" fill="none" stroke="#0f577e" stroke-linejoin="bevel" d="M460.93 186.5v.3"></path>
        <text transform="translate(411.27 175.7)" font-size="6.5" font-family="CenturyGothic,Century Gothic" fill="#0f577e">
            OPT FRENCH DOOR
        </text>
    </g>
</svg>