<svg id="图层_1" data-name="图层 1" xmlns="http://www.w3.org/2000/svg" viewBox="0 0 1152 576"><defs><style>.cls-1,.cls-5{fill:#fff;}.cls-2,.cls-6{fill:none;stroke:#0f5a83;stroke-linecap:round;stroke-linejoin:bevel;}.cls-2{stroke-width:0.48px;}.cls-3,.cls-7{font-size:6.6px;fill:#0f5a83;font-family:CenturyGothic, Century Gothic;}.cls-3{letter-spacing:0em;}.cls-4{letter-spacing:0em;}.cls-5{fill-rule:evenodd;}.cls-6{stroke-width:0.46px;}</style></defs><title>OPT  PORCH</title><g id="_OPT_PORCH" data-name=" OPT  PORCH"><rect class="cls-1" x="496.14" y="481.39" width="37.62" height="16.72"/><line class="cls-2" x1="496.14" y1="492.51" x2="496.14" y2="498.11"/><line class="cls-2" x1="496.14" y1="498.11" x2="533.75" y2="498.11"/><line class="cls-2" x1="533.76" y1="498.11" x2="533.76" y2="492.51"/><line class="cls-2" x1="496.14" y1="486.95" x2="496.14" y2="492.51"/><line class="cls-2" x1="496.14" y1="492.51" x2="533.75" y2="492.51"/><line class="cls-2" x1="533.76" y1="492.51" x2="533.76" y2="486.95"/><polyline class="cls-2" points="496.13 481.39 496.13 486.95 533.75 486.95"/><line class="cls-2" x1="533.76" y1="486.95" x2="533.76" y2="481.39"/><rect class="cls-1" x="512.31" y="490" width="5.23" height="5.14"/><text class="cls-3" transform="translate(512.31 494.26)">U<tspan class="cls-4" x="4.34" y="0">P</tspan></text><line class="cls-2" x1="514.95" y1="486.61" x2="514.95" y2="481.89"/><polyline class="cls-5" points="514.95 481.89 515.99 485.57 513.9 485.19"/><line class="cls-2" x1="514.95" y1="481.89" x2="515.99" y2="485.57"/><polyline class="cls-2" points="515.99 485.57 513.9 485.19 514.95 481.89"/><line class="cls-2" x1="418.81" y1="441.26" x2="418.81" y2="474.2"/><line class="cls-2" x1="418.81" y1="474.2" x2="536.35" y2="474.2"/><polyline class="cls-2" points="536.35 453.8 536.35 481.39 496.13 481.39"/><line class="cls-6" x1="536.35" y1="453.8" x2="540.82" y2="453.8"/><line class="cls-2" x1="413.58" y1="479.42" x2="413.58" y2="441.26"/><line class="cls-6" x1="413.58" y1="441.26" x2="418.81" y2="441.26"/><line class="cls-2" x1="411.49" y1="439.09" x2="411.49" y2="464.17"/><text class="cls-7" transform="translate(452.41 460.36)"><tspan xml:space="preserve"> OPT  PORCH</tspan></text><rect class="cls-1" x="484.99" y="471.73" width="9.4" height="9.4"/><rect class="cls-2" x="484.99" y="471.73" width="9.4" height="9.4"/><rect class="cls-1" x="411.59" y="471.73" width="9.4" height="9.4"/><rect class="cls-2" x="411.59" y="471.73" width="9.41" height="9.4"/><line class="cls-2" x1="411.34" y1="481.39" x2="413.76" y2="481.39"/><line class="cls-2" x1="416.77" y1="481.39" x2="428.81" y2="481.39"/><line class="cls-2" x1="431.82" y1="481.39" x2="437.84" y2="481.39"/><line class="cls-2" x1="440.85" y1="481.39" x2="452.89" y2="481.39"/><line class="cls-2" x1="455.89" y1="481.39" x2="461.91" y2="481.39"/><line class="cls-2" x1="464.92" y1="481.39" x2="476.96" y2="481.39"/><line class="cls-2" x1="479.97" y1="481.39" x2="485.99" y2="481.39"/><line class="cls-2" x1="489" y1="481.39" x2="495.98" y2="481.39"/><line class="cls-2" x1="495.98" y1="479.05" x2="495.98" y2="481.39"/><line class="cls-2" x1="416.77" y1="479.05" x2="428.81" y2="479.05"/><line class="cls-2" x1="431.82" y1="479.05" x2="437.84" y2="479.05"/><line class="cls-2" x1="440.85" y1="479.05" x2="452.89" y2="479.05"/><line class="cls-2" x1="455.89" y1="479.05" x2="461.91" y2="479.05"/><line class="cls-2" x1="464.92" y1="479.05" x2="476.96" y2="479.05"/><line class="cls-2" x1="479.97" y1="479.05" x2="485.99" y2="479.05"/><line class="cls-2" x1="489" y1="479.05" x2="495.98" y2="479.05"/><line class="cls-2" x1="413.68" y1="479.05" x2="415.27" y2="479.05"/><line class="cls-2" x1="533.93" y1="481.39" x2="495.98" y2="481.39"/><line class="cls-6" x1="411.34" y1="440.84" x2="411.34" y2="443.93"/><line class="cls-6" x1="411.34" y1="446.94" x2="411.34" y2="452.96"/><line class="cls-2" x1="411.34" y1="455.97" x2="411.34" y2="468.01"/><line class="cls-2" x1="411.34" y1="471.02" x2="411.34" y2="477.04"/><line class="cls-2" x1="411.34" y1="481.39" x2="411.34" y2="479.8"/><line class="cls-6" x1="413.68" y1="440.84" x2="413.68" y2="443.93"/><line class="cls-6" x1="413.68" y1="446.94" x2="413.68" y2="452.96"/><line class="cls-2" x1="413.68" y1="455.97" x2="413.68" y2="468.01"/><line class="cls-2" x1="413.68" y1="471.02" x2="413.68" y2="477.04"/><line class="cls-2" x1="413.68" y1="479.05" x2="413.68" y2="477.46"/></g></svg>