<svg id="图层_1" data-name="图层 1" xmlns="http://www.w3.org/2000/svg" viewBox="0 0 1152 576"><defs><style>.cls-1,.cls-3{fill:#fff;}.cls-2{fill:none;stroke:#0f5a83;stroke-linecap:round;stroke-linejoin:bevel;stroke-width:0.25px;}.cls-3{fill-rule:evenodd;}.cls-4{font-size:6.6px;fill:#0f5a83;font-family:CenturyGothic, Century Gothic;}</style></defs><title>opt island extension</title><g id="opt_island_extension" data-name="opt island extension"><polygon class="cls-1" points="613.49 213.58 613.49 259.29 642.1 259.29 642.1 268.17 691.55 268.17 691.55 213.58 613.49 213.58"/><line class="cls-2" x1="623.63" y1="242.85" x2="625.34" y2="242.85"/><line class="cls-2" x1="627.27" y1="242.85" x2="629.19" y2="242.85"/><line class="cls-2" x1="631.12" y1="242.85" x2="633.04" y2="242.85"/><line class="cls-2" x1="634.96" y1="242.85" x2="636.89" y2="242.85"/><line class="cls-2" x1="638.81" y1="242.85" x2="640.74" y2="242.85"/><line class="cls-2" x1="642.66" y1="242.85" x2="646.08" y2="242.85"/><line class="cls-2" x1="623.63" y1="230.02" x2="623.63" y2="232.5"/><line class="cls-2" x1="623.63" y1="234.43" x2="623.63" y2="236.35"/><line class="cls-2" x1="623.63" y1="238.27" x2="623.63" y2="240.2"/><line class="cls-2" x1="623.63" y1="242.85" x2="623.63" y2="241.27"/><line class="cls-2" x1="623.63" y1="230.02" x2="625.34" y2="230.02"/><line class="cls-2" x1="627.27" y1="230.02" x2="629.19" y2="230.02"/><line class="cls-2" x1="631.12" y1="230.02" x2="633.04" y2="230.02"/><line class="cls-2" x1="634.96" y1="230.02" x2="636.89" y2="230.02"/><line class="cls-2" x1="638.81" y1="230.02" x2="640.74" y2="230.02"/><line class="cls-2" x1="642.66" y1="230.02" x2="646.08" y2="230.02"/><line class="cls-2" x1="687.76" y1="230.02" x2="687.76" y2="232.5"/><line class="cls-2" x1="687.76" y1="234.43" x2="687.76" y2="236.35"/><line class="cls-2" x1="687.76" y1="238.27" x2="687.76" y2="240.2"/><line class="cls-2" x1="687.76" y1="242.85" x2="687.76" y2="241.27"/><line class="cls-2" x1="665.32" y1="242.85" x2="667.67" y2="242.85"/><line class="cls-2" x1="669.59" y1="242.85" x2="671.52" y2="242.85"/><line class="cls-2" x1="673.44" y1="242.85" x2="675.37" y2="242.85"/><line class="cls-2" x1="677.29" y1="242.85" x2="679.21" y2="242.85"/><line class="cls-2" x1="681.14" y1="242.85" x2="683.06" y2="242.85"/><line class="cls-2" x1="684.99" y1="242.85" x2="687.76" y2="242.85"/><line class="cls-2" x1="665.32" y1="230.02" x2="667.67" y2="230.02"/><line class="cls-2" x1="669.59" y1="230.02" x2="671.52" y2="230.02"/><line class="cls-2" x1="673.44" y1="230.02" x2="675.37" y2="230.02"/><line class="cls-2" x1="677.29" y1="230.02" x2="679.21" y2="230.02"/><line class="cls-2" x1="681.14" y1="230.02" x2="683.06" y2="230.02"/><line class="cls-2" x1="684.99" y1="230.02" x2="687.76" y2="230.02"/><line class="cls-2" x1="646.08" y1="242.85" x2="648.43" y2="242.85"/><line class="cls-2" x1="650.36" y1="242.85" x2="652.28" y2="242.85"/><line class="cls-2" x1="654.2" y1="242.85" x2="656.13" y2="242.85"/><line class="cls-2" x1="658.05" y1="242.85" x2="659.97" y2="242.85"/><line class="cls-2" x1="661.9" y1="242.85" x2="665.32" y2="242.85"/><line class="cls-2" x1="646.08" y1="230.02" x2="648.43" y2="230.02"/><line class="cls-2" x1="650.36" y1="230.02" x2="652.28" y2="230.02"/><line class="cls-2" x1="654.2" y1="230.02" x2="656.13" y2="230.02"/><line class="cls-2" x1="658.05" y1="230.02" x2="659.97" y2="230.02"/><line class="cls-2" x1="661.9" y1="230.02" x2="665.32" y2="230.02"/><line class="cls-2" x1="623.63" y1="245.97" x2="623.63" y2="247.89"/><line class="cls-2" x1="623.63" y1="249.82" x2="623.63" y2="251.74"/><line class="cls-2" x1="623.63" y1="253.66" x2="623.63" y2="255.67"/><line class="cls-2" x1="623.63" y1="242.85" x2="623.63" y2="244.47"/><line class="cls-2" x1="623.63" y1="242.85" x2="625.34" y2="242.85"/><line class="cls-2" x1="627.27" y1="242.85" x2="629.19" y2="242.85"/><line class="cls-2" x1="631.12" y1="242.85" x2="633.04" y2="242.85"/><line class="cls-2" x1="634.96" y1="242.85" x2="636.89" y2="242.85"/><line class="cls-2" x1="638.81" y1="242.85" x2="640.74" y2="242.85"/><line class="cls-2" x1="642.66" y1="242.85" x2="644.58" y2="242.85"/><line class="cls-2" x1="646.51" y1="242.85" x2="648.43" y2="242.85"/><line class="cls-2" x1="650.36" y1="242.85" x2="652.28" y2="242.85"/><line class="cls-2" x1="654.2" y1="242.85" x2="656.13" y2="242.85"/><line class="cls-2" x1="658.05" y1="242.85" x2="659.97" y2="242.85"/><line class="cls-2" x1="661.9" y1="242.85" x2="663.82" y2="242.85"/><line class="cls-2" x1="665.75" y1="242.85" x2="667.67" y2="242.85"/><line class="cls-2" x1="669.59" y1="242.85" x2="671.52" y2="242.85"/><line class="cls-2" x1="673.44" y1="242.85" x2="675.37" y2="242.85"/><line class="cls-2" x1="677.29" y1="242.85" x2="679.21" y2="242.85"/><line class="cls-2" x1="681.14" y1="242.85" x2="683.06" y2="242.85"/><line class="cls-2" x1="684.99" y1="242.85" x2="687.76" y2="242.85"/><line class="cls-2" x1="687.76" y1="245.97" x2="687.76" y2="247.89"/><line class="cls-2" x1="687.76" y1="249.82" x2="687.76" y2="251.74"/><line class="cls-2" x1="687.76" y1="253.66" x2="687.76" y2="255.67"/><line class="cls-2" x1="687.76" y1="242.85" x2="687.76" y2="244.47"/><line class="cls-2" x1="623.63" y1="255.67" x2="625.34" y2="255.67"/><line class="cls-2" x1="627.27" y1="255.67" x2="629.19" y2="255.67"/><line class="cls-2" x1="631.12" y1="255.67" x2="633.04" y2="255.67"/><line class="cls-2" x1="634.96" y1="255.67" x2="636.89" y2="255.67"/><line class="cls-2" x1="638.81" y1="255.67" x2="640.74" y2="255.67"/><line class="cls-2" x1="642.66" y1="255.67" x2="644.58" y2="255.67"/><line class="cls-2" x1="646.51" y1="255.67" x2="648.43" y2="255.67"/><line class="cls-2" x1="650.36" y1="255.67" x2="652.28" y2="255.67"/><line class="cls-2" x1="654.2" y1="255.67" x2="656.13" y2="255.67"/><line class="cls-2" x1="658.05" y1="255.67" x2="659.97" y2="255.67"/><line class="cls-2" x1="661.9" y1="255.67" x2="663.82" y2="255.67"/><line class="cls-2" x1="665.75" y1="255.67" x2="667.67" y2="255.67"/><line class="cls-2" x1="669.59" y1="255.67" x2="671.52" y2="255.67"/><line class="cls-2" x1="673.44" y1="255.67" x2="675.37" y2="255.67"/><line class="cls-2" x1="677.29" y1="255.67" x2="679.21" y2="255.67"/><line class="cls-2" x1="681.14" y1="255.67" x2="683.06" y2="255.67"/><line class="cls-2" x1="684.99" y1="255.67" x2="687.76" y2="255.67"/><line class="cls-2" x1="623.08" y1="229.68" x2="623.08" y2="229.64"/><line class="cls-2" x1="623.08" y1="229.64" x2="623.12" y2="229.59"/><line class="cls-2" x1="623.12" y1="229.59" x2="623.12" y2="229.55"/><line class="cls-2" x1="623.12" y1="229.55" x2="623.16" y2="229.55"/><line class="cls-2" x1="623.16" y1="229.55" x2="623.16" y2="229.51"/><line class="cls-2" x1="623.16" y1="229.51" x2="623.21" y2="229.51"/><line class="cls-2" x1="623.21" y1="229.51" x2="623.25" y2="229.51"/><line class="cls-2" x1="623.25" y1="229.51" x2="623.29" y2="229.51"/><line class="cls-2" x1="623.29" y1="229.51" x2="646.08" y2="229.51"/><line class="cls-2" x1="646.08" y1="229.51" x2="665.32" y2="229.51"/><line class="cls-2" x1="665.32" y1="229.51" x2="688.11" y2="229.51"/><line class="cls-2" x1="688.11" y1="229.51" x2="688.15" y2="229.51"/><line class="cls-2" x1="688.15" y1="229.51" x2="688.19" y2="229.51"/><line class="cls-2" x1="688.19" y1="229.51" x2="688.19" y2="229.55"/><line class="cls-2" x1="688.19" y1="229.55" x2="688.24" y2="229.55"/><line class="cls-2" x1="688.24" y1="229.55" x2="688.24" y2="229.59"/><line class="cls-2" x1="688.24" y1="229.59" x2="688.28" y2="229.59"/><line class="cls-2" x1="688.28" y1="229.59" x2="688.28" y2="229.64"/><line class="cls-2" x1="688.28" y1="229.64" x2="688.28" y2="229.68"/><line class="cls-2" x1="688.28" y1="229.68" x2="688.28" y2="242.51"/><line class="cls-2" x1="688.28" y1="242.51" x2="688.28" y2="243.23"/><line class="cls-2" x1="688.28" y1="243.23" x2="688.28" y2="256.02"/><line class="cls-2" x1="688.28" y1="256.02" x2="688.28" y2="256.06"/><line class="cls-2" x1="688.28" y1="256.06" x2="688.28" y2="256.1"/><line class="cls-2" x1="688.28" y1="256.1" x2="688.24" y2="256.14"/><line class="cls-2" x1="688.24" y1="256.14" x2="688.19" y2="256.19"/><line class="cls-2" x1="688.19" y1="256.19" x2="688.15" y2="256.19"/><line class="cls-2" x1="688.15" y1="256.19" x2="688.11" y2="256.23"/><line class="cls-2" x1="688.11" y1="256.23" x2="623.29" y2="256.23"/><line class="cls-2" x1="623.29" y1="256.23" x2="623.25" y2="256.23"/><line class="cls-2" x1="623.25" y1="256.23" x2="623.25" y2="256.19"/><line class="cls-2" x1="623.25" y1="256.19" x2="623.21" y2="256.19"/><line class="cls-2" x1="623.21" y1="256.19" x2="623.16" y2="256.19"/><line class="cls-2" x1="623.16" y1="256.19" x2="623.16" y2="256.14"/><line class="cls-2" x1="623.16" y1="256.14" x2="623.12" y2="256.14"/><line class="cls-2" x1="623.12" y1="256.14" x2="623.12" y2="256.1"/><line class="cls-2" x1="623.12" y1="256.1" x2="623.08" y2="256.1"/><line class="cls-2" x1="623.08" y1="256.1" x2="623.08" y2="256.06"/><line class="cls-2" x1="623.08" y1="256.06" x2="623.08" y2="256.02"/><line class="cls-2" x1="623.08" y1="256.02" x2="623.08" y2="243.23"/><line class="cls-2" x1="623.08" y1="243.23" x2="623.08" y2="242.51"/><line class="cls-2" x1="623.08" y1="242.51" x2="623.08" y2="229.68"/><line class="cls-2" x1="649.76" y1="243.4" x2="649.76" y2="255.16"/><line class="cls-2" x1="649.76" y1="255.16" x2="661.6" y2="255.16"/><line class="cls-2" x1="661.6" y1="255.16" x2="661.6" y2="243.4"/><line class="cls-2" x1="661.6" y1="243.4" x2="649.76" y2="243.4"/><line class="cls-2" x1="655.74" y1="244.64" x2="655.78" y2="244.6"/><line class="cls-2" x1="655.78" y1="244.6" x2="655.83" y2="244.6"/><line class="cls-2" x1="655.83" y1="244.6" x2="655.83" y2="244.56"/><line class="cls-2" x1="655.83" y1="244.56" x2="655.83" y2="244.52"/><line class="cls-2" x1="655.83" y1="244.52" x2="655.87" y2="244.52"/><line class="cls-2" x1="655.87" y1="244.52" x2="655.87" y2="244.47"/><line class="cls-2" x1="655.87" y1="244.47" x2="655.87" y2="244.43"/><line class="cls-2" x1="655.87" y1="244.43" x2="655.87" y2="244.39"/><line class="cls-2" x1="655.87" y1="244.39" x2="655.87" y2="244.34"/><line class="cls-2" x1="655.87" y1="244.34" x2="655.87" y2="244.3"/><line class="cls-2" x1="655.87" y1="244.3" x2="655.87" y2="244.26"/><line class="cls-2" x1="655.87" y1="244.26" x2="655.83" y2="244.22"/><line class="cls-2" x1="655.83" y1="244.22" x2="655.83" y2="244.17"/><line class="cls-2" x1="655.83" y1="244.17" x2="655.78" y2="244.17"/><line class="cls-2" x1="655.78" y1="244.17" x2="655.78" y2="244.13"/><line class="cls-2" x1="655.78" y1="244.13" x2="655.74" y2="244.13"/><line class="cls-2" x1="655.74" y1="244.13" x2="655.74" y2="244.09"/><line class="cls-2" x1="655.74" y1="244.09" x2="655.7" y2="244.09"/><line class="cls-2" x1="655.7" y1="244.09" x2="655.66" y2="244.09"/><line class="cls-2" x1="655.66" y1="244.09" x2="655.61" y2="244.04"/><line class="cls-2" x1="655.61" y1="244.04" x2="655.57" y2="244.04"/><line class="cls-2" x1="655.57" y1="244.04" x2="655.53" y2="244.04"/><line class="cls-2" x1="655.53" y1="244.04" x2="655.49" y2="244.04"/><line class="cls-2" x1="655.49" y1="244.04" x2="655.49" y2="244.09"/><line class="cls-2" x1="655.49" y1="244.09" x2="655.44" y2="244.09"/><line class="cls-2" x1="655.44" y1="244.09" x2="655.4" y2="244.09"/><line class="cls-2" x1="655.4" y1="244.09" x2="655.36" y2="244.13"/><line class="cls-2" x1="655.36" y1="244.13" x2="655.31" y2="244.17"/><line class="cls-2" x1="655.31" y1="244.17" x2="655.27" y2="244.22"/><line class="cls-2" x1="655.27" y1="244.22" x2="655.27" y2="244.26"/><line class="cls-2" x1="655.27" y1="244.26" x2="655.27" y2="244.3"/><line class="cls-2" x1="655.27" y1="244.3" x2="655.23" y2="244.34"/><line class="cls-2" x1="655.23" y1="244.34" x2="655.23" y2="244.39"/><line class="cls-2" x1="655.23" y1="244.39" x2="655.27" y2="244.43"/><line class="cls-2" x1="655.27" y1="244.43" x2="655.27" y2="244.47"/><line class="cls-2" x1="655.27" y1="244.47" x2="655.27" y2="244.52"/><line class="cls-2" x1="655.27" y1="244.52" x2="655.31" y2="244.56"/><line class="cls-2" x1="655.31" y1="244.56" x2="655.31" y2="244.6"/><line class="cls-2" x1="655.31" y1="244.6" x2="655.36" y2="244.6"/><line class="cls-2" x1="655.36" y1="244.6" x2="655.36" y2="244.64"/><line class="cls-2" x1="651.47" y1="245.41" x2="651.25" y2="245.5"/><line class="cls-2" x1="651.25" y1="245.5" x2="651" y2="245.63"/><line class="cls-2" x1="651" y1="245.63" x2="650.78" y2="245.8"/><line class="cls-2" x1="650.78" y1="245.8" x2="650.61" y2="245.97"/><line class="cls-2" x1="650.61" y1="245.97" x2="650.53" y2="246.23"/><line class="cls-2" x1="650.53" y1="246.23" x2="650.44" y2="246.48"/><line class="cls-2" x1="650.44" y1="246.48" x2="650.4" y2="246.74"/><line class="cls-2" x1="650.4" y1="246.74" x2="650.4" y2="252.94"/><line class="cls-2" x1="650.4" y1="252.94" x2="650.44" y2="253.19"/><line class="cls-2" x1="650.44" y1="253.19" x2="650.53" y2="253.45"/><line class="cls-2" x1="650.53" y1="253.45" x2="650.61" y2="253.66"/><line class="cls-2" x1="650.61" y1="253.66" x2="650.78" y2="253.88"/><line class="cls-2" x1="650.78" y1="253.88" x2="651" y2="254.05"/><line class="cls-2" x1="651" y1="254.05" x2="651.25" y2="254.18"/><line class="cls-2" x1="651.25" y1="254.18" x2="651.47" y2="254.26"/><polygon class="cls-3" points="649.76 255.16 649.54 254.95 649.54 243.57 649.76 243.4 661.64 243.4 661.81 243.57 661.81 254.95 661.64 255.16 649.76 255.16"/><line class="cls-2" x1="649.54" y1="254.95" x2="649.54" y2="243.57"/><line class="cls-2" x1="649.54" y1="243.57" x2="649.76" y2="243.4"/><line class="cls-2" x1="649.76" y1="243.4" x2="661.64" y2="243.4"/><line class="cls-2" x1="661.64" y1="243.4" x2="661.81" y2="243.57"/><line class="cls-2" x1="661.81" y1="243.57" x2="661.81" y2="254.95"/><line class="cls-2" x1="661.81" y1="254.95" x2="661.64" y2="255.16"/><line class="cls-2" x1="661.64" y1="255.16" x2="649.76" y2="255.16"/><line class="cls-2" x1="649.76" y1="255.16" x2="649.54" y2="254.95"/><line class="cls-2" x1="655.74" y1="245.41" x2="659.63" y2="245.41"/><line class="cls-2" x1="659.63" y1="245.41" x2="659.89" y2="245.46"/><line class="cls-2" x1="659.89" y1="245.46" x2="660.15" y2="245.5"/><line class="cls-2" x1="660.15" y1="245.5" x2="660.36" y2="245.63"/><line class="cls-2" x1="660.36" y1="245.63" x2="660.57" y2="245.8"/><line class="cls-2" x1="660.57" y1="245.8" x2="660.7" y2="246.01"/><line class="cls-2" x1="660.7" y1="246.01" x2="660.83" y2="246.23"/><line class="cls-2" x1="660.83" y1="246.23" x2="660.92" y2="246.48"/><line class="cls-2" x1="660.92" y1="246.48" x2="660.92" y2="246.74"/><line class="cls-2" x1="660.92" y1="246.74" x2="660.92" y2="252.94"/><line class="cls-2" x1="660.92" y1="252.94" x2="660.92" y2="253.19"/><line class="cls-2" x1="660.92" y1="253.19" x2="660.83" y2="253.45"/><line class="cls-2" x1="660.83" y1="253.45" x2="660.7" y2="253.66"/><line class="cls-2" x1="660.7" y1="253.66" x2="660.57" y2="253.88"/><line class="cls-2" x1="660.57" y1="253.88" x2="660.36" y2="254.05"/><line class="cls-2" x1="660.36" y1="254.05" x2="660.15" y2="254.13"/><line class="cls-2" x1="660.15" y1="254.13" x2="659.89" y2="254.22"/><line class="cls-2" x1="659.89" y1="254.22" x2="659.63" y2="254.26"/><line class="cls-2" x1="659.63" y1="254.26" x2="651.72" y2="254.26"/><line class="cls-2" x1="651.72" y1="254.26" x2="651.47" y2="254.22"/><line class="cls-2" x1="651.47" y1="254.22" x2="651.25" y2="254.13"/><line class="cls-2" x1="651.25" y1="254.13" x2="651" y2="254.05"/><line class="cls-2" x1="651" y1="254.05" x2="650.83" y2="253.88"/><line class="cls-2" x1="650.83" y1="253.88" x2="650.65" y2="253.66"/><line class="cls-2" x1="650.65" y1="253.66" x2="650.53" y2="253.45"/><line class="cls-2" x1="650.53" y1="253.45" x2="650.44" y2="253.19"/><line class="cls-2" x1="650.44" y1="253.19" x2="650.44" y2="252.94"/><line class="cls-2" x1="650.44" y1="252.94" x2="650.44" y2="246.74"/><line class="cls-2" x1="650.44" y1="246.74" x2="650.44" y2="246.48"/><line class="cls-2" x1="650.44" y1="246.48" x2="650.53" y2="246.23"/><line class="cls-2" x1="650.53" y1="246.23" x2="650.65" y2="246.01"/><line class="cls-2" x1="650.65" y1="246.01" x2="650.83" y2="245.8"/><line class="cls-2" x1="650.83" y1="245.8" x2="651" y2="245.63"/><line class="cls-2" x1="651" y1="245.63" x2="651.25" y2="245.5"/><line class="cls-2" x1="651.25" y1="245.5" x2="651.47" y2="245.46"/><line class="cls-2" x1="651.47" y1="245.46" x2="651.72" y2="245.41"/><line class="cls-2" x1="651.72" y1="245.41" x2="655.36" y2="245.41"/><path class="cls-2" d="M655.61,249.13h0a.47.47,0,1,0,.45.47A.46.46,0,0,0,655.59,249.13Z"/><line class="cls-2" x1="655.83" y1="244.04" x2="655.78" y2="244.04"/><line class="cls-2" x1="655.78" y1="244.04" x2="655.74" y2="244"/><line class="cls-2" x1="655.74" y1="244" x2="655.7" y2="244"/><line class="cls-2" x1="655.7" y1="244" x2="655.7" y2="243.96"/><line class="cls-2" x1="655.7" y1="243.96" x2="655.66" y2="243.96"/><line class="cls-2" x1="655.66" y1="243.96" x2="655.61" y2="243.96"/><line class="cls-2" x1="655.61" y1="243.96" x2="655.57" y2="243.96"/><line class="cls-2" x1="655.57" y1="243.96" x2="655.53" y2="243.96"/><line class="cls-2" x1="655.53" y1="243.96" x2="655.49" y2="243.96"/><line class="cls-2" x1="655.49" y1="243.96" x2="655.44" y2="244"/><line class="cls-2" x1="655.44" y1="244" x2="655.4" y2="244"/><line class="cls-2" x1="655.4" y1="244" x2="655.36" y2="244"/><line class="cls-2" x1="655.36" y1="244" x2="655.31" y2="244.04"/><line class="cls-2" x1="655.31" y1="244.04" x2="655.27" y2="244.09"/><line class="cls-2" x1="655.27" y1="244.09" x2="655.23" y2="244.13"/><line class="cls-2" x1="655.23" y1="244.13" x2="655.23" y2="244.17"/><line class="cls-2" x1="655.23" y1="244.17" x2="655.19" y2="244.22"/><line class="cls-2" x1="655.19" y1="244.22" x2="655.19" y2="244.26"/><line class="cls-2" x1="655.19" y1="244.26" x2="655.19" y2="244.3"/><line class="cls-2" x1="655.19" y1="244.3" x2="655.14" y2="244.34"/><line class="cls-2" x1="655.14" y1="244.34" x2="655.14" y2="244.39"/><line class="cls-2" x1="655.14" y1="244.39" x2="655.14" y2="244.43"/><line class="cls-2" x1="655.14" y1="244.43" x2="655.19" y2="244.47"/><line class="cls-2" x1="655.19" y1="244.47" x2="655.19" y2="244.52"/><line class="cls-2" x1="655.19" y1="244.52" x2="655.19" y2="244.56"/><line class="cls-2" x1="655.19" y1="244.56" x2="655.23" y2="244.6"/><line class="cls-2" x1="655.23" y1="244.6" x2="655.23" y2="244.64"/><line class="cls-2" x1="655.23" y1="244.64" x2="655.27" y2="244.69"/><line class="cls-2" x1="655.27" y1="244.69" x2="655.31" y2="244.69"/><line class="cls-2" x1="655.31" y1="244.69" x2="655.36" y2="244.73"/><line class="cls-2" x1="655.36" y1="244.34" x2="655.4" y2="244.34"/><line class="cls-2" x1="655.4" y1="244.34" x2="655.4" y2="244.3"/><line class="cls-2" x1="655.4" y1="244.3" x2="655.4" y2="244.26"/><line class="cls-2" x1="655.4" y1="244.26" x2="655.44" y2="244.26"/><line class="cls-2" x1="655.44" y1="244.26" x2="655.44" y2="244.22"/><line class="cls-2" x1="655.44" y1="244.22" x2="655.49" y2="244.22"/><line class="cls-2" x1="655.49" y1="244.22" x2="655.53" y2="244.17"/><line class="cls-2" x1="655.53" y1="244.17" x2="655.57" y2="244.17"/><line class="cls-2" x1="655.57" y1="244.17" x2="655.61" y2="244.17"/><line class="cls-2" x1="655.61" y1="244.17" x2="655.61" y2="244.22"/><line class="cls-2" x1="655.61" y1="244.22" x2="655.66" y2="244.22"/><line class="cls-2" x1="655.66" y1="244.22" x2="655.7" y2="244.22"/><line class="cls-2" x1="655.7" y1="244.22" x2="655.7" y2="244.26"/><line class="cls-2" x1="655.7" y1="244.26" x2="655.74" y2="244.26"/><line class="cls-2" x1="655.74" y1="244.26" x2="655.74" y2="244.3"/><line class="cls-2" x1="655.74" y1="244.3" x2="655.74" y2="244.34"/><path class="cls-2" d="M659.29,244.17a.21.21,0,0,0-.21.22.21.21,0,1,0,.42,0A.21.21,0,0,0,659.29,244.17Z"/><path class="cls-2" d="M659.29,244.13a.26.26,0,0,0-.26.26.26.26,0,0,0,.52,0A.26.26,0,0,0,659.29,244.13Z"/><line class="cls-2" x1="655.74" y1="244.73" x2="655.83" y2="244.69"/><line class="cls-2" x1="656.13" y1="244.09" x2="656.08" y2="244.09"/><line class="cls-2" x1="655.74" y1="244.34" x2="655.74" y2="246.78"/><line class="cls-2" x1="655.36" y1="246.78" x2="655.36" y2="244.34"/><line class="cls-2" x1="656.08" y1="244.69" x2="656.13" y2="244.69"/><line class="cls-2" x1="659.25" y1="244.69" x2="659.21" y2="244.69"/><line class="cls-2" x1="659.21" y1="244.69" x2="659.16" y2="244.69"/><line class="cls-2" x1="659.16" y1="244.69" x2="659.12" y2="244.64"/><line class="cls-2" x1="659.12" y1="244.64" x2="659.08" y2="244.64"/><line class="cls-2" x1="659.08" y1="244.64" x2="659.08" y2="244.6"/><line class="cls-2" x1="659.08" y1="244.6" x2="659.03" y2="244.6"/><line class="cls-2" x1="659.03" y1="244.6" x2="659.03" y2="244.56"/><line class="cls-2" x1="659.03" y1="244.56" x2="658.99" y2="244.52"/><line class="cls-2" x1="658.99" y1="244.52" x2="658.99" y2="244.47"/><line class="cls-2" x1="658.99" y1="244.47" x2="658.95" y2="244.43"/><line class="cls-2" x1="658.95" y1="244.43" x2="658.95" y2="244.39"/><line class="cls-2" x1="658.95" y1="244.39" x2="658.95" y2="244.34"/><line class="cls-2" x1="658.95" y1="244.34" x2="658.99" y2="244.3"/><line class="cls-2" x1="658.99" y1="244.3" x2="658.99" y2="244.26"/><line class="cls-2" x1="658.99" y1="244.26" x2="658.99" y2="244.22"/><line class="cls-2" x1="658.99" y1="244.22" x2="659.03" y2="244.17"/><line class="cls-2" x1="659.03" y1="244.17" x2="659.03" y2="244.13"/><line class="cls-2" x1="659.03" y1="244.13" x2="659.08" y2="244.13"/><line class="cls-2" x1="659.08" y1="244.13" x2="659.12" y2="244.09"/><line class="cls-2" x1="659.12" y1="244.09" x2="659.16" y2="244.09"/><line class="cls-2" x1="659.16" y1="244.09" x2="659.21" y2="244.04"/><line class="cls-2" x1="659.21" y1="244.04" x2="659.25" y2="244.04"/><line class="cls-2" x1="659.25" y1="244.04" x2="659.29" y2="244.04"/><line class="cls-2" x1="659.29" y1="244.04" x2="659.33" y2="244.04"/><line class="cls-2" x1="659.33" y1="244.04" x2="659.38" y2="244.04"/><line class="cls-2" x1="659.38" y1="244.04" x2="659.42" y2="244.09"/><line class="cls-2" x1="659.42" y1="244.09" x2="659.46" y2="244.09"/><line class="cls-2" x1="659.46" y1="244.09" x2="659.5" y2="244.09"/><line class="cls-2" x1="659.5" y1="244.09" x2="659.5" y2="244.13"/><line class="cls-2" x1="659.5" y1="244.13" x2="659.55" y2="244.13"/><line class="cls-2" x1="659.55" y1="244.13" x2="659.55" y2="244.17"/><line class="cls-2" x1="659.55" y1="244.17" x2="659.59" y2="244.22"/><line class="cls-2" x1="659.59" y1="244.22" x2="659.59" y2="244.26"/><line class="cls-2" x1="659.59" y1="244.26" x2="659.63" y2="244.3"/><line class="cls-2" x1="659.63" y1="244.3" x2="659.63" y2="244.34"/><line class="cls-2" x1="659.63" y1="244.34" x2="659.63" y2="244.39"/><line class="cls-2" x1="659.63" y1="244.39" x2="659.63" y2="244.43"/><line class="cls-2" x1="659.63" y1="244.43" x2="659.63" y2="244.47"/><line class="cls-2" x1="659.63" y1="244.47" x2="659.59" y2="244.52"/><line class="cls-2" x1="659.59" y1="244.52" x2="659.59" y2="244.56"/><line class="cls-2" x1="659.59" y1="244.56" x2="659.55" y2="244.6"/><line class="cls-2" x1="659.55" y1="244.6" x2="659.5" y2="244.64"/><line class="cls-2" x1="659.5" y1="244.64" x2="659.46" y2="244.64"/><line class="cls-2" x1="659.46" y1="244.64" x2="659.46" y2="244.69"/><line class="cls-2" x1="659.46" y1="244.69" x2="659.42" y2="244.69"/><line class="cls-2" x1="659.42" y1="244.69" x2="659.38" y2="244.69"/><line class="cls-2" x1="659.38" y1="244.69" x2="659.33" y2="244.69"/><line class="cls-2" x1="659.33" y1="244.69" x2="659.33" y2="245.46"/><line class="cls-2" x1="659.33" y1="245.46" x2="659.33" y2="245.5"/><line class="cls-2" x1="659.33" y1="245.5" x2="659.33" y2="245.54"/><line class="cls-2" x1="659.33" y1="245.54" x2="659.29" y2="245.54"/><line class="cls-2" x1="659.29" y1="245.54" x2="659.29" y2="245.5"/><line class="cls-2" x1="659.29" y1="245.5" x2="659.25" y2="245.5"/><line class="cls-2" x1="659.25" y1="245.5" x2="659.25" y2="245.46"/><line class="cls-2" x1="659.25" y1="245.46" x2="659.25" y2="244.69"/><line class="cls-2" x1="655.74" y1="244.69" x2="656.08" y2="244.69"/><line class="cls-2" x1="656.08" y1="244.69" x2="656.08" y2="244.04"/><line class="cls-2" x1="656.08" y1="244.04" x2="655.61" y2="244.04"/><line class="cls-2" x1="655.36" y1="246.61" x2="655.36" y2="246.65"/><line class="cls-2" x1="655.36" y1="246.65" x2="655.31" y2="246.74"/><polygon class="cls-3" points="656.21 244.39 656.21 244.34 656.25 244.3 656.3 244.3 656.34 244.3 656.38 244.3 656.38 244.34 656.38 244.39 656.38 244.43 656.34 244.43 656.3 244.47 656.25 244.43 656.21 244.39"/><line class="cls-2" x1="656.21" y1="244.34" x2="656.26" y2="244.3"/><line class="cls-2" x1="656.26" y1="244.3" x2="656.3" y2="244.3"/><line class="cls-2" x1="656.3" y1="244.3" x2="656.34" y2="244.3"/><line class="cls-2" x1="656.34" y1="244.3" x2="656.38" y2="244.3"/><line class="cls-2" x1="656.38" y1="244.3" x2="656.38" y2="244.34"/><line class="cls-2" x1="656.38" y1="244.34" x2="656.38" y2="244.39"/><line class="cls-2" x1="656.38" y1="244.39" x2="656.38" y2="244.43"/><line class="cls-2" x1="656.38" y1="244.43" x2="656.34" y2="244.43"/><line class="cls-2" x1="656.34" y1="244.43" x2="656.3" y2="244.47"/><line class="cls-2" x1="656.3" y1="244.47" x2="656.26" y2="244.43"/><line class="cls-2" x1="656.26" y1="244.43" x2="656.21" y2="244.39"/><line class="cls-2" x1="656.21" y1="244.39" x2="656.21" y2="244.34"/><polygon class="cls-3" points="656.17 244.39 656.17 244.34 656.21 244.3 656.21 244.26 656.3 244.22 656.34 244.22 656.38 244.26 656.43 244.3 656.43 244.34 656.43 244.39 656.43 244.43 656.43 244.47 656.38 244.51 656.34 244.51 656.3 244.51 656.21 244.51 656.21 244.47 656.17 244.43 656.17 244.39"/><line class="cls-2" x1="656.17" y1="244.34" x2="656.21" y2="244.3"/><line class="cls-2" x1="656.21" y1="244.3" x2="656.21" y2="244.26"/><line class="cls-2" x1="656.21" y1="244.26" x2="656.3" y2="244.22"/><line class="cls-2" x1="656.3" y1="244.22" x2="656.34" y2="244.22"/><line class="cls-2" x1="656.34" y1="244.22" x2="656.38" y2="244.26"/><line class="cls-2" x1="656.38" y1="244.26" x2="656.43" y2="244.3"/><line class="cls-2" x1="656.43" y1="244.3" x2="656.43" y2="244.34"/><line class="cls-2" x1="656.43" y1="244.34" x2="656.43" y2="244.39"/><line class="cls-2" x1="656.43" y1="244.39" x2="656.43" y2="244.43"/><line class="cls-2" x1="656.43" y1="244.43" x2="656.43" y2="244.47"/><line class="cls-2" x1="656.43" y1="244.47" x2="656.38" y2="244.52"/><line class="cls-2" x1="656.38" y1="244.52" x2="656.34" y2="244.52"/><line class="cls-2" x1="656.34" y1="244.52" x2="656.3" y2="244.52"/><line class="cls-2" x1="656.3" y1="244.52" x2="656.21" y2="244.52"/><line class="cls-2" x1="656.21" y1="244.52" x2="656.21" y2="244.47"/><line class="cls-2" x1="656.21" y1="244.47" x2="656.17" y2="244.43"/><line class="cls-2" x1="656.17" y1="244.43" x2="656.17" y2="244.39"/><line class="cls-2" x1="656.17" y1="244.39" x2="656.17" y2="244.34"/><line class="cls-2" x1="655.74" y1="246.61" x2="655.78" y2="246.65"/><line class="cls-2" x1="655.78" y1="246.65" x2="655.83" y2="246.74"/><polygon class="cls-3" points="656.13 244.69 656.13 244.04 656.43 244.04 656.47 244.04 656.51 244.09 656.51 244.13 656.55 244.22 656.55 244.3 656.55 244.47 656.55 244.56 656.51 244.6 656.51 244.64 656.47 244.69 656.43 244.69 656.13 244.69"/><line class="cls-2" x1="656.13" y1="244.04" x2="656.43" y2="244.04"/><line class="cls-2" x1="656.43" y1="244.04" x2="656.47" y2="244.04"/><line class="cls-2" x1="656.47" y1="244.04" x2="656.51" y2="244.09"/><line class="cls-2" x1="656.51" y1="244.09" x2="656.51" y2="244.13"/><line class="cls-2" x1="656.51" y1="244.13" x2="656.55" y2="244.22"/><line class="cls-2" x1="656.55" y1="244.22" x2="656.55" y2="244.3"/><line class="cls-2" x1="656.55" y1="244.3" x2="656.55" y2="244.47"/><line class="cls-2" x1="656.55" y1="244.47" x2="656.55" y2="244.56"/><line class="cls-2" x1="656.55" y1="244.56" x2="656.51" y2="244.6"/><line class="cls-2" x1="656.51" y1="244.6" x2="656.51" y2="244.64"/><line class="cls-2" x1="656.51" y1="244.64" x2="656.47" y2="244.69"/><line class="cls-2" x1="656.47" y1="244.69" x2="656.43" y2="244.69"/><line class="cls-2" x1="656.43" y1="244.69" x2="656.13" y2="244.69"/><line class="cls-2" x1="656.13" y1="244.69" x2="656.13" y2="244.04"/><line class="cls-2" x1="653.86" y1="244.04" x2="654.76" y2="243.96"/><line class="cls-2" x1="654.76" y1="243.96" x2="655.7" y2="243.96"/><line class="cls-2" x1="655.7" y1="243.96" x2="656.47" y2="244"/><line class="cls-2" x1="656.47" y1="244" x2="657.28" y2="244.04"/><line class="cls-2" x1="657.28" y1="244.04" x2="657.32" y2="244.09"/><line class="cls-2" x1="657.32" y1="244.09" x2="657.37" y2="244.09"/><line class="cls-2" x1="657.37" y1="244.09" x2="657.41" y2="244.13"/><line class="cls-2" x1="657.41" y1="244.13" x2="657.45" y2="244.17"/><line class="cls-2" x1="657.45" y1="244.17" x2="657.45" y2="244.22"/><line class="cls-2" x1="657.45" y1="244.22" x2="657.5" y2="244.22"/><line class="cls-2" x1="657.5" y1="244.22" x2="657.5" y2="244.26"/><line class="cls-2" x1="657.5" y1="244.26" x2="657.5" y2="244.3"/><line class="cls-2" x1="657.5" y1="244.3" x2="657.5" y2="244.34"/><line class="cls-2" x1="657.5" y1="244.34" x2="657.54" y2="244.39"/><line class="cls-2" x1="657.54" y1="244.39" x2="657.5" y2="244.43"/><line class="cls-2" x1="657.5" y1="244.43" x2="657.5" y2="244.47"/><line class="cls-2" x1="657.5" y1="244.47" x2="657.5" y2="244.52"/><line class="cls-2" x1="657.5" y1="244.52" x2="657.45" y2="244.56"/><line class="cls-2" x1="657.45" y1="244.56" x2="657.45" y2="244.6"/><line class="cls-2" x1="657.45" y1="244.6" x2="657.41" y2="244.6"/><line class="cls-2" x1="657.41" y1="244.6" x2="657.41" y2="244.64"/><line class="cls-2" x1="657.41" y1="244.64" x2="657.37" y2="244.64"/><line class="cls-2" x1="657.37" y1="244.64" x2="657.32" y2="244.69"/><line class="cls-2" x1="657.32" y1="244.69" x2="657.28" y2="244.69"/><line class="cls-2" x1="657.28" y1="244.69" x2="656.51" y2="244.77"/><line class="cls-2" x1="656.51" y1="244.77" x2="655.74" y2="244.81"/><line class="cls-2" x1="655.74" y1="244.81" x2="655.74" y2="246.57"/><line class="cls-2" x1="655.74" y1="246.57" x2="655.78" y2="246.57"/><line class="cls-2" x1="655.78" y1="246.57" x2="655.83" y2="246.61"/><line class="cls-2" x1="655.83" y1="246.61" x2="655.87" y2="246.61"/><line class="cls-2" x1="655.87" y1="246.61" x2="655.87" y2="246.65"/><line class="cls-2" x1="655.87" y1="246.65" x2="655.91" y2="246.7"/><line class="cls-2" x1="655.91" y1="246.7" x2="655.96" y2="246.74"/><line class="cls-2" x1="655.96" y1="246.74" x2="655.96" y2="246.78"/><line class="cls-2" x1="655.96" y1="246.78" x2="655.96" y2="246.82"/><line class="cls-2" x1="655.96" y1="246.82" x2="656" y2="246.87"/><line class="cls-2" x1="656" y1="246.87" x2="656" y2="246.91"/><line class="cls-2" x1="656" y1="246.91" x2="656" y2="246.95"/><line class="cls-2" x1="656" y1="246.95" x2="656" y2="246.99"/><line class="cls-2" x1="656" y1="246.99" x2="656" y2="247.04"/><line class="cls-2" x1="656" y1="247.04" x2="656" y2="247.08"/><line class="cls-2" x1="656" y1="247.08" x2="655.96" y2="247.12"/><line class="cls-2" x1="655.96" y1="247.12" x2="655.96" y2="247.17"/><line class="cls-2" x1="655.96" y1="247.17" x2="655.91" y2="247.21"/><line class="cls-2" x1="655.91" y1="247.21" x2="655.87" y2="247.25"/><line class="cls-2" x1="655.87" y1="247.25" x2="655.83" y2="247.29"/><line class="cls-2" x1="655.83" y1="247.29" x2="655.78" y2="247.34"/><line class="cls-2" x1="655.78" y1="247.34" x2="655.74" y2="247.34"/><line class="cls-2" x1="655.74" y1="247.34" x2="655.7" y2="247.34"/><line class="cls-2" x1="655.7" y1="247.34" x2="655.66" y2="247.38"/><line class="cls-2" x1="655.66" y1="247.38" x2="655.61" y2="247.38"/><line class="cls-2" x1="655.61" y1="247.38" x2="655.57" y2="247.38"/><line class="cls-2" x1="655.57" y1="247.38" x2="655.53" y2="247.38"/><line class="cls-2" x1="655.53" y1="247.38" x2="655.49" y2="247.38"/><line class="cls-2" x1="655.49" y1="247.38" x2="655.44" y2="247.38"/><line class="cls-2" x1="655.44" y1="247.38" x2="655.4" y2="247.34"/><line class="cls-2" x1="655.4" y1="247.34" x2="655.36" y2="247.34"/><line class="cls-2" x1="655.36" y1="247.34" x2="655.31" y2="247.29"/><line class="cls-2" x1="655.31" y1="247.29" x2="655.27" y2="247.29"/><line class="cls-2" x1="655.27" y1="247.29" x2="655.27" y2="247.25"/><line class="cls-2" x1="655.27" y1="247.25" x2="655.23" y2="247.21"/><line class="cls-2" x1="655.23" y1="247.21" x2="655.19" y2="247.17"/><line class="cls-2" x1="655.19" y1="247.17" x2="655.19" y2="247.12"/><line class="cls-2" x1="655.19" y1="247.12" x2="655.14" y2="247.08"/><line class="cls-2" x1="655.14" y1="247.08" x2="655.14" y2="247.04"/><line class="cls-2" x1="655.14" y1="247.04" x2="655.14" y2="246.99"/><line class="cls-2" x1="655.14" y1="246.99" x2="655.14" y2="246.95"/><line class="cls-2" x1="655.14" y1="246.95" x2="655.14" y2="246.91"/><line class="cls-2" x1="655.14" y1="246.91" x2="655.14" y2="246.87"/><line class="cls-2" x1="655.14" y1="246.87" x2="655.14" y2="246.82"/><line class="cls-2" x1="655.14" y1="246.82" x2="655.19" y2="246.78"/><line class="cls-2" x1="655.19" y1="246.78" x2="655.19" y2="246.74"/><line class="cls-2" x1="655.19" y1="246.74" x2="655.23" y2="246.7"/><line class="cls-2" x1="655.23" y1="246.7" x2="655.23" y2="246.65"/><line class="cls-2" x1="655.23" y1="246.65" x2="655.27" y2="246.65"/><line class="cls-2" x1="655.27" y1="246.65" x2="655.31" y2="246.61"/><line class="cls-2" x1="655.31" y1="246.61" x2="655.36" y2="246.57"/><line class="cls-2" x1="655.36" y1="246.57" x2="655.36" y2="244.81"/><line class="cls-2" x1="655.36" y1="244.81" x2="654.63" y2="244.77"/><line class="cls-2" x1="654.63" y1="244.77" x2="653.86" y2="244.69"/><line class="cls-2" x1="653.86" y1="244.69" x2="653.82" y2="244.69"/><line class="cls-2" x1="653.82" y1="244.69" x2="653.78" y2="244.64"/><line class="cls-2" x1="653.78" y1="244.64" x2="653.73" y2="244.64"/><line class="cls-2" x1="653.73" y1="244.64" x2="653.73" y2="244.6"/><line class="cls-2" x1="653.73" y1="244.6" x2="653.69" y2="244.6"/><line class="cls-2" x1="653.69" y1="244.6" x2="653.69" y2="244.56"/><line class="cls-2" x1="653.69" y1="244.56" x2="653.65" y2="244.52"/><line class="cls-2" x1="653.65" y1="244.52" x2="653.65" y2="244.47"/><line class="cls-2" x1="653.65" y1="244.47" x2="653.6" y2="244.43"/><line class="cls-2" x1="653.6" y1="244.43" x2="653.6" y2="244.39"/><line class="cls-2" x1="653.6" y1="244.39" x2="653.6" y2="244.34"/><line class="cls-2" x1="653.6" y1="244.34" x2="653.6" y2="244.3"/><line class="cls-2" x1="653.6" y1="244.3" x2="653.65" y2="244.26"/><line class="cls-2" x1="653.65" y1="244.26" x2="653.65" y2="244.22"/><line class="cls-2" x1="653.65" y1="244.22" x2="653.69" y2="244.17"/><line class="cls-2" x1="653.69" y1="244.17" x2="653.73" y2="244.13"/><line class="cls-2" x1="653.73" y1="244.13" x2="653.78" y2="244.09"/><line class="cls-2" x1="653.78" y1="244.09" x2="653.82" y2="244.09"/><line class="cls-2" x1="653.82" y1="244.09" x2="653.86" y2="244.04"/><polygon class="cls-3" points="656.13 244.39 656.13 244.3 656.17 244.26 656.21 244.22 656.25 244.22 656.34 244.22 656.38 244.22 656.43 244.26 656.47 244.3 656.47 244.39 656.47 244.43 656.43 244.47 656.38 244.51 656.34 244.56 656.25 244.56 656.21 244.51 656.17 244.47 656.13 244.43 656.13 244.39"/><line class="cls-2" x1="656.13" y1="244.3" x2="656.17" y2="244.26"/><line class="cls-2" x1="656.17" y1="244.26" x2="656.21" y2="244.22"/><line class="cls-2" x1="656.21" y1="244.22" x2="656.26" y2="244.22"/><line class="cls-2" x1="656.26" y1="244.22" x2="656.34" y2="244.22"/><line class="cls-2" x1="656.34" y1="244.22" x2="656.38" y2="244.22"/><line class="cls-2" x1="656.38" y1="244.22" x2="656.43" y2="244.26"/><line class="cls-2" x1="656.43" y1="244.26" x2="656.47" y2="244.3"/><line class="cls-2" x1="656.47" y1="244.3" x2="656.47" y2="244.39"/><line class="cls-2" x1="656.47" y1="244.39" x2="656.47" y2="244.43"/><line class="cls-2" x1="656.47" y1="244.43" x2="656.43" y2="244.47"/><line class="cls-2" x1="656.43" y1="244.47" x2="656.38" y2="244.52"/><line class="cls-2" x1="656.38" y1="244.52" x2="656.34" y2="244.56"/><line class="cls-2" x1="656.34" y1="244.56" x2="656.26" y2="244.56"/><line class="cls-2" x1="656.26" y1="244.56" x2="656.21" y2="244.52"/><line class="cls-2" x1="656.21" y1="244.52" x2="656.17" y2="244.47"/><line class="cls-2" x1="656.17" y1="244.47" x2="656.13" y2="244.43"/><line class="cls-2" x1="656.13" y1="244.43" x2="656.13" y2="244.39"/><line class="cls-2" x1="656.13" y1="244.39" x2="656.13" y2="244.3"/><line class="cls-2" x1="655.83" y1="246.74" x2="655.87" y2="246.82"/><line class="cls-2" x1="655.87" y1="246.82" x2="655.87" y2="246.95"/><line class="cls-2" x1="655.87" y1="246.95" x2="655.83" y2="247.04"/><line class="cls-2" x1="655.83" y1="247.04" x2="655.74" y2="247.12"/><line class="cls-2" x1="655.74" y1="247.12" x2="655.66" y2="247.17"/><line class="cls-2" x1="655.66" y1="247.17" x2="655.57" y2="247.17"/><line class="cls-2" x1="655.57" y1="247.17" x2="655.49" y2="247.17"/><line class="cls-2" x1="655.49" y1="247.17" x2="655.4" y2="247.12"/><line class="cls-2" x1="655.4" y1="247.12" x2="655.31" y2="247.04"/><line class="cls-2" x1="655.31" y1="247.04" x2="655.27" y2="246.95"/><line class="cls-2" x1="655.27" y1="246.95" x2="655.27" y2="246.82"/><line class="cls-2" x1="655.27" y1="246.82" x2="655.31" y2="246.74"/><polygon class="cls-3" points="652.75 226.26 652.11 226.26 652.28 225.88 652.75 225.88 652.75 226.26"/><line class="cls-2" x1="652.11" y1="226.26" x2="652.28" y2="225.87"/><line class="cls-2" x1="652.28" y1="225.87" x2="652.75" y2="225.87"/><line class="cls-2" x1="652.75" y1="225.87" x2="652.75" y2="226.26"/><line class="cls-2" x1="652.75" y1="226.26" x2="652.11" y2="226.26"/><polygon class="cls-3" points="642.79 226.26 642.15 226.26 642.15 225.88 642.66 225.88 642.79 226.26"/><line class="cls-2" x1="642.15" y1="226.26" x2="642.15" y2="225.87"/><line class="cls-2" x1="642.15" y1="225.87" x2="642.66" y2="225.87"/><line class="cls-2" x1="642.66" y1="225.87" x2="642.79" y2="226.26"/><line class="cls-2" x1="642.79" y1="226.26" x2="642.15" y2="226.26"/><polygon class="cls-3" points="653.18 225.45 653.18 227.03 653.13 227.11 653.05 227.2 652.96 227.24 652.88 227.2 652.79 227.11 652.75 227.03 652.75 225.32 653.18 225.45"/><line class="cls-2" x1="653.18" y1="227.03" x2="653.13" y2="227.11"/><line class="cls-2" x1="653.13" y1="227.11" x2="653.05" y2="227.2"/><line class="cls-2" x1="653.05" y1="227.2" x2="652.96" y2="227.24"/><line class="cls-2" x1="652.96" y1="227.24" x2="652.88" y2="227.2"/><line class="cls-2" x1="652.88" y1="227.2" x2="652.79" y2="227.11"/><line class="cls-2" x1="652.79" y1="227.11" x2="652.75" y2="227.03"/><line class="cls-2" x1="652.75" y1="227.03" x2="652.75" y2="225.32"/><line class="cls-2" x1="652.75" y1="225.32" x2="653.18" y2="225.45"/><line class="cls-2" x1="653.18" y1="225.45" x2="653.18" y2="227.03"/><polygon class="cls-3" points="642.15 225.36 642.15 227.03 642.1 227.11 642.02 227.2 641.93 227.24 641.85 227.2 641.76 227.11 641.72 227.03 641.72 225.36 642.15 225.36"/><line class="cls-2" x1="642.15" y1="227.03" x2="642.1" y2="227.11"/><line class="cls-2" x1="642.1" y1="227.11" x2="642.02" y2="227.2"/><line class="cls-2" x1="642.02" y1="227.2" x2="641.93" y2="227.24"/><line class="cls-2" x1="641.93" y1="227.24" x2="641.85" y2="227.2"/><line class="cls-2" x1="641.85" y1="227.2" x2="641.76" y2="227.11"/><line class="cls-2" x1="641.76" y1="227.11" x2="641.72" y2="227.03"/><line class="cls-2" x1="641.72" y1="227.03" x2="641.72" y2="225.36"/><line class="cls-2" x1="641.72" y1="225.36" x2="642.15" y2="225.36"/><line class="cls-2" x1="642.15" y1="225.36" x2="642.15" y2="227.03"/><polygon class="cls-3" points="652.41 225.15 642.53 225.36 642.49 225.06 642.45 224.42 642.49 223.78 642.62 223.14 642.83 222.54 643.13 221.94 643.51 221.38 643.94 220.91 644.41 220.49 644.97 220.1 645.52 219.8 646.16 219.59 646.81 219.5 647.45 219.46 648.09 219.5 648.73 219.59 649.37 219.8 649.93 220.1 650.48 220.49 651 220.91 651.42 221.38 651.77 221.94 652.07 222.54 652.28 223.14 652.41 223.78 652.45 224.42 652.41 225.15"/><polygon class="cls-3" points="652.41 225.15 652.24 226.09 651.34 227.63 649.97 228.74 648.35 229.34 646.55 229.34 644.92 228.74 643.56 227.63 642.66 226.09 642.53 225.36 652.41 225.15"/><line class="cls-2" x1="652.24" y1="226.09" x2="651.34" y2="227.63"/><line class="cls-2" x1="651.34" y1="227.63" x2="649.97" y2="228.74"/><line class="cls-2" x1="649.97" y1="228.74" x2="648.35" y2="229.34"/><line class="cls-2" x1="648.35" y1="229.34" x2="646.55" y2="229.34"/><line class="cls-2" x1="646.55" y1="229.34" x2="644.93" y2="228.74"/><line class="cls-2" x1="644.93" y1="228.74" x2="643.56" y2="227.63"/><line class="cls-2" x1="643.56" y1="227.63" x2="642.7" y2="226.09"/><line class="cls-2" x1="642.66" y1="226.09" x2="642.53" y2="225.36"/><line class="cls-2" x1="642.53" y1="225.36" x2="642.49" y2="224.89"/><line class="cls-2" x1="642.49" y1="224.89" x2="642.45" y2="224.42"/><line class="cls-2" x1="642.45" y1="224.42" x2="642.49" y2="223.95"/><line class="cls-2" x1="642.49" y1="223.95" x2="642.57" y2="223.48"/><line class="cls-2" x1="642.57" y1="223.48" x2="642.66" y2="223.01"/><line class="cls-2" x1="642.66" y1="223.01" x2="642.83" y2="222.54"/><line class="cls-2" x1="642.83" y1="222.54" x2="643.04" y2="222.07"/><line class="cls-2" x1="643.04" y1="222.07" x2="643.3" y2="221.64"/><line class="cls-2" x1="643.3" y1="221.64" x2="643.64" y2="221.21"/><line class="cls-2" x1="643.64" y1="221.21" x2="643.98" y2="220.87"/><line class="cls-2" x1="643.98" y1="220.87" x2="644.37" y2="220.53"/><line class="cls-2" x1="644.37" y1="220.53" x2="644.8" y2="220.23"/><line class="cls-2" x1="644.8" y1="220.23" x2="645.22" y2="219.97"/><line class="cls-2" x1="645.22" y1="219.97" x2="645.69" y2="219.76"/><line class="cls-2" x1="645.69" y1="219.76" x2="646.17" y2="219.59"/><line class="cls-2" x1="646.17" y1="219.59" x2="646.68" y2="219.5"/><line class="cls-2" x1="646.68" y1="219.5" x2="647.19" y2="219.46"/><line class="cls-2" x1="647.19" y1="219.46" x2="647.7" y2="219.46"/><line class="cls-2" x1="647.7" y1="219.46" x2="648.22" y2="219.5"/><line class="cls-2" x1="648.22" y1="219.5" x2="648.73" y2="219.59"/><line class="cls-2" x1="648.73" y1="219.59" x2="649.2" y2="219.76"/><line class="cls-2" x1="649.2" y1="219.76" x2="649.67" y2="219.97"/><line class="cls-2" x1="649.67" y1="219.97" x2="650.14" y2="220.23"/><line class="cls-2" x1="650.14" y1="220.23" x2="650.53" y2="220.53"/><line class="cls-2" x1="650.53" y1="220.53" x2="650.91" y2="220.87"/><line class="cls-2" x1="650.91" y1="220.87" x2="651.3" y2="221.21"/><line class="cls-2" x1="651.3" y1="221.21" x2="651.6" y2="221.64"/><line class="cls-2" x1="651.6" y1="221.64" x2="651.85" y2="222.07"/><line class="cls-2" x1="651.85" y1="222.07" x2="652.07" y2="222.54"/><line class="cls-2" x1="652.07" y1="222.54" x2="652.24" y2="223.01"/><line class="cls-2" x1="652.24" y1="223.01" x2="652.36" y2="223.44"/><line class="cls-2" x1="652.36" y1="223.44" x2="652.41" y2="223.87"/><line class="cls-2" x1="652.41" y1="223.87" x2="652.45" y2="224.29"/><line class="cls-2" x1="652.45" y1="224.29" x2="652.45" y2="224.72"/><line class="cls-2" x1="652.45" y1="224.72" x2="652.41" y2="225.15"/><line class="cls-2" x1="652.41" y1="225.15" x2="652.24" y2="226.09"/><polygon class="cls-3" points="650.74 228.14 651.25 227.71 651.25 227.88 651.13 228.06 650.95 228.14 650.74 228.14"/><line class="cls-2" x1="651.25" y1="227.71" x2="651.25" y2="227.88"/><line class="cls-2" x1="651.25" y1="227.88" x2="651.12" y2="228.05"/><line class="cls-2" x1="651.12" y1="228.05" x2="650.95" y2="228.14"/><line class="cls-2" x1="650.95" y1="228.14" x2="650.74" y2="228.14"/><line class="cls-2" x1="650.74" y1="228.14" x2="651.25" y2="227.71"/><polygon class="cls-3" points="644.16 228.14 643.94 228.14 643.77 228.06 643.64 227.88 643.64 227.71 644.16 228.14"/><line class="cls-2" x1="644.16" y1="228.14" x2="643.94" y2="228.14"/><line class="cls-2" x1="643.94" y1="228.14" x2="643.77" y2="228.05"/><line class="cls-2" x1="643.77" y1="228.05" x2="643.64" y2="227.88"/><line class="cls-2" x1="643.64" y1="227.88" x2="643.64" y2="227.71"/><line class="cls-2" x1="643.64" y1="227.71" x2="644.16" y2="228.14"/><polygon class="cls-3" points="652.37 225.15 652.32 223.4 653.6 223.1 653.73 224.38 653.6 225.62 652.37 225.15"/><polygon class="cls-3" points="653.6 223.1 652.32 223.4 651.68 221.81 652.84 221.17 653.6 223.1"/><polygon class="cls-3" points="652.84 221.17 651.68 221.81 650.57 220.49 651.47 219.55 652.84 221.17"/><polygon class="cls-3" points="651.47 219.55 650.57 220.49 649.03 219.68 649.54 218.44 651.47 219.55"/><polygon class="cls-3" points="649.54 218.44 649.03 219.68 647.32 219.42 647.36 218.09 649.54 218.44"/><polygon class="cls-3" points="647.36 218.09 647.32 219.42 645.65 219.76 645.31 218.48 647.36 218.09"/><polygon class="cls-3" points="645.31 218.48 645.65 219.76 644.16 220.66 643.47 219.5 645.31 218.48"/><polygon class="cls-3" points="643.47 219.5 644.16 220.66 643.09 222.03 642.02 221.21 643.47 219.5"/><polygon class="cls-3" points="642.02 221.21 643.09 222.03 642.53 223.65 641.29 223.31 642.02 221.21"/><polygon class="cls-3" points="641.29 223.31 642.53 223.65 642.62 225.36 641.25 225.36 641.29 223.31"/><line class="cls-2" x1="652.32" y1="223.39" x2="651.68" y2="221.81"/><line class="cls-2" x1="651.68" y1="221.81" x2="650.57" y2="220.49"/><line class="cls-2" x1="650.57" y1="220.49" x2="649.03" y2="219.68"/><line class="cls-2" x1="649.03" y1="219.68" x2="647.32" y2="219.42"/><line class="cls-2" x1="647.32" y1="219.42" x2="645.65" y2="219.76"/><line class="cls-2" x1="645.65" y1="219.76" x2="644.16" y2="220.66"/><line class="cls-2" x1="644.16" y1="220.66" x2="643.09" y2="222.03"/><line class="cls-2" x1="643.09" y1="222.03" x2="642.53" y2="223.65"/><line class="cls-2" x1="642.53" y1="223.65" x2="642.62" y2="225.36"/><line class="cls-2" x1="642.62" y1="225.36" x2="641.25" y2="225.36"/><line class="cls-2" x1="641.25" y1="225.36" x2="641.29" y2="223.31"/><line class="cls-2" x1="641.29" y1="223.31" x2="642.02" y2="221.21"/><line class="cls-2" x1="642.02" y1="221.21" x2="643.47" y2="219.5"/><line class="cls-2" x1="643.47" y1="219.5" x2="645.31" y2="218.48"/><line class="cls-2" x1="645.31" y1="218.48" x2="647.36" y2="218.09"/><line class="cls-2" x1="647.36" y1="218.09" x2="649.54" y2="218.44"/><line class="cls-2" x1="649.54" y1="218.44" x2="651.47" y2="219.55"/><line class="cls-2" x1="651.47" y1="219.55" x2="652.83" y2="221.17"/><line class="cls-2" x1="652.83" y1="221.17" x2="653.6" y2="223.1"/><line class="cls-2" x1="653.6" y1="223.1" x2="653.73" y2="224.38"/><line class="cls-2" x1="653.73" y1="224.38" x2="653.6" y2="225.62"/><line class="cls-2" x1="653.6" y1="225.62" x2="652.36" y2="225.15"/><line class="cls-2" x1="652.36" y1="225.15" x2="652.32" y2="223.39"/><polygon class="cls-3" points="637.66 226.26 637.02 226.26 637.14 225.88 637.66 225.88 637.66 226.26"/><line class="cls-2" x1="637.02" y1="226.26" x2="637.14" y2="225.87"/><line class="cls-2" x1="637.14" y1="225.87" x2="637.66" y2="225.87"/><line class="cls-2" x1="637.66" y1="225.87" x2="637.66" y2="226.26"/><line class="cls-2" x1="637.66" y1="226.26" x2="637.02" y2="226.26"/><polygon class="cls-3" points="627.65 226.26 627.01 226.26 627.01 225.88 627.52 225.88 627.65 226.26"/><line class="cls-2" x1="627.01" y1="226.26" x2="627.01" y2="225.87"/><line class="cls-2" x1="627.01" y1="225.87" x2="627.52" y2="225.87"/><line class="cls-2" x1="627.52" y1="225.87" x2="627.65" y2="226.26"/><line class="cls-2" x1="627.65" y1="226.26" x2="627.01" y2="226.26"/><polygon class="cls-3" points="638.04 225.45 638.04 227.03 638.04 227.11 637.96 227.2 637.87 227.24 637.74 227.2 637.7 227.11 637.66 227.03 637.66 225.32 638.04 225.45"/><line class="cls-2" x1="638.04" y1="227.03" x2="638.04" y2="227.11"/><line class="cls-2" x1="638.04" y1="227.11" x2="637.96" y2="227.2"/><line class="cls-2" x1="637.96" y1="227.2" x2="637.87" y2="227.24"/><line class="cls-2" x1="637.87" y1="227.24" x2="637.74" y2="227.2"/><line class="cls-2" x1="637.74" y1="227.2" x2="637.7" y2="227.11"/><line class="cls-2" x1="637.7" y1="227.11" x2="637.66" y2="227.03"/><line class="cls-2" x1="637.66" y1="227.03" x2="637.66" y2="225.32"/><line class="cls-2" x1="637.66" y1="225.32" x2="638.04" y2="225.45"/><line class="cls-2" x1="638.04" y1="225.45" x2="638.04" y2="227.03"/><polygon class="cls-3" points="627.01 225.36 627.01 227.03 627.01 227.11 626.93 227.2 626.84 227.24 626.71 227.2 626.67 227.11 626.63 227.03 626.63 225.36 627.01 225.36"/><line class="cls-2" x1="627.01" y1="227.03" x2="627.01" y2="227.11"/><line class="cls-2" x1="627.01" y1="227.11" x2="626.93" y2="227.2"/><line class="cls-2" x1="626.93" y1="227.2" x2="626.84" y2="227.24"/><line class="cls-2" x1="626.84" y1="227.24" x2="626.71" y2="227.2"/><line class="cls-2" x1="626.71" y1="227.2" x2="626.67" y2="227.11"/><line class="cls-2" x1="626.67" y1="227.11" x2="626.63" y2="227.03"/><line class="cls-2" x1="626.63" y1="227.03" x2="626.63" y2="225.36"/><line class="cls-2" x1="626.63" y1="225.36" x2="627.01" y2="225.36"/><line class="cls-2" x1="627.01" y1="225.36" x2="627.01" y2="227.03"/><polygon class="cls-3" points="637.27 225.15 627.44 225.36 627.4 225.06 627.35 224.42 627.4 223.78 627.52 223.14 627.74 222.54 628.04 221.94 628.38 221.38 628.81 220.91 629.32 220.49 629.83 220.1 630.43 219.8 631.03 219.59 631.67 219.5 632.36 219.46 633 219.5 633.64 219.59 634.24 219.8 634.84 220.1 635.39 220.49 635.86 220.91 636.29 221.38 636.67 221.94 636.93 222.54 637.14 223.14 637.27 223.78 637.32 224.42 637.27 225.15"/><polygon class="cls-3" points="637.27 225.15 637.1 226.09 636.25 227.63 634.88 228.74 633.21 229.34 631.46 229.34 629.79 228.74 628.47 227.63 627.57 226.09 627.44 225.36 637.27 225.15"/><line class="cls-2" x1="637.1" y1="226.09" x2="636.25" y2="227.63"/><line class="cls-2" x1="636.25" y1="227.63" x2="634.88" y2="228.74"/><line class="cls-2" x1="634.88" y1="228.74" x2="633.21" y2="229.34"/><line class="cls-2" x1="633.21" y1="229.34" x2="631.46" y2="229.34"/><line class="cls-2" x1="631.46" y1="229.34" x2="629.79" y2="228.74"/><line class="cls-2" x1="629.79" y1="228.74" x2="628.47" y2="227.63"/><line class="cls-2" x1="628.47" y1="227.63" x2="627.57" y2="226.09"/><line class="cls-2" x1="627.57" y1="226.09" x2="627.44" y2="225.36"/><line class="cls-2" x1="627.44" y1="225.36" x2="627.35" y2="224.89"/><line class="cls-2" x1="627.35" y1="224.89" x2="627.35" y2="224.42"/><line class="cls-2" x1="627.35" y1="224.42" x2="627.35" y2="223.95"/><line class="cls-2" x1="627.35" y1="223.95" x2="627.44" y2="223.48"/><line class="cls-2" x1="627.44" y1="223.48" x2="627.57" y2="223.01"/><line class="cls-2" x1="627.57" y1="223.01" x2="627.74" y2="222.54"/><line class="cls-2" x1="627.74" y1="222.54" x2="627.95" y2="222.07"/><line class="cls-2" x1="627.95" y1="222.07" x2="628.21" y2="221.64"/><line class="cls-2" x1="628.21" y1="221.64" x2="628.51" y2="221.21"/><line class="cls-2" x1="628.51" y1="221.21" x2="628.85" y2="220.87"/><line class="cls-2" x1="628.85" y1="220.87" x2="629.23" y2="220.53"/><line class="cls-2" x1="629.23" y1="220.53" x2="629.66" y2="220.23"/><line class="cls-2" x1="629.66" y1="220.23" x2="630.13" y2="219.97"/><line class="cls-2" x1="630.13" y1="219.97" x2="630.6" y2="219.76"/><line class="cls-2" x1="630.6" y1="219.76" x2="631.07" y2="219.59"/><line class="cls-2" x1="631.07" y1="219.59" x2="631.59" y2="219.5"/><line class="cls-2" x1="631.59" y1="219.5" x2="632.1" y2="219.46"/><line class="cls-2" x1="632.1" y1="219.46" x2="632.61" y2="219.46"/><line class="cls-2" x1="632.61" y1="219.46" x2="633.13" y2="219.5"/><line class="cls-2" x1="633.13" y1="219.5" x2="633.6" y2="219.59"/><line class="cls-2" x1="633.6" y1="219.59" x2="634.11" y2="219.76"/><line class="cls-2" x1="634.11" y1="219.76" x2="634.58" y2="219.97"/><line class="cls-2" x1="634.58" y1="219.97" x2="635.01" y2="220.23"/><line class="cls-2" x1="635.01" y1="220.23" x2="635.43" y2="220.53"/><line class="cls-2" x1="635.43" y1="220.53" x2="635.82" y2="220.87"/><line class="cls-2" x1="635.82" y1="220.87" x2="636.16" y2="221.21"/><line class="cls-2" x1="636.16" y1="221.21" x2="636.46" y2="221.64"/><line class="cls-2" x1="636.46" y1="221.64" x2="636.76" y2="222.07"/><line class="cls-2" x1="636.76" y1="222.07" x2="636.97" y2="222.54"/><line class="cls-2" x1="636.97" y1="222.54" x2="637.14" y2="223.01"/><line class="cls-2" x1="637.14" y1="223.01" x2="637.23" y2="223.44"/><line class="cls-2" x1="637.23" y1="223.44" x2="637.32" y2="223.87"/><line class="cls-2" x1="637.32" y1="223.87" x2="637.32" y2="224.29"/><line class="cls-2" x1="637.32" y1="224.29" x2="637.32" y2="224.72"/><line class="cls-2" x1="637.32" y1="224.72" x2="637.27" y2="225.15"/><line class="cls-2" x1="637.27" y1="225.15" x2="637.1" y2="226.09"/><polygon class="cls-3" points="635.61 228.14 636.12 227.71 636.12 227.88 636.03 228.06 635.86 228.14 635.61 228.14"/><line class="cls-2" x1="636.12" y1="227.71" x2="636.12" y2="227.88"/><line class="cls-2" x1="636.12" y1="227.88" x2="636.03" y2="228.05"/><line class="cls-2" x1="636.03" y1="228.05" x2="635.86" y2="228.14"/><line class="cls-2" x1="635.86" y1="228.14" x2="635.61" y2="228.14"/><line class="cls-2" x1="635.61" y1="228.14" x2="636.12" y2="227.71"/><polygon class="cls-3" points="629.06 228.14 629.02 228.14 628.85 228.14 628.64 228.06 628.55 227.88 628.55 227.71 629.06 228.14"/><line class="cls-2" x1="629.02" y1="228.14" x2="628.85" y2="228.14"/><line class="cls-2" x1="628.85" y1="228.14" x2="628.64" y2="228.05"/><line class="cls-2" x1="628.64" y1="228.05" x2="628.55" y2="227.88"/><line class="cls-2" x1="628.55" y1="227.88" x2="628.55" y2="227.71"/><line class="cls-2" x1="628.55" y1="227.71" x2="629.06" y2="228.14"/><line class="cls-2" x1="629.06" y1="228.14" x2="629.02" y2="228.14"/><polygon class="cls-3" points="637.23 225.15 637.19 223.4 638.47 223.1 638.6 224.38 638.47 225.62 637.23 225.15"/><polygon class="cls-3" points="638.47 223.1 637.19 223.4 636.59 221.81 637.74 221.17 638.47 223.1"/><polygon class="cls-3" points="637.74 221.17 636.59 221.81 635.43 220.49 636.38 219.55 637.74 221.17"/><polygon class="cls-3" points="636.38 219.55 635.43 220.49 633.94 219.68 634.41 218.44 636.38 219.55"/><polygon class="cls-3" points="634.41 218.44 633.94 219.68 632.23 219.42 632.23 218.09 634.41 218.44"/><polygon class="cls-3" points="632.23 218.09 632.23 219.42 630.52 219.76 630.17 218.48 632.23 218.09"/><polygon class="cls-3" points="630.17 218.48 630.52 219.76 629.06 220.66 628.38 219.5 630.17 218.48"/><polygon class="cls-3" points="628.38 219.5 629.06 220.66 628 222.03 626.93 221.21 628.38 219.5"/><polygon class="cls-3" points="626.93 221.21 628 222.03 627.44 223.65 626.16 223.31 626.93 221.21"/><polygon class="cls-3" points="626.16 223.31 627.44 223.65 627.48 225.36 626.16 225.36 626.16 223.31"/><line class="cls-2" x1="637.19" y1="223.39" x2="636.59" y2="221.81"/><line class="cls-2" x1="636.59" y1="221.81" x2="635.43" y2="220.49"/><line class="cls-2" x1="635.43" y1="220.49" x2="633.94" y2="219.68"/><line class="cls-2" x1="633.94" y1="219.68" x2="632.23" y2="219.42"/><line class="cls-2" x1="632.23" y1="219.42" x2="630.52" y2="219.76"/><line class="cls-2" x1="630.52" y1="219.76" x2="629.06" y2="220.66"/><line class="cls-2" x1="629.06" y1="220.66" x2="627.99" y2="222.03"/><line class="cls-2" x1="627.99" y1="222.03" x2="627.44" y2="223.65"/><line class="cls-2" x1="627.44" y1="223.65" x2="627.48" y2="225.36"/><line class="cls-2" x1="627.48" y1="225.36" x2="626.16" y2="225.36"/><line class="cls-2" x1="626.16" y1="225.36" x2="626.16" y2="223.31"/><line class="cls-2" x1="626.16" y1="223.31" x2="626.93" y2="221.21"/><line class="cls-2" x1="626.93" y1="221.21" x2="628.38" y2="219.5"/><line class="cls-2" x1="628.38" y1="219.5" x2="630.18" y2="218.48"/><line class="cls-2" x1="630.18" y1="218.48" x2="632.23" y2="218.09"/><line class="cls-2" x1="632.23" y1="218.09" x2="634.41" y2="218.44"/><line class="cls-2" x1="634.41" y1="218.44" x2="636.37" y2="219.55"/><line class="cls-2" x1="636.37" y1="219.55" x2="637.74" y2="221.17"/><line class="cls-2" x1="637.74" y1="221.17" x2="638.47" y2="223.1"/><line class="cls-2" x1="638.47" y1="223.1" x2="638.6" y2="224.38"/><line class="cls-2" x1="638.6" y1="224.38" x2="638.47" y2="225.62"/><line class="cls-2" x1="638.47" y1="225.62" x2="637.23" y2="225.15"/><line class="cls-2" x1="637.23" y1="225.15" x2="637.19" y2="223.39"/><polygon class="cls-3" points="684.26 226.26 683.62 226.26 683.75 225.88 684.26 225.88 684.26 226.26"/><line class="cls-2" x1="683.62" y1="226.26" x2="683.75" y2="225.87"/><line class="cls-2" x1="683.75" y1="225.87" x2="684.26" y2="225.87"/><line class="cls-2" x1="684.26" y1="225.87" x2="684.26" y2="226.26"/><line class="cls-2" x1="684.26" y1="226.26" x2="683.62" y2="226.26"/><polygon class="cls-3" points="674.25 226.26 673.66 226.26 673.66 225.88 674.13 225.88 674.25 226.26"/><line class="cls-2" x1="673.66" y1="226.26" x2="673.66" y2="225.87"/><line class="cls-2" x1="673.66" y1="225.87" x2="674.13" y2="225.87"/><line class="cls-2" x1="674.13" y1="225.87" x2="674.25" y2="226.26"/><line class="cls-2" x1="674.25" y1="226.26" x2="673.66" y2="226.26"/><polygon class="cls-3" points="684.64 225.45 684.64 227.03 684.64 227.11 684.56 227.2 684.47 227.24 684.34 227.2 684.3 227.11 684.26 227.03 684.26 225.32 684.64 225.45"/><line class="cls-2" x1="684.64" y1="227.03" x2="684.64" y2="227.11"/><line class="cls-2" x1="684.64" y1="227.11" x2="684.56" y2="227.2"/><line class="cls-2" x1="684.56" y1="227.2" x2="684.47" y2="227.24"/><line class="cls-2" x1="684.47" y1="227.24" x2="684.34" y2="227.2"/><line class="cls-2" x1="684.34" y1="227.2" x2="684.3" y2="227.11"/><line class="cls-2" x1="684.3" y1="227.11" x2="684.26" y2="227.03"/><line class="cls-2" x1="684.26" y1="227.03" x2="684.26" y2="225.32"/><line class="cls-2" x1="684.26" y1="225.32" x2="684.64" y2="225.45"/><line class="cls-2" x1="684.64" y1="225.45" x2="684.64" y2="227.03"/><polygon class="cls-3" points="673.66 225.36 673.66 227.03 673.61 227.11 673.53 227.2 673.44 227.24 673.31 227.2 673.27 227.11 673.23 227.03 673.23 225.36 673.66 225.36"/><line class="cls-2" x1="673.66" y1="227.03" x2="673.61" y2="227.11"/><line class="cls-2" x1="673.61" y1="227.11" x2="673.53" y2="227.2"/><line class="cls-2" x1="673.53" y1="227.2" x2="673.44" y2="227.24"/><line class="cls-2" x1="673.44" y1="227.24" x2="673.31" y2="227.2"/><line class="cls-2" x1="673.31" y1="227.2" x2="673.27" y2="227.11"/><line class="cls-2" x1="673.27" y1="227.11" x2="673.23" y2="227.03"/><line class="cls-2" x1="673.23" y1="227.03" x2="673.23" y2="225.36"/><line class="cls-2" x1="673.23" y1="225.36" x2="673.66" y2="225.36"/><line class="cls-2" x1="673.66" y1="225.36" x2="673.66" y2="227.03"/><polygon class="cls-3" points="683.87 225.15 674.04 225.36 674 225.06 673.96 224.42 674 223.78 674.13 223.14 674.34 222.54 674.64 221.94 674.98 221.38 675.41 220.91 675.92 220.49 676.43 220.1 677.03 219.8 677.67 219.59 678.32 219.5 678.96 219.46 679.6 219.5 680.24 219.59 680.88 219.8 681.44 220.1 681.99 220.49 682.46 220.91 682.89 221.38 683.28 221.94 683.58 222.54 683.79 223.14 683.92 223.78 683.96 224.42 683.87 225.15"/><polygon class="cls-3" points="683.87 225.15 683.7 226.09 682.85 227.63 681.48 228.74 679.81 229.34 678.06 229.34 676.39 228.74 675.07 227.63 674.17 226.09 674.04 225.36 683.87 225.15"/><line class="cls-2" x1="683.7" y1="226.09" x2="682.85" y2="227.63"/><line class="cls-2" x1="682.85" y1="227.63" x2="681.48" y2="228.74"/><line class="cls-2" x1="681.48" y1="228.74" x2="679.81" y2="229.34"/><line class="cls-2" x1="679.81" y1="229.34" x2="678.06" y2="229.34"/><line class="cls-2" x1="678.06" y1="229.34" x2="676.39" y2="228.74"/><line class="cls-2" x1="676.39" y1="228.74" x2="675.07" y2="227.63"/><line class="cls-2" x1="675.07" y1="227.63" x2="674.17" y2="226.09"/><line class="cls-2" x1="674.17" y1="226.09" x2="674.04" y2="225.36"/><line class="cls-2" x1="674.04" y1="225.36" x2="674" y2="224.89"/><line class="cls-2" x1="674" y1="224.89" x2="673.96" y2="224.42"/><line class="cls-2" x1="673.96" y1="224.42" x2="674" y2="223.95"/><line class="cls-2" x1="674" y1="223.95" x2="674.04" y2="223.48"/><line class="cls-2" x1="674.04" y1="223.48" x2="674.17" y2="223.01"/><line class="cls-2" x1="674.17" y1="223.01" x2="674.34" y2="222.54"/><line class="cls-2" x1="674.34" y1="222.54" x2="674.55" y2="222.07"/><line class="cls-2" x1="674.55" y1="222.07" x2="674.81" y2="221.64"/><line class="cls-2" x1="674.81" y1="221.64" x2="675.11" y2="221.21"/><line class="cls-2" x1="675.11" y1="221.21" x2="675.45" y2="220.87"/><line class="cls-2" x1="675.45" y1="220.87" x2="675.88" y2="220.53"/><line class="cls-2" x1="675.88" y1="220.53" x2="676.26" y2="220.23"/><line class="cls-2" x1="676.26" y1="220.23" x2="676.73" y2="219.97"/><line class="cls-2" x1="676.73" y1="219.97" x2="677.2" y2="219.76"/><line class="cls-2" x1="677.2" y1="219.76" x2="677.67" y2="219.59"/><line class="cls-2" x1="677.67" y1="219.59" x2="678.19" y2="219.5"/><line class="cls-2" x1="678.19" y1="219.5" x2="678.7" y2="219.46"/><line class="cls-2" x1="678.7" y1="219.46" x2="679.21" y2="219.46"/><line class="cls-2" x1="679.21" y1="219.46" x2="679.73" y2="219.5"/><line class="cls-2" x1="679.73" y1="219.5" x2="680.24" y2="219.59"/><line class="cls-2" x1="680.24" y1="219.59" x2="680.71" y2="219.76"/><line class="cls-2" x1="680.71" y1="219.76" x2="681.18" y2="219.97"/><line class="cls-2" x1="681.18" y1="219.97" x2="681.61" y2="220.23"/><line class="cls-2" x1="681.61" y1="220.23" x2="682.04" y2="220.53"/><line class="cls-2" x1="682.04" y1="220.53" x2="682.42" y2="220.87"/><line class="cls-2" x1="682.42" y1="220.87" x2="682.76" y2="221.21"/><line class="cls-2" x1="682.76" y1="221.21" x2="683.1" y2="221.64"/><line class="cls-2" x1="683.1" y1="221.64" x2="683.36" y2="222.07"/><line class="cls-2" x1="683.36" y1="222.07" x2="683.57" y2="222.54"/><line class="cls-2" x1="683.57" y1="222.54" x2="683.75" y2="223.01"/><line class="cls-2" x1="683.75" y1="223.01" x2="683.83" y2="223.44"/><line class="cls-2" x1="683.83" y1="223.44" x2="683.92" y2="223.87"/><line class="cls-2" x1="683.92" y1="223.87" x2="683.96" y2="224.29"/><line class="cls-2" x1="683.96" y1="224.29" x2="683.92" y2="224.72"/><line class="cls-2" x1="683.92" y1="224.72" x2="683.87" y2="225.15"/><line class="cls-2" x1="683.87" y1="225.15" x2="683.7" y2="226.09"/><polygon class="cls-3" points="682.25 228.14 682.72 227.71 682.72 227.88 682.63 228.06 682.46 228.14 682.25 228.14"/><line class="cls-2" x1="682.72" y1="227.71" x2="682.72" y2="227.88"/><line class="cls-2" x1="682.72" y1="227.88" x2="682.63" y2="228.05"/><line class="cls-2" x1="682.63" y1="228.05" x2="682.46" y2="228.14"/><line class="cls-2" x1="682.46" y1="228.14" x2="682.25" y2="228.14"/><line class="cls-2" x1="682.25" y1="228.14" x2="682.72" y2="227.71"/><polygon class="cls-3" points="675.66 228.14 675.45 228.14 675.28 228.06 675.15 227.88 675.15 227.71 675.66 228.14"/><line class="cls-2" x1="675.67" y1="228.14" x2="675.45" y2="228.14"/><line class="cls-2" x1="675.45" y1="228.14" x2="675.28" y2="228.05"/><line class="cls-2" x1="675.28" y1="228.05" x2="675.15" y2="227.88"/><line class="cls-2" x1="675.15" y1="227.88" x2="675.15" y2="227.71"/><line class="cls-2" x1="675.15" y1="227.71" x2="675.67" y2="228.14"/><polygon class="cls-3" points="683.83 225.15 683.83 223.4 685.07 223.1 685.2 224.38 685.11 225.62 683.83 225.15"/><polygon class="cls-3" points="685.07 223.1 683.83 223.4 683.19 221.81 684.34 221.17 685.07 223.1"/><polygon class="cls-3" points="684.34 221.17 683.19 221.81 682.04 220.49 682.98 219.55 684.34 221.17"/><polygon class="cls-3" points="682.98 219.55 682.04 220.49 680.54 219.68 681.01 218.44 682.98 219.55"/><polygon class="cls-3" points="681.01 218.44 680.54 219.68 678.83 219.42 678.83 218.09 681.01 218.44"/><polygon class="cls-3" points="678.83 218.09 678.83 219.42 677.12 219.76 676.82 218.48 678.83 218.09"/><polygon class="cls-3" points="676.82 218.48 677.12 219.76 675.66 220.66 674.98 219.5 676.82 218.48"/><polygon class="cls-3" points="674.98 219.5 675.66 220.66 674.6 222.03 673.53 221.21 674.98 219.5"/><polygon class="cls-3" points="673.53 221.21 674.6 222.03 674.04 223.65 672.76 223.31 673.53 221.21"/><polygon class="cls-3" points="672.76 223.31 674.04 223.65 674.08 225.36 672.76 225.36 672.76 223.31"/><line class="cls-2" x1="683.83" y1="223.39" x2="683.19" y2="221.81"/><line class="cls-2" x1="683.19" y1="221.81" x2="682.04" y2="220.49"/><line class="cls-2" x1="682.04" y1="220.49" x2="680.54" y2="219.68"/><line class="cls-2" x1="680.54" y1="219.68" x2="678.83" y2="219.42"/><line class="cls-2" x1="678.83" y1="219.42" x2="677.12" y2="219.76"/><line class="cls-2" x1="677.12" y1="219.76" x2="675.67" y2="220.66"/><line class="cls-2" x1="675.67" y1="220.66" x2="674.6" y2="222.03"/><line class="cls-2" x1="674.6" y1="222.03" x2="674.04" y2="223.65"/><line class="cls-2" x1="674.04" y1="223.65" x2="674.08" y2="225.36"/><line class="cls-2" x1="674.08" y1="225.36" x2="672.76" y2="225.36"/><line class="cls-2" x1="672.76" y1="225.36" x2="672.76" y2="223.31"/><line class="cls-2" x1="672.76" y1="223.31" x2="673.53" y2="221.21"/><line class="cls-2" x1="673.53" y1="221.21" x2="674.98" y2="219.5"/><line class="cls-2" x1="674.98" y1="219.5" x2="676.82" y2="218.48"/><line class="cls-2" x1="676.82" y1="218.48" x2="678.83" y2="218.09"/><line class="cls-2" x1="678.83" y1="218.09" x2="681.01" y2="218.44"/><line class="cls-2" x1="681.01" y1="218.44" x2="682.98" y2="219.55"/><line class="cls-2" x1="682.98" y1="219.55" x2="684.34" y2="221.17"/><line class="cls-2" x1="684.34" y1="221.17" x2="685.07" y2="223.1"/><line class="cls-2" x1="685.07" y1="223.1" x2="685.2" y2="224.38"/><line class="cls-2" x1="685.2" y1="224.38" x2="685.11" y2="225.62"/><line class="cls-2" x1="685.11" y1="225.62" x2="683.83" y2="225.15"/><line class="cls-2" x1="683.83" y1="225.15" x2="683.83" y2="223.39"/><polygon class="cls-3" points="669.08 226.26 668.48 226.26 668.61 225.88 669.08 225.88 669.08 226.26"/><line class="cls-2" x1="668.48" y1="226.26" x2="668.61" y2="225.87"/><line class="cls-2" x1="668.61" y1="225.87" x2="669.08" y2="225.87"/><line class="cls-2" x1="669.08" y1="225.87" x2="669.08" y2="226.26"/><line class="cls-2" x1="669.08" y1="226.26" x2="668.48" y2="226.26"/><polygon class="cls-3" points="659.12 226.26 658.48 226.26 658.48 225.88 658.99 225.88 659.12 226.26"/><line class="cls-2" x1="658.48" y1="226.26" x2="658.48" y2="225.87"/><line class="cls-2" x1="658.48" y1="225.87" x2="658.99" y2="225.87"/><line class="cls-2" x1="658.99" y1="225.87" x2="659.12" y2="226.26"/><line class="cls-2" x1="659.12" y1="226.26" x2="658.48" y2="226.26"/><polygon class="cls-3" points="669.51 225.45 669.51 227.03 669.47 227.11 669.38 227.2 669.29 227.24 669.21 227.2 669.12 227.11 669.08 227.03 669.08 225.32 669.51 225.45"/><line class="cls-2" x1="669.51" y1="227.03" x2="669.47" y2="227.11"/><line class="cls-2" x1="669.47" y1="227.11" x2="669.38" y2="227.2"/><line class="cls-2" x1="669.38" y1="227.2" x2="669.3" y2="227.24"/><line class="cls-2" x1="669.3" y1="227.24" x2="669.21" y2="227.2"/><line class="cls-2" x1="669.21" y1="227.2" x2="669.12" y2="227.11"/><line class="cls-2" x1="669.12" y1="227.11" x2="669.08" y2="227.03"/><line class="cls-2" x1="669.08" y1="227.03" x2="669.08" y2="225.32"/><line class="cls-2" x1="669.08" y1="225.32" x2="669.51" y2="225.45"/><line class="cls-2" x1="669.51" y1="225.45" x2="669.51" y2="227.03"/><polygon class="cls-3" points="658.48 225.36 658.48 227.03 658.44 227.11 658.35 227.2 658.26 227.24 658.18 227.2 658.09 227.11 658.05 227.03 658.05 225.36 658.48 225.36"/><line class="cls-2" x1="658.48" y1="227.03" x2="658.44" y2="227.11"/><line class="cls-2" x1="658.44" y1="227.11" x2="658.35" y2="227.2"/><line class="cls-2" x1="658.35" y1="227.2" x2="658.26" y2="227.24"/><line class="cls-2" x1="658.26" y1="227.24" x2="658.18" y2="227.2"/><line class="cls-2" x1="658.18" y1="227.2" x2="658.09" y2="227.11"/><line class="cls-2" x1="658.09" y1="227.11" x2="658.05" y2="227.03"/><line class="cls-2" x1="658.05" y1="227.03" x2="658.05" y2="225.36"/><line class="cls-2" x1="658.05" y1="225.36" x2="658.48" y2="225.36"/><line class="cls-2" x1="658.48" y1="225.36" x2="658.48" y2="227.03"/><polygon class="cls-3" points="668.74 225.15 658.91 225.36 658.82 225.06 658.78 224.42 658.82 223.78 658.95 223.14 659.16 222.54 659.46 221.94 659.85 221.38 660.27 220.91 660.74 220.49 661.3 220.1 661.86 219.8 662.5 219.59 663.14 219.5 663.78 219.46 664.42 219.5 665.06 219.59 665.7 219.8 666.3 220.1 666.82 220.49 667.33 220.91 667.76 221.38 668.1 221.94 668.4 222.54 668.61 223.14 668.74 223.78 668.78 224.42 668.74 225.15"/><polygon class="cls-3" points="668.74 225.15 668.57 226.09 667.67 227.63 666.35 228.74 664.68 229.34 662.88 229.34 661.26 228.74 659.89 227.63 659.03 226.09 658.91 225.36 668.74 225.15"/><line class="cls-2" x1="668.57" y1="226.09" x2="667.67" y2="227.63"/><line class="cls-2" x1="667.67" y1="227.63" x2="666.35" y2="228.74"/><line class="cls-2" x1="666.35" y1="228.74" x2="664.68" y2="229.34"/><line class="cls-2" x1="664.68" y1="229.34" x2="662.88" y2="229.34"/><line class="cls-2" x1="662.88" y1="229.34" x2="661.26" y2="228.74"/><line class="cls-2" x1="661.26" y1="228.74" x2="659.89" y2="227.63"/><line class="cls-2" x1="659.89" y1="227.63" x2="659.03" y2="226.09"/><line class="cls-2" x1="659.03" y1="226.09" x2="658.91" y2="225.36"/><line class="cls-2" x1="658.91" y1="225.36" x2="658.82" y2="224.89"/><line class="cls-2" x1="658.82" y1="224.89" x2="658.78" y2="224.42"/><line class="cls-2" x1="658.78" y1="224.42" x2="658.82" y2="223.95"/><line class="cls-2" x1="658.82" y1="223.95" x2="658.91" y2="223.48"/><line class="cls-2" x1="658.91" y1="223.48" x2="658.99" y2="223.01"/><line class="cls-2" x1="658.99" y1="223.01" x2="659.16" y2="222.54"/><line class="cls-2" x1="659.16" y1="222.54" x2="659.38" y2="222.07"/><line class="cls-2" x1="659.38" y1="222.07" x2="659.63" y2="221.64"/><line class="cls-2" x1="659.63" y1="221.64" x2="659.97" y2="221.21"/><line class="cls-2" x1="659.97" y1="221.21" x2="660.32" y2="220.87"/><line class="cls-2" x1="660.32" y1="220.87" x2="660.7" y2="220.53"/><line class="cls-2" x1="660.7" y1="220.53" x2="661.13" y2="220.23"/><line class="cls-2" x1="661.13" y1="220.23" x2="661.56" y2="219.97"/><line class="cls-2" x1="661.56" y1="219.97" x2="662.03" y2="219.76"/><line class="cls-2" x1="662.03" y1="219.76" x2="662.5" y2="219.59"/><line class="cls-2" x1="662.5" y1="219.59" x2="663.01" y2="219.5"/><line class="cls-2" x1="663.01" y1="219.5" x2="663.52" y2="219.46"/><line class="cls-2" x1="663.52" y1="219.46" x2="664.04" y2="219.46"/><line class="cls-2" x1="664.04" y1="219.46" x2="664.55" y2="219.5"/><line class="cls-2" x1="664.55" y1="219.5" x2="665.06" y2="219.59"/><line class="cls-2" x1="665.06" y1="219.59" x2="665.53" y2="219.76"/><line class="cls-2" x1="665.53" y1="219.76" x2="666" y2="219.97"/><line class="cls-2" x1="666" y1="219.97" x2="666.47" y2="220.23"/><line class="cls-2" x1="666.47" y1="220.23" x2="666.86" y2="220.53"/><line class="cls-2" x1="666.86" y1="220.53" x2="667.24" y2="220.87"/><line class="cls-2" x1="667.24" y1="220.87" x2="667.63" y2="221.21"/><line class="cls-2" x1="667.63" y1="221.21" x2="667.93" y2="221.64"/><line class="cls-2" x1="667.93" y1="221.64" x2="668.18" y2="222.07"/><line class="cls-2" x1="668.18" y1="222.07" x2="668.4" y2="222.54"/><line class="cls-2" x1="668.4" y1="222.54" x2="668.57" y2="223.01"/><line class="cls-2" x1="668.57" y1="223.01" x2="668.7" y2="223.44"/><line class="cls-2" x1="668.7" y1="223.44" x2="668.74" y2="223.87"/><line class="cls-2" x1="668.74" y1="223.87" x2="668.78" y2="224.29"/><line class="cls-2" x1="668.78" y1="224.29" x2="668.78" y2="224.72"/><line class="cls-2" x1="668.78" y1="224.72" x2="668.74" y2="225.15"/><line class="cls-2" x1="668.74" y1="225.15" x2="668.57" y2="226.09"/><polygon class="cls-3" points="667.07 228.14 667.59 227.71 667.59 227.88 667.46 228.06 667.29 228.14 667.07 228.14"/><line class="cls-2" x1="667.58" y1="227.71" x2="667.58" y2="227.88"/><line class="cls-2" x1="667.58" y1="227.88" x2="667.46" y2="228.05"/><line class="cls-2" x1="667.46" y1="228.05" x2="667.29" y2="228.14"/><line class="cls-2" x1="667.29" y1="228.14" x2="667.07" y2="228.14"/><line class="cls-2" x1="667.07" y1="228.14" x2="667.58" y2="227.71"/><polygon class="cls-3" points="660.49 228.14 660.27 228.14 660.1 228.06 660.02 227.88 660.02 227.71 660.49 228.14"/><line class="cls-2" x1="660.49" y1="228.14" x2="660.27" y2="228.14"/><line class="cls-2" x1="660.27" y1="228.14" x2="660.1" y2="228.05"/><line class="cls-2" x1="660.1" y1="228.05" x2="660.02" y2="227.88"/><line class="cls-2" x1="660.02" y1="227.88" x2="660.02" y2="227.71"/><line class="cls-2" x1="660.02" y1="227.71" x2="660.49" y2="228.14"/><polygon class="cls-3" points="668.7 225.15 668.65 223.4 669.94 223.1 670.07 224.38 669.94 225.62 668.7 225.15"/><polygon class="cls-3" points="669.94 223.1 668.65 223.4 668.01 221.81 669.17 221.17 669.94 223.1"/><polygon class="cls-3" points="669.17 221.17 668.01 221.81 666.9 220.49 667.8 219.55 669.17 221.17"/><polygon class="cls-3" points="667.8 219.55 666.9 220.49 665.36 219.68 665.88 218.44 667.8 219.55"/><polygon class="cls-3" points="665.88 218.44 665.36 219.68 663.65 219.42 663.69 218.09 665.88 218.44"/><polygon class="cls-3" points="663.69 218.09 663.65 219.42 661.98 219.76 661.64 218.48 663.69 218.09"/><polygon class="cls-3" points="661.64 218.48 661.98 219.76 660.49 220.66 659.8 219.5 661.64 218.48"/><polygon class="cls-3" points="659.8 219.5 660.49 220.66 659.42 222.03 658.35 221.21 659.8 219.5"/><polygon class="cls-3" points="658.35 221.21 659.42 222.03 658.86 223.65 657.62 223.31 658.35 221.21"/><polygon class="cls-3" points="657.62 223.31 658.86 223.65 658.95 225.36 657.58 225.36 657.62 223.31"/><line class="cls-2" x1="668.65" y1="223.39" x2="668.01" y2="221.81"/><line class="cls-2" x1="668.01" y1="221.81" x2="666.9" y2="220.49"/><line class="cls-2" x1="666.9" y1="220.49" x2="665.36" y2="219.68"/><line class="cls-2" x1="665.36" y1="219.68" x2="663.65" y2="219.42"/><line class="cls-2" x1="663.65" y1="219.42" x2="661.98" y2="219.76"/><line class="cls-2" x1="661.98" y1="219.76" x2="660.49" y2="220.66"/><line class="cls-2" x1="660.49" y1="220.66" x2="659.42" y2="222.03"/><line class="cls-2" x1="659.42" y1="222.03" x2="658.86" y2="223.65"/><line class="cls-2" x1="658.86" y1="223.65" x2="658.95" y2="225.36"/><line class="cls-2" x1="658.95" y1="225.36" x2="657.58" y2="225.36"/><line class="cls-2" x1="657.58" y1="225.36" x2="657.62" y2="223.31"/><line class="cls-2" x1="657.62" y1="223.31" x2="658.35" y2="221.21"/><line class="cls-2" x1="658.35" y1="221.21" x2="659.8" y2="219.5"/><line class="cls-2" x1="659.8" y1="219.5" x2="661.64" y2="218.48"/><line class="cls-2" x1="661.64" y1="218.48" x2="663.69" y2="218.09"/><line class="cls-2" x1="663.69" y1="218.09" x2="665.87" y2="218.44"/><line class="cls-2" x1="665.87" y1="218.44" x2="667.8" y2="219.55"/><line class="cls-2" x1="667.8" y1="219.55" x2="669.17" y2="221.17"/><line class="cls-2" x1="669.17" y1="221.17" x2="669.94" y2="223.1"/><line class="cls-2" x1="669.94" y1="223.1" x2="670.06" y2="224.38"/><line class="cls-2" x1="670.06" y1="224.38" x2="669.94" y2="225.62"/><line class="cls-2" x1="669.94" y1="225.62" x2="668.7" y2="225.15"/><line class="cls-2" x1="668.7" y1="225.15" x2="668.65" y2="223.39"/><text class="cls-4" transform="translate(628.21 238.51)"><tspan xml:space="preserve"> OPT .EXT ISLAND </tspan></text></g></svg>