<svg id="图层_1" data-name="图层 1" xmlns="http://www.w3.org/2000/svg" viewBox="0 0 1152 576"><defs><style>.cls-1{font-size:6.5px;fill:#0b6190;font-family:CenturyGothic, Century Gothic;}.cls-2,.cls-3{fill:#e8e2e1;}.cls-3,.cls-8{fill-rule:evenodd;}.cls-4,.cls-6,.cls-7{fill:none;stroke:#0b6190;stroke-linejoin:bevel;}.cls-4,.cls-7{stroke-width:0.24px;}.cls-5,.cls-8{fill:#fff;}.cls-6,.cls-7{stroke-linecap:round;}.cls-6{stroke-width:0.69px;}</style></defs><title>Laundry Sink-2</title><g id="OPT_.2_EXTENSION_ON_BACK-OPT" data-name="OPT .2 EXTENSION ON BACK-OPT"><g id="OPT_LAUNDRY_SINK-2" data-name="OPT LAUNDRY SINK-2"><text class="cls-1" transform="translate(413.05 258.5)"><tspan xml:space="preserve"> OPT. </tspan></text><polygon class="cls-2" points="413.68 252.41 413.73 252.45 413.73 252.5 413.77 252.5 413.81 252.54 413.85 252.54 413.68 252.37 413.68 252.41"/><polyline class="cls-3" points="414.65 247.24 413.68 240.98 422.09 241.27 418.18 244.38"/><polygon class="cls-2" points="413.68 252.37 413.85 252.54 414.65 247.24 413.68 240.98 413.68 252.37"/><polyline class="cls-3" points="418.18 250.1 413.85 252.54 414.65 247.24"/><polyline class="cls-3" points="418.27 250.19 413.85 252.54 418.18 250.1"/><polyline class="cls-3" points="418.98 250.6 413.85 252.54 418.26 250.18"/><polyline class="cls-3" points="419.69 250.98 413.85 252.54 418.98 250.6"/><polyline class="cls-3" points="420.45 251.24 413.85 252.54 419.69 250.98"/><polyline class="cls-3" points="421.25 251.4 413.85 252.54 420.45 251.24"/><polyline class="cls-3" points="413.85 252.54 421.25 251.4 422.09 251.45 429.95 252.54"/><polyline class="cls-3" points="422.89 251.4 429.95 252.54 422.09 251.44"/><polyline class="cls-3" points="423.69 251.24 429.95 252.54 422.89 251.4"/><polyline class="cls-3" points="424.45 250.98 429.95 252.54 423.69 251.24"/><polyline class="cls-3" points="425.2 250.6 429.95 252.54 424.45 250.98"/><polyline class="cls-3" points="425.88 250.19 429.95 252.54 425.2 250.6"/><polyline class="cls-3" points="425.96 250.1 429.95 252.54 425.88 250.19"/><polyline class="cls-3" points="429.54 247.24 429.95 252.54 425.96 250.1"/><polyline class="cls-3" points="422.09 241.27 429.95 240.98 429.54 247.24 425.96 244.38"/><polyline class="cls-3" points="425.96 250.1 426.25 249.81 429.53 247.24"/><polyline class="cls-3" points="426.59 249.47 429.53 247.24 426.25 249.81"/><polyline class="cls-3" points="426.84 249.05 429.53 247.24 426.59 249.47"/><polyline class="cls-3" points="427.05 248.63 429.53 247.24 426.84 249.05"/><polyline class="cls-3" points="427.22 248.17 429.53 247.24 427.05 248.63"/><polygon class="cls-2" points="427.31 247.7 427.22 248.16 429.53 247.24 427.31 247.7"/><polygon class="cls-2" points="427.35 247.24 427.31 247.7 429.53 247.24 427.35 247.24"/><polygon class="cls-2" points="427.35 247.24 429.53 247.24 427.31 246.78 427.35 247.24"/><polygon class="cls-2" points="427.31 246.78 429.53 247.24 427.22 246.31 427.31 246.78"/><polyline class="cls-3" points="427.05 245.85 429.53 247.24 427.22 246.32"/><polyline class="cls-3" points="426.84 245.43 429.53 247.24 427.05 245.85"/><polyline class="cls-3" points="426.59 245.01 429.53 247.24 426.84 245.43"/><polyline class="cls-3" points="426.25 244.68 429.53 247.24 426.59 245.01"/><polyline class="cls-3" points="429.54 247.24 426.25 244.68 425.96 244.38"/><polyline class="cls-3" points="418.18 244.38 417.89 244.68 414.65 247.24"/><polyline class="cls-3" points="417.55 245.01 414.65 247.24 417.89 244.68"/><polyline class="cls-3" points="417.3 245.43 414.65 247.24 417.55 245.01"/><polyline class="cls-3" points="417.09 245.85 414.65 247.24 417.3 245.43"/><polyline class="cls-3" points="416.96 246.32 414.65 247.24 417.09 245.85"/><polygon class="cls-2" points="414.65 247.24 416.83 246.78 416.96 246.32 414.65 247.24"/><polygon class="cls-2" points="414.65 247.24 416.83 247.24 416.83 246.78 414.65 247.24"/><polygon class="cls-2" points="414.65 247.24 416.83 247.7 416.83 247.24 414.65 247.24"/><polygon class="cls-2" points="416.96 248.16 416.83 247.7 414.65 247.24 416.96 248.16"/><polyline class="cls-3" points="417.09 248.63 414.65 247.24 416.96 248.17"/><polyline class="cls-3" points="417.3 249.05 414.65 247.24 417.09 248.63"/><polyline class="cls-3" points="417.55 249.47 414.65 247.24 417.3 249.05"/><polyline class="cls-3" points="417.89 249.81 414.65 247.24 417.55 249.47"/><polyline class="cls-3" points="414.65 247.24 417.89 249.81 418.18 250.1"/><path class="cls-2" d="M426,244.38l-.08,0Z"/><polyline class="cls-3" points="425.88 244.34 425.2 243.88 422.09 241.27"/><polyline class="cls-3" points="424.45 243.5 422.09 241.27 425.2 243.88"/><polyline class="cls-3" points="423.69 243.25 422.09 241.27 424.45 243.5"/><polyline class="cls-3" points="422.89 243.08 422.09 241.27 423.69 243.25"/><polygon class="cls-2" points="422.09 243.03 422.89 243.08 422.09 241.27 422.09 243.03"/><polygon class="cls-2" points="421.25 243.08 422.09 243.04 422.09 241.27 421.25 243.08"/><polyline class="cls-3" points="420.45 243.25 422.09 241.27 421.25 243.08"/><polyline class="cls-3" points="419.69 243.5 422.09 241.27 420.45 243.25"/><polyline class="cls-3" points="418.98 243.88 422.09 241.27 419.69 243.5"/><polyline class="cls-3" points="418.27 244.34 422.09 241.27 418.98 243.88"/><polyline class="cls-3" points="422.09 241.27 418.26 244.34 418.18 244.38"/><polyline class="cls-4" points="418.18 244.38 417.93 244.63 417.68 244.89"/><line class="cls-4" x1="417.68" y1="244.89" x2="417.47" y2="245.18"/><polyline class="cls-4" points="417.47 245.18 417.3 245.47 417.13 245.77 417 246.11 416.92 246.44"/><line class="cls-4" x1="416.92" y1="246.44" x2="416.84" y2="246.82"/><polyline class="cls-4" points="416.84 246.82 416.84 247.16 416.84 247.53 416.88 247.87 416.96 248.25"/><polyline class="cls-4" points="416.96 248.25 417.09 248.59 417.26 248.92"/><polyline class="cls-4" points="417.26 248.92 417.42 249.26 417.63 249.55 417.89 249.85 418.18 250.1 418.43 250.27"/><line class="cls-4" x1="418.43" y1="250.27" x2="418.98" y2="250.65"/><polyline class="cls-4" points="418.98 250.65 419.53 250.9 420.11 251.15 420.75 251.32"/><polyline class="cls-4" points="420.75 251.32 421.38 251.4 422.01 251.44"/><polyline class="cls-4" points="422.01 251.45 422.64 251.45 423.23 251.36"/><polyline class="cls-4" points="423.23 251.36 423.86 251.19 424.45 250.98"/><polyline class="cls-4" points="424.45 250.98 425.04 250.73 425.58 250.39"/><line class="cls-4" x1="425.58" y1="250.39" x2="425.96" y2="250.1"/><line class="cls-4" x1="425.96" y1="250.1" x2="426.25" y2="249.85"/><polyline class="cls-4" points="426.25 249.85 426.46 249.6 426.68 249.3 426.89 249.01 427.05 248.71"/><polyline class="cls-4" points="427.05 248.71 427.18 248.38 427.26 248 427.31 247.66 427.35 247.28 427.35 246.95"/><line class="cls-4" x1="427.35" y1="246.95" x2="427.26" y2="246.57"/><polyline class="cls-4" points="427.26 246.57 427.18 246.23 427.1 245.9"/><polyline class="cls-4" points="427.1 245.9 426.93 245.56 426.76 245.26 426.55 244.97 426.3 244.68 426.04 244.42 425.96 244.38 425.5 244.04 424.95 243.75"/><polyline class="cls-4" points="424.95 243.75 424.4 243.5 423.86 243.29"/><line class="cls-4" x1="423.86" y1="243.29" x2="423.23" y2="243.16"/><line class="cls-4" x1="423.23" y1="243.16" x2="422.6" y2="243.08"/><line class="cls-4" x1="422.6" y1="243.08" x2="421.97" y2="243.04"/><polyline class="cls-4" points="421.97 243.04 421.33 243.08 420.75 243.16 420.12 243.33"/><line class="cls-4" x1="420.11" y1="243.33" x2="419.53" y2="243.58"/><polyline class="cls-4" points="419.53 243.58 418.98 243.88 418.56 244.13"/><line class="cls-4" x1="418.56" y1="244.13" x2="418.18" y2="244.38"/><rect class="cls-5" x="414.19" y="240.98" width="15.77" height="11.06"/><line class="cls-6" x1="414.19" y1="248.67" x2="414.19" y2="246.78"/><line class="cls-6" x1="414.19" y1="244.89" x2="414.19" y2="242.99"/><line class="cls-6" x1="414.19" y1="252.03" x2="414.19" y2="250.44"/><line class="cls-6" x1="414.19" y1="240.98" x2="414.19" y2="242.57"/><line class="cls-7" x1="414.19" y1="252.03" x2="416.63" y2="252.03"/><line class="cls-7" x1="418.52" y1="252.03" x2="420.41" y2="252.03"/><line class="cls-7" x1="422.3" y1="252.03" x2="424.19" y2="252.03"/><line class="cls-7" x1="426.09" y1="252.03" x2="427.98" y2="252.03"/><line class="cls-6" x1="413.85" y1="252.54" x2="413.81" y2="252.54"/><line class="cls-6" x1="413.81" y1="252.54" x2="413.77" y2="252.5"/><polyline class="cls-6" points="413.77 252.5 413.73 252.5 413.73 252.46 413.68 252.46 413.68 252.41"/><line class="cls-6" x1="413.68" y1="252.41" x2="413.68" y2="252.37"/><line class="cls-6" x1="413.68" y1="252.37" x2="413.68" y2="240.98"/><polyline class="cls-7" points="413.85 252.54 429.95 252.54 429.95 240.69"/><polyline class="cls-7" points="418.18 244.38 417.93 244.63 417.68 244.89"/><line class="cls-7" x1="417.68" y1="244.89" x2="417.47" y2="245.18"/><polyline class="cls-7" points="417.47 245.18 417.3 245.47 417.13 245.77 417 246.11 416.92 246.44"/><line class="cls-7" x1="416.92" y1="246.44" x2="416.84" y2="246.82"/><polyline class="cls-7" points="416.84 246.82 416.84 247.16 416.84 247.53 416.88 247.87 416.96 248.25"/><polyline class="cls-7" points="416.96 248.25 417.09 248.59 417.26 248.92"/><polyline class="cls-7" points="417.26 248.92 417.42 249.26 417.63 249.55 417.89 249.85 418.18 250.1 418.43 250.27"/><line class="cls-7" x1="418.43" y1="250.27" x2="418.98" y2="250.65"/><polyline class="cls-7" points="418.98 250.65 419.53 250.9 420.11 251.15 420.75 251.32"/><polyline class="cls-7" points="420.75 251.32 421.38 251.4 422.01 251.44"/><polyline class="cls-7" points="422.01 251.45 422.64 251.45 423.23 251.36"/><polyline class="cls-7" points="423.23 251.36 423.86 251.19 424.45 250.98"/><polyline class="cls-7" points="424.45 250.98 425.04 250.73 425.58 250.39"/><line class="cls-7" x1="425.58" y1="250.39" x2="425.96" y2="250.1"/><line class="cls-7" x1="425.96" y1="250.1" x2="426.25" y2="249.85"/><polyline class="cls-7" points="426.25 249.85 426.46 249.6 426.68 249.3 426.89 249.01 427.05 248.71"/><polyline class="cls-7" points="427.05 248.71 427.18 248.38 427.26 248 427.31 247.66 427.35 247.28 427.35 246.95"/><line class="cls-7" x1="427.35" y1="246.95" x2="427.26" y2="246.57"/><polyline class="cls-7" points="427.26 246.57 427.18 246.23 427.1 245.9"/><polyline class="cls-7" points="427.1 245.9 426.93 245.56 426.76 245.26 426.55 244.97 426.3 244.68 426.04 244.42 425.96 244.38 425.5 244.04 424.95 243.75"/><polyline class="cls-7" points="424.95 243.75 424.4 243.5 423.86 243.29"/><line class="cls-7" x1="423.86" y1="243.29" x2="423.23" y2="243.16"/><line class="cls-7" x1="423.23" y1="243.16" x2="422.6" y2="243.08"/><line class="cls-7" x1="422.6" y1="243.08" x2="421.97" y2="243.04"/><polyline class="cls-7" points="421.97 243.04 421.33 243.08 420.75 243.16 420.12 243.33"/><line class="cls-7" x1="420.11" y1="243.33" x2="419.53" y2="243.58"/><polyline class="cls-7" points="419.53 243.58 418.98 243.88 418.56 244.13"/><line class="cls-7" x1="418.56" y1="244.13" x2="418.18" y2="244.38"/><path class="cls-8" d="M418.22,250.06v-5.68l-.33.25a3.68,3.68,0,0,0-.3,4.8l.3.38"/><path class="cls-8" d="M426,250.06h-7.78l.09.08a6.23,6.23,0,0,0,6.89.46l.68-.46"/><path class="cls-8" d="M426,244.38v5.68l.3-.25a3.63,3.63,0,0,0,.29-4.8l-.29-.38"/><path class="cls-8" d="M418.22,244.38H426l-.12-.08a6.34,6.34,0,0,0-6.9-.46l-.67.46"/><rect class="cls-5" x="418.22" y="244.38" width="7.78" height="5.68"/><line class="cls-7" x1="418.22" y1="244.38" x2="417.97" y2="244.59"/><polyline class="cls-7" points="417.97 244.59 417.72 244.84 417.51 245.1"/><polyline class="cls-7" points="417.51 245.1 417.34 245.39 417.17 245.69"/><polyline class="cls-7" points="417.17 245.69 417.05 246.02 416.96 246.36"/><polyline class="cls-7" points="416.96 246.36 416.88 246.69 416.83 247.07 416.83 247.41"/><polyline class="cls-7" points="416.84 247.41 416.88 247.79 416.96 248.13"/><polyline class="cls-7" points="416.96 248.12 417.05 248.5 417.17 248.8 417.34 249.09 417.51 249.34"/><polyline class="cls-7" points="417.51 249.34 417.72 249.6 417.97 249.85 418.22 250.06 418.56 250.35 418.94 250.56"/><line class="cls-7" x1="418.94" y1="250.56" x2="419.36" y2="250.82"/><line class="cls-7" x1="419.36" y1="250.81" x2="419.95" y2="251.07"/><line class="cls-7" x1="419.95" y1="251.07" x2="420.54" y2="251.23"/><polyline class="cls-7" points="420.54 251.24 421.17 251.36 421.8 251.45 422.43 251.45"/><line class="cls-7" x1="422.43" y1="251.45" x2="423.02" y2="251.36"/><polyline class="cls-7" points="423.02 251.36 423.65 251.24 424.24 251.07"/><line class="cls-7" x1="424.24" y1="251.07" x2="424.7" y2="250.86"/><polyline class="cls-7" points="424.7 250.86 425.16 250.65 425.58 250.35 426 250.06 426.3 249.81 426.55 249.55"/><line class="cls-7" x1="426.55" y1="249.55" x2="426.76" y2="249.22"/><polyline class="cls-7" points="426.76 249.22 426.93 248.92 427.1 248.59 427.22 248.25 427.31 247.91 427.35 247.53 427.35 247.2 427.35 246.82 427.26 246.48 427.18 246.11 427.05 245.77 426.89 245.47 426.72 245.14"/><line class="cls-7" x1="426.72" y1="245.14" x2="426.51" y2="244.89"/><polyline class="cls-7" points="426.51 244.89 426.25 244.59 426 244.38 425.62 244.13 425.24 243.88 424.82 243.67 424.24 243.41"/><polyline class="cls-7" points="424.24 243.41 423.65 243.2 423.02 243.08 422.39 243.04"/><polyline class="cls-7" points="422.39 243.04 421.76 243.04 421.13 243.08 420.54 243.21"/><line class="cls-7" x1="420.54" y1="243.2" x2="419.91" y2="243.41"/><polyline class="cls-7" points="419.9 243.41 419.48 243.58 419.02 243.84"/><polyline class="cls-7" points="419.02 243.84 418.6 244.09 418.22 244.38"/><path class="cls-7" d="M421.59,246.69v0a.55.55,0,1,0,.54-.53A.53.53,0,0,0,421.59,246.72Z"/><path class="cls-7" d="M421.8,246.69v0a.32.32,0,1,0,.31-.31A.31.31,0,0,0,421.8,246.71Z"/><line class="cls-7" x1="418.81" y1="245.18" x2="418.64" y2="245.31"/><polyline class="cls-7" points="418.64 245.31 418.48 245.52 418.31 245.69"/><polyline class="cls-7" points="418.31 245.69 418.18 245.9 418.06 246.15 417.97 246.36 417.93 246.61 417.85 246.86 417.85 247.12 417.85 247.37 417.85 247.62 417.93 247.87"/><polyline class="cls-7" points="417.93 247.87 417.97 248.12 418.1 248.34"/><line class="cls-7" x1="418.1" y1="248.33" x2="418.18" y2="248.54"/><line class="cls-7" x1="418.18" y1="248.54" x2="418.35" y2="248.75"/><polyline class="cls-7" points="418.35 248.75 418.48 248.97 418.64 249.13"/><line class="cls-7" x1="418.64" y1="249.13" x2="418.81" y2="249.3"/><polyline class="cls-7" points="418.81 249.3 419.11 249.51 419.44 249.72 419.86 249.93 420.37 250.14"/><line class="cls-7" x1="420.37" y1="250.14" x2="420.83" y2="250.27"/><line class="cls-7" x1="420.83" y1="250.27" x2="421.33" y2="250.39"/><line class="cls-7" x1="421.33" y1="250.39" x2="421.84" y2="250.44"/><line class="cls-7" x1="421.84" y1="250.44" x2="422.34" y2="250.44"/><line class="cls-7" x1="422.34" y1="250.44" x2="422.85" y2="250.39"/><line class="cls-7" x1="422.85" y1="250.39" x2="423.31" y2="250.31"/><line class="cls-7" x1="423.31" y1="250.31" x2="423.81" y2="250.14"/><line class="cls-7" x1="423.82" y1="250.14" x2="424.28" y2="249.97"/><line class="cls-7" x1="424.28" y1="249.97" x2="424.66" y2="249.76"/><line class="cls-7" x1="424.66" y1="249.76" x2="425.03" y2="249.55"/><line class="cls-7" x1="425.03" y1="249.55" x2="425.37" y2="249.3"/><polyline class="cls-7" points="425.37 249.3 425.5 249.18 425.62 249.05 425.79 248.84 425.96 248.67"/><polyline class="cls-7" points="425.96 248.67 426.09 248.42 426.17 248.21 426.25 247.96"/><polyline class="cls-7" points="426.25 247.96 426.34 247.7 426.34 247.45"/><polyline class="cls-7" points="426.34 247.45 426.38 247.2 426.34 246.95 426.3 246.69 426.25 246.44 426.17 246.19"/><polyline class="cls-7" points="426.17 246.19 426.04 245.98 425.92 245.73"/><polyline class="cls-7" points="425.92 245.73 425.75 245.52 425.58 245.35"/><polyline class="cls-7" points="425.58 245.35 425.37 245.18 425.08 244.93"/><polyline class="cls-7" points="425.08 244.93 424.74 244.72 424.32 244.51"/><polyline class="cls-7" points="424.32 244.51 423.82 244.3 423.35 244.17"/><line class="cls-7" x1="423.35" y1="244.17" x2="422.85" y2="244.09"/><line class="cls-7" x1="422.85" y1="244.09" x2="422.34" y2="244"/><polyline class="cls-7" points="422.34 244 421.84 244 421.33 244.09 420.83 244.17"/><line class="cls-7" x1="420.83" y1="244.17" x2="420.37" y2="244.3"/><line class="cls-7" x1="420.37" y1="244.3" x2="419.91" y2="244.51"/><polyline class="cls-7" points="419.9 244.51 419.53 244.68 419.15 244.93"/><line class="cls-7" x1="419.15" y1="244.93" x2="418.81" y2="245.18"/><path class="cls-7" d="M420.49,243.62a.42.42,0,0,0,.42.42.41.41,0,0,0,.42-.42.42.42,0,0,0-.42-.42A.42.42,0,0,0,420.49,243.62Z"/><line class="cls-7" x1="421.71" y1="243.29" x2="421.71" y2="245.73"/><line class="cls-7" x1="421.71" y1="245.73" x2="422.51" y2="245.73"/><polyline class="cls-7" points="422.51 245.73 422.51 243.29 421.71 243.29"/><path class="cls-7" d="M422.81,243.62v0a.44.44,0,0,0,.44.44.45.45,0,1,0-.44-.47Z"/></g></g></svg>