<svg id="图层_1" data-name="图层 1" xmlns="http://www.w3.org/2000/svg" viewBox="0 0 1152 576"><defs><style>.cls-1{font-size:6.5px;fill:#0b6190;font-family:CenturyGothic, Century Gothic;}.cls-2,.cls-3{fill:#e8e2e1;}.cls-3,.cls-8{fill-rule:evenodd;}.cls-4,.cls-6,.cls-7{fill:none;stroke:#0b6190;stroke-linejoin:bevel;}.cls-4,.cls-7{stroke-width:0.24px;}.cls-5,.cls-8{fill:#fff;}.cls-6,.cls-7{stroke-linecap:round;}.cls-6{stroke-width:0.69px;}</style></defs><title>Laundry Sink</title><g id="OPT_LAUNDRY_SINK" data-name="OPT LAUNDRY SINK"><text class="cls-1" transform="translate(413.5 270.44)"><tspan xml:space="preserve"> OPT. </tspan></text><polygon class="cls-2" points="413.68 264.48 413.73 264.52 413.73 264.56 413.77 264.56 413.81 264.6 413.85 264.6 413.68 264.44 413.68 264.48"/><polyline class="cls-3" points="414.65 259.3 413.68 253.04 422.09 253.33 418.18 256.44"/><polygon class="cls-2" points="413.68 264.44 413.85 264.6 414.65 259.31 413.68 253.04 413.68 264.44"/><polyline class="cls-3" points="418.18 262.16 413.85 264.6 414.65 259.31"/><polyline class="cls-3" points="418.27 262.25 413.85 264.6 418.18 262.16"/><polyline class="cls-3" points="418.98 262.67 413.85 264.6 418.26 262.25"/><polyline class="cls-3" points="419.69 263.05 413.85 264.6 418.98 262.67"/><polyline class="cls-3" points="420.45 263.3 413.85 264.6 419.69 263.05"/><polyline class="cls-3" points="421.25 263.47 413.85 264.6 420.45 263.3"/><polyline class="cls-3" points="413.85 264.6 421.25 263.47 422.09 263.51 429.95 264.6"/><polyline class="cls-3" points="422.89 263.47 429.95 264.6 422.09 263.51"/><polyline class="cls-3" points="423.69 263.3 429.95 264.6 422.89 263.47"/><polyline class="cls-3" points="424.45 263.05 429.95 264.6 423.69 263.3"/><polyline class="cls-3" points="425.2 262.67 429.95 264.6 424.45 263.05"/><polyline class="cls-3" points="425.88 262.25 429.95 264.6 425.2 262.67"/><polyline class="cls-3" points="425.96 262.16 429.95 264.6 425.88 262.25"/><polyline class="cls-3" points="429.54 259.3 429.95 264.6 425.96 262.16"/><polyline class="cls-3" points="422.09 253.33 429.95 253.04 429.54 259.3 425.96 256.44"/><polyline class="cls-3" points="425.96 262.16 426.25 261.87 429.53 259.31"/><polyline class="cls-3" points="426.59 261.53 429.53 259.31 426.25 261.87"/><polyline class="cls-3" points="426.84 261.11 429.53 259.31 426.59 261.53"/><polyline class="cls-3" points="427.05 260.69 429.53 259.31 426.84 261.11"/><polyline class="cls-3" points="427.22 260.23 429.53 259.31 427.05 260.69"/><polygon class="cls-2" points="427.31 259.77 427.22 260.23 429.53 259.3 427.31 259.77"/><polygon class="cls-2" points="427.35 259.31 427.31 259.77 429.53 259.31 427.35 259.31"/><polygon class="cls-2" points="427.35 259.31 429.53 259.31 427.31 258.84 427.35 259.31"/><polygon class="cls-2" points="427.31 258.84 429.53 259.31 427.22 258.38 427.31 258.84"/><polyline class="cls-3" points="427.05 257.92 429.53 259.31 427.22 258.38"/><polyline class="cls-3" points="426.84 257.5 429.53 259.31 427.05 257.92"/><polyline class="cls-3" points="426.59 257.08 429.53 259.31 426.84 257.5"/><polyline class="cls-3" points="426.25 256.74 429.53 259.3 426.59 257.08"/><polyline class="cls-3" points="429.54 259.3 426.25 256.74 425.96 256.44"/><polyline class="cls-3" points="418.18 256.44 417.89 256.74 414.65 259.3"/><polyline class="cls-3" points="417.55 257.08 414.65 259.31 417.89 256.74"/><polyline class="cls-3" points="417.3 257.5 414.65 259.31 417.55 257.08"/><polyline class="cls-3" points="417.09 257.92 414.65 259.31 417.3 257.5"/><polyline class="cls-3" points="416.96 258.38 414.65 259.31 417.09 257.92"/><polygon class="cls-2" points="414.65 259.31 416.83 258.84 416.96 258.38 414.65 259.31"/><polygon class="cls-2" points="414.65 259.31 416.83 259.31 416.83 258.84 414.65 259.31"/><polygon class="cls-2" points="414.65 259.31 416.83 259.77 416.83 259.31 414.65 259.31"/><polygon class="cls-2" points="416.96 260.23 416.83 259.77 414.65 259.31 416.96 260.23"/><polyline class="cls-3" points="417.09 260.69 414.65 259.31 416.96 260.23"/><polyline class="cls-3" points="417.3 261.11 414.65 259.31 417.09 260.69"/><polyline class="cls-3" points="417.55 261.53 414.65 259.31 417.3 261.11"/><polyline class="cls-3" points="417.89 261.87 414.65 259.31 417.55 261.53"/><polyline class="cls-3" points="414.65 259.3 417.89 261.87 418.18 262.16"/><path class="cls-2" d="M426,256.45l-.08-.05Z"/><polyline class="cls-3" points="425.88 256.4 425.2 255.94 422.09 253.34"/><polyline class="cls-3" points="424.45 255.56 422.09 253.33 425.2 255.94"/><polyline class="cls-3" points="423.69 255.31 422.09 253.33 424.45 255.56"/><polyline class="cls-3" points="422.89 255.14 422.09 253.33 423.69 255.31"/><polygon class="cls-2" points="422.09 255.1 422.89 255.14 422.09 253.33 422.09 255.1"/><polygon class="cls-2" points="421.25 255.14 422.09 255.1 422.09 253.33 421.25 255.14"/><polyline class="cls-3" points="420.45 255.31 422.09 253.33 421.25 255.14"/><polyline class="cls-3" points="419.69 255.56 422.09 253.33 420.45 255.31"/><polyline class="cls-3" points="418.98 255.94 422.09 253.33 419.69 255.56"/><polyline class="cls-3" points="418.27 256.4 422.09 253.34 418.98 255.94"/><polyline class="cls-3" points="422.09 253.33 418.26 256.4 418.18 256.44"/><polyline class="cls-4" points="418.18 256.44 417.93 256.7 417.68 256.95"/><line class="cls-4" x1="417.68" y1="256.95" x2="417.47" y2="257.24"/><polyline class="cls-4" points="417.47 257.24 417.3 257.54 417.13 257.83 417 258.17 416.92 258.51"/><line class="cls-4" x1="416.92" y1="258.51" x2="416.84" y2="258.88"/><polyline class="cls-4" points="416.84 258.88 416.84 259.22 416.84 259.6 416.88 259.94 416.96 260.31"/><polyline class="cls-4" points="416.96 260.31 417.09 260.65 417.26 260.99"/><polyline class="cls-4" points="417.26 260.99 417.42 261.32 417.63 261.62 417.89 261.91 418.18 262.16 418.43 262.33"/><line class="cls-4" x1="418.43" y1="262.33" x2="418.98" y2="262.71"/><polyline class="cls-4" points="418.98 262.71 419.53 262.96 420.11 263.21 420.75 263.38"/><polyline class="cls-4" points="420.75 263.38 421.38 263.47 422.01 263.51"/><polyline class="cls-4" points="422.01 263.51 422.64 263.51 423.23 263.43"/><polyline class="cls-4" points="423.23 263.43 423.86 263.26 424.45 263.05"/><polyline class="cls-4" points="424.45 263.05 425.04 262.79 425.58 262.46"/><line class="cls-4" x1="425.58" y1="262.46" x2="425.96" y2="262.16"/><line class="cls-4" x1="425.96" y1="262.16" x2="426.25" y2="261.91"/><polyline class="cls-4" points="426.25 261.91 426.46 261.66 426.68 261.37 426.89 261.07 427.05 260.78"/><polyline class="cls-4" points="427.05 260.78 427.18 260.44 427.26 260.06 427.31 259.73 427.35 259.35 427.35 259.01"/><line class="cls-4" x1="427.35" y1="259.01" x2="427.26" y2="258.63"/><polyline class="cls-4" points="427.26 258.63 427.18 258.3 427.1 257.96"/><polyline class="cls-4" points="427.1 257.96 426.93 257.62 426.76 257.33 426.55 257.03 426.3 256.74 426.04 256.49 425.96 256.44 425.5 256.11 424.95 255.81"/><polyline class="cls-4" points="424.95 255.81 424.4 255.56 423.86 255.35"/><line class="cls-4" x1="423.86" y1="255.35" x2="423.23" y2="255.23"/><line class="cls-4" x1="423.23" y1="255.23" x2="422.6" y2="255.14"/><line class="cls-4" x1="422.6" y1="255.14" x2="421.97" y2="255.1"/><polyline class="cls-4" points="421.97 255.1 421.33 255.14 420.75 255.22 420.12 255.39"/><line class="cls-4" x1="420.11" y1="255.39" x2="419.53" y2="255.65"/><polyline class="cls-4" points="419.53 255.65 418.98 255.94 418.56 256.19"/><line class="cls-4" x1="418.56" y1="256.19" x2="418.18" y2="256.45"/><rect class="cls-5" x="414.19" y="253.04" width="15.77" height="11.06"/><line class="cls-6" x1="414.19" y1="260.73" x2="414.19" y2="258.84"/><line class="cls-6" x1="414.19" y1="256.95" x2="414.19" y2="255.06"/><line class="cls-6" x1="414.19" y1="264.1" x2="414.19" y2="262.5"/><line class="cls-6" x1="414.19" y1="253.04" x2="414.19" y2="254.64"/><line class="cls-7" x1="414.19" y1="264.1" x2="416.63" y2="264.1"/><line class="cls-7" x1="418.52" y1="264.1" x2="420.41" y2="264.1"/><line class="cls-7" x1="422.3" y1="264.1" x2="424.19" y2="264.1"/><line class="cls-7" x1="426.09" y1="264.1" x2="427.98" y2="264.1"/><line class="cls-6" x1="413.85" y1="264.6" x2="413.81" y2="264.6"/><line class="cls-6" x1="413.81" y1="264.6" x2="413.77" y2="264.56"/><polyline class="cls-6" points="413.77 264.56 413.73 264.56 413.73 264.52 413.68 264.52 413.68 264.48"/><line class="cls-6" x1="413.68" y1="264.48" x2="413.68" y2="264.44"/><line class="cls-6" x1="413.68" y1="264.43" x2="413.68" y2="253.04"/><polyline class="cls-7" points="413.85 264.6 429.95 264.6 429.95 252.75"/><polyline class="cls-7" points="418.18 256.44 417.93 256.7 417.68 256.95"/><line class="cls-7" x1="417.68" y1="256.95" x2="417.47" y2="257.24"/><polyline class="cls-7" points="417.47 257.24 417.3 257.54 417.13 257.83 417 258.17 416.92 258.51"/><line class="cls-7" x1="416.92" y1="258.51" x2="416.84" y2="258.88"/><polyline class="cls-7" points="416.84 258.88 416.84 259.22 416.84 259.6 416.88 259.94 416.96 260.31"/><polyline class="cls-7" points="416.96 260.31 417.09 260.65 417.26 260.99"/><polyline class="cls-7" points="417.26 260.99 417.42 261.32 417.63 261.62 417.89 261.91 418.18 262.16 418.43 262.33"/><line class="cls-7" x1="418.43" y1="262.33" x2="418.98" y2="262.71"/><polyline class="cls-7" points="418.98 262.71 419.53 262.96 420.11 263.21 420.75 263.38"/><polyline class="cls-7" points="420.75 263.38 421.38 263.47 422.01 263.51"/><polyline class="cls-7" points="422.01 263.51 422.64 263.51 423.23 263.43"/><polyline class="cls-7" points="423.23 263.43 423.86 263.26 424.45 263.05"/><polyline class="cls-7" points="424.45 263.05 425.04 262.79 425.58 262.46"/><line class="cls-7" x1="425.58" y1="262.46" x2="425.96" y2="262.16"/><line class="cls-7" x1="425.96" y1="262.16" x2="426.25" y2="261.91"/><polyline class="cls-7" points="426.25 261.91 426.46 261.66 426.68 261.37 426.89 261.07 427.05 260.78"/><polyline class="cls-7" points="427.05 260.78 427.18 260.44 427.26 260.06 427.31 259.73 427.35 259.35 427.35 259.01"/><line class="cls-7" x1="427.35" y1="259.01" x2="427.26" y2="258.63"/><polyline class="cls-7" points="427.26 258.63 427.18 258.3 427.1 257.96"/><polyline class="cls-7" points="427.1 257.96 426.93 257.62 426.76 257.33 426.55 257.03 426.3 256.74 426.04 256.49 425.96 256.44 425.5 256.11 424.95 255.81"/><polyline class="cls-7" points="424.95 255.81 424.4 255.56 423.86 255.35"/><line class="cls-7" x1="423.86" y1="255.35" x2="423.23" y2="255.23"/><line class="cls-7" x1="423.23" y1="255.23" x2="422.6" y2="255.14"/><line class="cls-7" x1="422.6" y1="255.14" x2="421.97" y2="255.1"/><polyline class="cls-7" points="421.97 255.1 421.33 255.14 420.75 255.22 420.12 255.39"/><line class="cls-7" x1="420.11" y1="255.39" x2="419.53" y2="255.65"/><polyline class="cls-7" points="419.53 255.65 418.98 255.94 418.56 256.19"/><line class="cls-7" x1="418.56" y1="256.19" x2="418.18" y2="256.45"/><path class="cls-8" d="M418.22,262.12v-5.67l-.33.25a3.67,3.67,0,0,0-.3,4.79l.3.38"/><path class="cls-8" d="M426,262.12h-7.78l.09.09a6.23,6.23,0,0,0,6.89.46l.68-.46"/><path class="cls-8" d="M426,256.45v5.67l.3-.25a3.61,3.61,0,0,0,.29-4.79l-.29-.38"/><path class="cls-8" d="M418.22,256.45H426l-.12-.09a6.34,6.34,0,0,0-6.9-.46l-.67.46"/><rect class="cls-5" x="418.22" y="256.45" width="7.78" height="5.68"/><line class="cls-7" x1="418.22" y1="256.45" x2="417.97" y2="256.66"/><polyline class="cls-7" points="417.97 256.65 417.72 256.91 417.51 257.16"/><polyline class="cls-7" points="417.51 257.16 417.34 257.45 417.17 257.75"/><polyline class="cls-7" points="417.17 257.75 417.05 258.09 416.96 258.42"/><polyline class="cls-7" points="416.96 258.42 416.88 258.76 416.83 259.14 416.83 259.47"/><polyline class="cls-7" points="416.84 259.47 416.88 259.85 416.96 260.19"/><polyline class="cls-7" points="416.96 260.19 417.05 260.56 417.17 260.86 417.34 261.15 417.51 261.41"/><polyline class="cls-7" points="417.51 261.41 417.72 261.66 417.97 261.91 418.22 262.12 418.56 262.42 418.94 262.63"/><line class="cls-7" x1="418.94" y1="262.63" x2="419.36" y2="262.88"/><line class="cls-7" x1="419.36" y1="262.88" x2="419.95" y2="263.13"/><line class="cls-7" x1="419.95" y1="263.13" x2="420.54" y2="263.3"/><polyline class="cls-7" points="420.54 263.3 421.17 263.43 421.8 263.51 422.43 263.51"/><line class="cls-7" x1="422.43" y1="263.51" x2="423.02" y2="263.43"/><polyline class="cls-7" points="423.02 263.43 423.65 263.3 424.24 263.13"/><line class="cls-7" x1="424.24" y1="263.13" x2="424.7" y2="262.92"/><polyline class="cls-7" points="424.7 262.92 425.16 262.71 425.58 262.42 426 262.12 426.3 261.87 426.55 261.62"/><line class="cls-7" x1="426.55" y1="261.62" x2="426.76" y2="261.28"/><polyline class="cls-7" points="426.76 261.28 426.93 260.99 427.1 260.65 427.22 260.31 427.31 259.98 427.35 259.6 427.35 259.26 427.35 258.88 427.26 258.55 427.18 258.17 427.05 257.83 426.89 257.54 426.72 257.2"/><line class="cls-7" x1="426.72" y1="257.2" x2="426.51" y2="256.95"/><polyline class="cls-7" points="426.51 256.95 426.25 256.65 426 256.44 425.62 256.19 425.24 255.94 424.82 255.73 424.24 255.48"/><polyline class="cls-7" points="424.24 255.48 423.65 255.27 423.02 255.14 422.39 255.1"/><polyline class="cls-7" points="422.39 255.1 421.76 255.1 421.13 255.14 420.54 255.27"/><line class="cls-7" x1="420.54" y1="255.27" x2="419.91" y2="255.48"/><polyline class="cls-7" points="419.9 255.48 419.48 255.65 419.02 255.9"/><polyline class="cls-7" points="419.02 255.9 418.6 256.15 418.22 256.44"/><path class="cls-7" d="M421.59,258.76v0a.55.55,0,0,0,1.09,0,.55.55,0,0,0-1.09,0Z"/><path class="cls-7" d="M421.8,258.76v0a.32.32,0,1,0,.63,0,.32.32,0,0,0-.63,0Z"/><line class="cls-7" x1="418.81" y1="257.24" x2="418.64" y2="257.37"/><polyline class="cls-7" points="418.64 257.37 418.48 257.58 418.31 257.75"/><polyline class="cls-7" points="418.31 257.75 418.18 257.96 418.06 258.21 417.97 258.42 417.93 258.67 417.85 258.93 417.85 259.18 417.85 259.43 417.85 259.68 417.93 259.94"/><polyline class="cls-7" points="417.93 259.94 417.97 260.19 418.1 260.4"/><line class="cls-7" x1="418.1" y1="260.4" x2="418.18" y2="260.61"/><line class="cls-7" x1="418.18" y1="260.61" x2="418.35" y2="260.82"/><polyline class="cls-7" points="418.35 260.82 418.48 261.03 418.64 261.2"/><line class="cls-7" x1="418.64" y1="261.2" x2="418.81" y2="261.36"/><polyline class="cls-7" points="418.81 261.37 419.11 261.58 419.44 261.79 419.86 262 420.37 262.21"/><line class="cls-7" x1="420.37" y1="262.21" x2="420.83" y2="262.33"/><line class="cls-7" x1="420.83" y1="262.33" x2="421.33" y2="262.46"/><line class="cls-7" x1="421.33" y1="262.46" x2="421.84" y2="262.5"/><line class="cls-7" x1="421.84" y1="262.5" x2="422.34" y2="262.5"/><line class="cls-7" x1="422.34" y1="262.5" x2="422.85" y2="262.46"/><line class="cls-7" x1="422.85" y1="262.46" x2="423.31" y2="262.37"/><line class="cls-7" x1="423.31" y1="262.37" x2="423.81" y2="262.21"/><line class="cls-7" x1="423.82" y1="262.21" x2="424.28" y2="262.04"/><line class="cls-7" x1="424.28" y1="262.04" x2="424.66" y2="261.83"/><line class="cls-7" x1="424.66" y1="261.83" x2="425.03" y2="261.62"/><line class="cls-7" x1="425.03" y1="261.62" x2="425.37" y2="261.37"/><polyline class="cls-7" points="425.37 261.37 425.5 261.24 425.62 261.11 425.79 260.9 425.96 260.73"/><polyline class="cls-7" points="425.96 260.73 426.09 260.48 426.17 260.27 426.25 260.02"/><polyline class="cls-7" points="426.25 260.02 426.34 259.77 426.34 259.51"/><polyline class="cls-7" points="426.34 259.51 426.38 259.26 426.34 259.01 426.3 258.76 426.25 258.5 426.17 258.25"/><polyline class="cls-7" points="426.17 258.25 426.04 258.04 425.92 257.79"/><polyline class="cls-7" points="425.92 257.79 425.75 257.58 425.58 257.41"/><polyline class="cls-7" points="425.58 257.41 425.37 257.24 425.08 256.99"/><polyline class="cls-7" points="425.08 256.99 424.74 256.78 424.32 256.57"/><polyline class="cls-7" points="424.32 256.57 423.82 256.36 423.35 256.24"/><line class="cls-7" x1="423.35" y1="256.24" x2="422.85" y2="256.15"/><line class="cls-7" x1="422.85" y1="256.15" x2="422.34" y2="256.07"/><polyline class="cls-7" points="422.34 256.07 421.84 256.07 421.33 256.15 420.83 256.23"/><line class="cls-7" x1="420.83" y1="256.24" x2="420.37" y2="256.36"/><line class="cls-7" x1="420.37" y1="256.36" x2="419.91" y2="256.57"/><polyline class="cls-7" points="419.9 256.57 419.53 256.74 419.15 256.99"/><line class="cls-7" x1="419.15" y1="256.99" x2="418.81" y2="257.24"/><path class="cls-7" d="M420.49,255.69a.42.42,0,0,0,.42.42.42.42,0,1,0,0-.84A.42.42,0,0,0,420.49,255.69Z"/><line class="cls-7" x1="421.71" y1="255.35" x2="421.71" y2="257.79"/><line class="cls-7" x1="421.71" y1="257.79" x2="422.51" y2="257.79"/><polyline class="cls-7" points="422.51 257.79 422.51 255.35 421.71 255.35"/><path class="cls-7" d="M422.81,255.69v0a.44.44,0,0,0,.44.44.44.44,0,1,0,0-.88A.43.43,0,0,0,422.81,255.69Z"/></g></svg>