<svg id="图层_1" data-name="图层 1" xmlns="http://www.w3.org/2000/svg" xmlns:xlink="http://www.w3.org/1999/xlink" viewBox="0 0 1152 576"><defs><style>.cls-1,.cls-22,.cls-23,.cls-24,.cls-25,.cls-27,.cls-4,.cls-6{fill:none;}.cls-18,.cls-2,.cls-28{font-size:6.5px;font-family:CenturyGothic, Century Gothic;}.cls-19,.cls-2,.cls-21{fill:#060001;}.cls-3{letter-spacing:0em;}.cls-22,.cls-23,.cls-24,.cls-4,.cls-6{stroke:#060001;}.cls-22,.cls-23,.cls-24,.cls-25,.cls-27,.cls-4,.cls-6{stroke-linecap:round;stroke-linejoin:bevel;}.cls-4{stroke-width:0.24px;}.cls-5,.cls-8{fill:#fff;}.cls-21,.cls-5{fill-rule:evenodd;}.cls-6{stroke-width:0.69px;}.cls-7{clip-path:url(#clip-path);}.cls-9{letter-spacing:0em;}.cls-10{letter-spacing:0em;}.cls-11{letter-spacing:0.01em;}.cls-12{letter-spacing:-0.01em;}.cls-13{letter-spacing:0.01em;}.cls-14{letter-spacing:0em;}.cls-15{letter-spacing:0em;}.cls-16{letter-spacing:0em;}.cls-17{letter-spacing:-0.01em;}.cls-18{fill:#221714;}.cls-20{fill:#534c47;}.cls-22,.cls-27{stroke-width:0.93px;}.cls-23{stroke-width:1.1px;}.cls-24,.cls-25{stroke-width:0.46px;}.cls-25,.cls-27{stroke:#040000;}.cls-26,.cls-28{fill:#040000;}.cls-29{letter-spacing:0.01em;}.cls-30{letter-spacing:-0.01em;}.cls-31{letter-spacing:0.01em;}.cls-32{letter-spacing:-0.01em;}</style><clipPath id="clip-path"><path class="cls-1" d="M441.59,302.42a.36.36,0,0,1-.16.11V323.4a.33.33,0,0,1,.17,0h5V302.42Z"/></clipPath></defs><title>LOWER FLOOR PLAN</title><g id="LOWER_FLOOR_PLAN" data-name="LOWER FLOOR PLAN"><text class="cls-2" transform="translate(476.82 339.59)"><tspan class="cls-3">U</tspan><tspan x="4.28" y="0">P</tspan></text><line class="cls-4" x1="473.65" y1="337.64" x2="446.1" y2="337.64"/><polyline class="cls-5" points="446.1 337.64 449.79 336.58 449.45 338.7"/><polyline class="cls-4" points="446.1 337.64 449.79 336.58 449.44 338.7"/><line class="cls-4" x1="449.45" y1="338.7" x2="446.1" y2="337.64"/><polyline class="cls-6" points="441.31 349.38 418 349.38 418 302.21"/><g class="cls-7"><rect class="cls-8" x="441.43" y="302.42" width="5.18" height="20.98"/></g><rect class="cls-8" x="682.18" y="366.12" width="32.42" height="5.98"/><text class="cls-2" transform="translate(682.39 371.04)">U<tspan class="cls-9" x="4.26" y="0">N</tspan><tspan x="9.07" y="0">EX</tspan><tspan class="cls-10" x="16.51" y="0">C</tspan><tspan class="cls-11" x="21.8" y="0">A</tspan><tspan class="cls-12" x="26.68" y="0">V</tspan><tspan class="cls-13" x="31.19" y="0">A</tspan><tspan class="cls-14" x="36.06" y="0">T</tspan><tspan class="cls-15" x="38.8" y="0">E</tspan><tspan x="42.28" y="0">D</tspan></text><text class="cls-2" transform="translate(507.34 323.4)"><tspan class="cls-16">H</tspan><tspan class="cls-11" x="4.45" y="0">A</tspan><tspan class="cls-17" x="9.32" y="0">L</tspan><tspan x="12.28" y="0">L</tspan></text><text class="cls-18" transform="translate(449.31 467.44)">UNEXCAVATED</text><text class="cls-18" transform="translate(680.82 363.51)">UNDER GARAGE</text><path class="cls-19" d="M418,301.86h23.31a.35.35,0,0,1,0,.7H418a.35.35,0,0,1,0-.7"/><polygon class="cls-19" points="441.43 302.21 441.43 325.69 441.31 325.81 441.19 325.69 441.19 302.21 441.31 302.09 441.43 302.21"/><line class="cls-6" x1="441.31" y1="325.69" x2="441.31" y2="325.94"/><line class="cls-4" x1="441.31" y1="325.94" x2="441.31" y2="349.38"/><path class="cls-20" d="M446.61,302.42h-5a.37.37,0,0,0,.06-.21h5v.21"/><path class="cls-20" d="M446.61,323.82h-4.54a.47.47,0,0,0-.47-.46.33.33,0,0,0-.17,0,.33.33,0,0,1,.17,0h5v.46"/><path class="cls-20" d="M442.07,323.82h-.64v-.42a.33.33,0,0,1,.17,0,.47.47,0,0,1,.47.46"/><path class="cls-20" d="M441.43,302.53v-.32h.22a.37.37,0,0,1-.06.21.36.36,0,0,1-.16.11"/><rect class="cls-20" x="441.31" y="302.21" width="0.12" height="21.62"/><rect class="cls-8" x="446.61" y="302.42" width="5.3" height="20.94"/><rect class="cls-20" x="446.61" y="302.21" width="5.3" height="0.21"/><rect class="cls-20" x="446.61" y="323.36" width="5.3" height="0.46"/><rect class="cls-8" x="451.9" y="302.42" width="5.3" height="20.94"/><rect class="cls-20" x="451.9" y="302.21" width="5.3" height="0.21"/><rect class="cls-20" x="451.9" y="323.36" width="5.3" height="0.46"/><rect class="cls-8" x="457.2" y="302.42" width="5.3" height="20.94"/><rect class="cls-20" x="457.2" y="302.21" width="5.3" height="0.21"/><rect class="cls-20" x="457.2" y="323.36" width="5.3" height="0.46"/><rect class="cls-8" x="462.5" y="302.42" width="5.3" height="20.94"/><rect class="cls-20" x="462.5" y="302.21" width="5.3" height="0.21"/><rect class="cls-20" x="462.5" y="323.36" width="5.3" height="0.46"/><rect class="cls-8" x="467.8" y="302.42" width="5.3" height="20.94"/><rect class="cls-20" x="467.8" y="302.21" width="5.3" height="0.21"/><rect class="cls-20" x="467.8" y="323.36" width="5.3" height="0.46"/><line class="cls-6" x1="446.61" y1="302.21" x2="441.31" y2="302.21"/><line class="cls-4" x1="441.31" y1="302.21" x2="441.31" y2="323.82"/><line class="cls-6" x1="441.31" y1="323.82" x2="446.6" y2="323.82"/><line class="cls-6" x1="451.9" y1="302.21" x2="446.61" y2="302.21"/><line class="cls-4" x1="446.61" y1="302.21" x2="446.61" y2="323.82"/><line class="cls-6" x1="446.61" y1="323.82" x2="451.9" y2="323.82"/><line class="cls-6" x1="457.2" y1="302.21" x2="451.9" y2="302.21"/><line class="cls-4" x1="451.9" y1="302.21" x2="451.9" y2="323.82"/><line class="cls-6" x1="451.9" y1="323.82" x2="457.2" y2="323.82"/><line class="cls-6" x1="462.5" y1="302.21" x2="457.2" y2="302.21"/><line class="cls-4" x1="457.2" y1="302.21" x2="457.2" y2="323.82"/><line class="cls-6" x1="457.2" y1="323.82" x2="462.5" y2="323.82"/><line class="cls-6" x1="467.8" y1="302.21" x2="462.5" y2="302.21"/><line class="cls-4" x1="462.5" y1="302.21" x2="462.5" y2="323.82"/><line class="cls-6" x1="462.5" y1="323.82" x2="467.8" y2="323.82"/><line class="cls-6" x1="473.1" y1="302.21" x2="467.8" y2="302.21"/><line class="cls-4" x1="467.8" y1="302.21" x2="467.8" y2="323.82"/><line class="cls-6" x1="467.8" y1="323.82" x2="473.1" y2="323.82"/><line class="cls-4" x1="473.1" y1="302.21" x2="473.1" y2="323.82"/><line class="cls-4" x1="473.1" y1="307.51" x2="473.1" y2="318.1"/><g id="lower_floor_plan墙体" data-name="lower floor plan墙体"><rect class="cls-19" x="540.66" y="453.23" width="4.24" height="28.61"/><rect class="cls-19" x="753.39" y="436.27" width="7.67" height="4.24"/><rect class="cls-19" x="627.55" y="436.27" width="9.79" height="4.24"/><rect class="cls-19" x="498.27" y="442.63" width="40.27" height="4.24"/><polyline class="cls-21" points="540.66 446.61 540.66 446.87 538.54 446.87 538.54 442.63"/><rect class="cls-19" x="538.54" y="442.63" width="4.24" height="10.6"/><rect class="cls-19" x="627.55" y="297.72" width="133.51" height="4.24"/><rect class="cls-19" x="411.38" y="373.01" width="4.24" height="108.82"/><rect class="cls-19" x="411.38" y="268.85" width="4.24" height="104.9"/><rect class="cls-19" x="411.38" y="179.84" width="4.24" height="89"/><rect class="cls-19" x="623.31" y="297.72" width="4.24" height="155.51"/><rect class="cls-19" x="542.78" y="448.99" width="80.53" height="4.24"/><rect class="cls-19" x="761.06" y="179.84" width="4.24" height="260.67"/><rect class="cls-19" x="415.63" y="179.84" width="50.75" height="4.24"/><rect class="cls-19" x="465.85" y="179.84" width="138.39" height="4.24"/><rect class="cls-19" x="602.28" y="179.86" width="159.83" height="4.22"/><rect class="cls-19" x="415.62" y="477.59" width="125.04" height="4.24"/><rect class="cls-19" x="415.88" y="181.02" width="1.87" height="87.82"/><rect class="cls-19" x="415.88" y="268.85" width="1.87" height="104.9"/><rect class="cls-19" x="415.88" y="373.01" width="1.87" height="66.65"/><rect class="cls-19" x="417.74" y="435.21" width="80.79" height="1.87"/><rect class="cls-19" x="542.78" y="446.87" width="78.41" height="1.87"/><rect class="cls-19" x="621.19" y="295.6" width="1.86" height="153.13"/><rect class="cls-19" x="623.05" y="295.6" width="135.89" height="1.86"/><rect class="cls-19" x="758.94" y="184.34" width="1.86" height="113.13"/><rect class="cls-19" x="605.6" y="184.34" width="155.82" height="1.87"/><rect class="cls-19" x="465.85" y="184.46" width="142.88" height="1.82"/><rect class="cls-19" x="417.74" y="184.46" width="48.63" height="1.82"/><rect class="cls-19" x="417.74" y="349.64" width="89.01" height="2.92"/><rect class="cls-19" x="417.74" y="299.03" width="58.83" height="2.92"/><rect class="cls-19" x="474.71" y="301.95" width="1.87" height="3.14"/><rect class="cls-19" x="474.71" y="320.69" width="1.87" height="5"/><rect class="cls-19" x="441.6" y="323.82" width="33.1" height="1.87"/><rect class="cls-19" x="415.62" y="437.33" width="78.41" height="4.24"/><rect class="cls-19" x="494.03" y="437.33" width="4.24" height="9.54"/><rect class="cls-19" x="498.53" y="435.21" width="1.86" height="7.16"/><rect class="cls-19" x="500.39" y="440.51" width="42.64" height="1.87"/><line class="cls-22" x1="544.9" y1="481.83" x2="544.9" y2="453.23"/><line class="cls-22" x1="542.78" y1="453.22" x2="540.66" y2="453.22"/><polyline class="cls-22" points="540.66 481.83 544.9 481.83 540.66 481.83"/><line class="cls-22" x1="540.66" y1="453.22" x2="540.66" y2="477.6"/><line class="cls-22" x1="753.38" y1="440.51" x2="761.06" y2="440.51"/><line class="cls-22" x1="627.54" y1="440.51" x2="637.34" y2="440.51"/><line class="cls-22" x1="753.38" y1="440.51" x2="753.38" y2="436.27"/><line class="cls-22" x1="637.34" y1="440.51" x2="637.34" y2="436.27"/><line class="cls-22" x1="761.06" y1="436.27" x2="753.39" y2="436.27"/><line class="cls-22" x1="637.34" y1="436.27" x2="627.55" y2="436.27"/><line class="cls-22" x1="498.27" y1="446.87" x2="538.54" y2="446.87"/><line class="cls-22" x1="540.66" y1="446.61" x2="540.66" y2="442.63"/><line class="cls-22" x1="538.54" y1="442.63" x2="498.27" y2="442.63"/><polyline class="cls-22" points="538.54 446.87 538.54 453.23 542.78 453.23"/><line class="cls-22" x1="538.54" y1="453.22" x2="542.78" y2="453.22"/><line class="cls-22" x1="542.78" y1="442.63" x2="538.54" y2="442.63"/><line class="cls-22" x1="542.78" y1="448.99" x2="542.78" y2="442.63"/><line class="cls-22" x1="627.54" y1="301.95" x2="761.06" y2="301.95"/><line class="cls-22" x1="761.06" y1="297.72" x2="627.55" y2="297.72"/><line class="cls-22" x1="411.38" y1="373.01" x2="411.38" y2="481.83"/><line class="cls-22" x1="411.38" y1="268.85" x2="411.38" y2="373.75"/><line class="cls-22" x1="411.38" y1="179.84" x2="411.38" y2="268.85"/><line class="cls-22" x1="411.38" y1="481.83" x2="415.62" y2="481.83"/><line class="cls-22" x1="411.38" y1="481.83" x2="415.62" y2="481.83"/><polyline class="cls-22" points="415.62 179.84 411.38 179.84 415.62 179.84"/><line class="cls-22" x1="415.62" y1="477.6" x2="415.62" y2="441.57"/><line class="cls-22" x1="415.62" y1="440.33" x2="415.62" y2="373.02"/><line class="cls-22" x1="415.62" y1="373.75" x2="415.62" y2="268.85"/><line class="cls-22" x1="415.62" y1="268.85" x2="415.62" y2="180.03"/><line class="cls-22" x1="627.54" y1="453.22" x2="627.54" y2="440.51"/><line class="cls-22" x1="627.54" y1="436.27" x2="627.54" y2="301.95"/><line class="cls-22" x1="627.54" y1="297.72" x2="623.31" y2="297.72"/><line class="cls-22" x1="627.54" y1="297.72" x2="623.31" y2="297.72"/><line class="cls-22" x1="623.31" y1="453.22" x2="627.55" y2="453.22"/><line class="cls-22" x1="627.54" y1="453.22" x2="623.31" y2="453.22"/><line class="cls-22" x1="623.31" y1="297.72" x2="623.31" y2="448.99"/><line class="cls-22" x1="544.9" y1="453.22" x2="623.31" y2="453.22"/><line class="cls-22" x1="623.31" y1="448.99" x2="542.78" y2="448.99"/><polyline class="cls-22" points="765.29 440.51 765.29 179.84 761.06 179.84"/><line class="cls-22" x1="765.29" y1="179.84" x2="761.06" y2="179.84"/><line class="cls-22" x1="761.06" y1="440.51" x2="765.3" y2="440.51"/><line class="cls-22" x1="765.29" y1="440.51" x2="761.06" y2="440.51"/><line class="cls-22" x1="761.06" y1="184.08" x2="761.06" y2="297.71"/><line class="cls-22" x1="761.06" y1="301.95" x2="761.06" y2="436.27"/><line class="cls-22" x1="466.37" y1="179.84" x2="415.62" y2="179.84"/><line class="cls-22" x1="675.94" y1="179.84" x2="465.85" y2="179.84"/><line class="cls-22" x1="415.63" y1="184.08" x2="466.38" y2="184.08"/><line class="cls-22" x1="465.85" y1="184.08" x2="604.23" y2="184.08"/><line class="cls-22" x1="761.06" y1="179.84" x2="674.17" y2="179.84"/><line class="cls-22" x1="674.17" y1="184.08" x2="761.06" y2="184.08"/><line class="cls-22" x1="415.62" y1="481.83" x2="540.66" y2="481.83"/><line class="cls-22" x1="540.66" y1="477.6" x2="415.62" y2="477.6"/><line class="cls-22" x1="417.74" y1="268.85" x2="417.74" y2="185.8"/><line class="cls-22" x1="417.74" y1="373.75" x2="417.74" y2="352.56"/><line class="cls-22" x1="417.74" y1="349.64" x2="417.74" y2="301.95"/><line class="cls-22" x1="417.74" y1="299.03" x2="417.74" y2="268.85"/><line class="cls-22" x1="417.74" y1="434.72" x2="417.74" y2="373.01"/><line class="cls-22" x1="417.74" y1="184.46" x2="415.88" y2="184.46"/><line class="cls-22" x1="415.88" y1="437.08" x2="417.74" y2="437.08"/><line class="cls-22" x1="415.88" y1="181.02" x2="415.88" y2="268.84"/><line class="cls-22" x1="415.88" y1="268.85" x2="415.88" y2="373.75"/><line class="cls-22" x1="415.88" y1="373.01" x2="415.88" y2="439.66"/><line class="cls-22" x1="498.03" y1="435.21" x2="489.54" y2="435.21"/><line class="cls-22" x1="489.8" y1="435.21" x2="417.74" y2="435.21"/><line class="cls-22" x1="417.74" y1="437.08" x2="498.53" y2="437.08"/><line class="cls-22" x1="621.19" y1="446.87" x2="544.9" y2="446.87"/><polyline class="cls-22" points="543.03 446.87 542.78 446.87 542.78 448.73"/><line class="cls-22" x1="542.78" y1="448.73" x2="621.19" y2="448.73"/><line class="cls-22" x1="621.19" y1="295.6" x2="621.19" y2="299.03"/><line class="cls-22" x1="621.19" y1="298.78" x2="621.19" y2="344.08"/><line class="cls-22" x1="621.19" y1="344.08" x2="621.19" y2="446.87"/><line class="cls-22" x1="621.19" y1="448.73" x2="623.05" y2="448.73"/><line class="cls-22" x1="623.05" y1="295.6" x2="621.19" y2="295.6"/><line class="cls-22" x1="623.05" y1="448.73" x2="623.05" y2="297.46"/><line class="cls-22" x1="758.94" y1="295.6" x2="669.67" y2="295.6"/><line class="cls-22" x1="669.67" y1="295.6" x2="623.14" y2="295.6"/><line class="cls-22" x1="623.05" y1="297.46" x2="758.94" y2="297.46"/><line class="cls-22" x1="758.94" y1="186.2" x2="758.94" y2="295.6"/><line class="cls-22" x1="758.94" y1="297.46" x2="760.8" y2="297.46"/><line class="cls-22" x1="760.8" y1="184.34" x2="758.94" y2="184.34"/><line class="cls-22" x1="760.8" y1="297.46" x2="760.8" y2="184.34"/><line class="cls-22" x1="669.68" y1="186.2" x2="758.94" y2="186.2"/><line class="cls-22" x1="758.94" y1="184.34" x2="669.67" y2="184.34"/><line class="cls-22" x1="669.68" y1="183.91" x2="667.81" y2="183.91"/><line class="cls-23" x1="418" y1="186.29" x2="672.81" y2="186.29"/><line class="cls-22" x1="417.74" y1="186.29" x2="466.37" y2="186.29"/><line class="cls-22" x1="668.74" y1="184.46" x2="465.85" y2="184.46"/><line class="cls-22" x1="466.37" y1="184.46" x2="417.74" y2="184.46"/><line class="cls-24" x1="588.34" y1="184.17" x2="588.34" y2="184.08"/><line class="cls-24" x1="590.71" y1="184.17" x2="590.71" y2="184.08"/><line class="cls-22" x1="506.75" y1="349.64" x2="417.74" y2="349.64"/><line class="cls-22" x1="506.75" y1="352.56" x2="506.75" y2="349.64"/><line class="cls-22" x1="417.74" y1="352.56" x2="506.75" y2="352.56"/><line class="cls-22" x1="476.57" y1="299.03" x2="417.74" y2="299.03"/><line class="cls-22" x1="476.57" y1="301.95" x2="476.57" y2="299.03"/><path class="cls-19" d="M417.74,301.49h57a.47.47,0,0,1,0,.93h-57a.47.47,0,0,1,0-.93"/><line class="cls-22" x1="476.57" y1="305.09" x2="476.57" y2="301.95"/><line class="cls-22" x1="476.57" y1="325.69" x2="476.57" y2="320.69"/><line class="cls-22" x1="474.71" y1="325.69" x2="476.57" y2="325.69"/><line class="cls-22" x1="474.71" y1="301.95" x2="474.71" y2="305.09"/><line class="cls-22" x1="474.71" y1="320.69" x2="474.71" y2="323.82"/><path class="cls-19" d="M474.71,324.29H441.6a.47.47,0,0,1,0-.93h33.11a.47.47,0,0,1,0,.93"/><path class="cls-19" d="M442.07,323.82v1.87a.47.47,0,0,1-.93,0v-1.87a.47.47,0,0,1,.93,0"/><line class="cls-22" x1="441.6" y1="325.69" x2="474.71" y2="325.69"/><line class="cls-22" x1="415.62" y1="441.57" x2="494.03" y2="441.57"/><line class="cls-22" x1="494.03" y1="437.33" x2="415.62" y2="437.33"/><polyline class="cls-22" points="494.03 441.57 494.03 446.87 498.27 446.87"/><line class="cls-22" x1="494.03" y1="446.87" x2="498.27" y2="446.87"/><polyline class="cls-22" points="498.27 437.33 494.03 437.33 498.27 437.33"/><line class="cls-22" x1="498.27" y1="442.63" x2="498.27" y2="437.33"/><line class="cls-22" x1="543.03" y1="442.37" x2="543.03" y2="446.87"/><polyline class="cls-22" points="500.39 440.51 500.39 435.21 498.53 435.21"/><line class="cls-22" x1="498.53" y1="442.37" x2="500.39" y2="442.37"/><line class="cls-22" x1="498.53" y1="437.08" x2="498.53" y2="442.37"/><line class="cls-22" x1="543.03" y1="440.51" x2="500.39" y2="440.51"/><line class="cls-22" x1="500.39" y1="442.37" x2="543.03" y2="442.37"/><line class="cls-4" x1="476.83" y1="325.94" x2="476.83" y2="330.95"/><line class="cls-4" x1="476.83" y1="334" x2="476.83" y2="346.2"/><line class="cls-24" x1="476.83" y1="349.64" x2="476.83" y2="348.07"/><line class="cls-4" x1="474.45" y1="325.94" x2="474.45" y2="330.95"/><line class="cls-4" x1="474.45" y1="334" x2="474.45" y2="346.2"/><line class="cls-24" x1="474.45" y1="349.64" x2="474.45" y2="348.07"/><rect class="cls-8" x="441.31" y="325.94" width="43.99" height="23.44"/><line class="cls-6" x1="479.79" y1="349.38" x2="485.3" y2="349.38"/><line class="cls-4" x1="485.3" y1="349.38" x2="485.3" y2="325.94"/><line class="cls-6" x1="485.3" y1="325.94" x2="479.79" y2="325.94"/><line class="cls-6" x1="474.32" y1="349.38" x2="479.79" y2="349.38"/><line class="cls-4" x1="479.79" y1="349.38" x2="479.79" y2="325.94"/><line class="cls-6" x1="479.79" y1="325.94" x2="474.32" y2="325.94"/><line class="cls-6" x1="468.82" y1="349.38" x2="474.32" y2="349.38"/><line class="cls-4" x1="474.32" y1="349.38" x2="474.32" y2="325.94"/><line class="cls-6" x1="474.32" y1="325.94" x2="468.81" y2="325.94"/><line class="cls-6" x1="463.31" y1="349.38" x2="468.82" y2="349.38"/><line class="cls-4" x1="468.82" y1="349.38" x2="468.82" y2="325.94"/><line class="cls-6" x1="468.82" y1="325.94" x2="463.31" y2="325.94"/><line class="cls-6" x1="457.84" y1="349.38" x2="463.31" y2="349.38"/><line class="cls-4" x1="463.31" y1="349.38" x2="463.31" y2="325.94"/><line class="cls-6" x1="463.31" y1="325.94" x2="457.84" y2="325.94"/><line class="cls-6" x1="452.33" y1="349.38" x2="457.84" y2="349.38"/><line class="cls-4" x1="457.84" y1="349.38" x2="457.84" y2="325.94"/><line class="cls-6" x1="457.84" y1="325.94" x2="452.33" y2="325.94"/><line class="cls-6" x1="446.82" y1="349.38" x2="452.33" y2="349.38"/><line class="cls-4" x1="452.33" y1="349.38" x2="452.33" y2="325.94"/><line class="cls-6" x1="452.33" y1="325.94" x2="446.82" y2="325.94"/><line class="cls-6" x1="441.31" y1="349.38" x2="446.82" y2="349.38"/><line class="cls-4" x1="446.82" y1="349.38" x2="446.82" y2="325.94"/><line class="cls-6" x1="446.82" y1="325.94" x2="441.31" y2="325.94"/><line class="cls-4" x1="441.31" y1="349.38" x2="441.31" y2="325.94"/><rect class="cls-8" x="476.83" y="335.27" width="5.3" height="5.21"/></g><polyline class="cls-24" points="669.63 186.71 758.89 186.71 758.89 230.96"/></g><g id="OPT_.UTILITY" data-name="OPT .UTILITY"><line class="cls-25" x1="561.51" y1="301.95" x2="572.87" y2="301.95"/><rect class="cls-26" x="538.54" y="301.95" width="1.86" height="17.38"/><rect class="cls-26" x="540.42" y="341.16" width="81.32" height="2.92"/><rect class="cls-26" x="538.54" y="299.03" width="83.2" height="2.92"/><line class="cls-27" x1="540.4" y1="319.33" x2="540.4" y2="301.95"/><line class="cls-27" x1="540.4" y1="341.16" x2="540.4" y2="339.17"/><line class="cls-27" x1="540.4" y1="319.33" x2="538.54" y2="319.33"/><line class="cls-27" x1="540.4" y1="339.17" x2="538.54" y2="339.17"/><line class="cls-27" x1="538.54" y1="301.95" x2="538.54" y2="319.33"/><line class="cls-27" x1="538.54" y1="299.03" x2="538.28" y2="299.03"/><rect class="cls-26" x="538.29" y="339.59" width="2.59" height="4.96"/><line class="cls-27" x1="538.29" y1="339.59" x2="538.29" y2="344.19"/><line class="cls-25" x1="540.66" y1="339.17" x2="540.66" y2="338.79"/><line class="cls-25" x1="538.28" y1="339.17" x2="538.28" y2="338.79"/><line class="cls-25" x1="540.66" y1="339.17" x2="538.28" y2="339.17"/><line class="cls-25" x1="540.66" y1="338.79" x2="538.28" y2="338.79"/><line class="cls-25" x1="540.66" y1="319.71" x2="540.66" y2="319.33"/><line class="cls-25" x1="538.28" y1="319.71" x2="538.28" y2="319.33"/><line class="cls-25" x1="540.66" y1="319.71" x2="538.28" y2="319.71"/><line class="cls-25" x1="540.66" y1="319.33" x2="538.28" y2="319.33"/><line class="cls-25" x1="540.66" y1="338.79" x2="559.73" y2="338.79"/><line class="cls-25" x1="540.66" y1="338.07" x2="559.73" y2="338.07"/><line class="cls-25" x1="559.73" y1="338.79" x2="559.73" y2="338.07"/><line class="cls-25" x1="540.66" y1="338.07" x2="540.66" y2="338.79"/><polyline class="cls-25" points="540.66 319.71 541.89 319.76 543.07 319.88 544.34 320.05 545.57 320.35 546.8 320.73"/><line class="cls-25" x1="546.8" y1="320.73" x2="547.99" y2="321.15"/><line class="cls-25" x1="547.99" y1="321.15" x2="549.13" y2="321.71"/><line class="cls-25" x1="549.13" y1="321.71" x2="550.28" y2="322.3"/><polyline class="cls-25" points="550.28 322.3 551.34 322.98 552.36 323.74 553.33 324.55 554.26 325.39 555.11 326.37"/><polyline class="cls-25" points="555.11 326.37 555.92 327.34 556.64 328.4 557.31 329.46 557.91 330.61 558.42 331.75"/><line class="cls-25" x1="558.42" y1="331.75" x2="558.84" y2="332.98"/><line class="cls-25" x1="558.84" y1="332.98" x2="559.18" y2="334.17"/><line class="cls-25" x1="559.18" y1="334.17" x2="559.43" y2="335.44"/><line class="cls-25" x1="559.43" y1="335.44" x2="559.6" y2="336.67"/><polyline class="cls-25" points="559.6 336.67 559.73 337.73 559.73 338.79"/><line class="cls-25" x1="540.66" y1="338.91" x2="541" y2="338.91"/><line class="cls-25" x1="541" y1="338.91" x2="541" y2="340.65"/><line class="cls-25" x1="540.66" y1="340.65" x2="541" y2="340.65"/><line class="cls-25" x1="540.66" y1="319.59" x2="541" y2="319.59"/><line class="cls-25" x1="541" y1="317.85" x2="541" y2="319.59"/><line class="cls-25" x1="540.66" y1="317.85" x2="541" y2="317.85"/><line class="cls-25" x1="538.28" y1="319.59" x2="537.94" y2="319.59"/><line class="cls-25" x1="537.94" y1="317.85" x2="537.94" y2="319.59"/><line class="cls-25" x1="538.28" y1="317.85" x2="537.94" y2="317.85"/><polyline class="cls-25" points="538.28 338.91 537.94 338.91 537.94 340.65"/><line class="cls-25" x1="538.28" y1="340.65" x2="537.94" y2="340.65"/><line class="cls-27" x1="621.74" y1="341.16" x2="540.41" y2="341.16"/><line class="cls-27" x1="540.42" y1="344.08" x2="621.74" y2="344.08"/><polyline class="cls-27" points="621.74 299.03 538.54 299.03 538.54 301.95"/><line class="cls-27" x1="540.42" y1="301.95" x2="621.74" y2="301.95"/><text class="cls-28" transform="translate(577.02 323.31)"><tspan class="cls-3">U</tspan><tspan class="cls-14" x="4.28" y="0">T</tspan><tspan class="cls-29" x="7.01" y="0">I</tspan><tspan class="cls-30" x="8.54" y="0">L</tspan><tspan class="cls-31" x="11.5" y="0">I</tspan><tspan class="cls-32" x="13.02" y="0">T</tspan><tspan x="15.75" y="0">Y</tspan></text></g></svg>