
<svg id="图层_1" data-name="图层 1" xmlns="http://www.w3.org/2000/svg" viewBox="0 0 1152 576"><defs><style>.cls-1{fill:#fff;}.cls-2,.cls-3,.cls-5{fill:none;stroke:#0b6190;stroke-linejoin:bevel;}.cls-2,.cls-5{stroke-linecap:round;}.cls-2{stroke-width:0.46px;}.cls-3{stroke-width:0;}.cls-4,.cls-6{fill:#0b6190;}.cls-5{stroke-width:0.93px;}.cls-6{font-size:6.5px;font-family:CenturyGothic, Century Gothic;}</style></defs><title>opt.master bath window</title><g id="opt.master_bath_window" data-name="opt.master bath window"><rect class="cls-1" x="668.19" y="181.94" width="15.89" height="4.08"/><polygon class="cls-1" points="673.27 185.6 673.32 185.64 673.32 185.68 673.36 185.72 673.4 185.72 673.4 185.77 673.49 185.77 673.53 185.81 673.27 185.51 673.27 185.6"/><polygon class="cls-1" points="678.74 185.81 678.78 185.81 678.78 185.77 678.87 185.77 678.87 185.72 678.91 185.72 678.95 185.68 678.95 185.64 678.99 185.6 678.99 185.56 678.99 185.51 678.74 185.81"/><polygon class="cls-1" points="673.27 185.18 673.27 185.51 673.53 185.81 678.74 185.81 678.99 185.51 678.99 185.18 673.27 185.18"/><polyline class="cls-2" points="673.27 185.18 673.27 185.51 673.27 185.56"/><polyline class="cls-2" points="673.27 185.56 673.27 185.6 673.32 185.64 673.32 185.68 673.36 185.68 673.36 185.72 673.4 185.77 673.44 185.77"/><polyline class="cls-2" points="673.44 185.77 673.49 185.77 673.53 185.81 678.74 185.81 678.78 185.77"/><polyline class="cls-2" points="678.78 185.77 678.83 185.77 678.87 185.77 678.91 185.72 678.95 185.68"/><line class="cls-2" x1="678.95" y1="185.68" x2="678.95" y2="185.64"/><line class="cls-2" x1="678.95" y1="185.64" x2="678.99" y2="185.6"/><polyline class="cls-2" points="678.99 185.6 678.99 185.56 678.99 185.51 678.99 185.18 673.27 185.18"/><line class="cls-2" x1="681.18" y1="185.94" x2="671.09" y2="185.94"/><polyline class="cls-2" points="677.1 185.81 678.74 185.81 678.87 185.77"/><line class="cls-2" x1="678.87" y1="185.77" x2="678.95" y2="185.68"/><polyline class="cls-2" points="678.95 185.68 678.99 185.56 678.99 185.18"/><polyline class="cls-2" points="678.99 185.18 673.27 185.18 673.27 185.56 673.32 185.68 673.4 185.77 673.53 185.81 675 185.81"/><polyline class="cls-2" points="677.1 185.94 677.1 185.81 675 185.81 675 185.94"/><polyline class="cls-2" points="677.56 185.94 677.56 185.89 677.52 185.85"/><line class="cls-2" x1="677.52" y1="185.85" x2="677.44" y2="185.81"/><polyline class="cls-2" points="674.66 185.81 674.58 185.85 674.53 185.89"/><line class="cls-2" x1="674.54" y1="185.89" x2="674.54" y2="185.94"/><line class="cls-2" x1="677.77" y1="185.94" x2="677.77" y2="185.81"/><line class="cls-2" x1="674.33" y1="185.81" x2="674.33" y2="185.94"/><polygon class="cls-1" points="667.18 182.57 666.92 182.82 667.98 182.82 667.98 182.57 667.18 182.57"/><rect class="cls-1" x="684.29" y="182.57" width="1.3" height="0.25"/><line class="cls-3" x1="684.84" y1="182.82" x2="685.09" y2="182.57"/><rect class="cls-4" x="666.67" y="183.08" width="3.15" height="1.85"/><rect class="cls-4" x="682.44" y="183.08" width="3.15" height="1.85"/><line class="cls-5" x1="669.83" y1="183.08" x2="666.67" y2="183.08"/><line class="cls-5" x1="685.59" y1="183.08" x2="682.44" y2="183.08"/><line class="cls-5" x1="669.83" y1="183.08" x2="669.83" y2="184.93"/><line class="cls-5" x1="682.44" y1="183.08" x2="682.44" y2="184.93"/><line class="cls-5" x1="685.59" y1="184.93" x2="685.59" y2="183.08"/><line class="cls-5" x1="666.67" y1="184.93" x2="669.83" y2="184.93"/><line class="cls-5" x1="682.44" y1="184.93" x2="685.6" y2="184.93"/><line class="cls-2" x1="682.44" y1="182.87" x2="682.06" y2="182.87"/><line class="cls-2" x1="682.44" y1="185.18" x2="682.06" y2="185.18"/><line class="cls-2" x1="682.44" y1="182.87" x2="682.44" y2="185.18"/><line class="cls-2" x1="682.06" y1="182.87" x2="682.06" y2="185.18"/><line class="cls-2" x1="670.21" y1="182.87" x2="669.83" y2="182.87"/><line class="cls-2" x1="670.21" y1="185.18" x2="669.83" y2="185.18"/><line class="cls-2" x1="670.21" y1="182.87" x2="670.21" y2="185.18"/><line class="cls-2" x1="669.83" y1="182.87" x2="669.83" y2="185.18"/><line class="cls-2" x1="682.06" y1="183.5" x2="670.21" y2="183.5"/><line class="cls-2" x1="682.06" y1="183.92" x2="670.21" y2="183.92"/><polyline class="cls-2" points="667.98 182.87 667.98 181.94 684.29 181.94"/><line class="cls-2" x1="684.29" y1="182.87" x2="684.29" y2="181.94"/><polyline class="cls-2" points="682.44 182.87 682.44 182.44 684.29 182.44"/><line class="cls-2" x1="684.29" y1="182.87" x2="684.29" y2="182.44"/><line class="cls-2" x1="669.83" y1="182.87" x2="669.83" y2="182.44"/><line class="cls-2" x1="667.98" y1="182.44" x2="669.83" y2="182.44"/><line class="cls-2" x1="667.98" y1="182.87" x2="667.98" y2="182.44"/><line class="cls-2" x1="684.08" y1="185.18" x2="684.08" y2="186.02"/><line class="cls-2" x1="668.19" y1="186.02" x2="684.08" y2="186.02"/><line class="cls-2" x1="668.19" y1="185.18" x2="668.19" y2="186.02"/><line class="cls-2" x1="670.16" y1="185.18" x2="670.16" y2="185.51"/><line class="cls-2" x1="668.44" y1="185.51" x2="670.16" y2="185.51"/><line class="cls-2" x1="668.44" y1="185.18" x2="668.44" y2="185.51"/><line class="cls-2" x1="668.44" y1="185.18" x2="670.16" y2="185.18"/><polyline class="cls-2" points="682.11 185.18 682.11 185.51 683.83 185.51"/><line class="cls-2" x1="683.83" y1="185.18" x2="683.83" y2="185.51"/><line class="cls-2" x1="682.1" y1="185.18" x2="683.83" y2="185.18"/><text class="cls-6" transform="translate(650.1 180.09)"><tspan xml:space="preserve"> OPT. WINDNOW </tspan></text></g></svg>