<svg id="图层_1" data-name="图层 1" xmlns="http://www.w3.org/2000/svg" viewBox="0 0 1152 576"><defs><style>.cls-1{fill:#fff;}.cls-2,.cls-3,.cls-5{fill:none;stroke:#0b6190;stroke-linejoin:bevel;}.cls-2,.cls-5{stroke-linecap:round;}.cls-2{stroke-width:0.46px;}.cls-3{stroke-width:0;}.cls-4,.cls-6{fill:#0b6190;}.cls-5{stroke-width:0.93px;}.cls-6{font-size:6.5px;font-family:CenturyGothic, Century Gothic;}</style></defs><title>opt.master bath window-2</title><g id="opt.master_bath_window-2" data-name="opt.master bath window-2"><rect class="cls-1" x="668.19" y="169.73" width="15.89" height="4.08"/><polygon class="cls-1" points="673.27 173.38 673.32 173.43 673.32 173.47 673.36 173.51 673.4 173.51 673.4 173.55 673.49 173.55 673.53 173.59 673.27 173.3 673.27 173.38"/><polygon class="cls-1" points="678.74 173.59 678.78 173.59 678.78 173.56 678.87 173.56 678.87 173.51 678.91 173.51 678.95 173.47 678.95 173.43 678.99 173.38 678.99 173.34 678.99 173.3 678.74 173.59"/><polygon class="cls-1" points="673.27 172.97 673.27 173.3 673.53 173.6 678.74 173.6 678.99 173.3 678.99 172.97 673.27 172.97"/><polyline class="cls-2" points="673.27 172.96 673.27 173.3 673.27 173.34"/><polyline class="cls-2" points="673.27 173.34 673.27 173.38 673.32 173.43 673.32 173.47 673.36 173.47 673.36 173.51 673.4 173.55 673.44 173.55"/><polyline class="cls-2" points="673.44 173.55 673.49 173.55 673.53 173.59 678.74 173.59 678.78 173.55"/><polyline class="cls-2" points="678.78 173.55 678.83 173.55 678.87 173.55 678.91 173.51 678.95 173.47"/><line class="cls-2" x1="678.95" y1="173.47" x2="678.95" y2="173.43"/><line class="cls-2" x1="678.95" y1="173.43" x2="678.99" y2="173.39"/><polyline class="cls-2" points="678.99 173.38 678.99 173.34 678.99 173.3 678.99 172.96 673.27 172.96"/><line class="cls-2" x1="681.18" y1="173.72" x2="671.09" y2="173.72"/><polyline class="cls-2" points="677.1 173.59 678.74 173.59 678.87 173.55"/><line class="cls-2" x1="678.87" y1="173.55" x2="678.95" y2="173.47"/><polyline class="cls-2" points="678.95 173.47 678.99 173.34 678.99 172.97"/><polyline class="cls-2" points="678.99 172.96 673.27 172.96 673.27 173.34 673.32 173.47 673.4 173.55 673.53 173.59 675 173.59"/><polyline class="cls-2" points="677.1 173.72 677.1 173.59 675 173.59 675 173.72"/><polyline class="cls-2" points="677.56 173.72 677.56 173.68 677.52 173.64"/><line class="cls-2" x1="677.52" y1="173.64" x2="677.44" y2="173.6"/><polyline class="cls-2" points="674.66 173.59 674.58 173.64 674.53 173.68"/><line class="cls-2" x1="674.54" y1="173.68" x2="674.54" y2="173.72"/><line class="cls-2" x1="677.77" y1="173.72" x2="677.77" y2="173.6"/><line class="cls-2" x1="674.33" y1="173.6" x2="674.33" y2="173.72"/><polygon class="cls-1" points="667.18 170.36 666.92 170.61 667.98 170.61 667.98 170.36 667.18 170.36"/><rect class="cls-1" x="684.29" y="170.36" width="1.3" height="0.25"/><line class="cls-3" x1="684.84" y1="170.61" x2="685.09" y2="170.36"/><rect class="cls-4" x="666.67" y="170.86" width="3.15" height="1.85"/><rect class="cls-4" x="682.44" y="170.86" width="3.15" height="1.85"/><line class="cls-5" x1="669.83" y1="170.86" x2="666.67" y2="170.86"/><line class="cls-5" x1="685.59" y1="170.86" x2="682.44" y2="170.86"/><line class="cls-5" x1="669.83" y1="170.86" x2="669.83" y2="172.71"/><line class="cls-5" x1="682.44" y1="170.86" x2="682.44" y2="172.71"/><line class="cls-5" x1="685.59" y1="172.71" x2="685.59" y2="170.86"/><line class="cls-5" x1="666.67" y1="172.71" x2="669.83" y2="172.71"/><line class="cls-5" x1="682.44" y1="172.71" x2="685.6" y2="172.71"/><line class="cls-2" x1="682.44" y1="170.65" x2="682.06" y2="170.65"/><line class="cls-2" x1="682.44" y1="172.96" x2="682.06" y2="172.96"/><line class="cls-2" x1="682.44" y1="170.65" x2="682.44" y2="172.96"/><line class="cls-2" x1="682.06" y1="170.65" x2="682.06" y2="172.96"/><line class="cls-2" x1="670.21" y1="170.65" x2="669.83" y2="170.65"/><line class="cls-2" x1="670.21" y1="172.96" x2="669.83" y2="172.96"/><line class="cls-2" x1="670.21" y1="170.65" x2="670.21" y2="172.96"/><line class="cls-2" x1="669.83" y1="170.65" x2="669.83" y2="172.96"/><line class="cls-2" x1="682.06" y1="171.28" x2="670.21" y2="171.28"/><line class="cls-2" x1="682.06" y1="171.7" x2="670.21" y2="171.7"/><polyline class="cls-2" points="667.98 170.65 667.98 169.73 684.29 169.73"/><line class="cls-2" x1="684.29" y1="170.65" x2="684.29" y2="169.73"/><polyline class="cls-2" points="682.44 170.65 682.44 170.23 684.29 170.23"/><line class="cls-2" x1="684.29" y1="170.65" x2="684.29" y2="170.23"/><line class="cls-2" x1="669.83" y1="170.65" x2="669.83" y2="170.23"/><line class="cls-2" x1="667.98" y1="170.23" x2="669.83" y2="170.23"/><line class="cls-2" x1="667.98" y1="170.65" x2="667.98" y2="170.23"/><line class="cls-2" x1="684.08" y1="172.96" x2="684.08" y2="173.81"/><line class="cls-2" x1="668.19" y1="173.81" x2="684.08" y2="173.81"/><line class="cls-2" x1="668.19" y1="172.96" x2="668.19" y2="173.81"/><line class="cls-2" x1="670.16" y1="172.96" x2="670.16" y2="173.3"/><line class="cls-2" x1="668.44" y1="173.3" x2="670.16" y2="173.3"/><line class="cls-2" x1="668.44" y1="172.96" x2="668.44" y2="173.3"/><line class="cls-2" x1="668.44" y1="172.96" x2="670.16" y2="172.96"/><polyline class="cls-2" points="682.11 172.96 682.11 173.3 683.83 173.3"/><line class="cls-2" x1="683.83" y1="172.96" x2="683.83" y2="173.3"/><line class="cls-2" x1="682.1" y1="172.96" x2="683.83" y2="172.96"/><text class="cls-6" transform="translate(650.1 167.88)"><tspan xml:space="preserve"> OPT. WINDNOW </tspan></text></g></svg>