<svg id="图层_1" data-name="图层 1" xmlns="http://www.w3.org/2000/svg" viewBox="0 0 1152 576"><defs><style>.cls-1,.cls-12{fill:#fff;}.cls-2{font-size:6.5px;font-family:CenturyGothic, Century Gothic;}.cls-13,.cls-2{fill:#0f577e;}.cls-14,.cls-15,.cls-16,.cls-3{fill:none;stroke:#0f577e;stroke-linecap:round;stroke-linejoin:bevel;}.cls-3{stroke-width:0.24px;}.cls-4{letter-spacing:-0.09em;}.cls-5{letter-spacing:0.17em;}.cls-6{letter-spacing:0.01em;}.cls-7{letter-spacing:0em;}.cls-8{letter-spacing:-0.08em;}.cls-9{letter-spacing:0.12em;}.cls-10{letter-spacing:-0.02em;}.cls-11{letter-spacing:0.05em;}.cls-12{fill-rule:evenodd;}.cls-14{stroke-width:0.93px;}.cls-15{stroke-width:0.83px;}.cls-16{stroke-width:0.46px;}</style></defs><title>OPT. MEDIA-2</title><g id="OPT._MEDIA-2" data-name="OPT. MEDIA-2"><rect class="cls-1" x="670.27" y="177.5" width="88.02" height="112.76"/><g id="OPT_TRAY_AT_MEDIA" data-name="OPT TRAY AT MEDIA"><text class="cls-2" transform="translate(702.96 179.36)">OPT TRAY</text><polyline class="cls-3" points="749.36 220.97 679.17 220.97 679.17 214.61 749.36 214.61"/><line class="cls-3" x1="749.36" y1="221.68" x2="749.36" y2="228.04"/><polyline class="cls-3" points="749.36 286.31 679.17 286.31 679.17 181.92"/><line class="cls-3" x1="679.17" y1="181.92" x2="749.36" y2="181.92"/><line class="cls-3" x1="749.36" y1="181.92" x2="749.36" y2="286.32"/><polyline class="cls-3" points="749.36 260.38 679.17 260.38 679.17 254.02 749.36 254.02"/><line class="cls-3" x1="749.36" y1="254.02" x2="749.36" y2="260.38"/></g><g id="OPT._MEDIA" data-name="OPT. MEDIA"><text class="cls-2" transform="translate(694.85 266.21)"><tspan class="cls-4">O</tspan><tspan x="5.08" y="0">P</tspan></text><text class="cls-2" transform="translate(703.49 266.21)"><tspan class="cls-5">T</tspan><tspan class="cls-6" x="3.9" y="0">.</tspan><tspan class="cls-7" x="5.76" y="0"> </tspan><tspan class="cls-8" x="7.56" y="0">M</tspan><tspan class="cls-9" x="13.01" y="0">E</tspan><tspan class="cls-10" x="17.27" y="0">D</tspan><tspan class="cls-11" x="21.98" y="0">I</tspan><tspan x="23.77" y="0">A</tspan></text><text class="cls-2" transform="translate(693.54 273.62)">14′-0″ X 19′-2″</text><g id="OPT._MEDIA-2-2" data-name="OPT. MEDIA"><path class="cls-12" d="M690.91,193.81l-.55.59v-.08c.07-.19.18-.47.42-.47h.09"/><polyline class="cls-12" points="711.6 193.81 690.91 193.81 701.25 193.64"/><polyline class="cls-12" points="712.1 194.32 711.6 193.81 711.64 193.85 711.76 193.85 711.85 193.9 711.89 193.94 711.93 193.98 711.98 194.02 712.02 194.06 712.06 194.15 712.06 194.19 712.1 194.28"/><path class="cls-12" d="M711.38,211.48l.72-.67v.08c-.1.22-.23.54-.51.55l-.12,0"/><polyline class="cls-12" points="690.36 210.81 691.04 211.49 690.95 211.49 690.87 211.44 690.78 211.44 690.7 211.4 690.61 211.36 690.57 211.27 690.49 211.23 690.44 211.15 690.4 211.06 690.4 210.98 690.36 210.89"/><polyline class="cls-12" points="690.36 194.4 690.91 193.81 711.6 193.81 712.1 194.32 712.1 210.81 711.38 211.49 691.04 211.49 690.36 210.81"/><polyline class="cls-12" points="691.84 211.49 710.62 211.49 710.62 212.63 709.81 213.44 692.65 213.44 691.84 212.63"/><polyline class="cls-3" points="690.36 194.4 690.36 194.32 690.36 194.28 690.4 194.24 690.4 194.15 690.44 194.11 690.49 194.06 690.49 194.02"/><polyline class="cls-3" points="690.49 194.02 690.53 193.98 690.57 193.94"/><polyline class="cls-3" points="690.57 193.94 690.66 193.9 690.7 193.9 690.74 193.85 690.83 193.85"/><polyline class="cls-3" points="690.83 193.85 690.87 193.81 690.91 193.81 691.04 193.81"/><polyline class="cls-3" points="691.04 193.81 693.58 193.73 696.12 193.68 698.67 193.64 701.21 193.64 703.75 193.64 706.3 193.68 708.84 193.73"/><polyline class="cls-3" points="708.84 193.73 711.38 193.81 711.6 193.81 711.64 193.81 711.68 193.85"/><polyline class="cls-3" points="711.68 193.85 711.72 193.85 711.76 193.85 711.81 193.9 711.85 193.9 711.89 193.94"/><polyline class="cls-3" points="711.89 193.94 711.93 193.98 711.98 194.02"/><polyline class="cls-3" points="711.98 194.02 712.02 194.06 712.02 194.11 712.06 194.15 712.06 194.19 712.06 194.24 712.1 194.28 712.1 194.32 712.1 210.81 712.1 210.85 712.06 210.93 712.06 211.02 712.02 211.06 711.98 211.15 711.98 211.19 711.89 211.27 711.85 211.32 711.81 211.36 711.72 211.4 711.68 211.44 711.6 211.44 711.55 211.49 711.47 211.49 711.38 211.49"/><polyline class="cls-3" points="711.38 211.49 710.62 211.49 710.62 212.63 709.81 213.43"/><polyline class="cls-3" points="709.81 213.44 692.65 213.44 691.84 212.63 691.84 211.49 691.04 211.49 691 211.49 690.91 211.49 690.83 211.44 690.78 211.44 690.7 211.4 690.66 211.36 690.57 211.32 690.53 211.27 690.49 211.19 690.44 211.15 690.4 211.06 690.4 211.02 690.36 210.93 690.36 210.85 690.36 210.81 690.36 194.4"/><polyline class="cls-3" points="693.16 211.49 693.62 211.49 693.84 211.49 693.71 212.12 693.37 213.14"/><polyline class="cls-3" points="709.31 211.49 708.8 211.49 708.63 211.49 708.75 212.12"/><line class="cls-3" x1="708.75" y1="212.12" x2="709.09" y2="213.14"/><polyline class="cls-3" points="691.29 211.44 691.38 211.49 694.6 211.49"/><line class="cls-3" x1="694.6" y1="211.48" x2="694.89" y2="211.48"/><line class="cls-3" x1="694.89" y1="211.48" x2="694.72" y2="212.12"/><line class="cls-3" x1="709.22" y1="213.31" x2="709.48" y2="213.31"/><polyline class="cls-3" points="709.48 213.31 709.73 213.18 709.86 213.05 709.98 212.76 709.98 211.49"/><line class="cls-3" x1="694.39" y1="213.31" x2="693.37" y2="213.31"/><line class="cls-3" x1="693.37" y1="213.31" x2="693.28" y2="213.35"/><polyline class="cls-3" points="707.99 213.35 707.91 213.31 694.56 213.31 694.47 213.35"/><polyline class="cls-3" points="693.2 213.31 692.99 213.31 692.73 213.18"/><polyline class="cls-3" points="692.73 213.18 692.56 213.05 692.48 212.76 692.48 211.49"/><line class="cls-3" x1="694.47" y1="196.27" x2="694.94" y2="196.95"/><line class="cls-3" x1="694.94" y1="196.95" x2="695.32" y2="197.54"/><line class="cls-3" x1="695.32" y1="197.54" x2="695.66" y2="198.34"/><polyline class="cls-3" points="695.66 198.35 695.66 198.47 695.87 201.65"/><polyline class="cls-3" points="695.87 201.65 695.95 205.64 695.87 210.6"/><polyline class="cls-3" points="695.87 210.59 695.78 210.93 695.53 211.57 695.36 212.76"/><polyline class="cls-3" points="695.36 212.76 695.23 213.05 695.06 213.18"/><polyline class="cls-3" points="695.06 213.18 695.02 213.18 694.81 213.26"/><polyline class="cls-3" points="707.65 213.26 707.44 213.18 707.4 213.18 707.23 213.05 707.1 212.76 706.93 211.57 706.68 210.93"/><polyline class="cls-3" points="706.68 210.93 706.59 210.59 706.51 205.64 706.59 201.65 706.8 198.47 706.8 198.35 707.14 197.54"/><polyline class="cls-3" points="707.14 197.54 707.52 196.95 707.99 196.27"/><line class="cls-3" x1="708.08" y1="213.31" x2="709.05" y2="213.31"/><line class="cls-3" x1="709.05" y1="213.31" x2="709.14" y2="213.35"/><line class="cls-3" x1="695.53" y1="211.65" x2="695.7" y2="211.82"/><polyline class="cls-3" points="695.7 211.82 695.83 211.91 695.87 211.91 706.55 211.91 706.63 211.91 706.76 211.82 706.93 211.66"/><polyline class="cls-3" points="694.47 213.35 694.34 213.35 694.26 213.31"/><line class="cls-3" x1="693.28" y1="213.35" x2="693.24" y2="213.35"/><line class="cls-3" x1="693.24" y1="213.35" x2="693.16" y2="213.31"/><polyline class="cls-3" points="709.31 213.31 709.22 213.35 709.18 213.35"/><polyline class="cls-3" points="708.2 213.31 708.12 213.35 707.99 213.35"/><line class="cls-3" x1="707.65" y1="213.26" x2="707.65" y2="213.31"/><line class="cls-3" x1="694.81" y1="213.26" x2="694.77" y2="213.31"/><polyline class="cls-3" points="707.74 212.12 707.57 211.49 707.86 211.49 711.09 211.49 711.17 211.44"/><polyline class="cls-3" points="695.7 199.07 695.87 198.9 698.41 198.85 704.05 198.85 706.59 198.9 706.76 199.07"/><line class="cls-3" x1="707.69" y1="213.31" x2="707.44" y2="213.18"/><line class="cls-3" x1="695.02" y1="213.18" x2="694.77" y2="213.31"/><line class="cls-3" x1="693.24" y1="213.31" x2="693.28" y2="213.35"/><line class="cls-3" x1="706.55" y1="198.98" x2="706.76" y2="199.19"/><line class="cls-3" x1="695.91" y1="198.98" x2="695.7" y2="199.19"/><line class="cls-3" x1="706.76" y1="198.98" x2="706.63" y2="198.94"/><line class="cls-3" x1="710.62" y1="211.48" x2="710.62" y2="212.16"/><line class="cls-3" x1="691.84" y1="211.48" x2="691.84" y2="212.16"/><path class="cls-12" d="M717.4,193.81l-.55.59v-.08c.07-.19.18-.47.42-.47h.09"/><polyline class="cls-12" points="738.08 193.81 717.4 193.81 727.74 193.64"/><polyline class="cls-12" points="738.59 194.32 738.09 193.81 738.13 193.85 738.25 193.85 738.34 193.9 738.38 193.94 738.42 193.98 738.47 194.02 738.51 194.06 738.55 194.15 738.55 194.19 738.59 194.28"/><path class="cls-12" d="M737.87,211.48l.72-.67v.08c-.1.22-.23.54-.51.55l-.12,0"/><polyline class="cls-12" points="716.85 210.81 717.53 211.49 717.44 211.49 717.36 211.44 717.27 211.44 717.19 211.4 717.11 211.36 717.06 211.27 716.98 211.23 716.93 211.15 716.89 211.06 716.89 210.98 716.85 210.89"/><polyline class="cls-12" points="716.85 194.4 717.4 193.81 738.09 193.81 738.59 194.32 738.59 210.81 737.87 211.49 717.53 211.49 716.85 210.81"/><polyline class="cls-12" points="718.33 211.49 737.11 211.49 737.11 212.63 736.3 213.44 719.14 213.44 718.33 212.63"/><polyline class="cls-3" points="716.85 194.4 716.85 194.32 716.85 194.28 716.89 194.24 716.89 194.15 716.93 194.11 716.98 194.06 716.98 194.02"/><polyline class="cls-3" points="716.98 194.02 717.02 193.98 717.06 193.94"/><polyline class="cls-3" points="717.06 193.94 717.15 193.9 717.19 193.9 717.23 193.85 717.32 193.85 717.36 193.81 717.4 193.81 717.53 193.81 720.07 193.73"/><polyline class="cls-3" points="720.07 193.73 722.61 193.68 725.16 193.64 727.7 193.64"/><polyline class="cls-3" points="727.7 193.64 730.24 193.64 732.79 193.68 735.33 193.73 737.87 193.81"/><line class="cls-3" x1="737.87" y1="193.81" x2="738.08" y2="193.81"/><polyline class="cls-3" points="738.08 193.81 738.13 193.81 738.17 193.85 738.21 193.85 738.25 193.85 738.3 193.9 738.34 193.9 738.38 193.94 738.42 193.98 738.47 194.02"/><line class="cls-3" x1="738.47" y1="194.02" x2="738.51" y2="194.06"/><polyline class="cls-3" points="738.51 194.06 738.51 194.11 738.55 194.15 738.55 194.19 738.55 194.24 738.59 194.28 738.59 194.32 738.59 210.81 738.59 210.85 738.55 210.93 738.55 211.02 738.51 211.06"/><polyline class="cls-3" points="738.51 211.06 738.47 211.15 738.47 211.19 738.38 211.27 738.34 211.32 738.3 211.36"/><polyline class="cls-3" points="738.3 211.36 738.21 211.4 738.17 211.44 738.08 211.44 738.04 211.49 737.96 211.49 737.87 211.49 737.11 211.49 737.11 212.63 736.3 213.43"/><polyline class="cls-3" points="736.3 213.44 719.14 213.44 718.33 212.63 718.33 211.49 717.53 211.49 717.49 211.49 717.4 211.49 717.32 211.44 717.27 211.44 717.19 211.4 717.15 211.36 717.06 211.32 717.02 211.27 716.98 211.19 716.93 211.15 716.89 211.06 716.89 211.02 716.85 210.93 716.85 210.85 716.85 210.81 716.85 194.4"/><polyline class="cls-3" points="719.65 211.49 720.11 211.49 720.33 211.49 720.2 212.12 719.86 213.14"/><polyline class="cls-3" points="735.8 211.49 735.29 211.49 735.12 211.49 735.24 212.12 735.58 213.14"/><polyline class="cls-3" points="717.78 211.44 717.87 211.49 721.09 211.49 721.38 211.49 721.22 212.12"/><line class="cls-3" x1="735.71" y1="213.31" x2="735.97" y2="213.31"/><polyline class="cls-3" points="735.97 213.31 736.22 213.18 736.35 213.05 736.47 212.76 736.47 211.49"/><polyline class="cls-3" points="720.88 213.31 719.86 213.31 719.77 213.35"/><polyline class="cls-3" points="734.48 213.35 734.4 213.31 721.05 213.31 720.96 213.35"/><polyline class="cls-3" points="719.69 213.31 719.48 213.31 719.22 213.18 719.05 213.05 718.97 212.76 718.97 211.49"/><polyline class="cls-3" points="720.96 196.27 721.43 196.95 721.81 197.54"/><line class="cls-3" x1="721.81" y1="197.54" x2="722.15" y2="198.34"/><polyline class="cls-3" points="722.15 198.35 722.15 198.47 722.36 201.65"/><polyline class="cls-3" points="722.36 201.65 722.44 205.64 722.36 210.6"/><line class="cls-3" x1="722.36" y1="210.59" x2="722.27" y2="210.93"/><polyline class="cls-3" points="722.27 210.93 722.02 211.57 721.85 212.76"/><polyline class="cls-3" points="721.85 212.76 721.72 213.05 721.55 213.18"/><polyline class="cls-3" points="721.55 213.18 721.51 213.18 721.3 213.26"/><polyline class="cls-3" points="734.14 213.26 733.93 213.18 733.89 213.18 733.72 213.05 733.59 212.76"/><polyline class="cls-3" points="733.59 212.76 733.42 211.57 733.17 210.93"/><polyline class="cls-3" points="733.17 210.93 733.08 210.59 733 205.64 733.08 201.65 733.29 198.47 733.29 198.35 733.63 197.54 734.02 196.95 734.48 196.27"/><polyline class="cls-3" points="734.57 213.31 735.54 213.31 735.63 213.35"/><line class="cls-3" x1="722.02" y1="211.65" x2="722.19" y2="211.82"/><polyline class="cls-3" points="722.19 211.82 722.32 211.91 722.36 211.91 733.04 211.91 733.13 211.91 733.25 211.82"/><line class="cls-3" x1="733.25" y1="211.82" x2="733.42" y2="211.65"/><polyline class="cls-3" points="720.96 213.35 720.83 213.35 720.75 213.31"/><polyline class="cls-3" points="719.77 213.35 719.73 213.35 719.65 213.31"/><polyline class="cls-3" points="735.8 213.31 735.71 213.35 735.67 213.35"/><polyline class="cls-3" points="734.69 213.31 734.61 213.35 734.48 213.35"/><line class="cls-3" x1="734.14" y1="213.26" x2="734.14" y2="213.31"/><line class="cls-3" x1="721.3" y1="213.26" x2="721.26" y2="213.31"/><polyline class="cls-3" points="734.23 212.12 734.06 211.49 734.36 211.49 737.58 211.49 737.66 211.44"/><line class="cls-3" x1="722.19" y1="199.07" x2="722.36" y2="198.9"/><polyline class="cls-3" points="722.36 198.9 724.9 198.85 730.54 198.85"/><polyline class="cls-3" points="730.54 198.85 733.08 198.9 733.25 199.07"/><line class="cls-3" x1="734.18" y1="213.31" x2="733.93" y2="213.18"/><line class="cls-3" x1="721.51" y1="213.18" x2="721.26" y2="213.31"/><line class="cls-3" x1="719.73" y1="213.31" x2="719.77" y2="213.35"/><line class="cls-3" x1="733.04" y1="198.98" x2="733.25" y2="199.19"/><line class="cls-3" x1="722.4" y1="198.98" x2="722.19" y2="199.19"/><line class="cls-3" x1="733.25" y1="198.98" x2="733.12" y2="198.94"/><line class="cls-3" x1="737.11" y1="211.48" x2="737.11" y2="212.16"/><line class="cls-3" x1="718.33" y1="211.48" x2="718.33" y2="212.16"/><path class="cls-12" d="M690.91,233.71l-.55.6v-.09c.07-.19.18-.46.42-.46l.09,0"/><polyline class="cls-12" points="711.6 233.72 690.91 233.72 701.25 233.54"/><path class="cls-12" d="M712.1,234.22l-.51-.5h0c.17.05.39.18.42.38l0,.08"/><path class="cls-12" d="M711.38,251.39l.72-.68v.09c-.1.19-.26.55-.51.55l-.12,0"/><polyline class="cls-12" points="690.36 250.71 691.04 251.39 690.95 251.39 690.87 251.35 690.78 251.35 690.7 251.31 690.61 251.26 690.57 251.18 690.44 251.05 690.4 250.97 690.4 250.88 690.36 250.8"/><polyline class="cls-12" points="690.36 234.31 690.91 233.72 711.6 233.72 712.1 234.22 712.1 250.71 711.38 251.39 691.04 251.39 690.36 250.71"/><polyline class="cls-12" points="691.84 251.39 710.62 251.39 710.62 252.53 709.81 253.34 692.65 253.34 691.84 252.53"/><polyline class="cls-3" points="690.36 234.31 690.36 234.22 690.36 234.18 690.4 234.1 690.4 234.05 690.44 234.01 690.49 233.97"/><polyline class="cls-3" points="690.49 233.97 690.49 233.93 690.53 233.89"/><polyline class="cls-3" points="690.53 233.88 690.57 233.84 690.66 233.8 690.7 233.8 690.74 233.76 690.83 233.76"/><polyline class="cls-3" points="690.83 233.76 690.87 233.72 690.91 233.72 691.04 233.72"/><polyline class="cls-3" points="691.04 233.72 693.58 233.63 696.12 233.59 698.67 233.55 701.21 233.55 703.75 233.55 706.3 233.59 708.84 233.63"/><polyline class="cls-3" points="708.84 233.63 711.38 233.72 711.6 233.72 711.64 233.72 711.68 233.76"/><polyline class="cls-3" points="711.68 233.76 711.72 233.76 711.76 233.76 711.81 233.8 711.85 233.8 711.89 233.84"/><polyline class="cls-3" points="711.89 233.84 711.93 233.88 711.98 233.93 712.02 233.97 712.02 234.01 712.06 234.05 712.06 234.1 712.06 234.14 712.1 234.18 712.1 234.22 712.1 250.71"/><polyline class="cls-3" points="712.1 250.71 712.1 250.75 712.06 250.84 712.06 250.92 712.02 250.97 711.98 251.05 711.98 251.09 711.89 251.13 711.85 251.22 711.81 251.26 711.72 251.31 711.68 251.31 711.6 251.35 711.55 251.39 711.47 251.39 711.38 251.39"/><polyline class="cls-3" points="711.38 251.39 710.62 251.39 710.62 252.53 709.81 253.34 692.65 253.34 691.84 252.53"/><polyline class="cls-3" points="691.84 252.53 691.84 251.39 691.04 251.39 691 251.39 690.91 251.39 690.83 251.35 690.78 251.31 690.7 251.31 690.66 251.26 690.57 251.22 690.53 251.13 690.49 251.09 690.44 251.05 690.4 250.97 690.4 250.92 690.36 250.84 690.36 250.75 690.36 250.71 690.36 234.31"/><polyline class="cls-3" points="693.16 251.39 693.62 251.39 693.84 251.39 693.71 252.03"/><line class="cls-3" x1="693.71" y1="252.02" x2="693.37" y2="253.04"/><polyline class="cls-3" points="709.31 251.39 708.8 251.39 708.63 251.39 708.75 252.03"/><line class="cls-3" x1="708.75" y1="252.02" x2="709.09" y2="253.04"/><polyline class="cls-3" points="691.29 251.35 691.38 251.39 694.6 251.39"/><line class="cls-3" x1="694.6" y1="251.39" x2="694.89" y2="251.39"/><line class="cls-3" x1="694.89" y1="251.39" x2="694.72" y2="252.03"/><line class="cls-3" x1="709.22" y1="253.21" x2="709.48" y2="253.21"/><polyline class="cls-3" points="709.48 253.21 709.73 253.09 709.86 252.96"/><polyline class="cls-3" points="709.86 252.96 709.98 252.66 709.98 251.39"/><line class="cls-3" x1="694.39" y1="253.21" x2="693.37" y2="253.21"/><line class="cls-3" x1="693.37" y1="253.21" x2="693.28" y2="253.25"/><polyline class="cls-3" points="707.99 253.25 707.91 253.21 694.56 253.21 694.47 253.25"/><polyline class="cls-3" points="693.2 253.21 692.99 253.21 692.73 253.09"/><line class="cls-3" x1="692.73" y1="253.08" x2="692.56" y2="252.96"/><polyline class="cls-3" points="692.56 252.96 692.48 252.66 692.48 251.39"/><line class="cls-3" x1="694.47" y1="236.17" x2="694.94" y2="236.85"/><line class="cls-3" x1="694.94" y1="236.85" x2="695.32" y2="237.44"/><polyline class="cls-3" points="695.32 237.44 695.66 238.25 695.66 238.38 695.87 241.56 695.95 245.54 695.87 250.5"/><polyline class="cls-3" points="695.87 250.5 695.78 250.84 695.53 251.47 695.36 252.66"/><polyline class="cls-3" points="695.36 252.66 695.23 252.92 695.06 253.09 695.02 253.09 694.81 253.17"/><polyline class="cls-3" points="707.65 253.17 707.44 253.09 707.4 253.09 707.23 252.92 707.1 252.66 706.93 251.47 706.68 250.84"/><line class="cls-3" x1="706.68" y1="250.84" x2="706.59" y2="250.5"/><polyline class="cls-3" points="706.59 250.5 706.51 245.54 706.59 241.56"/><polyline class="cls-3" points="706.59 241.56 706.8 238.38 706.8 238.25 707.14 237.45"/><polyline class="cls-3" points="707.14 237.44 707.52 236.85 707.99 236.17"/><line class="cls-3" x1="708.08" y1="253.21" x2="709.05" y2="253.21"/><line class="cls-3" x1="709.05" y1="253.21" x2="709.14" y2="253.25"/><polyline class="cls-3" points="695.53 251.56 695.7 251.73 695.83 251.81 695.87 251.81 706.55 251.81 706.63 251.81 706.76 251.73 706.93 251.56"/><polyline class="cls-3" points="694.47 253.25 694.34 253.25 694.26 253.21"/><line class="cls-3" x1="693.28" y1="253.25" x2="693.24" y2="253.25"/><line class="cls-3" x1="693.24" y1="253.25" x2="693.16" y2="253.21"/><polyline class="cls-3" points="709.31 253.21 709.22 253.25 709.18 253.25"/><polyline class="cls-3" points="708.2 253.21 708.12 253.25 707.99 253.25"/><line class="cls-3" x1="707.65" y1="253.17" x2="707.65" y2="253.21"/><line class="cls-3" x1="694.81" y1="253.17" x2="694.77" y2="253.21"/><line class="cls-3" x1="707.74" y1="252.02" x2="707.57" y2="251.39"/><polyline class="cls-3" points="707.57 251.39 707.86 251.39 711.09 251.39 711.17 251.35"/><line class="cls-3" x1="695.7" y1="238.97" x2="695.87" y2="238.8"/><polyline class="cls-3" points="695.87 238.8 698.41 238.72 704.05 238.72 706.59 238.8 706.76 238.97"/><line class="cls-3" x1="707.69" y1="253.21" x2="707.44" y2="253.08"/><line class="cls-3" x1="695.02" y1="253.08" x2="694.77" y2="253.21"/><line class="cls-3" x1="693.24" y1="253.21" x2="693.28" y2="253.25"/><line class="cls-3" x1="706.55" y1="238.89" x2="706.76" y2="239.1"/><line class="cls-3" x1="695.91" y1="238.89" x2="695.7" y2="239.1"/><line class="cls-3" x1="706.76" y1="238.89" x2="706.63" y2="238.84"/><line class="cls-3" x1="710.62" y1="251.39" x2="710.62" y2="252.07"/><line class="cls-3" x1="691.84" y1="251.39" x2="691.84" y2="252.07"/><path class="cls-12" d="M717.4,233.71l-.55.6v-.09c.07-.19.18-.46.42-.46l.09,0"/><polyline class="cls-12" points="738.08 233.72 717.4 233.72 727.74 233.54"/><path class="cls-12" d="M738.59,234.22l-.51-.5h0c.17.05.39.18.42.38l0,.08"/><path class="cls-12" d="M737.87,251.39l.72-.68v.09c-.1.19-.25.55-.51.55l-.12,0"/><polyline class="cls-12" points="716.85 250.71 717.53 251.39 717.44 251.39 717.36 251.35 717.27 251.35 717.19 251.31 717.11 251.26 717.06 251.18 716.93 251.05 716.89 250.97 716.89 250.88 716.85 250.8"/><polyline class="cls-12" points="716.85 234.31 717.4 233.72 738.09 233.72 738.59 234.22 738.59 250.71 737.87 251.39 717.53 251.39 716.85 250.71"/><polyline class="cls-12" points="718.33 251.39 737.11 251.39 737.11 252.53 736.3 253.34 719.14 253.34 718.33 252.53"/><polyline class="cls-3" points="716.85 234.31 716.85 234.22 716.85 234.18 716.89 234.1 716.89 234.05 716.93 234.01 716.98 233.97"/><polyline class="cls-3" points="716.98 233.97 716.98 233.93 717.02 233.89"/><polyline class="cls-3" points="717.02 233.88 717.06 233.84 717.15 233.8 717.19 233.8 717.23 233.76 717.32 233.76 717.36 233.72 717.4 233.72 717.53 233.72 720.07 233.63"/><polyline class="cls-3" points="720.07 233.63 722.61 233.59 725.16 233.55 727.7 233.55"/><polyline class="cls-3" points="727.7 233.55 730.24 233.55 732.79 233.59 735.33 233.63 737.87 233.72"/><line class="cls-3" x1="737.87" y1="233.72" x2="738.08" y2="233.72"/><polyline class="cls-3" points="738.08 233.72 738.13 233.72 738.17 233.76 738.21 233.76 738.25 233.76 738.3 233.8 738.34 233.8 738.38 233.84 738.42 233.88 738.47 233.93 738.51 233.97"/><polyline class="cls-3" points="738.51 233.97 738.51 234.01 738.55 234.05 738.55 234.1 738.55 234.14 738.59 234.18 738.59 234.22 738.59 250.71"/><polyline class="cls-3" points="738.59 250.71 738.59 250.75 738.55 250.84 738.55 250.92 738.51 250.97"/><polyline class="cls-3" points="738.51 250.97 738.47 251.05 738.47 251.09 738.38 251.13 738.34 251.22 738.3 251.26"/><polyline class="cls-3" points="738.3 251.26 738.21 251.31 738.17 251.31 738.08 251.35 738.04 251.39 737.96 251.39 737.87 251.39 737.11 251.39 737.11 252.53 736.3 253.34"/><polyline class="cls-3" points="736.3 253.34 719.14 253.34 718.33 252.53"/><polyline class="cls-3" points="718.33 252.53 718.33 251.39 717.53 251.39 717.49 251.39 717.4 251.39 717.32 251.35 717.27 251.31 717.19 251.31 717.15 251.26 717.06 251.22 717.02 251.13 716.98 251.09 716.93 251.05 716.89 250.97 716.89 250.92 716.85 250.84 716.85 250.75 716.85 250.71 716.85 234.31"/><polyline class="cls-3" points="719.65 251.39 720.11 251.39 720.33 251.39 720.2 252.03"/><line class="cls-3" x1="720.2" y1="252.02" x2="719.86" y2="253.04"/><polyline class="cls-3" points="735.8 251.39 735.29 251.39 735.12 251.39 735.24 252.03"/><line class="cls-3" x1="735.24" y1="252.02" x2="735.58" y2="253.04"/><polyline class="cls-3" points="717.78 251.35 717.87 251.39 721.09 251.39 721.38 251.39 721.22 252.03"/><line class="cls-3" x1="735.71" y1="253.21" x2="735.97" y2="253.21"/><polyline class="cls-3" points="735.97 253.21 736.22 253.09 736.35 252.96"/><polyline class="cls-3" points="736.35 252.96 736.47 252.66 736.47 251.39"/><polyline class="cls-3" points="720.88 253.21 719.86 253.21 719.77 253.25"/><polyline class="cls-3" points="734.48 253.25 734.4 253.21 721.05 253.21 720.96 253.25"/><polyline class="cls-3" points="719.69 253.21 719.48 253.21 719.22 253.09 719.05 252.96"/><polyline class="cls-3" points="719.05 252.96 718.97 252.66 718.97 251.39"/><polyline class="cls-3" points="720.96 236.17 721.43 236.85 721.81 237.44"/><line class="cls-3" x1="721.81" y1="237.44" x2="722.15" y2="238.25"/><polyline class="cls-3" points="722.15 238.25 722.15 238.38 722.36 241.56"/><polyline class="cls-3" points="722.36 241.56 722.44 245.54 722.36 250.5 722.27 250.84"/><polyline class="cls-3" points="722.27 250.84 722.02 251.47 721.85 252.66"/><polyline class="cls-3" points="721.85 252.66 721.72 252.92 721.55 253.09"/><polyline class="cls-3" points="721.55 253.09 721.51 253.09 721.3 253.17"/><polyline class="cls-3" points="734.14 253.17 733.93 253.09 733.89 253.09 733.72 252.92 733.59 252.66"/><polyline class="cls-3" points="733.59 252.66 733.42 251.47 733.17 250.84"/><line class="cls-3" x1="733.17" y1="250.84" x2="733.08" y2="250.5"/><polyline class="cls-3" points="733.08 250.5 733 245.54 733.08 241.56"/><polyline class="cls-3" points="733.08 241.56 733.29 238.38 733.29 238.25 733.63 237.45"/><polyline class="cls-3" points="733.63 237.44 734.02 236.85 734.48 236.17"/><polyline class="cls-3" points="734.57 253.21 735.54 253.21 735.63 253.25"/><polyline class="cls-3" points="722.02 251.56 722.19 251.73 722.32 251.81 722.36 251.81 733.04 251.81 733.13 251.81 733.25 251.73"/><line class="cls-3" x1="733.25" y1="251.73" x2="733.42" y2="251.56"/><polyline class="cls-3" points="720.96 253.25 720.83 253.25 720.75 253.21"/><polyline class="cls-3" points="719.77 253.25 719.73 253.25 719.65 253.21"/><polyline class="cls-3" points="735.8 253.21 735.71 253.25 735.67 253.25"/><polyline class="cls-3" points="734.69 253.21 734.61 253.25 734.48 253.25"/><line class="cls-3" x1="734.14" y1="253.17" x2="734.14" y2="253.21"/><line class="cls-3" x1="721.3" y1="253.17" x2="721.26" y2="253.21"/><line class="cls-3" x1="734.23" y1="252.02" x2="734.06" y2="251.39"/><polyline class="cls-3" points="734.06 251.39 734.36 251.39 737.58 251.39 737.66 251.35"/><line class="cls-3" x1="722.19" y1="238.97" x2="722.36" y2="238.8"/><polyline class="cls-3" points="722.36 238.8 724.9 238.72 730.54 238.72"/><polyline class="cls-3" points="730.54 238.72 733.08 238.8 733.25 238.97"/><line class="cls-3" x1="734.18" y1="253.21" x2="733.93" y2="253.08"/><line class="cls-3" x1="721.51" y1="253.08" x2="721.26" y2="253.21"/><line class="cls-3" x1="719.73" y1="253.21" x2="719.77" y2="253.25"/><line class="cls-3" x1="733.04" y1="238.89" x2="733.25" y2="239.1"/><line class="cls-3" x1="722.4" y1="238.89" x2="722.19" y2="239.1"/><line class="cls-3" x1="733.25" y1="238.89" x2="733.12" y2="238.84"/><line class="cls-3" x1="737.11" y1="251.39" x2="737.11" y2="252.07"/><line class="cls-3" x1="718.33" y1="251.39" x2="718.33" y2="252.07"/><rect class="cls-13" x="667.81" y="292.84" width="1.86" height="2.76"/><rect class="cls-13" x="667.81" y="172.78" width="1.86" height="87.52"/><line class="cls-14" x1="667.81" y1="292.84" x2="667.81" y2="295.6"/><line class="cls-15" x1="667.81" y1="173.51" x2="667.81" y2="260.34"/><line class="cls-14" x1="667.81" y1="292.84" x2="669.68" y2="292.84"/><line class="cls-14" x1="667.81" y1="260.25" x2="669.68" y2="260.25"/><line class="cls-14" x1="669.68" y1="295.6" x2="669.68" y2="292.84"/><line class="cls-14" x1="669.68" y1="260.24" x2="669.68" y2="172.69"/><line class="cls-16" x1="667.56" y1="260.25" x2="667.56" y2="260.63"/><line class="cls-16" x1="669.93" y1="260.25" x2="669.93" y2="260.63"/><line class="cls-16" x1="667.56" y1="260.25" x2="669.93" y2="260.25"/><line class="cls-16" x1="667.56" y1="260.63" x2="669.93" y2="260.63"/><line class="cls-16" x1="667.56" y1="292.42" x2="667.56" y2="292.84"/><line class="cls-16" x1="669.93" y1="292.42" x2="669.93" y2="292.84"/><line class="cls-16" x1="667.56" y1="292.42" x2="669.93" y2="292.42"/><line class="cls-16" x1="667.56" y1="292.84" x2="669.93" y2="292.84"/><line class="cls-16" x1="667.56" y1="292.42" x2="651.66" y2="292.42"/><line class="cls-16" x1="667.56" y1="291.7" x2="651.66" y2="291.7"/><line class="cls-16" x1="651.66" y1="292.42" x2="651.66" y2="291.7"/><line class="cls-16" x1="667.56" y1="291.7" x2="667.56" y2="292.42"/><polyline class="cls-16" points="667.56 276.52 666.33 276.57 665.1 276.74 663.87 276.95"/><line class="cls-16" x1="663.87" y1="276.95" x2="662.64" y2="277.33"/><line class="cls-16" x1="662.64" y1="277.33" x2="661.45" y2="277.75"/><line class="cls-16" x1="661.45" y1="277.75" x2="660.31" y2="278.3"/><polyline class="cls-16" points="660.31 278.3 659.16 278.9 658.15 279.62"/><polyline class="cls-16" points="658.15 279.62 657.13 280.42 656.2 281.31"/><polyline class="cls-16" points="656.2 281.31 655.35 282.25 654.59 283.22 653.91 284.32"/><polyline class="cls-16" points="653.91 284.32 653.27 285.43 652.76 286.57 652.34 287.8"/><polyline class="cls-16" points="652.34 287.8 652.04 289.03 651.79 290.26"/><line class="cls-16" x1="651.79" y1="290.26" x2="651.7" y2="291.36"/><line class="cls-16" x1="651.7" y1="291.36" x2="651.66" y2="292.42"/><line class="cls-16" x1="667.56" y1="260.63" x2="651.66" y2="260.63"/><line class="cls-16" x1="667.56" y1="261.35" x2="651.66" y2="261.35"/><line class="cls-16" x1="651.66" y1="260.63" x2="651.66" y2="261.35"/><line class="cls-16" x1="667.56" y1="261.35" x2="667.56" y2="260.63"/><polyline class="cls-16" points="667.56 276.52 667.47 276.52 666.2 276.48"/><line class="cls-16" x1="666.2" y1="276.48" x2="664.93" y2="276.31"/><polyline class="cls-16" points="664.93 276.31 663.7 276.06 662.47 275.72 661.28 275.25 660.14 274.7"/><polyline class="cls-16" points="660.14 274.7 659.04 274.06 657.98 273.35 657 272.54"/><polyline class="cls-16" points="657 272.54 656.11 271.65 655.26 270.72 654.5 269.7"/><polyline class="cls-16" points="654.5 269.7 653.82 268.6 653.23 267.5"/><line class="cls-16" x1="653.23" y1="267.5" x2="652.72" y2="266.31"/><polyline class="cls-16" points="652.72 266.31 652.3 265.12 652 263.89"/><polyline class="cls-16" points="652 263.89 651.79 262.62 651.71 261.65"/><line class="cls-16" x1="651.7" y1="261.65" x2="651.66" y2="260.63"/><polyline class="cls-16" points="667.56 260.5 667.22 260.5 667.22 258.76"/><line class="cls-16" x1="667.56" y1="258.76" x2="667.22" y2="258.76"/><line class="cls-16" x1="667.56" y1="292.55" x2="667.22" y2="292.55"/><line class="cls-16" x1="667.22" y1="294.28" x2="667.22" y2="292.54"/><line class="cls-16" x1="667.56" y1="294.28" x2="667.22" y2="294.28"/><line class="cls-16" x1="669.93" y1="292.55" x2="670.27" y2="292.55"/><line class="cls-16" x1="670.27" y1="294.28" x2="670.27" y2="292.54"/><line class="cls-16" x1="669.93" y1="294.28" x2="670.27" y2="294.28"/><line class="cls-16" x1="669.93" y1="260.5" x2="670.27" y2="260.5"/><line class="cls-16" x1="670.27" y1="260.5" x2="670.27" y2="258.76"/><line class="cls-16" x1="669.93" y1="258.76" x2="670.27" y2="258.76"/><rect class="cls-13" x="667.81" y="292.97" width="1.86" height="1.23"/><line class="cls-14" x1="667.79" y1="292.97" x2="667.79" y2="294.2"/><line class="cls-14" x1="669.65" y1="294.2" x2="669.65" y2="292.97"/></g><line class="cls-3" x1="758.9" y1="230.96" x2="669.63" y2="230.96"/><line class="cls-16" x1="669.63" y1="255.96" x2="669.63" y2="211.71"/></g></g></svg>