<svg id="图层_1" data-name="图层 1" xmlns="http://www.w3.org/2000/svg" viewBox="0 0 1008 504"><defs><style>.cls-1,.cls-9{fill:#fff;}.cls-2,.cls-5,.cls-6,.cls-7{fill:none;stroke-linecap:round;stroke-linejoin:bevel;}.cls-2,.cls-5,.cls-7{stroke:#040000;}.cls-2,.cls-6{stroke-width:0.15px;}.cls-10,.cls-3,.cls-4,.cls-8{fill:#040000;}.cls-10,.cls-4{opacity:0.88;}.cls-5{stroke-width:0.3px;}.cls-6{stroke:#4b4b4b;}.cls-7{stroke-width:0.23px;}.cls-8{font-size:3.93px;font-family:CenturyGothic-Bold, Century Gothic;font-weight:700;}.cls-9{fill-rule:evenodd;}.cls-10{font-size:7px;font-family:CenturyGothic, Century Gothic;}</style></defs><g id="Lower_Level" data-name="Lower Level"><rect class="cls-1" x="413.16" y="279.6" width="10.17" height="13.46"/><line class="cls-2" x1="423.33" y1="279.6" x2="413.16" y2="279.6"/><line class="cls-2" x1="413.16" y1="279.6" x2="413.16" y2="293.05"/><line class="cls-2" x1="413.16" y1="293.05" x2="423.33" y2="293.05"/><line class="cls-2" x1="423.33" y1="293.05" x2="423.33" y2="279.6"/><rect class="cls-3" x="658.4" y="266.06" width="3.78" height="124.73"/><rect class="cls-3" x="565.79" y="266.06" width="92.61" height="3.78"/><rect class="cls-3" x="297.43" y="399.3" width="109.61" height="3.78"/><rect class="cls-3" x="533.4" y="274.68" width="26.72" height="1.66"/><rect class="cls-3" x="297.65" y="346.39" width="1.66" height="54.69"/><rect class="cls-3" x="297.65" y="251.44" width="1.66" height="94.95"/><rect class="cls-3" x="297.65" y="173.6" width="1.66" height="77.84"/><rect class="cls-3" x="297.43" y="169.68" width="53.53" height="3.78"/><rect class="cls-3" x="350.68" y="169.68" width="95.33" height="3.78"/><rect class="cls-3" x="446.01" y="169.68" width="116" height="3.78"/><rect class="cls-3" x="299.32" y="321.36" width="66.37" height="2.57"/><rect class="cls-3" x="320.65" y="298.72" width="32.43" height="2.57"/><rect class="cls-3" x="348.68" y="278.84" width="1.89" height="22.57"/><rect class="cls-3" x="486.42" y="390.8" width="1.63" height="13"/><rect class="cls-4" x="474.25" y="276.23" width="29.86" height="2.61"/><rect class="cls-3" x="407.04" y="399.3" width="3.78" height="8.5"/><rect class="cls-3" x="410.82" y="404.03" width="77.49" height="3.78"/><rect class="cls-3" x="488.31" y="392.69" width="3.78" height="15.12"/><rect class="cls-3" x="560.12" y="171.57" width="1.63" height="67.88"/><rect class="cls-3" x="560.12" y="239.15" width="1.63" height="37.42"/><rect class="cls-3" x="492.09" y="392.69" width="41.58" height="3.78"/><rect class="cls-4" x="412.71" y="313.8" width="91.4" height="2.57"/><rect class="cls-3" x="502.48" y="278.84" width="1.63" height="34.96"/><rect class="cls-3" x="364.03" y="399.08" width="1.66" height="0.23"/><rect class="cls-3" x="531.77" y="274.68" width="1.63" height="118.01"/><rect class="cls-3" x="488.04" y="390.8" width="43.73" height="1.66"/><rect class="cls-3" x="299.32" y="276.23" width="68.91" height="2.61"/><rect class="cls-3" x="651.29" y="387.02" width="7.11" height="3.78"/><rect class="cls-3" x="537.44" y="387.02" width="10.85" height="3.78"/><rect class="cls-3" x="299.32" y="397.41" width="111.73" height="1.66"/><rect class="cls-3" x="533.4" y="276.57" width="28.61" height="3.78"/><rect class="cls-3" x="411.05" y="278.84" width="1.66" height="15.46"/><rect class="cls-4" x="411.05" y="276.23" width="63.2" height="2.61"/><rect class="cls-3" x="293.65" y="346.39" width="3.78" height="56.7"/><rect class="cls-3" x="293.65" y="251.44" width="3.78" height="94.95"/><rect class="cls-3" x="293.65" y="169.68" width="3.78" height="81.76"/><rect class="cls-3" x="299.04" y="173.69" width="51.92" height="1.66"/><rect class="cls-3" x="350.68" y="173.69" width="95.33" height="1.66"/><rect class="cls-3" x="446.01" y="173.69" width="114.11" height="1.66"/><rect class="cls-3" x="562.01" y="169.68" width="3.78" height="69.77"/><rect class="cls-3" x="562.01" y="239.15" width="3.78" height="41.2"/><rect class="cls-3" x="533.66" y="280.35" width="3.78" height="116.12"/><line class="cls-5" x1="662.18" y1="390.8" x2="662.18" y2="266.06"/><line class="cls-5" x1="662.18" y1="266.06" x2="658.4" y2="266.06"/><line class="cls-5" x1="662.18" y1="266.06" x2="658.4" y2="266.06"/><line class="cls-5" x1="658.4" y1="390.8" x2="662.18" y2="390.8"/><line class="cls-5" x1="662.18" y1="390.8" x2="658.4" y2="390.8"/><line class="cls-5" x1="658.4" y1="269.84" x2="658.4" y2="387.02"/><line class="cls-5" x1="658.4" y1="266.06" x2="565.79" y2="266.06"/><line class="cls-5" x1="565.79" y1="269.84" x2="658.4" y2="269.84"/><line class="cls-5" x1="297.43" y1="403.08" x2="407.04" y2="403.08"/><line class="cls-5" x1="407.04" y1="399.3" x2="297.43" y2="399.3"/><line class="cls-5" x1="533.4" y1="276.35" x2="560.12" y2="276.35"/><line class="cls-5" x1="560.12" y1="274.68" x2="533.4" y2="274.68"/><line class="cls-5" x1="297.65" y1="346.39" x2="297.65" y2="401.07"/><line class="cls-5" x1="297.65" y1="251.44" x2="297.65" y2="346.39"/><line class="cls-5" x1="297.65" y1="173.6" x2="297.65" y2="251.44"/><line class="cls-5" x1="297.65" y1="399.08" x2="299.32" y2="399.08"/><line class="cls-5" x1="299.32" y1="173.69" x2="297.65" y2="173.69"/><line class="cls-5" x1="299.32" y1="397.34" x2="299.32" y2="346.39"/><line class="cls-5" x1="299.32" y1="346.39" x2="299.32" y2="323.93"/><line class="cls-5" x1="299.32" y1="321.36" x2="299.32" y2="278.84"/><line class="cls-5" x1="299.32" y1="276.23" x2="299.32" y2="251.44"/><line class="cls-5" x1="299.32" y1="251.44" x2="299.32" y2="174.81"/><line class="cls-5" x1="350.96" y1="169.68" x2="297.43" y2="169.68"/><line class="cls-5" x1="446.01" y1="169.68" x2="350.68" y2="169.68"/><line class="cls-5" x1="562.01" y1="169.68" x2="446.01" y2="169.68"/><line class="cls-5" x1="297.43" y1="173.46" x2="350.96" y2="173.46"/><line class="cls-5" x1="350.68" y1="173.46" x2="446.01" y2="173.46"/><line class="cls-5" x1="446.01" y1="173.46" x2="562.01" y2="173.46"/><line class="cls-5" x1="299.32" y1="323.93" x2="364.03" y2="323.93"/><line class="cls-5" x1="365.69" y1="323.93" x2="365.69" y2="321.36"/><line class="cls-5" x1="365.69" y1="321.36" x2="299.32" y2="321.36"/><line class="cls-6" x1="348.45" y1="295.96" x2="348.45" y2="299.74"/><line class="cls-6" x1="350.57" y1="295.96" x2="350.57" y2="301.86"/><line class="cls-5" x1="486.42" y1="390.8" x2="486.42" y2="402.14"/><line class="cls-5" x1="486.42" y1="403.8" x2="488.04" y2="403.8"/><line class="cls-5" x1="488.04" y1="390.8" x2="486.42" y2="390.8"/><line class="cls-5" x1="488.04" y1="403.8" x2="488.04" y2="392.46"/><line class="cls-5" x1="504.11" y1="276.23" x2="475.08" y2="276.23"/><line class="cls-5" x1="504.11" y1="278.84" x2="504.11" y2="277.9"/><line class="cls-5" x1="474.25" y1="278.84" x2="502.48" y2="278.84"/><line class="cls-5" x1="407.04" y1="403.08" x2="407.04" y2="407.81"/><line class="cls-5" x1="407.04" y1="407.81" x2="410.82" y2="407.81"/><line class="cls-5" x1="407.04" y1="407.81" x2="410.82" y2="407.81"/><line class="cls-5" x1="410.82" y1="399.3" x2="407.04" y2="399.3"/><line class="cls-5" x1="407.04" y1="399.3" x2="410.82" y2="399.3"/><line class="cls-5" x1="410.82" y1="404.03" x2="410.82" y2="399.3"/><line class="cls-5" x1="410.82" y1="407.81" x2="488.31" y2="407.81"/><line class="cls-5" x1="488.31" y1="404.03" x2="410.82" y2="404.03"/><line class="cls-5" x1="492.09" y1="407.81" x2="492.09" y2="396.47"/><line class="cls-5" x1="492.09" y1="392.69" x2="488.31" y2="392.69"/><line class="cls-5" x1="492.09" y1="392.69" x2="488.31" y2="392.69"/><line class="cls-5" x1="488.31" y1="407.81" x2="492.09" y2="407.81"/><line class="cls-5" x1="492.09" y1="407.81" x2="488.31" y2="407.81"/><line class="cls-5" x1="488.31" y1="392.69" x2="488.31" y2="404.03"/><line class="cls-5" x1="561.75" y1="239.44" x2="561.75" y2="171.57"/><line class="cls-5" x1="561.75" y1="276.57" x2="561.75" y2="239.15"/><line class="cls-5" x1="561.75" y1="173.46" x2="560.12" y2="173.46"/><line class="cls-5" x1="560.12" y1="276.57" x2="561.75" y2="276.57"/><line class="cls-5" x1="560.12" y1="173.46" x2="560.12" y2="173.69"/><line class="cls-5" x1="560.12" y1="175" x2="560.12" y2="239.44"/><line class="cls-5" x1="560.12" y1="239.15" x2="560.12" y2="274.68"/><line class="cls-5" x1="560.12" y1="276.35" x2="560.12" y2="276.57"/><line class="cls-5" x1="492.09" y1="396.47" x2="533.66" y2="396.47"/><line class="cls-5" x1="533.66" y1="392.69" x2="492.09" y2="392.69"/><line class="cls-5" x1="412.71" y1="316.37" x2="504.11" y2="316.37"/><line class="cls-5" x1="504.11" y1="314.75" x2="504.11" y2="313.8"/><line class="cls-5" x1="502.48" y1="313.8" x2="412.71" y2="313.8"/><line class="cls-5" x1="504.11" y1="313.8" x2="504.11" y2="297.74"/><line class="cls-5" x1="504.11" y1="296.08" x2="504.11" y2="278.84"/><line class="cls-5" x1="502.48" y1="278.84" x2="502.48" y2="313.8"/><line class="cls-5" x1="364.03" y1="399.08" x2="364.03" y2="399.3"/><line class="cls-5" x1="364.03" y1="399.3" x2="365.69" y2="399.3"/><line class="cls-5" x1="365.69" y1="399.3" x2="365.69" y2="399.08"/><line class="cls-5" x1="533.4" y1="392.69" x2="533.4" y2="276.35"/><line class="cls-5" x1="533.4" y1="274.68" x2="531.77" y2="274.68"/><line class="cls-5" x1="531.77" y1="392.69" x2="533.4" y2="392.69"/><line class="cls-5" x1="531.77" y1="274.68" x2="531.77" y2="276.23"/><line class="cls-5" x1="531.77" y1="277.9" x2="531.77" y2="296.08"/><line class="cls-5" x1="531.77" y1="297.74" x2="531.77" y2="314.75"/><line class="cls-5" x1="531.77" y1="316.37" x2="531.77" y2="390.8"/><line class="cls-5" x1="531.77" y1="392.46" x2="531.77" y2="392.69"/><line class="cls-5" x1="531.77" y1="390.8" x2="488.04" y2="390.8"/><line class="cls-5" x1="488.04" y1="392.46" x2="531.77" y2="392.46"/><line class="cls-5" x1="299.32" y1="278.84" x2="368.22" y2="278.84"/><line class="cls-5" x1="368.22" y1="278.84" x2="368.22" y2="276.23"/><line class="cls-5" x1="368.22" y1="276.23" x2="299.32" y2="276.23"/><line class="cls-5" x1="651.29" y1="390.8" x2="658.4" y2="390.8"/><line class="cls-5" x1="537.44" y1="390.8" x2="548.29" y2="390.8"/><line class="cls-5" x1="651.29" y1="390.8" x2="651.29" y2="387.02"/><line class="cls-5" x1="548.29" y1="390.8" x2="548.29" y2="387.02"/><line class="cls-5" x1="658.4" y1="387.02" x2="651.29" y2="387.02"/><line class="cls-5" x1="548.29" y1="387.02" x2="537.44" y2="387.02"/><line class="cls-5" x1="299.32" y1="399.08" x2="364.03" y2="399.08"/><line class="cls-5" x1="365.69" y1="399.08" x2="411.05" y2="399.08"/><line class="cls-5" x1="411.05" y1="397.41" x2="365.69" y2="397.41"/><line class="cls-5" x1="411.05" y1="397.41" x2="299.32" y2="397.41"/><line class="cls-5" x1="562.01" y1="276.57" x2="533.4" y2="276.57"/><line class="cls-5" x1="533.4" y1="276.57" x2="533.4" y2="280.35"/><line class="cls-5" x1="533.4" y1="280.35" x2="533.66" y2="280.35"/><line class="cls-5" x1="537.44" y1="280.35" x2="562.01" y2="280.35"/><line class="cls-5" x1="411.05" y1="397.41" x2="411.05" y2="404.03"/><line class="cls-5" x1="411.05" y1="278.84" x2="411.05" y2="294.3"/><line class="cls-5" x1="411.05" y1="312.03" x2="412.71" y2="312.03"/><line class="cls-5" x1="411.05" y1="294.3" x2="412.71" y2="294.3"/><line class="cls-5" x1="411.05" y1="404.03" x2="412.71" y2="404.03"/><line class="cls-5" x1="412.71" y1="404.03" x2="412.71" y2="403.8"/><line class="cls-5" x1="412.71" y1="313.8" x2="412.71" y2="312.03"/><line class="cls-5" x1="412.71" y1="294.3" x2="412.71" y2="278.84"/><line class="cls-6" x1="410.82" y1="294.3" x2="410.82" y2="294.64"/><line class="cls-6" x1="412.94" y1="294.3" x2="412.94" y2="294.64"/><line class="cls-6" x1="410.82" y1="294.3" x2="412.94" y2="294.3"/><line class="cls-6" x1="410.82" y1="294.64" x2="412.94" y2="294.64"/><line class="cls-6" x1="410.82" y1="311.65" x2="410.82" y2="312.03"/><line class="cls-6" x1="412.94" y1="311.65" x2="412.94" y2="312.03"/><line class="cls-6" x1="410.82" y1="311.65" x2="412.94" y2="311.65"/><line class="cls-6" x1="410.82" y1="312.03" x2="412.94" y2="312.03"/><line class="cls-6" x1="412.94" y1="311.65" x2="429.95" y2="311.65"/><line class="cls-6" x1="412.94" y1="311.01" x2="429.95" y2="311.01"/><line class="cls-6" x1="429.95" y1="311.65" x2="429.95" y2="311.01"/><line class="cls-6" x1="412.94" y1="311.01" x2="412.94" y2="311.65"/><line class="cls-6" x1="412.94" y1="294.64" x2="414" y2="294.68"/><line class="cls-6" x1="414" y1="294.68" x2="415.13" y2="294.79"/><line class="cls-6" x1="415.13" y1="294.79" x2="416.26" y2="294.98"/><line class="cls-6" x1="416.26" y1="294.98" x2="417.36" y2="295.24"/><line class="cls-6" x1="417.36" y1="295.24" x2="418.46" y2="295.58"/><line class="cls-6" x1="418.46" y1="295.58" x2="419.51" y2="295.96"/><line class="cls-6" x1="419.51" y1="295.96" x2="420.53" y2="296.45"/><line class="cls-6" x1="420.53" y1="296.45" x2="421.52" y2="296.98"/><line class="cls-6" x1="421.52" y1="296.98" x2="422.5" y2="297.59"/><line class="cls-6" x1="422.5" y1="297.59" x2="423.41" y2="298.27"/><line class="cls-6" x1="423.41" y1="298.27" x2="424.28" y2="298.99"/><line class="cls-6" x1="424.28" y1="298.99" x2="425.11" y2="299.78"/><line class="cls-6" x1="425.11" y1="299.78" x2="425.86" y2="300.61"/><line class="cls-6" x1="425.86" y1="300.61" x2="426.58" y2="301.48"/><line class="cls-6" x1="426.58" y1="301.48" x2="427.22" y2="302.43"/><line class="cls-6" x1="427.22" y1="302.43" x2="427.79" y2="303.41"/><line class="cls-6" x1="427.79" y1="303.41" x2="428.32" y2="304.39"/><line class="cls-6" x1="428.32" y1="304.39" x2="428.77" y2="305.45"/><line class="cls-6" x1="428.77" y1="305.45" x2="429.15" y2="306.51"/><line class="cls-6" x1="429.15" y1="306.51" x2="429.45" y2="307.6"/><line class="cls-6" x1="429.45" y1="307.6" x2="429.68" y2="308.7"/><line class="cls-6" x1="429.68" y1="308.7" x2="429.83" y2="309.83"/><line class="cls-6" x1="429.83" y1="309.83" x2="429.91" y2="310.97"/><line class="cls-6" x1="429.91" y1="310.97" x2="429.95" y2="311.65"/><line class="cls-2" x1="410.82" y1="294.53" x2="410.52" y2="294.53"/><line class="cls-2" x1="410.52" y1="294.53" x2="410.52" y2="293.01"/><line class="cls-2" x1="410.82" y1="293.01" x2="410.52" y2="293.01"/><line class="cls-2" x1="410.82" y1="311.8" x2="410.52" y2="311.8"/><line class="cls-2" x1="410.52" y1="313.31" x2="410.52" y2="311.8"/><line class="cls-2" x1="410.82" y1="313.31" x2="410.52" y2="313.31"/><line class="cls-2" x1="412.94" y1="311.8" x2="413.24" y2="311.8"/><line class="cls-2" x1="413.24" y1="313.31" x2="413.24" y2="311.8"/><line class="cls-2" x1="412.94" y1="313.31" x2="413.24" y2="313.31"/><line class="cls-2" x1="412.94" y1="294.53" x2="413.24" y2="294.53"/><line class="cls-2" x1="413.24" y1="294.53" x2="413.24" y2="293.01"/><line class="cls-2" x1="412.94" y1="293.01" x2="413.24" y2="293.01"/><line class="cls-5" x1="412.71" y1="278.84" x2="474.25" y2="278.84"/><line class="cls-5" x1="411.05" y1="276.23" x2="411.05" y2="278.84"/><line class="cls-5" x1="473.41" y1="276.23" x2="411.05" y2="276.23"/><line class="cls-2" x1="475.3" y1="175.58" x2="475.61" y2="175.58"/><line class="cls-2" x1="473.19" y1="175.58" x2="472.88" y2="175.58"/><line class="cls-5" x1="411.05" y1="403.8" x2="486.42" y2="403.8"/><line class="cls-5" x1="293.65" y1="346.39" x2="293.65" y2="403.08"/><line class="cls-5" x1="293.65" y1="251.44" x2="293.65" y2="346.39"/><line class="cls-5" x1="293.65" y1="169.68" x2="293.65" y2="251.44"/><line class="cls-5" x1="293.65" y1="403.08" x2="297.43" y2="403.08"/><line class="cls-5" x1="293.65" y1="403.08" x2="297.43" y2="403.08"/><line class="cls-5" x1="297.43" y1="169.68" x2="293.65" y2="169.68"/><line class="cls-5" x1="293.65" y1="169.68" x2="297.43" y2="169.68"/><line class="cls-5" x1="297.43" y1="401.58" x2="297.43" y2="346.39"/><line class="cls-5" x1="297.43" y1="346.39" x2="297.43" y2="251.44"/><line class="cls-5" x1="297.43" y1="251.44" x2="297.43" y2="172.94"/><line class="cls-5" x1="350.96" y1="173.69" x2="299.04" y2="173.69"/><line class="cls-5" x1="446.01" y1="173.69" x2="350.68" y2="173.69"/><line class="cls-5" x1="560.12" y1="173.69" x2="446.01" y2="173.69"/><line class="cls-5" x1="299.04" y1="175.35" x2="350.96" y2="175.35"/><line class="cls-5" x1="350.68" y1="175.35" x2="446.01" y2="175.35"/><line class="cls-5" x1="446.01" y1="175.35" x2="473.41" y2="175.35"/><line class="cls-5" x1="475.08" y1="175.35" x2="560.12" y2="175.35"/><line class="cls-5" x1="565.79" y1="239.44" x2="565.79" y2="169.68"/><line class="cls-5" x1="565.79" y1="280.35" x2="565.79" y2="269.84"/><line class="cls-5" x1="565.79" y1="266.06" x2="565.79" y2="239.15"/><line class="cls-5" x1="565.79" y1="169.68" x2="562.01" y2="169.68"/><line class="cls-5" x1="565.79" y1="169.68" x2="562.01" y2="169.68"/><line class="cls-5" x1="562.01" y1="280.35" x2="565.79" y2="280.35"/><line class="cls-5" x1="565.79" y1="280.35" x2="562.01" y2="280.35"/><line class="cls-5" x1="562.01" y1="171.57" x2="562.01" y2="239.44"/><line class="cls-5" x1="562.01" y1="239.15" x2="562.01" y2="276.57"/><line class="cls-5" x1="537.44" y1="396.47" x2="537.44" y2="390.8"/><line class="cls-5" x1="537.44" y1="387.02" x2="537.44" y2="280.35"/><line class="cls-5" x1="533.66" y1="396.47" x2="537.44" y2="396.47"/><line class="cls-5" x1="537.44" y1="396.47" x2="533.66" y2="396.47"/><line class="cls-5" x1="533.66" y1="280.35" x2="533.66" y2="392.69"/><line class="cls-6" x1="320.29" y1="299.74" x2="325.51" y2="299.74"/><line class="cls-6" x1="328.23" y1="299.74" x2="333.67" y2="299.74"/><line class="cls-6" x1="336.4" y1="299.74" x2="348.45" y2="299.74"/><line class="cls-6" x1="318.14" y1="301.86" x2="325.51" y2="301.86"/><line class="cls-6" x1="328.23" y1="301.86" x2="333.67" y2="301.86"/><line class="cls-6" x1="336.4" y1="301.86" x2="347.28" y2="301.86"/><line class="cls-6" x1="350.57" y1="301.86" x2="349.13" y2="301.86"/><line class="cls-6" x1="318.14" y1="279.07" x2="318.14" y2="286.14"/><line class="cls-6" x1="318.14" y1="288.86" x2="318.14" y2="294.3"/><line class="cls-6" x1="318.14" y1="297.02" x2="318.14" y2="301.86"/><line class="cls-6" x1="320.29" y1="279.07" x2="320.29" y2="286.14"/><line class="cls-6" x1="320.29" y1="288.86" x2="320.29" y2="294.3"/><line class="cls-6" x1="320.29" y1="297.02" x2="320.29" y2="299.74"/><line class="cls-7" x1="353.4" y1="321.1" x2="358.13" y2="321.1"/><line class="cls-7" x1="358.13" y1="321.1" x2="358.13" y2="301.41"/><line class="cls-7" x1="358.13" y1="301.41" x2="353.4" y2="301.41"/><line class="cls-7" x1="348.68" y1="321.1" x2="353.4" y2="321.1"/><line class="cls-7" x1="353.4" y1="321.1" x2="353.4" y2="301.41"/><line class="cls-7" x1="353.4" y1="301.41" x2="348.68" y2="301.41"/><line class="cls-7" x1="343.96" y1="321.1" x2="348.68" y2="321.1"/><line class="cls-7" x1="348.68" y1="321.1" x2="348.68" y2="301.41"/><line class="cls-7" x1="348.68" y1="301.41" x2="343.96" y2="301.41"/><line class="cls-7" x1="339.23" y1="321.1" x2="343.96" y2="321.1"/><line class="cls-7" x1="343.96" y1="321.1" x2="343.96" y2="301.41"/><line class="cls-7" x1="343.96" y1="301.41" x2="339.23" y2="301.41"/><line class="cls-7" x1="334.51" y1="321.1" x2="339.23" y2="321.1"/><line class="cls-7" x1="339.23" y1="321.1" x2="339.23" y2="301.41"/><line class="cls-7" x1="339.23" y1="301.41" x2="334.51" y2="301.41"/><line class="cls-7" x1="329.78" y1="321.1" x2="334.51" y2="321.1"/><line class="cls-7" x1="334.51" y1="321.1" x2="334.51" y2="301.41"/><line class="cls-7" x1="334.51" y1="301.41" x2="329.78" y2="301.41"/><line class="cls-7" x1="325.06" y1="321.1" x2="329.78" y2="321.1"/><line class="cls-7" x1="329.78" y1="321.1" x2="329.78" y2="301.41"/><line class="cls-7" x1="329.78" y1="301.41" x2="325.06" y2="301.41"/><line class="cls-7" x1="320.33" y1="321.1" x2="325.06" y2="321.1"/><line class="cls-7" x1="325.06" y1="321.1" x2="325.06" y2="301.41"/><line class="cls-7" x1="325.06" y1="301.41" x2="320.33" y2="301.41"/><line class="cls-7" x1="320.33" y1="321.1" x2="320.33" y2="301.41"/><rect class="cls-1" x="350.57" y="309.12" width="4.72" height="4.65"/><text class="cls-8" transform="translate(350.57 312.97)">U</text><text class="cls-8" transform="translate(353.1 312.97)">P</text><line class="cls-2" x1="347.74" y1="311.27" x2="324.57" y2="311.27"/><polygon class="cls-9" points="324.56 311.27 327.89 310.33 327.55 312.22 324.56 311.27"/><line class="cls-2" x1="324.57" y1="311.27" x2="327.89" y2="310.33"/><line class="cls-2" x1="327.89" y1="310.33" x2="327.55" y2="312.22"/><line class="cls-2" x1="327.55" y1="312.22" x2="324.57" y2="311.27"/><line class="cls-7" x1="320.33" y1="300.2" x2="320.33" y2="321.1"/><line class="cls-7" x1="320.33" y1="321.1" x2="299.54" y2="321.1"/><line class="cls-7" x1="299.54" y1="321.1" x2="299.54" y2="279.07"/><line class="cls-7" x1="299.54" y1="279.07" x2="320.33" y2="279.07"/><line class="cls-7" x1="320.33" y1="279.07" x2="320.33" y2="299.97"/><line class="cls-7" x1="320.33" y1="299.97" x2="320.33" y2="300.2"/><line class="cls-7" x1="325.06" y1="279.07" x2="320.33" y2="279.07"/><line class="cls-7" x1="320.33" y1="279.07" x2="320.33" y2="298.8"/><line class="cls-7" x1="320.33" y1="298.8" x2="325.06" y2="298.8"/><line class="cls-7" x1="329.78" y1="279.07" x2="325.06" y2="279.07"/><line class="cls-7" x1="325.06" y1="279.07" x2="325.06" y2="298.8"/><line class="cls-7" x1="325.06" y1="298.8" x2="329.78" y2="298.8"/><line class="cls-7" x1="334.51" y1="279.07" x2="329.78" y2="279.07"/><line class="cls-7" x1="329.78" y1="279.07" x2="329.78" y2="298.8"/><line class="cls-7" x1="329.78" y1="298.8" x2="334.51" y2="298.8"/><line class="cls-7" x1="339.23" y1="279.07" x2="334.51" y2="279.07"/><line class="cls-7" x1="334.51" y1="279.07" x2="334.51" y2="298.8"/><line class="cls-7" x1="334.51" y1="298.8" x2="339.23" y2="298.8"/><line class="cls-7" x1="343.96" y1="279.07" x2="339.23" y2="279.07"/><line class="cls-7" x1="339.23" y1="279.07" x2="339.23" y2="298.8"/><line class="cls-7" x1="339.23" y1="298.8" x2="343.96" y2="298.8"/><line class="cls-7" x1="348.68" y1="279.07" x2="343.96" y2="279.07"/><line class="cls-7" x1="343.96" y1="279.07" x2="343.96" y2="298.8"/><line class="cls-7" x1="343.96" y1="298.8" x2="348.68" y2="298.8"/><line class="cls-7" x1="348.68" y1="279.07" x2="348.68" y2="298.8"/><line class="cls-2" x1="466.57" y1="316.37" x2="475.08" y2="316.37"/><line class="cls-2" x1="431.12" y1="316.37" x2="439.62" y2="316.37"/><rect class="cls-4" x="411.05" y="312.03" width="1.66" height="4.49"/><line class="cls-2" x1="410.82" y1="312.03" x2="410.82" y2="316.51"/><line class="cls-2" x1="411.05" y1="312.03" x2="411.05" y2="316.51"/><text class="cls-10" transform="translate(451.85 298.99)">UTILITY</text><text class="cls-10" transform="translate(580.63 332.04)">UNEXCAVATED</text></g></svg>