
<svg id="图层_1" data-name="图层 1" xmlns="http://www.w3.org/2000/svg" viewBox="0 0 1008 504"><defs><style>.cls-1,.cls-4{fill:#fff;}.cls-10,.cls-11,.cls-12,.cls-13,.cls-2,.cls-3,.cls-6,.cls-7,.cls-8,.cls-9{fill:none;stroke:#0c5275;stroke-linejoin:bevel;}.cls-10,.cls-11,.cls-12,.cls-13,.cls-2,.cls-6,.cls-7,.cls-8,.cls-9{stroke-linecap:round;}.cls-2{stroke-width:0.23px;}.cls-3{stroke-width:0;}.cls-4{fill-rule:evenodd;}.cls-5{fill:#0c5275;}.cls-10,.cls-12,.cls-13,.cls-6,.cls-7,.cls-8,.cls-9{stroke-width:0.3px;}.cls-6{stroke-dasharray:2.83;}.cls-7{stroke-dasharray:1.89;}.cls-8{stroke-dasharray:2.61;}.cls-9{stroke-dasharray:0.26;}.cls-10{stroke-dasharray:4.46;}.cls-11{stroke-width:0.15px;}.cls-12{stroke-dasharray:2.57;}.cls-13{stroke-dasharray:0.23;}</style></defs><g id="merlot-IFP_main_floor" data-name="merlot-IFP main floor"><g id="BREAKFAST-1"><rect class="cls-1" x="471.58" y="167.67" width="53.48" height="8.39"/><g id="opt.BREAKFAST-1"><line class="cls-2" x1="521.36" y1="157.25" x2="523.18" y2="157.25"/><line class="cls-2" x1="471.89" y1="157.25" x2="473.32" y2="157.25"/><line class="cls-2" x1="471.89" y1="173.57" x2="471.66" y2="173.57"/><line class="cls-2" x1="471.89" y1="173.57" x2="471.66" y2="173.57"/><line class="cls-3" x1="525.71" y1="170.51" x2="525.97" y2="170.29"/><polygon class="cls-4" points="525.48 154.22 525.48 157.51 525.26 157.51 525.26 154.45 525.48 154.22"/><line class="cls-3" x1="525.26" y1="155.2" x2="525.48" y2="155.43"/><polygon class="cls-4" points="525.48 168.85 525.48 170.29 525.26 170.51 525.26 168.85 525.48 168.85"/><rect class="cls-5" x="522.35" y="154.68" width="2.61" height="2.83"/><rect class="cls-5" x="522.46" y="168.85" width="2.61" height="4.46"/><line class="cls-3" x1="469.81" y1="172.24" x2="469.62" y2="172.77"/><polygon class="cls-4" points="469.81 172.7 469.81 168.85 470.03 168.85 470.03 173.31 469.81 172.7"/><line class="cls-3" x1="469.81" y1="169.23" x2="470.03" y2="169.45"/><polygon class="cls-4" points="469.81 157.51 469.81 154.22 470.03 154.45 470.03 157.51 469.81 157.51"/><line class="cls-3" x1="469.81" y1="155.85" x2="470.03" y2="156.07"/><rect class="cls-5" x="470.26" y="168.85" width="2.57" height="4.46"/><rect class="cls-5" x="470.3" y="154.68" width="2.66" height="2.7"/><polygon class="cls-4" points="469.81 154.22 471.43 154.22 471.43 154.45 470.03 154.45 469.81 154.22"/><polygon class="cls-4" points="523.86 154.22 525.48 154.22 525.26 154.45 523.86 154.45 523.86 154.22"/><line class="cls-6" x1="525.07" y1="157.51" x2="525.07" y2="154.68"/><line class="cls-7" x1="525.07" y1="170.74" x2="525.07" y2="168.85"/><line class="cls-8" x1="525.07" y1="157.51" x2="522.46" y2="157.51"/><line class="cls-8" x1="525.07" y1="168.85" x2="522.46" y2="168.85"/><line class="cls-8" x1="525.07" y1="154.68" x2="522.46" y2="154.68"/><line class="cls-8" x1="522.46" y1="173.31" x2="525.07" y2="173.31"/><line class="cls-9" x1="522.46" y1="157.25" x2="522.46" y2="157.51"/><line class="cls-10" x1="522.46" y1="168.85" x2="522.46" y2="173.31"/><line class="cls-11" x1="525.48" y1="168.85" x2="525.48" y2="168.47"/><line class="cls-11" x1="522.23" y1="168.85" x2="522.23" y2="168.47"/><line class="cls-11" x1="525.48" y1="168.85" x2="522.23" y2="168.85"/><line class="cls-11" x1="525.48" y1="168.47" x2="522.23" y2="168.47"/><line class="cls-11" x1="525.48" y1="157.85" x2="525.48" y2="157.51"/><line class="cls-11" x1="522.23" y1="157.85" x2="522.23" y2="157.51"/><line class="cls-11" x1="525.48" y1="157.85" x2="522.23" y2="157.85"/><line class="cls-11" x1="525.48" y1="157.51" x2="522.23" y2="157.51"/><line class="cls-11" x1="524.92" y1="168.47" x2="524.92" y2="157.85"/><line class="cls-11" x1="524.54" y1="168.47" x2="524.54" y2="157.85"/><line class="cls-11" x1="525.48" y1="156.57" x2="526.31" y2="156.57"/><line class="cls-11" x1="526.31" y1="156.57" x2="526.31" y2="169.79"/><line class="cls-11" x1="525.48" y1="169.79" x2="526.31" y2="169.79"/><line class="cls-11" x1="525.48" y1="168.85" x2="525.86" y2="168.85"/><line class="cls-11" x1="525.86" y1="168.85" x2="525.86" y2="169.79"/><line class="cls-11" x1="525.48" y1="169.79" x2="525.86" y2="169.79"/><line class="cls-11" x1="525.48" y1="157.51" x2="525.86" y2="157.51"/><line class="cls-11" x1="525.86" y1="156.57" x2="525.86" y2="157.51"/><line class="cls-11" x1="525.48" y1="156.57" x2="525.86" y2="156.57"/><line class="cls-11" x1="522.23" y1="169.72" x2="521.44" y2="169.72"/><line class="cls-11" x1="521.44" y1="156.6" x2="521.44" y2="169.72"/><line class="cls-11" x1="522.23" y1="156.6" x2="521.44" y2="156.6"/><line class="cls-11" x1="522.23" y1="157.77" x2="521.93" y2="157.77"/><line class="cls-11" x1="521.93" y1="156.83" x2="521.93" y2="157.77"/><line class="cls-11" x1="522.23" y1="156.83" x2="521.93" y2="156.83"/><line class="cls-11" x1="522.23" y1="156.83" x2="522.23" y2="157.77"/><line class="cls-11" x1="522.23" y1="168.55" x2="521.93" y2="168.55"/><line class="cls-11" x1="521.93" y1="168.55" x2="521.93" y2="169.49"/><line class="cls-11" x1="522.23" y1="169.49" x2="521.93" y2="169.49"/><line class="cls-11" x1="522.23" y1="168.55" x2="522.23" y2="169.49"/><line class="cls-10" x1="470.26" y1="168.85" x2="470.26" y2="173.31"/><line class="cls-6" x1="470.26" y1="154.68" x2="470.26" y2="157.51"/><line class="cls-12" x1="470.26" y1="168.85" x2="472.83" y2="168.85"/><line class="cls-12" x1="470.26" y1="157.51" x2="472.83" y2="157.51"/><line class="cls-12" x1="470.26" y1="173.31" x2="472.83" y2="173.31"/><line class="cls-12" x1="472.83" y1="154.68" x2="470.26" y2="154.68"/><line class="cls-10" x1="472.83" y1="173.31" x2="472.83" y2="168.85"/><line class="cls-9" x1="472.83" y1="157.51" x2="472.83" y2="157.25"/><line class="cls-11" x1="469.81" y1="157.51" x2="469.81" y2="157.85"/><line class="cls-11" x1="473.09" y1="157.51" x2="473.09" y2="157.85"/><line class="cls-11" x1="469.81" y1="157.51" x2="473.09" y2="157.51"/><line class="cls-11" x1="469.81" y1="157.85" x2="473.09" y2="157.85"/><line class="cls-11" x1="469.81" y1="168.47" x2="469.81" y2="168.85"/><line class="cls-11" x1="473.09" y1="168.47" x2="473.09" y2="168.85"/><line class="cls-11" x1="469.81" y1="168.47" x2="473.09" y2="168.47"/><line class="cls-11" x1="469.81" y1="168.85" x2="473.09" y2="168.85"/><line class="cls-11" x1="470.37" y1="157.85" x2="470.37" y2="168.47"/><line class="cls-11" x1="470.75" y1="157.85" x2="470.75" y2="168.47"/><line class="cls-11" x1="469.81" y1="169.79" x2="468.97" y2="169.79"/><line class="cls-11" x1="468.97" y1="169.79" x2="468.97" y2="156.57"/><line class="cls-11" x1="469.81" y1="156.57" x2="468.97" y2="156.57"/><line class="cls-11" x1="469.81" y1="157.51" x2="469.43" y2="157.51"/><line class="cls-11" x1="469.43" y1="157.51" x2="469.43" y2="156.57"/><line class="cls-11" x1="469.81" y1="156.57" x2="469.43" y2="156.57"/><line class="cls-11" x1="469.81" y1="168.85" x2="469.43" y2="168.85"/><line class="cls-11" x1="469.43" y1="169.79" x2="469.43" y2="168.85"/><line class="cls-11" x1="469.81" y1="169.79" x2="469.43" y2="169.79"/><line class="cls-11" x1="473.09" y1="156.6" x2="473.85" y2="156.6"/><line class="cls-11" x1="473.85" y1="169.72" x2="473.85" y2="156.6"/><line class="cls-11" x1="473.09" y1="169.72" x2="473.85" y2="169.72"/><line class="cls-11" x1="473.09" y1="168.55" x2="473.36" y2="168.55"/><line class="cls-11" x1="473.36" y1="169.49" x2="473.36" y2="168.55"/><line class="cls-11" x1="473.09" y1="169.49" x2="473.36" y2="169.49"/><line class="cls-11" x1="473.09" y1="169.49" x2="473.09" y2="168.55"/><line class="cls-11" x1="473.09" y1="157.77" x2="473.36" y2="157.77"/><line class="cls-11" x1="473.36" y1="157.77" x2="473.36" y2="156.83"/><line class="cls-11" x1="473.09" y1="156.83" x2="473.36" y2="156.83"/><line class="cls-11" x1="473.09" y1="157.77" x2="473.09" y2="156.83"/><line class="cls-9" x1="473.09" y1="154.68" x2="472.83" y2="154.68"/><line class="cls-13" x1="522.46" y1="154.68" x2="522.23" y2="154.68"/><line class="cls-12" x1="473.09" y1="154.68" x2="473.09" y2="157.25"/><line class="cls-12" x1="522.23" y1="154.68" x2="522.23" y2="157.25"/><line class="cls-9" x1="472.83" y1="157.25" x2="473.09" y2="157.25"/><line class="cls-13" x1="522.23" y1="157.25" x2="522.46" y2="157.25"/><line class="cls-11" x1="487.27" y1="154.34" x2="487.27" y2="157.62"/><line class="cls-11" x1="473.09" y1="154.22" x2="487.27" y2="154.22"/><line class="cls-11" x1="487.27" y1="154.45" x2="486.89" y2="154.45"/><line class="cls-11" x1="487.27" y1="157.51" x2="486.89" y2="157.51"/><line class="cls-11" x1="487.27" y1="154.45" x2="487.27" y2="157.51"/><line class="cls-11" x1="486.89" y1="154.45" x2="486.89" y2="157.51"/><line class="cls-11" x1="473.44" y1="154.45" x2="473.09" y2="154.45"/><line class="cls-11" x1="473.44" y1="157.51" x2="473.09" y2="157.51"/><line class="cls-11" x1="473.44" y1="154.45" x2="473.44" y2="157.51"/><line class="cls-11" x1="473.09" y1="154.45" x2="473.09" y2="157.51"/><line class="cls-11" x1="486.89" y1="155.02" x2="473.44" y2="155.02"/><line class="cls-11" x1="486.89" y1="155.39" x2="473.44" y2="155.39"/><line class="cls-11" x1="487.27" y1="154.34" x2="487.27" y2="157.62"/><line class="cls-11" x1="508.06" y1="154.34" x2="508.06" y2="157.62"/><line class="cls-11" x1="487.27" y1="154.22" x2="508.06" y2="154.22"/><line class="cls-11" x1="508.06" y1="154.45" x2="507.68" y2="154.45"/><line class="cls-11" x1="508.06" y1="157.51" x2="507.68" y2="157.51"/><line class="cls-11" x1="508.06" y1="154.45" x2="508.06" y2="157.51"/><line class="cls-11" x1="507.68" y1="154.45" x2="507.68" y2="157.51"/><line class="cls-11" x1="487.61" y1="154.45" x2="487.27" y2="154.45"/><line class="cls-11" x1="487.61" y1="157.51" x2="487.27" y2="157.51"/><line class="cls-11" x1="487.61" y1="154.45" x2="487.61" y2="157.51"/><line class="cls-11" x1="487.27" y1="154.45" x2="487.27" y2="157.51"/><line class="cls-11" x1="507.68" y1="155.02" x2="487.61" y2="155.02"/><line class="cls-11" x1="507.68" y1="155.39" x2="487.61" y2="155.39"/><line class="cls-11" x1="508.06" y1="154.34" x2="508.06" y2="157.62"/><line class="cls-11" x1="508.06" y1="154.34" x2="508.06" y2="154.34"/><line class="cls-11" x1="508.06" y1="157.62" x2="508.06" y2="157.62"/><line class="cls-11" x1="508.06" y1="154.22" x2="522.23" y2="154.22"/><line class="cls-11" x1="522.23" y1="154.45" x2="521.85" y2="154.45"/><line class="cls-11" x1="522.23" y1="157.51" x2="521.85" y2="157.51"/><line class="cls-11" x1="522.23" y1="154.45" x2="522.23" y2="157.51"/><line class="cls-11" x1="521.85" y1="154.45" x2="521.85" y2="157.51"/><line class="cls-11" x1="508.4" y1="154.45" x2="508.06" y2="154.45"/><line class="cls-11" x1="508.4" y1="157.51" x2="508.06" y2="157.51"/><line class="cls-11" x1="508.4" y1="154.45" x2="508.4" y2="157.51"/><line class="cls-11" x1="508.06" y1="154.45" x2="508.06" y2="157.51"/><line class="cls-11" x1="521.85" y1="155.02" x2="508.4" y2="155.02"/><line class="cls-11" x1="521.85" y1="155.39" x2="508.4" y2="155.39"/><line class="cls-11" x1="522.23" y1="154.45" x2="522.23" y2="154.11"/><line class="cls-11" x1="522.23" y1="154.11" x2="523.86" y2="154.11"/><line class="cls-11" x1="523.86" y1="154.45" x2="523.86" y2="154.11"/><line class="cls-11" x1="473.09" y1="154.45" x2="473.09" y2="154.11"/><line class="cls-11" x1="471.43" y1="154.11" x2="473.09" y2="154.11"/><line class="cls-11" x1="471.43" y1="154.45" x2="471.43" y2="154.11"/><line class="cls-11" x1="523.71" y1="157.51" x2="523.71" y2="158.27"/><line class="cls-11" x1="471.58" y1="158.27" x2="523.71" y2="158.27"/><line class="cls-11" x1="471.58" y1="157.51" x2="471.58" y2="158.27"/><line class="cls-11" x1="473.36" y1="157.51" x2="473.36" y2="157.77"/><line class="cls-11" x1="471.85" y1="157.77" x2="473.36" y2="157.77"/><line class="cls-11" x1="471.85" y1="157.51" x2="471.85" y2="157.77"/><line class="cls-11" x1="471.85" y1="157.51" x2="473.36" y2="157.51"/><line class="cls-11" x1="521.93" y1="157.51" x2="521.93" y2="157.77"/><line class="cls-11" x1="521.93" y1="157.77" x2="523.44" y2="157.77"/><line class="cls-11" x1="523.44" y1="157.51" x2="523.44" y2="157.77"/><line class="cls-11" x1="521.93" y1="157.51" x2="523.44" y2="157.51"/></g></g></g></svg>