<svg id="图层_1" data-name="图层 1" xmlns="http://www.w3.org/2000/svg" viewBox="0 0 1008 504"><defs><style>.cls-1{fill:#fff;fill-rule:evenodd;}.cls-2{fill:none;stroke:#0c4f71;stroke-linecap:round;stroke-linejoin:bevel;stroke-width:0.15px;}</style></defs><g id="SITTING_ROOM-2" data-name="SITTING ROOM-2"><g id="SITTING_ROOM_FREE_STANDING_TUB-2" data-name="SITTING ROOM FREE STANDING TUB-2"><polygon class="cls-1" points="559.01 170.95 559.01 170.91 558.67 169.89 559.01 170.95"/><polygon class="cls-1" points="559.01 170.91 559.01 170.95 559.16 172 559.01 173.06 559.01 173.1 559.16 172 559.01 170.91"/><polygon class="cls-1" points="559.01 173.1 559.01 173.06 558.67 174.12 559.01 173.1"/><line class="cls-2" x1="559.01" y1="173.1" x2="559.16" y2="172"/><line class="cls-2" x1="559.16" y1="172" x2="559.01" y2="170.91"/><line class="cls-2" x1="559.01" y1="170.91" x2="558.67" y2="169.89"/><line class="cls-2" x1="558.67" y1="169.89" x2="559.01" y2="170.95"/><line class="cls-2" x1="559.01" y1="170.95" x2="559.16" y2="172"/><line class="cls-2" x1="559.16" y1="172" x2="559.01" y2="173.06"/><line class="cls-2" x1="559.01" y1="173.06" x2="558.67" y2="174.12"/><line class="cls-2" x1="558.67" y1="174.12" x2="559.01" y2="173.1"/><polygon class="cls-1" points="528.28 174.12 527.94 173.1 527.83 172 527.94 170.95 527.94 170.91 527.83 172 527.94 173.06 528.28 174.12"/><polygon class="cls-1" points="527.94 170.91 527.94 170.95 528.28 169.89 527.94 170.91"/><line class="cls-2" x1="527.94" y1="173.1" x2="527.83" y2="172"/><line class="cls-2" x1="527.83" y1="172" x2="527.94" y2="170.95"/><line class="cls-2" x1="527.94" y1="170.95" x2="528.28" y2="169.89"/><line class="cls-2" x1="528.28" y1="169.89" x2="527.94" y2="170.91"/><line class="cls-2" x1="527.94" y1="170.91" x2="527.83" y2="172"/><line class="cls-2" x1="527.83" y1="172" x2="527.94" y2="173.06"/><line class="cls-2" x1="527.94" y1="173.06" x2="528.28" y2="174.12"/><line class="cls-2" x1="528.28" y1="174.12" x2="527.94" y2="173.1"/><polygon class="cls-1" points="559.73 174.42 560.11 173.25 560.26 172 560.11 170.79 559.73 169.62 559.08 168.53 558.25 167.54 557.19 166.67 555.99 165.96 554.62 165.39 553.15 165.01 551.56 164.82 549.79 164.67 547.97 164.56 546.16 164.48 544.38 164.44 542.57 164.44 540.79 164.48 538.98 164.56 537.2 164.67 535.38 164.82 533.8 165.01 532.32 165.39 530.96 165.96 529.75 166.67 528.7 167.54 527.86 168.53 527.22 169.62 526.84 170.79 526.69 172 526.84 173.25 527.22 174.42 527.86 175.48 528.7 176.46 529.75 177.33 530.96 178.05 532.32 178.62 533.8 179 535.38 179.22 537.2 179.37 538.98 179.45 540.79 179.53 542.57 179.56 544.38 179.56 546.16 179.53 547.97 179.45 549.79 179.37 551.56 179.22 553.15 179 554.62 178.62 555.99 178.05 557.19 177.33 558.25 176.46 559.08 175.48 559.73 174.42"/><line class="cls-2" x1="560.1" y1="173.25" x2="560.26" y2="172"/><line class="cls-2" x1="560.26" y1="172" x2="560.1" y2="170.79"/><line class="cls-2" x1="560.1" y1="170.79" x2="559.73" y2="169.62"/><line class="cls-2" x1="559.73" y1="169.62" x2="559.08" y2="168.53"/><line class="cls-2" x1="559.08" y1="168.53" x2="558.25" y2="167.54"/><line class="cls-2" x1="558.25" y1="167.54" x2="557.19" y2="166.67"/><line class="cls-2" x1="557.19" y1="166.67" x2="555.98" y2="165.96"/><line class="cls-2" x1="555.98" y1="165.96" x2="554.62" y2="165.39"/><line class="cls-2" x1="554.62" y1="165.39" x2="553.15" y2="165.01"/><line class="cls-2" x1="553.15" y1="165.01" x2="551.56" y2="164.82"/><line class="cls-2" x1="551.56" y1="164.82" x2="549.79" y2="164.67"/><line class="cls-2" x1="549.79" y1="164.67" x2="547.97" y2="164.56"/><line class="cls-2" x1="547.97" y1="164.56" x2="546.16" y2="164.48"/><line class="cls-2" x1="546.16" y1="164.48" x2="544.38" y2="164.44"/><line class="cls-2" x1="544.38" y1="164.44" x2="542.57" y2="164.44"/><line class="cls-2" x1="542.57" y1="164.44" x2="540.79" y2="164.48"/><line class="cls-2" x1="540.79" y1="164.48" x2="538.98" y2="164.56"/><line class="cls-2" x1="538.98" y1="164.56" x2="537.2" y2="164.67"/><line class="cls-2" x1="537.2" y1="164.67" x2="535.38" y2="164.82"/><line class="cls-2" x1="535.38" y1="164.82" x2="533.8" y2="165.01"/><line class="cls-2" x1="533.8" y1="165.01" x2="532.32" y2="165.39"/><line class="cls-2" x1="532.32" y1="165.39" x2="530.96" y2="165.96"/><line class="cls-2" x1="530.96" y1="165.96" x2="529.75" y2="166.67"/><line class="cls-2" x1="529.75" y1="166.67" x2="528.69" y2="167.54"/><line class="cls-2" x1="528.69" y1="167.54" x2="527.86" y2="168.53"/><line class="cls-2" x1="527.86" y1="168.53" x2="527.22" y2="169.62"/><line class="cls-2" x1="527.22" y1="169.62" x2="526.84" y2="170.79"/><line class="cls-2" x1="526.84" y1="170.79" x2="526.69" y2="172"/><line class="cls-2" x1="526.69" y1="172" x2="526.84" y2="173.25"/><line class="cls-2" x1="526.84" y1="173.25" x2="527.22" y2="174.42"/><line class="cls-2" x1="527.22" y1="174.42" x2="527.86" y2="175.48"/><line class="cls-2" x1="527.86" y1="175.48" x2="528.69" y2="176.46"/><line class="cls-2" x1="528.69" y1="176.46" x2="529.75" y2="177.33"/><line class="cls-2" x1="529.75" y1="177.33" x2="530.96" y2="178.05"/><line class="cls-2" x1="530.96" y1="178.05" x2="532.32" y2="178.62"/><line class="cls-2" x1="532.32" y1="178.62" x2="533.8" y2="179"/><line class="cls-2" x1="533.8" y1="179" x2="535.38" y2="179.22"/><line class="cls-2" x1="535.38" y1="179.22" x2="537.2" y2="179.37"/><line class="cls-2" x1="537.2" y1="179.37" x2="538.98" y2="179.45"/><line class="cls-2" x1="538.98" y1="179.45" x2="540.79" y2="179.53"/><line class="cls-2" x1="540.79" y1="179.53" x2="542.57" y2="179.56"/><line class="cls-2" x1="542.57" y1="179.56" x2="544.38" y2="179.56"/><line class="cls-2" x1="544.38" y1="179.56" x2="546.16" y2="179.53"/><line class="cls-2" x1="546.16" y1="179.53" x2="547.97" y2="179.45"/><line class="cls-2" x1="547.97" y1="179.45" x2="549.79" y2="179.37"/><line class="cls-2" x1="549.79" y1="179.37" x2="551.56" y2="179.22"/><line class="cls-2" x1="551.56" y1="179.22" x2="553.15" y2="179"/><line class="cls-2" x1="553.15" y1="179" x2="554.62" y2="178.62"/><line class="cls-2" x1="554.62" y1="178.62" x2="555.98" y2="178.05"/><line class="cls-2" x1="555.98" y1="178.05" x2="557.19" y2="177.33"/><line class="cls-2" x1="557.19" y1="177.33" x2="558.25" y2="176.46"/><line class="cls-2" x1="558.25" y1="176.46" x2="559.08" y2="175.48"/><line class="cls-2" x1="559.08" y1="175.48" x2="559.73" y2="174.42"/><line class="cls-2" x1="559.73" y1="174.42" x2="560.1" y2="173.25"/><line class="cls-2" x1="543.59" y1="166.67" x2="543.74" y2="166.67"/><line class="cls-2" x1="543.74" y1="166.67" x2="543.85" y2="166.64"/><line class="cls-2" x1="543.85" y1="166.64" x2="543.96" y2="166.64"/><line class="cls-2" x1="543.96" y1="166.64" x2="544.04" y2="166.64"/><line class="cls-2" x1="544.04" y1="166.64" x2="544.08" y2="166.6"/><line class="cls-2" x1="544.08" y1="166.6" x2="544.19" y2="166.41"/><line class="cls-2" x1="544.19" y1="166.41" x2="544.12" y2="166.37"/><line class="cls-2" x1="544.12" y1="166.37" x2="544.04" y2="166.37"/><line class="cls-2" x1="544.04" y1="166.37" x2="543.89" y2="166.37"/><line class="cls-2" x1="543.89" y1="166.37" x2="543.74" y2="166.33"/><line class="cls-2" x1="543.74" y1="166.33" x2="543.55" y2="166.33"/><line class="cls-2" x1="543.55" y1="166.33" x2="543.36" y2="166.33"/><line class="cls-2" x1="543.36" y1="166.33" x2="543.21" y2="166.33"/><line class="cls-2" x1="543.21" y1="166.33" x2="543.06" y2="166.37"/><line class="cls-2" x1="543.06" y1="166.37" x2="542.91" y2="166.37"/><line class="cls-2" x1="542.91" y1="166.37" x2="542.83" y2="166.41"/><line class="cls-2" x1="542.83" y1="166.41" x2="542.79" y2="166.41"/><line class="cls-2" x1="542.79" y1="166.41" x2="542.79" y2="166.45"/><line class="cls-2" x1="542.79" y1="166.45" x2="542.87" y2="166.6"/><line class="cls-2" x1="543.36" y1="166.67" x2="543.25" y2="166.67"/><line class="cls-2" x1="543.25" y1="166.67" x2="543.13" y2="166.64"/><line class="cls-2" x1="543.13" y1="166.64" x2="543.02" y2="166.64"/><line class="cls-2" x1="543.02" y1="166.64" x2="542.91" y2="166.64"/><line class="cls-2" x1="542.91" y1="166.64" x2="542.87" y2="166.6"/><line class="cls-2" x1="542.87" y1="166.6" x2="542.91" y2="166.56"/><line class="cls-2" x1="542.91" y1="166.56" x2="542.98" y2="166.56"/><line class="cls-2" x1="542.98" y1="166.56" x2="543.1" y2="166.56"/><line class="cls-2" x1="543.1" y1="166.56" x2="543.25" y2="166.52"/><line class="cls-2" x1="543.25" y1="166.52" x2="543.4" y2="166.52"/><line class="cls-2" x1="543.4" y1="166.52" x2="543.55" y2="166.52"/><line class="cls-2" x1="543.55" y1="166.52" x2="543.7" y2="166.52"/><line class="cls-2" x1="543.7" y1="166.52" x2="543.85" y2="166.56"/><line class="cls-2" x1="543.85" y1="166.56" x2="543.96" y2="166.56"/><line class="cls-2" x1="543.96" y1="166.56" x2="544.04" y2="166.56"/><line class="cls-2" x1="544.04" y1="166.56" x2="544.08" y2="166.6"/><line class="cls-2" x1="543.36" y1="166.79" x2="543.47" y2="166.86"/><line class="cls-2" x1="543.47" y1="166.86" x2="543.59" y2="166.79"/><line class="cls-2" x1="543.59" y1="166.79" x2="543.55" y2="166.79"/><line class="cls-2" x1="543.55" y1="166.79" x2="543.51" y2="166.79"/><line class="cls-2" x1="543.51" y1="166.79" x2="543.47" y2="166.79"/><line class="cls-2" x1="543.47" y1="166.6" x2="543.44" y2="166.6"/><line class="cls-2" x1="543.44" y1="166.6" x2="543.4" y2="166.6"/><line class="cls-2" x1="543.4" y1="166.6" x2="543.36" y2="166.6"/><line class="cls-2" x1="543.36" y1="166.6" x2="543.36" y2="166.79"/><line class="cls-2" x1="543.36" y1="166.79" x2="543.4" y2="166.79"/><line class="cls-2" x1="543.4" y1="166.79" x2="543.44" y2="166.79"/><line class="cls-2" x1="543.44" y1="166.79" x2="543.47" y2="166.79"/><line class="cls-2" x1="543.59" y1="166.79" x2="543.59" y2="166.6"/><line class="cls-2" x1="543.59" y1="166.6" x2="543.55" y2="166.6"/><line class="cls-2" x1="543.55" y1="166.6" x2="543.51" y2="166.6"/><line class="cls-2" x1="543.51" y1="166.6" x2="543.47" y2="166.6"/><polygon class="cls-1" points="543.89 168.72 543.89 168.64 543.89 168.56 543.85 168.49 543.78 168.41 543.7 168.38 543.59 168.34 543.51 168.34 543.4 168.34 543.28 168.38 543.21 168.41 543.13 168.49 543.1 168.56 543.1 168.64 543.1 168.72 543.13 168.79 543.21 168.87 543.28 168.94 543.4 168.94 543.51 168.98 543.59 168.94 543.7 168.94 543.78 168.87 543.85 168.79 543.89 168.72"/><line class="cls-2" x1="543.89" y1="168.64" x2="543.89" y2="168.56"/><line class="cls-2" x1="543.89" y1="168.56" x2="543.85" y2="168.49"/><line class="cls-2" x1="543.85" y1="168.49" x2="543.78" y2="168.41"/><line class="cls-2" x1="543.78" y1="168.41" x2="543.7" y2="168.38"/><line class="cls-2" x1="543.7" y1="168.38" x2="543.59" y2="168.34"/><line class="cls-2" x1="543.59" y1="168.34" x2="543.51" y2="168.34"/><line class="cls-2" x1="543.51" y1="168.34" x2="543.4" y2="168.34"/><line class="cls-2" x1="543.4" y1="168.34" x2="543.28" y2="168.38"/><line class="cls-2" x1="543.28" y1="168.38" x2="543.21" y2="168.41"/><line class="cls-2" x1="543.21" y1="168.41" x2="543.13" y2="168.49"/><line class="cls-2" x1="543.13" y1="168.49" x2="543.1" y2="168.56"/><line class="cls-2" x1="543.1" y1="168.56" x2="543.1" y2="168.64"/><line class="cls-2" x1="543.1" y1="168.64" x2="543.1" y2="168.72"/><line class="cls-2" x1="543.1" y1="168.72" x2="543.13" y2="168.79"/><line class="cls-2" x1="543.13" y1="168.79" x2="543.21" y2="168.87"/><line class="cls-2" x1="543.21" y1="168.87" x2="543.28" y2="168.94"/><line class="cls-2" x1="543.28" y1="168.94" x2="543.4" y2="168.94"/><line class="cls-2" x1="543.4" y1="168.94" x2="543.51" y2="168.98"/><line class="cls-2" x1="543.51" y1="168.98" x2="543.59" y2="168.94"/><line class="cls-2" x1="543.59" y1="168.94" x2="543.7" y2="168.94"/><line class="cls-2" x1="543.7" y1="168.94" x2="543.78" y2="168.87"/><line class="cls-2" x1="543.78" y1="168.87" x2="543.85" y2="168.79"/><line class="cls-2" x1="543.85" y1="168.79" x2="543.89" y2="168.72"/><line class="cls-2" x1="543.89" y1="168.72" x2="543.89" y2="168.64"/><polygon class="cls-1" points="544.15 168.79 544.15 168.64 544.15 168.53 544.08 168.38 543.97 168.3 543.85 168.19 543.66 168.15 543.51 168.15 543.32 168.15 543.17 168.19 543.02 168.3 542.91 168.38 542.83 168.53 542.83 168.64 542.83 168.79 542.91 168.9 543.02 169.02 543.17 169.09 543.32 169.13 543.51 169.17 543.66 169.13 543.85 169.09 543.97 169.02 544.08 168.9 544.15 168.79"/><line class="cls-2" x1="544.15" y1="168.64" x2="544.15" y2="168.53"/><line class="cls-2" x1="544.15" y1="168.53" x2="544.08" y2="168.38"/><line class="cls-2" x1="544.08" y1="168.38" x2="543.96" y2="168.3"/><line class="cls-2" x1="543.96" y1="168.3" x2="543.85" y2="168.19"/><line class="cls-2" x1="543.85" y1="168.19" x2="543.66" y2="168.15"/><line class="cls-2" x1="543.66" y1="168.15" x2="543.51" y2="168.15"/><line class="cls-2" x1="543.51" y1="168.15" x2="543.32" y2="168.15"/><line class="cls-2" x1="543.32" y1="168.15" x2="543.17" y2="168.19"/><line class="cls-2" x1="543.17" y1="168.19" x2="543.02" y2="168.3"/><line class="cls-2" x1="543.02" y1="168.3" x2="542.91" y2="168.38"/><line class="cls-2" x1="542.91" y1="168.38" x2="542.83" y2="168.53"/><line class="cls-2" x1="542.83" y1="168.53" x2="542.83" y2="168.64"/><line class="cls-2" x1="542.83" y1="168.64" x2="542.83" y2="168.79"/><line class="cls-2" x1="542.83" y1="168.79" x2="542.91" y2="168.9"/><line class="cls-2" x1="542.91" y1="168.9" x2="543.02" y2="169.02"/><line class="cls-2" x1="543.02" y1="169.02" x2="543.17" y2="169.09"/><line class="cls-2" x1="543.17" y1="169.09" x2="543.32" y2="169.17"/><line class="cls-2" x1="543.32" y1="169.13" x2="543.51" y2="169.17"/><line class="cls-2" x1="543.51" y1="169.17" x2="543.66" y2="169.13"/><line class="cls-2" x1="543.66" y1="169.13" x2="543.85" y2="169.09"/><line class="cls-2" x1="543.85" y1="169.09" x2="543.96" y2="169.02"/><line class="cls-2" x1="543.96" y1="169.02" x2="544.08" y2="168.9"/><line class="cls-2" x1="544.08" y1="168.9" x2="544.15" y2="168.79"/><line class="cls-2" x1="544.15" y1="168.79" x2="544.15" y2="168.64"/><polygon class="cls-1" points="543.85 168.72 543.89 168.64 543.85 168.56 543.81 168.53 543.78 168.45 543.7 168.41 543.59 168.38 543.51 168.38 543.4 168.38 543.32 168.41 543.25 168.45 543.17 168.53 543.13 168.56 543.13 168.64 543.13 168.72 543.17 168.79 543.25 168.87 543.32 168.9 543.4 168.94 543.51 168.94 543.59 168.94 543.7 168.9 543.78 168.87 543.81 168.79 543.85 168.72"/><line class="cls-2" x1="543.89" y1="168.64" x2="543.85" y2="168.56"/><line class="cls-2" x1="543.85" y1="168.56" x2="543.81" y2="168.53"/><line class="cls-2" x1="543.81" y1="168.53" x2="543.78" y2="168.45"/><line class="cls-2" x1="543.78" y1="168.45" x2="543.7" y2="168.41"/><line class="cls-2" x1="543.7" y1="168.41" x2="543.59" y2="168.38"/><line class="cls-2" x1="543.59" y1="168.38" x2="543.51" y2="168.38"/><line class="cls-2" x1="543.51" y1="168.38" x2="543.4" y2="168.38"/><line class="cls-2" x1="543.4" y1="168.38" x2="543.32" y2="168.41"/><line class="cls-2" x1="543.32" y1="168.41" x2="543.25" y2="168.45"/><line class="cls-2" x1="543.25" y1="168.45" x2="543.17" y2="168.53"/><line class="cls-2" x1="543.17" y1="168.53" x2="543.13" y2="168.56"/><line class="cls-2" x1="543.13" y1="168.56" x2="543.13" y2="168.64"/><line class="cls-2" x1="543.13" y1="168.64" x2="543.13" y2="168.72"/><line class="cls-2" x1="543.13" y1="168.72" x2="543.17" y2="168.79"/><line class="cls-2" x1="543.17" y1="168.79" x2="543.25" y2="168.87"/><line class="cls-2" x1="543.25" y1="168.87" x2="543.32" y2="168.9"/><line class="cls-2" x1="543.32" y1="168.9" x2="543.4" y2="168.94"/><line class="cls-2" x1="543.4" y1="168.94" x2="543.51" y2="168.94"/><line class="cls-2" x1="543.51" y1="168.94" x2="543.59" y2="168.94"/><line class="cls-2" x1="543.59" y1="168.94" x2="543.7" y2="168.9"/><line class="cls-2" x1="543.7" y1="168.9" x2="543.78" y2="168.87"/><line class="cls-2" x1="543.78" y1="168.87" x2="543.81" y2="168.79"/><line class="cls-2" x1="543.81" y1="168.79" x2="543.85" y2="168.72"/><line class="cls-2" x1="543.85" y1="168.72" x2="543.89" y2="168.64"/><line class="cls-2" x1="557.8" y1="172.95" x2="557.91" y2="172"/><line class="cls-2" x1="557.91" y1="172" x2="557.8" y2="171.1"/><line class="cls-2" x1="557.8" y1="171.1" x2="557.5" y2="170.23"/><line class="cls-2" x1="557.5" y1="170.23" x2="557.04" y2="169.4"/><line class="cls-2" x1="557.04" y1="169.4" x2="556.4" y2="168.68"/><line class="cls-2" x1="556.4" y1="168.68" x2="555.61" y2="168"/><line class="cls-2" x1="555.61" y1="168" x2="554.7" y2="167.47"/><line class="cls-2" x1="554.7" y1="167.47" x2="553.68" y2="167.05"/><line class="cls-2" x1="553.68" y1="167.05" x2="552.58" y2="166.75"/><line class="cls-2" x1="552.58" y1="166.75" x2="551.26" y2="166.6"/><line class="cls-2" x1="551.26" y1="166.6" x2="549.56" y2="166.45"/><line class="cls-2" x1="549.56" y1="166.45" x2="547.82" y2="166.33"/><line class="cls-2" x1="547.82" y1="166.33" x2="546.08" y2="166.26"/><line class="cls-2" x1="546.08" y1="166.26" x2="544.34" y2="166.22"/><line class="cls-2" x1="544.34" y1="166.22" x2="542.6" y2="166.22"/><line class="cls-2" x1="542.6" y1="166.22" x2="540.87" y2="166.26"/><line class="cls-2" x1="540.87" y1="166.26" x2="539.13" y2="166.33"/><line class="cls-2" x1="539.13" y1="166.33" x2="537.39" y2="166.45"/><line class="cls-2" x1="537.39" y1="166.45" x2="535.72" y2="166.6"/><line class="cls-2" x1="535.72" y1="166.6" x2="534.36" y2="166.75"/><line class="cls-2" x1="534.36" y1="166.75" x2="533.27" y2="167.05"/><line class="cls-2" x1="533.27" y1="167.05" x2="532.25" y2="167.47"/><line class="cls-2" x1="532.25" y1="167.47" x2="531.34" y2="168"/><line class="cls-2" x1="531.34" y1="168" x2="530.55" y2="168.68"/><line class="cls-2" x1="530.55" y1="168.68" x2="529.9" y2="169.4"/><line class="cls-2" x1="529.9" y1="169.4" x2="529.45" y2="170.23"/><line class="cls-2" x1="529.45" y1="170.23" x2="529.15" y2="171.1"/><line class="cls-2" x1="529.15" y1="171.1" x2="529.03" y2="172"/><line class="cls-2" x1="529.03" y1="172" x2="529.15" y2="172.95"/><line class="cls-2" x1="529.15" y1="172.95" x2="529.45" y2="173.82"/><line class="cls-2" x1="529.45" y1="173.82" x2="529.9" y2="174.61"/><line class="cls-2" x1="529.9" y1="174.61" x2="530.55" y2="175.37"/><line class="cls-2" x1="530.55" y1="175.37" x2="531.34" y2="176.01"/><line class="cls-2" x1="531.34" y1="176.01" x2="532.25" y2="176.54"/><line class="cls-2" x1="532.25" y1="176.54" x2="533.27" y2="176.96"/><line class="cls-2" x1="533.27" y1="176.96" x2="534.36" y2="177.26"/><line class="cls-2" x1="534.36" y1="177.26" x2="535.72" y2="177.45"/><line class="cls-2" x1="535.72" y1="177.45" x2="537.39" y2="177.56"/><line class="cls-2" x1="537.39" y1="177.56" x2="539.13" y2="177.67"/><line class="cls-2" x1="539.13" y1="177.67" x2="540.87" y2="177.75"/><line class="cls-2" x1="540.87" y1="177.75" x2="542.6" y2="177.79"/><line class="cls-2" x1="542.6" y1="177.79" x2="544.34" y2="177.79"/><line class="cls-2" x1="544.34" y1="177.79" x2="546.08" y2="177.75"/><line class="cls-2" x1="546.08" y1="177.75" x2="547.82" y2="177.67"/><line class="cls-2" x1="547.82" y1="177.67" x2="549.56" y2="177.56"/><line class="cls-2" x1="549.56" y1="177.56" x2="551.26" y2="177.45"/><line class="cls-2" x1="551.26" y1="177.45" x2="552.58" y2="177.26"/><line class="cls-2" x1="552.58" y1="177.26" x2="553.68" y2="176.96"/><line class="cls-2" x1="553.68" y1="176.96" x2="554.7" y2="176.54"/><line class="cls-2" x1="554.7" y1="176.54" x2="555.61" y2="176.01"/><line class="cls-2" x1="555.61" y1="176.01" x2="556.4" y2="175.37"/><line class="cls-2" x1="556.4" y1="175.37" x2="557.04" y2="174.61"/><line class="cls-2" x1="557.04" y1="174.61" x2="557.5" y2="173.82"/><line class="cls-2" x1="557.5" y1="173.82" x2="557.8" y2="172.95"/><line class="cls-2" x1="555.04" y1="172.57" x2="555.08" y2="172"/><line class="cls-2" x1="555.08" y1="172" x2="555.04" y2="171.44"/><line class="cls-2" x1="555.04" y1="171.44" x2="554.85" y2="170.91"/><line class="cls-2" x1="554.85" y1="170.91" x2="554.55" y2="170.45"/><line class="cls-2" x1="554.55" y1="170.45" x2="554.17" y2="170"/><line class="cls-2" x1="554.17" y1="170" x2="553.72" y2="169.62"/><line class="cls-2" x1="553.72" y1="169.62" x2="553.15" y2="169.28"/><line class="cls-2" x1="553.15" y1="169.28" x2="552.55" y2="169.02"/><line class="cls-2" x1="552.55" y1="169.02" x2="551.9" y2="168.87"/><line class="cls-2" x1="551.9" y1="168.87" x2="550.88" y2="168.72"/><line class="cls-2" x1="550.88" y1="168.72" x2="549.29" y2="168.6"/><line class="cls-2" x1="549.29" y1="168.6" x2="547.63" y2="168.49"/><line class="cls-2" x1="547.63" y1="168.49" x2="545.97" y2="168.41"/><line class="cls-2" x1="545.97" y1="168.41" x2="544.31" y2="168.38"/><line class="cls-2" x1="544.31" y1="168.38" x2="542.64" y2="168.38"/><line class="cls-2" x1="542.64" y1="168.38" x2="540.98" y2="168.41"/><line class="cls-2" x1="540.98" y1="168.41" x2="539.32" y2="168.49"/><line class="cls-2" x1="539.32" y1="168.49" x2="537.65" y2="168.6"/><line class="cls-2" x1="537.65" y1="168.6" x2="536.07" y2="168.72"/><line class="cls-2" x1="536.07" y1="168.72" x2="535.08" y2="168.87"/><line class="cls-2" x1="535.08" y1="168.87" x2="534.4" y2="169.02"/><line class="cls-2" x1="534.4" y1="169.02" x2="533.8" y2="169.28"/><line class="cls-2" x1="533.8" y1="169.28" x2="533.23" y2="169.62"/><line class="cls-2" x1="533.23" y1="169.62" x2="532.78" y2="170"/><line class="cls-2" x1="532.78" y1="170" x2="532.4" y2="170.45"/><line class="cls-2" x1="532.4" y1="170.45" x2="532.1" y2="170.91"/><line class="cls-2" x1="532.1" y1="170.91" x2="531.95" y2="171.44"/><line class="cls-2" x1="531.95" y1="171.44" x2="531.87" y2="172"/><line class="cls-2" x1="531.87" y1="172" x2="531.95" y2="172.57"/><line class="cls-2" x1="531.95" y1="172.57" x2="532.1" y2="173.1"/><line class="cls-2" x1="532.1" y1="173.1" x2="532.4" y2="173.59"/><line class="cls-2" x1="532.4" y1="173.59" x2="532.78" y2="174.01"/><line class="cls-2" x1="532.78" y1="174.01" x2="533.23" y2="174.42"/><line class="cls-2" x1="533.23" y1="174.42" x2="533.8" y2="174.73"/><line class="cls-2" x1="533.8" y1="174.73" x2="534.4" y2="174.99"/><line class="cls-2" x1="534.4" y1="174.99" x2="535.08" y2="175.18"/><line class="cls-2" x1="535.08" y1="175.18" x2="536.07" y2="175.29"/><line class="cls-2" x1="536.07" y1="175.29" x2="537.65" y2="175.41"/><line class="cls-2" x1="537.65" y1="175.41" x2="539.32" y2="175.52"/><line class="cls-2" x1="539.32" y1="175.52" x2="540.98" y2="175.59"/><line class="cls-2" x1="540.98" y1="175.59" x2="542.64" y2="175.63"/><line class="cls-2" x1="542.64" y1="175.63" x2="544.31" y2="175.63"/><line class="cls-2" x1="544.31" y1="175.63" x2="545.97" y2="175.59"/><line class="cls-2" x1="545.97" y1="175.59" x2="547.63" y2="175.52"/><line class="cls-2" x1="547.63" y1="175.52" x2="549.29" y2="175.41"/><line class="cls-2" x1="549.29" y1="175.41" x2="550.88" y2="175.29"/><line class="cls-2" x1="550.88" y1="175.29" x2="551.9" y2="175.18"/><line class="cls-2" x1="551.9" y1="175.18" x2="552.55" y2="174.99"/><line class="cls-2" x1="552.55" y1="174.99" x2="553.15" y2="174.73"/><line class="cls-2" x1="553.15" y1="174.73" x2="553.72" y2="174.42"/><line class="cls-2" x1="553.72" y1="174.42" x2="554.17" y2="174.01"/><line class="cls-2" x1="554.17" y1="174.01" x2="554.55" y2="173.59"/><line class="cls-2" x1="554.55" y1="173.59" x2="554.85" y2="173.1"/><line class="cls-2" x1="554.85" y1="173.1" x2="555.04" y2="172.57"/></g></g></svg>