<svg id="图层_1" data-name="图层 1" xmlns="http://www.w3.org/2000/svg" viewBox="0 0 1008 504"><defs><style>.cls-1{fill:none;stroke:#0c4f71;stroke-linecap:round;stroke-linejoin:bevel;stroke-width:0.15px;}.cls-2{fill:#e8e3e2;}.cls-3,.cls-4{fill:#fff;}.cls-3{fill-rule:evenodd;}.cls-5,.cls-6{fill:#0c5275;}.cls-6{font-size:7px;font-family:CenturyGothic, Century Gothic;}</style></defs><title>ISLAND</title><g id="merlot-IFP_main_floor" data-name="merlot-IFP main floor"><g id="ISLAND"><line class="cls-1" x1="495.75" y1="217.07" x2="495.56" y2="216.69"/><line class="cls-1" x1="495.56" y1="216.69" x2="495.41" y2="216.32"/><line class="cls-1" x1="495.41" y1="216.32" x2="495.33" y2="215.9"/><line class="cls-1" x1="495.33" y1="215.9" x2="495.26" y2="215.52"/><line class="cls-1" x1="495.26" y1="215.52" x2="495.22" y2="215.11"/><line class="cls-1" x1="495.22" y1="215.11" x2="495.26" y2="214.69"/><line class="cls-1" x1="495.26" y1="214.69" x2="495.33" y2="214.28"/><line class="cls-1" x1="495.33" y1="214.28" x2="495.45" y2="213.86"/><line class="cls-1" x1="495.45" y1="213.86" x2="495.56" y2="213.48"/><line class="cls-1" x1="495.56" y1="213.48" x2="495.75" y2="213.1"/><line class="cls-1" x1="494.77" y1="215.52" x2="494.77" y2="214.62"/><line class="cls-1" x1="495.75" y1="237.86" x2="495.56" y2="237.48"/><line class="cls-1" x1="495.56" y1="237.48" x2="495.41" y2="237.11"/><line class="cls-1" x1="495.41" y1="237.11" x2="495.33" y2="236.69"/><line class="cls-1" x1="495.33" y1="236.69" x2="495.26" y2="236.31"/><line class="cls-1" x1="495.26" y1="236.31" x2="495.22" y2="235.9"/><line class="cls-1" x1="495.22" y1="235.9" x2="495.26" y2="235.48"/><line class="cls-1" x1="495.26" y1="235.48" x2="495.33" y2="235.06"/><line class="cls-1" x1="495.33" y1="235.06" x2="495.45" y2="234.65"/><line class="cls-1" x1="495.45" y1="234.65" x2="495.56" y2="234.27"/><line class="cls-1" x1="495.56" y1="234.27" x2="495.75" y2="233.89"/><line class="cls-1" x1="494.77" y1="236.31" x2="494.77" y2="235.4"/><line class="cls-1" x1="495.75" y1="227.47" x2="495.56" y2="227.09"/><line class="cls-1" x1="495.56" y1="227.09" x2="495.41" y2="226.71"/><line class="cls-1" x1="495.41" y1="226.71" x2="495.33" y2="226.3"/><line class="cls-1" x1="495.33" y1="226.3" x2="495.26" y2="225.92"/><line class="cls-1" x1="495.26" y1="225.92" x2="495.22" y2="225.5"/><line class="cls-1" x1="495.22" y1="225.5" x2="495.26" y2="225.09"/><line class="cls-1" x1="495.26" y1="225.09" x2="495.33" y2="224.67"/><line class="cls-1" x1="495.33" y1="224.67" x2="495.45" y2="224.25"/><line class="cls-1" x1="495.45" y1="224.25" x2="495.56" y2="223.88"/><line class="cls-1" x1="495.56" y1="223.88" x2="495.75" y2="223.5"/><line class="cls-1" x1="494.77" y1="225.92" x2="494.77" y2="225.01"/><line class="cls-1" x1="517.41" y1="204.67" x2="517.41" y2="203.62"/><line class="cls-1" x1="517.41" y1="203.62" x2="519.68" y2="203.62"/><line class="cls-1" x1="521.38" y1="203.62" x2="523.08" y2="203.62"/><line class="cls-1" x1="524.78" y1="203.62" x2="526.48" y2="203.62"/><line class="cls-1" x1="528.75" y1="203.62" x2="527.31" y2="203.62"/><line class="cls-1" x1="528.75" y1="206" x2="528.75" y2="207.7"/><line class="cls-1" x1="528.75" y1="209.4" x2="528.75" y2="211.1"/><line class="cls-1" x1="528.75" y1="212.8" x2="528.75" y2="214.96"/><line class="cls-1" x1="528.75" y1="203.62" x2="528.75" y2="205.01"/><line class="cls-1" x1="528.67" y1="214.92" x2="528.67" y2="203.65"/><line class="cls-1" x1="528.67" y1="203.65" x2="529.39" y2="203.65"/><line class="cls-1" x1="529.39" y1="203.65" x2="529.39" y2="214.92"/><line class="cls-1" x1="529.39" y1="214.92" x2="528.67" y2="214.92"/><line class="cls-1" x1="528.67" y1="214.39" x2="518.35" y2="214.39"/><line class="cls-1" x1="518.35" y1="214.39" x2="518.35" y2="204.18"/><line class="cls-1" x1="518.35" y1="204.18" x2="528.67" y2="204.18"/><line class="cls-1" x1="529.39" y1="208.68" x2="529.43" y2="208.68"/><line class="cls-1" x1="529.43" y1="208.68" x2="529.43" y2="209.93"/><line class="cls-1" x1="529.43" y1="209.93" x2="529.39" y2="209.93"/><line class="cls-1" x1="529.39" y1="209.66" x2="529.43" y2="209.66"/><line class="cls-1" x1="529.39" y1="208.95" x2="529.43" y2="208.95"/><line class="cls-1" x1="529.43" y1="208.98" x2="529.39" y2="208.98"/><line class="cls-1" x1="529.39" y1="209.21" x2="529.43" y2="209.21"/><line class="cls-1" x1="529.39" y1="209.06" x2="529.43" y2="209.06"/><line class="cls-1" x1="529.43" y1="208.95" x2="529.39" y2="208.95"/><line class="cls-1" x1="529.43" y1="209.74" x2="529.39" y2="209.74"/><line class="cls-1" x1="529.39" y1="209.74" x2="529.43" y2="209.74"/><line class="cls-1" x1="529.39" y1="209.4" x2="529.43" y2="209.4"/><line class="cls-1" x1="529.39" y1="209.51" x2="529.43" y2="209.51"/><line class="cls-1" x1="529.39" y1="209.63" x2="529.43" y2="209.63"/><line class="cls-1" x1="529.39" y1="209.59" x2="529.43" y2="209.59"/><line class="cls-1" x1="529.39" y1="209.47" x2="529.43" y2="209.47"/><line class="cls-1" x1="529.43" y1="209.17" x2="529.39" y2="209.17"/><line class="cls-1" x1="529.39" y1="209.36" x2="529.43" y2="209.36"/><line class="cls-1" x1="529.39" y1="209.06" x2="529.43" y2="209.06"/><line class="cls-1" x1="529.39" y1="208.91" x2="529.43" y2="208.91"/><line class="cls-1" x1="529.39" y1="208.79" x2="529.43" y2="208.79"/><line class="cls-1" x1="529.39" y1="208.79" x2="529.43" y2="208.79"/><line class="cls-1" x1="529.43" y1="209.06" x2="529.39" y2="209.06"/><line class="cls-1" x1="528.75" y1="214.96" x2="528.75" y2="217.9"/><line class="cls-1" x1="528.75" y1="219.6" x2="528.75" y2="221.31"/><line class="cls-1" x1="528.75" y1="223.01" x2="528.75" y2="224.71"/><line class="cls-1" x1="528.75" y1="226.41" x2="528.75" y2="228.11"/><line class="cls-1" x1="528.75" y1="229.81" x2="528.75" y2="231.96"/><rect class="cls-2" x="517.41" y="231.96" width="11.34" height="11.34"/><line class="cls-1" x1="528.75" y1="231.96" x2="528.75" y2="234.91"/><line class="cls-1" x1="528.75" y1="236.61" x2="528.75" y2="238.31"/><line class="cls-1" x1="528.75" y1="240.02" x2="528.75" y2="241.72"/><line class="cls-1" x1="528.75" y1="243.3" x2="528.75" y2="241.87"/><polygon class="cls-3" points="517.83 243.19 517.83 232.08 528.63 232.08 528.63 232.23 528.63 243.04 528.63 243.19 517.83 243.19"/><polygon class="cls-3" points="528.79 243.04 529.16 241.41 529.16 242.59 529.16 243.19 528.79 243.19 528.79 243.04"/><polygon class="cls-3" points="528.71 243 529.16 241.41 528.79 243.04 528.75 243.04 528.71 243"/><path class="cls-3" d="M528.71,243l.45-1.59Z"/><polygon class="cls-3" points="529.16 241.41 528.71 243 528.67 243.04 528.63 243.04 528.63 232.23 528.63 232.19 528.67 232.19 528.71 232.23 529.16 233.85 529.16 241.41"/><polygon class="cls-3" points="529.24 242.17 529.2 241.41 529.28 242.06 529.24 242.17"/><polygon class="cls-3" points="529.2 241.41 529.24 242.17 529.2 242.28 529.16 242.59 529.16 241.41 529.2 241.41"/><polygon class="cls-3" points="529.2 242.4 529.16 242.59 529.2 242.28 529.2 242.4"/><polygon class="cls-3" points="529.16 242.59 529.2 242.4 529.2 242.59 529.16 242.59"/><polygon class="cls-3" points="529.24 241.38 529.28 242.06 529.2 241.41 529.24 241.38"/><polygon class="cls-3" points="529.28 241.38 529.28 242.06 529.24 241.38 529.28 241.38"/><polygon class="cls-3" points="529.28 242.06 529.28 241.38 529.32 241.34 529.62 241 529.28 242.06"/><polygon class="cls-3" points="529.58 240.43 529.62 241 529.32 241.34 529.58 240.43"/><polygon class="cls-3" points="529.62 241 529.58 240.43 529.81 239.49 529.88 239.87 529.62 241"/><polygon class="cls-3" points="529.88 239.87 529.81 239.49 529.92 238.58 530.03 238.77 529.88 239.87"/><polygon class="cls-3" points="530.03 238.77 529.92 238.58 530 237.63 530.11 237.63 530.03 238.77"/><polygon class="cls-3" points="530.11 237.63 530 237.63 529.92 236.69 530.03 236.5 530.11 237.63"/><polygon class="cls-3" points="530.03 236.5 529.92 236.69 529.81 235.75 529.88 235.37 530.03 236.5"/><polygon class="cls-3" points="529.88 235.37 529.81 235.75 529.58 234.8 529.62 234.27 529.88 235.37"/><polygon class="cls-3" points="529.32 233.93 529.62 234.27 529.58 234.8 529.32 233.93"/><polygon class="cls-3" points="529.62 234.27 529.32 233.93 529.28 233.89 529.28 233.17 529.62 234.27"/><polygon class="cls-3" points="529.24 233.85 529.28 233.17 529.28 233.89 529.24 233.85"/><polygon class="cls-3" points="529.2 233.85 529.28 233.17 529.24 233.85 529.2 233.85"/><polygon class="cls-3" points="529.2 232.83 529.16 232.65 529.2 232.65 529.2 232.83"/><polygon class="cls-3" points="529.2 232.95 529.16 232.65 529.2 232.83 529.2 232.95"/><polygon class="cls-3" points="529.16 232.65 529.2 232.95 529.24 233.06 529.2 233.85 529.16 233.85 529.16 232.65"/><polygon class="cls-3" points="529.2 233.85 529.24 233.06 529.28 233.17 529.2 233.85"/><polygon class="cls-3" points="529.16 233.85 528.71 232.23 529.16 232.65 529.16 233.85"/><polygon class="cls-3" points="528.79 232.23 528.75 232.19 528.79 232.19 528.79 232.23"/><polygon class="cls-3" points="528.75 232.19 528.79 232.23 529.16 232.65 528.71 232.23 528.75 232.19"/><polygon class="cls-3" points="529.16 232.65 528.79 232.23 528.79 232.08 529.16 232.08 529.16 232.65"/><line class="cls-1" x1="517.82" y1="232.08" x2="528.63" y2="232.08"/><line class="cls-1" x1="528.63" y1="232.08" x2="528.63" y2="232.23"/><line class="cls-1" x1="528.63" y1="232.23" x2="528.63" y2="232.19"/><line class="cls-1" x1="528.63" y1="232.19" x2="528.67" y2="232.19"/><line class="cls-1" x1="528.67" y1="232.19" x2="528.71" y2="232.23"/><line class="cls-1" x1="528.71" y1="232.23" x2="528.75" y2="232.19"/><line class="cls-1" x1="528.75" y1="232.19" x2="528.79" y2="232.19"/><line class="cls-1" x1="528.79" y1="232.19" x2="528.79" y2="232.23"/><line class="cls-1" x1="528.79" y1="232.23" x2="528.79" y2="232.08"/><line class="cls-1" x1="528.79" y1="232.08" x2="529.16" y2="232.08"/><line class="cls-1" x1="529.16" y1="232.08" x2="529.16" y2="232.65"/><line class="cls-1" x1="529.16" y1="232.65" x2="529.16" y2="233.85"/><line class="cls-1" x1="529.16" y1="233.85" x2="529.16" y2="241.41"/><line class="cls-1" x1="529.16" y1="241.41" x2="529.2" y2="241.41"/><line class="cls-1" x1="529.2" y1="241.41" x2="529.24" y2="241.38"/><line class="cls-1" x1="529.24" y1="241.38" x2="529.28" y2="241.38"/><line class="cls-1" x1="529.28" y1="241.38" x2="529.32" y2="241.34"/><line class="cls-1" x1="529.32" y1="241.34" x2="529.58" y2="240.43"/><line class="cls-1" x1="529.58" y1="240.43" x2="529.81" y2="239.49"/><line class="cls-1" x1="529.81" y1="239.49" x2="529.92" y2="238.58"/><line class="cls-1" x1="529.92" y1="238.58" x2="530" y2="237.63"/><line class="cls-1" x1="530" y1="237.63" x2="529.92" y2="236.69"/><line class="cls-1" x1="529.92" y1="236.69" x2="529.81" y2="235.74"/><line class="cls-1" x1="529.81" y1="235.74" x2="529.58" y2="234.8"/><line class="cls-1" x1="529.58" y1="234.8" x2="529.32" y2="233.93"/><line class="cls-1" x1="529.32" y1="233.93" x2="529.28" y2="233.89"/><line class="cls-1" x1="529.28" y1="233.89" x2="529.24" y2="233.85"/><line class="cls-1" x1="529.24" y1="233.85" x2="529.2" y2="233.85"/><line class="cls-1" x1="529.2" y1="233.85" x2="529.16" y2="233.85"/><line class="cls-1" x1="529.16" y1="233.85" x2="529.16" y2="232.65"/><line class="cls-1" x1="529.16" y1="232.65" x2="529.2" y2="232.65"/><line class="cls-1" x1="529.2" y1="232.65" x2="529.2" y2="232.83"/><line class="cls-1" x1="529.2" y1="232.83" x2="529.2" y2="232.95"/><line class="cls-1" x1="529.2" y1="232.95" x2="529.24" y2="233.06"/><line class="cls-1" x1="529.24" y1="233.06" x2="529.28" y2="233.17"/><line class="cls-1" x1="529.28" y1="233.17" x2="529.62" y2="234.27"/><line class="cls-1" x1="529.62" y1="234.27" x2="529.88" y2="235.37"/><line class="cls-1" x1="529.88" y1="235.37" x2="530.03" y2="236.5"/><line class="cls-1" x1="530.03" y1="236.5" x2="530.11" y2="237.63"/><line class="cls-1" x1="530.11" y1="237.63" x2="530.03" y2="238.77"/><line class="cls-1" x1="530.03" y1="238.77" x2="529.88" y2="239.86"/><line class="cls-1" x1="529.88" y1="239.86" x2="529.62" y2="241"/><line class="cls-1" x1="529.62" y1="241" x2="529.28" y2="242.06"/><line class="cls-1" x1="529.28" y1="242.06" x2="529.24" y2="242.17"/><line class="cls-1" x1="529.24" y1="242.17" x2="529.2" y2="242.28"/><line class="cls-1" x1="529.2" y1="242.28" x2="529.2" y2="242.4"/><line class="cls-1" x1="529.2" y1="242.4" x2="529.2" y2="242.59"/><line class="cls-1" x1="529.2" y1="242.59" x2="529.16" y2="242.59"/><line class="cls-1" x1="529.16" y1="242.59" x2="529.16" y2="243.19"/><line class="cls-1" x1="529.16" y1="243.19" x2="528.79" y2="243.19"/><line class="cls-1" x1="528.79" y1="243.19" x2="528.79" y2="243.04"/><line class="cls-1" x1="528.79" y1="243.04" x2="528.75" y2="243.04"/><line class="cls-1" x1="528.75" y1="243.04" x2="528.71" y2="243"/><line class="cls-1" x1="528.71" y1="243" x2="528.67" y2="243.04"/><line class="cls-1" x1="528.67" y1="243.04" x2="528.63" y2="243.04"/><line class="cls-1" x1="528.63" y1="243.04" x2="528.63" y2="243.19"/><line class="cls-1" x1="528.63" y1="243.19" x2="517.82" y2="243.19"/><line class="cls-1" x1="517.82" y1="243.19" x2="517.82" y2="232.08"/><line class="cls-1" x1="529.16" y1="242.59" x2="529.2" y2="242.59"/><line class="cls-1" x1="529.2" y1="232.83" x2="529.2" y2="232.95"/><line class="cls-1" x1="529.2" y1="232.95" x2="529.24" y2="233.06"/><line class="cls-1" x1="529.24" y1="233.06" x2="529.28" y2="233.17"/><line class="cls-1" x1="529.32" y1="241.34" x2="529.58" y2="240.43"/><line class="cls-1" x1="529.58" y1="240.43" x2="529.81" y2="239.49"/><line class="cls-1" x1="529.81" y1="239.49" x2="529.92" y2="238.58"/><line class="cls-1" x1="529.92" y1="238.58" x2="530" y2="237.63"/><line class="cls-1" x1="530" y1="237.63" x2="529.92" y2="236.69"/><line class="cls-1" x1="529.92" y1="236.69" x2="529.81" y2="235.74"/><line class="cls-1" x1="529.81" y1="235.74" x2="529.58" y2="234.8"/><line class="cls-1" x1="529.58" y1="234.8" x2="529.32" y2="233.93"/><line class="cls-1" x1="528.67" y1="232.23" x2="528.67" y2="232.19"/><line class="cls-1" x1="528.67" y1="232.19" x2="528.63" y2="232.19"/><line class="cls-1" x1="528.63" y1="232.19" x2="528.63" y2="232.23"/><line class="cls-1" x1="528.75" y1="243.04" x2="528.79" y2="243.04"/><line class="cls-1" x1="528.75" y1="243.04" x2="528.71" y2="243"/><line class="cls-1" x1="528.71" y1="243" x2="528.67" y2="243.04"/><line class="cls-1" x1="528.63" y1="243.04" x2="528.67" y2="243.04"/><line class="cls-1" x1="528.79" y1="232.23" x2="528.79" y2="232.19"/><line class="cls-1" x1="528.79" y1="232.19" x2="528.75" y2="232.19"/><line class="cls-1" x1="528.75" y1="232.19" x2="528.75" y2="232.23"/><line class="cls-1" x1="528.67" y1="232.23" x2="528.71" y2="232.23"/><line class="cls-1" x1="528.71" y1="232.23" x2="528.75" y2="232.23"/><line class="cls-1" x1="528.63" y1="232.08" x2="517.82" y2="232.08"/><line class="cls-1" x1="529.28" y1="242.06" x2="529.62" y2="241"/><line class="cls-1" x1="529.62" y1="241" x2="529.88" y2="239.86"/><line class="cls-1" x1="529.88" y1="239.86" x2="530.03" y2="238.77"/><line class="cls-1" x1="530.03" y1="238.77" x2="530.11" y2="237.63"/><line class="cls-1" x1="530.11" y1="237.63" x2="530.03" y2="236.5"/><line class="cls-1" x1="530.03" y1="236.5" x2="529.88" y2="235.37"/><line class="cls-1" x1="529.88" y1="235.37" x2="529.62" y2="234.27"/><line class="cls-1" x1="529.62" y1="234.27" x2="529.28" y2="233.17"/><line class="cls-1" x1="517.82" y1="243.19" x2="517.82" y2="232.08"/><line class="cls-1" x1="528.63" y1="243.19" x2="528.63" y2="232.08"/><line class="cls-1" x1="529.2" y1="241.41" x2="529.24" y2="241.38"/><line class="cls-1" x1="529.24" y1="241.38" x2="529.28" y2="241.38"/><line class="cls-1" x1="529.28" y1="241.38" x2="529.32" y2="241.34"/><line class="cls-1" x1="529.32" y1="233.93" x2="529.28" y2="233.89"/><line class="cls-1" x1="529.28" y1="233.89" x2="529.24" y2="233.85"/><line class="cls-1" x1="529.24" y1="233.85" x2="529.2" y2="233.85"/><line class="cls-1" x1="529.16" y1="232.08" x2="528.79" y2="232.08"/><line class="cls-1" x1="528.79" y1="243.19" x2="528.79" y2="232.08"/><line class="cls-1" x1="529.16" y1="243.19" x2="528.79" y2="243.19"/><line class="cls-1" x1="529.16" y1="243.19" x2="529.16" y2="232.08"/><line class="cls-1" x1="517.82" y1="243.19" x2="528.63" y2="243.19"/><line class="cls-1" x1="529.2" y1="232.65" x2="529.16" y2="232.65"/><line class="cls-1" x1="529.2" y1="232.83" x2="529.2" y2="232.65"/><line class="cls-1" x1="529.2" y1="242.59" x2="529.2" y2="242.4"/><line class="cls-1" x1="529.16" y1="233.85" x2="529.2" y2="233.85"/><line class="cls-1" x1="529.16" y1="241.41" x2="529.2" y2="241.41"/><line class="cls-1" x1="529.28" y1="242.06" x2="529.24" y2="242.17"/><line class="cls-1" x1="529.24" y1="242.17" x2="529.2" y2="242.28"/><line class="cls-1" x1="529.2" y1="242.28" x2="529.2" y2="242.4"/><line class="cls-1" x1="517.41" y1="247.54" x2="519.68" y2="247.54"/><line class="cls-1" x1="521.38" y1="247.54" x2="523.08" y2="247.54"/><line class="cls-1" x1="524.78" y1="247.54" x2="526.48" y2="247.54"/><line class="cls-1" x1="528.75" y1="247.54" x2="527.31" y2="247.54"/><line class="cls-1" x1="528.75" y1="243.3" x2="528.75" y2="245.12"/><line class="cls-1" x1="528.75" y1="247.54" x2="528.75" y2="246.14"/><rect class="cls-2" x="507.35" y="206.19" width="0.34" height="11.34"/><line class="cls-1" x1="507.35" y1="206.19" x2="507.35" y2="207.7"/><line class="cls-1" x1="507.35" y1="209.4" x2="507.35" y2="211.1"/><line class="cls-1" x1="507.35" y1="212.8" x2="507.35" y2="214.5"/><line class="cls-1" x1="507.35" y1="217.53" x2="507.35" y2="216.13"/><rect class="cls-2" x="507.35" y="219.91" width="0.34" height="11.34"/><line class="cls-1" x1="507.35" y1="219.91" x2="507.35" y2="221.31"/><line class="cls-1" x1="507.35" y1="223.01" x2="507.35" y2="224.71"/><line class="cls-1" x1="507.35" y1="226.41" x2="507.35" y2="228.11"/><line class="cls-1" x1="507.35" y1="231.25" x2="507.35" y2="229.81"/><rect class="cls-2" x="507.35" y="233.59" width="0.34" height="11.34"/><line class="cls-1" x1="507.35" y1="236.61" x2="507.35" y2="238.31"/><line class="cls-1" x1="507.35" y1="240.02" x2="507.35" y2="241.72"/><line class="cls-1" x1="507.35" y1="243.42" x2="507.35" y2="244.93"/><line class="cls-1" x1="507.35" y1="233.59" x2="507.35" y2="235.03"/><rect class="cls-2" x="507.35" y="217.53" width="0.34" height="2.38"/><line class="cls-1" x1="507.35" y1="217.53" x2="507.35" y2="219.91"/><rect class="cls-2" x="507.35" y="203.62" width="0.34" height="2.57"/><line class="cls-1" x1="507.69" y1="204.67" x2="507.69" y2="203.62"/><line class="cls-1" x1="507.35" y1="203.62" x2="507.35" y2="206.19"/><rect class="cls-2" x="507.35" y="231.25" width="0.34" height="2.34"/><line class="cls-1" x1="507.35" y1="231.25" x2="507.35" y2="233.59"/><rect class="cls-2" x="507.35" y="244.93" width="0.34" height="2.61"/><line class="cls-1" x1="507.35" y1="244.93" x2="507.35" y2="247.54"/><line class="cls-1" x1="517.41" y1="215.75" x2="528.67" y2="215.75"/><line class="cls-1" x1="528.67" y1="215.75" x2="528.48" y2="215.79"/><line class="cls-1" x1="528.48" y1="215.79" x2="527.73" y2="215.79"/><line class="cls-1" x1="527.73" y1="215.79" x2="519.98" y2="215.79"/><line class="cls-1" x1="519.98" y1="215.79" x2="519.9" y2="215.79"/><line class="cls-1" x1="519.9" y1="215.79" x2="519.83" y2="215.82"/><line class="cls-1" x1="519.83" y1="215.82" x2="519.79" y2="215.9"/><line class="cls-1" x1="519.79" y1="215.9" x2="519.79" y2="215.98"/><line class="cls-1" x1="519.79" y1="215.98" x2="519.79" y2="230.94"/><line class="cls-1" x1="519.79" y1="230.94" x2="519.79" y2="230.98"/><line class="cls-1" x1="519.79" y1="230.98" x2="519.79" y2="231.02"/><line class="cls-1" x1="519.79" y1="231.02" x2="517.41" y2="231.02"/><line class="cls-1" x1="517.41" y1="231.02" x2="517.41" y2="215.75"/><polygon class="cls-3" points="529.2 231.81 529.13 231.85 528.37 231.85 528.37 231.81 528.37 231.78 528.37 231.47 529.32 215.26 529.32 231.66 529.32 231.7 529.28 231.78 529.2 231.81"/><polygon class="cls-3" points="528.37 215.41 528.37 231.47 519.41 231.47 519.37 231.47 519.34 231.44 519.3 231.4 519.3 231.36 519.3 215.52 519.3 215.49 519.34 215.45 519.37 215.41 519.41 215.41 528.37 215.41"/><polygon class="cls-3" points="528.37 231.47 528.37 215.41 529.32 215.26 528.37 231.47"/><polygon class="cls-3" points="529.32 215.26 528.37 215.41 528.37 215.11 528.37 215.07 529.13 215.07 529.2 215.07 529.28 215.11 529.32 215.18 529.32 215.26"/><line class="cls-1" x1="529.13" y1="231.85" x2="528.37" y2="231.85"/><line class="cls-1" x1="528.37" y1="231.85" x2="528.37" y2="231.81"/><line class="cls-1" x1="528.37" y1="231.81" x2="528.37" y2="231.78"/><line class="cls-1" x1="528.37" y1="231.78" x2="528.37" y2="231.47"/><line class="cls-1" x1="528.37" y1="231.47" x2="519.41" y2="231.47"/><line class="cls-1" x1="519.41" y1="231.47" x2="519.37" y2="231.47"/><line class="cls-1" x1="519.37" y1="231.47" x2="519.34" y2="231.44"/><line class="cls-1" x1="519.34" y1="231.44" x2="519.3" y2="231.4"/><line class="cls-1" x1="519.3" y1="231.4" x2="519.3" y2="231.36"/><line class="cls-1" x1="519.3" y1="231.36" x2="519.3" y2="215.52"/><line class="cls-1" x1="519.3" y1="215.52" x2="519.3" y2="215.48"/><line class="cls-1" x1="519.3" y1="215.48" x2="519.34" y2="215.45"/><line class="cls-1" x1="519.34" y1="215.45" x2="519.37" y2="215.41"/><line class="cls-1" x1="519.37" y1="215.41" x2="519.41" y2="215.41"/><line class="cls-1" x1="519.41" y1="215.41" x2="528.37" y2="215.41"/><line class="cls-1" x1="528.37" y1="215.41" x2="528.37" y2="215.11"/><line class="cls-1" x1="528.37" y1="215.11" x2="528.37" y2="215.07"/><line class="cls-1" x1="528.37" y1="215.07" x2="529.13" y2="215.07"/><line class="cls-1" x1="529.13" y1="215.07" x2="529.2" y2="215.07"/><line class="cls-1" x1="529.2" y1="215.07" x2="529.28" y2="215.11"/><line class="cls-1" x1="529.28" y1="215.11" x2="529.32" y2="215.18"/><line class="cls-1" x1="529.32" y1="215.18" x2="529.32" y2="215.26"/><line class="cls-1" x1="529.32" y1="215.26" x2="529.32" y2="231.66"/><line class="cls-1" x1="529.32" y1="231.66" x2="529.32" y2="231.7"/><line class="cls-1" x1="529.32" y1="231.7" x2="529.28" y2="231.78"/><line class="cls-1" x1="529.28" y1="231.78" x2="529.2" y2="231.81"/><line class="cls-1" x1="529.2" y1="231.81" x2="529.13" y2="231.85"/><polygon class="cls-3" points="523.12 223.57 523.04 223.61 522.97 223.57 522.89 223.54 522.89 223.46 522.89 223.38 522.97 223.31 523.04 223.31 523.12 223.31 523.15 223.38 523.19 223.46 523.15 223.54 523.12 223.57"/><line class="cls-1" x1="523.04" y1="223.61" x2="522.97" y2="223.57"/><line class="cls-1" x1="522.97" y1="223.57" x2="522.89" y2="223.54"/><line class="cls-1" x1="522.89" y1="223.54" x2="522.89" y2="223.46"/><line class="cls-1" x1="522.89" y1="223.46" x2="522.89" y2="223.38"/><line class="cls-1" x1="522.89" y1="223.38" x2="522.97" y2="223.31"/><line class="cls-1" x1="522.97" y1="223.31" x2="523.04" y2="223.31"/><line class="cls-1" x1="523.04" y1="223.31" x2="523.12" y2="223.31"/><line class="cls-1" x1="523.12" y1="223.31" x2="523.15" y2="223.38"/><line class="cls-1" x1="523.15" y1="223.38" x2="523.19" y2="223.46"/><line class="cls-1" x1="523.19" y1="223.46" x2="523.15" y2="223.54"/><line class="cls-1" x1="523.15" y1="223.54" x2="523.12" y2="223.57"/><line class="cls-1" x1="523.12" y1="223.57" x2="523.04" y2="223.61"/><line class="cls-1" x1="523.53" y1="224.41" x2="523.42" y2="224.44"/><line class="cls-1" x1="523.42" y1="224.44" x2="523.31" y2="224.48"/><line class="cls-1" x1="523.31" y1="224.48" x2="523.12" y2="224.52"/><line class="cls-1" x1="523.12" y1="224.52" x2="522.93" y2="224.52"/><line class="cls-1" x1="522.93" y1="224.52" x2="522.74" y2="224.48"/><line class="cls-1" x1="522.74" y1="224.48" x2="522.55" y2="224.41"/><line class="cls-1" x1="522.55" y1="224.41" x2="522.36" y2="224.29"/><line class="cls-1" x1="522.36" y1="224.29" x2="522.21" y2="224.14"/><line class="cls-1" x1="522.21" y1="224.14" x2="522.1" y2="223.95"/><line class="cls-1" x1="522.1" y1="223.95" x2="522.02" y2="223.76"/><line class="cls-1" x1="522.02" y1="223.76" x2="521.98" y2="223.54"/><line class="cls-1" x1="521.98" y1="223.54" x2="521.98" y2="223.35"/><line class="cls-1" x1="521.98" y1="223.35" x2="522.02" y2="223.16"/><line class="cls-1" x1="522.02" y1="223.16" x2="522.1" y2="222.97"/><line class="cls-1" x1="522.1" y1="222.97" x2="522.21" y2="222.78"/><line class="cls-1" x1="522.21" y1="222.78" x2="522.36" y2="222.63"/><line class="cls-1" x1="522.36" y1="222.63" x2="522.55" y2="222.52"/><line class="cls-1" x1="522.55" y1="222.52" x2="522.74" y2="222.44"/><line class="cls-1" x1="522.74" y1="222.44" x2="522.93" y2="222.4"/><line class="cls-1" x1="522.93" y1="222.4" x2="523.12" y2="222.4"/><line class="cls-1" x1="523.12" y1="222.4" x2="523.34" y2="222.44"/><line class="cls-1" x1="523.34" y1="222.44" x2="523.53" y2="222.52"/><line class="cls-1" x1="523.53" y1="222.52" x2="523.72" y2="222.63"/><line class="cls-1" x1="523.72" y1="222.63" x2="523.87" y2="222.78"/><line class="cls-1" x1="523.87" y1="222.78" x2="523.99" y2="222.97"/><line class="cls-1" x1="523.99" y1="222.97" x2="524.06" y2="223.16"/><line class="cls-1" x1="524.06" y1="223.16" x2="524.1" y2="223.35"/><line class="cls-1" x1="524.1" y1="223.35" x2="524.1" y2="223.54"/><line class="cls-1" x1="524.1" y1="223.54" x2="524.06" y2="223.76"/><line class="cls-1" x1="524.06" y1="223.76" x2="523.99" y2="223.95"/><line class="cls-1" x1="523.99" y1="223.95" x2="523.87" y2="224.14"/><line class="cls-1" x1="523.87" y1="224.14" x2="523.76" y2="224.22"/><line class="cls-1" x1="523.76" y1="224.22" x2="523.61" y2="224.33"/><line class="cls-1" x1="523.61" y1="224.33" x2="523.53" y2="224.41"/><line class="cls-1" x1="527.88" y1="215.94" x2="527.88" y2="220.97"/><line class="cls-1" x1="527.88" y1="220.97" x2="527.88" y2="225.95"/><line class="cls-1" x1="527.88" y1="225.95" x2="527.88" y2="230.94"/><line class="cls-1" x1="527.88" y1="230.94" x2="527.88" y2="231.02"/><line class="cls-1" x1="527.88" y1="231.02" x2="527.84" y2="231.06"/><line class="cls-1" x1="527.84" y1="231.06" x2="527.77" y2="231.1"/><line class="cls-1" x1="527.77" y1="231.1" x2="527.69" y2="231.13"/><line class="cls-1" x1="527.69" y1="231.13" x2="519.94" y2="231.13"/><line class="cls-1" x1="519.94" y1="231.13" x2="519.87" y2="231.1"/><line class="cls-1" x1="519.87" y1="231.1" x2="519.83" y2="231.06"/><line class="cls-1" x1="519.83" y1="231.06" x2="519.79" y2="231.02"/><line class="cls-1" x1="519.79" y1="231.02" x2="519.75" y2="230.94"/><line class="cls-1" x1="519.75" y1="230.94" x2="519.75" y2="215.94"/><line class="cls-1" x1="519.75" y1="215.94" x2="519.79" y2="215.86"/><line class="cls-1" x1="519.79" y1="215.86" x2="519.83" y2="215.82"/><line class="cls-1" x1="519.83" y1="215.82" x2="519.87" y2="215.79"/><line class="cls-1" x1="519.87" y1="215.79" x2="519.94" y2="215.79"/><line class="cls-1" x1="519.94" y1="215.79" x2="527.69" y2="215.79"/><line class="cls-1" x1="527.69" y1="215.79" x2="527.77" y2="215.79"/><line class="cls-1" x1="527.77" y1="215.79" x2="527.84" y2="215.82"/><line class="cls-1" x1="527.84" y1="215.82" x2="527.88" y2="215.9"/><line class="cls-1" x1="527.88" y1="215.9" x2="527.88" y2="215.94"/><line class="cls-1" x1="519.83" y1="231.06" x2="519.83" y2="231.1"/><polygon class="cls-3" points="503.27 215.11 503.27 214.84 503.24 214.58 503.2 214.35 503.16 214.09 503.08 213.86 503.01 213.63 502.89 213.37 502.78 213.14 502.63 212.95 502.52 212.73 502.37 212.54 502.18 212.35 501.99 212.16 501.8 212.01 501.61 211.86 501.42 211.71 501.19 211.59 500.97 211.48 500.74 211.37 500.51 211.29 500.25 211.21 500.02 211.14 499.76 211.1 499.49 211.1 499.27 211.06 499 211.1 498.74 211.1 498.51 211.14 498.25 211.21 498.02 211.29 497.79 211.37 497.53 211.48 497.34 211.59 497.11 211.71 496.88 211.86 496.69 212.01 496.51 212.16 496.32 212.35 496.17 212.54 496.01 212.73 495.86 212.95 495.75 213.14 495.64 213.37 495.52 213.63 495.45 213.86 495.37 214.09 495.3 214.35 495.26 214.58 495.26 214.84 495.22 215.11 495.26 215.33 495.26 215.6 495.3 215.86 495.37 216.09 495.45 216.35 495.52 216.58 495.64 216.81 495.75 217.03 495.86 217.26 496.01 217.45 496.17 217.64 496.32 217.83 496.51 218.02 496.69 218.21 496.88 218.36 497.11 218.47 497.34 218.62 497.53 218.74 497.79 218.81 498.02 218.92 498.25 219 498.51 219.04 498.74 219.08 499 219.11 499.27 219.11 499.49 219.11 499.76 219.08 500.02 219.04 500.25 219 500.51 218.92 500.74 218.81 500.97 218.74 501.19 218.62 501.42 218.47 501.61 218.36 501.8 218.21 501.99 218.02 502.18 217.83 502.37 217.64 502.52 217.45 502.63 217.26 502.78 217.03 502.89 216.81 503.01 216.58 503.08 216.35 503.16 216.09 503.2 215.86 503.24 215.6 503.27 215.33 503.27 215.11"/><line class="cls-1" x1="503.27" y1="215.45" x2="503.2" y2="215.86"/><line class="cls-1" x1="503.2" y1="215.86" x2="503.08" y2="216.24"/><line class="cls-1" x1="503.08" y1="216.24" x2="502.97" y2="216.66"/><line class="cls-1" x1="502.97" y1="216.66" x2="502.78" y2="217.03"/><line class="cls-1" x1="502.78" y1="217.03" x2="502.55" y2="217.37"/><line class="cls-1" x1="502.55" y1="217.37" x2="502.29" y2="217.71"/><line class="cls-1" x1="502.29" y1="217.71" x2="502.02" y2="218.02"/><line class="cls-1" x1="502.02" y1="218.02" x2="501.68" y2="218.28"/><line class="cls-1" x1="501.68" y1="218.28" x2="501.34" y2="218.51"/><line class="cls-1" x1="501.34" y1="218.51" x2="500.97" y2="218.74"/><line class="cls-1" x1="500.97" y1="218.74" x2="500.59" y2="218.89"/><line class="cls-1" x1="500.59" y1="218.89" x2="500.21" y2="219"/><line class="cls-1" x1="500.21" y1="219" x2="499.79" y2="219.08"/><line class="cls-1" x1="497.19" y1="218.55" x2="496.85" y2="218.28"/><line class="cls-1" x1="496.85" y1="218.28" x2="496.51" y2="218.02"/><line class="cls-1" x1="496.51" y1="218.02" x2="496.24" y2="217.75"/><line class="cls-1" x1="496.24" y1="217.75" x2="495.98" y2="217.41"/><line class="cls-1" x1="495.98" y1="217.41" x2="495.75" y2="217.07"/><line class="cls-1" x1="495.75" y1="213.1" x2="495.98" y2="212.76"/><line class="cls-1" x1="495.98" y1="212.76" x2="496.24" y2="212.42"/><line class="cls-1" x1="496.24" y1="212.42" x2="496.54" y2="212.12"/><line class="cls-1" x1="496.54" y1="212.12" x2="496.88" y2="211.86"/><line class="cls-1" x1="496.88" y1="211.86" x2="497.22" y2="211.63"/><line class="cls-1" x1="497.22" y1="211.63" x2="497.56" y2="211.44"/><line class="cls-1" x1="497.56" y1="211.44" x2="497.98" y2="211.29"/><line class="cls-1" x1="497.98" y1="211.29" x2="498.36" y2="211.18"/><line class="cls-1" x1="498.36" y1="211.18" x2="498.77" y2="211.1"/><line class="cls-1" x1="498.77" y1="211.1" x2="499.19" y2="211.06"/><line class="cls-1" x1="499.19" y1="211.06" x2="499.61" y2="211.1"/><line class="cls-1" x1="499.61" y1="211.1" x2="500.02" y2="211.14"/><line class="cls-1" x1="500.02" y1="211.14" x2="500.44" y2="211.25"/><line class="cls-1" x1="500.44" y1="211.25" x2="500.82" y2="211.4"/><line class="cls-1" x1="500.82" y1="211.4" x2="501.19" y2="211.59"/><line class="cls-1" x1="501.19" y1="211.59" x2="501.53" y2="211.78"/><line class="cls-1" x1="501.53" y1="211.78" x2="501.87" y2="212.05"/><line class="cls-1" x1="501.87" y1="212.05" x2="502.18" y2="212.35"/><line class="cls-1" x1="502.18" y1="212.35" x2="502.44" y2="212.65"/><line class="cls-1" x1="502.44" y1="212.65" x2="502.67" y2="212.99"/><line class="cls-1" x1="498.77" y1="219.57" x2="498.77" y2="219.08"/><line class="cls-1" x1="498.77" y1="219.57" x2="499.72" y2="219.57"/><line class="cls-1" x1="499.72" y1="219.57" x2="499.72" y2="219.11"/><line class="cls-1" x1="498.81" y1="211.1" x2="498.81" y2="210.61"/><line class="cls-1" x1="498.81" y1="210.61" x2="499.72" y2="210.61"/><line class="cls-1" x1="499.72" y1="211.14" x2="499.72" y2="210.61"/><line class="cls-1" x1="503.73" y1="215.56" x2="503.73" y2="214.62"/><polygon class="cls-3" points="503.27 235.9 503.27 235.63 503.24 235.37 503.2 235.14 503.16 234.88 503.08 234.65 503.01 234.42 502.89 234.16 502.78 233.93 502.63 233.74 502.52 233.51 502.37 233.32 502.18 233.14 501.99 232.95 501.8 232.8 501.61 232.65 501.42 232.49 501.19 232.38 500.97 232.27 500.74 232.15 500.51 232.08 500.25 232 500.02 231.93 499.76 231.89 499.49 231.89 499.27 231.85 499 231.89 498.74 231.89 498.51 231.93 498.25 232 498.02 232.08 497.79 232.15 497.53 232.27 497.34 232.38 497.11 232.49 496.88 232.65 496.69 232.8 496.51 232.95 496.32 233.14 496.17 233.32 496.01 233.51 495.86 233.74 495.75 233.93 495.64 234.16 495.52 234.42 495.45 234.65 495.37 234.88 495.3 235.14 495.26 235.37 495.26 235.63 495.22 235.9 495.26 236.12 495.26 236.39 495.3 236.65 495.37 236.88 495.45 237.14 495.52 237.37 495.64 237.6 495.75 237.82 495.86 238.05 496.01 238.24 496.17 238.43 496.32 238.62 496.51 238.81 496.69 239 496.88 239.15 497.11 239.26 497.34 239.41 497.53 239.52 497.79 239.6 498.02 239.71 498.25 239.79 498.51 239.83 498.74 239.87 499 239.9 499.27 239.9 499.49 239.9 499.76 239.87 500.02 239.83 500.25 239.79 500.51 239.71 500.74 239.6 500.97 239.52 501.19 239.41 501.42 239.26 501.61 239.15 501.8 239 501.99 238.81 502.18 238.62 502.37 238.43 502.52 238.24 502.63 238.05 502.78 237.82 502.89 237.6 503.01 237.37 503.08 237.14 503.16 236.88 503.2 236.65 503.24 236.39 503.27 236.12 503.27 235.9"/><line class="cls-1" x1="503.27" y1="236.24" x2="503.2" y2="236.65"/><line class="cls-1" x1="503.2" y1="236.65" x2="503.08" y2="237.03"/><line class="cls-1" x1="503.08" y1="237.03" x2="502.97" y2="237.45"/><line class="cls-1" x1="502.97" y1="237.45" x2="502.78" y2="237.82"/><line class="cls-1" x1="502.78" y1="237.82" x2="502.55" y2="238.16"/><line class="cls-1" x1="502.55" y1="238.16" x2="502.29" y2="238.5"/><line class="cls-1" x1="502.29" y1="238.5" x2="502.02" y2="238.81"/><line class="cls-1" x1="502.02" y1="238.81" x2="501.68" y2="239.07"/><line class="cls-1" x1="501.68" y1="239.07" x2="501.34" y2="239.3"/><line class="cls-1" x1="501.34" y1="239.3" x2="500.97" y2="239.52"/><line class="cls-1" x1="500.97" y1="239.52" x2="500.59" y2="239.68"/><line class="cls-1" x1="500.59" y1="239.68" x2="500.21" y2="239.79"/><line class="cls-1" x1="500.21" y1="239.79" x2="499.79" y2="239.86"/><line class="cls-1" x1="497.19" y1="239.34" x2="496.85" y2="239.07"/><line class="cls-1" x1="496.85" y1="239.07" x2="496.51" y2="238.81"/><line class="cls-1" x1="496.51" y1="238.81" x2="496.24" y2="238.54"/><line class="cls-1" x1="496.24" y1="238.54" x2="495.98" y2="238.2"/><line class="cls-1" x1="495.98" y1="238.2" x2="495.75" y2="237.86"/><line class="cls-1" x1="495.75" y1="233.89" x2="495.98" y2="233.55"/><line class="cls-1" x1="495.98" y1="233.55" x2="496.24" y2="233.21"/><line class="cls-1" x1="496.24" y1="233.21" x2="496.54" y2="232.91"/><line class="cls-1" x1="496.54" y1="232.91" x2="496.88" y2="232.65"/><line class="cls-1" x1="496.88" y1="232.65" x2="497.22" y2="232.42"/><line class="cls-1" x1="497.22" y1="232.42" x2="497.56" y2="232.23"/><line class="cls-1" x1="497.56" y1="232.23" x2="497.98" y2="232.08"/><line class="cls-1" x1="497.98" y1="232.08" x2="498.36" y2="231.96"/><line class="cls-1" x1="498.36" y1="231.96" x2="498.77" y2="231.89"/><line class="cls-1" x1="498.77" y1="231.89" x2="499.19" y2="231.85"/><line class="cls-1" x1="499.19" y1="231.85" x2="499.61" y2="231.89"/><line class="cls-1" x1="499.61" y1="231.89" x2="500.02" y2="231.93"/><line class="cls-1" x1="500.02" y1="231.93" x2="500.44" y2="232.04"/><line class="cls-1" x1="500.44" y1="232.04" x2="500.82" y2="232.19"/><line class="cls-1" x1="500.82" y1="232.19" x2="501.19" y2="232.38"/><line class="cls-1" x1="501.19" y1="232.38" x2="501.53" y2="232.57"/><line class="cls-1" x1="501.53" y1="232.57" x2="501.87" y2="232.83"/><line class="cls-1" x1="501.87" y1="232.83" x2="502.18" y2="233.14"/><line class="cls-1" x1="502.18" y1="233.14" x2="502.44" y2="233.44"/><line class="cls-1" x1="502.44" y1="233.44" x2="502.67" y2="233.78"/><line class="cls-1" x1="498.77" y1="240.36" x2="498.77" y2="239.86"/><line class="cls-1" x1="498.77" y1="240.36" x2="499.72" y2="240.36"/><line class="cls-1" x1="499.72" y1="240.36" x2="499.72" y2="239.9"/><line class="cls-1" x1="498.81" y1="231.89" x2="498.81" y2="231.4"/><line class="cls-1" x1="498.81" y1="231.4" x2="499.72" y2="231.4"/><line class="cls-1" x1="499.72" y1="231.93" x2="499.72" y2="231.4"/><line class="cls-1" x1="503.73" y1="236.35" x2="503.73" y2="235.4"/><polygon class="cls-3" points="503.27 225.5 503.27 225.24 503.24 224.97 503.2 224.75 503.16 224.48 503.08 224.25 503.01 224.03 502.89 223.76 502.78 223.54 502.63 223.35 502.52 223.12 502.37 222.93 502.18 222.74 501.99 222.55 501.8 222.4 501.61 222.25 501.42 222.1 501.19 221.99 500.97 221.87 500.74 221.76 500.51 221.68 500.25 221.61 500.02 221.53 499.76 221.5 499.49 221.5 499.27 221.46 499 221.5 498.74 221.5 498.51 221.53 498.25 221.61 498.02 221.68 497.79 221.76 497.53 221.87 497.34 221.99 497.11 222.1 496.88 222.25 496.69 222.4 496.51 222.55 496.32 222.74 496.17 222.93 496.01 223.12 495.86 223.35 495.75 223.54 495.64 223.76 495.52 224.03 495.45 224.25 495.37 224.48 495.3 224.75 495.26 224.97 495.26 225.24 495.22 225.5 495.26 225.73 495.26 225.99 495.3 226.26 495.37 226.48 495.45 226.75 495.52 226.97 495.64 227.2 495.75 227.43 495.86 227.66 496.01 227.84 496.17 228.03 496.32 228.22 496.51 228.41 496.69 228.6 496.88 228.75 497.11 228.87 497.34 229.02 497.53 229.13 497.79 229.21 498.02 229.32 498.25 229.39 498.51 229.43 498.74 229.47 499 229.51 499.27 229.51 499.49 229.51 499.76 229.47 500.02 229.43 500.25 229.39 500.51 229.32 500.74 229.21 500.97 229.13 501.19 229.02 501.42 228.87 501.61 228.75 501.8 228.6 501.99 228.41 502.18 228.22 502.37 228.03 502.52 227.84 502.63 227.66 502.78 227.43 502.89 227.2 503.01 226.97 503.08 226.75 503.16 226.48 503.2 226.26 503.24 225.99 503.27 225.73 503.27 225.5"/><line class="cls-1" x1="503.27" y1="225.84" x2="503.2" y2="226.26"/><line class="cls-1" x1="503.2" y1="226.26" x2="503.08" y2="226.64"/><line class="cls-1" x1="503.08" y1="226.64" x2="502.97" y2="227.05"/><line class="cls-1" x1="502.97" y1="227.05" x2="502.78" y2="227.43"/><line class="cls-1" x1="502.78" y1="227.43" x2="502.55" y2="227.77"/><line class="cls-1" x1="502.55" y1="227.77" x2="502.29" y2="228.11"/><line class="cls-1" x1="502.29" y1="228.11" x2="502.02" y2="228.41"/><line class="cls-1" x1="502.02" y1="228.41" x2="501.68" y2="228.68"/><line class="cls-1" x1="501.68" y1="228.68" x2="501.34" y2="228.9"/><line class="cls-1" x1="501.34" y1="228.9" x2="500.97" y2="229.13"/><line class="cls-1" x1="500.97" y1="229.13" x2="500.59" y2="229.28"/><line class="cls-1" x1="500.59" y1="229.28" x2="500.21" y2="229.39"/><line class="cls-1" x1="500.21" y1="229.39" x2="499.79" y2="229.47"/><line class="cls-1" x1="497.19" y1="228.94" x2="496.85" y2="228.68"/><line class="cls-1" x1="496.85" y1="228.68" x2="496.51" y2="228.41"/><line class="cls-1" x1="496.51" y1="228.41" x2="496.24" y2="228.15"/><line class="cls-1" x1="496.24" y1="228.15" x2="495.98" y2="227.81"/><line class="cls-1" x1="495.98" y1="227.81" x2="495.75" y2="227.47"/><line class="cls-1" x1="495.75" y1="223.5" x2="495.98" y2="223.16"/><line class="cls-1" x1="495.98" y1="223.16" x2="496.24" y2="222.82"/><line class="cls-1" x1="496.24" y1="222.82" x2="496.54" y2="222.52"/><line class="cls-1" x1="496.54" y1="222.52" x2="496.88" y2="222.25"/><line class="cls-1" x1="496.88" y1="222.25" x2="497.22" y2="222.02"/><line class="cls-1" x1="497.22" y1="222.02" x2="497.56" y2="221.83"/><line class="cls-1" x1="497.56" y1="221.83" x2="497.98" y2="221.68"/><line class="cls-1" x1="497.98" y1="221.68" x2="498.36" y2="221.57"/><line class="cls-1" x1="498.36" y1="221.57" x2="498.77" y2="221.49"/><line class="cls-1" x1="498.77" y1="221.49" x2="499.19" y2="221.46"/><line class="cls-1" x1="499.19" y1="221.46" x2="499.61" y2="221.49"/><line class="cls-1" x1="499.61" y1="221.49" x2="500.02" y2="221.53"/><line class="cls-1" x1="500.02" y1="221.53" x2="500.44" y2="221.65"/><line class="cls-1" x1="500.44" y1="221.65" x2="500.82" y2="221.8"/><line class="cls-1" x1="500.82" y1="221.8" x2="501.19" y2="221.99"/><line class="cls-1" x1="501.19" y1="221.99" x2="501.53" y2="222.18"/><line class="cls-1" x1="501.53" y1="222.18" x2="501.87" y2="222.44"/><line class="cls-1" x1="501.87" y1="222.44" x2="502.18" y2="222.74"/><line class="cls-1" x1="502.18" y1="222.74" x2="502.44" y2="223.04"/><line class="cls-1" x1="502.44" y1="223.04" x2="502.67" y2="223.38"/><line class="cls-1" x1="498.77" y1="229.96" x2="498.77" y2="229.47"/><line class="cls-1" x1="498.77" y1="229.96" x2="499.72" y2="229.96"/><line class="cls-1" x1="499.72" y1="229.96" x2="499.72" y2="229.51"/><line class="cls-1" x1="498.81" y1="221.49" x2="498.81" y2="221"/><line class="cls-1" x1="498.81" y1="221" x2="499.72" y2="221"/><line class="cls-1" x1="499.72" y1="221.53" x2="499.72" y2="221"/><line class="cls-1" x1="503.73" y1="225.95" x2="503.73" y2="225.01"/><polygon class="cls-3" points="522.51 224.25 523 224.29 522.89 224.33 522.78 224.33 522.66 224.33 522.55 224.29 522.51 224.25"/><polygon class="cls-3" points="522.47 224.25 523 224.29 522.51 224.25 522.47 224.25"/><polygon class="cls-3" points="522.4 224.25 523 224.29 522.47 224.25 522.4 224.25"/><polygon class="cls-3" points="522.36 223.61 522.36 224.22 522.28 223.61 522.36 223.61"/><polygon class="cls-3" points="522.36 224.22 522.36 223.61 522.4 223.61 523 223.57 523.08 223.65 523.15 223.72 523.15 223.76 523.19 223.91 523.19 224.03 523.15 224.14 523.08 224.22 523 224.29 522.4 224.25 522.36 224.22"/><polygon class="cls-3" points="522.47 223.61 523 223.57 522.4 223.61 522.47 223.61"/><polygon class="cls-3" points="522.51 223.57 523 223.57 522.47 223.61 522.51 223.57"/><polygon class="cls-3" points="523 223.57 522.51 223.57 522.55 223.57 522.66 223.5 522.78 223.5 522.89 223.5 523 223.57"/><polygon class="cls-3" points="522.28 223.61 522.36 224.22 522.28 224.22 522.21 223.61 522.28 223.61"/><polygon class="cls-3" points="522.21 223.61 522.28 224.22 522.21 224.22 522.13 224.22 522.13 223.61 522.21 223.61"/><polygon class="cls-3" points="522.13 223.61 522.13 224.22 521.95 224.22 521.95 223.65 522.13 223.61"/><rect class="cls-4" x="521.76" y="223.65" width="0.19" height="0.57"/><polygon class="cls-3" points="521.76 223.65 521.76 224.22 521.53 224.18 521.53 223.65 521.76 223.65"/><rect class="cls-4" x="521.23" y="223.65" width="0.3" height="0.53"/><rect class="cls-4" x="520.96" y="223.65" width="0.26" height="0.53"/><rect class="cls-4" x="520.7" y="223.65" width="0.26" height="0.53"/><rect class="cls-4" x="520.39" y="223.65" width="0.3" height="0.53"/><rect class="cls-4" x="520.13" y="223.65" width="0.26" height="0.53"/><polygon class="cls-3" points="520.13 223.65 520.13 224.18 519.83 224.18 519.56 224.18 519.34 224.18 519.34 223.65 519.56 223.65 519.83 223.65 520.13 223.65"/><rect class="cls-4" x="519.19" y="223.65" width="0.15" height="0.53"/><polygon class="cls-3" points="518.43 223.69 518.47 224.25 518.39 224.14 518.35 224.03 518.35 223.91 518.35 223.8 518.39 223.69 518.43 223.69"/><polygon class="cls-3" points="518.47 224.25 518.43 223.69 518.43 223.54 518.43 223.35 518.39 223.2 518.39 223.04 518.43 223.04 519.18 223.04 519.22 223.04 519.18 223.2 519.18 223.35 519.18 223.54 519.18 223.65 519.15 224.25 519.03 224.33 518.92 224.37 518.81 224.37 518.69 224.37 518.58 224.33 518.47 224.25"/><polygon class="cls-3" points="519.03 222.74 518.58 222.74 518.96 222.55 519 222.55 519.03 222.55 519.03 222.59 519.03 222.63 519.03 222.74"/><polygon class="cls-3" points="519.18 222.89 519.18 223.04 518.43 223.04 518.43 222.89 518.47 222.85 518.47 222.82 518.5 222.82 518.54 222.78 518.54 222.74 518.58 222.74 519.03 222.74 519.07 222.74 519.07 222.78 519.11 222.82 519.15 222.82 519.15 222.85 519.15 222.89 519.18 222.89"/><polygon class="cls-3" points="518.62 222.55 518.66 222.55 518.69 222.55 518.73 222.55 518.85 222.55 518.92 222.55 518.96 222.55 518.58 222.74 518.58 222.63 518.58 222.59 518.58 222.55 518.62 222.55"/><polygon class="cls-3" points="518.43 222.97 518.43 223.01 518.39 223.01 518.43 222.97"/><polygon class="cls-3" points="519.15 224.25 519.18 223.65 519.18 224.18 519.15 224.25"/><polygon class="cls-3" points="523.19 223.91 523.15 223.76 523.19 223.8 523.19 223.91"/><line class="cls-1" x1="523.19" y1="223.8" x2="523.19" y2="223.91"/><line class="cls-1" x1="523.19" y1="223.91" x2="523.19" y2="224.03"/><line class="cls-1" x1="523.19" y1="224.03" x2="523.15" y2="224.14"/><line class="cls-1" x1="523.15" y1="224.14" x2="523.08" y2="224.22"/><line class="cls-1" x1="523.08" y1="224.22" x2="523" y2="224.29"/><line class="cls-1" x1="523" y1="224.29" x2="522.89" y2="224.33"/><line class="cls-1" x1="522.89" y1="224.33" x2="522.78" y2="224.33"/><line class="cls-1" x1="522.78" y1="224.33" x2="522.66" y2="224.33"/><line class="cls-1" x1="522.66" y1="224.33" x2="522.55" y2="224.29"/><line class="cls-1" x1="522.55" y1="224.29" x2="522.51" y2="224.25"/><line class="cls-1" x1="522.51" y1="224.25" x2="522.47" y2="224.25"/><line class="cls-1" x1="522.47" y1="224.25" x2="522.4" y2="224.25"/><line class="cls-1" x1="522.4" y1="224.25" x2="522.36" y2="224.22"/><line class="cls-1" x1="522.36" y1="224.22" x2="522.28" y2="224.22"/><line class="cls-1" x1="522.28" y1="224.22" x2="522.21" y2="224.22"/><line class="cls-1" x1="522.21" y1="224.22" x2="522.13" y2="224.22"/><line class="cls-1" x1="522.13" y1="224.22" x2="521.94" y2="224.22"/><line class="cls-1" x1="521.94" y1="224.22" x2="521.76" y2="224.22"/><line class="cls-1" x1="521.76" y1="224.22" x2="521.53" y2="224.18"/><line class="cls-1" x1="521.53" y1="224.18" x2="521.23" y2="224.18"/><line class="cls-1" x1="521.23" y1="224.18" x2="520.96" y2="224.18"/><line class="cls-1" x1="520.96" y1="224.18" x2="520.7" y2="224.18"/><line class="cls-1" x1="520.7" y1="224.18" x2="520.39" y2="224.18"/><line class="cls-1" x1="520.39" y1="224.18" x2="520.13" y2="224.18"/><line class="cls-1" x1="520.13" y1="224.18" x2="519.83" y2="224.18"/><line class="cls-1" x1="519.83" y1="224.18" x2="519.56" y2="224.18"/><line class="cls-1" x1="519.56" y1="224.18" x2="519.34" y2="224.18"/><line class="cls-1" x1="519.34" y1="224.18" x2="519.19" y2="224.18"/><line class="cls-1" x1="519.19" y1="224.18" x2="519.15" y2="224.25"/><line class="cls-1" x1="519.15" y1="224.25" x2="519.03" y2="224.33"/><line class="cls-1" x1="519.03" y1="224.33" x2="518.92" y2="224.37"/><line class="cls-1" x1="518.92" y1="224.37" x2="518.81" y2="224.37"/><line class="cls-1" x1="518.81" y1="224.37" x2="518.69" y2="224.37"/><line class="cls-1" x1="518.69" y1="224.37" x2="518.58" y2="224.33"/><line class="cls-1" x1="518.58" y1="224.33" x2="518.47" y2="224.25"/><line class="cls-1" x1="518.47" y1="224.25" x2="518.39" y2="224.14"/><line class="cls-1" x1="518.39" y1="224.14" x2="518.35" y2="224.03"/><line class="cls-1" x1="518.35" y1="224.03" x2="518.35" y2="223.91"/><line class="cls-1" x1="518.35" y1="223.91" x2="518.35" y2="223.8"/><line class="cls-1" x1="518.35" y1="223.8" x2="518.39" y2="223.69"/><line class="cls-1" x1="518.39" y1="223.69" x2="518.43" y2="223.69"/><line class="cls-1" x1="518.43" y1="223.69" x2="518.43" y2="223.54"/><line class="cls-1" x1="518.43" y1="223.54" x2="518.43" y2="223.35"/><line class="cls-1" x1="518.43" y1="223.35" x2="518.39" y2="223.2"/><line class="cls-1" x1="518.39" y1="223.2" x2="518.39" y2="223.04"/><line class="cls-1" x1="518.39" y1="223.04" x2="518.43" y2="223.04"/><line class="cls-1" x1="518.43" y1="223.04" x2="518.43" y2="223.01"/><line class="cls-1" x1="518.43" y1="223.01" x2="518.39" y2="223.01"/><line class="cls-1" x1="518.39" y1="223.01" x2="518.43" y2="222.97"/><line class="cls-1" x1="518.43" y1="222.97" x2="518.43" y2="222.93"/><line class="cls-1" x1="518.43" y1="222.93" x2="518.43" y2="222.89"/><line class="cls-1" x1="518.43" y1="222.89" x2="518.47" y2="222.86"/><line class="cls-1" x1="518.47" y1="222.86" x2="518.47" y2="222.82"/><line class="cls-1" x1="518.47" y1="222.82" x2="518.5" y2="222.82"/><line class="cls-1" x1="518.5" y1="222.82" x2="518.54" y2="222.78"/><line class="cls-1" x1="518.54" y1="222.78" x2="518.54" y2="222.74"/><line class="cls-1" x1="518.54" y1="222.74" x2="518.58" y2="222.74"/><line class="cls-1" x1="518.58" y1="222.74" x2="518.58" y2="222.63"/><line class="cls-1" x1="518.58" y1="222.63" x2="518.58" y2="222.59"/><line class="cls-1" x1="518.58" y1="222.59" x2="518.58" y2="222.55"/><line class="cls-1" x1="518.58" y1="222.55" x2="518.62" y2="222.55"/><line class="cls-1" x1="518.62" y1="222.55" x2="518.66" y2="222.55"/><line class="cls-1" x1="518.66" y1="222.55" x2="518.69" y2="222.55"/><line class="cls-1" x1="518.69" y1="222.55" x2="518.73" y2="222.55"/><line class="cls-1" x1="518.73" y1="222.55" x2="518.85" y2="222.55"/><line class="cls-1" x1="518.85" y1="222.55" x2="518.92" y2="222.55"/><line class="cls-1" x1="518.92" y1="222.55" x2="518.96" y2="222.55"/><line class="cls-1" x1="518.96" y1="222.55" x2="519" y2="222.55"/><line class="cls-1" x1="519" y1="222.55" x2="519.03" y2="222.55"/><line class="cls-1" x1="519.03" y1="222.55" x2="519.03" y2="222.59"/><line class="cls-1" x1="519.03" y1="222.59" x2="519.03" y2="222.63"/><line class="cls-1" x1="519.03" y1="222.63" x2="519.03" y2="222.74"/><line class="cls-1" x1="519.03" y1="222.74" x2="519.07" y2="222.74"/><line class="cls-1" x1="519.07" y1="222.74" x2="519.07" y2="222.78"/><line class="cls-1" x1="519.07" y1="222.78" x2="519.11" y2="222.82"/><line class="cls-1" x1="519.11" y1="222.82" x2="519.15" y2="222.82"/><line class="cls-1" x1="519.15" y1="222.82" x2="519.15" y2="222.86"/><line class="cls-1" x1="519.15" y1="222.86" x2="519.15" y2="222.89"/><line class="cls-1" x1="519.15" y1="222.89" x2="519.19" y2="222.89"/><line class="cls-1" x1="519.19" y1="222.89" x2="519.19" y2="222.93"/><line class="cls-1" x1="519.19" y1="222.93" x2="519.19" y2="222.97"/><line class="cls-1" x1="519.19" y1="222.97" x2="519.19" y2="223.01"/><line class="cls-1" x1="519.19" y1="223.01" x2="519.19" y2="223.04"/><line class="cls-1" x1="519.19" y1="223.04" x2="519.22" y2="223.04"/><line class="cls-1" x1="519.22" y1="223.04" x2="519.19" y2="223.2"/><line class="cls-1" x1="519.19" y1="223.2" x2="519.19" y2="223.35"/><line class="cls-1" x1="519.19" y1="223.35" x2="519.19" y2="223.54"/><line class="cls-1" x1="519.19" y1="223.54" x2="519.19" y2="223.65"/><line class="cls-1" x1="519.19" y1="223.65" x2="519.34" y2="223.65"/><line class="cls-1" x1="519.34" y1="223.65" x2="519.56" y2="223.65"/><line class="cls-1" x1="519.56" y1="223.65" x2="519.83" y2="223.65"/><line class="cls-1" x1="519.83" y1="223.65" x2="520.13" y2="223.65"/><line class="cls-1" x1="520.13" y1="223.65" x2="520.39" y2="223.65"/><line class="cls-1" x1="520.39" y1="223.65" x2="520.7" y2="223.65"/><line class="cls-1" x1="520.7" y1="223.65" x2="520.96" y2="223.65"/><line class="cls-1" x1="520.96" y1="223.65" x2="521.23" y2="223.65"/><line class="cls-1" x1="521.23" y1="223.65" x2="521.53" y2="223.65"/><line class="cls-1" x1="521.53" y1="223.65" x2="521.76" y2="223.65"/><line class="cls-1" x1="521.76" y1="223.65" x2="521.94" y2="223.65"/><line class="cls-1" x1="521.94" y1="223.65" x2="522.13" y2="223.61"/><line class="cls-1" x1="522.13" y1="223.61" x2="522.21" y2="223.61"/><line class="cls-1" x1="522.21" y1="223.61" x2="522.28" y2="223.61"/><line class="cls-1" x1="522.28" y1="223.61" x2="522.36" y2="223.61"/><line class="cls-1" x1="522.36" y1="223.61" x2="522.4" y2="223.61"/><line class="cls-1" x1="522.4" y1="223.61" x2="522.47" y2="223.61"/><line class="cls-1" x1="522.47" y1="223.61" x2="522.51" y2="223.57"/><line class="cls-1" x1="522.51" y1="223.57" x2="522.55" y2="223.57"/><line class="cls-1" x1="522.55" y1="223.57" x2="522.66" y2="223.5"/><line class="cls-1" x1="522.66" y1="223.5" x2="522.78" y2="223.5"/><line class="cls-1" x1="522.78" y1="223.5" x2="522.89" y2="223.5"/><line class="cls-1" x1="522.89" y1="223.5" x2="523" y2="223.57"/><line class="cls-1" x1="523" y1="223.57" x2="523.08" y2="223.65"/><line class="cls-1" x1="523.08" y1="223.65" x2="523.15" y2="223.72"/><line class="cls-1" x1="523.15" y1="223.72" x2="523.15" y2="223.76"/><line class="cls-1" x1="523.15" y1="223.76" x2="523.19" y2="223.8"/><line class="cls-1" x1="518.58" y1="222.74" x2="518.58" y2="222.82"/><line class="cls-1" x1="518.58" y1="222.82" x2="518.58" y2="222.93"/><line class="cls-1" x1="518.58" y1="222.93" x2="518.62" y2="223.01"/><line class="cls-1" x1="518.62" y1="223.01" x2="518.62" y2="223.04"/><line class="cls-1" x1="518.62" y1="223.04" x2="518.66" y2="223.04"/><line class="cls-1" x1="518.66" y1="223.04" x2="518.69" y2="223.04"/><line class="cls-1" x1="518.69" y1="223.04" x2="518.73" y2="223.04"/><line class="cls-1" x1="518.81" y1="222.97" x2="518.81" y2="222.93"/><line class="cls-1" x1="518.81" y1="222.93" x2="518.81" y2="222.89"/><line class="cls-1" x1="518.81" y1="222.89" x2="518.81" y2="222.86"/><line class="cls-1" x1="518.81" y1="222.86" x2="518.81" y2="222.82"/><line class="cls-1" x1="518.81" y1="222.82" x2="518.81" y2="222.78"/><line class="cls-1" x1="518.81" y1="222.78" x2="518.81" y2="222.82"/><line class="cls-1" x1="518.81" y1="222.82" x2="518.81" y2="222.86"/><line class="cls-1" x1="518.81" y1="222.86" x2="518.81" y2="222.89"/><line class="cls-1" x1="518.81" y1="222.89" x2="518.81" y2="222.93"/><line class="cls-1" x1="518.81" y1="222.93" x2="518.81" y2="222.97"/><line class="cls-1" x1="518.81" y1="222.97" x2="518.81" y2="223.01"/><line class="cls-1" x1="518.81" y1="223.01" x2="518.81" y2="222.97"/><line class="cls-1" x1="518.92" y1="223.65" x2="518.96" y2="223.65"/><line class="cls-1" x1="518.96" y1="223.65" x2="519.11" y2="223.65"/><line class="cls-1" x1="519.11" y1="223.65" x2="519.19" y2="223.65"/><line class="cls-1" x1="522.13" y1="223.61" x2="522.21" y2="223.65"/><line class="cls-1" x1="522.21" y1="223.65" x2="522.25" y2="223.65"/><line class="cls-1" x1="522.62" y1="223.54" x2="522.62" y2="223.57"/><line class="cls-1" x1="522.62" y1="223.57" x2="522.59" y2="223.57"/><line class="cls-1" x1="522.59" y1="223.57" x2="522.55" y2="223.57"/><line class="cls-1" x1="522.55" y1="223.57" x2="522.51" y2="223.57"/><line class="cls-1" x1="522.25" y1="224.18" x2="522.21" y2="224.22"/><line class="cls-1" x1="522.21" y1="224.22" x2="522.13" y2="224.22"/><line class="cls-1" x1="519" y1="223.01" x2="519.19" y2="223.01"/><line class="cls-1" x1="518.96" y1="224.18" x2="519.11" y2="224.18"/><line class="cls-1" x1="519.11" y1="224.18" x2="519.19" y2="224.18"/><line class="cls-1" x1="518.96" y1="222.67" x2="518.92" y2="222.67"/><line class="cls-1" x1="518.92" y1="222.67" x2="518.88" y2="222.67"/><line class="cls-1" x1="518.43" y1="223.04" x2="519.19" y2="223.04"/><line class="cls-1" x1="522.51" y1="224.25" x2="522.55" y2="224.25"/><line class="cls-1" x1="522.55" y1="224.25" x2="522.59" y2="224.29"/><line class="cls-1" x1="522.59" y1="224.29" x2="522.62" y2="224.29"/><line class="cls-1" x1="518.43" y1="223.01" x2="518.47" y2="223.01"/><line class="cls-1" x1="518.47" y1="223.01" x2="518.62" y2="223.01"/><line class="cls-1" x1="519" y1="222.89" x2="519" y2="222.93"/><line class="cls-1" x1="519" y1="222.93" x2="519" y2="223.01"/><line class="cls-1" x1="519" y1="223.01" x2="519" y2="223.04"/><line class="cls-1" x1="519" y1="223.04" x2="518.96" y2="223.04"/><line class="cls-1" x1="518.96" y1="223.04" x2="518.92" y2="223.04"/><line class="cls-1" x1="518.92" y1="223.04" x2="518.88" y2="223.04"/><line class="cls-1" x1="519" y1="223.65" x2="518.96" y2="223.61"/><line class="cls-1" x1="518.96" y1="223.61" x2="518.88" y2="223.61"/><line class="cls-1" x1="518.88" y1="223.61" x2="518.81" y2="223.57"/><line class="cls-1" x1="518.81" y1="223.57" x2="518.73" y2="223.61"/><line class="cls-1" x1="518.73" y1="223.61" x2="518.62" y2="223.61"/><line class="cls-1" x1="518.62" y1="223.61" x2="518.54" y2="223.69"/><line class="cls-1" x1="518.54" y1="223.69" x2="518.5" y2="223.76"/><line class="cls-1" x1="518.5" y1="223.76" x2="518.47" y2="223.84"/><line class="cls-1" x1="518.47" y1="223.84" x2="518.47" y2="223.91"/><line class="cls-1" x1="518.47" y1="223.91" x2="518.47" y2="224.03"/><line class="cls-1" x1="518.47" y1="224.03" x2="518.5" y2="224.1"/><line class="cls-1" x1="518.5" y1="224.1" x2="518.54" y2="224.18"/><line class="cls-1" x1="518.54" y1="224.18" x2="518.62" y2="224.22"/><line class="cls-1" x1="518.62" y1="224.22" x2="518.73" y2="224.25"/><line class="cls-1" x1="518.73" y1="224.25" x2="518.81" y2="224.25"/><line class="cls-1" x1="518.81" y1="224.25" x2="518.88" y2="224.25"/><line class="cls-1" x1="518.88" y1="224.25" x2="518.96" y2="224.22"/><line class="cls-1" x1="518.96" y1="224.22" x2="519" y2="224.18"/><line class="cls-1" x1="518.43" y1="223.88" x2="518.43" y2="223.84"/><line class="cls-1" x1="518.43" y1="223.84" x2="518.43" y2="223.8"/><line class="cls-1" x1="518.43" y1="223.8" x2="518.43" y2="223.76"/><line class="cls-1" x1="518.43" y1="223.76" x2="518.43" y2="223.69"/><line class="cls-1" x1="518.43" y1="223.84" x2="518.43" y2="223.88"/><line class="cls-1" x1="518.43" y1="223.88" x2="518.43" y2="223.91"/><line class="cls-1" x1="518.43" y1="223.91" x2="518.43" y2="223.95"/><line class="cls-1" x1="522.25" y1="223.65" x2="522.32" y2="223.72"/><line class="cls-1" x1="522.32" y1="223.72" x2="522.36" y2="223.76"/><line class="cls-1" x1="522.36" y1="223.76" x2="522.36" y2="223.84"/><line class="cls-1" x1="522.36" y1="223.84" x2="522.4" y2="223.91"/><line class="cls-1" x1="522.4" y1="223.91" x2="522.36" y2="223.99"/><line class="cls-1" x1="522.36" y1="223.99" x2="522.36" y2="224.06"/><line class="cls-1" x1="522.36" y1="224.06" x2="522.32" y2="224.14"/><line class="cls-1" x1="518.77" y1="222.67" x2="518.81" y2="222.67"/><line class="cls-1" x1="518.81" y1="222.67" x2="518.85" y2="222.67"/><line class="cls-1" x1="518.66" y1="222.67" x2="518.69" y2="222.67"/><line class="cls-1" x1="518.69" y1="222.67" x2="518.73" y2="222.67"/><line class="cls-1" x1="518.81" y1="223.04" x2="518.77" y2="223.04"/><line class="cls-1" x1="518.77" y1="223.04" x2="518.73" y2="223.04"/><line class="cls-1" x1="518.73" y1="223.04" x2="518.69" y2="223.04"/><line class="cls-1" x1="518.81" y1="223.04" x2="518.85" y2="223.04"/><line class="cls-1" x1="518.85" y1="223.04" x2="518.88" y2="223.04"/><line class="cls-1" x1="518.88" y1="223.04" x2="518.92" y2="223.04"/><line class="cls-1" x1="519" y1="222.89" x2="519" y2="222.82"/><line class="cls-1" x1="519" y1="222.82" x2="519.03" y2="222.74"/><line class="cls-1" x1="518.96" y1="224.18" x2="518.92" y2="224.22"/><line class="cls-1" x1="522.32" y1="224.14" x2="522.25" y2="224.18"/><line class="cls-1" x1="501.57" y1="203.62" x2="501.57" y2="202.9"/><line class="cls-1" x1="501.57" y1="202.9" x2="507.77" y2="202.9"/><line class="cls-1" x1="510.49" y1="202.9" x2="521.38" y2="202.9"/><line class="cls-1" x1="524.1" y1="202.9" x2="529.92" y2="202.9"/><line class="cls-1" x1="529.92" y1="203.62" x2="529.92" y2="202.9"/><line class="cls-1" x1="501.57" y1="203.62" x2="507.77" y2="203.62"/><line class="cls-1" x1="510.49" y1="203.62" x2="521.38" y2="203.62"/><line class="cls-1" x1="524.1" y1="203.62" x2="529.92" y2="203.62"/><line class="cls-1" x1="501.57" y1="248.26" x2="501.57" y2="247.54"/><line class="cls-1" x1="501.57" y1="247.54" x2="507.77" y2="247.54"/><line class="cls-1" x1="510.49" y1="247.54" x2="521.38" y2="247.54"/><line class="cls-1" x1="524.1" y1="247.54" x2="529.92" y2="247.54"/><line class="cls-1" x1="529.92" y1="248.26" x2="529.92" y2="247.54"/><line class="cls-1" x1="501.57" y1="248.26" x2="507.77" y2="248.26"/><line class="cls-1" x1="510.49" y1="248.26" x2="521.38" y2="248.26"/><line class="cls-1" x1="524.1" y1="248.26" x2="529.92" y2="248.26"/><rect class="cls-5" x="509.58" y="203.84" width="7.56" height="1.66"/><rect class="cls-5" x="515.52" y="205.51" width="1.63" height="40.14"/><rect class="cls-5" x="507.96" y="203.84" width="1.63" height="43.47"/><rect class="cls-5" x="509.58" y="245.65" width="7.56" height="1.66"/><line class="cls-1" x1="517.41" y1="203.62" x2="507.69" y2="203.62"/><line class="cls-1" x1="517.14" y1="203.84" x2="509.58" y2="203.84"/><line class="cls-1" x1="517.14" y1="205.51" x2="517.14" y2="203.84"/><line class="cls-1" x1="509.58" y1="205.51" x2="515.52" y2="205.51"/><line class="cls-1" x1="509.85" y1="205.73" x2="515.25" y2="205.73"/><line class="cls-1" x1="517.41" y1="247.54" x2="517.41" y2="203.62"/><line class="cls-1" x1="517.14" y1="245.65" x2="517.14" y2="205.51"/><line class="cls-1" x1="515.52" y1="205.51" x2="515.52" y2="245.65"/><line class="cls-1" x1="515.25" y1="205.73" x2="515.25" y2="245.42"/><line class="cls-1" x1="507.69" y1="203.62" x2="507.69" y2="247.54"/><line class="cls-1" x1="507.96" y1="203.84" x2="507.96" y2="247.31"/><line class="cls-1" x1="507.96" y1="247.31" x2="509.58" y2="247.31"/><line class="cls-1" x1="509.58" y1="203.84" x2="507.96" y2="203.84"/><line class="cls-1" x1="509.58" y1="245.65" x2="509.58" y2="205.51"/><line class="cls-1" x1="509.85" y1="245.42" x2="509.85" y2="205.73"/><line class="cls-1" x1="507.69" y1="247.54" x2="517.41" y2="247.54"/><line class="cls-1" x1="509.58" y1="247.31" x2="517.14" y2="247.31"/><line class="cls-1" x1="517.14" y1="247.31" x2="517.14" y2="245.65"/><line class="cls-1" x1="515.52" y1="245.65" x2="509.58" y2="245.65"/><line class="cls-1" x1="515.25" y1="245.42" x2="509.85" y2="245.42"/><line class="cls-1" x1="529.92" y1="202.9" x2="529.92" y2="215.75"/><line class="cls-1" x1="529.92" y1="215.75" x2="519.83" y2="215.75"/><line class="cls-1" x1="519.83" y1="215.75" x2="519.83" y2="231.02"/><line class="cls-1" x1="519.83" y1="231.02" x2="529.92" y2="231.02"/><line class="cls-1" x1="529.92" y1="231.02" x2="529.92" y2="248.26"/><line class="cls-1" x1="529.92" y1="248.26" x2="501.57" y2="248.26"/><line class="cls-1" x1="501.57" y1="248.26" x2="501.57" y2="202.9"/><line class="cls-1" x1="501.57" y1="202.9" x2="529.92" y2="202.9"/><line class="cls-1" x1="519.83" y1="215.82" x2="519.79" y2="215.9"/><line class="cls-1" x1="519.79" y1="215.9" x2="519.79" y2="215.98"/><line class="cls-1" x1="519.79" y1="215.98" x2="519.79" y2="230.94"/><line class="cls-1" x1="519.79" y1="230.94" x2="519.79" y2="230.98"/><line class="cls-1" x1="519.79" y1="230.98" x2="519.83" y2="231.06"/><line class="cls-1" x1="519.83" y1="231.06" x2="519.9" y2="231.1"/><line class="cls-1" x1="519.9" y1="231.1" x2="519.98" y2="231.1"/><line class="cls-1" x1="519.98" y1="231.1" x2="527.73" y2="231.1"/><line class="cls-1" x1="527.73" y1="231.1" x2="528.48" y2="231.13"/><line class="cls-1" x1="528.48" y1="231.13" x2="528.71" y2="231.17"/><line class="cls-1" x1="528.71" y1="231.17" x2="528.9" y2="231.25"/><line class="cls-1" x1="528.9" y1="231.25" x2="529.05" y2="231.4"/><line class="cls-1" x1="529.05" y1="231.4" x2="529.16" y2="231.62"/><line class="cls-1" x1="529.16" y1="231.62" x2="529.28" y2="231.93"/><line class="cls-1" x1="529.28" y1="231.93" x2="529.88" y2="231.93"/><line class="cls-1" x1="529.88" y1="231.93" x2="529.88" y2="231.02"/><line class="cls-1" x1="529.88" y1="231.02" x2="519.83" y2="231.02"/><line class="cls-1" x1="519.83" y1="231.02" x2="519.83" y2="215.82"/><text class="cls-6" transform="translate(515.01 246.14) rotate(-90)">OPT. ISLAND</text></g></g></svg>