<svg id="图层_1" data-name="图层 1" xmlns="http://www.w3.org/2000/svg" viewBox="0 0 1008 504"><defs><style>.cls-1{fill:none;stroke:#0c4f71;stroke-linecap:round;stroke-linejoin:bevel;stroke-width:0.15px;}.cls-2{fill:#fff;}.cls-3{font-size:7px;fill:#0c5275;font-family:CenturyGothic, Century Gothic;}</style></defs><title>BUTLER</title><g id="merlot-IFP_main_floor" data-name="merlot-IFP main floor"><g id="BUTLER"><line class="cls-1" x1="480.56" y1="303.06" x2="482.26" y2="303.06"/><line class="cls-1" x1="483.96" y1="303.06" x2="485.66" y2="303.06"/><line class="cls-1" x1="487.36" y1="303.06" x2="489.14" y2="303.06"/><line class="cls-1" x1="477.8" y1="303.06" x2="479.23" y2="303.06"/><line class="cls-1" x1="477.8" y1="304.65" x2="477.8" y2="306.35"/><line class="cls-1" x1="477.8" y1="308.05" x2="477.8" y2="309.75"/><line class="cls-1" x1="477.8" y1="311.45" x2="477.8" y2="313.15"/><line class="cls-1" x1="477.8" y1="303.06" x2="477.8" y2="304.46"/><line class="cls-1" x1="477.8" y1="314.86" x2="477.8" y2="313.46"/><line class="cls-1" x1="480.56" y1="291.72" x2="482.26" y2="291.72"/><line class="cls-1" x1="483.96" y1="291.72" x2="485.66" y2="291.72"/><line class="cls-1" x1="487.36" y1="291.72" x2="489.14" y2="291.72"/><line class="cls-1" x1="477.8" y1="291.72" x2="479.23" y2="291.72"/><line class="cls-1" x1="477.8" y1="279.89" x2="477.8" y2="282.54"/><line class="cls-1" x1="477.8" y1="284.24" x2="477.8" y2="285.94"/><line class="cls-1" x1="477.8" y1="287.64" x2="477.8" y2="289.34"/><line class="cls-1" x1="477.8" y1="291.72" x2="477.8" y2="290.29"/><rect class="cls-2" x="478.02" y="291.84" width="0.64" height="11.11"/><line class="cls-1" x1="478.67" y1="291.84" x2="478.67" y2="302.95"/><line class="cls-1" x1="478.67" y1="302.95" x2="478.02" y2="302.95"/><line class="cls-1" x1="478.02" y1="302.95" x2="478.02" y2="291.84"/><line class="cls-1" x1="478.02" y1="291.84" x2="478.67" y2="291.84"/><rect class="cls-2" x="478.71" y="291.84" width="10.39" height="11.11"/><line class="cls-1" x1="489.14" y1="302.95" x2="478.74" y2="302.95"/><line class="cls-1" x1="478.74" y1="302.95" x2="478.74" y2="291.84"/><line class="cls-1" x1="478.74" y1="291.84" x2="489.14" y2="291.84"/><line class="cls-1" x1="477.8" y1="292.56" x2="477.72" y2="292.48"/><line class="cls-1" x1="477.72" y1="292.48" x2="477.72" y2="292.37"/><line class="cls-1" x1="477.72" y1="292.37" x2="477.8" y2="292.29"/><line class="cls-1" x1="477.68" y1="292.29" x2="477.8" y2="292.25"/><line class="cls-1" x1="477.8" y1="292.25" x2="478.02" y2="292.25"/><line class="cls-1" x1="478.02" y1="292.59" x2="477.8" y2="292.59"/><line class="cls-1" x1="477.8" y1="292.59" x2="477.68" y2="292.56"/><line class="cls-1" x1="477.68" y1="292.56" x2="478.02" y2="292.56"/><line class="cls-1" x1="477.68" y1="292.56" x2="477.61" y2="292.48"/><line class="cls-1" x1="477.61" y1="292.48" x2="477.61" y2="292.37"/><line class="cls-1" x1="477.61" y1="292.37" x2="477.68" y2="292.29"/><line class="cls-1" x1="477.68" y1="292.29" x2="478.02" y2="292.29"/><rect class="cls-2" x="483.47" y="290.29" width="5.67" height="14.17"/><line class="cls-1" x1="489.14" y1="304.46" x2="483.47" y2="304.46"/><line class="cls-1" x1="483.47" y1="304.46" x2="483.47" y2="290.29"/><line class="cls-1" x1="483.47" y1="290.29" x2="489.14" y2="290.29"/><rect class="cls-2" x="483.47" y="290.29" width="5.67" height="14.17"/><line class="cls-1" x1="489.14" y1="304.46" x2="483.47" y2="304.46"/><line class="cls-1" x1="483.47" y1="304.46" x2="483.47" y2="290.29"/><line class="cls-1" x1="483.47" y1="290.29" x2="489.14" y2="290.29"/><rect class="cls-2" x="483.2" y="290.29" width="0.23" height="14.17"/><line class="cls-1" x1="483.43" y1="290.29" x2="483.43" y2="304.46"/><line class="cls-1" x1="483.43" y1="304.46" x2="483.2" y2="304.46"/><line class="cls-1" x1="483.2" y1="304.46" x2="483.2" y2="290.29"/><line class="cls-1" x1="483.2" y1="290.29" x2="483.43" y2="290.29"/><line class="cls-1" x1="483.84" y1="290.29" x2="483.84" y2="304.46"/><line class="cls-1" x1="483.47" y1="290.29" x2="483.47" y2="279.89"/><line class="cls-1" x1="483.47" y1="314.86" x2="483.47" y2="304.46"/><line class="cls-1" x1="483.47" y1="304.46" x2="483.47" y2="290.29"/><line class="cls-1" x1="489.14" y1="279.89" x2="489.14" y2="314.86"/><line class="cls-1" x1="489.14" y1="314.86" x2="473.68" y2="314.86"/><line class="cls-1" x1="473.68" y1="279.89" x2="489.14" y2="279.89"/><line class="cls-1" x1="489.14" y1="279.89" x2="489.14" y2="314.86"/><line class="cls-1" x1="489.14" y1="314.86" x2="477.12" y2="314.86"/><line class="cls-1" x1="477.12" y1="314.86" x2="477.12" y2="279.89"/><line class="cls-1" x1="477.12" y1="279.89" x2="489.14" y2="279.89"/><text class="cls-3" transform="translate(470.78 286.54) rotate(90)">BUTLER</text></g></g></svg>