<svg id="图层_1" data-name="图层 1" xmlns="http://www.w3.org/2000/svg" viewBox="0 0 1008 504"><defs><style>.cls-1,.cls-4{fill:#fff;}.cls-2,.cls-21,.cls-3,.cls-7,.cls-8,.cls-9{fill:none;}.cls-2,.cls-3,.cls-7,.cls-8,.cls-9{stroke:#0c4f71;stroke-linejoin:bevel;}.cls-2,.cls-7,.cls-8,.cls-9{stroke-linecap:round;}.cls-2{stroke-width:0.23px;}.cls-3{stroke-width:0;}.cls-4,.cls-5{fill-rule:evenodd;}.cls-10,.cls-5,.cls-6{fill:#0c5275;}.cls-7,.cls-9{stroke-width:0.3px;}.cls-8{stroke-width:0.15px;}.cls-9{stroke-dasharray:2.57;}.cls-10{font-size:7px;font-family:CenturyGothic, Century Gothic;}.cls-11{letter-spacing:0em;}.cls-12{letter-spacing:-0.01em;}.cls-13{letter-spacing:0em;}.cls-14{letter-spacing:0em;}.cls-15{letter-spacing:-0.01em;}.cls-16{letter-spacing:0.01em;}.cls-17{letter-spacing:-0.01em;}.cls-18{letter-spacing:0em;}.cls-19{letter-spacing:0em;}.cls-20{letter-spacing:-0.01em;}</style></defs><title>SUNROOM-2</title><g id="merlot-IFP_main_floor" data-name="merlot-IFP main floor"><g id="SUNROOM-2"><g id="SUNROOM-2-2" data-name="SUNROOM-2"><rect class="cls-1" x="459.82" y="99.69" width="62.52" height="64.5"/><line class="cls-2" x1="459.82" y1="99.69" x2="459.82" y2="99.43"/><line class="cls-2" x1="459.82" y1="99.69" x2="459.82" y2="99.43"/><line class="cls-2" x1="522.19" y1="99.69" x2="522.19" y2="99.43"/><line class="cls-2" x1="462.17" y1="99.43" x2="463.87" y2="99.43"/><line class="cls-2" x1="465.57" y1="99.43" x2="467.27" y2="99.43"/><line class="cls-2" x1="468.97" y1="99.43" x2="470.67" y2="99.43"/><line class="cls-2" x1="472.37" y1="99.43" x2="474.07" y2="99.43"/><line class="cls-2" x1="475.77" y1="99.43" x2="477.48" y2="99.43"/><line class="cls-2" x1="479.18" y1="99.43" x2="480.88" y2="99.43"/><line class="cls-2" x1="482.58" y1="99.43" x2="484.28" y2="99.43"/><line class="cls-2" x1="485.98" y1="99.43" x2="487.68" y2="99.43"/><line class="cls-2" x1="489.38" y1="99.43" x2="491.08" y2="99.43"/><line class="cls-2" x1="492.78" y1="99.43" x2="494.48" y2="99.43"/><line class="cls-2" x1="496.19" y1="99.43" x2="497.89" y2="99.43"/><line class="cls-2" x1="499.59" y1="99.43" x2="501.29" y2="99.43"/><line class="cls-2" x1="502.99" y1="99.43" x2="504.69" y2="99.43"/><line class="cls-2" x1="506.39" y1="99.43" x2="508.09" y2="99.43"/><line class="cls-2" x1="509.79" y1="99.43" x2="511.49" y2="99.43"/><line class="cls-2" x1="513.19" y1="99.43" x2="514.9" y2="99.43"/><line class="cls-2" x1="516.6" y1="99.43" x2="518.3" y2="99.43"/><line class="cls-2" x1="520" y1="99.43" x2="523.14" y2="99.43"/><line class="cls-2" x1="459.82" y1="99.43" x2="461.22" y2="99.43"/><line class="cls-2" x1="523.14" y1="101.58" x2="523.14" y2="103.28"/><line class="cls-2" x1="523.14" y1="104.98" x2="523.14" y2="106.98"/><line class="cls-2" x1="523.14" y1="99.43" x2="523.14" y2="100.86"/><line class="cls-2" x1="524.76" y1="162.06" x2="524.76" y2="164.51"/><line class="cls-2" x1="524.76" y1="166.21" x2="524.76" y2="167.92"/><line class="cls-2" x1="524.76" y1="169.62" x2="524.76" y2="171.32"/><line class="cls-2" x1="524.76" y1="173.4" x2="524.76" y2="171.96"/><line class="cls-2" x1="526.8" y1="173.4" x2="528.5" y2="173.4"/><line class="cls-2" x1="524.76" y1="173.4" x2="526.2" y2="173.4"/><line class="cls-2" x1="524.23" y1="174.08" x2="524.19" y2="174.08"/><line class="cls-2" x1="524.19" y1="174.08" x2="524.16" y2="174.08"/><line class="cls-2" x1="524.16" y1="174.08" x2="524.12" y2="174.08"/><line class="cls-2" x1="524.12" y1="174.08" x2="524.12" y2="174.04"/><line class="cls-2" x1="524.12" y1="174.04" x2="524.08" y2="174.04"/><line class="cls-2" x1="524.08" y1="174.04" x2="524.08" y2="174"/><line class="cls-2" x1="524.08" y1="174" x2="524.08" y2="173.96"/><line class="cls-2" x1="524.08" y1="173.96" x2="524.08" y2="173.93"/><line class="cls-2" x1="524.08" y1="173.93" x2="524.08" y2="162.06"/><line class="cls-2" x1="459.82" y1="99.43" x2="522.19" y2="99.43"/><line class="cls-2" x1="522.19" y1="99.43" x2="522.19" y2="107.7"/><line class="cls-2" x1="459.82" y1="107.7" x2="459.82" y2="99.43"/><line class="cls-2" x1="459.56" y1="162.06" x2="459.6" y2="162.06"/><line class="cls-3" x1="527.9" y1="158.99" x2="528.13" y2="158.77"/><polygon class="cls-4" points="525.44 96.4 525.44 139.38 525.22 139.38 525.22 96.88 525.44 96.4"/><line class="cls-3" x1="525.21" y1="97.61" x2="525.44" y2="97.84"/><line class="cls-3" x1="525.21" y1="100.29" x2="525.44" y2="100.52"/><line class="cls-3" x1="525.21" y1="102.98" x2="525.44" y2="103.2"/><line class="cls-3" x1="525.21" y1="105.62" x2="525.44" y2="105.89"/><line class="cls-3" x1="525.21" y1="108.31" x2="525.44" y2="108.53"/><line class="cls-3" x1="525.21" y1="110.99" x2="525.44" y2="111.22"/><line class="cls-3" x1="525.21" y1="113.64" x2="525.44" y2="113.9"/><line class="cls-3" x1="525.21" y1="116.32" x2="525.44" y2="116.55"/><polygon class="cls-4" points="525.44 139.38 525.44 158.77 525.22 159 525.22 139.38 525.44 139.38"/><line class="cls-3" x1="525.21" y1="140.4" x2="525.44" y2="140.62"/><line class="cls-3" x1="525.21" y1="143.04" x2="525.44" y2="143.31"/><line class="cls-3" x1="525.21" y1="145.73" x2="525.44" y2="145.95"/><line class="cls-3" x1="525.21" y1="148.41" x2="525.44" y2="148.64"/><line class="cls-3" x1="525.21" y1="151.06" x2="525.44" y2="151.32"/><line class="cls-3" x1="525.21" y1="153.74" x2="525.44" y2="153.97"/><line class="cls-3" x1="525.21" y1="156.42" x2="525.44" y2="156.65"/><polygon class="cls-5" points="525.22 96.57 525.22 139.38 525.03 139.38 525.03 97.06 525.22 96.57"/><polygon class="cls-5" points="525.22 139.38 525.22 159 525.03 159.22 525.03 139.38 525.22 139.38"/><rect class="cls-6" x="522.42" y="139.38" width="2.61" height="22.41"/><polygon class="cls-5" points="522.42 99.52 522.42 139.38 522.19 139.38 522.19 100.13 522.42 99.52"/><polygon class="cls-5" points="522.42 139.38 522.42 161.79 522.19 162.06 522.19 139.38 522.42 139.38"/><rect class="cls-1" x="429.43" y="158.77" width="3.93" height="0.23"/><line class="cls-3" x1="431.66" y1="158.99" x2="431.89" y2="158.77"/><polygon class="cls-4" points="450.38 158.77 456.54 158.77 456.76 159 450.38 159 450.38 158.77"/><line class="cls-3" x1="450.37" y1="158.99" x2="450.6" y2="158.77"/><line class="cls-3" x1="453.06" y1="158.99" x2="453.29" y2="158.77"/><line class="cls-3" x1="455.7" y1="158.99" x2="455.97" y2="158.77"/><rect class="cls-6" x="429.43" y="158.99" width="3.93" height="0.23"/><polygon class="cls-5" points="450.38 159 456.76 159 456.99 159.22 450.38 159.22 450.38 159"/><rect class="cls-6" x="429.43" y="159.22" width="3.93" height="2.57"/><rect class="cls-6" x="450.37" y="159.22" width="6.61" height="2.57"/><rect class="cls-6" x="429.43" y="161.79" width="3.93" height="0.26"/><polygon class="cls-5" points="450.38 161.79 459.56 161.79 459.82 162.06 450.38 162.06 450.38 161.79"/><polygon class="cls-4" points="456.54 158.77 456.54 139.38 456.76 139.38 456.76 159 456.54 158.77"/><line class="cls-3" x1="456.54" y1="141.19" x2="456.76" y2="141.42"/><line class="cls-3" x1="456.54" y1="143.84" x2="456.76" y2="144.1"/><line class="cls-3" x1="456.54" y1="146.52" x2="456.76" y2="146.75"/><line class="cls-3" x1="456.54" y1="149.21" x2="456.76" y2="149.43"/><line class="cls-3" x1="456.54" y1="151.85" x2="456.76" y2="152.12"/><line class="cls-3" x1="456.54" y1="154.53" x2="456.76" y2="154.76"/><line class="cls-3" x1="456.54" y1="157.22" x2="456.76" y2="157.45"/><polygon class="cls-4" points="456.54 139.66 456.54 95.92 456.76 96.41 456.76 139.66 456.54 139.66"/><line class="cls-3" x1="456.54" y1="98.4" x2="456.76" y2="98.63"/><line class="cls-3" x1="456.54" y1="101.09" x2="456.76" y2="101.31"/><line class="cls-3" x1="456.54" y1="103.77" x2="456.76" y2="104"/><line class="cls-3" x1="456.54" y1="106.42" x2="456.76" y2="106.68"/><line class="cls-3" x1="456.54" y1="109.1" x2="456.76" y2="109.33"/><line class="cls-3" x1="456.54" y1="111.79" x2="456.76" y2="112.01"/><line class="cls-3" x1="456.54" y1="114.47" x2="456.76" y2="114.7"/><polygon class="cls-5" points="456.76 159 456.76 139.38 456.99 139.38 456.99 159.22 456.76 159"/><polygon class="cls-5" points="456.76 139.66 456.76 96.41 456.99 96.9 456.99 139.66 456.76 139.66"/><rect class="cls-6" x="456.99" y="139.38" width="2.57" height="22.41"/><rect class="cls-6" x="456.99" y="96.9" width="2.57" height="42.76"/><polygon class="cls-5" points="459.56 161.79 459.56 139.38 459.82 139.38 459.82 162.06 459.56 161.79"/><polygon class="cls-5" points="459.56 139.66 459.56 99.42 459.82 100.04 459.82 139.66 459.56 139.66"/><polygon class="cls-4" points="456.54 96.4 466.67 96.4 466.67 96.63 456.76 96.63 456.54 96.4"/><line class="cls-3" x1="456.69" y1="96.55" x2="456.84" y2="96.4"/><line class="cls-3" x1="459.29" y1="96.63" x2="459.52" y2="96.4"/><line class="cls-3" x1="461.94" y1="96.63" x2="462.21" y2="96.4"/><line class="cls-3" x1="464.62" y1="96.63" x2="464.85" y2="96.4"/><polygon class="cls-4" points="515.31 96.4 525.44 96.4 525.22 96.63 515.31 96.63 515.31 96.4"/><line class="cls-3" x1="515.43" y1="96.63" x2="515.65" y2="96.4"/><line class="cls-3" x1="518.07" y1="96.63" x2="518.34" y2="96.4"/><line class="cls-3" x1="520.75" y1="96.63" x2="520.98" y2="96.4"/><line class="cls-3" x1="523.44" y1="96.63" x2="523.67" y2="96.4"/><polygon class="cls-5" points="456.76 96.63 468.33 96.63 468.33 96.86 456.99 96.86 456.76 96.63"/><polygon class="cls-5" points="513.69 96.63 525.22 96.63 525.03 96.86 513.69 96.86 513.69 96.63"/><rect class="cls-6" x="459.56" y="96.85" width="8.77" height="2.57"/><rect class="cls-6" x="513.69" y="96.85" width="8.73" height="2.57"/><polygon class="cls-5" points="459.56 99.42 468.33 99.42 468.33 99.69 459.82 99.69 459.56 99.42"/><polygon class="cls-5" points="513.69 99.42 522.42 99.42 522.19 99.69 513.69 99.69 513.69 99.42"/><line class="cls-7" x1="525.03" y1="139.38" x2="525.03" y2="96.85"/><line class="cls-7" x1="525.03" y1="159.22" x2="525.03" y2="139.38"/><line class="cls-7" x1="525.06" y1="96.85" x2="522.42" y2="96.85"/><line class="cls-7" x1="522.42" y1="161.79" x2="525.03" y2="161.79"/><line class="cls-7" x1="522.42" y1="99.52" x2="522.42" y2="139.38"/><line class="cls-7" x1="522.42" y1="139.38" x2="522.42" y2="161.79"/><line class="cls-7" x1="433.37" y1="159.22" x2="432.31" y2="159.22"/><line class="cls-7" x1="456.99" y1="159.22" x2="450.37" y2="159.22"/><line class="cls-7" x1="433.37" y1="159.22" x2="433.37" y2="161.79"/><line class="cls-7" x1="450.37" y1="159.22" x2="450.37" y2="161.79"/><line class="cls-7" x1="433.37" y1="159.22" x2="433.37" y2="161.79"/><line class="cls-7" x1="450.37" y1="159.22" x2="450.37" y2="161.79"/><line class="cls-7" x1="432.31" y1="161.79" x2="433.37" y2="161.79"/><line class="cls-7" x1="450.37" y1="161.79" x2="456.99" y2="161.79"/><line class="cls-8" x1="450.37" y1="158.77" x2="450" y2="158.77"/><line class="cls-8" x1="450.37" y1="162.06" x2="450" y2="162.06"/><line class="cls-8" x1="450.37" y1="158.77" x2="450.37" y2="162.06"/><line class="cls-8" x1="450" y1="158.77" x2="450" y2="162.06"/><line class="cls-8" x1="433.71" y1="158.77" x2="433.37" y2="158.77"/><line class="cls-8" x1="433.71" y1="162.06" x2="433.37" y2="162.06"/><line class="cls-8" x1="433.71" y1="158.77" x2="433.71" y2="162.06"/><line class="cls-8" x1="433.37" y1="158.77" x2="433.37" y2="162.06"/><line class="cls-8" x1="450" y1="159.33" x2="433.71" y2="159.33"/><line class="cls-8" x1="450" y1="159.71" x2="433.71" y2="159.71"/><line class="cls-8" x1="432.31" y1="158.01" x2="451.89" y2="158.01"/><line class="cls-8" x1="451.89" y1="158.77" x2="451.89" y2="158.01"/><line class="cls-8" x1="450.37" y1="158.77" x2="450.37" y2="158.47"/><line class="cls-8" x1="450.37" y1="158.47" x2="451.89" y2="158.47"/><line class="cls-8" x1="451.89" y1="158.77" x2="451.89" y2="158.47"/><line class="cls-8" x1="433.37" y1="158.77" x2="433.37" y2="158.47"/><line class="cls-8" x1="432.31" y1="158.47" x2="433.37" y2="158.47"/><line class="cls-8" x1="451.85" y1="162.06" x2="451.85" y2="162.81"/><line class="cls-8" x1="432.31" y1="162.81" x2="451.85" y2="162.81"/><line class="cls-8" x1="433.63" y1="162.06" x2="433.63" y2="162.36"/><line class="cls-8" x1="432.31" y1="162.36" x2="433.63" y2="162.36"/><line class="cls-8" x1="432.31" y1="162.06" x2="433.63" y2="162.06"/><line class="cls-8" x1="450.07" y1="162.06" x2="450.07" y2="162.36"/><line class="cls-8" x1="450.07" y1="162.36" x2="451.58" y2="162.36"/><line class="cls-8" x1="451.58" y1="162.06" x2="451.58" y2="162.36"/><line class="cls-8" x1="450.07" y1="162.06" x2="451.58" y2="162.06"/><line class="cls-8" x1="450.37" y1="158.77" x2="450" y2="158.77"/><line class="cls-8" x1="450.37" y1="162.06" x2="450" y2="162.06"/><line class="cls-8" x1="450.37" y1="158.77" x2="450.37" y2="162.06"/><line class="cls-8" x1="450" y1="158.77" x2="450" y2="162.06"/><line class="cls-8" x1="433.71" y1="158.77" x2="433.37" y2="158.77"/><line class="cls-8" x1="433.71" y1="162.06" x2="433.37" y2="162.06"/><line class="cls-8" x1="433.71" y1="158.77" x2="433.71" y2="162.06"/><line class="cls-8" x1="433.37" y1="158.77" x2="433.37" y2="162.06"/><line class="cls-8" x1="450" y1="159.33" x2="433.71" y2="159.33"/><line class="cls-8" x1="450" y1="159.71" x2="433.71" y2="159.71"/><line class="cls-8" x1="432.31" y1="157.94" x2="452" y2="157.94"/><line class="cls-8" x1="452" y1="158.77" x2="452" y2="157.94"/><line class="cls-8" x1="450.37" y1="158.77" x2="450.37" y2="158.39"/><line class="cls-8" x1="450.37" y1="158.39" x2="452" y2="158.39"/><line class="cls-8" x1="452" y1="158.77" x2="452" y2="158.39"/><line class="cls-8" x1="433.37" y1="158.77" x2="433.37" y2="158.39"/><line class="cls-8" x1="432.31" y1="158.39" x2="433.37" y2="158.39"/><line class="cls-8" x1="451.85" y1="162.06" x2="451.85" y2="162.81"/><line class="cls-8" x1="432.31" y1="162.81" x2="451.85" y2="162.81"/><line class="cls-8" x1="433.63" y1="162.06" x2="433.63" y2="162.36"/><line class="cls-8" x1="432.31" y1="162.36" x2="433.63" y2="162.36"/><line class="cls-8" x1="432.31" y1="162.06" x2="433.63" y2="162.06"/><line class="cls-8" x1="450.07" y1="162.06" x2="450.07" y2="162.36"/><line class="cls-8" x1="450.07" y1="162.36" x2="451.58" y2="162.36"/><line class="cls-8" x1="451.58" y1="162.06" x2="451.58" y2="162.36"/><line class="cls-8" x1="450.07" y1="162.06" x2="451.58" y2="162.06"/><line class="cls-7" x1="456.99" y1="139.38" x2="456.99" y2="159.22"/><line class="cls-7" x1="456.99" y1="96.9" x2="456.99" y2="139.66"/><line class="cls-7" x1="456.99" y1="161.79" x2="459.56" y2="161.79"/><line class="cls-7" x1="459.56" y1="96.85" x2="456.99" y2="96.85"/><line class="cls-7" x1="459.56" y1="161.79" x2="459.56" y2="139.38"/><line class="cls-7" x1="459.56" y1="139.66" x2="459.56" y2="99.43"/><line class="cls-7" x1="468.33" y1="96.85" x2="459.56" y2="96.85"/><line class="cls-7" x1="522.42" y1="96.85" x2="513.69" y2="96.85"/><line class="cls-7" x1="468.33" y1="96.85" x2="468.33" y2="99.43"/><line class="cls-7" x1="513.69" y1="96.85" x2="513.69" y2="99.43"/><line class="cls-7" x1="459.56" y1="99.43" x2="468.33" y2="99.43"/><line class="cls-7" x1="513.69" y1="99.43" x2="522.42" y2="99.43"/><line class="cls-8" x1="482.5" y1="96.51" x2="482.5" y2="99.8"/><line class="cls-8" x1="468.33" y1="96.4" x2="482.5" y2="96.4"/><line class="cls-8" x1="482.5" y1="96.63" x2="482.12" y2="96.63"/><line class="cls-8" x1="482.5" y1="99.69" x2="482.12" y2="99.69"/><line class="cls-8" x1="482.5" y1="96.63" x2="482.5" y2="99.69"/><line class="cls-8" x1="482.12" y1="96.63" x2="482.12" y2="99.69"/><line class="cls-8" x1="468.67" y1="96.63" x2="468.33" y2="96.63"/><line class="cls-8" x1="468.67" y1="99.69" x2="468.33" y2="99.69"/><line class="cls-8" x1="468.67" y1="96.63" x2="468.67" y2="99.69"/><line class="cls-8" x1="468.33" y1="96.63" x2="468.33" y2="99.69"/><line class="cls-8" x1="482.12" y1="97.23" x2="468.67" y2="97.23"/><line class="cls-8" x1="482.12" y1="97.61" x2="468.67" y2="97.61"/><line class="cls-8" x1="482.5" y1="96.51" x2="482.5" y2="99.8"/><line class="cls-8" x1="499.51" y1="96.51" x2="499.51" y2="99.8"/><line class="cls-8" x1="482.5" y1="96.4" x2="499.51" y2="96.4"/><line class="cls-8" x1="499.51" y1="96.63" x2="499.13" y2="96.63"/><line class="cls-8" x1="499.51" y1="99.69" x2="499.13" y2="99.69"/><line class="cls-8" x1="499.51" y1="96.63" x2="499.51" y2="99.69"/><line class="cls-8" x1="499.13" y1="96.63" x2="499.13" y2="99.69"/><line class="cls-8" x1="482.84" y1="96.63" x2="482.5" y2="96.63"/><line class="cls-8" x1="482.84" y1="99.69" x2="482.5" y2="99.69"/><line class="cls-8" x1="482.84" y1="96.63" x2="482.84" y2="99.69"/><line class="cls-8" x1="482.5" y1="96.63" x2="482.5" y2="99.69"/><line class="cls-8" x1="499.13" y1="97.23" x2="482.84" y2="97.23"/><line class="cls-8" x1="499.13" y1="97.61" x2="482.84" y2="97.61"/><line class="cls-8" x1="499.51" y1="96.51" x2="499.51" y2="99.8"/><line class="cls-8" x1="499.51" y1="96.51" x2="499.51" y2="96.51"/><line class="cls-8" x1="499.51" y1="99.8" x2="499.51" y2="99.8"/><line class="cls-8" x1="499.51" y1="96.4" x2="513.69" y2="96.4"/><line class="cls-8" x1="513.69" y1="96.63" x2="513.31" y2="96.63"/><line class="cls-8" x1="513.69" y1="99.69" x2="513.31" y2="99.69"/><line class="cls-8" x1="513.69" y1="96.63" x2="513.69" y2="99.69"/><line class="cls-8" x1="513.31" y1="96.63" x2="513.31" y2="99.69"/><line class="cls-8" x1="499.85" y1="96.63" x2="499.51" y2="96.63"/><line class="cls-8" x1="499.85" y1="99.69" x2="499.51" y2="99.69"/><line class="cls-8" x1="499.85" y1="96.63" x2="499.85" y2="99.69"/><line class="cls-8" x1="499.51" y1="96.63" x2="499.51" y2="99.69"/><line class="cls-8" x1="513.31" y1="97.23" x2="499.85" y2="97.23"/><line class="cls-8" x1="513.31" y1="97.61" x2="499.85" y2="97.61"/><line class="cls-8" x1="513.69" y1="96.63" x2="513.69" y2="96.29"/><line class="cls-8" x1="513.69" y1="96.29" x2="515.31" y2="96.29"/><line class="cls-8" x1="515.31" y1="96.63" x2="515.31" y2="96.29"/><line class="cls-8" x1="468.33" y1="96.63" x2="468.33" y2="96.29"/><line class="cls-8" x1="466.67" y1="96.29" x2="468.33" y2="96.29"/><line class="cls-8" x1="466.67" y1="96.63" x2="466.67" y2="96.29"/><line class="cls-8" x1="515.16" y1="99.69" x2="515.16" y2="100.45"/><line class="cls-8" x1="466.82" y1="100.45" x2="515.16" y2="100.45"/><line class="cls-8" x1="466.82" y1="99.69" x2="466.82" y2="100.45"/><line class="cls-8" x1="468.59" y1="99.69" x2="468.59" y2="99.99"/><line class="cls-8" x1="467.08" y1="99.99" x2="468.59" y2="99.99"/><line class="cls-8" x1="467.08" y1="99.69" x2="467.08" y2="99.99"/><line class="cls-8" x1="467.08" y1="99.69" x2="468.59" y2="99.69"/><line class="cls-8" x1="513.38" y1="99.69" x2="513.38" y2="99.99"/><line class="cls-8" x1="513.38" y1="99.99" x2="514.9" y2="99.99"/><line class="cls-8" x1="514.9" y1="99.69" x2="514.9" y2="99.99"/><line class="cls-8" x1="513.38" y1="99.69" x2="514.9" y2="99.69"/><rect class="cls-1" x="466.08" y="96.36" width="49.18" height="4.04"/><line class="cls-8" x1="515.22" y1="96.59" x2="515.22" y2="99.65"/><line class="cls-2" x1="466.72" y1="99.38" x2="468.42" y2="99.38"/><line class="cls-2" x1="470.12" y1="99.38" x2="471.83" y2="99.38"/><line class="cls-2" x1="473.53" y1="99.38" x2="475.23" y2="99.38"/><line class="cls-2" x1="476.93" y1="99.38" x2="478.63" y2="99.38"/><line class="cls-2" x1="480.33" y1="99.38" x2="482.03" y2="99.38"/><line class="cls-2" x1="483.73" y1="99.38" x2="485.43" y2="99.38"/><line class="cls-2" x1="487.13" y1="99.38" x2="488.83" y2="99.38"/><line class="cls-2" x1="490.54" y1="99.38" x2="492.24" y2="99.38"/><line class="cls-2" x1="493.94" y1="99.38" x2="495.64" y2="99.38"/><line class="cls-2" x1="497.34" y1="99.38" x2="499.04" y2="99.38"/><line class="cls-2" x1="500.74" y1="99.38" x2="502.44" y2="99.38"/><line class="cls-2" x1="504.14" y1="99.38" x2="505.84" y2="99.38"/><line class="cls-2" x1="507.54" y1="99.38" x2="509.25" y2="99.38"/><line class="cls-2" x1="510.95" y1="99.38" x2="512.65" y2="99.38"/><line class="cls-2" x1="514.35" y1="99.38" x2="516.16" y2="99.38"/><line class="cls-2" x1="464.87" y1="99.38" x2="466.31" y2="99.38"/><line class="cls-2" x1="466.08" y1="99.38" x2="515.22" y2="99.38"/><line class="cls-8" x1="515.22" y1="99.91" x2="514.92" y2="99.91"/><line class="cls-8" x1="466.08" y1="99.91" x2="466.34" y2="99.91"/><line class="cls-9" x1="466.08" y1="96.81" x2="466.08" y2="99.38"/><line class="cls-8" x1="480.25" y1="96.47" x2="480.25" y2="99.76"/><line class="cls-8" x1="466.08" y1="96.36" x2="480.25" y2="96.36"/><line class="cls-8" x1="480.25" y1="96.59" x2="479.88" y2="96.59"/><line class="cls-8" x1="480.25" y1="99.65" x2="479.88" y2="99.65"/><line class="cls-8" x1="480.25" y1="96.59" x2="480.25" y2="99.65"/><line class="cls-8" x1="479.88" y1="96.59" x2="479.88" y2="99.65"/><line class="cls-8" x1="466.42" y1="96.59" x2="466.08" y2="96.59"/><line class="cls-8" x1="466.42" y1="99.65" x2="466.08" y2="99.65"/><line class="cls-8" x1="466.42" y1="96.59" x2="466.42" y2="99.65"/><line class="cls-8" x1="466.08" y1="96.59" x2="466.08" y2="99.65"/><line class="cls-8" x1="479.88" y1="97.15" x2="466.42" y2="97.15"/><line class="cls-8" x1="479.88" y1="97.53" x2="466.42" y2="97.53"/><line class="cls-8" x1="480.25" y1="96.47" x2="480.25" y2="99.76"/><line class="cls-8" x1="501.04" y1="96.47" x2="501.04" y2="99.76"/><line class="cls-8" x1="480.25" y1="96.36" x2="501.04" y2="96.36"/><line class="cls-8" x1="501.04" y1="96.59" x2="500.67" y2="96.59"/><line class="cls-8" x1="501.04" y1="99.65" x2="500.67" y2="99.65"/><line class="cls-8" x1="501.04" y1="96.59" x2="501.04" y2="99.65"/><line class="cls-8" x1="500.67" y1="96.59" x2="500.67" y2="99.65"/><line class="cls-8" x1="480.59" y1="96.59" x2="480.25" y2="96.59"/><line class="cls-8" x1="480.59" y1="99.65" x2="480.25" y2="99.65"/><line class="cls-8" x1="480.59" y1="96.59" x2="480.59" y2="99.65"/><line class="cls-8" x1="480.25" y1="96.59" x2="480.25" y2="99.65"/><line class="cls-8" x1="500.67" y1="97.15" x2="480.59" y2="97.15"/><line class="cls-8" x1="500.67" y1="97.53" x2="480.59" y2="97.53"/><line class="cls-8" x1="501.04" y1="96.47" x2="501.04" y2="99.76"/><line class="cls-8" x1="501.04" y1="96.47" x2="501.04" y2="96.47"/><line class="cls-8" x1="501.04" y1="99.76" x2="501.04" y2="99.76"/><line class="cls-8" x1="501.04" y1="96.36" x2="515.22" y2="96.36"/><line class="cls-8" x1="515.22" y1="96.59" x2="514.84" y2="96.59"/><line class="cls-8" x1="515.22" y1="99.65" x2="514.84" y2="99.65"/><line class="cls-8" x1="514.84" y1="96.59" x2="514.84" y2="99.65"/><line class="cls-8" x1="501.38" y1="96.59" x2="501.04" y2="96.59"/><line class="cls-8" x1="501.38" y1="99.65" x2="501.04" y2="99.65"/><line class="cls-8" x1="501.38" y1="96.59" x2="501.38" y2="99.65"/><line class="cls-8" x1="501.04" y1="96.59" x2="501.04" y2="99.65"/><line class="cls-8" x1="514.84" y1="97.15" x2="501.38" y2="97.15"/><line class="cls-8" x1="514.84" y1="97.53" x2="501.38" y2="97.53"/><line class="cls-8" x1="515.22" y1="96.59" x2="515.22" y2="96.25"/><line class="cls-8" x1="515.22" y1="96.25" x2="516.84" y2="96.25"/><line class="cls-8" x1="516.84" y1="96.59" x2="516.84" y2="96.25"/><line class="cls-8" x1="466.08" y1="96.59" x2="466.08" y2="96.25"/><line class="cls-8" x1="464.42" y1="96.25" x2="466.08" y2="96.25"/><line class="cls-8" x1="464.42" y1="96.59" x2="464.42" y2="96.25"/><line class="cls-8" x1="516.69" y1="99.65" x2="516.69" y2="100.4"/><line class="cls-8" x1="464.57" y1="100.4" x2="516.69" y2="100.4"/><line class="cls-8" x1="464.57" y1="99.65" x2="464.57" y2="100.4"/><line class="cls-8" x1="466.34" y1="99.65" x2="466.34" y2="99.91"/><line class="cls-8" x1="464.83" y1="99.91" x2="466.34" y2="99.91"/><line class="cls-8" x1="464.83" y1="99.65" x2="464.83" y2="99.91"/><line class="cls-8" x1="464.83" y1="99.65" x2="466.34" y2="99.65"/><line class="cls-8" x1="514.92" y1="99.65" x2="514.92" y2="99.91"/><line class="cls-8" x1="514.92" y1="99.91" x2="516.43" y2="99.91"/><line class="cls-8" x1="516.43" y1="99.65" x2="516.43" y2="99.91"/><line class="cls-8" x1="514.92" y1="99.65" x2="516.43" y2="99.65"/><text class="cls-10" transform="translate(470.96 139.29)"><tspan class="cls-11">11</tspan><tspan class="cls-12" x="7.75" y="0">&apos;</tspan><tspan class="cls-13" x="9.09" y="0">-</tspan><tspan class="cls-14" x="11.4" y="0">0</tspan><tspan x="15.27" y="0">&quot;</tspan><tspan class="cls-15" x="17.43" y="0"> </tspan><tspan class="cls-14" x="19.33" y="0">X</tspan><tspan class="cls-16" x="23.58" y="0"> </tspan><tspan class="cls-17" x="25.57" y="0">1</tspan><tspan class="cls-18" x="29.36" y="0">0</tspan><tspan class="cls-19" x="33.24" y="0">&apos;</tspan><tspan class="cls-13" x="34.66" y="0">-</tspan><tspan class="cls-20" x="36.97" y="0">9</tspan><tspan x="40.76" y="0">&quot;</tspan></text><text class="cls-10" transform="translate(474.23 132.28)">SUNROOM</text><rect class="cls-21" x="455.49" y="93.72" width="73.06" height="69"/><rect class="cls-6" x="522.42" y="96.85" width="2.61" height="42.52"/></g></g></g></svg>