<svg id="图层_1" data-name="图层 1" xmlns="http://www.w3.org/2000/svg" viewBox="0 0 1008 504"><defs><style>.cls-1{fill:none;stroke:#0c4f71;stroke-linecap:round;stroke-linejoin:bevel;stroke-width:0.23px;}.cls-2{fill:#fff;fill-rule:evenodd;}</style></defs><g id="LAUNDRY_SINK" data-name="LAUNDRY SINK"><line class="cls-1" x1="524.76" y1="366.02" x2="526.46" y2="366.02"/><line class="cls-1" x1="528.16" y1="366.02" x2="529.86" y2="366.02"/><line class="cls-1" x1="531.56" y1="366.02" x2="534.51" y2="366.02"/><line class="cls-1" x1="523.17" y1="366.02" x2="524.57" y2="366.02"/><line class="cls-1" x1="523.17" y1="366.02" x2="523.17" y2="367.76"/><line class="cls-1" x1="523.17" y1="369.46" x2="523.17" y2="371.16"/><line class="cls-1" x1="523.17" y1="372.86" x2="523.17" y2="374.56"/><line class="cls-1" x1="523.17" y1="376.26" x2="523.17" y2="377.97"/><line class="cls-1" x1="523.17" y1="379.67" x2="523.17" y2="381.37"/><line class="cls-1" x1="523.17" y1="383.33" x2="523.17" y2="381.93"/><line class="cls-1" x1="523.17" y1="386.47" x2="523.17" y2="388.17"/><line class="cls-1" x1="523.17" y1="389.87" x2="523.17" y2="391.57"/><line class="cls-1" x1="523.17" y1="383.33" x2="523.17" y2="384.77"/><line class="cls-1" x1="523.17" y1="394.63" x2="523.17" y2="393.2"/><line class="cls-1" x1="522.45" y1="394.63" x2="522.45" y2="383.33"/><line class="cls-1" x1="522.45" y1="383.33" x2="522.45" y2="365.49"/><line class="cls-1" x1="522.45" y1="365.49" x2="522.45" y2="365.45"/><line class="cls-1" x1="522.45" y1="365.45" x2="522.45" y2="365.42"/><line class="cls-1" x1="522.45" y1="365.42" x2="522.49" y2="365.42"/><line class="cls-1" x1="522.49" y1="365.42" x2="522.49" y2="365.38"/><line class="cls-1" x1="522.49" y1="365.38" x2="522.53" y2="365.34"/><line class="cls-1" x1="522.53" y1="365.34" x2="522.57" y2="365.34"/><line class="cls-1" x1="522.57" y1="365.34" x2="522.61" y2="365.34"/><line class="cls-1" x1="522.61" y1="365.34" x2="534.51" y2="365.34"/><line class="cls-1" x1="531.41" y1="378.8" x2="531.41" y2="370.37"/><line class="cls-1" x1="531.41" y1="370.37" x2="524.99" y2="370.37"/><line class="cls-1" x1="524.99" y1="370.37" x2="524.99" y2="378.8"/><line class="cls-1" x1="524.99" y1="378.8" x2="531.41" y2="378.8"/><polygon class="cls-2" points="532.13 378.19 531 379.33 531.15 379.29 531.3 379.29 531.45 379.21 531.56 379.18 531.68 379.06 531.79 378.99 531.9 378.87 531.98 378.76 532.05 378.61 532.09 378.46 532.13 378.31 532.13 378.19"/><polygon class="cls-2" points="531 369.76 532.13 370.9 532.13 370.75 532.09 370.6 532.05 370.48 531.98 370.33 531.9 370.22 531.79 370.1 531.68 369.99 531.56 369.92 531.45 369.88 531.3 369.8 531.15 369.76 531 369.76"/><polygon class="cls-2" points="524.57 370.9 525.71 369.76 525.55 369.76 525.4 369.8 525.25 369.88 525.14 369.92 525.02 370.03 524.91 370.1 524.8 370.22 524.72 370.33 524.65 370.48 524.61 370.63 524.57 370.78 524.57 370.9"/><polygon class="cls-2" points="525.71 379.33 524.57 378.15 524.57 378.31 524.61 378.46 524.65 378.61 524.72 378.72 524.8 378.87 524.91 378.99 524.99 379.06 525.14 379.18 525.25 379.21 525.4 379.29 525.55 379.29 525.71 379.33"/><polygon class="cls-2" points="525.71 379.33 531 379.33 532.13 378.19 532.13 370.9 531 369.76 525.71 369.76 524.57 370.9 524.57 378.15 525.71 379.33"/><line class="cls-1" x1="531" y1="379.33" x2="531.11" y2="379.29"/><line class="cls-1" x1="531.11" y1="379.29" x2="531.22" y2="379.29"/><line class="cls-1" x1="531.22" y1="379.29" x2="531.34" y2="379.25"/><line class="cls-1" x1="531.34" y1="379.25" x2="531.45" y2="379.21"/><line class="cls-1" x1="531.45" y1="379.21" x2="531.56" y2="379.18"/><line class="cls-1" x1="531.56" y1="379.18" x2="531.68" y2="379.1"/><line class="cls-1" x1="531.68" y1="379.1" x2="531.75" y2="379.02"/><line class="cls-1" x1="531.75" y1="379.02" x2="531.83" y2="378.95"/><line class="cls-1" x1="531.83" y1="378.95" x2="531.9" y2="378.83"/><line class="cls-1" x1="531.9" y1="378.83" x2="531.98" y2="378.76"/><line class="cls-1" x1="531.98" y1="378.76" x2="532.02" y2="378.65"/><line class="cls-1" x1="532.02" y1="378.65" x2="532.09" y2="378.53"/><line class="cls-1" x1="532.09" y1="378.53" x2="532.09" y2="378.42"/><line class="cls-1" x1="532.09" y1="378.42" x2="532.13" y2="378.31"/><line class="cls-1" x1="532.13" y1="378.31" x2="532.13" y2="378.19"/><line class="cls-1" x1="532.13" y1="378.19" x2="532.13" y2="370.9"/><line class="cls-1" x1="532.13" y1="370.9" x2="532.13" y2="370.78"/><line class="cls-1" x1="532.13" y1="370.78" x2="532.09" y2="370.67"/><line class="cls-1" x1="532.09" y1="370.67" x2="532.09" y2="370.59"/><line class="cls-1" x1="532.09" y1="370.59" x2="532.05" y2="370.48"/><line class="cls-1" x1="532.05" y1="370.48" x2="532.02" y2="370.37"/><line class="cls-1" x1="532.02" y1="370.37" x2="531.94" y2="370.29"/><line class="cls-1" x1="531.94" y1="370.29" x2="531.87" y2="370.18"/><line class="cls-1" x1="531.87" y1="370.18" x2="531.79" y2="370.1"/><line class="cls-1" x1="531.79" y1="370.1" x2="531.71" y2="370.03"/><line class="cls-1" x1="531.71" y1="370.03" x2="531.64" y2="369.95"/><line class="cls-1" x1="531.64" y1="369.95" x2="531.53" y2="369.91"/><line class="cls-1" x1="531.53" y1="369.91" x2="531.45" y2="369.88"/><line class="cls-1" x1="531.45" y1="369.88" x2="531.34" y2="369.84"/><line class="cls-1" x1="531.34" y1="369.84" x2="531.22" y2="369.8"/><line class="cls-1" x1="531.22" y1="369.8" x2="531.11" y2="369.76"/><line class="cls-1" x1="531.11" y1="369.76" x2="531" y2="369.76"/><line class="cls-1" x1="531" y1="369.76" x2="525.7" y2="369.76"/><line class="cls-1" x1="525.7" y1="369.76" x2="525.59" y2="369.76"/><line class="cls-1" x1="525.59" y1="369.76" x2="525.48" y2="369.8"/><line class="cls-1" x1="525.48" y1="369.8" x2="525.36" y2="369.84"/><line class="cls-1" x1="525.36" y1="369.84" x2="525.25" y2="369.88"/><line class="cls-1" x1="525.25" y1="369.88" x2="525.14" y2="369.91"/><line class="cls-1" x1="525.14" y1="369.91" x2="525.02" y2="369.99"/><line class="cls-1" x1="525.02" y1="369.99" x2="524.95" y2="370.07"/><line class="cls-1" x1="524.95" y1="370.07" x2="524.84" y2="370.14"/><line class="cls-1" x1="524.84" y1="370.14" x2="524.8" y2="370.25"/><line class="cls-1" x1="524.8" y1="370.25" x2="524.72" y2="370.33"/><line class="cls-1" x1="524.72" y1="370.33" x2="524.65" y2="370.44"/><line class="cls-1" x1="524.65" y1="370.44" x2="524.61" y2="370.56"/><line class="cls-1" x1="524.61" y1="370.56" x2="524.57" y2="370.67"/><line class="cls-1" x1="524.57" y1="370.67" x2="524.57" y2="370.78"/><line class="cls-1" x1="524.57" y1="370.78" x2="524.57" y2="370.9"/><line class="cls-1" x1="524.57" y1="370.9" x2="524.57" y2="378.15"/><line class="cls-1" x1="524.57" y1="378.15" x2="524.57" y2="378.27"/><line class="cls-1" x1="524.57" y1="378.27" x2="524.57" y2="378.38"/><line class="cls-1" x1="524.57" y1="378.38" x2="524.61" y2="378.49"/><line class="cls-1" x1="524.61" y1="378.49" x2="524.65" y2="378.61"/><line class="cls-1" x1="524.65" y1="378.61" x2="524.68" y2="378.72"/><line class="cls-1" x1="524.68" y1="378.72" x2="524.76" y2="378.8"/><line class="cls-1" x1="524.76" y1="378.8" x2="524.8" y2="378.87"/><line class="cls-1" x1="524.8" y1="378.87" x2="524.87" y2="378.99"/><line class="cls-1" x1="524.87" y1="378.99" x2="524.99" y2="379.06"/><line class="cls-1" x1="524.99" y1="379.06" x2="525.06" y2="379.1"/><line class="cls-1" x1="525.06" y1="379.1" x2="525.18" y2="379.18"/><line class="cls-1" x1="525.18" y1="379.18" x2="525.25" y2="379.21"/><line class="cls-1" x1="525.25" y1="379.21" x2="525.36" y2="379.25"/><line class="cls-1" x1="525.36" y1="379.25" x2="525.48" y2="379.29"/><line class="cls-1" x1="525.48" y1="379.29" x2="525.59" y2="379.29"/><line class="cls-1" x1="525.59" y1="379.29" x2="525.7" y2="379.33"/><line class="cls-1" x1="525.7" y1="379.33" x2="531" y2="379.33"/><line class="cls-1" x1="531" y1="379.33" x2="531.11" y2="379.29"/><line class="cls-1" x1="531.11" y1="379.29" x2="531.22" y2="379.29"/><line class="cls-1" x1="531.22" y1="379.29" x2="531.34" y2="379.25"/><line class="cls-1" x1="531.34" y1="379.25" x2="531.45" y2="379.21"/><line class="cls-1" x1="531.45" y1="379.21" x2="531.56" y2="379.18"/><line class="cls-1" x1="531.56" y1="379.18" x2="531.68" y2="379.1"/><line class="cls-1" x1="531.68" y1="379.1" x2="531.75" y2="379.02"/><line class="cls-1" x1="531.75" y1="379.02" x2="531.83" y2="378.95"/><line class="cls-1" x1="531.83" y1="378.95" x2="531.9" y2="378.83"/><line class="cls-1" x1="531.9" y1="378.83" x2="531.98" y2="378.76"/><line class="cls-1" x1="531.98" y1="378.76" x2="532.02" y2="378.65"/><line class="cls-1" x1="532.02" y1="378.65" x2="532.09" y2="378.53"/><line class="cls-1" x1="532.09" y1="378.53" x2="532.09" y2="378.42"/><line class="cls-1" x1="532.09" y1="378.42" x2="532.13" y2="378.31"/><line class="cls-1" x1="532.13" y1="378.31" x2="532.13" y2="378.19"/><line class="cls-1" x1="532.13" y1="378.19" x2="532.13" y2="370.9"/><line class="cls-1" x1="532.13" y1="370.9" x2="532.13" y2="370.78"/><line class="cls-1" x1="532.13" y1="370.78" x2="532.09" y2="370.67"/><line class="cls-1" x1="532.09" y1="370.67" x2="532.09" y2="370.59"/><line class="cls-1" x1="532.09" y1="370.59" x2="532.05" y2="370.48"/><line class="cls-1" x1="532.05" y1="370.48" x2="532.02" y2="370.37"/><line class="cls-1" x1="532.02" y1="370.37" x2="531.94" y2="370.29"/><line class="cls-1" x1="531.94" y1="370.29" x2="531.87" y2="370.18"/><line class="cls-1" x1="531.87" y1="370.18" x2="531.79" y2="370.1"/><line class="cls-1" x1="531.79" y1="370.1" x2="531.71" y2="370.03"/><line class="cls-1" x1="531.71" y1="370.03" x2="531.64" y2="369.95"/><line class="cls-1" x1="531.64" y1="369.95" x2="531.53" y2="369.91"/><line class="cls-1" x1="531.53" y1="369.91" x2="531.45" y2="369.88"/><line class="cls-1" x1="531.45" y1="369.88" x2="531.34" y2="369.84"/><line class="cls-1" x1="531.34" y1="369.84" x2="531.22" y2="369.8"/><line class="cls-1" x1="531.22" y1="369.8" x2="531.11" y2="369.76"/><line class="cls-1" x1="531.11" y1="369.76" x2="531" y2="369.76"/><line class="cls-1" x1="531" y1="369.76" x2="525.7" y2="369.76"/><line class="cls-1" x1="525.7" y1="369.76" x2="525.59" y2="369.76"/><line class="cls-1" x1="525.59" y1="369.76" x2="525.48" y2="369.8"/><line class="cls-1" x1="525.48" y1="369.8" x2="525.36" y2="369.84"/><line class="cls-1" x1="525.36" y1="369.84" x2="525.25" y2="369.88"/><line class="cls-1" x1="525.25" y1="369.88" x2="525.18" y2="369.91"/><line class="cls-1" x1="525.18" y1="369.91" x2="525.06" y2="369.95"/><line class="cls-1" x1="525.06" y1="369.95" x2="524.99" y2="370.03"/><line class="cls-1" x1="524.99" y1="370.03" x2="524.91" y2="370.1"/><line class="cls-1" x1="524.91" y1="370.1" x2="524.84" y2="370.18"/><line class="cls-1" x1="524.84" y1="370.18" x2="524.76" y2="370.29"/><line class="cls-1" x1="524.76" y1="370.29" x2="524.68" y2="370.37"/><line class="cls-1" x1="524.68" y1="370.37" x2="524.65" y2="370.48"/><line class="cls-1" x1="524.65" y1="370.48" x2="524.61" y2="370.59"/><line class="cls-1" x1="524.61" y1="370.59" x2="524.57" y2="370.71"/><line class="cls-1" x1="524.57" y1="370.71" x2="524.57" y2="370.78"/><line class="cls-1" x1="524.57" y1="370.78" x2="524.57" y2="370.9"/><line class="cls-1" x1="524.57" y1="370.9" x2="524.57" y2="378.15"/><line class="cls-1" x1="524.57" y1="378.15" x2="524.57" y2="378.27"/><line class="cls-1" x1="524.57" y1="378.27" x2="524.57" y2="378.38"/><line class="cls-1" x1="524.57" y1="378.38" x2="524.61" y2="378.49"/><line class="cls-1" x1="524.61" y1="378.49" x2="524.65" y2="378.61"/><line class="cls-1" x1="524.65" y1="378.61" x2="524.68" y2="378.72"/><line class="cls-1" x1="524.68" y1="378.72" x2="524.76" y2="378.8"/><line class="cls-1" x1="524.76" y1="378.8" x2="524.8" y2="378.87"/><line class="cls-1" x1="524.8" y1="378.87" x2="524.87" y2="378.99"/><line class="cls-1" x1="524.87" y1="378.99" x2="524.99" y2="379.06"/><line class="cls-1" x1="524.99" y1="379.06" x2="525.06" y2="379.1"/><line class="cls-1" x1="525.06" y1="379.1" x2="525.18" y2="379.18"/><line class="cls-1" x1="525.18" y1="379.18" x2="525.25" y2="379.21"/><line class="cls-1" x1="525.25" y1="379.21" x2="525.36" y2="379.25"/><line class="cls-1" x1="525.36" y1="379.25" x2="525.48" y2="379.29"/><line class="cls-1" x1="525.48" y1="379.29" x2="525.59" y2="379.29"/><line class="cls-1" x1="525.59" y1="379.29" x2="525.7" y2="379.33"/><line class="cls-1" x1="525.7" y1="379.33" x2="531" y2="379.33"/><line class="cls-1" x1="531" y1="379.33" x2="531.11" y2="379.29"/><line class="cls-1" x1="531.11" y1="379.29" x2="531.22" y2="379.29"/><line class="cls-1" x1="531.22" y1="379.29" x2="531.34" y2="379.25"/><line class="cls-1" x1="531.34" y1="379.25" x2="531.45" y2="379.21"/><line class="cls-1" x1="531.45" y1="379.21" x2="531.56" y2="379.18"/><line class="cls-1" x1="531.56" y1="379.18" x2="531.68" y2="379.1"/><line class="cls-1" x1="531.68" y1="379.1" x2="531.75" y2="379.02"/><line class="cls-1" x1="531.75" y1="379.02" x2="531.83" y2="378.95"/><line class="cls-1" x1="531.83" y1="378.95" x2="531.9" y2="378.83"/><line class="cls-1" x1="531.9" y1="378.83" x2="531.98" y2="378.76"/><line class="cls-1" x1="531.98" y1="378.76" x2="532.02" y2="378.65"/><line class="cls-1" x1="532.02" y1="378.65" x2="532.09" y2="378.53"/><line class="cls-1" x1="532.09" y1="378.53" x2="532.09" y2="378.42"/><line class="cls-1" x1="532.09" y1="378.42" x2="532.13" y2="378.31"/><line class="cls-1" x1="532.13" y1="378.31" x2="532.13" y2="378.19"/><line class="cls-1" x1="532.13" y1="378.19" x2="532.13" y2="370.9"/><line class="cls-1" x1="532.13" y1="370.9" x2="532.13" y2="370.78"/><line class="cls-1" x1="532.13" y1="370.78" x2="532.09" y2="370.67"/><line class="cls-1" x1="532.09" y1="370.67" x2="532.09" y2="370.59"/><line class="cls-1" x1="532.09" y1="370.59" x2="532.05" y2="370.48"/><line class="cls-1" x1="532.05" y1="370.48" x2="532.02" y2="370.37"/><line class="cls-1" x1="532.02" y1="370.37" x2="531.94" y2="370.29"/><line class="cls-1" x1="531.94" y1="370.29" x2="531.87" y2="370.18"/><line class="cls-1" x1="531.87" y1="370.18" x2="531.79" y2="370.1"/><line class="cls-1" x1="531.79" y1="370.1" x2="531.71" y2="370.03"/><line class="cls-1" x1="531.71" y1="370.03" x2="531.64" y2="369.95"/><line class="cls-1" x1="531.64" y1="369.95" x2="531.53" y2="369.91"/><line class="cls-1" x1="531.53" y1="369.91" x2="531.45" y2="369.88"/><line class="cls-1" x1="531.45" y1="369.88" x2="531.34" y2="369.84"/><line class="cls-1" x1="531.34" y1="369.84" x2="531.22" y2="369.8"/><line class="cls-1" x1="531.22" y1="369.8" x2="531.11" y2="369.76"/><line class="cls-1" x1="531.11" y1="369.76" x2="531" y2="369.76"/><line class="cls-1" x1="531" y1="369.76" x2="525.7" y2="369.76"/><line class="cls-1" x1="525.7" y1="369.76" x2="525.59" y2="369.76"/><line class="cls-1" x1="525.59" y1="369.76" x2="525.48" y2="369.8"/><line class="cls-1" x1="525.48" y1="369.8" x2="525.36" y2="369.84"/><line class="cls-1" x1="525.36" y1="369.84" x2="525.25" y2="369.88"/><line class="cls-1" x1="525.25" y1="369.88" x2="525.14" y2="369.91"/><line class="cls-1" x1="525.14" y1="369.91" x2="525.02" y2="369.99"/><line class="cls-1" x1="525.02" y1="369.99" x2="524.95" y2="370.07"/><line class="cls-1" x1="524.95" y1="370.07" x2="524.84" y2="370.14"/><line class="cls-1" x1="524.84" y1="370.14" x2="524.8" y2="370.25"/><line class="cls-1" x1="524.8" y1="370.25" x2="524.72" y2="370.33"/><line class="cls-1" x1="524.72" y1="370.33" x2="524.65" y2="370.44"/><line class="cls-1" x1="524.65" y1="370.44" x2="524.61" y2="370.56"/><line class="cls-1" x1="524.61" y1="370.56" x2="524.57" y2="370.67"/><line class="cls-1" x1="524.57" y1="370.67" x2="524.57" y2="370.78"/><line class="cls-1" x1="524.57" y1="370.78" x2="524.57" y2="370.9"/><line class="cls-1" x1="524.57" y1="370.9" x2="524.57" y2="378.15"/><line class="cls-1" x1="524.57" y1="378.15" x2="524.57" y2="378.27"/><line class="cls-1" x1="524.57" y1="378.27" x2="524.57" y2="378.38"/><line class="cls-1" x1="524.57" y1="378.38" x2="524.61" y2="378.49"/><line class="cls-1" x1="524.61" y1="378.49" x2="524.65" y2="378.61"/><line class="cls-1" x1="524.65" y1="378.61" x2="524.68" y2="378.72"/><line class="cls-1" x1="524.68" y1="378.72" x2="524.76" y2="378.8"/><line class="cls-1" x1="524.76" y1="378.8" x2="524.8" y2="378.87"/><line class="cls-1" x1="524.8" y1="378.87" x2="524.87" y2="378.99"/><line class="cls-1" x1="524.87" y1="378.99" x2="524.99" y2="379.06"/><line class="cls-1" x1="524.99" y1="379.06" x2="525.06" y2="379.1"/><line class="cls-1" x1="525.06" y1="379.1" x2="525.18" y2="379.18"/><line class="cls-1" x1="525.18" y1="379.18" x2="525.25" y2="379.21"/><line class="cls-1" x1="525.25" y1="379.21" x2="525.36" y2="379.25"/><line class="cls-1" x1="525.36" y1="379.25" x2="525.48" y2="379.29"/><line class="cls-1" x1="525.48" y1="379.29" x2="525.59" y2="379.29"/><line class="cls-1" x1="525.59" y1="379.29" x2="525.7" y2="379.33"/><line class="cls-1" x1="525.7" y1="379.33" x2="531" y2="379.33"/><path class="cls-1" d="M528.8,374.07a.48.48,0,1,0,.5.47A.48.48,0,0,0,528.8,374.07Z"/><path class="cls-1" d="M528.8,374.26a.28.28,0,0,0-.26.28.29.29,0,1,0,.28-.28Z"/><path class="cls-1" d="M531.45,372.9a.27.27,0,1,0,.26.27A.26.26,0,0,0,531.45,372.9Z"/><path class="cls-1" d="M531.45,374.34a.27.27,0,1,0,.26.26A.26.26,0,0,0,531.45,374.34Z"/><path class="cls-1" d="M531.45,375.74a.26.26,0,1,0,.26.26A.25.25,0,0,0,531.45,375.74Z"/><line class="cls-1" x1="525.89" y1="370.67" x2="525.86" y2="370.67"/><line class="cls-1" x1="525.86" y1="370.67" x2="525.78" y2="370.67"/><line class="cls-1" x1="525.78" y1="370.67" x2="525.7" y2="370.67"/><line class="cls-1" x1="525.7" y1="370.67" x2="525.63" y2="370.71"/><line class="cls-1" x1="525.63" y1="370.71" x2="525.59" y2="370.75"/><line class="cls-1" x1="525.59" y1="370.75" x2="525.52" y2="370.78"/><line class="cls-1" x1="525.52" y1="370.78" x2="525.48" y2="370.82"/><line class="cls-1" x1="525.48" y1="370.82" x2="525.4" y2="370.86"/><line class="cls-1" x1="525.4" y1="370.86" x2="525.36" y2="370.94"/><line class="cls-1" x1="525.36" y1="370.94" x2="525.33" y2="370.97"/><line class="cls-1" x1="525.33" y1="370.97" x2="525.29" y2="371.05"/><line class="cls-1" x1="525.29" y1="371.05" x2="525.29" y2="371.09"/><line class="cls-1" x1="525.29" y1="371.09" x2="525.25" y2="371.16"/><line class="cls-1" x1="525.25" y1="371.16" x2="525.25" y2="371.24"/><line class="cls-1" x1="525.25" y1="371.24" x2="525.25" y2="371.28"/><line class="cls-1" x1="525.25" y1="371.28" x2="525.25" y2="371.31"/><line class="cls-1" x1="525.25" y1="371.31" x2="525.25" y2="377.74"/><line class="cls-1" x1="525.25" y1="377.74" x2="525.25" y2="377.81"/><line class="cls-1" x1="525.25" y1="377.81" x2="525.25" y2="377.89"/><line class="cls-1" x1="525.25" y1="377.89" x2="525.25" y2="377.97"/><line class="cls-1" x1="525.25" y1="377.97" x2="525.29" y2="378"/><line class="cls-1" x1="525.29" y1="378" x2="525.33" y2="378.08"/><line class="cls-1" x1="525.33" y1="378.08" x2="525.36" y2="378.12"/><line class="cls-1" x1="525.36" y1="378.12" x2="525.4" y2="378.19"/><line class="cls-1" x1="525.4" y1="378.19" x2="525.44" y2="378.23"/><line class="cls-1" x1="525.44" y1="378.23" x2="525.48" y2="378.27"/><line class="cls-1" x1="525.48" y1="378.27" x2="525.55" y2="378.31"/><line class="cls-1" x1="525.55" y1="378.31" x2="525.59" y2="378.34"/><line class="cls-1" x1="525.59" y1="378.34" x2="525.67" y2="378.38"/><line class="cls-1" x1="525.67" y1="378.38" x2="525.7" y2="378.38"/><line class="cls-1" x1="525.7" y1="378.38" x2="525.78" y2="378.42"/><line class="cls-1" x1="525.78" y1="378.42" x2="525.86" y2="378.42"/><line class="cls-1" x1="525.86" y1="378.42" x2="525.89" y2="378.42"/><line class="cls-1" x1="525.89" y1="378.42" x2="530.35" y2="378.42"/><line class="cls-1" x1="530.35" y1="378.42" x2="530.39" y2="378.42"/><line class="cls-1" x1="530.39" y1="378.42" x2="530.47" y2="378.42"/><line class="cls-1" x1="530.47" y1="378.42" x2="530.54" y2="378.38"/><line class="cls-1" x1="530.54" y1="378.38" x2="530.62" y2="378.38"/><line class="cls-1" x1="530.62" y1="378.38" x2="530.66" y2="378.34"/><line class="cls-1" x1="530.66" y1="378.34" x2="530.73" y2="378.31"/><line class="cls-1" x1="530.73" y1="378.31" x2="530.77" y2="378.27"/><line class="cls-1" x1="530.77" y1="378.27" x2="530.85" y2="378.23"/><line class="cls-1" x1="530.85" y1="378.23" x2="530.88" y2="378.15"/><line class="cls-1" x1="530.88" y1="378.15" x2="530.92" y2="378.12"/><line class="cls-1" x1="530.92" y1="378.12" x2="530.96" y2="378.04"/><line class="cls-1" x1="530.96" y1="378.04" x2="530.96" y2="377.97"/><line class="cls-1" x1="530.96" y1="377.97" x2="531" y2="377.93"/><line class="cls-1" x1="531" y1="377.93" x2="531" y2="377.85"/><line class="cls-1" x1="531" y1="377.85" x2="531" y2="377.81"/><line class="cls-1" x1="531" y1="377.81" x2="531" y2="377.74"/><line class="cls-1" x1="531" y1="377.74" x2="531" y2="371.31"/><line class="cls-1" x1="531" y1="371.31" x2="531" y2="371.28"/><line class="cls-1" x1="531" y1="371.28" x2="531" y2="371.2"/><line class="cls-1" x1="531" y1="371.2" x2="531" y2="371.12"/><line class="cls-1" x1="531" y1="371.12" x2="530.96" y2="371.09"/><line class="cls-1" x1="530.96" y1="371.09" x2="530.92" y2="371.01"/><line class="cls-1" x1="530.92" y1="371.01" x2="530.88" y2="370.97"/><line class="cls-1" x1="530.88" y1="370.97" x2="530.85" y2="370.9"/><line class="cls-1" x1="530.85" y1="370.9" x2="530.81" y2="370.86"/><line class="cls-1" x1="530.81" y1="370.86" x2="530.77" y2="370.82"/><line class="cls-1" x1="530.77" y1="370.82" x2="530.73" y2="370.78"/><line class="cls-1" x1="530.73" y1="370.78" x2="530.66" y2="370.75"/><line class="cls-1" x1="530.66" y1="370.75" x2="530.58" y2="370.71"/><line class="cls-1" x1="530.58" y1="370.71" x2="530.54" y2="370.67"/><line class="cls-1" x1="530.54" y1="370.67" x2="530.47" y2="370.67"/><line class="cls-1" x1="530.47" y1="370.67" x2="530.39" y2="370.67"/><line class="cls-1" x1="530.39" y1="370.67" x2="530.35" y2="370.67"/><line class="cls-1" x1="530.35" y1="370.67" x2="525.89" y2="370.67"/></g></svg>