<svg id="图层_1" data-name="图层 1" xmlns="http://www.w3.org/2000/svg" viewBox="0 0 1008 504"><defs><style>.cls-1{fill:none;stroke:#0b4d6e;stroke-linecap:round;stroke-linejoin:bevel;stroke-width:0.15px;}.cls-2,.cls-3{fill:#fff;}.cls-3{fill-rule:evenodd;}</style></defs><g id="FIREPLACE"><line class="cls-1" x1="465.63" y1="233.37" x2="463.25" y2="233.37"/><line class="cls-1" x1="471.75" y1="238.09" x2="465.63" y2="238.09"/><line class="cls-1" x1="465.63" y1="238.09" x2="465.63" y2="233.37"/><line class="cls-1" x1="471.75" y1="233.37" x2="463.25" y2="233.37"/><line class="cls-1" x1="471.75" y1="238.09" x2="465.63" y2="238.09"/><line class="cls-1" x1="473.19" y1="239.49" x2="465.63" y2="239.49"/><line class="cls-1" x1="469.86" y1="236.17" x2="465.63" y2="236.17"/><line class="cls-1" x1="465.63" y1="233.37" x2="469.86" y2="233.37"/><line class="cls-1" x1="473.19" y1="239.49" x2="465.63" y2="239.49"/><line class="cls-1" x1="472.13" y1="233.37" x2="471.75" y2="233.37"/><line class="cls-1" x1="470.35" y1="232.01" x2="468.69" y2="232.01"/><line class="cls-1" x1="468.69" y1="232.01" x2="468.69" y2="230.46"/><line class="cls-1" x1="468.69" y1="230.46" x2="468.58" y2="230.46"/><line class="cls-1" x1="468.58" y1="230.46" x2="468.58" y2="232.01"/><line class="cls-1" x1="468.58" y1="232.01" x2="465.25" y2="232.01"/><line class="cls-1" x1="469.37" y1="230.46" x2="467.1" y2="230.46"/><line class="cls-1" x1="470.35" y1="232.01" x2="468.69" y2="232.01"/><line class="cls-1" x1="468.69" y1="232.01" x2="468.69" y2="230.46"/><line class="cls-1" x1="468.58" y1="230.46" x2="468.58" y2="232.01"/><line class="cls-1" x1="468.58" y1="232.01" x2="465.25" y2="232.01"/><line class="cls-1" x1="463.25" y1="231.71" x2="463.25" y2="239.49"/><rect class="cls-2" x="463.23" y="218.25" width="2.38" height="15.12"/><line class="cls-1" x1="463.23" y1="233.37" x2="463.23" y2="218.25"/><line class="cls-1" x1="463.23" y1="218.25" x2="465.61" y2="218.25"/><line class="cls-1" x1="465.61" y1="218.25" x2="465.61" y2="213.53"/><line class="cls-1" x1="465.61" y1="213.53" x2="471.73" y2="213.53"/><line class="cls-1" x1="471.73" y1="213.53" x2="471.73" y2="238.09"/><line class="cls-1" x1="463.23" y1="233.37" x2="463.23" y2="218.25"/><line class="cls-1" x1="463.23" y1="218.25" x2="471.73" y2="218.25"/><line class="cls-1" x1="465.61" y1="213.53" x2="471.73" y2="213.53"/><line class="cls-1" x1="471.73" y1="213.53" x2="471.73" y2="238.09"/><rect class="cls-2" x="465.61" y="212.09" width="7.56" height="17.83"/><line class="cls-1" x1="465.61" y1="212.09" x2="473.17" y2="212.09"/><line class="cls-1" x1="473.17" y1="212.09" x2="473.17" y2="239.49"/><line class="cls-1" x1="465.61" y1="239.49" x2="465.61" y2="212.09"/><line class="cls-1" x1="469.84" y1="236.17" x2="469.84" y2="215.41"/><line class="cls-1" x1="469.84" y1="218.25" x2="465.61" y2="218.25"/><line class="cls-1" x1="465.61" y1="215.45" x2="469.8" y2="215.45"/><line class="cls-1" x1="465.61" y1="212.09" x2="473.17" y2="212.09"/><line class="cls-1" x1="473.17" y1="212.09" x2="473.17" y2="239.49"/><line class="cls-1" x1="465.61" y1="239.49" x2="465.61" y2="212.09"/><rect class="cls-2" x="471.73" y="218.25" width="0.38" height="15.12"/><line class="cls-1" x1="471.73" y1="233.37" x2="471.73" y2="218.25"/><line class="cls-1" x1="471.73" y1="218.25" x2="472.11" y2="218.25"/><line class="cls-1" x1="472.11" y1="218.25" x2="472.11" y2="233.37"/><line class="cls-1" x1="471.85" y1="218.25" x2="471.85" y2="233.37"/><polygon class="cls-3" points="465.23 232.01 465.23 219.46 468.56 219.46 468.56 221.01 468.56 230.46 468.56 232.01 465.23 232.01"/><rect class="cls-2" x="468.56" y="221.01" width="0.11" height="9.45"/><polygon class="cls-3" points="468.67 230.46 468.67 221.01 468.67 219.46 470.33 219.46 470.33 232.01 468.67 232.01 468.67 230.46"/><line class="cls-1" x1="465.23" y1="219.46" x2="468.56" y2="219.46"/><line class="cls-1" x1="468.56" y1="219.46" x2="468.56" y2="221.01"/><line class="cls-1" x1="468.56" y1="221.01" x2="468.67" y2="221.01"/><line class="cls-1" x1="468.67" y1="221.01" x2="468.67" y2="219.46"/><line class="cls-1" x1="468.67" y1="219.46" x2="470.33" y2="219.46"/><line class="cls-1" x1="470.33" y1="219.46" x2="470.33" y2="232.01"/><line class="cls-1" x1="465.23" y1="232.01" x2="465.23" y2="219.46"/><line class="cls-1" x1="467.08" y1="230.46" x2="467.08" y2="221.01"/><line class="cls-1" x1="467.08" y1="221.01" x2="469.35" y2="221.01"/><line class="cls-1" x1="469.35" y1="221.01" x2="469.35" y2="230.46"/><line class="cls-1" x1="466.89" y1="219.46" x2="466.89" y2="232.01"/><line class="cls-1" x1="468.67" y1="219.46" x2="470.33" y2="219.46"/><line class="cls-1" x1="470.33" y1="219.46" x2="470.33" y2="232.01"/><line class="cls-1" x1="465.23" y1="232.01" x2="465.23" y2="219.46"/><line class="cls-1" x1="465.23" y1="219.46" x2="468.56" y2="219.46"/><line class="cls-1" x1="468.56" y1="219.46" x2="468.56" y2="221.01"/><line class="cls-1" x1="468.67" y1="221.01" x2="468.67" y2="219.46"/><line class="cls-1" x1="463.23" y1="212.09" x2="463.23" y2="220.82"/><line class="cls-1" x1="463.23" y1="223.54" x2="463.23" y2="228.98"/><line class="cls-1" x1="467.01" y1="212.09" x2="473.17" y2="212.09"/><line class="cls-1" x1="463.23" y1="212.09" x2="464.66" y2="212.09"/><line class="cls-1" x1="467.03" y1="239.49" x2="473.19" y2="239.49"/><line class="cls-1" x1="463.25" y1="239.49" x2="464.68" y2="239.49"/></g></svg>