<svg id="图层_1" data-name="图层 1" xmlns="http://www.w3.org/2000/svg" viewBox="0 0 1008 504"><defs><style>.cls-1{fill:#fff;fill-rule:evenodd;}.cls-2{fill:none;stroke:#0c4f71;stroke-linecap:round;stroke-linejoin:bevel;stroke-width:0.15px;}</style></defs><g id="SITTING_ROOM-1" data-name="SITTING ROOM-1"><g id="SITTING_ROOM_FREE_STANDING_TUB-1" data-name="SITTING ROOM FREE STANDING TUB-1"><polygon class="cls-1" points="559.01 181.57 559.01 181.53 558.67 180.51 559.01 181.57"/><polygon class="cls-1" points="559.01 181.53 559.01 181.57 559.16 182.63 559.01 183.68 559.01 183.72 559.16 182.63 559.01 181.53"/><polygon class="cls-1" points="559.01 183.72 559.01 183.68 558.67 184.74 559.01 183.72"/><line class="cls-2" x1="559.01" y1="183.72" x2="559.16" y2="182.63"/><line class="cls-2" x1="559.16" y1="182.63" x2="559.01" y2="181.53"/><line class="cls-2" x1="559.01" y1="181.53" x2="558.67" y2="180.51"/><line class="cls-2" x1="558.67" y1="180.51" x2="559.01" y2="181.57"/><line class="cls-2" x1="559.01" y1="181.57" x2="559.16" y2="182.63"/><line class="cls-2" x1="559.16" y1="182.63" x2="559.01" y2="183.68"/><line class="cls-2" x1="559.01" y1="183.68" x2="558.67" y2="184.74"/><line class="cls-2" x1="558.67" y1="184.74" x2="559.01" y2="183.72"/><polygon class="cls-1" points="528.28 184.74 527.94 183.72 527.83 182.63 527.94 181.57 527.94 181.53 527.83 182.63 527.94 183.68 528.28 184.74"/><polygon class="cls-1" points="527.94 181.53 527.94 181.57 528.28 180.51 527.94 181.53"/><line class="cls-2" x1="527.94" y1="183.72" x2="527.83" y2="182.63"/><line class="cls-2" x1="527.83" y1="182.63" x2="527.94" y2="181.57"/><line class="cls-2" x1="527.94" y1="181.57" x2="528.28" y2="180.51"/><line class="cls-2" x1="528.28" y1="180.51" x2="527.94" y2="181.53"/><line class="cls-2" x1="527.94" y1="181.53" x2="527.83" y2="182.63"/><line class="cls-2" x1="527.83" y1="182.63" x2="527.94" y2="183.68"/><line class="cls-2" x1="527.94" y1="183.68" x2="528.28" y2="184.74"/><line class="cls-2" x1="528.28" y1="184.74" x2="527.94" y2="183.72"/><polygon class="cls-1" points="559.73 185.04 560.11 183.87 560.26 182.63 560.11 181.42 559.73 180.24 559.08 179.15 558.25 178.16 557.19 177.3 555.99 176.58 554.62 176.01 553.15 175.63 551.56 175.44 549.79 175.29 547.97 175.18 546.16 175.1 544.38 175.07 542.57 175.07 540.79 175.1 538.98 175.18 537.2 175.29 535.38 175.44 533.8 175.63 532.32 176.01 530.96 176.58 529.75 177.3 528.7 178.16 527.86 179.15 527.22 180.24 526.84 181.42 526.69 182.63 526.84 183.87 527.22 185.04 527.86 186.1 528.7 187.09 529.75 187.96 530.96 188.67 532.32 189.24 533.8 189.62 535.38 189.84 537.2 190 538.98 190.07 540.79 190.15 542.57 190.19 544.38 190.19 546.16 190.15 547.97 190.07 549.79 190 551.56 189.84 553.15 189.62 554.62 189.24 555.99 188.67 557.19 187.96 558.25 187.09 559.08 186.1 559.73 185.04"/><line class="cls-2" x1="560.1" y1="183.87" x2="560.26" y2="182.63"/><line class="cls-2" x1="560.26" y1="182.63" x2="560.1" y2="181.42"/><line class="cls-2" x1="560.1" y1="181.42" x2="559.73" y2="180.24"/><line class="cls-2" x1="559.73" y1="180.24" x2="559.08" y2="179.15"/><line class="cls-2" x1="559.08" y1="179.15" x2="558.25" y2="178.16"/><line class="cls-2" x1="558.25" y1="178.16" x2="557.19" y2="177.3"/><line class="cls-2" x1="557.19" y1="177.3" x2="555.98" y2="176.58"/><line class="cls-2" x1="555.98" y1="176.58" x2="554.62" y2="176.01"/><line class="cls-2" x1="554.62" y1="176.01" x2="553.15" y2="175.63"/><line class="cls-2" x1="553.15" y1="175.63" x2="551.56" y2="175.44"/><line class="cls-2" x1="551.56" y1="175.44" x2="549.79" y2="175.29"/><line class="cls-2" x1="549.79" y1="175.29" x2="547.97" y2="175.18"/><line class="cls-2" x1="547.97" y1="175.18" x2="546.16" y2="175.1"/><line class="cls-2" x1="546.16" y1="175.1" x2="544.38" y2="175.07"/><line class="cls-2" x1="544.38" y1="175.07" x2="542.57" y2="175.07"/><line class="cls-2" x1="542.57" y1="175.07" x2="540.79" y2="175.1"/><line class="cls-2" x1="540.79" y1="175.1" x2="538.98" y2="175.18"/><line class="cls-2" x1="538.98" y1="175.18" x2="537.2" y2="175.29"/><line class="cls-2" x1="537.2" y1="175.29" x2="535.38" y2="175.44"/><line class="cls-2" x1="535.38" y1="175.44" x2="533.8" y2="175.63"/><line class="cls-2" x1="533.8" y1="175.63" x2="532.32" y2="176.01"/><line class="cls-2" x1="532.32" y1="176.01" x2="530.96" y2="176.58"/><line class="cls-2" x1="530.96" y1="176.58" x2="529.75" y2="177.3"/><line class="cls-2" x1="529.75" y1="177.3" x2="528.69" y2="178.16"/><line class="cls-2" x1="528.69" y1="178.16" x2="527.86" y2="179.15"/><line class="cls-2" x1="527.86" y1="179.15" x2="527.22" y2="180.24"/><line class="cls-2" x1="527.22" y1="180.24" x2="526.84" y2="181.42"/><line class="cls-2" x1="526.84" y1="181.42" x2="526.69" y2="182.63"/><line class="cls-2" x1="526.69" y1="182.63" x2="526.84" y2="183.87"/><line class="cls-2" x1="526.84" y1="183.87" x2="527.22" y2="185.04"/><line class="cls-2" x1="527.22" y1="185.04" x2="527.86" y2="186.1"/><line class="cls-2" x1="527.86" y1="186.1" x2="528.69" y2="187.09"/><line class="cls-2" x1="528.69" y1="187.09" x2="529.75" y2="187.95"/><line class="cls-2" x1="529.75" y1="187.95" x2="530.96" y2="188.67"/><line class="cls-2" x1="530.96" y1="188.67" x2="532.32" y2="189.24"/><line class="cls-2" x1="532.32" y1="189.24" x2="533.8" y2="189.62"/><line class="cls-2" x1="533.8" y1="189.62" x2="535.38" y2="189.84"/><line class="cls-2" x1="535.38" y1="189.84" x2="537.2" y2="190"/><line class="cls-2" x1="537.2" y1="190" x2="538.98" y2="190.07"/><line class="cls-2" x1="538.98" y1="190.07" x2="540.79" y2="190.15"/><line class="cls-2" x1="540.79" y1="190.15" x2="542.57" y2="190.18"/><line class="cls-2" x1="542.57" y1="190.18" x2="544.38" y2="190.18"/><line class="cls-2" x1="544.38" y1="190.18" x2="546.16" y2="190.15"/><line class="cls-2" x1="546.16" y1="190.15" x2="547.97" y2="190.07"/><line class="cls-2" x1="547.97" y1="190.07" x2="549.79" y2="190"/><line class="cls-2" x1="549.79" y1="190" x2="551.56" y2="189.84"/><line class="cls-2" x1="551.56" y1="189.84" x2="553.15" y2="189.62"/><line class="cls-2" x1="553.15" y1="189.62" x2="554.62" y2="189.24"/><line class="cls-2" x1="554.62" y1="189.24" x2="555.98" y2="188.67"/><line class="cls-2" x1="555.98" y1="188.67" x2="557.19" y2="187.95"/><line class="cls-2" x1="557.19" y1="187.95" x2="558.25" y2="187.09"/><line class="cls-2" x1="558.25" y1="187.09" x2="559.08" y2="186.1"/><line class="cls-2" x1="559.08" y1="186.1" x2="559.73" y2="185.04"/><line class="cls-2" x1="559.73" y1="185.04" x2="560.1" y2="183.87"/><line class="cls-2" x1="543.59" y1="177.3" x2="543.74" y2="177.3"/><line class="cls-2" x1="543.74" y1="177.3" x2="543.85" y2="177.26"/><line class="cls-2" x1="543.85" y1="177.26" x2="543.96" y2="177.26"/><line class="cls-2" x1="543.96" y1="177.26" x2="544.04" y2="177.26"/><line class="cls-2" x1="544.04" y1="177.26" x2="544.08" y2="177.22"/><line class="cls-2" x1="544.08" y1="177.22" x2="544.19" y2="177.03"/><line class="cls-2" x1="544.19" y1="177.03" x2="544.12" y2="176.99"/><line class="cls-2" x1="544.12" y1="176.99" x2="544.04" y2="176.99"/><line class="cls-2" x1="544.04" y1="176.99" x2="543.89" y2="176.99"/><line class="cls-2" x1="543.89" y1="176.99" x2="543.74" y2="176.96"/><line class="cls-2" x1="543.74" y1="176.96" x2="543.55" y2="176.96"/><line class="cls-2" x1="543.55" y1="176.96" x2="543.36" y2="176.96"/><line class="cls-2" x1="543.36" y1="176.96" x2="543.21" y2="176.96"/><line class="cls-2" x1="543.21" y1="176.96" x2="543.06" y2="176.99"/><line class="cls-2" x1="543.06" y1="176.99" x2="542.91" y2="176.99"/><line class="cls-2" x1="542.91" y1="176.99" x2="542.83" y2="177.03"/><line class="cls-2" x1="542.83" y1="177.03" x2="542.79" y2="177.03"/><line class="cls-2" x1="542.79" y1="177.03" x2="542.79" y2="177.07"/><line class="cls-2" x1="542.79" y1="177.07" x2="542.87" y2="177.22"/><line class="cls-2" x1="543.36" y1="177.3" x2="543.25" y2="177.3"/><line class="cls-2" x1="543.25" y1="177.3" x2="543.13" y2="177.26"/><line class="cls-2" x1="543.13" y1="177.26" x2="543.02" y2="177.26"/><line class="cls-2" x1="543.02" y1="177.26" x2="542.91" y2="177.26"/><line class="cls-2" x1="542.91" y1="177.26" x2="542.87" y2="177.22"/><line class="cls-2" x1="542.87" y1="177.22" x2="542.91" y2="177.18"/><line class="cls-2" x1="542.91" y1="177.18" x2="542.98" y2="177.18"/><line class="cls-2" x1="542.98" y1="177.18" x2="543.1" y2="177.18"/><line class="cls-2" x1="543.1" y1="177.18" x2="543.25" y2="177.14"/><line class="cls-2" x1="543.25" y1="177.14" x2="543.4" y2="177.14"/><line class="cls-2" x1="543.4" y1="177.14" x2="543.55" y2="177.14"/><line class="cls-2" x1="543.55" y1="177.14" x2="543.7" y2="177.14"/><line class="cls-2" x1="543.7" y1="177.14" x2="543.85" y2="177.18"/><line class="cls-2" x1="543.85" y1="177.18" x2="543.96" y2="177.18"/><line class="cls-2" x1="543.96" y1="177.18" x2="544.04" y2="177.18"/><line class="cls-2" x1="544.04" y1="177.18" x2="544.08" y2="177.22"/><line class="cls-2" x1="543.36" y1="177.41" x2="543.47" y2="177.48"/><line class="cls-2" x1="543.47" y1="177.48" x2="543.59" y2="177.41"/><line class="cls-2" x1="543.59" y1="177.41" x2="543.55" y2="177.41"/><line class="cls-2" x1="543.55" y1="177.41" x2="543.51" y2="177.41"/><line class="cls-2" x1="543.51" y1="177.41" x2="543.47" y2="177.41"/><line class="cls-2" x1="543.47" y1="177.22" x2="543.44" y2="177.22"/><line class="cls-2" x1="543.44" y1="177.22" x2="543.4" y2="177.22"/><line class="cls-2" x1="543.4" y1="177.22" x2="543.36" y2="177.22"/><line class="cls-2" x1="543.36" y1="177.22" x2="543.36" y2="177.41"/><line class="cls-2" x1="543.36" y1="177.41" x2="543.4" y2="177.41"/><line class="cls-2" x1="543.4" y1="177.41" x2="543.44" y2="177.41"/><line class="cls-2" x1="543.44" y1="177.41" x2="543.47" y2="177.41"/><line class="cls-2" x1="543.59" y1="177.41" x2="543.59" y2="177.22"/><line class="cls-2" x1="543.59" y1="177.22" x2="543.55" y2="177.22"/><line class="cls-2" x1="543.55" y1="177.22" x2="543.51" y2="177.22"/><line class="cls-2" x1="543.51" y1="177.22" x2="543.47" y2="177.22"/><polygon class="cls-1" points="543.89 179.34 543.89 179.26 543.89 179.19 543.85 179.11 543.78 179.03 543.7 179 543.59 178.96 543.51 178.96 543.4 178.96 543.28 179 543.21 179.03 543.13 179.11 543.1 179.19 543.1 179.26 543.1 179.34 543.13 179.41 543.21 179.49 543.28 179.56 543.4 179.56 543.51 179.6 543.59 179.56 543.7 179.56 543.78 179.49 543.85 179.41 543.89 179.34"/><line class="cls-2" x1="543.89" y1="179.26" x2="543.89" y2="179.19"/><line class="cls-2" x1="543.89" y1="179.19" x2="543.85" y2="179.11"/><line class="cls-2" x1="543.85" y1="179.11" x2="543.78" y2="179.03"/><line class="cls-2" x1="543.78" y1="179.03" x2="543.7" y2="179"/><line class="cls-2" x1="543.7" y1="179" x2="543.59" y2="178.96"/><line class="cls-2" x1="543.59" y1="178.96" x2="543.51" y2="178.96"/><line class="cls-2" x1="543.51" y1="178.96" x2="543.4" y2="178.96"/><line class="cls-2" x1="543.4" y1="178.96" x2="543.28" y2="179"/><line class="cls-2" x1="543.28" y1="179" x2="543.21" y2="179.03"/><line class="cls-2" x1="543.21" y1="179.03" x2="543.13" y2="179.11"/><line class="cls-2" x1="543.13" y1="179.11" x2="543.1" y2="179.19"/><line class="cls-2" x1="543.1" y1="179.19" x2="543.1" y2="179.26"/><line class="cls-2" x1="543.1" y1="179.26" x2="543.1" y2="179.34"/><line class="cls-2" x1="543.1" y1="179.34" x2="543.13" y2="179.41"/><line class="cls-2" x1="543.13" y1="179.41" x2="543.21" y2="179.49"/><line class="cls-2" x1="543.21" y1="179.49" x2="543.28" y2="179.56"/><line class="cls-2" x1="543.28" y1="179.56" x2="543.4" y2="179.56"/><line class="cls-2" x1="543.4" y1="179.56" x2="543.51" y2="179.6"/><line class="cls-2" x1="543.51" y1="179.6" x2="543.59" y2="179.56"/><line class="cls-2" x1="543.59" y1="179.56" x2="543.7" y2="179.56"/><line class="cls-2" x1="543.7" y1="179.56" x2="543.78" y2="179.49"/><line class="cls-2" x1="543.78" y1="179.49" x2="543.85" y2="179.41"/><line class="cls-2" x1="543.85" y1="179.41" x2="543.89" y2="179.34"/><line class="cls-2" x1="543.89" y1="179.34" x2="543.89" y2="179.26"/><polygon class="cls-1" points="544.15 179.41 544.15 179.26 544.15 179.15 544.08 179 543.97 178.92 543.85 178.81 543.66 178.77 543.51 178.77 543.32 178.77 543.17 178.81 543.02 178.92 542.91 179 542.83 179.15 542.83 179.26 542.83 179.41 542.91 179.53 543.02 179.64 543.17 179.72 543.32 179.75 543.51 179.79 543.66 179.75 543.85 179.72 543.97 179.64 544.08 179.53 544.15 179.41"/><line class="cls-2" x1="544.15" y1="179.26" x2="544.15" y2="179.15"/><line class="cls-2" x1="544.15" y1="179.15" x2="544.08" y2="179"/><line class="cls-2" x1="544.08" y1="179" x2="543.96" y2="178.92"/><line class="cls-2" x1="543.96" y1="178.92" x2="543.85" y2="178.81"/><line class="cls-2" x1="543.85" y1="178.81" x2="543.66" y2="178.77"/><line class="cls-2" x1="543.66" y1="178.77" x2="543.51" y2="178.77"/><line class="cls-2" x1="543.51" y1="178.77" x2="543.32" y2="178.77"/><line class="cls-2" x1="543.32" y1="178.77" x2="543.17" y2="178.81"/><line class="cls-2" x1="543.17" y1="178.81" x2="543.02" y2="178.92"/><line class="cls-2" x1="543.02" y1="178.92" x2="542.91" y2="179"/><line class="cls-2" x1="542.91" y1="179" x2="542.83" y2="179.15"/><line class="cls-2" x1="542.83" y1="179.15" x2="542.83" y2="179.26"/><line class="cls-2" x1="542.83" y1="179.26" x2="542.83" y2="179.41"/><line class="cls-2" x1="542.83" y1="179.41" x2="542.91" y2="179.53"/><line class="cls-2" x1="542.91" y1="179.53" x2="543.02" y2="179.64"/><line class="cls-2" x1="543.02" y1="179.64" x2="543.17" y2="179.71"/><line class="cls-2" x1="543.17" y1="179.71" x2="543.32" y2="179.79"/><line class="cls-2" x1="543.32" y1="179.75" x2="543.51" y2="179.79"/><line class="cls-2" x1="543.51" y1="179.79" x2="543.66" y2="179.75"/><line class="cls-2" x1="543.66" y1="179.75" x2="543.85" y2="179.71"/><line class="cls-2" x1="543.85" y1="179.71" x2="543.96" y2="179.64"/><line class="cls-2" x1="543.96" y1="179.64" x2="544.08" y2="179.53"/><line class="cls-2" x1="544.08" y1="179.53" x2="544.15" y2="179.41"/><line class="cls-2" x1="544.15" y1="179.41" x2="544.15" y2="179.26"/><polygon class="cls-1" points="543.85 179.34 543.89 179.26 543.85 179.19 543.81 179.15 543.78 179.07 543.7 179.03 543.59 179 543.51 179 543.4 179 543.32 179.03 543.25 179.07 543.17 179.15 543.13 179.19 543.13 179.26 543.13 179.34 543.17 179.41 543.25 179.49 543.32 179.53 543.4 179.56 543.51 179.56 543.59 179.56 543.7 179.53 543.78 179.49 543.81 179.41 543.85 179.34"/><line class="cls-2" x1="543.89" y1="179.26" x2="543.85" y2="179.19"/><line class="cls-2" x1="543.85" y1="179.19" x2="543.81" y2="179.15"/><line class="cls-2" x1="543.81" y1="179.15" x2="543.78" y2="179.07"/><line class="cls-2" x1="543.78" y1="179.07" x2="543.7" y2="179.03"/><line class="cls-2" x1="543.7" y1="179.03" x2="543.59" y2="179"/><line class="cls-2" x1="543.59" y1="179" x2="543.51" y2="179"/><line class="cls-2" x1="543.51" y1="179" x2="543.4" y2="179"/><line class="cls-2" x1="543.4" y1="179" x2="543.32" y2="179.03"/><line class="cls-2" x1="543.32" y1="179.03" x2="543.25" y2="179.07"/><line class="cls-2" x1="543.25" y1="179.07" x2="543.17" y2="179.15"/><line class="cls-2" x1="543.17" y1="179.15" x2="543.13" y2="179.19"/><line class="cls-2" x1="543.13" y1="179.19" x2="543.13" y2="179.26"/><line class="cls-2" x1="543.13" y1="179.26" x2="543.13" y2="179.34"/><line class="cls-2" x1="543.13" y1="179.34" x2="543.17" y2="179.41"/><line class="cls-2" x1="543.17" y1="179.41" x2="543.25" y2="179.49"/><line class="cls-2" x1="543.25" y1="179.49" x2="543.32" y2="179.53"/><line class="cls-2" x1="543.32" y1="179.53" x2="543.4" y2="179.56"/><line class="cls-2" x1="543.4" y1="179.56" x2="543.51" y2="179.56"/><line class="cls-2" x1="543.51" y1="179.56" x2="543.59" y2="179.56"/><line class="cls-2" x1="543.59" y1="179.56" x2="543.7" y2="179.53"/><line class="cls-2" x1="543.7" y1="179.53" x2="543.78" y2="179.49"/><line class="cls-2" x1="543.78" y1="179.49" x2="543.81" y2="179.41"/><line class="cls-2" x1="543.81" y1="179.41" x2="543.85" y2="179.34"/><line class="cls-2" x1="543.85" y1="179.34" x2="543.89" y2="179.26"/><line class="cls-2" x1="557.8" y1="183.57" x2="557.91" y2="182.63"/><line class="cls-2" x1="557.91" y1="182.63" x2="557.8" y2="181.72"/><line class="cls-2" x1="557.8" y1="181.72" x2="557.5" y2="180.85"/><line class="cls-2" x1="557.5" y1="180.85" x2="557.04" y2="180.02"/><line class="cls-2" x1="557.04" y1="180.02" x2="556.4" y2="179.3"/><line class="cls-2" x1="556.4" y1="179.3" x2="555.61" y2="178.62"/><line class="cls-2" x1="555.61" y1="178.62" x2="554.7" y2="178.09"/><line class="cls-2" x1="554.7" y1="178.09" x2="553.68" y2="177.67"/><line class="cls-2" x1="553.68" y1="177.67" x2="552.58" y2="177.37"/><line class="cls-2" x1="552.58" y1="177.37" x2="551.26" y2="177.22"/><line class="cls-2" x1="551.26" y1="177.22" x2="549.56" y2="177.07"/><line class="cls-2" x1="549.56" y1="177.07" x2="547.82" y2="176.96"/><line class="cls-2" x1="547.82" y1="176.96" x2="546.08" y2="176.88"/><line class="cls-2" x1="546.08" y1="176.88" x2="544.34" y2="176.84"/><line class="cls-2" x1="544.34" y1="176.84" x2="542.6" y2="176.84"/><line class="cls-2" x1="542.6" y1="176.84" x2="540.87" y2="176.88"/><line class="cls-2" x1="540.87" y1="176.88" x2="539.13" y2="176.96"/><line class="cls-2" x1="539.13" y1="176.96" x2="537.39" y2="177.07"/><line class="cls-2" x1="537.39" y1="177.07" x2="535.72" y2="177.22"/><line class="cls-2" x1="535.72" y1="177.22" x2="534.36" y2="177.37"/><line class="cls-2" x1="534.36" y1="177.37" x2="533.27" y2="177.67"/><line class="cls-2" x1="533.27" y1="177.67" x2="532.25" y2="178.09"/><line class="cls-2" x1="532.25" y1="178.09" x2="531.34" y2="178.62"/><line class="cls-2" x1="531.34" y1="178.62" x2="530.55" y2="179.3"/><line class="cls-2" x1="530.55" y1="179.3" x2="529.9" y2="180.02"/><line class="cls-2" x1="529.9" y1="180.02" x2="529.45" y2="180.85"/><line class="cls-2" x1="529.45" y1="180.85" x2="529.15" y2="181.72"/><line class="cls-2" x1="529.15" y1="181.72" x2="529.03" y2="182.63"/><line class="cls-2" x1="529.03" y1="182.63" x2="529.15" y2="183.57"/><line class="cls-2" x1="529.15" y1="183.57" x2="529.45" y2="184.44"/><line class="cls-2" x1="529.45" y1="184.44" x2="529.9" y2="185.23"/><line class="cls-2" x1="529.9" y1="185.23" x2="530.55" y2="185.99"/><line class="cls-2" x1="530.55" y1="185.99" x2="531.34" y2="186.63"/><line class="cls-2" x1="531.34" y1="186.63" x2="532.25" y2="187.16"/><line class="cls-2" x1="532.25" y1="187.16" x2="533.27" y2="187.58"/><line class="cls-2" x1="533.27" y1="187.58" x2="534.36" y2="187.88"/><line class="cls-2" x1="534.36" y1="187.88" x2="535.72" y2="188.07"/><line class="cls-2" x1="535.72" y1="188.07" x2="537.39" y2="188.18"/><line class="cls-2" x1="537.39" y1="188.18" x2="539.13" y2="188.29"/><line class="cls-2" x1="539.13" y1="188.29" x2="540.87" y2="188.37"/><line class="cls-2" x1="540.87" y1="188.37" x2="542.6" y2="188.41"/><line class="cls-2" x1="542.6" y1="188.41" x2="544.34" y2="188.41"/><line class="cls-2" x1="544.34" y1="188.41" x2="546.08" y2="188.37"/><line class="cls-2" x1="546.08" y1="188.37" x2="547.82" y2="188.29"/><line class="cls-2" x1="547.82" y1="188.29" x2="549.56" y2="188.18"/><line class="cls-2" x1="549.56" y1="188.18" x2="551.26" y2="188.07"/><line class="cls-2" x1="551.26" y1="188.07" x2="552.58" y2="187.88"/><line class="cls-2" x1="552.58" y1="187.88" x2="553.68" y2="187.58"/><line class="cls-2" x1="553.68" y1="187.58" x2="554.7" y2="187.16"/><line class="cls-2" x1="554.7" y1="187.16" x2="555.61" y2="186.63"/><line class="cls-2" x1="555.61" y1="186.63" x2="556.4" y2="185.99"/><line class="cls-2" x1="556.4" y1="185.99" x2="557.04" y2="185.23"/><line class="cls-2" x1="557.04" y1="185.23" x2="557.5" y2="184.44"/><line class="cls-2" x1="557.5" y1="184.44" x2="557.8" y2="183.57"/><line class="cls-2" x1="555.04" y1="183.19" x2="555.08" y2="182.63"/><line class="cls-2" x1="555.08" y1="182.63" x2="555.04" y2="182.06"/><line class="cls-2" x1="555.04" y1="182.06" x2="554.85" y2="181.53"/><line class="cls-2" x1="554.85" y1="181.53" x2="554.55" y2="181.08"/><line class="cls-2" x1="554.55" y1="181.08" x2="554.17" y2="180.62"/><line class="cls-2" x1="554.17" y1="180.62" x2="553.72" y2="180.24"/><line class="cls-2" x1="553.72" y1="180.24" x2="553.15" y2="179.9"/><line class="cls-2" x1="553.15" y1="179.9" x2="552.55" y2="179.64"/><line class="cls-2" x1="552.55" y1="179.64" x2="551.9" y2="179.49"/><line class="cls-2" x1="551.9" y1="179.49" x2="550.88" y2="179.34"/><line class="cls-2" x1="550.88" y1="179.34" x2="549.29" y2="179.22"/><line class="cls-2" x1="549.29" y1="179.22" x2="547.63" y2="179.11"/><line class="cls-2" x1="547.63" y1="179.11" x2="545.97" y2="179.03"/><line class="cls-2" x1="545.97" y1="179.03" x2="544.31" y2="179"/><line class="cls-2" x1="544.31" y1="179" x2="542.64" y2="179"/><line class="cls-2" x1="542.64" y1="179" x2="540.98" y2="179.03"/><line class="cls-2" x1="540.98" y1="179.03" x2="539.32" y2="179.11"/><line class="cls-2" x1="539.32" y1="179.11" x2="537.65" y2="179.22"/><line class="cls-2" x1="537.65" y1="179.22" x2="536.07" y2="179.34"/><line class="cls-2" x1="536.07" y1="179.34" x2="535.08" y2="179.49"/><line class="cls-2" x1="535.08" y1="179.49" x2="534.4" y2="179.64"/><line class="cls-2" x1="534.4" y1="179.64" x2="533.8" y2="179.9"/><line class="cls-2" x1="533.8" y1="179.9" x2="533.23" y2="180.24"/><line class="cls-2" x1="533.23" y1="180.24" x2="532.78" y2="180.62"/><line class="cls-2" x1="532.78" y1="180.62" x2="532.4" y2="181.08"/><line class="cls-2" x1="532.4" y1="181.08" x2="532.1" y2="181.53"/><line class="cls-2" x1="532.1" y1="181.53" x2="531.95" y2="182.06"/><line class="cls-2" x1="531.95" y1="182.06" x2="531.87" y2="182.63"/><line class="cls-2" x1="531.87" y1="182.63" x2="531.95" y2="183.19"/><line class="cls-2" x1="531.95" y1="183.19" x2="532.1" y2="183.72"/><line class="cls-2" x1="532.1" y1="183.72" x2="532.4" y2="184.21"/><line class="cls-2" x1="532.4" y1="184.21" x2="532.78" y2="184.63"/><line class="cls-2" x1="532.78" y1="184.63" x2="533.23" y2="185.04"/><line class="cls-2" x1="533.23" y1="185.04" x2="533.8" y2="185.35"/><line class="cls-2" x1="533.8" y1="185.35" x2="534.4" y2="185.61"/><line class="cls-2" x1="534.4" y1="185.61" x2="535.08" y2="185.8"/><line class="cls-2" x1="535.08" y1="185.8" x2="536.07" y2="185.91"/><line class="cls-2" x1="536.07" y1="185.91" x2="537.65" y2="186.03"/><line class="cls-2" x1="537.65" y1="186.03" x2="539.32" y2="186.14"/><line class="cls-2" x1="539.32" y1="186.14" x2="540.98" y2="186.22"/><line class="cls-2" x1="540.98" y1="186.22" x2="542.64" y2="186.25"/><line class="cls-2" x1="542.64" y1="186.25" x2="544.31" y2="186.25"/><line class="cls-2" x1="544.31" y1="186.25" x2="545.97" y2="186.22"/><line class="cls-2" x1="545.97" y1="186.22" x2="547.63" y2="186.14"/><line class="cls-2" x1="547.63" y1="186.14" x2="549.29" y2="186.03"/><line class="cls-2" x1="549.29" y1="186.03" x2="550.88" y2="185.91"/><line class="cls-2" x1="550.88" y1="185.91" x2="551.9" y2="185.8"/><line class="cls-2" x1="551.9" y1="185.8" x2="552.55" y2="185.61"/><line class="cls-2" x1="552.55" y1="185.61" x2="553.15" y2="185.35"/><line class="cls-2" x1="553.15" y1="185.35" x2="553.72" y2="185.04"/><line class="cls-2" x1="553.72" y1="185.04" x2="554.17" y2="184.63"/><line class="cls-2" x1="554.17" y1="184.63" x2="554.55" y2="184.21"/><line class="cls-2" x1="554.55" y1="184.21" x2="554.85" y2="183.72"/><line class="cls-2" x1="554.85" y1="183.72" x2="555.04" y2="183.19"/></g></g></svg>