<svg id="图层_1" data-name="图层 1" xmlns="http://www.w3.org/2000/svg" viewBox="0 0 1008 504"><defs><style>.cls-1,.cls-3{fill:#fff;}.cls-2{fill:none;stroke:#0c5275;stroke-linecap:round;stroke-linejoin:bevel;stroke-width:0.15px;}.cls-3{fill-rule:evenodd;}.cls-4,.cls-6{fill:#0c5275;}.cls-5{font-size:3.93px;fill:#040000;font-family:CenturyGothic-Bold, Century Gothic;font-weight:700;}.cls-6{font-size:7px;font-family:CenturyGothic, Century Gothic;}.cls-7{letter-spacing:0em;}.cls-8{letter-spacing:-0.01em;}.cls-9{letter-spacing:0em;}.cls-10{letter-spacing:0em;}.cls-11{letter-spacing:-0.01em;}.cls-12{letter-spacing:0.01em;}.cls-13{letter-spacing:-0.01em;}.cls-14{letter-spacing:0em;}.cls-15{letter-spacing:0em;}.cls-16{letter-spacing:-0.01em;}</style></defs><title>STUDY BATH-2</title><g id="merlot-IFP_main_floor" data-name="merlot-IFP main floor"><g id="STUDY_BATH-2" data-name="STUDY BATH-2"><rect class="cls-1" x="309.48" y="200.88" width="48.85" height="44.54"/><line class="cls-2" x1="352.61" y1="164.09" x2="352.61" y2="165.8"/><line class="cls-2" x1="352.61" y1="167.5" x2="352.61" y2="169.2"/><line class="cls-2" x1="352.61" y1="171.99" x2="352.61" y2="170.6"/><line class="cls-2" x1="354.69" y1="171.99" x2="356.39" y2="171.99"/><line class="cls-2" x1="358.09" y1="171.99" x2="359.79" y2="171.99"/><line class="cls-2" x1="361.49" y1="171.99" x2="363.19" y2="171.99"/><line class="cls-2" x1="364.89" y1="171.99" x2="367.01" y2="171.99"/><line class="cls-2" x1="352.61" y1="171.99" x2="354.01" y2="171.99"/><line class="cls-2" x1="367.01" y1="172.71" x2="352.04" y2="172.71"/><line class="cls-2" x1="352.04" y1="172.71" x2="352" y2="172.71"/><line class="cls-2" x1="352" y1="172.71" x2="351.97" y2="172.67"/><line class="cls-2" x1="351.97" y1="172.67" x2="351.93" y2="172.67"/><line class="cls-2" x1="351.93" y1="172.67" x2="351.93" y2="172.64"/><line class="cls-2" x1="351.93" y1="172.64" x2="351.89" y2="172.6"/><line class="cls-2" x1="351.89" y1="172.6" x2="351.89" y2="172.56"/><line class="cls-2" x1="351.89" y1="172.56" x2="351.89" y2="172.52"/><line class="cls-2" x1="351.89" y1="172.52" x2="351.89" y2="162.09"/><line class="cls-2" x1="356.16" y1="168.86" x2="356.58" y2="169.12"/><line class="cls-2" x1="356.58" y1="169.12" x2="356.96" y2="169.39"/><line class="cls-2" x1="356.96" y1="169.39" x2="357.41" y2="169.58"/><line class="cls-2" x1="357.41" y1="169.58" x2="357.86" y2="169.76"/><line class="cls-2" x1="357.86" y1="169.76" x2="358.39" y2="169.92"/><line class="cls-2" x1="358.39" y1="169.92" x2="358.96" y2="170.03"/><line class="cls-2" x1="358.96" y1="170.03" x2="359.53" y2="170.07"/><line class="cls-2" x1="359.53" y1="170.07" x2="360.09" y2="170.07"/><line class="cls-2" x1="360.09" y1="170.07" x2="360.66" y2="169.99"/><line class="cls-2" x1="360.66" y1="169.99" x2="361.19" y2="169.88"/><line class="cls-2" x1="361.19" y1="169.88" x2="361.72" y2="169.69"/><line class="cls-2" x1="361.72" y1="169.69" x2="362.25" y2="169.46"/><line class="cls-2" x1="362.25" y1="169.46" x2="362.74" y2="169.16"/><line class="cls-2" x1="362.74" y1="169.16" x2="363.19" y2="168.86"/><line class="cls-2" x1="363.19" y1="168.86" x2="363.34" y2="168.71"/><line class="cls-2" x1="363.34" y1="168.71" x2="363.57" y2="168.48"/><line class="cls-2" x1="363.57" y1="168.48" x2="363.76" y2="168.25"/><line class="cls-2" x1="363.76" y1="168.25" x2="363.95" y2="167.95"/><line class="cls-2" x1="363.95" y1="167.95" x2="364.1" y2="167.69"/><line class="cls-2" x1="364.1" y1="167.69" x2="364.21" y2="167.38"/><line class="cls-2" x1="364.21" y1="167.38" x2="364.33" y2="167.08"/><line class="cls-2" x1="364.33" y1="167.08" x2="364.36" y2="166.74"/><line class="cls-2" x1="364.36" y1="166.74" x2="364.4" y2="166.44"/><line class="cls-2" x1="364.4" y1="166.44" x2="364.4" y2="166.1"/><line class="cls-2" x1="364.4" y1="166.1" x2="364.36" y2="165.8"/><line class="cls-2" x1="364.36" y1="165.8" x2="364.29" y2="165.46"/><line class="cls-2" x1="364.29" y1="165.46" x2="364.21" y2="165.15"/><line class="cls-2" x1="364.21" y1="165.15" x2="364.06" y2="164.85"/><line class="cls-2" x1="364.06" y1="164.85" x2="363.91" y2="164.59"/><line class="cls-2" x1="363.91" y1="164.59" x2="363.76" y2="164.36"/><line class="cls-2" x1="363.76" y1="164.36" x2="363.57" y2="164.13"/><line class="cls-2" x1="363.57" y1="164.13" x2="363.38" y2="163.91"/><line class="cls-2" x1="363.38" y1="163.91" x2="363.19" y2="163.75"/><line class="cls-2" x1="363.19" y1="163.75" x2="362.74" y2="163.41"/><line class="cls-2" x1="362.74" y1="163.41" x2="362.25" y2="163.15"/><line class="cls-2" x1="362.25" y1="163.15" x2="361.72" y2="162.89"/><line class="cls-2" x1="361.72" y1="162.89" x2="361.19" y2="162.73"/><line class="cls-2" x1="361.19" y1="162.73" x2="360.62" y2="162.58"/><line class="cls-2" x1="360.62" y1="162.58" x2="360.09" y2="162.51"/><line class="cls-2" x1="360.09" y1="162.51" x2="359.53" y2="162.51"/><line class="cls-2" x1="359.53" y1="162.51" x2="358.96" y2="162.55"/><line class="cls-2" x1="358.96" y1="162.55" x2="358.39" y2="162.66"/><line class="cls-2" x1="358.39" y1="162.66" x2="357.83" y2="162.81"/><line class="cls-2" x1="357.83" y1="162.81" x2="357.33" y2="163.04"/><line class="cls-2" x1="357.33" y1="163.04" x2="356.8" y2="163.3"/><line class="cls-2" x1="356.8" y1="163.3" x2="356.35" y2="163.6"/><line class="cls-2" x1="356.35" y1="163.6" x2="356.16" y2="163.75"/><line class="cls-2" x1="356.16" y1="163.75" x2="356.05" y2="163.87"/><line class="cls-2" x1="356.05" y1="163.87" x2="355.9" y2="163.98"/><line class="cls-2" x1="355.9" y1="163.98" x2="355.67" y2="164.25"/><line class="cls-2" x1="355.67" y1="164.25" x2="355.48" y2="164.47"/><line class="cls-2" x1="355.48" y1="164.47" x2="355.33" y2="164.78"/><line class="cls-2" x1="355.33" y1="164.78" x2="355.18" y2="165.08"/><line class="cls-2" x1="355.18" y1="165.08" x2="355.07" y2="165.38"/><line class="cls-2" x1="355.07" y1="165.38" x2="354.99" y2="165.68"/><line class="cls-2" x1="354.99" y1="165.68" x2="354.95" y2="165.98"/><line class="cls-2" x1="354.95" y1="165.98" x2="354.95" y2="166.32"/><line class="cls-2" x1="354.95" y1="166.32" x2="354.95" y2="166.66"/><line class="cls-2" x1="354.95" y1="166.66" x2="355.03" y2="166.97"/><line class="cls-2" x1="355.03" y1="166.97" x2="355.1" y2="167.27"/><line class="cls-2" x1="355.1" y1="167.27" x2="355.22" y2="167.57"/><line class="cls-2" x1="355.22" y1="167.57" x2="355.37" y2="167.87"/><line class="cls-2" x1="355.37" y1="167.87" x2="355.52" y2="168.14"/><line class="cls-2" x1="355.52" y1="168.14" x2="355.71" y2="168.4"/><line class="cls-2" x1="355.71" y1="168.4" x2="355.94" y2="168.63"/><line class="cls-2" x1="355.94" y1="168.63" x2="356.16" y2="168.86"/><polygon class="cls-3" points="356.2 168.82 356.2 163.72 355.94 163.98 355.63 164.28 355.41 164.62 355.22 165.04 355.07 165.42 354.99 165.83 354.95 166.29 354.99 166.7 355.07 167.12 355.22 167.53 355.41 167.91 355.63 168.25 355.94 168.59 356.2 168.82"/><polygon class="cls-3" points="363.19 168.82 356.2 168.82 356.28 168.9 356.88 169.31 357.56 169.65 358.24 169.88 358.96 170.03 359.71 170.07 360.43 170.03 361.15 169.88 361.83 169.65 362.51 169.31 363.12 168.9 363.19 168.82"/><polygon class="cls-3" points="363.19 163.72 363.19 168.82 363.46 168.59 363.76 168.25 363.99 167.91 364.18 167.53 364.33 167.12 364.4 166.7 364.44 166.29 364.4 165.83 364.33 165.42 364.18 165.04 363.99 164.62 363.76 164.28 363.46 163.98 363.19 163.72"/><polygon class="cls-3" points="356.2 163.72 363.19 163.72 363.12 163.64 362.51 163.26 361.83 162.92 361.15 162.7 360.43 162.54 359.71 162.51 358.96 162.54 358.24 162.7 357.56 162.92 356.88 163.26 356.28 163.64 356.2 163.72"/><rect class="cls-1" x="356.2" y="163.72" width="6.99" height="5.1"/><line class="cls-2" x1="356.2" y1="163.72" x2="355.97" y2="163.91"/><line class="cls-2" x1="355.97" y1="163.91" x2="355.75" y2="164.13"/><line class="cls-2" x1="355.75" y1="164.13" x2="355.56" y2="164.4"/><line class="cls-2" x1="355.56" y1="164.4" x2="355.41" y2="164.62"/><line class="cls-2" x1="355.41" y1="164.62" x2="355.26" y2="164.89"/><line class="cls-2" x1="355.26" y1="164.89" x2="355.14" y2="165.19"/><line class="cls-2" x1="355.14" y1="165.19" x2="355.07" y2="165.49"/><line class="cls-2" x1="355.07" y1="165.49" x2="354.99" y2="165.8"/><line class="cls-2" x1="354.99" y1="165.8" x2="354.95" y2="166.14"/><line class="cls-2" x1="354.95" y1="166.14" x2="354.99" y2="166.48"/><line class="cls-2" x1="354.99" y1="166.48" x2="354.99" y2="166.78"/><line class="cls-2" x1="354.99" y1="166.78" x2="355.07" y2="167.08"/><line class="cls-2" x1="355.07" y1="167.08" x2="355.18" y2="167.42"/><line class="cls-2" x1="355.18" y1="167.42" x2="355.29" y2="167.69"/><line class="cls-2" x1="355.29" y1="167.69" x2="355.41" y2="167.95"/><line class="cls-2" x1="355.41" y1="167.95" x2="355.6" y2="168.18"/><line class="cls-2" x1="355.6" y1="168.18" x2="355.78" y2="168.44"/><line class="cls-2" x1="355.78" y1="168.44" x2="355.97" y2="168.63"/><line class="cls-2" x1="355.97" y1="168.63" x2="356.2" y2="168.82"/><line class="cls-2" x1="356.2" y1="168.82" x2="356.54" y2="169.08"/><line class="cls-2" x1="356.54" y1="169.08" x2="356.88" y2="169.31"/><line class="cls-2" x1="356.88" y1="169.31" x2="357.22" y2="169.5"/><line class="cls-2" x1="357.22" y1="169.5" x2="357.75" y2="169.73"/><line class="cls-2" x1="357.75" y1="169.73" x2="358.28" y2="169.88"/><line class="cls-2" x1="358.28" y1="169.88" x2="358.85" y2="169.99"/><line class="cls-2" x1="358.85" y1="169.99" x2="359.41" y2="170.07"/><line class="cls-2" x1="359.41" y1="170.07" x2="359.98" y2="170.07"/><line class="cls-2" x1="359.98" y1="170.07" x2="360.55" y2="169.99"/><line class="cls-2" x1="360.55" y1="169.99" x2="361.08" y2="169.88"/><line class="cls-2" x1="361.08" y1="169.88" x2="361.64" y2="169.73"/><line class="cls-2" x1="361.64" y1="169.73" x2="362.06" y2="169.54"/><line class="cls-2" x1="362.06" y1="169.54" x2="362.44" y2="169.35"/><line class="cls-2" x1="362.44" y1="169.35" x2="362.85" y2="169.08"/><line class="cls-2" x1="362.85" y1="169.08" x2="363.19" y2="168.82"/><line class="cls-2" x1="363.19" y1="168.82" x2="363.46" y2="168.59"/><line class="cls-2" x1="363.46" y1="168.59" x2="363.68" y2="168.37"/><line class="cls-2" x1="363.68" y1="168.37" x2="363.87" y2="168.06"/><line class="cls-2" x1="363.87" y1="168.06" x2="364.06" y2="167.8"/><line class="cls-2" x1="364.06" y1="167.8" x2="364.18" y2="167.5"/><line class="cls-2" x1="364.18" y1="167.5" x2="364.29" y2="167.19"/><line class="cls-2" x1="364.29" y1="167.19" x2="364.36" y2="166.89"/><line class="cls-2" x1="364.36" y1="166.89" x2="364.4" y2="166.55"/><line class="cls-2" x1="364.4" y1="166.55" x2="364.44" y2="166.25"/><line class="cls-2" x1="364.44" y1="166.25" x2="364.4" y2="165.91"/><line class="cls-2" x1="364.4" y1="165.91" x2="364.36" y2="165.61"/><line class="cls-2" x1="364.36" y1="165.61" x2="364.29" y2="165.3"/><line class="cls-2" x1="364.29" y1="165.3" x2="364.18" y2="164.96"/><line class="cls-2" x1="364.18" y1="164.96" x2="364.02" y2="164.7"/><line class="cls-2" x1="364.02" y1="164.7" x2="363.84" y2="164.43"/><line class="cls-2" x1="363.84" y1="164.43" x2="363.65" y2="164.17"/><line class="cls-2" x1="363.65" y1="164.17" x2="363.42" y2="163.91"/><line class="cls-2" x1="363.42" y1="163.91" x2="363.19" y2="163.72"/><line class="cls-2" x1="363.19" y1="163.72" x2="362.85" y2="163.49"/><line class="cls-2" x1="362.85" y1="163.49" x2="362.51" y2="163.26"/><line class="cls-2" x1="362.51" y1="163.26" x2="362.13" y2="163.07"/><line class="cls-2" x1="362.13" y1="163.07" x2="361.64" y2="162.85"/><line class="cls-2" x1="361.64" y1="162.85" x2="361.08" y2="162.66"/><line class="cls-2" x1="361.08" y1="162.66" x2="360.55" y2="162.55"/><line class="cls-2" x1="360.55" y1="162.55" x2="359.98" y2="162.51"/><line class="cls-2" x1="359.98" y1="162.51" x2="359.41" y2="162.51"/><line class="cls-2" x1="359.41" y1="162.51" x2="358.85" y2="162.55"/><line class="cls-2" x1="358.85" y1="162.55" x2="358.28" y2="162.66"/><line class="cls-2" x1="358.28" y1="162.66" x2="357.75" y2="162.85"/><line class="cls-2" x1="357.75" y1="162.85" x2="357.33" y2="163.04"/><line class="cls-2" x1="357.33" y1="163.04" x2="356.92" y2="163.23"/><line class="cls-2" x1="356.92" y1="163.23" x2="356.54" y2="163.45"/><line class="cls-2" x1="356.54" y1="163.45" x2="356.2" y2="163.72"/><ellipse class="cls-2" cx="359.72" cy="165.81" rx="0.49" ry="0.47"/><path class="cls-2" d="M359.72,165.53a.28.28,0,0,0-.27.28.29.29,0,1,0,.28-.28Z"/><line class="cls-2" x1="356.77" y1="164.43" x2="356.58" y2="164.59"/><line class="cls-2" x1="356.58" y1="164.59" x2="356.43" y2="164.74"/><line class="cls-2" x1="356.43" y1="164.74" x2="356.31" y2="164.93"/><line class="cls-2" x1="356.31" y1="164.93" x2="356.16" y2="165.12"/><line class="cls-2" x1="356.16" y1="165.12" x2="356.09" y2="165.3"/><line class="cls-2" x1="356.09" y1="165.3" x2="355.97" y2="165.49"/><line class="cls-2" x1="355.97" y1="165.49" x2="355.94" y2="165.72"/><line class="cls-2" x1="355.94" y1="165.72" x2="355.9" y2="165.95"/><line class="cls-2" x1="355.9" y1="165.95" x2="355.86" y2="166.17"/><line class="cls-2" x1="355.86" y1="166.17" x2="355.86" y2="166.4"/><line class="cls-2" x1="355.86" y1="166.4" x2="355.9" y2="166.63"/><line class="cls-2" x1="355.9" y1="166.63" x2="355.94" y2="166.85"/><line class="cls-2" x1="355.94" y1="166.85" x2="356.01" y2="167.08"/><line class="cls-2" x1="356.01" y1="167.08" x2="356.09" y2="167.27"/><line class="cls-2" x1="356.09" y1="167.27" x2="356.2" y2="167.5"/><line class="cls-2" x1="356.2" y1="167.5" x2="356.31" y2="167.65"/><line class="cls-2" x1="356.31" y1="167.65" x2="356.43" y2="167.84"/><line class="cls-2" x1="356.43" y1="167.84" x2="356.58" y2="167.99"/><line class="cls-2" x1="356.58" y1="167.99" x2="356.77" y2="168.14"/><line class="cls-2" x1="356.77" y1="168.14" x2="357.03" y2="168.33"/><line class="cls-2" x1="357.03" y1="168.33" x2="357.3" y2="168.52"/><line class="cls-2" x1="357.3" y1="168.52" x2="357.71" y2="168.71"/><line class="cls-2" x1="357.71" y1="168.71" x2="358.13" y2="168.9"/><line class="cls-2" x1="358.13" y1="168.9" x2="358.54" y2="169.01"/><line class="cls-2" x1="358.54" y1="169.01" x2="359" y2="169.12"/><line class="cls-2" x1="359" y1="169.12" x2="359.45" y2="169.16"/><line class="cls-2" x1="359.45" y1="169.16" x2="359.9" y2="169.16"/><line class="cls-2" x1="359.9" y1="169.16" x2="360.36" y2="169.12"/><line class="cls-2" x1="360.36" y1="169.12" x2="360.81" y2="169.05"/><line class="cls-2" x1="360.81" y1="169.05" x2="361.23" y2="168.9"/><line class="cls-2" x1="361.23" y1="168.9" x2="361.64" y2="168.74"/><line class="cls-2" x1="361.64" y1="168.74" x2="361.98" y2="168.55"/><line class="cls-2" x1="361.98" y1="168.55" x2="362.32" y2="168.37"/><line class="cls-2" x1="362.32" y1="168.37" x2="362.63" y2="168.14"/><line class="cls-2" x1="362.63" y1="168.14" x2="362.78" y2="168.03"/><line class="cls-2" x1="362.78" y1="168.03" x2="362.89" y2="167.91"/><line class="cls-2" x1="362.89" y1="167.91" x2="363.04" y2="167.76"/><line class="cls-2" x1="363.04" y1="167.76" x2="363.15" y2="167.57"/><line class="cls-2" x1="363.15" y1="167.57" x2="363.27" y2="167.35"/><line class="cls-2" x1="363.27" y1="167.35" x2="363.34" y2="167.16"/><line class="cls-2" x1="363.34" y1="167.16" x2="363.42" y2="166.93"/><line class="cls-2" x1="363.42" y1="166.93" x2="363.5" y2="166.7"/><line class="cls-2" x1="363.5" y1="166.7" x2="363.53" y2="166.51"/><line class="cls-2" x1="363.53" y1="166.51" x2="363.53" y2="166.29"/><line class="cls-2" x1="363.53" y1="166.29" x2="363.53" y2="166.06"/><line class="cls-2" x1="363.53" y1="166.06" x2="363.5" y2="165.83"/><line class="cls-2" x1="363.5" y1="165.83" x2="363.42" y2="165.57"/><line class="cls-2" x1="363.42" y1="165.57" x2="363.34" y2="165.38"/><line class="cls-2" x1="363.34" y1="165.38" x2="363.23" y2="165.15"/><line class="cls-2" x1="363.23" y1="165.15" x2="363.12" y2="164.96"/><line class="cls-2" x1="363.12" y1="164.96" x2="362.97" y2="164.74"/><line class="cls-2" x1="362.97" y1="164.74" x2="362.81" y2="164.59"/><line class="cls-2" x1="362.81" y1="164.59" x2="362.63" y2="164.43"/><line class="cls-2" x1="362.63" y1="164.43" x2="362.36" y2="164.21"/><line class="cls-2" x1="362.36" y1="164.21" x2="362.06" y2="164.02"/><line class="cls-2" x1="362.06" y1="164.02" x2="361.68" y2="163.83"/><line class="cls-2" x1="361.68" y1="163.83" x2="361.27" y2="163.64"/><line class="cls-2" x1="361.27" y1="163.64" x2="360.81" y2="163.53"/><line class="cls-2" x1="360.81" y1="163.53" x2="360.36" y2="163.45"/><line class="cls-2" x1="360.36" y1="163.45" x2="359.94" y2="163.41"/><line class="cls-2" x1="359.94" y1="163.41" x2="359.49" y2="163.41"/><line class="cls-2" x1="359.49" y1="163.41" x2="359.03" y2="163.45"/><line class="cls-2" x1="359.03" y1="163.45" x2="358.58" y2="163.53"/><line class="cls-2" x1="358.58" y1="163.53" x2="358.13" y2="163.64"/><line class="cls-2" x1="358.13" y1="163.64" x2="357.71" y2="163.83"/><line class="cls-2" x1="357.71" y1="163.83" x2="357.37" y2="163.98"/><line class="cls-2" x1="357.37" y1="163.98" x2="357.07" y2="164.21"/><line class="cls-2" x1="357.07" y1="164.21" x2="356.77" y2="164.43"/><path class="cls-2" d="M358.62,162.66a.38.38,0,1,0,0,.75A.37.37,0,0,0,359,163a.38.38,0,0,0-.39-.38Z"/><line class="cls-2" x1="359.38" y1="162.73" x2="359.38" y2="164.93"/><line class="cls-2" x1="359.38" y1="164.93" x2="360.06" y2="164.93"/><line class="cls-2" x1="360.06" y1="164.93" x2="360.06" y2="162.73"/><line class="cls-2" x1="360.06" y1="162.73" x2="359.38" y2="162.73"/><path class="cls-2" d="M360.74,162.66a.4.4,0,0,0,0,.79.4.4,0,0,0,0-.79Z"/><polygon class="cls-3" points="347.85 162.62 348.07 162.39 348.07 162.43 348.07 162.47 348.04 162.51 348.04 162.54 348 162.54 348 162.58 347.96 162.58 347.92 162.62 347.88 162.62 347.85 162.62"/><polygon class="cls-3" points="342.93 162.39 343.2 162.62 343.16 162.62 343.12 162.62 343.08 162.62 343.05 162.58 343.01 162.54 342.97 162.51 342.97 162.47 342.93 162.43 342.93 162.39"/><polygon class="cls-3" points="342.93 162.09 348.07 162.09 348.07 162.39 347.85 162.62 343.2 162.62 342.93 162.39 342.93 162.09"/><line class="cls-2" x1="348.07" y1="162.09" x2="348.07" y2="162.39"/><line class="cls-2" x1="348.07" y1="162.39" x2="348.07" y2="162.43"/><line class="cls-2" x1="348.07" y1="162.43" x2="348.07" y2="162.47"/><line class="cls-2" x1="348.07" y1="162.47" x2="348.04" y2="162.51"/><line class="cls-2" x1="348.04" y1="162.51" x2="348.04" y2="162.55"/><line class="cls-2" x1="348.04" y1="162.55" x2="348" y2="162.55"/><line class="cls-2" x1="348" y1="162.55" x2="348" y2="162.58"/><line class="cls-2" x1="348" y1="162.58" x2="347.96" y2="162.58"/><line class="cls-2" x1="347.96" y1="162.58" x2="347.96" y2="162.62"/><line class="cls-2" x1="347.96" y1="162.62" x2="347.92" y2="162.62"/><line class="cls-2" x1="347.92" y1="162.62" x2="347.88" y2="162.62"/><line class="cls-2" x1="347.88" y1="162.62" x2="347.85" y2="162.62"/><line class="cls-2" x1="347.85" y1="162.62" x2="343.2" y2="162.62"/><line class="cls-2" x1="343.2" y1="162.62" x2="343.16" y2="162.62"/><line class="cls-2" x1="343.16" y1="162.62" x2="343.12" y2="162.62"/><line class="cls-2" x1="343.12" y1="162.62" x2="343.08" y2="162.62"/><line class="cls-2" x1="343.08" y1="162.62" x2="343.05" y2="162.58"/><line class="cls-2" x1="343.05" y1="162.58" x2="343.01" y2="162.55"/><line class="cls-2" x1="343.01" y1="162.55" x2="342.97" y2="162.51"/><line class="cls-2" x1="342.97" y1="162.51" x2="342.97" y2="162.47"/><line class="cls-2" x1="342.97" y1="162.47" x2="342.93" y2="162.43"/><line class="cls-2" x1="342.93" y1="162.43" x2="342.93" y2="162.39"/><line class="cls-2" x1="342.93" y1="162.39" x2="342.93" y2="162.09"/><line class="cls-2" x1="342.93" y1="162.09" x2="348.07" y2="162.09"/><line class="cls-2" x1="350.04" y1="162.77" x2="341.01" y2="162.77"/><line class="cls-2" x1="341.01" y1="162.77" x2="341.01" y2="167.53"/><line class="cls-2" x1="341.01" y1="167.53" x2="341.46" y2="167.99"/><line class="cls-2" x1="341.46" y1="167.99" x2="349.55" y2="167.99"/><line class="cls-2" x1="349.55" y1="167.99" x2="350.04" y2="167.5"/><line class="cls-2" x1="350.04" y1="167.5" x2="350.04" y2="162.77"/><line class="cls-2" x1="350.04" y1="162.77" x2="350.04" y2="162.73"/><line class="cls-2" x1="350.04" y1="162.73" x2="350.04" y2="167.5"/><line class="cls-2" x1="350.04" y1="167.5" x2="349.59" y2="167.99"/><line class="cls-2" x1="349.59" y1="167.99" x2="341.46" y2="167.99"/><line class="cls-2" x1="341.46" y1="167.99" x2="340.97" y2="167.5"/><line class="cls-2" x1="340.97" y1="167.5" x2="340.97" y2="162.73"/><line class="cls-2" x1="340.97" y1="162.73" x2="350.04" y2="162.73"/><line class="cls-2" x1="340.97" y1="162.73" x2="341.01" y2="162.77"/><line class="cls-2" x1="342.37" y1="167.99" x2="342.37" y2="168.29"/><line class="cls-2" x1="342.37" y1="168.29" x2="341.23" y2="168.29"/><line class="cls-2" x1="341.23" y1="168.29" x2="341.23" y2="167.84"/><line class="cls-2" x1="341.23" y1="167.84" x2="341.31" y2="167.84"/><line class="cls-2" x1="348.87" y1="168.44" x2="348.83" y2="167.99"/><line class="cls-2" x1="348.83" y1="167.99" x2="349.02" y2="168.9"/><line class="cls-2" x1="349.02" y1="168.9" x2="348.91" y2="170.56"/><line class="cls-2" x1="348.91" y1="170.56" x2="348.87" y2="168.44"/><line class="cls-2" x1="342.55" y1="174.19" x2="342.52" y2="174.04"/><line class="cls-2" x1="342.52" y1="174.04" x2="342.33" y2="173.13"/><line class="cls-2" x1="342.71" y1="174.56" x2="342.82" y2="174.94"/><line class="cls-2" x1="342.82" y1="174.94" x2="343.2" y2="175.81"/><line class="cls-2" x1="343.2" y1="175.81" x2="343.58" y2="176.49"/><line class="cls-2" x1="343.58" y1="176.49" x2="343.65" y2="176.57"/><line class="cls-2" x1="343.65" y1="176.57" x2="343.69" y2="176.61"/><line class="cls-2" x1="347.32" y1="176.64" x2="347.32" y2="176.61"/><line class="cls-2" x1="348.34" y1="174.56" x2="348.22" y2="174.94"/><line class="cls-2" x1="348.22" y1="174.94" x2="347.85" y2="175.81"/><line class="cls-2" x1="347.85" y1="175.81" x2="347.81" y2="175.89"/><line class="cls-2" x1="347.81" y1="175.89" x2="347.77" y2="175.96"/><line class="cls-2" x1="347.77" y1="175.96" x2="347.66" y2="176.15"/><line class="cls-2" x1="347.66" y1="176.15" x2="347.43" y2="176.49"/><line class="cls-2" x1="347.43" y1="176.49" x2="347.32" y2="176.61"/><line class="cls-2" x1="348.72" y1="173.13" x2="348.49" y2="174.04"/><line class="cls-2" x1="348.49" y1="174.04" x2="348.45" y2="174.19"/><line class="cls-2" x1="342.14" y1="168.44" x2="342.1" y2="170.56"/><line class="cls-2" x1="342.1" y1="170.56" x2="342.14" y2="168.44"/><line class="cls-2" x1="342.14" y1="168.44" x2="342.18" y2="168.29"/><line class="cls-2" x1="343.73" y1="176.64" x2="343.69" y2="176.61"/><line class="cls-2" x1="343.69" y1="176.61" x2="343.73" y2="176.64"/><line class="cls-2" x1="348.91" y1="172.33" x2="348.83" y2="173.13"/><line class="cls-2" x1="348.83" y1="173.13" x2="348.64" y2="174.07"/><line class="cls-2" x1="348.64" y1="174.07" x2="348.34" y2="174.98"/><line class="cls-2" x1="348.34" y1="174.98" x2="347.96" y2="175.85"/><line class="cls-2" x1="347.96" y1="175.85" x2="347.54" y2="176.57"/><line class="cls-2" x1="347.54" y1="176.57" x2="347.47" y2="176.64"/><line class="cls-2" x1="347.47" y1="176.64" x2="347.43" y2="176.68"/><line class="cls-2" x1="347.43" y1="176.68" x2="347.43" y2="176.72"/><line class="cls-2" x1="347.43" y1="176.72" x2="347.39" y2="176.72"/><line class="cls-2" x1="347.39" y1="176.72" x2="346.52" y2="177.29"/><line class="cls-2" x1="346.52" y1="177.29" x2="345.5" y2="177.51"/><line class="cls-2" x1="345.5" y1="177.51" x2="344.48" y2="177.29"/><line class="cls-2" x1="344.48" y1="177.29" x2="343.61" y2="176.72"/><line class="cls-2" x1="343.61" y1="176.72" x2="343.5" y2="176.57"/><line class="cls-2" x1="343.5" y1="176.57" x2="343.24" y2="176.23"/><line class="cls-2" x1="343.24" y1="176.23" x2="343.16" y2="176.04"/><line class="cls-2" x1="343.16" y1="176.04" x2="343.12" y2="175.96"/><line class="cls-2" x1="343.12" y1="175.96" x2="343.08" y2="175.85"/><line class="cls-2" x1="343.08" y1="175.85" x2="342.71" y2="174.98"/><line class="cls-2" x1="342.71" y1="174.98" x2="342.4" y2="174.07"/><line class="cls-2" x1="342.4" y1="174.07" x2="342.21" y2="173.13"/><line class="cls-2" x1="342.21" y1="173.13" x2="342.14" y2="172.33"/><line class="cls-2" x1="348.91" y1="170.56" x2="348.41" y2="169.39"/><line class="cls-2" x1="348.41" y1="169.39" x2="347.54" y2="168.4"/><line class="cls-2" x1="347.54" y1="168.4" x2="343.46" y2="168.4"/><line class="cls-2" x1="343.46" y1="168.4" x2="342.63" y2="169.39"/><line class="cls-2" x1="342.63" y1="169.39" x2="342.1" y2="170.56"/><line class="cls-2" x1="342.03" y1="171.43" x2="341.99" y2="170.78"/><line class="cls-2" x1="341.99" y1="170.78" x2="342.03" y2="168.4"/><line class="cls-2" x1="342.03" y1="168.4" x2="342.03" y2="168.29"/><line class="cls-2" x1="344.63" y1="162.66" x2="343.2" y2="162.66"/><line class="cls-2" x1="343.2" y1="162.66" x2="343.05" y2="162.62"/><line class="cls-2" x1="343.05" y1="162.62" x2="342.97" y2="162.51"/><line class="cls-2" x1="342.97" y1="162.51" x2="342.93" y2="162.39"/><line class="cls-2" x1="342.93" y1="162.39" x2="342.93" y2="162.09"/><line class="cls-2" x1="342.93" y1="162.09" x2="348.07" y2="162.09"/><line class="cls-2" x1="348.07" y1="162.09" x2="348.07" y2="162.39"/><line class="cls-2" x1="348.07" y1="162.39" x2="348.04" y2="162.51"/><line class="cls-2" x1="348.04" y1="162.51" x2="347.96" y2="162.62"/><line class="cls-2" x1="347.96" y1="162.62" x2="347.85" y2="162.66"/><line class="cls-2" x1="347.85" y1="162.66" x2="346.52" y2="162.66"/><line class="cls-2" x1="344.63" y1="162.73" x2="344.63" y2="162.62"/><line class="cls-2" x1="344.63" y1="162.62" x2="346.52" y2="162.62"/><line class="cls-2" x1="346.52" y1="162.62" x2="346.52" y2="162.73"/><line class="cls-2" x1="344.22" y1="162.73" x2="344.26" y2="162.66"/><line class="cls-2" x1="344.26" y1="162.66" x2="344.33" y2="162.66"/><line class="cls-2" x1="346.83" y1="162.66" x2="346.9" y2="162.66"/><line class="cls-2" x1="346.9" y1="162.66" x2="346.98" y2="162.73"/><line class="cls-2" x1="344.07" y1="162.73" x2="344.07" y2="162.66"/><line class="cls-2" x1="347.13" y1="162.66" x2="347.13" y2="162.73"/><rect class="cls-1" x="342.06" y="167.99" width="6.99" height="2.91"/><line class="cls-2" x1="349.06" y1="167.99" x2="349.06" y2="170.9"/><line class="cls-2" x1="349.06" y1="170.9" x2="342.06" y2="170.9"/><line class="cls-2" x1="342.06" y1="170.9" x2="342.06" y2="167.99"/><line class="cls-2" x1="342.06" y1="167.99" x2="349.06" y2="167.99"/><rect class="cls-1" x="341.23" y="167.84" width="1.13" height="0.49"/><line class="cls-2" x1="342.37" y1="167.84" x2="342.37" y2="168.33"/><line class="cls-2" x1="342.37" y1="168.33" x2="341.23" y2="168.33"/><line class="cls-2" x1="341.23" y1="168.33" x2="341.23" y2="167.84"/><line class="cls-2" x1="341.23" y1="167.84" x2="342.37" y2="167.84"/><polygon class="cls-3" points="341 162.73 350.04 162.73 350.04 167.5 349.55 167.99 341.46 167.99 341 167.5 341 162.73"/><line class="cls-2" x1="350.04" y1="162.73" x2="350.04" y2="167.5"/><line class="cls-2" x1="350.04" y1="167.5" x2="349.55" y2="167.99"/><line class="cls-2" x1="349.55" y1="167.99" x2="341.46" y2="167.99"/><line class="cls-2" x1="341.46" y1="167.99" x2="341.01" y2="167.5"/><line class="cls-2" x1="341.01" y1="167.5" x2="341.01" y2="162.73"/><line class="cls-2" x1="341.01" y1="162.73" x2="350.04" y2="162.73"/><line class="cls-2" x1="342.37" y1="168.29" x2="342.4" y2="167.99"/><line class="cls-2" x1="342.4" y1="167.99" x2="348.94" y2="167.99"/><line class="cls-2" x1="348.94" y1="167.99" x2="349.02" y2="168.4"/><line class="cls-2" x1="349.02" y1="168.4" x2="349.06" y2="170.78"/><line class="cls-2" x1="349.06" y1="170.78" x2="348.98" y2="171.43"/><polygon class="cls-3" points="342.33 173.13 343.08 175.51 342.59 174.34 342.33 173.13"/><polygon class="cls-3" points="343.08 175.51 342.33 173.13 342.03 171.88 342.1 170.56 342.63 169.39 343.46 168.4 347.54 168.4 348.41 169.39 348.9 170.56 349.02 171.88 348.72 173.13 347.96 175.51 347.32 176.61 346.83 177.1 346.18 177.36 345.5 177.36 344.82 177.36 344.18 177.1 343.69 176.61 343.08 175.51"/><polygon class="cls-3" points="344.82 177.36 345.5 177.36 345.43 177.36 345.39 177.4 345.24 177.4 344.97 177.36 344.82 177.36"/><polygon class="cls-3" points="347.96 175.51 348.72 173.13 348.41 174.34 347.96 175.51"/><line class="cls-2" x1="344.18" y1="177.1" x2="343.69" y2="176.61"/><line class="cls-2" x1="343.69" y1="176.61" x2="343.08" y2="175.51"/><line class="cls-2" x1="343.08" y1="175.51" x2="342.59" y2="174.34"/><line class="cls-2" x1="342.59" y1="174.34" x2="342.33" y2="173.13"/><line class="cls-2" x1="342.33" y1="173.13" x2="342.03" y2="171.88"/><line class="cls-2" x1="342.03" y1="171.88" x2="342.1" y2="170.56"/><line class="cls-2" x1="342.1" y1="170.56" x2="342.63" y2="169.39"/><line class="cls-2" x1="342.63" y1="169.39" x2="343.46" y2="168.4"/><line class="cls-2" x1="343.46" y1="168.4" x2="347.54" y2="168.4"/><line class="cls-2" x1="347.54" y1="168.4" x2="348.41" y2="169.39"/><line class="cls-2" x1="348.41" y1="169.39" x2="348.91" y2="170.56"/><line class="cls-2" x1="348.91" y1="170.56" x2="349.02" y2="171.88"/><line class="cls-2" x1="349.02" y1="171.88" x2="348.72" y2="173.13"/><line class="cls-2" x1="348.72" y1="173.13" x2="348.41" y2="174.34"/><line class="cls-2" x1="348.41" y1="174.34" x2="347.96" y2="175.51"/><line class="cls-2" x1="347.96" y1="175.51" x2="347.32" y2="176.61"/><line class="cls-2" x1="347.32" y1="176.61" x2="346.83" y2="177.1"/><line class="cls-2" x1="346.83" y1="177.1" x2="346.18" y2="177.36"/><line class="cls-2" x1="346.18" y1="177.36" x2="345.5" y2="177.36"/><line class="cls-2" x1="345.5" y1="177.36" x2="345.43" y2="177.36"/><line class="cls-2" x1="345.43" y1="177.36" x2="345.39" y2="177.4"/><line class="cls-2" x1="345.39" y1="177.4" x2="345.24" y2="177.4"/><line class="cls-2" x1="345.24" y1="177.4" x2="344.97" y2="177.36"/><line class="cls-2" x1="344.97" y1="177.36" x2="344.82" y2="177.36"/><line class="cls-2" x1="344.82" y1="177.36" x2="344.18" y2="177.1"/><line class="cls-2" x1="320.25" y1="161.94" x2="320.25" y2="189.95"/><line class="cls-2" x1="320.25" y1="189.95" x2="335.37" y2="189.95"/><rect class="cls-4" x="296.14" y="190.18" width="1.55" height="1.66"/><rect class="cls-4" x="311.6" y="190.18" width="37.34" height="1.66"/><rect class="cls-4" x="365.73" y="190.18" width="1.51" height="1.66"/><rect class="cls-4" x="318.36" y="161.83" width="1.63" height="28.35"/><rect class="cls-4" x="336.05" y="161.83" width="1.66" height="7.56"/><line class="cls-2" x1="297.69" y1="189.95" x2="296.37" y2="189.95"/><line class="cls-2" x1="318.1" y1="189.95" x2="311.6" y2="189.95"/><line class="cls-2" x1="348.94" y1="189.95" x2="320.25" y2="189.95"/><line class="cls-2" x1="367.01" y1="189.95" x2="365.73" y2="189.95"/><line class="cls-2" x1="297.69" y1="189.95" x2="297.69" y2="192.07"/><line class="cls-2" x1="311.6" y1="189.95" x2="311.6" y2="192.07"/><line class="cls-2" x1="348.94" y1="189.95" x2="348.94" y2="192.07"/><line class="cls-2" x1="365.73" y1="189.95" x2="365.73" y2="192.07"/><line class="cls-2" x1="297.69" y1="190.18" x2="296.14" y2="190.18"/><line class="cls-2" x1="348.94" y1="190.18" x2="319.99" y2="190.18"/><line class="cls-2" x1="318.36" y1="190.18" x2="311.6" y2="190.18"/><line class="cls-2" x1="367.24" y1="190.18" x2="365.73" y2="190.18"/><line class="cls-2" x1="297.69" y1="190.18" x2="297.69" y2="191.84"/><line class="cls-2" x1="311.6" y1="190.18" x2="311.6" y2="191.84"/><line class="cls-2" x1="348.94" y1="190.18" x2="348.94" y2="191.84"/><line class="cls-2" x1="365.73" y1="190.18" x2="365.73" y2="191.84"/><line class="cls-2" x1="296.14" y1="191.84" x2="297.69" y2="191.84"/><line class="cls-2" x1="311.6" y1="191.84" x2="348.94" y2="191.84"/><line class="cls-2" x1="365.73" y1="191.84" x2="367.24" y2="191.84"/><line class="cls-2" x1="296.37" y1="192.07" x2="297.69" y2="192.07"/><line class="cls-2" x1="311.6" y1="192.07" x2="348.94" y2="192.07"/><line class="cls-2" x1="365.73" y1="192.07" x2="367.01" y2="192.07"/><line class="cls-2" x1="311.6" y1="189.95" x2="311.26" y2="189.95"/><line class="cls-2" x1="311.6" y1="192.07" x2="311.26" y2="192.07"/><line class="cls-2" x1="311.6" y1="189.95" x2="311.6" y2="192.07"/><line class="cls-2" x1="311.26" y1="189.95" x2="311.26" y2="192.07"/><line class="cls-2" x1="298.03" y1="189.95" x2="297.69" y2="189.95"/><line class="cls-2" x1="298.03" y1="192.07" x2="297.69" y2="192.07"/><line class="cls-2" x1="298.03" y1="189.95" x2="298.03" y2="192.07"/><line class="cls-2" x1="297.69" y1="189.95" x2="297.69" y2="192.07"/><line class="cls-2" x1="298.03" y1="189.95" x2="298.03" y2="176.72"/><line class="cls-2" x1="298.67" y1="189.95" x2="298.67" y2="176.72"/><line class="cls-2" x1="298.03" y1="176.72" x2="298.67" y2="176.72"/><line class="cls-2" x1="298.67" y1="189.95" x2="298.03" y2="189.95"/><line class="cls-2" x1="311.26" y1="189.95" x2="311.22" y2="189.12"/><line class="cls-2" x1="311.22" y1="189.12" x2="311.14" y2="188.25"/><line class="cls-2" x1="311.14" y1="188.25" x2="310.96" y2="187.15"/><line class="cls-2" x1="310.96" y1="187.15" x2="310.65" y2="186.06"/><line class="cls-2" x1="310.65" y1="186.06" x2="310.28" y2="185"/><line class="cls-2" x1="310.28" y1="185" x2="309.82" y2="183.94"/><line class="cls-2" x1="309.82" y1="183.94" x2="309.25" y2="182.96"/><line class="cls-2" x1="309.25" y1="182.96" x2="308.61" y2="182.01"/><line class="cls-2" x1="308.61" y1="182.01" x2="307.89" y2="181.14"/><line class="cls-2" x1="307.89" y1="181.14" x2="307.1" y2="180.35"/><line class="cls-2" x1="307.1" y1="180.35" x2="306.27" y2="179.59"/><line class="cls-2" x1="306.27" y1="179.59" x2="305.32" y2="178.91"/><line class="cls-2" x1="305.32" y1="178.91" x2="304.38" y2="178.34"/><line class="cls-2" x1="304.38" y1="178.34" x2="303.36" y2="177.85"/><line class="cls-2" x1="303.36" y1="177.85" x2="302.3" y2="177.44"/><line class="cls-2" x1="302.3" y1="177.44" x2="301.2" y2="177.1"/><line class="cls-2" x1="301.2" y1="177.1" x2="300.11" y2="176.87"/><line class="cls-2" x1="300.11" y1="176.87" x2="298.97" y2="176.76"/><line class="cls-2" x1="298.97" y1="176.76" x2="298.03" y2="176.72"/><line class="cls-2" x1="311.37" y1="189.95" x2="311.37" y2="189.65"/><line class="cls-2" x1="311.37" y1="189.65" x2="312.92" y2="189.65"/><line class="cls-2" x1="312.92" y1="189.95" x2="312.92" y2="189.65"/><line class="cls-2" x1="297.92" y1="189.95" x2="297.92" y2="189.65"/><line class="cls-2" x1="296.37" y1="189.65" x2="297.92" y2="189.65"/><line class="cls-2" x1="297.92" y1="192.07" x2="297.92" y2="192.37"/><line class="cls-2" x1="296.37" y1="192.37" x2="297.92" y2="192.37"/><line class="cls-2" x1="311.37" y1="192.07" x2="311.37" y2="192.37"/><line class="cls-2" x1="311.37" y1="192.37" x2="312.92" y2="192.37"/><line class="cls-2" x1="312.92" y1="192.07" x2="312.92" y2="192.37"/><line class="cls-2" x1="365.73" y1="189.95" x2="365.35" y2="189.95"/><line class="cls-2" x1="365.73" y1="192.07" x2="365.35" y2="192.07"/><line class="cls-2" x1="365.73" y1="189.95" x2="365.73" y2="192.07"/><line class="cls-2" x1="365.35" y1="189.95" x2="365.35" y2="192.07"/><line class="cls-2" x1="349.28" y1="189.95" x2="348.94" y2="189.95"/><line class="cls-2" x1="349.28" y1="192.07" x2="348.94" y2="192.07"/><line class="cls-2" x1="349.28" y1="189.95" x2="349.28" y2="192.07"/><line class="cls-2" x1="348.94" y1="189.95" x2="348.94" y2="192.07"/><line class="cls-2" x1="365.35" y1="192.07" x2="365.35" y2="208.13"/><line class="cls-2" x1="364.7" y1="192.07" x2="364.7" y2="208.13"/><line class="cls-2" x1="365.35" y1="208.13" x2="364.7" y2="208.13"/><line class="cls-2" x1="364.7" y1="192.07" x2="365.35" y2="192.07"/><line class="cls-2" x1="349.28" y1="192.07" x2="349.32" y2="193.12"/><line class="cls-2" x1="349.32" y1="193.12" x2="349.43" y2="194.18"/><line class="cls-2" x1="349.43" y1="194.18" x2="349.62" y2="195.28"/><line class="cls-2" x1="349.62" y1="195.28" x2="349.89" y2="196.41"/><line class="cls-2" x1="349.89" y1="196.41" x2="350.23" y2="197.47"/><line class="cls-2" x1="350.23" y1="197.47" x2="350.64" y2="198.53"/><line class="cls-2" x1="350.64" y1="198.53" x2="351.14" y2="199.55"/><line class="cls-2" x1="351.14" y1="199.55" x2="351.7" y2="200.53"/><line class="cls-2" x1="351.7" y1="200.53" x2="352.34" y2="201.48"/><line class="cls-2" x1="352.34" y1="201.48" x2="353.03" y2="202.38"/><line class="cls-2" x1="353.03" y1="202.38" x2="353.78" y2="203.22"/><line class="cls-2" x1="353.78" y1="203.22" x2="354.61" y2="204.01"/><line class="cls-2" x1="354.61" y1="204.01" x2="355.48" y2="204.73"/><line class="cls-2" x1="355.48" y1="204.73" x2="356.39" y2="205.41"/><line class="cls-2" x1="356.39" y1="205.41" x2="357.33" y2="206.01"/><line class="cls-2" x1="357.33" y1="206.01" x2="358.35" y2="206.54"/><line class="cls-2" x1="358.35" y1="206.54" x2="359.38" y2="207"/><line class="cls-2" x1="359.38" y1="207" x2="360.43" y2="207.37"/><line class="cls-2" x1="360.43" y1="207.37" x2="361.53" y2="207.68"/><line class="cls-2" x1="361.53" y1="207.68" x2="362.66" y2="207.9"/><line class="cls-2" x1="362.66" y1="207.9" x2="363.76" y2="208.05"/><line class="cls-2" x1="363.76" y1="208.05" x2="364.89" y2="208.13"/><line class="cls-2" x1="364.89" y1="208.13" x2="365.35" y2="208.13"/><line class="cls-2" x1="365.46" y1="189.95" x2="365.46" y2="189.65"/><line class="cls-2" x1="365.46" y1="189.65" x2="367.01" y2="189.65"/><line class="cls-2" x1="349.17" y1="189.95" x2="349.17" y2="189.65"/><line class="cls-2" x1="347.66" y1="189.65" x2="349.17" y2="189.65"/><line class="cls-2" x1="347.66" y1="189.95" x2="347.66" y2="189.65"/><line class="cls-2" x1="349.17" y1="192.07" x2="349.17" y2="192.37"/><line class="cls-2" x1="347.66" y1="192.37" x2="349.17" y2="192.37"/><line class="cls-2" x1="347.66" y1="192.07" x2="347.66" y2="192.37"/><line class="cls-2" x1="365.46" y1="192.07" x2="365.46" y2="192.37"/><line class="cls-2" x1="365.46" y1="192.37" x2="367.01" y2="192.37"/><line class="cls-2" x1="318.1" y1="162.09" x2="318.1" y2="189.95"/><line class="cls-2" x1="318.36" y1="161.83" x2="318.36" y2="190.18"/><line class="cls-2" x1="319.99" y1="190.18" x2="319.99" y2="161.83"/><line class="cls-2" x1="320.25" y1="189.95" x2="320.25" y2="162.09"/><line class="cls-2" x1="337.94" y1="169.39" x2="337.94" y2="162.09"/><line class="cls-2" x1="335.83" y1="169.39" x2="335.83" y2="169.65"/><line class="cls-2" x1="335.83" y1="169.65" x2="337.94" y2="169.65"/><line class="cls-2" x1="337.94" y1="169.65" x2="337.94" y2="169.39"/><line class="cls-2" x1="337.72" y1="169.39" x2="337.72" y2="161.83"/><line class="cls-2" x1="336.05" y1="169.39" x2="337.72" y2="169.39"/><line class="cls-2" x1="336.05" y1="161.83" x2="336.05" y2="169.39"/><line class="cls-2" x1="335.83" y1="162.09" x2="335.83" y2="169.39"/><line class="cls-2" x1="312.43" y1="167.76" x2="318.1" y2="167.76"/><line class="cls-2" x1="318.1" y1="167.76" x2="318.1" y2="189.95"/><line class="cls-2" x1="318.1" y1="189.95" x2="312.43" y2="189.95"/><line class="cls-2" x1="312.43" y1="189.95" x2="312.43" y2="167.76"/><line class="cls-2" x1="318.1" y1="162.09" x2="318.1" y2="167.76"/><line class="cls-2" x1="318.1" y1="167.76" x2="296.37" y2="167.76"/><text class="cls-5" transform="translate(303.96 180.69)"> </text><text class="cls-6" transform="translate(344.29 183.94)">BATH</text><text class="cls-6" transform="translate(330.38 190.22) rotate(-90)">SHOWER</text><text class="cls-6" transform="translate(307.4 189) rotate(-90)">CLOSET</text><rect class="cls-1" x="337.6" y="169.41" width="0.27" height="20.66"/><line class="cls-2" x1="337.87" y1="190.06" x2="337.87" y2="169.41"/><line class="cls-2" x1="337.6" y1="169.41" x2="337.6" y2="190.06"/><text class="cls-6" transform="translate(313.88 225.77)"><tspan class="cls-7">12</tspan><tspan class="cls-8" x="7.75" y="0">&apos;</tspan><tspan class="cls-9" x="9.09" y="0">-</tspan><tspan class="cls-10" x="11.4" y="0">6</tspan><tspan x="15.27" y="0">&quot;</tspan><tspan class="cls-11" x="17.43" y="0"> </tspan><tspan class="cls-10" x="19.33" y="0">X</tspan><tspan class="cls-12" x="23.58" y="0"> </tspan><tspan class="cls-13" x="25.57" y="0">1</tspan><tspan class="cls-14" x="29.36" y="0">5</tspan><tspan class="cls-15" x="33.24" y="0">&apos;</tspan><tspan class="cls-9" x="34.66" y="0">-</tspan><tspan class="cls-16" x="36.97" y="0">2</tspan><tspan x="40.76" y="0">&quot;</tspan></text><text class="cls-6" transform="translate(323.75 218.76)">STUDY</text></g></g></svg>