<svg id="图层_1" data-name="图层 1" xmlns="http://www.w3.org/2000/svg" viewBox="0 0 1008 504"><defs><style>.cls-1{fill:#fff;}.cls-2{fill:#0b4d6e;}.cls-3{fill:none;stroke:#0b4d6e;stroke-linecap:round;stroke-linejoin:bevel;stroke-width:0.15px;}.cls-4{font-size:7px;font-family:CenturyGothic, Century Gothic;}.cls-22,.cls-4{fill:#0c4f71;}.cls-5{letter-spacing:0em;}.cls-6{letter-spacing:-0.01em;}.cls-7{letter-spacing:0em;}.cls-8{letter-spacing:0em;}.cls-9{letter-spacing:-0.01em;}.cls-10{letter-spacing:0em;}.cls-11{letter-spacing:0.01em;}.cls-12{letter-spacing:-0.01em;}.cls-13{letter-spacing:0.01em;}.cls-14{letter-spacing:0em;}.cls-15{letter-spacing:-0.01em;}.cls-16{letter-spacing:0em;}.cls-17{letter-spacing:0.01em;}.cls-18{letter-spacing:-0.01em;}.cls-19{letter-spacing:0em;}.cls-20{letter-spacing:0em;}.cls-21{letter-spacing:-0.01em;}</style></defs><g id="GYM-1"><rect class="cls-1" x="362.13" y="216.03" width="45.1" height="19.78"/><rect class="cls-2" x="473.41" y="175.35" width="1.66" height="1.55"/><rect class="cls-2" x="473.41" y="205.97" width="1.66" height="70.27"/><line class="cls-3" x1="475.3" y1="176.9" x2="475.3" y2="175.58"/><line class="cls-3" x1="475.3" y1="276.01" x2="475.3" y2="205.97"/><line class="cls-3" x1="475.3" y1="176.9" x2="473.19" y2="176.9"/><line class="cls-3" x1="475.3" y1="205.97" x2="473.19" y2="205.97"/><line class="cls-3" x1="475.08" y1="176.9" x2="475.08" y2="175.35"/><line class="cls-3" x1="475.08" y1="276.23" x2="475.08" y2="205.97"/><line class="cls-3" x1="475.08" y1="176.9" x2="473.41" y2="176.9"/><line class="cls-3" x1="475.08" y1="205.97" x2="473.41" y2="205.97"/><line class="cls-3" x1="473.41" y1="175.35" x2="473.41" y2="176.9"/><line class="cls-3" x1="473.41" y1="205.97" x2="473.41" y2="276.23"/><line class="cls-3" x1="473.19" y1="175.58" x2="473.19" y2="176.9"/><line class="cls-3" x1="473.19" y1="205.97" x2="473.19" y2="276.01"/><line class="cls-3" x1="475.3" y1="205.97" x2="475.3" y2="205.59"/><line class="cls-3" x1="473.19" y1="205.97" x2="473.19" y2="205.59"/><line class="cls-3" x1="475.3" y1="205.97" x2="473.19" y2="205.97"/><line class="cls-3" x1="475.3" y1="205.59" x2="473.19" y2="205.59"/><line class="cls-3" x1="475.3" y1="177.24" x2="475.3" y2="176.9"/><line class="cls-3" x1="473.19" y1="177.24" x2="473.19" y2="176.9"/><line class="cls-3" x1="475.3" y1="177.24" x2="473.19" y2="177.24"/><line class="cls-3" x1="475.3" y1="176.9" x2="473.19" y2="176.9"/><line class="cls-3" x1="475.3" y1="177.24" x2="489.48" y2="177.24"/><line class="cls-3" x1="475.3" y1="177.88" x2="489.48" y2="177.88"/><line class="cls-3" x1="489.48" y1="177.24" x2="489.48" y2="177.88"/><line class="cls-3" x1="475.3" y1="177.88" x2="475.3" y2="177.24"/><line class="cls-3" x1="475.3" y1="191.41" x2="475.64" y2="191.41"/><line class="cls-3" x1="475.64" y1="191.41" x2="476.78" y2="191.34"/><line class="cls-3" x1="476.78" y1="191.34" x2="477.87" y2="191.19"/><line class="cls-3" x1="477.87" y1="191.19" x2="479.01" y2="190.92"/><line class="cls-3" x1="479.01" y1="190.92" x2="480.07" y2="190.58"/><line class="cls-3" x1="480.07" y1="190.58" x2="481.12" y2="190.17"/><line class="cls-3" x1="481.12" y1="190.17" x2="482.15" y2="189.67"/><line class="cls-3" x1="482.15" y1="189.67" x2="483.13" y2="189.07"/><line class="cls-3" x1="483.13" y1="189.07" x2="484.04" y2="188.43"/><line class="cls-3" x1="484.04" y1="188.43" x2="484.9" y2="187.67"/><line class="cls-3" x1="484.9" y1="187.67" x2="485.7" y2="186.88"/><line class="cls-3" x1="485.7" y1="186.88" x2="486.45" y2="186.01"/><line class="cls-3" x1="486.45" y1="186.01" x2="487.1" y2="185.1"/><line class="cls-3" x1="487.1" y1="185.1" x2="487.7" y2="184.12"/><line class="cls-3" x1="487.7" y1="184.12" x2="488.19" y2="183.1"/><line class="cls-3" x1="488.19" y1="183.1" x2="488.65" y2="182.08"/><line class="cls-3" x1="488.65" y1="182.08" x2="488.99" y2="180.98"/><line class="cls-3" x1="488.99" y1="180.98" x2="489.21" y2="179.88"/><line class="cls-3" x1="489.21" y1="179.88" x2="489.4" y2="178.75"/><line class="cls-3" x1="489.4" y1="178.75" x2="489.44" y2="177.99"/><line class="cls-3" x1="489.44" y1="177.99" x2="489.48" y2="177.24"/><line class="cls-3" x1="475.3" y1="205.59" x2="489.48" y2="205.59"/><line class="cls-3" x1="475.3" y1="204.94" x2="489.48" y2="204.94"/><line class="cls-3" x1="489.48" y1="205.59" x2="489.48" y2="204.94"/><line class="cls-3" x1="475.3" y1="204.94" x2="475.3" y2="205.59"/><line class="cls-3" x1="475.3" y1="191.41" x2="476.25" y2="191.45"/><line class="cls-3" x1="476.25" y1="191.45" x2="477.23" y2="191.56"/><line class="cls-3" x1="477.23" y1="191.56" x2="478.33" y2="191.75"/><line class="cls-3" x1="478.33" y1="191.75" x2="479.42" y2="192.06"/><line class="cls-3" x1="479.42" y1="192.06" x2="480.52" y2="192.4"/><line class="cls-3" x1="480.52" y1="192.4" x2="481.54" y2="192.89"/><line class="cls-3" x1="481.54" y1="192.89" x2="482.52" y2="193.42"/><line class="cls-3" x1="482.52" y1="193.42" x2="483.51" y2="194.02"/><line class="cls-3" x1="483.51" y1="194.02" x2="484.38" y2="194.7"/><line class="cls-3" x1="484.38" y1="194.7" x2="485.24" y2="195.5"/><line class="cls-3" x1="485.24" y1="195.5" x2="486" y2="196.29"/><line class="cls-3" x1="486" y1="196.29" x2="486.72" y2="197.2"/><line class="cls-3" x1="486.72" y1="197.2" x2="487.36" y2="198.14"/><line class="cls-3" x1="487.36" y1="198.14" x2="487.89" y2="199.12"/><line class="cls-3" x1="487.89" y1="199.12" x2="488.38" y2="200.14"/><line class="cls-3" x1="488.38" y1="200.14" x2="488.76" y2="201.2"/><line class="cls-3" x1="488.76" y1="201.2" x2="489.1" y2="202.3"/><line class="cls-3" x1="489.1" y1="202.3" x2="489.29" y2="203.4"/><line class="cls-3" x1="489.29" y1="203.4" x2="489.44" y2="204.49"/><line class="cls-3" x1="489.44" y1="204.49" x2="489.48" y2="205.59"/><line class="cls-3" x1="475.3" y1="205.7" x2="475.61" y2="205.7"/><line class="cls-3" x1="475.61" y1="205.7" x2="475.61" y2="207.25"/><line class="cls-3" x1="475.3" y1="207.25" x2="475.61" y2="207.25"/><line class="cls-3" x1="475.3" y1="177.13" x2="475.61" y2="177.13"/><line class="cls-3" x1="475.61" y1="175.58" x2="475.61" y2="177.13"/><line class="cls-3" x1="473.19" y1="177.13" x2="472.88" y2="177.13"/><line class="cls-3" x1="472.88" y1="175.58" x2="472.88" y2="177.13"/><line class="cls-3" x1="473.19" y1="205.7" x2="472.88" y2="205.7"/><line class="cls-3" x1="472.88" y1="205.7" x2="472.88" y2="207.25"/><line class="cls-3" x1="473.19" y1="207.25" x2="472.88" y2="207.25"/><text class="cls-4" transform="translate(498.44 230.97)"><tspan class="cls-5">14</tspan><tspan class="cls-6" x="7.75" y="0">&apos;</tspan><tspan class="cls-7" x="9.09" y="0">-</tspan><tspan class="cls-8" x="11.4" y="0">11</tspan><tspan x="19.14" y="0">&quot;</tspan><tspan class="cls-9" x="21.31" y="0"> </tspan><tspan class="cls-10" x="23.2" y="0">X</tspan><tspan class="cls-11" x="27.46" y="0"> </tspan><tspan class="cls-12" x="29.44" y="0">1</tspan><tspan x="33.23" y="0">7</tspan><tspan class="cls-13" x="37.11" y="0">&apos;</tspan><tspan class="cls-14" x="38.53" y="0">-</tspan><tspan class="cls-15" x="40.84" y="0">9</tspan><tspan class="cls-16" x="44.64" y="0">&quot;</tspan></text><text class="cls-4" transform="translate(510.3 223.95)">GYM</text><text class="cls-4" transform="translate(363.35 230.97)"><tspan class="cls-5">30</tspan><tspan class="cls-6" x="7.75" y="0">&apos;</tspan><tspan class="cls-7" x="9.09" y="0">-</tspan><tspan class="cls-8" x="11.4" y="0">7</tspan><tspan x="15.27" y="0">&quot;</tspan><tspan class="cls-9" x="17.43" y="0"> </tspan><tspan class="cls-8" x="19.33" y="0">X</tspan><tspan class="cls-17" x="23.58" y="0"> </tspan><tspan class="cls-18" x="25.57" y="0">1</tspan><tspan class="cls-19" x="29.36" y="0">7</tspan><tspan class="cls-20" x="33.24" y="0">&apos;</tspan><tspan class="cls-7" x="34.66" y="0">-</tspan><tspan class="cls-21" x="36.97" y="0">9</tspan><tspan x="40.76" y="0">&quot;</tspan></text><text class="cls-4" transform="translate(364.44 223.95)">REC ROOM</text><rect class="cls-22" x="504.11" y="296.08" width="27.67" height="1.66"/><line class="cls-3" x1="531.51" y1="295.85" x2="504.37" y2="295.85"/><line class="cls-3" x1="531.77" y1="296.08" x2="504.11" y2="296.08"/><line class="cls-3" x1="504.11" y1="297.74" x2="531.77" y2="297.74"/><line class="cls-3" x1="504.37" y1="297.97" x2="531.51" y2="297.97"/></g></svg>