<svg id="图层_1" data-name="图层 1" xmlns="http://www.w3.org/2000/svg" xmlns:xlink="http://www.w3.org/1999/xlink" viewBox="0 0 1008 504"><defs><style>.cls-1,.cls-4{fill:none;}.cls-2{clip-path:url(#clip-path);}.cls-3{fill:#fff;}.cls-4{stroke:#0b4d6e;stroke-linecap:round;stroke-linejoin:bevel;stroke-width:0.15px;}.cls-5{fill:#0b4d6e;}.cls-6{font-size:7px;fill:#0c4f71;font-family:CenturyGothic, Century Gothic;}.cls-7{letter-spacing:0em;}.cls-8{letter-spacing:-0.01em;}.cls-9{letter-spacing:0em;}.cls-10{letter-spacing:0em;}.cls-11{letter-spacing:0em;}.cls-12{letter-spacing:0.01em;}.cls-13{letter-spacing:-0.01em;}.cls-14{letter-spacing:0em;}.cls-15{letter-spacing:0em;}.cls-16{letter-spacing:0em;}.cls-17{letter-spacing:-0.01em;}</style><clipPath id="clip-path"><rect class="cls-1" x="454.92" y="94.03" width="71.5" height="70.51"/></clipPath></defs><g id="GAME_ROOM-2" data-name="GAME ROOM-2"><g class="cls-2"><rect class="cls-3" x="463.06" y="147.87" width="56.22" height="18.99"/><rect class="cls-3" x="446" y="157.78" width="11.11" height="0.23"/><line class="cls-4" x1="447.86" y1="158" x2="448.08" y2="157.78"/><line class="cls-4" x1="450.5" y1="158" x2="450.77" y2="157.78"/><line class="cls-4" x1="453.19" y1="158" x2="453.41" y2="157.78"/><line class="cls-4" x1="455.87" y1="158" x2="456.1" y2="157.78"/><rect class="cls-5" x="446" y="158" width="11.11" height="0.23"/><rect class="cls-5" x="446" y="158.23" width="11.11" height="2.61"/><rect class="cls-5" x="446" y="160.84" width="14.89" height="0.23"/><rect class="cls-5" x="461.12" y="99.87" width="1.66" height="62.37"/><rect class="cls-5" x="462.79" y="99.87" width="56.7" height="1.66"/><rect class="cls-5" x="446" y="162.24" width="34.4" height="1.66"/><rect class="cls-5" x="515.1" y="162.24" width="45.02" height="1.66"/><rect class="cls-5" x="473.41" y="163.9" width="1.66" height="1.55"/><rect class="cls-5" x="457.12" y="95.86" width="3.78" height="64.97"/><rect class="cls-5" x="460.9" y="95.86" width="60.48" height="3.78"/><rect class="cls-5" x="521.37" y="95.86" width="3.78" height="66.15"/><rect class="cls-5" x="525.15" y="158.23" width="36.85" height="3.78"/><rect class="cls-5" x="519.48" y="99.87" width="1.66" height="62.37"/><line class="cls-4" x1="457.12" y1="157.78" x2="446" y2="157.78"/><line class="cls-4" x1="446" y1="157.78" x2="446" y2="161.06"/><line class="cls-4" x1="457.12" y1="158" x2="446" y2="158"/><line class="cls-4" x1="457.12" y1="158" x2="446" y2="158"/><line class="cls-4" x1="457.12" y1="158.23" x2="446" y2="158.23"/><line class="cls-4" x1="446" y1="158.23" x2="446" y2="160.84"/><line class="cls-4" x1="457.12" y1="160.84" x2="457.12" y2="158.23"/><line class="cls-4" x1="446" y1="160.84" x2="457.12" y2="160.84"/><line class="cls-4" x1="460.9" y1="160.84" x2="460.9" y2="161.06"/><line class="cls-4" x1="446" y1="161.06" x2="460.9" y2="161.06"/><line class="cls-4" x1="446" y1="157.78" x2="445.66" y2="157.78"/><line class="cls-4" x1="446" y1="161.06" x2="445.66" y2="161.06"/><line class="cls-4" x1="446" y1="157.78" x2="446" y2="161.06"/><line class="cls-4" x1="445.66" y1="157.78" x2="445.66" y2="161.06"/><line class="cls-4" x1="445.66" y1="158.34" x2="431.57" y2="158.34"/><line class="cls-4" x1="445.66" y1="158.72" x2="431.57" y2="158.72"/><line class="cls-4" x1="431.57" y1="156.94" x2="447.67" y2="156.94"/><line class="cls-4" x1="447.67" y1="157.78" x2="447.67" y2="156.94"/><line class="cls-4" x1="446" y1="157.78" x2="446" y2="157.44"/><line class="cls-4" x1="446" y1="157.44" x2="447.67" y2="157.44"/><line class="cls-4" x1="447.67" y1="157.78" x2="447.67" y2="157.44"/><line class="cls-4" x1="447.48" y1="161.06" x2="447.48" y2="161.82"/><line class="cls-4" x1="431.57" y1="161.82" x2="447.48" y2="161.82"/><line class="cls-4" x1="445.7" y1="161.06" x2="445.7" y2="161.37"/><line class="cls-4" x1="445.7" y1="161.37" x2="447.25" y2="161.37"/><line class="cls-4" x1="447.25" y1="161.06" x2="447.25" y2="161.37"/><line class="cls-4" x1="445.7" y1="161.06" x2="447.25" y2="161.06"/><line class="cls-4" x1="431.83" y1="162.01" x2="431.83" y2="161.06"/><line class="cls-4" x1="460.9" y1="99.64" x2="460.9" y2="162.01"/><line class="cls-4" x1="461.12" y1="99.87" x2="461.12" y2="162.24"/><line class="cls-4" x1="462.79" y1="99.87" x2="461.12" y2="99.87"/><line class="cls-4" x1="462.79" y1="162.24" x2="462.79" y2="101.53"/><line class="cls-4" x1="463.01" y1="162.01" x2="463.01" y2="101.76"/><line class="cls-4" x1="521.37" y1="99.64" x2="460.9" y2="99.64"/><line class="cls-4" x1="519.48" y1="99.87" x2="462.79" y2="99.87"/><line class="cls-4" x1="462.79" y1="101.53" x2="519.48" y2="101.53"/><line class="cls-4" x1="463.01" y1="101.76" x2="519.26" y2="101.76"/><line class="cls-4" x1="460.9" y1="162.01" x2="446" y2="162.01"/><line class="cls-4" x1="480.4" y1="162.01" x2="463.01" y2="162.01"/><line class="cls-4" x1="519.26" y1="162.01" x2="515.1" y2="162.01"/><line class="cls-4" x1="556.9" y1="162.01" x2="521.37" y2="162.01"/><line class="cls-4" x1="446" y1="162.01" x2="446" y2="164.13"/><line class="cls-4" x1="480.4" y1="162.01" x2="480.4" y2="164.13"/><line class="cls-4" x1="515.1" y1="162.01" x2="515.1" y2="164.13"/><line class="cls-4" x1="480.4" y1="162.24" x2="462.79" y2="162.24"/><line class="cls-4" x1="461.12" y1="162.24" x2="446" y2="162.24"/><line class="cls-4" x1="556.9" y1="162.24" x2="521.15" y2="162.24"/><line class="cls-4" x1="519.48" y1="162.24" x2="515.1" y2="162.24"/><line class="cls-4" x1="446" y1="162.24" x2="446" y2="163.9"/><line class="cls-4" x1="480.4" y1="162.24" x2="480.4" y2="163.9"/><line class="cls-4" x1="515.1" y1="162.24" x2="515.1" y2="163.9"/><line class="cls-4" x1="446" y1="163.9" x2="473.41" y2="163.9"/><line class="cls-4" x1="475.07" y1="163.9" x2="480.4" y2="163.9"/><line class="cls-4" x1="515.1" y1="163.9" x2="556.9" y2="163.9"/><line class="cls-4" x1="446" y1="164.13" x2="473.18" y2="164.13"/><line class="cls-4" x1="475.3" y1="164.13" x2="480.4" y2="164.13"/><line class="cls-4" x1="515.1" y1="164.13" x2="556.9" y2="164.13"/><line class="cls-4" x1="431.57" y1="162.01" x2="446" y2="162.01"/><line class="cls-4" x1="431.57" y1="164.13" x2="446" y2="164.13"/><line class="cls-4" x1="446" y1="162.01" x2="445.66" y2="162.01"/><line class="cls-4" x1="446" y1="164.13" x2="445.66" y2="164.13"/><line class="cls-4" x1="446" y1="162.01" x2="446" y2="164.13"/><line class="cls-4" x1="445.66" y1="162.01" x2="445.66" y2="164.13"/><line class="cls-4" x1="515.1" y1="162.01" x2="514.76" y2="162.01"/><line class="cls-4" x1="515.1" y1="164.13" x2="514.76" y2="164.13"/><line class="cls-4" x1="515.1" y1="162.01" x2="515.1" y2="164.13"/><line class="cls-4" x1="514.76" y1="162.01" x2="514.76" y2="164.13"/><line class="cls-4" x1="480.74" y1="162.01" x2="480.4" y2="162.01"/><line class="cls-4" x1="480.74" y1="164.13" x2="480.4" y2="164.13"/><line class="cls-4" x1="480.74" y1="162.01" x2="480.74" y2="164.13"/><line class="cls-4" x1="480.4" y1="162.01" x2="480.4" y2="164.13"/><line class="cls-4" x1="514.87" y1="162.01" x2="514.87" y2="161.71"/><line class="cls-4" x1="514.87" y1="161.71" x2="516.42" y2="161.71"/><line class="cls-4" x1="516.42" y1="162.01" x2="516.42" y2="161.71"/><line class="cls-4" x1="480.63" y1="162.01" x2="480.63" y2="161.71"/><line class="cls-4" x1="479.08" y1="161.71" x2="480.63" y2="161.71"/><line class="cls-4" x1="479.08" y1="162.01" x2="479.08" y2="161.71"/><line class="cls-4" x1="480.63" y1="164.13" x2="480.63" y2="164.43"/><line class="cls-4" x1="479.08" y1="164.43" x2="480.63" y2="164.43"/><line class="cls-4" x1="479.08" y1="164.13" x2="479.08" y2="164.43"/><line class="cls-4" x1="514.87" y1="164.13" x2="514.87" y2="164.43"/><line class="cls-4" x1="514.87" y1="164.43" x2="516.42" y2="164.43"/><line class="cls-4" x1="516.42" y1="164.13" x2="516.42" y2="164.43"/><line class="cls-4" x1="475.3" y1="165.45" x2="475.3" y2="164.13"/><line class="cls-4" x1="475.3" y1="165.45" x2="473.18" y2="165.45"/><line class="cls-4" x1="475.07" y1="165.45" x2="475.07" y2="163.9"/><line class="cls-4" x1="475.07" y1="165.45" x2="473.41" y2="165.45"/><line class="cls-4" x1="473.41" y1="163.9" x2="473.41" y2="165.45"/><line class="cls-4" x1="473.18" y1="164.13" x2="473.18" y2="165.45"/><line class="cls-4" x1="475.3" y1="165.79" x2="475.3" y2="165.45"/><line class="cls-4" x1="473.18" y1="165.79" x2="473.18" y2="165.45"/><line class="cls-4" x1="475.3" y1="165.79" x2="473.18" y2="165.79"/><line class="cls-4" x1="475.3" y1="165.45" x2="473.18" y2="165.45"/><line class="cls-4" x1="475.3" y1="165.79" x2="489.47" y2="165.79"/><line class="cls-4" x1="475.3" y1="166.43" x2="489.47" y2="166.43"/><line class="cls-4" x1="489.47" y1="165.79" x2="489.47" y2="166.43"/><line class="cls-4" x1="475.3" y1="166.43" x2="475.3" y2="165.79"/><line class="cls-4" x1="484.41" y1="176.64" x2="484.63" y2="176.45"/><line class="cls-4" x1="484.63" y1="176.45" x2="485.47" y2="175.65"/><line class="cls-4" x1="485.47" y1="175.65" x2="486.22" y2="174.82"/><line class="cls-4" x1="486.22" y1="174.82" x2="486.9" y2="173.92"/><line class="cls-4" x1="486.9" y1="173.92" x2="487.51" y2="172.97"/><line class="cls-4" x1="487.51" y1="172.97" x2="488.07" y2="171.99"/><line class="cls-4" x1="488.07" y1="171.99" x2="488.53" y2="170.93"/><line class="cls-4" x1="488.53" y1="170.93" x2="488.87" y2="169.87"/><line class="cls-4" x1="488.87" y1="169.87" x2="489.17" y2="168.78"/><line class="cls-4" x1="489.17" y1="168.78" x2="489.36" y2="167.64"/><line class="cls-4" x1="489.36" y1="167.64" x2="489.47" y2="166.51"/><line class="cls-4" x1="489.47" y1="166.51" x2="489.47" y2="165.79"/><line class="cls-4" x1="475.3" y1="165.68" x2="475.6" y2="165.68"/><line class="cls-4" x1="475.6" y1="164.13" x2="475.6" y2="165.68"/><line class="cls-4" x1="475.3" y1="164.13" x2="475.6" y2="164.13"/><line class="cls-4" x1="473.18" y1="165.68" x2="472.88" y2="165.68"/><line class="cls-4" x1="472.88" y1="164.13" x2="472.88" y2="165.68"/><line class="cls-4" x1="473.18" y1="164.13" x2="472.88" y2="164.13"/><line class="cls-4" x1="457.12" y1="95.86" x2="457.12" y2="160.84"/><line class="cls-4" x1="457.12" y1="160.84" x2="460.9" y2="160.84"/><line class="cls-4" x1="460.9" y1="95.86" x2="457.12" y2="95.86"/><line class="cls-4" x1="457.12" y1="95.86" x2="460.9" y2="95.86"/><line class="cls-4" x1="460.9" y1="160.84" x2="460.9" y2="99.64"/><line class="cls-4" x1="521.37" y1="95.86" x2="460.9" y2="95.86"/><line class="cls-4" x1="460.9" y1="99.64" x2="521.37" y2="99.64"/><line class="cls-4" x1="525.15" y1="158.23" x2="525.15" y2="95.86"/><line class="cls-4" x1="525.15" y1="95.86" x2="521.37" y2="95.86"/><line class="cls-4" x1="525.15" y1="95.86" x2="521.37" y2="95.86"/><line class="cls-4" x1="521.37" y1="162.01" x2="525.15" y2="162.01"/><line class="cls-4" x1="525.15" y1="162.01" x2="521.37" y2="162.01"/><line class="cls-4" x1="521.37" y1="99.64" x2="521.37" y2="162.01"/><line class="cls-4" x1="556.9" y1="158.23" x2="525.15" y2="158.23"/><line class="cls-4" x1="525.15" y1="162.01" x2="556.9" y2="162.01"/><line class="cls-4" x1="521.37" y1="162.01" x2="521.37" y2="99.64"/><line class="cls-4" x1="521.15" y1="162.24" x2="521.15" y2="99.87"/><line class="cls-4" x1="521.15" y1="99.87" x2="519.48" y2="99.87"/><line class="cls-4" x1="519.48" y1="101.53" x2="519.48" y2="162.24"/><line class="cls-4" x1="519.26" y1="101.76" x2="519.26" y2="162.01"/><rect class="cls-5" x="445.9" y="160.98" width="15.08" height="1.17"/><rect class="cls-5" x="446.03" y="161.83" width="1.53" height="0.35"/><text class="cls-6" transform="translate(469.54 136.83)"><tspan class="cls-7">9</tspan><tspan class="cls-8" x="3.87" y="0">&apos;</tspan><tspan class="cls-9" x="5.21" y="0">-</tspan><tspan class="cls-10" x="7.52" y="0">11</tspan><tspan x="15.27" y="0">&quot;</tspan><tspan class="cls-8" x="17.43" y="0"> </tspan><tspan class="cls-11" x="19.33" y="0">X</tspan><tspan class="cls-12" x="23.58" y="0"> </tspan><tspan class="cls-13" x="25.57" y="0">1</tspan><tspan class="cls-14" x="29.36" y="0">0</tspan><tspan class="cls-15" x="33.24" y="0">&apos;</tspan><tspan class="cls-16" x="34.66" y="0">-</tspan><tspan class="cls-17" x="36.97" y="0">8</tspan><tspan x="40.76" y="0">&quot;</tspan></text><text class="cls-6" transform="translate(467.8 129.82)">GAME ROOM</text></g></g></svg>