<svg id="图层_1" data-name="图层 1" xmlns="http://www.w3.org/2000/svg" xmlns:xlink="http://www.w3.org/1999/xlink" viewBox="0 0 1008 504"><defs><style>.cls-1,.cls-4{fill:none;}.cls-2{clip-path:url(#clip-path);}.cls-3,.cls-7{fill:#fff;}.cls-4{stroke:#0b4d6e;stroke-linecap:round;stroke-linejoin:bevel;stroke-width:0.15px;}.cls-5{fill:#0c4f71;}.cls-6{font-size:3.93px;}.cls-6,.cls-8{fill:#040000;font-family:CenturyGothic-Bold, Century Gothic;font-weight:700;}.cls-7{fill-rule:evenodd;}.cls-8{opacity:0.88;font-size:5px;}</style><clipPath id="clip-path"><rect class="cls-1" x="291.83" y="155.83" width="275.83" height="22.33"/></clipPath></defs><g id="_2_EXTENSION" data-name="2&apos; EXTENSION"><g class="cls-2"><rect class="cls-3" x="299.54" y="167" width="261.39" height="11.17"/><rect class="cls-3" x="413.16" y="268.13" width="10.17" height="13.46"/><line class="cls-4" x1="423.33" y1="268.13" x2="413.16" y2="268.13"/><line class="cls-4" x1="413.16" y1="268.13" x2="413.16" y2="281.59"/><line class="cls-4" x1="413.16" y1="281.59" x2="423.33" y2="281.59"/><line class="cls-4" x1="423.33" y1="281.59" x2="423.33" y2="268.13"/><rect class="cls-5" x="658.4" y="254.6" width="3.78" height="124.73"/><rect class="cls-5" x="565.79" y="254.6" width="92.61" height="3.78"/><rect class="cls-5" x="297.43" y="387.84" width="109.61" height="3.78"/><rect class="cls-5" x="533.4" y="263.22" width="26.72" height="1.66"/><rect class="cls-5" x="297.65" y="334.92" width="1.66" height="54.69"/><rect class="cls-5" x="297.65" y="239.97" width="1.66" height="94.95"/><rect class="cls-5" x="297.65" y="162.13" width="1.66" height="77.84"/><rect class="cls-5" x="297.43" y="158.21" width="53.53" height="3.78"/><rect class="cls-5" x="350.68" y="158.21" width="95.33" height="3.78"/><rect class="cls-5" x="446.01" y="158.21" width="116" height="3.78"/><rect class="cls-5" x="299.32" y="309.9" width="66.37" height="2.57"/><rect class="cls-5" x="320.65" y="287.26" width="32.43" height="2.57"/><rect class="cls-5" x="348.68" y="267.38" width="1.89" height="22.57"/><rect class="cls-5" x="486.42" y="379.33" width="1.63" height="13"/><rect class="cls-5" x="474.25" y="264.77" width="29.86" height="2.61"/><rect class="cls-5" x="407.04" y="387.84" width="3.78" height="8.5"/><rect class="cls-5" x="410.82" y="392.56" width="77.49" height="3.78"/><rect class="cls-5" x="488.31" y="381.22" width="3.78" height="15.12"/><rect class="cls-5" x="560.12" y="160.1" width="1.63" height="67.88"/><rect class="cls-5" x="560.12" y="227.69" width="1.63" height="37.42"/><rect class="cls-5" x="492.09" y="381.22" width="41.58" height="3.78"/><rect class="cls-5" x="412.71" y="302.34" width="91.4" height="2.57"/><rect class="cls-5" x="502.48" y="267.38" width="1.63" height="34.96"/><rect class="cls-5" x="364.03" y="387.61" width="1.66" height="0.23"/><rect class="cls-5" x="531.77" y="263.22" width="1.63" height="118.01"/><rect class="cls-5" x="488.04" y="379.33" width="43.73" height="1.66"/><rect class="cls-5" x="299.32" y="264.77" width="68.91" height="2.61"/><rect class="cls-5" x="651.29" y="375.55" width="7.11" height="3.78"/><rect class="cls-5" x="537.44" y="375.55" width="10.85" height="3.78"/><rect class="cls-5" x="299.32" y="385.95" width="111.73" height="1.66"/><rect class="cls-5" x="533.4" y="265.11" width="28.61" height="3.78"/><rect class="cls-5" x="411.05" y="267.38" width="1.66" height="15.46"/><rect class="cls-5" x="411.05" y="264.77" width="63.2" height="2.61"/><rect class="cls-5" x="293.65" y="334.92" width="3.78" height="56.7"/><rect class="cls-5" x="293.65" y="239.97" width="3.78" height="94.95"/><rect class="cls-5" x="293.65" y="158.21" width="3.78" height="81.76"/><rect class="cls-5" x="299.04" y="162.22" width="51.92" height="1.66"/><rect class="cls-5" x="350.68" y="162.22" width="95.33" height="1.66"/><rect class="cls-5" x="446.01" y="162.22" width="114.11" height="1.66"/><rect class="cls-5" x="562.01" y="158.21" width="3.78" height="69.77"/><rect class="cls-5" x="562.01" y="227.69" width="3.78" height="41.2"/><rect class="cls-5" x="533.66" y="268.89" width="3.78" height="116.12"/><line class="cls-4" x1="662.18" y1="379.33" x2="662.18" y2="254.6"/><line class="cls-4" x1="662.18" y1="254.6" x2="658.4" y2="254.6"/><line class="cls-4" x1="662.18" y1="254.6" x2="658.4" y2="254.6"/><line class="cls-4" x1="658.4" y1="379.33" x2="662.18" y2="379.33"/><line class="cls-4" x1="662.18" y1="379.33" x2="658.4" y2="379.33"/><line class="cls-4" x1="658.4" y1="258.38" x2="658.4" y2="375.55"/><line class="cls-4" x1="658.4" y1="254.6" x2="565.79" y2="254.6"/><line class="cls-4" x1="565.79" y1="258.38" x2="658.4" y2="258.38"/><line class="cls-4" x1="297.43" y1="391.62" x2="407.04" y2="391.62"/><line class="cls-4" x1="407.04" y1="387.84" x2="297.43" y2="387.84"/><line class="cls-4" x1="533.66" y1="265.11" x2="559.86" y2="265.11"/><line class="cls-4" x1="532.61" y1="262.99" x2="532.61" y2="264.54"/><line class="cls-4" x1="533.4" y1="264.88" x2="560.12" y2="264.88"/><line class="cls-4" x1="560.12" y1="263.22" x2="533.4" y2="263.22"/><line class="cls-4" x1="559.86" y1="262.99" x2="532.61" y2="262.99"/><line class="cls-4" x1="297.43" y1="334.92" x2="297.43" y2="390.12"/><line class="cls-4" x1="297.43" y1="239.97" x2="297.43" y2="334.92"/><line class="cls-4" x1="297.43" y1="161.47" x2="297.43" y2="239.97"/><line class="cls-4" x1="297.65" y1="334.92" x2="297.65" y2="389.61"/><line class="cls-4" x1="297.65" y1="239.97" x2="297.65" y2="334.92"/><line class="cls-4" x1="297.65" y1="162.13" x2="297.65" y2="239.97"/><line class="cls-4" x1="297.65" y1="387.61" x2="299.32" y2="387.61"/><line class="cls-4" x1="299.32" y1="162.22" x2="297.65" y2="162.22"/><line class="cls-4" x1="299.32" y1="385.87" x2="299.32" y2="334.92"/><line class="cls-4" x1="299.32" y1="334.92" x2="299.32" y2="312.47"/><line class="cls-4" x1="299.32" y1="309.9" x2="299.32" y2="267.38"/><line class="cls-4" x1="299.32" y1="264.77" x2="299.32" y2="239.97"/><line class="cls-4" x1="299.32" y1="239.97" x2="299.32" y2="163.35"/><line class="cls-4" x1="299.54" y1="385.36" x2="299.54" y2="334.92"/><line class="cls-4" x1="299.54" y1="334.92" x2="299.54" y2="312.73"/><line class="cls-4" x1="299.54" y1="309.63" x2="299.54" y2="267.6"/><line class="cls-4" x1="299.54" y1="264.54" x2="299.54" y2="239.97"/><line class="cls-4" x1="299.54" y1="239.97" x2="299.54" y2="164.04"/><line class="cls-4" x1="350.96" y1="158.21" x2="297.43" y2="158.21"/><line class="cls-4" x1="446.01" y1="158.21" x2="350.68" y2="158.21"/><line class="cls-4" x1="562.01" y1="158.21" x2="446.01" y2="158.21"/><line class="cls-4" x1="297.43" y1="161.99" x2="350.96" y2="161.99"/><line class="cls-4" x1="350.68" y1="161.99" x2="446.01" y2="161.99"/><line class="cls-4" x1="446.01" y1="161.99" x2="562.01" y2="161.99"/><line class="cls-4" x1="299.54" y1="312.73" x2="363.8" y2="312.73"/><line class="cls-4" x1="299.32" y1="312.47" x2="364.03" y2="312.47"/><line class="cls-4" x1="365.69" y1="312.47" x2="365.69" y2="309.9"/><line class="cls-4" x1="365.69" y1="309.9" x2="299.32" y2="309.9"/><line class="cls-4" x1="365.92" y1="309.63" x2="299.54" y2="309.63"/><line class="cls-4" x1="348.45" y1="284.5" x2="348.45" y2="288.28"/><line class="cls-4" x1="350.57" y1="284.5" x2="350.57" y2="290.39"/><line class="cls-4" x1="486.15" y1="379.11" x2="486.15" y2="390.45"/><line class="cls-4" x1="486.42" y1="379.33" x2="486.42" y2="390.67"/><line class="cls-4" x1="486.42" y1="392.34" x2="488.04" y2="392.34"/><line class="cls-4" x1="488.04" y1="379.33" x2="486.42" y2="379.33"/><line class="cls-4" x1="488.04" y1="392.34" x2="488.04" y2="381"/><line class="cls-4" x1="488.31" y1="392.56" x2="488.31" y2="381.22"/><line class="cls-4" x1="503.31" y1="264.54" x2="475.3" y2="264.54"/><line class="cls-4" x1="504.11" y1="264.77" x2="475.08" y2="264.77"/><line class="cls-4" x1="504.11" y1="267.38" x2="504.11" y2="266.43"/><line class="cls-4" x1="474.25" y1="267.38" x2="502.48" y2="267.38"/><line class="cls-4" x1="474.25" y1="267.6" x2="502.22" y2="267.6"/><line class="cls-4" x1="407.04" y1="391.62" x2="407.04" y2="396.34"/><line class="cls-4" x1="407.04" y1="396.34" x2="410.82" y2="396.34"/><line class="cls-4" x1="407.04" y1="396.34" x2="410.82" y2="396.34"/><line class="cls-4" x1="410.82" y1="387.84" x2="407.04" y2="387.84"/><line class="cls-4" x1="407.04" y1="387.84" x2="410.82" y2="387.84"/><line class="cls-4" x1="410.82" y1="392.56" x2="410.82" y2="387.84"/><line class="cls-4" x1="410.82" y1="396.34" x2="488.31" y2="396.34"/><line class="cls-4" x1="488.31" y1="392.56" x2="410.82" y2="392.56"/><line class="cls-4" x1="492.09" y1="396.34" x2="492.09" y2="385"/><line class="cls-4" x1="492.09" y1="381.22" x2="488.31" y2="381.22"/><line class="cls-4" x1="492.09" y1="381.22" x2="488.31" y2="381.22"/><line class="cls-4" x1="488.31" y1="396.34" x2="492.09" y2="396.34"/><line class="cls-4" x1="492.09" y1="396.34" x2="488.31" y2="396.34"/><line class="cls-4" x1="488.31" y1="381.22" x2="488.31" y2="392.56"/><line class="cls-4" x1="562.01" y1="227.98" x2="562.01" y2="160.1"/><line class="cls-4" x1="562.01" y1="265.11" x2="562.01" y2="227.69"/><line class="cls-4" x1="561.75" y1="227.98" x2="561.75" y2="160.1"/><line class="cls-4" x1="561.75" y1="265.11" x2="561.75" y2="227.69"/><line class="cls-4" x1="561.75" y1="161.99" x2="560.12" y2="161.99"/><line class="cls-4" x1="560.12" y1="265.11" x2="561.75" y2="265.11"/><line class="cls-4" x1="560.12" y1="161.99" x2="560.12" y2="162.22"/><line class="cls-4" x1="560.12" y1="163.54" x2="560.12" y2="227.98"/><line class="cls-4" x1="560.12" y1="227.69" x2="560.12" y2="263.22"/><line class="cls-4" x1="560.12" y1="264.88" x2="560.12" y2="265.11"/><line class="cls-4" x1="559.86" y1="163.95" x2="559.86" y2="227.98"/><line class="cls-4" x1="559.86" y1="227.69" x2="559.86" y2="262.99"/><line class="cls-4" x1="492.09" y1="385" x2="533.66" y2="385"/><line class="cls-4" x1="533.66" y1="381.22" x2="492.09" y2="381.22"/><line class="cls-4" x1="412.94" y1="305.17" x2="503.31" y2="305.17"/><line class="cls-4" x1="412.71" y1="304.91" x2="504.11" y2="304.91"/><line class="cls-4" x1="504.11" y1="303.28" x2="504.11" y2="302.34"/><line class="cls-4" x1="502.48" y1="302.34" x2="412.71" y2="302.34"/><line class="cls-4" x1="502.22" y1="302.07" x2="412.94" y2="302.07"/><line class="cls-4" x1="504.37" y1="284.38" x2="504.37" y2="266.66"/><line class="cls-4" x1="504.37" y1="303.02" x2="504.37" y2="286.5"/><line class="cls-4" x1="504.11" y1="302.34" x2="504.11" y2="286.27"/><line class="cls-4" x1="504.11" y1="284.61" x2="504.11" y2="267.38"/><line class="cls-4" x1="502.48" y1="267.38" x2="502.48" y2="302.34"/><line class="cls-4" x1="502.22" y1="267.6" x2="502.22" y2="302.07"/><line class="cls-4" x1="364.03" y1="387.61" x2="364.03" y2="387.84"/><line class="cls-4" x1="364.03" y1="387.84" x2="365.69" y2="387.84"/><line class="cls-4" x1="365.69" y1="387.84" x2="365.69" y2="387.61"/><line class="cls-4" x1="533.66" y1="381.22" x2="533.66" y2="268.89"/><line class="cls-4" x1="533.4" y1="381.22" x2="533.4" y2="264.88"/><line class="cls-4" x1="533.4" y1="263.22" x2="531.77" y2="263.22"/><line class="cls-4" x1="531.77" y1="381.22" x2="533.4" y2="381.22"/><line class="cls-4" x1="531.77" y1="263.22" x2="531.77" y2="264.77"/><line class="cls-4" x1="531.77" y1="266.43" x2="531.77" y2="284.61"/><line class="cls-4" x1="531.77" y1="286.27" x2="531.77" y2="303.28"/><line class="cls-4" x1="531.77" y1="304.91" x2="531.77" y2="379.33"/><line class="cls-4" x1="531.77" y1="381" x2="531.77" y2="381.22"/><line class="cls-4" x1="531.51" y1="266.66" x2="531.51" y2="284.38"/><line class="cls-4" x1="531.51" y1="286.5" x2="531.51" y2="303.02"/><line class="cls-4" x1="531.51" y1="305.17" x2="531.51" y2="379.11"/><line class="cls-4" x1="531.51" y1="379.11" x2="486.15" y2="379.11"/><line class="cls-4" x1="531.77" y1="379.33" x2="488.04" y2="379.33"/><line class="cls-4" x1="488.04" y1="381" x2="531.77" y2="381"/><line class="cls-4" x1="488.31" y1="381.22" x2="531.51" y2="381.22"/><line class="cls-4" x1="299.54" y1="267.6" x2="368.22" y2="267.6"/><line class="cls-4" x1="368.22" y1="267.6" x2="368.45" y2="267.6"/><line class="cls-4" x1="368.45" y1="267.6" x2="368.45" y2="264.54"/><line class="cls-4" x1="368.45" y1="264.54" x2="368.22" y2="264.54"/><line class="cls-4" x1="299.32" y1="267.38" x2="368.22" y2="267.38"/><line class="cls-4" x1="368.22" y1="267.38" x2="368.22" y2="264.77"/><line class="cls-4" x1="368.22" y1="264.77" x2="299.32" y2="264.77"/><line class="cls-4" x1="368.22" y1="264.54" x2="299.54" y2="264.54"/><line class="cls-4" x1="651.29" y1="379.33" x2="658.4" y2="379.33"/><line class="cls-4" x1="537.44" y1="379.33" x2="548.29" y2="379.33"/><line class="cls-4" x1="651.29" y1="379.33" x2="651.29" y2="375.55"/><line class="cls-4" x1="548.29" y1="379.33" x2="548.29" y2="375.55"/><line class="cls-4" x1="658.4" y1="375.55" x2="651.29" y2="375.55"/><line class="cls-4" x1="548.29" y1="375.55" x2="537.44" y2="375.55"/><line class="cls-4" x1="365.92" y1="387.84" x2="410.82" y2="387.84"/><line class="cls-4" x1="297.43" y1="387.84" x2="363.8" y2="387.84"/><line class="cls-4" x1="299.32" y1="387.61" x2="364.03" y2="387.61"/><line class="cls-4" x1="365.69" y1="387.61" x2="411.05" y2="387.61"/><line class="cls-4" x1="411.05" y1="385.95" x2="365.69" y2="385.95"/><line class="cls-4" x1="411.05" y1="385.95" x2="299.32" y2="385.95"/><line class="cls-4" x1="410.82" y1="385.72" x2="365.92" y2="385.72"/><line class="cls-4" x1="410.66" y1="385.85" x2="299.71" y2="385.85"/><line class="cls-4" x1="562.01" y1="265.11" x2="533.4" y2="265.11"/><line class="cls-4" x1="533.4" y1="265.11" x2="533.4" y2="268.89"/><line class="cls-4" x1="533.4" y1="268.89" x2="533.66" y2="268.89"/><line class="cls-4" x1="537.44" y1="268.89" x2="562.01" y2="268.89"/><line class="cls-4" x1="410.82" y1="387.84" x2="410.82" y2="392.56"/><line class="cls-4" x1="410.82" y1="264.54" x2="410.82" y2="282.84"/><line class="cls-4" x1="410.82" y1="300.56" x2="412.94" y2="300.56"/><line class="cls-4" x1="410.82" y1="282.84" x2="412.94" y2="282.84"/><line class="cls-4" x1="411.05" y1="385.95" x2="411.05" y2="392.56"/><line class="cls-4" x1="411.05" y1="267.38" x2="411.05" y2="282.84"/><line class="cls-4" x1="411.05" y1="300.56" x2="412.71" y2="300.56"/><line class="cls-4" x1="411.05" y1="282.84" x2="412.71" y2="282.84"/><line class="cls-4" x1="411.05" y1="392.56" x2="412.71" y2="392.56"/><line class="cls-4" x1="412.71" y1="392.56" x2="412.71" y2="392.34"/><line class="cls-4" x1="412.71" y1="302.34" x2="412.71" y2="300.56"/><line class="cls-4" x1="412.71" y1="282.84" x2="412.71" y2="267.38"/><line class="cls-4" x1="412.94" y1="302.07" x2="412.94" y2="300.56"/><line class="cls-4" x1="412.94" y1="282.84" x2="412.94" y2="267.6"/><line class="cls-4" x1="410.82" y1="282.84" x2="410.82" y2="283.18"/><line class="cls-4" x1="412.94" y1="282.84" x2="412.94" y2="283.18"/><line class="cls-4" x1="410.82" y1="282.84" x2="412.94" y2="282.84"/><line class="cls-4" x1="410.82" y1="283.18" x2="412.94" y2="283.18"/><line class="cls-4" x1="410.82" y1="300.18" x2="410.82" y2="300.56"/><line class="cls-4" x1="412.94" y1="300.18" x2="412.94" y2="300.56"/><line class="cls-4" x1="410.82" y1="300.18" x2="412.94" y2="300.18"/><line class="cls-4" x1="410.82" y1="300.56" x2="412.94" y2="300.56"/><line class="cls-4" x1="412.94" y1="300.18" x2="429.95" y2="300.18"/><line class="cls-4" x1="412.94" y1="299.54" x2="429.95" y2="299.54"/><line class="cls-4" x1="429.95" y1="300.18" x2="429.95" y2="299.54"/><line class="cls-4" x1="412.94" y1="299.54" x2="412.94" y2="300.18"/><line class="cls-4" x1="412.94" y1="283.18" x2="414" y2="283.21"/><line class="cls-4" x1="414" y1="283.21" x2="415.13" y2="283.33"/><line class="cls-4" x1="415.13" y1="283.33" x2="416.26" y2="283.52"/><line class="cls-4" x1="416.26" y1="283.52" x2="417.36" y2="283.78"/><line class="cls-4" x1="417.36" y1="283.78" x2="418.46" y2="284.12"/><line class="cls-4" x1="418.46" y1="284.12" x2="419.51" y2="284.5"/><line class="cls-4" x1="419.51" y1="284.5" x2="420.53" y2="284.99"/><line class="cls-4" x1="420.53" y1="284.99" x2="421.52" y2="285.52"/><line class="cls-4" x1="421.52" y1="285.52" x2="422.5" y2="286.12"/><line class="cls-4" x1="422.5" y1="286.12" x2="423.41" y2="286.8"/><line class="cls-4" x1="423.41" y1="286.8" x2="424.28" y2="287.52"/><line class="cls-4" x1="424.28" y1="287.52" x2="425.11" y2="288.32"/><line class="cls-4" x1="425.11" y1="288.32" x2="425.86" y2="289.15"/><line class="cls-4" x1="425.86" y1="289.15" x2="426.58" y2="290.02"/><line class="cls-4" x1="426.58" y1="290.02" x2="427.22" y2="290.96"/><line class="cls-4" x1="427.22" y1="290.96" x2="427.79" y2="291.94"/><line class="cls-4" x1="427.79" y1="291.94" x2="428.32" y2="292.93"/><line class="cls-4" x1="428.32" y1="292.93" x2="428.77" y2="293.99"/><line class="cls-4" x1="428.77" y1="293.99" x2="429.15" y2="295.04"/><line class="cls-4" x1="429.15" y1="295.04" x2="429.45" y2="296.14"/><line class="cls-4" x1="429.45" y1="296.14" x2="429.68" y2="297.24"/><line class="cls-4" x1="429.68" y1="297.24" x2="429.83" y2="298.37"/><line class="cls-4" x1="429.83" y1="298.37" x2="429.91" y2="299.5"/><line class="cls-4" x1="429.91" y1="299.5" x2="429.95" y2="300.18"/><line class="cls-4" x1="410.82" y1="283.06" x2="410.52" y2="283.06"/><line class="cls-4" x1="410.52" y1="283.06" x2="410.52" y2="281.55"/><line class="cls-4" x1="410.82" y1="281.55" x2="410.52" y2="281.55"/><line class="cls-4" x1="410.82" y1="300.34" x2="410.52" y2="300.34"/><line class="cls-4" x1="410.52" y1="301.85" x2="410.52" y2="300.34"/><line class="cls-4" x1="410.82" y1="301.85" x2="410.52" y2="301.85"/><line class="cls-4" x1="412.94" y1="300.34" x2="413.24" y2="300.34"/><line class="cls-4" x1="413.24" y1="301.85" x2="413.24" y2="300.34"/><line class="cls-4" x1="412.94" y1="301.85" x2="413.24" y2="301.85"/><line class="cls-4" x1="412.94" y1="283.06" x2="413.24" y2="283.06"/><line class="cls-4" x1="413.24" y1="283.06" x2="413.24" y2="281.55"/><line class="cls-4" x1="412.94" y1="281.55" x2="413.24" y2="281.55"/><line class="cls-4" x1="412.94" y1="267.6" x2="474.25" y2="267.6"/><line class="cls-4" x1="412.71" y1="267.38" x2="474.25" y2="267.38"/><line class="cls-4" x1="411.05" y1="264.77" x2="411.05" y2="267.38"/><line class="cls-4" x1="473.41" y1="264.77" x2="411.05" y2="264.77"/><line class="cls-4" x1="473.19" y1="264.54" x2="410.82" y2="264.54"/><line class="cls-4" x1="475.3" y1="164.11" x2="475.61" y2="164.11"/><line class="cls-4" x1="473.19" y1="164.11" x2="472.88" y2="164.11"/><line class="cls-4" x1="411.05" y1="392.34" x2="486.42" y2="392.34"/><line class="cls-4" x1="412.94" y1="392.56" x2="488.31" y2="392.56"/><line class="cls-4" x1="293.65" y1="334.92" x2="293.65" y2="391.62"/><line class="cls-4" x1="293.65" y1="239.97" x2="293.65" y2="334.92"/><line class="cls-4" x1="293.65" y1="158.21" x2="293.65" y2="239.97"/><line class="cls-4" x1="293.65" y1="391.62" x2="297.43" y2="391.62"/><line class="cls-4" x1="293.65" y1="391.62" x2="297.43" y2="391.62"/><line class="cls-4" x1="297.43" y1="158.21" x2="293.65" y2="158.21"/><line class="cls-4" x1="293.65" y1="158.21" x2="297.43" y2="158.21"/><line class="cls-4" x1="297.43" y1="390.12" x2="297.43" y2="334.92"/><line class="cls-4" x1="297.43" y1="334.92" x2="297.43" y2="239.97"/><line class="cls-4" x1="297.43" y1="239.97" x2="297.43" y2="161.47"/><line class="cls-4" x1="350.96" y1="161.99" x2="297.43" y2="161.99"/><line class="cls-4" x1="446.01" y1="161.99" x2="350.68" y2="161.99"/><line class="cls-4" x1="559.86" y1="161.99" x2="446.01" y2="161.99"/><line class="cls-4" x1="350.96" y1="162.22" x2="299.04" y2="162.22"/><line class="cls-4" x1="446.01" y1="162.22" x2="350.68" y2="162.22"/><line class="cls-4" x1="560.12" y1="162.22" x2="446.01" y2="162.22"/><line class="cls-4" x1="299.04" y1="163.88" x2="350.96" y2="163.88"/><line class="cls-4" x1="350.68" y1="163.88" x2="446.01" y2="163.88"/><line class="cls-4" x1="446.01" y1="163.88" x2="473.41" y2="163.88"/><line class="cls-4" x1="475.08" y1="163.88" x2="560.12" y2="163.88"/><line class="cls-4" x1="299.75" y1="164.11" x2="350.96" y2="164.11"/><line class="cls-4" x1="350.68" y1="164.11" x2="446.01" y2="164.11"/><line class="cls-4" x1="446.01" y1="164.11" x2="473.19" y2="164.11"/><line class="cls-4" x1="475.3" y1="164.11" x2="559.86" y2="164.11"/><line class="cls-4" x1="565.79" y1="227.98" x2="565.79" y2="158.21"/><line class="cls-4" x1="565.79" y1="268.89" x2="565.79" y2="258.38"/><line class="cls-4" x1="565.79" y1="254.6" x2="565.79" y2="227.69"/><line class="cls-4" x1="565.79" y1="158.21" x2="562.01" y2="158.21"/><line class="cls-4" x1="565.79" y1="158.21" x2="562.01" y2="158.21"/><line class="cls-4" x1="562.01" y1="268.89" x2="565.79" y2="268.89"/><line class="cls-4" x1="565.79" y1="268.89" x2="562.01" y2="268.89"/><line class="cls-4" x1="562.01" y1="160.1" x2="562.01" y2="227.98"/><line class="cls-4" x1="562.01" y1="227.69" x2="562.01" y2="265.11"/><line class="cls-4" x1="537.44" y1="385" x2="537.44" y2="379.33"/><line class="cls-4" x1="537.44" y1="375.55" x2="537.44" y2="268.89"/><line class="cls-4" x1="533.66" y1="385" x2="537.44" y2="385"/><line class="cls-4" x1="537.44" y1="385" x2="533.66" y2="385"/><line class="cls-4" x1="533.66" y1="268.89" x2="533.66" y2="381.22"/><line class="cls-4" x1="320.29" y1="288.28" x2="325.51" y2="288.28"/><line class="cls-4" x1="328.23" y1="288.28" x2="333.67" y2="288.28"/><line class="cls-4" x1="336.4" y1="288.28" x2="348.45" y2="288.28"/><line class="cls-4" x1="318.14" y1="290.39" x2="325.51" y2="290.39"/><line class="cls-4" x1="328.23" y1="290.39" x2="333.67" y2="290.39"/><line class="cls-4" x1="336.4" y1="290.39" x2="347.28" y2="290.39"/><line class="cls-4" x1="350.57" y1="290.39" x2="349.13" y2="290.39"/><line class="cls-4" x1="318.14" y1="267.6" x2="318.14" y2="274.67"/><line class="cls-4" x1="318.14" y1="277.39" x2="318.14" y2="282.84"/><line class="cls-4" x1="318.14" y1="285.56" x2="318.14" y2="290.39"/><line class="cls-4" x1="320.29" y1="267.6" x2="320.29" y2="274.67"/><line class="cls-4" x1="320.29" y1="277.39" x2="320.29" y2="282.84"/><line class="cls-4" x1="320.29" y1="285.56" x2="320.29" y2="288.28"/><line class="cls-4" x1="353.4" y1="309.63" x2="358.13" y2="309.63"/><line class="cls-4" x1="358.13" y1="309.63" x2="358.13" y2="289.94"/><line class="cls-4" x1="358.13" y1="289.94" x2="353.4" y2="289.94"/><line class="cls-4" x1="348.68" y1="309.63" x2="353.4" y2="309.63"/><line class="cls-4" x1="353.4" y1="309.63" x2="353.4" y2="289.94"/><line class="cls-4" x1="353.4" y1="289.94" x2="348.68" y2="289.94"/><line class="cls-4" x1="343.96" y1="309.63" x2="348.68" y2="309.63"/><line class="cls-4" x1="348.68" y1="309.63" x2="348.68" y2="289.94"/><line class="cls-4" x1="348.68" y1="289.94" x2="343.96" y2="289.94"/><line class="cls-4" x1="339.23" y1="309.63" x2="343.96" y2="309.63"/><line class="cls-4" x1="343.96" y1="309.63" x2="343.96" y2="289.94"/><line class="cls-4" x1="343.96" y1="289.94" x2="339.23" y2="289.94"/><line class="cls-4" x1="334.51" y1="309.63" x2="339.23" y2="309.63"/><line class="cls-4" x1="339.23" y1="309.63" x2="339.23" y2="289.94"/><line class="cls-4" x1="339.23" y1="289.94" x2="334.51" y2="289.94"/><line class="cls-4" x1="329.78" y1="309.63" x2="334.51" y2="309.63"/><line class="cls-4" x1="334.51" y1="309.63" x2="334.51" y2="289.94"/><line class="cls-4" x1="334.51" y1="289.94" x2="329.78" y2="289.94"/><line class="cls-4" x1="325.06" y1="309.63" x2="329.78" y2="309.63"/><line class="cls-4" x1="329.78" y1="309.63" x2="329.78" y2="289.94"/><line class="cls-4" x1="329.78" y1="289.94" x2="325.06" y2="289.94"/><line class="cls-4" x1="320.33" y1="309.63" x2="325.06" y2="309.63"/><line class="cls-4" x1="325.06" y1="309.63" x2="325.06" y2="289.94"/><line class="cls-4" x1="325.06" y1="289.94" x2="320.33" y2="289.94"/><line class="cls-4" x1="320.33" y1="309.63" x2="320.33" y2="289.94"/><rect class="cls-3" x="350.57" y="297.65" width="4.72" height="4.65"/><text class="cls-6" transform="translate(350.57 301.51)">U</text><text class="cls-6" transform="translate(353.1 301.51)">P</text><line class="cls-4" x1="347.74" y1="299.81" x2="324.57" y2="299.81"/><polygon class="cls-7" points="324.56 299.81 327.89 298.86 327.55 300.75 324.56 299.81"/><line class="cls-4" x1="324.57" y1="299.81" x2="327.89" y2="298.86"/><line class="cls-4" x1="327.89" y1="298.86" x2="327.55" y2="300.75"/><line class="cls-4" x1="327.55" y1="300.75" x2="324.57" y2="299.81"/><line class="cls-4" x1="320.33" y1="288.73" x2="320.33" y2="309.63"/><line class="cls-4" x1="320.33" y1="309.63" x2="299.54" y2="309.63"/><line class="cls-4" x1="299.54" y1="309.63" x2="299.54" y2="267.6"/><line class="cls-4" x1="299.54" y1="267.6" x2="320.33" y2="267.6"/><line class="cls-4" x1="320.33" y1="267.6" x2="320.33" y2="288.5"/><line class="cls-4" x1="320.33" y1="288.5" x2="320.33" y2="288.73"/><line class="cls-4" x1="325.06" y1="267.6" x2="320.33" y2="267.6"/><line class="cls-4" x1="320.33" y1="267.6" x2="320.33" y2="287.33"/><line class="cls-4" x1="320.33" y1="287.33" x2="325.06" y2="287.33"/><line class="cls-4" x1="329.78" y1="267.6" x2="325.06" y2="267.6"/><line class="cls-4" x1="325.06" y1="267.6" x2="325.06" y2="287.33"/><line class="cls-4" x1="325.06" y1="287.33" x2="329.78" y2="287.33"/><line class="cls-4" x1="334.51" y1="267.6" x2="329.78" y2="267.6"/><line class="cls-4" x1="329.78" y1="267.6" x2="329.78" y2="287.33"/><line class="cls-4" x1="329.78" y1="287.33" x2="334.51" y2="287.33"/><line class="cls-4" x1="339.23" y1="267.6" x2="334.51" y2="267.6"/><line class="cls-4" x1="334.51" y1="267.6" x2="334.51" y2="287.33"/><line class="cls-4" x1="334.51" y1="287.33" x2="339.23" y2="287.33"/><line class="cls-4" x1="343.96" y1="267.6" x2="339.23" y2="267.6"/><line class="cls-4" x1="339.23" y1="267.6" x2="339.23" y2="287.33"/><line class="cls-4" x1="339.23" y1="287.33" x2="343.96" y2="287.33"/><line class="cls-4" x1="348.68" y1="267.6" x2="343.96" y2="267.6"/><line class="cls-4" x1="343.96" y1="267.6" x2="343.96" y2="287.33"/><line class="cls-4" x1="343.96" y1="287.33" x2="348.68" y2="287.33"/><line class="cls-4" x1="348.68" y1="267.6" x2="348.68" y2="287.33"/><line class="cls-4" x1="466.57" y1="304.91" x2="475.08" y2="304.91"/><line class="cls-4" x1="431.12" y1="304.91" x2="439.62" y2="304.91"/><rect class="cls-5" x="411.05" y="300.56" width="1.66" height="4.49"/><line class="cls-4" x1="410.82" y1="300.56" x2="410.82" y2="305.05"/><line class="cls-4" x1="411.05" y1="300.56" x2="411.05" y2="305.05"/><text class="cls-8" transform="translate(451.85 287.52)">UTILITY</text><text class="cls-8" transform="translate(582.85 320.58)">UNEXCAVATED</text></g></g></svg>