<svg id="图层_1" data-name="图层 1" xmlns="http://www.w3.org/2000/svg" viewBox="0 0 1008 504"><defs><style>.cls-1{fill:#0b4d6e;}.cls-2{fill:none;stroke:#0b4d6e;stroke-linecap:round;stroke-linejoin:bevel;stroke-width:0.15px;}.cls-3{font-size:7px;fill:#0c4f71;font-family:CenturyGothic, Century Gothic;}</style></defs><g id="GYM_CLOSET" data-name="GYM CLOSET"><rect class="cls-1" x="504.11" y="276.23" width="2.15" height="1.66"/><rect class="cls-1" x="529.62" y="276.23" width="2.15" height="1.66"/><line class="cls-2" x1="506.26" y1="276.01" x2="503.31" y2="276.01"/><line class="cls-2" x1="532.61" y1="276.01" x2="529.62" y2="276.01"/><line class="cls-2" x1="506.26" y1="276.01" x2="506.26" y2="278.12"/><line class="cls-2" x1="529.62" y1="276.01" x2="529.62" y2="278.12"/><line class="cls-2" x1="506.26" y1="276.23" x2="504.11" y2="276.23"/><line class="cls-2" x1="531.77" y1="276.23" x2="529.62" y2="276.23"/><line class="cls-2" x1="506.26" y1="276.23" x2="506.26" y2="277.9"/><line class="cls-2" x1="529.62" y1="276.23" x2="529.62" y2="277.9"/><line class="cls-2" x1="504.11" y1="277.9" x2="506.26" y2="277.9"/><line class="cls-2" x1="529.62" y1="277.9" x2="531.77" y2="277.9"/><line class="cls-2" x1="504.37" y1="278.12" x2="506.26" y2="278.12"/><line class="cls-2" x1="529.62" y1="278.12" x2="531.51" y2="278.12"/><line class="cls-2" x1="529.62" y1="276.01" x2="529.28" y2="276.01"/><line class="cls-2" x1="529.62" y1="278.12" x2="529.28" y2="278.12"/><line class="cls-2" x1="529.62" y1="276.01" x2="529.62" y2="278.12"/><line class="cls-2" x1="529.28" y1="276.01" x2="529.28" y2="278.12"/><line class="cls-2" x1="506.6" y1="276.01" x2="506.26" y2="276.01"/><line class="cls-2" x1="506.6" y1="278.12" x2="506.26" y2="278.12"/><line class="cls-2" x1="506.6" y1="276.01" x2="506.6" y2="278.12"/><line class="cls-2" x1="506.26" y1="276.01" x2="506.26" y2="278.12"/><line class="cls-2" x1="506.6" y1="276.01" x2="506.6" y2="264.67"/><line class="cls-2" x1="507.24" y1="276.01" x2="507.24" y2="264.67"/><line class="cls-2" x1="506.6" y1="264.67" x2="507.24" y2="264.67"/><line class="cls-2" x1="507.24" y1="276.01" x2="506.6" y2="276.01"/><line class="cls-2" x1="517.94" y1="276.01" x2="517.9" y2="274.98"/><line class="cls-2" x1="517.9" y1="274.98" x2="517.75" y2="274"/><line class="cls-2" x1="517.75" y1="274" x2="517.52" y2="272.87"/><line class="cls-2" x1="517.52" y1="272.87" x2="517.15" y2="271.81"/><line class="cls-2" x1="517.15" y1="271.81" x2="516.65" y2="270.79"/><line class="cls-2" x1="516.65" y1="270.79" x2="516.09" y2="269.81"/><line class="cls-2" x1="516.09" y1="269.81" x2="515.45" y2="268.9"/><line class="cls-2" x1="515.45" y1="268.9" x2="514.69" y2="268.03"/><line class="cls-2" x1="514.69" y1="268.03" x2="513.86" y2="267.27"/><line class="cls-2" x1="513.86" y1="267.27" x2="512.95" y2="266.59"/><line class="cls-2" x1="512.95" y1="266.59" x2="511.97" y2="265.99"/><line class="cls-2" x1="511.97" y1="265.99" x2="510.95" y2="265.54"/><line class="cls-2" x1="510.95" y1="265.54" x2="509.89" y2="265.16"/><line class="cls-2" x1="509.89" y1="265.16" x2="508.79" y2="264.85"/><line class="cls-2" x1="508.79" y1="264.85" x2="507.7" y2="264.7"/><line class="cls-2" x1="507.7" y1="264.7" x2="506.6" y2="264.67"/><line class="cls-2" x1="529.28" y1="276.01" x2="529.28" y2="264.67"/><line class="cls-2" x1="528.64" y1="276.01" x2="528.64" y2="264.67"/><line class="cls-2" x1="529.28" y1="264.67" x2="528.64" y2="264.67"/><line class="cls-2" x1="528.64" y1="276.01" x2="529.28" y2="276.01"/><line class="cls-2" x1="517.94" y1="276.01" x2="517.98" y2="274.98"/><line class="cls-2" x1="517.98" y1="274.98" x2="518.13" y2="274"/><line class="cls-2" x1="518.13" y1="274" x2="518.36" y2="272.87"/><line class="cls-2" x1="518.36" y1="272.87" x2="518.73" y2="271.81"/><line class="cls-2" x1="518.73" y1="271.81" x2="519.23" y2="270.79"/><line class="cls-2" x1="519.23" y1="270.79" x2="519.79" y2="269.81"/><line class="cls-2" x1="519.79" y1="269.81" x2="520.43" y2="268.9"/><line class="cls-2" x1="520.43" y1="268.9" x2="521.19" y2="268.03"/><line class="cls-2" x1="521.19" y1="268.03" x2="522.02" y2="267.27"/><line class="cls-2" x1="522.02" y1="267.27" x2="522.93" y2="266.59"/><line class="cls-2" x1="522.93" y1="266.59" x2="523.91" y2="265.99"/><line class="cls-2" x1="523.91" y1="265.99" x2="524.93" y2="265.54"/><line class="cls-2" x1="524.93" y1="265.54" x2="525.99" y2="265.16"/><line class="cls-2" x1="525.99" y1="265.16" x2="527.09" y2="264.85"/><line class="cls-2" x1="527.09" y1="264.85" x2="528.18" y2="264.7"/><line class="cls-2" x1="528.18" y1="264.7" x2="529.28" y2="264.67"/><line class="cls-2" x1="529.39" y1="276.01" x2="529.39" y2="275.7"/><line class="cls-2" x1="529.39" y1="275.7" x2="530.94" y2="275.7"/><line class="cls-2" x1="530.94" y1="276.01" x2="530.94" y2="275.7"/><line class="cls-2" x1="506.49" y1="276.01" x2="506.49" y2="275.7"/><line class="cls-2" x1="504.94" y1="275.7" x2="506.49" y2="275.7"/><line class="cls-2" x1="504.94" y1="276.01" x2="504.94" y2="275.7"/><line class="cls-2" x1="506.49" y1="278.12" x2="506.49" y2="278.42"/><line class="cls-2" x1="504.94" y1="278.42" x2="506.49" y2="278.42"/><line class="cls-2" x1="504.94" y1="278.12" x2="504.94" y2="278.42"/><line class="cls-2" x1="529.39" y1="278.12" x2="529.39" y2="278.42"/><line class="cls-2" x1="529.39" y1="278.42" x2="530.94" y2="278.42"/><line class="cls-2" x1="530.94" y1="278.12" x2="530.94" y2="278.42"/><text class="cls-3" transform="translate(505.23 288.35)">CLOSET</text></g></svg>