<svg id="图层_1" data-name="图层 1" xmlns="http://www.w3.org/2000/svg" viewBox="0 0 1008 504"><defs><style>.cls-1{fill:#fff;}.cls-2{fill:none;stroke:#0c4f71;stroke-linecap:round;stroke-linejoin:bevel;stroke-width:0.15px;}</style></defs><title>KITCHEN--WINDOW2</title><g id="merlot-IFP_main_floor" data-name="merlot-IFP main floor"><g id="KITCHEN--WINDOW2"><g id="KITCHEN--WINDOW-2"><rect class="cls-1" x="562.54" y="191.07" width="3.59" height="11.34"/><line class="cls-2" x1="562.84" y1="190.95" x2="562.84" y2="202.9"/><line class="cls-2" x1="566.13" y1="189.44" x2="565.9" y2="189.44"/><line class="cls-2" x1="565.9" y1="191.07" x2="562.84" y2="191.07"/><line class="cls-2" x1="566.13" y1="204.07" x2="565.9" y2="204.07"/><line class="cls-2" x1="565.9" y1="202.41" x2="562.84" y2="202.41"/><line class="cls-2" x1="565.68" y1="191.07" x2="563.11" y2="191.07"/><line class="cls-2" x1="565.68" y1="202.41" x2="563.11" y2="202.41"/><line class="cls-2" x1="566.13" y1="191.07" x2="566.13" y2="202.41"/><line class="cls-2" x1="562.84" y1="191.07" x2="562.84" y2="202.41"/><line class="cls-2" x1="565.9" y1="202.41" x2="565.9" y2="202.07"/><line class="cls-2" x1="562.84" y1="202.41" x2="562.84" y2="202.07"/><line class="cls-2" x1="565.9" y1="202.41" x2="562.84" y2="202.41"/><line class="cls-2" x1="565.9" y1="202.07" x2="562.84" y2="202.07"/><line class="cls-2" x1="565.9" y1="191.45" x2="565.9" y2="191.07"/><line class="cls-2" x1="562.84" y1="191.45" x2="562.84" y2="191.07"/><line class="cls-2" x1="565.9" y1="191.45" x2="562.84" y2="191.45"/><line class="cls-2" x1="565.9" y1="191.07" x2="562.84" y2="191.07"/><line class="cls-2" x1="565.3" y1="202.07" x2="565.3" y2="191.45"/><line class="cls-2" x1="564.92" y1="202.07" x2="564.92" y2="191.45"/><line class="cls-2" x1="565.9" y1="202.41" x2="566.24" y2="202.41"/><line class="cls-2" x1="566.24" y1="202.41" x2="566.24" y2="204.07"/><line class="cls-2" x1="565.9" y1="204.07" x2="566.24" y2="204.07"/><line class="cls-2" x1="565.9" y1="191.07" x2="566.24" y2="191.07"/><line class="cls-2" x1="566.24" y1="189.44" x2="566.24" y2="191.07"/><line class="cls-2" x1="565.9" y1="189.44" x2="566.24" y2="189.44"/><line class="cls-2" x1="562.84" y1="191.37" x2="562.54" y2="191.37"/><line class="cls-2" x1="562.54" y1="189.86" x2="562.54" y2="191.37"/><line class="cls-2" x1="562.84" y1="189.86" x2="562.54" y2="189.86"/><line class="cls-2" x1="562.84" y1="189.86" x2="562.84" y2="191.37"/><line class="cls-2" x1="562.84" y1="202.14" x2="562.54" y2="202.14"/><line class="cls-2" x1="562.54" y1="202.14" x2="562.54" y2="203.65"/><line class="cls-2" x1="562.84" y1="203.65" x2="562.54" y2="203.65"/><line class="cls-2" x1="562.84" y1="202.14" x2="562.84" y2="203.65"/></g><g id="KITCHEN--WINDOW-2-2" data-name="KITCHEN--WINDOW-2"><rect class="cls-1" x="562.54" y="248.71" width="3.7" height="11.25"/><line class="cls-2" x1="562.84" y1="248.26" x2="562.84" y2="260.2"/><line class="cls-2" x1="566.13" y1="247.08" x2="565.9" y2="247.08"/><line class="cls-2" x1="565.9" y1="248.71" x2="562.84" y2="248.71"/><line class="cls-2" x1="566.13" y1="261.71" x2="565.9" y2="261.71"/><line class="cls-2" x1="565.9" y1="260.05" x2="562.84" y2="260.05"/><line class="cls-2" x1="565.68" y1="248.71" x2="563.11" y2="248.71"/><line class="cls-2" x1="565.68" y1="260.05" x2="563.11" y2="260.05"/><line class="cls-2" x1="566.13" y1="248.71" x2="566.13" y2="260.05"/><line class="cls-2" x1="562.84" y1="248.71" x2="562.84" y2="260.05"/><line class="cls-2" x1="565.9" y1="260.05" x2="565.9" y2="259.71"/><line class="cls-2" x1="562.84" y1="260.05" x2="562.84" y2="259.71"/><line class="cls-2" x1="565.9" y1="260.05" x2="562.84" y2="260.05"/><line class="cls-2" x1="565.9" y1="259.71" x2="562.84" y2="259.71"/><line class="cls-2" x1="565.9" y1="249.09" x2="565.9" y2="248.71"/><line class="cls-2" x1="562.84" y1="249.09" x2="562.84" y2="248.71"/><line class="cls-2" x1="565.9" y1="249.09" x2="562.84" y2="249.09"/><line class="cls-2" x1="565.9" y1="248.71" x2="562.84" y2="248.71"/><line class="cls-2" x1="565.3" y1="259.71" x2="565.3" y2="249.09"/><line class="cls-2" x1="564.92" y1="259.71" x2="564.92" y2="249.09"/><line class="cls-2" x1="565.9" y1="260.05" x2="566.24" y2="260.05"/><line class="cls-2" x1="566.24" y1="260.05" x2="566.24" y2="261.71"/><line class="cls-2" x1="565.9" y1="261.71" x2="566.24" y2="261.71"/><line class="cls-2" x1="565.9" y1="248.71" x2="566.24" y2="248.71"/><line class="cls-2" x1="566.24" y1="247.08" x2="566.24" y2="248.71"/><line class="cls-2" x1="565.9" y1="247.08" x2="566.24" y2="247.08"/><line class="cls-2" x1="562.84" y1="249.01" x2="562.54" y2="249.01"/><line class="cls-2" x1="562.54" y1="247.5" x2="562.54" y2="249.01"/><line class="cls-2" x1="562.84" y1="247.5" x2="562.54" y2="247.5"/><line class="cls-2" x1="562.84" y1="247.5" x2="562.84" y2="249.01"/><line class="cls-2" x1="562.84" y1="259.78" x2="562.54" y2="259.78"/><line class="cls-2" x1="562.54" y1="259.78" x2="562.54" y2="261.3"/><line class="cls-2" x1="562.84" y1="261.3" x2="562.54" y2="261.3"/><line class="cls-2" x1="562.84" y1="259.78" x2="562.84" y2="261.3"/></g></g></g></svg>