<svg id="图层_1" data-name="图层 1" xmlns="http://www.w3.org/2000/svg" viewBox="0 0 1008 504"><defs><style>.cls-1,.cls-2{fill:none;stroke:#0c4f71;stroke-linecap:round;stroke-linejoin:bevel;stroke-width:0.23px;}.cls-1{fill-rule:evenodd;}</style></defs><g id="FREE_STANDING_TUB-1" data-name="FREE STANDING TUB-1"><polygon class="cls-1" points="532.89 182.85 532.92 182.81 532.55 181.79 532.89 182.85"/><polygon class="cls-1" points="532.92 182.81 532.89 182.85 533.04 183.91 532.89 184.97 532.92 185.01 533.04 183.91 532.92 182.81"/><polygon class="cls-1" points="532.92 185.01 532.89 184.97 532.55 186.03 532.92 185.01"/><line class="cls-2" x1="532.92" y1="185.01" x2="533.04" y2="183.91"/><line class="cls-2" x1="533.04" y1="183.91" x2="532.92" y2="182.81"/><line class="cls-2" x1="532.92" y1="182.81" x2="532.55" y2="181.79"/><line class="cls-2" x1="532.55" y1="181.79" x2="532.89" y2="182.85"/><line class="cls-2" x1="532.89" y1="182.85" x2="533.04" y2="183.91"/><line class="cls-2" x1="533.04" y1="183.91" x2="532.89" y2="184.97"/><line class="cls-2" x1="532.89" y1="184.97" x2="532.55" y2="186.03"/><line class="cls-2" x1="532.55" y1="186.03" x2="532.92" y2="185.01"/><polygon class="cls-1" points="502.16 186.03 501.82 185.01 501.7 183.91 501.82 182.85 501.82 182.81 501.7 183.91 501.82 184.97 502.16 186.03"/><polygon class="cls-1" points="501.82 182.81 501.82 182.85 502.16 181.79 501.82 182.81"/><line class="cls-2" x1="501.82" y1="185.01" x2="501.7" y2="183.91"/><line class="cls-2" x1="501.7" y1="183.91" x2="501.82" y2="182.85"/><line class="cls-2" x1="501.82" y1="182.85" x2="502.16" y2="181.79"/><line class="cls-2" x1="502.16" y1="181.79" x2="501.82" y2="182.81"/><line class="cls-2" x1="501.82" y1="182.81" x2="501.7" y2="183.91"/><line class="cls-2" x1="501.7" y1="183.91" x2="501.82" y2="184.97"/><line class="cls-2" x1="501.82" y1="184.97" x2="502.16" y2="186.03"/><line class="cls-2" x1="502.16" y1="186.03" x2="501.82" y2="185.01"/><polygon class="cls-1" points="533.6 186.29 534.02 185.16 534.13 183.91 534.02 182.7 533.6 181.53 533 180.43 532.13 179.45 531.11 178.58 529.9 177.86 528.54 177.3 527.03 176.92 525.44 176.73 523.66 176.58 521.85 176.46 520.07 176.39 518.26 176.35 516.48 176.35 514.67 176.39 512.89 176.46 511.08 176.58 509.3 176.73 507.71 176.92 506.2 177.3 504.84 177.86 503.63 178.58 502.61 179.45 501.74 180.43 501.14 181.53 500.72 182.7 500.61 183.91 500.72 185.16 501.14 186.29 501.74 187.39 502.61 188.37 503.63 189.24 504.84 189.96 506.2 190.53 507.71 190.9 509.3 191.13 511.08 191.24 512.89 191.36 514.67 191.43 516.48 191.47 518.26 191.47 520.07 191.43 521.85 191.36 523.66 191.24 525.44 191.13 527.03 190.9 528.54 190.53 529.9 189.96 531.11 189.24 532.13 188.37 533 187.39 533.6 186.29"/><line class="cls-2" x1="534.02" y1="185.16" x2="534.13" y2="183.91"/><line class="cls-2" x1="534.13" y1="183.91" x2="534.02" y2="182.7"/><line class="cls-2" x1="534.02" y1="182.7" x2="533.6" y2="181.53"/><line class="cls-2" x1="533.6" y1="181.53" x2="533" y2="180.43"/><line class="cls-2" x1="533" y1="180.43" x2="532.13" y2="179.45"/><line class="cls-2" x1="532.13" y1="179.45" x2="531.11" y2="178.58"/><line class="cls-2" x1="531.11" y1="178.58" x2="529.9" y2="177.86"/><line class="cls-2" x1="529.9" y1="177.86" x2="528.54" y2="177.3"/><line class="cls-2" x1="528.54" y1="177.3" x2="527.03" y2="176.92"/><line class="cls-2" x1="527.03" y1="176.92" x2="525.44" y2="176.73"/><line class="cls-2" x1="525.44" y1="176.73" x2="523.66" y2="176.58"/><line class="cls-2" x1="523.66" y1="176.58" x2="521.85" y2="176.46"/><line class="cls-2" x1="521.85" y1="176.46" x2="520.07" y2="176.39"/><line class="cls-2" x1="520.07" y1="176.39" x2="518.26" y2="176.35"/><line class="cls-2" x1="518.26" y1="176.35" x2="516.48" y2="176.35"/><line class="cls-2" x1="516.48" y1="176.35" x2="514.67" y2="176.39"/><line class="cls-2" x1="514.67" y1="176.39" x2="512.89" y2="176.46"/><line class="cls-2" x1="512.89" y1="176.46" x2="511.08" y2="176.58"/><line class="cls-2" x1="511.08" y1="176.58" x2="509.3" y2="176.73"/><line class="cls-2" x1="509.3" y1="176.73" x2="507.71" y2="176.92"/><line class="cls-2" x1="507.71" y1="176.92" x2="506.2" y2="177.3"/><line class="cls-2" x1="506.2" y1="177.3" x2="504.84" y2="177.86"/><line class="cls-2" x1="504.84" y1="177.86" x2="503.63" y2="178.58"/><line class="cls-2" x1="503.63" y1="178.58" x2="502.61" y2="179.45"/><line class="cls-2" x1="502.61" y1="179.45" x2="501.74" y2="180.43"/><line class="cls-2" x1="501.74" y1="180.43" x2="501.14" y2="181.53"/><line class="cls-2" x1="501.14" y1="181.53" x2="500.72" y2="182.7"/><line class="cls-2" x1="500.72" y1="185.16" x2="501.14" y2="186.29"/><line class="cls-2" x1="501.14" y1="186.29" x2="501.74" y2="187.39"/><line class="cls-2" x1="501.74" y1="187.39" x2="502.61" y2="188.37"/><line class="cls-2" x1="502.61" y1="188.37" x2="503.63" y2="189.24"/><line class="cls-2" x1="503.63" y1="189.24" x2="504.84" y2="189.96"/><line class="cls-2" x1="504.84" y1="189.96" x2="506.2" y2="190.52"/><line class="cls-2" x1="506.2" y1="190.52" x2="507.71" y2="190.9"/><line class="cls-2" x1="507.71" y1="190.9" x2="509.3" y2="191.13"/><line class="cls-2" x1="509.3" y1="191.13" x2="511.08" y2="191.24"/><line class="cls-2" x1="511.08" y1="191.24" x2="512.89" y2="191.36"/><line class="cls-2" x1="512.89" y1="191.36" x2="514.67" y2="191.43"/><line class="cls-2" x1="514.67" y1="191.43" x2="516.48" y2="191.47"/><line class="cls-2" x1="516.48" y1="191.47" x2="518.26" y2="191.47"/><line class="cls-2" x1="518.26" y1="191.47" x2="520.07" y2="191.43"/><line class="cls-2" x1="520.07" y1="191.43" x2="521.85" y2="191.36"/><line class="cls-2" x1="521.85" y1="191.36" x2="523.66" y2="191.24"/><line class="cls-2" x1="523.66" y1="191.24" x2="525.44" y2="191.13"/><line class="cls-2" x1="525.44" y1="191.13" x2="527.03" y2="190.9"/><line class="cls-2" x1="527.03" y1="190.9" x2="528.54" y2="190.52"/><line class="cls-2" x1="528.54" y1="190.52" x2="529.9" y2="189.96"/><line class="cls-2" x1="529.9" y1="189.96" x2="531.11" y2="189.24"/><line class="cls-2" x1="531.11" y1="189.24" x2="532.13" y2="188.37"/><line class="cls-2" x1="532.13" y1="188.37" x2="533" y2="187.39"/><line class="cls-2" x1="533" y1="187.39" x2="533.6" y2="186.29"/><line class="cls-2" x1="533.6" y1="186.29" x2="534.02" y2="185.16"/><line class="cls-2" x1="517.5" y1="178.58" x2="517.62" y2="178.58"/><line class="cls-2" x1="517.62" y1="178.58" x2="517.77" y2="178.54"/><line class="cls-2" x1="517.77" y1="178.54" x2="517.88" y2="178.54"/><line class="cls-2" x1="517.88" y1="178.54" x2="517.96" y2="178.54"/><line class="cls-2" x1="517.96" y1="178.54" x2="517.99" y2="178.51"/><line class="cls-2" x1="517.99" y1="178.51" x2="518.07" y2="178.32"/><line class="cls-2" x1="518.07" y1="178.32" x2="518.03" y2="178.28"/><line class="cls-2" x1="518.03" y1="178.28" x2="517.92" y2="178.28"/><line class="cls-2" x1="517.92" y1="178.28" x2="517.8" y2="178.28"/><line class="cls-2" x1="517.8" y1="178.28" x2="517.62" y2="178.24"/><line class="cls-2" x1="517.62" y1="178.24" x2="517.46" y2="178.24"/><line class="cls-2" x1="517.46" y1="178.24" x2="517.28" y2="178.24"/><line class="cls-2" x1="517.28" y1="178.24" x2="517.09" y2="178.24"/><line class="cls-2" x1="517.09" y1="178.24" x2="516.94" y2="178.28"/><line class="cls-2" x1="516.94" y1="178.28" x2="516.82" y2="178.28"/><line class="cls-2" x1="516.82" y1="178.28" x2="516.71" y2="178.32"/><line class="cls-2" x1="516.71" y1="178.32" x2="516.67" y2="178.32"/><line class="cls-2" x1="516.67" y1="178.32" x2="516.67" y2="178.35"/><line class="cls-2" x1="516.67" y1="178.35" x2="516.78" y2="178.51"/><line class="cls-2" x1="517.28" y1="178.58" x2="517.16" y2="178.58"/><line class="cls-2" x1="517.16" y1="178.58" x2="517.01" y2="178.54"/><line class="cls-2" x1="517.01" y1="178.54" x2="516.9" y2="178.54"/><line class="cls-2" x1="516.9" y1="178.54" x2="516.82" y2="178.54"/><line class="cls-2" x1="516.82" y1="178.54" x2="516.78" y2="178.51"/><line class="cls-2" x1="516.78" y1="178.51" x2="516.75" y2="178.51"/><line class="cls-2" x1="516.75" y1="178.51" x2="516.78" y2="178.47"/><line class="cls-2" x1="516.78" y1="178.47" x2="516.86" y2="178.47"/><line class="cls-2" x1="516.86" y1="178.47" x2="516.97" y2="178.47"/><line class="cls-2" x1="516.97" y1="178.47" x2="517.12" y2="178.43"/><line class="cls-2" x1="517.12" y1="178.43" x2="517.28" y2="178.43"/><line class="cls-2" x1="517.28" y1="178.43" x2="517.43" y2="178.43"/><line class="cls-2" x1="517.43" y1="178.43" x2="517.58" y2="178.43"/><line class="cls-2" x1="517.58" y1="178.43" x2="517.73" y2="178.47"/><line class="cls-2" x1="517.73" y1="178.47" x2="517.84" y2="178.47"/><line class="cls-2" x1="517.84" y1="178.47" x2="517.92" y2="178.47"/><line class="cls-2" x1="517.92" y1="178.47" x2="517.99" y2="178.51"/><line class="cls-2" x1="517.28" y1="178.69" x2="517.35" y2="178.77"/><line class="cls-2" x1="517.35" y1="178.77" x2="517.5" y2="178.69"/><line class="cls-2" x1="517.5" y1="178.69" x2="517.46" y2="178.69"/><line class="cls-2" x1="517.46" y1="178.69" x2="517.43" y2="178.69"/><line class="cls-2" x1="517.43" y1="178.69" x2="517.39" y2="178.69"/><line class="cls-2" x1="517.39" y1="178.69" x2="517.35" y2="178.69"/><line class="cls-2" x1="517.35" y1="178.51" x2="517.31" y2="178.51"/><line class="cls-2" x1="517.31" y1="178.51" x2="517.28" y2="178.51"/><line class="cls-2" x1="517.28" y1="178.51" x2="517.28" y2="178.69"/><line class="cls-2" x1="517.28" y1="178.69" x2="517.31" y2="178.69"/><line class="cls-2" x1="517.31" y1="178.69" x2="517.35" y2="178.69"/><line class="cls-2" x1="517.5" y1="178.69" x2="517.5" y2="178.51"/><line class="cls-2" x1="517.5" y1="178.51" x2="517.46" y2="178.51"/><line class="cls-2" x1="517.46" y1="178.51" x2="517.43" y2="178.51"/><line class="cls-2" x1="517.43" y1="178.51" x2="517.39" y2="178.51"/><line class="cls-2" x1="517.39" y1="178.51" x2="517.35" y2="178.51"/><polygon class="cls-1" points="517.77 180.62 517.8 180.55 517.77 180.47 517.73 180.4 517.69 180.32 517.58 180.28 517.5 180.24 517.39 180.24 517.28 180.24 517.2 180.28 517.09 180.32 517.05 180.4 516.97 180.47 516.97 180.55 516.97 180.62 517.05 180.7 517.09 180.77 517.2 180.81 517.28 180.85 517.39 180.89 517.5 180.85 517.58 180.81 517.69 180.77 517.73 180.7 517.77 180.62"/><line class="cls-2" x1="517.8" y1="180.55" x2="517.77" y2="180.47"/><line class="cls-2" x1="517.77" y1="180.47" x2="517.73" y2="180.4"/><line class="cls-2" x1="517.73" y1="180.4" x2="517.69" y2="180.32"/><line class="cls-2" x1="517.69" y1="180.32" x2="517.58" y2="180.28"/><line class="cls-2" x1="517.58" y1="180.28" x2="517.5" y2="180.24"/><line class="cls-2" x1="517.5" y1="180.24" x2="517.39" y2="180.24"/><line class="cls-2" x1="517.39" y1="180.24" x2="517.28" y2="180.24"/><line class="cls-2" x1="517.28" y1="180.24" x2="517.2" y2="180.28"/><line class="cls-2" x1="517.2" y1="180.28" x2="517.09" y2="180.32"/><line class="cls-2" x1="517.09" y1="180.32" x2="517.05" y2="180.4"/><line class="cls-2" x1="517.05" y1="180.4" x2="516.97" y2="180.47"/><line class="cls-2" x1="516.97" y1="180.47" x2="516.97" y2="180.55"/><line class="cls-2" x1="516.97" y1="180.55" x2="516.97" y2="180.62"/><line class="cls-2" x1="516.97" y1="180.62" x2="517.05" y2="180.7"/><line class="cls-2" x1="517.05" y1="180.7" x2="517.09" y2="180.77"/><line class="cls-2" x1="517.09" y1="180.77" x2="517.2" y2="180.81"/><line class="cls-2" x1="517.2" y1="180.81" x2="517.28" y2="180.85"/><line class="cls-2" x1="517.28" y1="180.85" x2="517.39" y2="180.89"/><line class="cls-2" x1="517.39" y1="180.89" x2="517.5" y2="180.85"/><line class="cls-2" x1="517.5" y1="180.85" x2="517.58" y2="180.81"/><line class="cls-2" x1="517.58" y1="180.81" x2="517.69" y2="180.77"/><line class="cls-2" x1="517.69" y1="180.77" x2="517.73" y2="180.7"/><line class="cls-2" x1="517.73" y1="180.7" x2="517.77" y2="180.62"/><line class="cls-2" x1="517.77" y1="180.62" x2="517.8" y2="180.55"/><polygon class="cls-1" points="518.03 180.7 518.07 180.55 518.03 180.43 517.96 180.28 517.88 180.21 517.73 180.09 517.58 180.06 517.39 180.06 517.2 180.06 517.05 180.09 516.9 180.21 516.82 180.28 516.75 180.43 516.71 180.55 516.75 180.7 516.82 180.81 516.9 180.92 517.05 181 517.2 181.04 517.39 181.07 517.58 181.04 517.73 181 517.88 180.92 517.96 180.81 518.03 180.7"/><line class="cls-2" x1="518.07" y1="180.55" x2="518.03" y2="180.43"/><line class="cls-2" x1="518.03" y1="180.43" x2="517.96" y2="180.28"/><line class="cls-2" x1="517.96" y1="180.28" x2="517.88" y2="180.21"/><line class="cls-2" x1="517.88" y1="180.21" x2="517.73" y2="180.09"/><line class="cls-2" x1="517.73" y1="180.09" x2="517.58" y2="180.05"/><line class="cls-2" x1="517.58" y1="180.05" x2="517.39" y2="180.05"/><line class="cls-2" x1="517.39" y1="180.05" x2="517.2" y2="180.05"/><line class="cls-2" x1="517.2" y1="180.05" x2="517.05" y2="180.09"/><line class="cls-2" x1="517.05" y1="180.09" x2="516.9" y2="180.21"/><line class="cls-2" x1="516.9" y1="180.21" x2="516.82" y2="180.28"/><line class="cls-2" x1="516.82" y1="180.28" x2="516.75" y2="180.43"/><line class="cls-2" x1="516.75" y1="180.43" x2="516.71" y2="180.55"/><line class="cls-2" x1="516.71" y1="180.55" x2="516.75" y2="180.7"/><line class="cls-2" x1="516.75" y1="180.7" x2="516.82" y2="180.81"/><line class="cls-2" x1="516.82" y1="180.81" x2="516.9" y2="180.92"/><line class="cls-2" x1="516.9" y1="180.92" x2="517.05" y2="181"/><line class="cls-2" x1="517.05" y1="181" x2="517.2" y2="181.04"/><line class="cls-2" x1="517.2" y1="181.04" x2="517.39" y2="181.08"/><line class="cls-2" x1="517.39" y1="181.08" x2="517.58" y2="181.04"/><line class="cls-2" x1="517.58" y1="181.04" x2="517.73" y2="181"/><line class="cls-2" x1="517.73" y1="181" x2="517.88" y2="180.92"/><line class="cls-2" x1="517.88" y1="180.92" x2="517.96" y2="180.81"/><line class="cls-2" x1="517.96" y1="180.81" x2="518.03" y2="180.7"/><line class="cls-2" x1="518.03" y1="180.7" x2="518.07" y2="180.55"/><polygon class="cls-1" points="517.77 180.62 517.77 180.55 517.77 180.47 517.73 180.4 517.65 180.36 517.58 180.32 517.5 180.28 517.39 180.28 517.28 180.28 517.2 180.32 517.12 180.36 517.05 180.4 517.01 180.47 517.01 180.55 517.01 180.62 517.05 180.7 517.12 180.77 517.2 180.81 517.28 180.85 517.39 180.85 517.5 180.85 517.58 180.81 517.65 180.77 517.73 180.7 517.77 180.62"/><line class="cls-2" x1="517.77" y1="180.55" x2="517.77" y2="180.47"/><line class="cls-2" x1="517.77" y1="180.47" x2="517.73" y2="180.4"/><line class="cls-2" x1="517.73" y1="180.4" x2="517.65" y2="180.36"/><line class="cls-2" x1="517.65" y1="180.36" x2="517.58" y2="180.32"/><line class="cls-2" x1="517.58" y1="180.32" x2="517.5" y2="180.28"/><line class="cls-2" x1="517.5" y1="180.28" x2="517.39" y2="180.28"/><line class="cls-2" x1="517.39" y1="180.28" x2="517.28" y2="180.28"/><line class="cls-2" x1="517.28" y1="180.28" x2="517.2" y2="180.32"/><line class="cls-2" x1="517.2" y1="180.32" x2="517.12" y2="180.36"/><line class="cls-2" x1="517.12" y1="180.36" x2="517.05" y2="180.4"/><line class="cls-2" x1="517.05" y1="180.4" x2="517.01" y2="180.47"/><line class="cls-2" x1="517.01" y1="180.47" x2="517.01" y2="180.55"/><line class="cls-2" x1="517.01" y1="180.55" x2="517.01" y2="180.62"/><line class="cls-2" x1="517.01" y1="180.62" x2="517.05" y2="180.7"/><line class="cls-2" x1="517.05" y1="180.7" x2="517.12" y2="180.77"/><line class="cls-2" x1="517.12" y1="180.77" x2="517.2" y2="180.81"/><line class="cls-2" x1="517.2" y1="180.81" x2="517.28" y2="180.85"/><line class="cls-2" x1="517.28" y1="180.85" x2="517.39" y2="180.85"/><line class="cls-2" x1="517.39" y1="180.85" x2="517.5" y2="180.85"/><line class="cls-2" x1="517.5" y1="180.85" x2="517.58" y2="180.81"/><line class="cls-2" x1="517.58" y1="180.81" x2="517.65" y2="180.77"/><line class="cls-2" x1="517.65" y1="180.77" x2="517.73" y2="180.7"/><line class="cls-2" x1="517.73" y1="180.7" x2="517.77" y2="180.62"/><line class="cls-2" x1="517.77" y1="180.62" x2="517.77" y2="180.55"/><line class="cls-2" x1="531.68" y1="184.86" x2="531.79" y2="183.91"/><line class="cls-2" x1="531.79" y1="183.91" x2="531.68" y2="183"/><line class="cls-2" x1="531.68" y1="183" x2="531.41" y2="182.1"/><line class="cls-2" x1="531.41" y1="182.1" x2="530.92" y2="181.3"/><line class="cls-2" x1="530.92" y1="181.3" x2="530.28" y2="180.58"/><line class="cls-2" x1="530.28" y1="180.58" x2="529.52" y2="179.9"/><line class="cls-2" x1="529.52" y1="179.9" x2="528.62" y2="179.37"/><line class="cls-2" x1="528.62" y1="179.37" x2="527.59" y2="178.96"/><line class="cls-2" x1="527.59" y1="178.96" x2="526.46" y2="178.66"/><line class="cls-2" x1="526.46" y1="178.66" x2="525.14" y2="178.51"/><line class="cls-2" x1="525.14" y1="178.51" x2="523.44" y2="178.35"/><line class="cls-2" x1="523.44" y1="178.35" x2="521.7" y2="178.24"/><line class="cls-2" x1="521.7" y1="178.24" x2="519.96" y2="178.16"/><line class="cls-2" x1="519.96" y1="178.16" x2="518.22" y2="178.13"/><line class="cls-2" x1="518.22" y1="178.13" x2="516.48" y2="178.13"/><line class="cls-2" x1="516.48" y1="178.13" x2="514.74" y2="178.16"/><line class="cls-2" x1="514.74" y1="178.16" x2="513.04" y2="178.24"/><line class="cls-2" x1="513.04" y1="178.24" x2="511.3" y2="178.35"/><line class="cls-2" x1="511.3" y1="178.35" x2="509.6" y2="178.51"/><line class="cls-2" x1="509.6" y1="178.51" x2="508.28" y2="178.66"/><line class="cls-2" x1="508.28" y1="178.66" x2="507.15" y2="178.96"/><line class="cls-2" x1="507.15" y1="178.96" x2="506.13" y2="179.37"/><line class="cls-2" x1="506.13" y1="179.37" x2="505.22" y2="179.9"/><line class="cls-2" x1="505.22" y1="179.9" x2="504.46" y2="180.58"/><line class="cls-2" x1="504.46" y1="180.58" x2="503.82" y2="181.3"/><line class="cls-2" x1="503.82" y1="181.3" x2="503.33" y2="182.1"/><line class="cls-2" x1="503.33" y1="182.1" x2="503.03" y2="183"/><line class="cls-2" x1="503.03" y1="183" x2="502.95" y2="183.91"/><line class="cls-2" x1="502.95" y1="183.91" x2="503.03" y2="184.86"/><line class="cls-2" x1="503.03" y1="184.86" x2="503.33" y2="185.72"/><line class="cls-2" x1="503.33" y1="185.72" x2="503.82" y2="186.52"/><line class="cls-2" x1="503.82" y1="186.52" x2="504.46" y2="187.27"/><line class="cls-2" x1="504.46" y1="187.27" x2="505.22" y2="187.92"/><line class="cls-2" x1="505.22" y1="187.92" x2="506.13" y2="188.45"/><line class="cls-2" x1="506.13" y1="188.45" x2="507.15" y2="188.86"/><line class="cls-2" x1="507.15" y1="188.86" x2="508.28" y2="189.16"/><line class="cls-2" x1="508.28" y1="189.16" x2="509.6" y2="189.35"/><line class="cls-2" x1="509.6" y1="189.35" x2="511.3" y2="189.47"/><line class="cls-2" x1="511.3" y1="189.47" x2="513.04" y2="189.58"/><line class="cls-2" x1="513.04" y1="189.58" x2="514.74" y2="189.66"/><line class="cls-2" x1="514.74" y1="189.66" x2="516.48" y2="189.69"/><line class="cls-2" x1="516.48" y1="189.69" x2="518.22" y2="189.69"/><line class="cls-2" x1="518.22" y1="189.69" x2="519.96" y2="189.66"/><line class="cls-2" x1="519.96" y1="189.66" x2="521.7" y2="189.58"/><line class="cls-2" x1="521.7" y1="189.58" x2="523.44" y2="189.47"/><line class="cls-2" x1="523.44" y1="189.47" x2="525.14" y2="189.35"/><line class="cls-2" x1="525.14" y1="189.35" x2="526.46" y2="189.16"/><line class="cls-2" x1="526.46" y1="189.16" x2="527.59" y2="188.86"/><line class="cls-2" x1="527.59" y1="188.86" x2="528.62" y2="188.45"/><line class="cls-2" x1="528.62" y1="188.45" x2="529.52" y2="187.92"/><line class="cls-2" x1="529.52" y1="187.92" x2="530.28" y2="187.27"/><line class="cls-2" x1="530.28" y1="187.27" x2="530.92" y2="186.52"/><line class="cls-2" x1="530.92" y1="186.52" x2="531.41" y2="185.72"/><line class="cls-2" x1="531.41" y1="185.72" x2="531.68" y2="184.86"/><line class="cls-2" x1="528.92" y1="184.48" x2="528.99" y2="183.91"/><line class="cls-2" x1="528.99" y1="183.91" x2="528.92" y2="183.34"/><line class="cls-2" x1="528.92" y1="183.34" x2="528.73" y2="182.81"/><line class="cls-2" x1="528.73" y1="182.81" x2="528.46" y2="182.36"/><line class="cls-2" x1="528.46" y1="182.36" x2="528.09" y2="181.91"/><line class="cls-2" x1="528.09" y1="181.91" x2="527.59" y2="181.53"/><line class="cls-2" x1="527.59" y1="181.53" x2="527.07" y2="181.19"/><line class="cls-2" x1="527.07" y1="181.19" x2="526.42" y2="180.92"/><line class="cls-2" x1="526.42" y1="180.92" x2="525.78" y2="180.74"/><line class="cls-2" x1="525.78" y1="180.74" x2="524.76" y2="180.62"/><line class="cls-2" x1="524.76" y1="180.62" x2="523.17" y2="180.51"/><line class="cls-2" x1="523.17" y1="180.51" x2="521.51" y2="180.4"/><line class="cls-2" x1="521.51" y1="180.4" x2="519.85" y2="180.32"/><line class="cls-2" x1="519.85" y1="180.32" x2="518.18" y2="180.28"/><line class="cls-2" x1="518.18" y1="180.28" x2="516.52" y2="180.28"/><line class="cls-2" x1="516.52" y1="180.28" x2="514.86" y2="180.32"/><line class="cls-2" x1="514.86" y1="180.32" x2="513.19" y2="180.4"/><line class="cls-2" x1="513.19" y1="180.4" x2="511.53" y2="180.51"/><line class="cls-2" x1="511.53" y1="180.51" x2="509.98" y2="180.62"/><line class="cls-2" x1="509.98" y1="180.62" x2="508.96" y2="180.74"/><line class="cls-2" x1="508.96" y1="180.74" x2="508.28" y2="180.92"/><line class="cls-2" x1="508.28" y1="180.92" x2="507.67" y2="181.19"/><line class="cls-2" x1="507.67" y1="181.19" x2="507.15" y2="181.53"/><line class="cls-2" x1="507.15" y1="181.53" x2="506.65" y2="181.91"/><line class="cls-2" x1="506.65" y1="181.91" x2="506.28" y2="182.36"/><line class="cls-2" x1="506.28" y1="182.36" x2="506.01" y2="182.81"/><line class="cls-2" x1="506.01" y1="182.81" x2="505.82" y2="183.34"/><line class="cls-2" x1="505.82" y1="183.34" x2="505.75" y2="183.91"/><line class="cls-2" x1="505.75" y1="183.91" x2="505.82" y2="184.48"/><line class="cls-2" x1="505.82" y1="184.48" x2="506.01" y2="185.01"/><line class="cls-2" x1="506.01" y1="185.01" x2="506.28" y2="185.5"/><line class="cls-2" x1="506.28" y1="185.5" x2="506.65" y2="185.91"/><line class="cls-2" x1="506.65" y1="185.91" x2="507.15" y2="186.33"/><line class="cls-2" x1="507.15" y1="186.33" x2="507.67" y2="186.63"/><line class="cls-2" x1="507.67" y1="186.63" x2="508.28" y2="186.9"/><line class="cls-2" x1="508.28" y1="186.9" x2="508.96" y2="187.09"/><line class="cls-2" x1="508.96" y1="187.09" x2="509.98" y2="187.2"/><line class="cls-2" x1="509.98" y1="187.2" x2="511.53" y2="187.31"/><line class="cls-2" x1="511.53" y1="187.31" x2="513.19" y2="187.43"/><line class="cls-2" x1="513.19" y1="187.43" x2="514.86" y2="187.5"/><line class="cls-2" x1="514.86" y1="187.5" x2="516.52" y2="187.54"/><line class="cls-2" x1="516.52" y1="187.54" x2="518.18" y2="187.54"/><line class="cls-2" x1="518.18" y1="187.54" x2="519.85" y2="187.5"/><line class="cls-2" x1="519.85" y1="187.5" x2="521.51" y2="187.43"/><line class="cls-2" x1="521.51" y1="187.43" x2="523.17" y2="187.31"/><line class="cls-2" x1="523.17" y1="187.31" x2="524.76" y2="187.2"/><line class="cls-2" x1="524.76" y1="187.2" x2="525.78" y2="187.09"/><line class="cls-2" x1="525.78" y1="187.09" x2="526.42" y2="186.9"/><line class="cls-2" x1="526.42" y1="186.9" x2="527.07" y2="186.63"/><line class="cls-2" x1="527.07" y1="186.63" x2="527.59" y2="186.33"/><line class="cls-2" x1="527.59" y1="186.33" x2="528.09" y2="185.91"/><line class="cls-2" x1="528.09" y1="185.91" x2="528.46" y2="185.5"/><line class="cls-2" x1="528.46" y1="185.5" x2="528.73" y2="185.01"/><line class="cls-2" x1="528.73" y1="185.01" x2="528.92" y2="184.48"/></g></svg>