<svg id="图层_1" data-name="图层 1" xmlns="http://www.w3.org/2000/svg" viewBox="0 0 1008 504"><defs><style>.cls-1,.cls-2{fill:#fff;}.cls-1{fill-rule:evenodd;}.cls-3{fill:none;stroke:#0c4f71;stroke-linecap:round;stroke-linejoin:bevel;stroke-width:0.15px;}</style></defs><title>FIREPLACE</title><g id="merlot-IFP_main_floor" data-name="merlot-IFP main floor"><g id="FIREPLACE"><polygon class="cls-1" points="371.51 237.86 371.51 233.14 371.51 218.02 371.51 213.29 377.63 213.29 377.63 237.86 371.51 237.86"/><rect class="cls-2" x="369.13" y="218.02" width="2.38" height="15.12"/><line class="cls-3" x1="371.51" y1="233.14" x2="369.13" y2="233.14"/><line class="cls-3" x1="369.13" y1="218.02" x2="371.51" y2="218.02"/><line class="cls-3" x1="371.51" y1="218.02" x2="371.51" y2="213.29"/><line class="cls-3" x1="371.51" y1="213.29" x2="377.63" y2="213.29"/><line class="cls-3" x1="377.63" y1="213.29" x2="377.63" y2="237.86"/><line class="cls-3" x1="377.63" y1="237.86" x2="371.51" y2="237.86"/><line class="cls-3" x1="371.51" y1="237.86" x2="371.51" y2="233.14"/><line class="cls-3" x1="377.63" y1="233.14" x2="369.13" y2="233.14"/><line class="cls-3" x1="369.13" y1="218.02" x2="377.63" y2="218.02"/><line class="cls-3" x1="371.51" y1="213.29" x2="377.63" y2="213.29"/><line class="cls-3" x1="377.63" y1="213.29" x2="377.63" y2="237.86"/><line class="cls-3" x1="377.63" y1="237.86" x2="371.51" y2="237.86"/><rect class="cls-2" x="371.51" y="211.86" width="7.56" height="27.4"/><line class="cls-3" x1="371.51" y1="211.86" x2="379.07" y2="211.86"/><line class="cls-3" x1="379.07" y1="211.86" x2="379.07" y2="239.26"/><line class="cls-3" x1="379.07" y1="239.26" x2="371.51" y2="239.26"/><line class="cls-3" x1="371.51" y1="239.26" x2="371.51" y2="211.86"/><line class="cls-3" x1="375.74" y1="235.93" x2="371.51" y2="235.93"/><line class="cls-3" x1="375.74" y1="235.93" x2="375.74" y2="215.18"/><line class="cls-3" x1="375.74" y1="218.02" x2="371.51" y2="218.02"/><line class="cls-3" x1="371.51" y1="233.14" x2="375.74" y2="233.14"/><line class="cls-3" x1="371.51" y1="215.22" x2="375.7" y2="215.22"/><line class="cls-3" x1="371.51" y1="211.86" x2="379.07" y2="211.86"/><line class="cls-3" x1="379.07" y1="211.86" x2="379.07" y2="239.26"/><line class="cls-3" x1="379.07" y1="239.26" x2="371.51" y2="239.26"/><line class="cls-3" x1="371.51" y1="239.26" x2="371.51" y2="211.86"/><rect class="cls-2" x="377.63" y="218.02" width="0.38" height="15.12"/><line class="cls-3" x1="377.63" y1="233.14" x2="377.63" y2="218.02"/><line class="cls-3" x1="377.63" y1="218.02" x2="378.01" y2="218.02"/><line class="cls-3" x1="378.01" y1="218.02" x2="378.01" y2="233.14"/><line class="cls-3" x1="378.01" y1="233.14" x2="377.63" y2="233.14"/><line class="cls-3" x1="377.74" y1="218.02" x2="377.74" y2="233.14"/><polygon class="cls-1" points="371.13 231.81 371.13 219.23 374.46 219.23 374.46 220.81 374.46 230.23 374.46 231.81 371.13 231.81"/><rect class="cls-2" x="374.46" y="220.81" width="0.11" height="9.41"/><polygon class="cls-1" points="374.57 230.23 374.57 220.81 374.57 219.23 376.23 219.23 376.23 231.81 374.57 231.81 374.57 230.23"/><line class="cls-3" x1="371.13" y1="219.23" x2="374.46" y2="219.23"/><line class="cls-3" x1="374.46" y1="219.23" x2="374.46" y2="220.81"/><line class="cls-3" x1="374.46" y1="220.81" x2="374.57" y2="220.81"/><line class="cls-3" x1="374.57" y1="220.81" x2="374.57" y2="219.23"/><line class="cls-3" x1="374.57" y1="219.23" x2="376.23" y2="219.23"/><line class="cls-3" x1="376.23" y1="219.23" x2="376.23" y2="231.81"/><line class="cls-3" x1="376.23" y1="231.81" x2="374.57" y2="231.81"/><line class="cls-3" x1="374.57" y1="231.81" x2="374.57" y2="230.23"/><line class="cls-3" x1="374.57" y1="230.23" x2="374.46" y2="230.23"/><line class="cls-3" x1="374.46" y1="230.23" x2="374.46" y2="231.81"/><line class="cls-3" x1="374.46" y1="231.81" x2="371.13" y2="231.81"/><line class="cls-3" x1="371.13" y1="231.81" x2="371.13" y2="219.23"/><line class="cls-3" x1="375.25" y1="230.23" x2="372.98" y2="230.23"/><line class="cls-3" x1="372.98" y1="230.23" x2="372.98" y2="220.81"/><line class="cls-3" x1="372.98" y1="220.81" x2="375.25" y2="220.81"/><line class="cls-3" x1="375.25" y1="220.81" x2="375.25" y2="230.23"/><line class="cls-3" x1="372.79" y1="219.23" x2="372.79" y2="231.81"/><line class="cls-3" x1="374.57" y1="219.23" x2="376.23" y2="219.23"/><line class="cls-3" x1="376.23" y1="219.23" x2="376.23" y2="231.81"/><line class="cls-3" x1="376.23" y1="231.81" x2="374.57" y2="231.81"/><line class="cls-3" x1="374.57" y1="231.81" x2="374.57" y2="230.23"/><line class="cls-3" x1="374.46" y1="230.23" x2="374.46" y2="231.81"/><line class="cls-3" x1="374.46" y1="231.81" x2="371.13" y2="231.81"/><line class="cls-3" x1="371.13" y1="231.81" x2="371.13" y2="219.23"/><line class="cls-3" x1="371.13" y1="219.23" x2="374.46" y2="219.23"/><line class="cls-3" x1="374.46" y1="219.23" x2="374.46" y2="220.81"/><line class="cls-3" x1="374.57" y1="220.81" x2="374.57" y2="219.23"/><line class="cls-3" x1="371.7" y1="211.86" x2="377.14" y2="211.86"/><line class="cls-3" x1="369.13" y1="211.86" x2="370.56" y2="211.86"/><line class="cls-3" x1="379.07" y1="211.86" x2="377.63" y2="211.86"/><line class="cls-3" x1="379.07" y1="211.86" x2="379.07" y2="221.65"/><line class="cls-3" x1="379.07" y1="224.37" x2="379.07" y2="229.81"/><line class="cls-3" x1="379.07" y1="232.53" x2="379.07" y2="239.26"/><line class="cls-3" x1="371.7" y1="239.26" x2="377.14" y2="239.26"/><line class="cls-3" x1="369.13" y1="239.26" x2="370.56" y2="239.26"/><line class="cls-3" x1="379.07" y1="239.26" x2="377.63" y2="239.26"/></g></g></svg>