<svg id="图层_1" data-name="图层 1" xmlns="http://www.w3.org/2000/svg" xmlns:xlink="http://www.w3.org/1999/xlink" viewBox="0 0 1008 504"><defs><style>.cls-1,.cls-4{fill:none;}.cls-2{clip-path:url(#clip-path);}.cls-3{fill:#fff;}.cls-4{stroke:#0b4d6e;stroke-linecap:round;stroke-linejoin:bevel;stroke-width:0.15px;}.cls-5{fill:#0b4d6e;}.cls-6{font-size:7px;fill:#0c4f71;font-family:CenturyGothic, Century Gothic;}.cls-7{letter-spacing:0em;}.cls-8{letter-spacing:-0.01em;}.cls-9{letter-spacing:0em;}.cls-10{letter-spacing:0em;}.cls-11{letter-spacing:0em;}.cls-12{letter-spacing:0.01em;}.cls-13{letter-spacing:-0.01em;}.cls-14{letter-spacing:0em;}.cls-15{letter-spacing:0em;}.cls-16{letter-spacing:0em;}.cls-17{letter-spacing:-0.01em;}</style><clipPath id="clip-path"><rect class="cls-1" x="454.92" y="105.49" width="71.5" height="70.51"/></clipPath></defs><g id="GAME_ROOM-1" data-name="GAME ROOM-1"><g class="cls-2"><rect class="cls-3" x="463.06" y="159.33" width="56.22" height="18.99"/><rect class="cls-3" x="446" y="169.23" width="11.11" height="0.23"/><line class="cls-4" x1="447.86" y1="169.46" x2="448.08" y2="169.23"/><line class="cls-4" x1="450.5" y1="169.46" x2="450.77" y2="169.23"/><line class="cls-4" x1="453.19" y1="169.46" x2="453.41" y2="169.23"/><line class="cls-4" x1="455.87" y1="169.46" x2="456.1" y2="169.23"/><rect class="cls-5" x="446" y="169.46" width="11.11" height="0.23"/><rect class="cls-5" x="446" y="169.69" width="11.11" height="2.61"/><rect class="cls-5" x="446" y="172.3" width="14.89" height="0.23"/><rect class="cls-5" x="461.12" y="111.33" width="1.66" height="62.37"/><rect class="cls-5" x="462.79" y="111.33" width="56.7" height="1.66"/><rect class="cls-5" x="446" y="173.7" width="34.4" height="1.66"/><rect class="cls-5" x="515.1" y="173.7" width="45.02" height="1.66"/><rect class="cls-5" x="473.41" y="175.36" width="1.66" height="1.55"/><rect class="cls-5" x="457.12" y="107.32" width="3.78" height="64.97"/><rect class="cls-5" x="460.9" y="107.32" width="60.48" height="3.78"/><rect class="cls-5" x="521.37" y="107.32" width="3.78" height="66.15"/><rect class="cls-5" x="525.15" y="169.69" width="36.85" height="3.78"/><rect class="cls-5" x="519.48" y="111.33" width="1.66" height="62.37"/><line class="cls-4" x1="457.12" y1="169.23" x2="446" y2="169.23"/><line class="cls-4" x1="446" y1="169.23" x2="446" y2="172.52"/><line class="cls-4" x1="457.12" y1="169.46" x2="446" y2="169.46"/><line class="cls-4" x1="457.12" y1="169.46" x2="446" y2="169.46"/><line class="cls-4" x1="457.12" y1="169.69" x2="446" y2="169.69"/><line class="cls-4" x1="446" y1="169.69" x2="446" y2="172.3"/><line class="cls-4" x1="457.12" y1="172.3" x2="457.12" y2="169.69"/><line class="cls-4" x1="446" y1="172.3" x2="457.12" y2="172.3"/><line class="cls-4" x1="460.9" y1="172.3" x2="460.9" y2="172.52"/><line class="cls-4" x1="446" y1="172.52" x2="460.9" y2="172.52"/><line class="cls-4" x1="446" y1="169.23" x2="445.66" y2="169.23"/><line class="cls-4" x1="446" y1="172.52" x2="445.66" y2="172.52"/><line class="cls-4" x1="446" y1="169.23" x2="446" y2="172.52"/><line class="cls-4" x1="445.66" y1="169.23" x2="445.66" y2="172.52"/><line class="cls-4" x1="445.66" y1="169.8" x2="431.57" y2="169.8"/><line class="cls-4" x1="445.66" y1="170.18" x2="431.57" y2="170.18"/><line class="cls-4" x1="431.57" y1="168.4" x2="447.67" y2="168.4"/><line class="cls-4" x1="447.67" y1="169.23" x2="447.67" y2="168.4"/><line class="cls-4" x1="446" y1="169.23" x2="446" y2="168.89"/><line class="cls-4" x1="446" y1="168.89" x2="447.67" y2="168.89"/><line class="cls-4" x1="447.67" y1="169.23" x2="447.67" y2="168.89"/><line class="cls-4" x1="447.48" y1="172.52" x2="447.48" y2="173.28"/><line class="cls-4" x1="431.57" y1="173.28" x2="447.48" y2="173.28"/><line class="cls-4" x1="445.7" y1="172.52" x2="445.7" y2="172.83"/><line class="cls-4" x1="445.7" y1="172.83" x2="447.25" y2="172.83"/><line class="cls-4" x1="447.25" y1="172.52" x2="447.25" y2="172.83"/><line class="cls-4" x1="445.7" y1="172.52" x2="447.25" y2="172.52"/><line class="cls-4" x1="431.83" y1="173.47" x2="431.83" y2="172.52"/><line class="cls-4" x1="460.9" y1="111.1" x2="460.9" y2="173.47"/><line class="cls-4" x1="461.12" y1="111.33" x2="461.12" y2="173.7"/><line class="cls-4" x1="462.79" y1="111.33" x2="461.12" y2="111.33"/><line class="cls-4" x1="462.79" y1="173.7" x2="462.79" y2="112.99"/><line class="cls-4" x1="463.01" y1="173.47" x2="463.01" y2="113.22"/><line class="cls-4" x1="521.37" y1="111.1" x2="460.9" y2="111.1"/><line class="cls-4" x1="519.48" y1="111.33" x2="462.79" y2="111.33"/><line class="cls-4" x1="462.79" y1="112.99" x2="519.48" y2="112.99"/><line class="cls-4" x1="463.01" y1="113.22" x2="519.26" y2="113.22"/><line class="cls-4" x1="460.9" y1="173.47" x2="446" y2="173.47"/><line class="cls-4" x1="480.4" y1="173.47" x2="463.01" y2="173.47"/><line class="cls-4" x1="519.26" y1="173.47" x2="515.1" y2="173.47"/><line class="cls-4" x1="556.9" y1="173.47" x2="521.37" y2="173.47"/><line class="cls-4" x1="446" y1="173.47" x2="446" y2="175.58"/><line class="cls-4" x1="480.4" y1="173.47" x2="480.4" y2="175.58"/><line class="cls-4" x1="515.1" y1="173.47" x2="515.1" y2="175.58"/><line class="cls-4" x1="480.4" y1="173.7" x2="462.79" y2="173.7"/><line class="cls-4" x1="461.12" y1="173.7" x2="446" y2="173.7"/><line class="cls-4" x1="556.9" y1="173.7" x2="521.15" y2="173.7"/><line class="cls-4" x1="519.48" y1="173.7" x2="515.1" y2="173.7"/><line class="cls-4" x1="446" y1="173.7" x2="446" y2="175.36"/><line class="cls-4" x1="480.4" y1="173.7" x2="480.4" y2="175.36"/><line class="cls-4" x1="515.1" y1="173.7" x2="515.1" y2="175.36"/><line class="cls-4" x1="446" y1="175.36" x2="473.41" y2="175.36"/><line class="cls-4" x1="475.07" y1="175.36" x2="480.4" y2="175.36"/><line class="cls-4" x1="515.1" y1="175.36" x2="556.9" y2="175.36"/><line class="cls-4" x1="446" y1="175.58" x2="473.18" y2="175.58"/><line class="cls-4" x1="475.3" y1="175.58" x2="480.4" y2="175.58"/><line class="cls-4" x1="515.1" y1="175.58" x2="556.9" y2="175.58"/><line class="cls-4" x1="431.57" y1="173.47" x2="446" y2="173.47"/><line class="cls-4" x1="431.57" y1="175.58" x2="446" y2="175.58"/><line class="cls-4" x1="446" y1="173.47" x2="445.66" y2="173.47"/><line class="cls-4" x1="446" y1="175.58" x2="445.66" y2="175.58"/><line class="cls-4" x1="446" y1="173.47" x2="446" y2="175.58"/><line class="cls-4" x1="445.66" y1="173.47" x2="445.66" y2="175.58"/><line class="cls-4" x1="515.1" y1="173.47" x2="514.76" y2="173.47"/><line class="cls-4" x1="515.1" y1="175.58" x2="514.76" y2="175.58"/><line class="cls-4" x1="515.1" y1="173.47" x2="515.1" y2="175.58"/><line class="cls-4" x1="514.76" y1="173.47" x2="514.76" y2="175.58"/><line class="cls-4" x1="480.74" y1="173.47" x2="480.4" y2="173.47"/><line class="cls-4" x1="480.74" y1="175.58" x2="480.4" y2="175.58"/><line class="cls-4" x1="480.74" y1="173.47" x2="480.74" y2="175.58"/><line class="cls-4" x1="480.4" y1="173.47" x2="480.4" y2="175.58"/><line class="cls-4" x1="514.87" y1="173.47" x2="514.87" y2="173.17"/><line class="cls-4" x1="514.87" y1="173.17" x2="516.42" y2="173.17"/><line class="cls-4" x1="516.42" y1="173.47" x2="516.42" y2="173.17"/><line class="cls-4" x1="480.63" y1="173.47" x2="480.63" y2="173.17"/><line class="cls-4" x1="479.08" y1="173.17" x2="480.63" y2="173.17"/><line class="cls-4" x1="479.08" y1="173.47" x2="479.08" y2="173.17"/><line class="cls-4" x1="480.63" y1="175.58" x2="480.63" y2="175.89"/><line class="cls-4" x1="479.08" y1="175.89" x2="480.63" y2="175.89"/><line class="cls-4" x1="479.08" y1="175.58" x2="479.08" y2="175.89"/><line class="cls-4" x1="514.87" y1="175.58" x2="514.87" y2="175.89"/><line class="cls-4" x1="514.87" y1="175.89" x2="516.42" y2="175.89"/><line class="cls-4" x1="516.42" y1="175.58" x2="516.42" y2="175.89"/><line class="cls-4" x1="475.3" y1="176.91" x2="475.3" y2="175.58"/><line class="cls-4" x1="475.3" y1="176.91" x2="473.18" y2="176.91"/><line class="cls-4" x1="475.07" y1="176.91" x2="475.07" y2="175.36"/><line class="cls-4" x1="475.07" y1="176.91" x2="473.41" y2="176.91"/><line class="cls-4" x1="473.41" y1="175.36" x2="473.41" y2="176.91"/><line class="cls-4" x1="473.18" y1="175.58" x2="473.18" y2="176.91"/><line class="cls-4" x1="475.3" y1="177.25" x2="475.3" y2="176.91"/><line class="cls-4" x1="473.18" y1="177.25" x2="473.18" y2="176.91"/><line class="cls-4" x1="475.3" y1="177.25" x2="473.18" y2="177.25"/><line class="cls-4" x1="475.3" y1="176.91" x2="473.18" y2="176.91"/><line class="cls-4" x1="475.3" y1="177.25" x2="489.47" y2="177.25"/><line class="cls-4" x1="475.3" y1="177.89" x2="489.47" y2="177.89"/><line class="cls-4" x1="489.47" y1="177.25" x2="489.47" y2="177.89"/><line class="cls-4" x1="475.3" y1="177.89" x2="475.3" y2="177.25"/><line class="cls-4" x1="484.41" y1="188.1" x2="484.63" y2="187.91"/><line class="cls-4" x1="484.63" y1="187.91" x2="485.47" y2="187.11"/><line class="cls-4" x1="485.47" y1="187.11" x2="486.22" y2="186.28"/><line class="cls-4" x1="486.22" y1="186.28" x2="486.9" y2="185.37"/><line class="cls-4" x1="486.9" y1="185.37" x2="487.51" y2="184.43"/><line class="cls-4" x1="487.51" y1="184.43" x2="488.07" y2="183.45"/><line class="cls-4" x1="488.07" y1="183.45" x2="488.53" y2="182.39"/><line class="cls-4" x1="488.53" y1="182.39" x2="488.87" y2="181.33"/><line class="cls-4" x1="488.87" y1="181.33" x2="489.17" y2="180.23"/><line class="cls-4" x1="489.17" y1="180.23" x2="489.36" y2="179.1"/><line class="cls-4" x1="489.36" y1="179.1" x2="489.47" y2="177.97"/><line class="cls-4" x1="489.47" y1="177.97" x2="489.47" y2="177.25"/><line class="cls-4" x1="475.3" y1="177.13" x2="475.6" y2="177.13"/><line class="cls-4" x1="475.6" y1="175.58" x2="475.6" y2="177.13"/><line class="cls-4" x1="475.3" y1="175.58" x2="475.6" y2="175.58"/><line class="cls-4" x1="473.18" y1="177.13" x2="472.88" y2="177.13"/><line class="cls-4" x1="472.88" y1="175.58" x2="472.88" y2="177.13"/><line class="cls-4" x1="473.18" y1="175.58" x2="472.88" y2="175.58"/><line class="cls-4" x1="457.12" y1="107.32" x2="457.12" y2="172.3"/><line class="cls-4" x1="457.12" y1="172.3" x2="460.9" y2="172.3"/><line class="cls-4" x1="460.9" y1="107.32" x2="457.12" y2="107.32"/><line class="cls-4" x1="457.12" y1="107.32" x2="460.9" y2="107.32"/><line class="cls-4" x1="460.9" y1="172.3" x2="460.9" y2="111.1"/><line class="cls-4" x1="521.37" y1="107.32" x2="460.9" y2="107.32"/><line class="cls-4" x1="460.9" y1="111.1" x2="521.37" y2="111.1"/><line class="cls-4" x1="525.15" y1="169.69" x2="525.15" y2="107.32"/><line class="cls-4" x1="525.15" y1="107.32" x2="521.37" y2="107.32"/><line class="cls-4" x1="525.15" y1="107.32" x2="521.37" y2="107.32"/><line class="cls-4" x1="521.37" y1="173.47" x2="525.15" y2="173.47"/><line class="cls-4" x1="525.15" y1="173.47" x2="521.37" y2="173.47"/><line class="cls-4" x1="521.37" y1="111.1" x2="521.37" y2="173.47"/><line class="cls-4" x1="556.9" y1="169.69" x2="525.15" y2="169.69"/><line class="cls-4" x1="525.15" y1="173.47" x2="556.9" y2="173.47"/><line class="cls-4" x1="521.37" y1="173.47" x2="521.37" y2="111.1"/><line class="cls-4" x1="521.15" y1="173.7" x2="521.15" y2="111.33"/><line class="cls-4" x1="521.15" y1="111.33" x2="519.48" y2="111.33"/><line class="cls-4" x1="519.48" y1="112.99" x2="519.48" y2="173.7"/><line class="cls-4" x1="519.26" y1="113.22" x2="519.26" y2="173.47"/><rect class="cls-5" x="445.9" y="172.44" width="15.08" height="1.17"/><rect class="cls-5" x="446.03" y="173.29" width="1.53" height="0.35"/><text class="cls-6" transform="translate(469.75 148.07)"><tspan class="cls-7">9</tspan><tspan class="cls-8" x="3.87" y="0">&apos;</tspan><tspan class="cls-9" x="5.21" y="0">-</tspan><tspan class="cls-10" x="7.52" y="0">11</tspan><tspan x="15.27" y="0">&quot;</tspan><tspan class="cls-8" x="17.43" y="0"> </tspan><tspan class="cls-11" x="19.33" y="0">X</tspan><tspan class="cls-12" x="23.58" y="0"> </tspan><tspan class="cls-13" x="25.57" y="0">1</tspan><tspan class="cls-14" x="29.36" y="0">0</tspan><tspan class="cls-15" x="33.24" y="0">&apos;</tspan><tspan class="cls-16" x="34.66" y="0">-</tspan><tspan class="cls-17" x="36.97" y="0">8</tspan><tspan x="40.76" y="0">&quot;</tspan></text><text class="cls-6" transform="translate(468.24 141.28)">GAME ROOM</text></g></g></svg>