<svg id="图层_1" data-name="图层 1" xmlns="http://www.w3.org/2000/svg" viewBox="0 0 1008 504"><defs><style>.cls-1{fill:#fff;}.cls-2{fill:none;stroke:#0c4f71;stroke-linecap:round;stroke-linejoin:bevel;stroke-width:0.15px;}</style></defs><g id="_5_GARAGE_EXTENED-1" data-name="5&apos; GARAGE EXTENED-1"><g id="_5_SITTING_ROOM_WINDOW-1" data-name="5&apos;SITTING ROOM WINDOW-1"><rect class="cls-1" x="455.99" y="127.21" width="4.65" height="28.36"/><line class="cls-2" x1="456.6" y1="157.21" x2="456.82" y2="157.21"/><line class="cls-2" x1="456.82" y1="155.58" x2="459.88" y2="155.58"/><line class="cls-2" x1="456.6" y1="125.57" x2="456.82" y2="125.57"/><line class="cls-2" x1="456.82" y1="127.23" x2="459.88" y2="127.23"/><line class="cls-2" x1="457.05" y1="155.58" x2="459.62" y2="155.58"/><line class="cls-2" x1="457.05" y1="127.23" x2="459.62" y2="127.23"/><line class="cls-2" x1="456.82" y1="127.23" x2="456.82" y2="127.57"/><line class="cls-2" x1="459.88" y1="127.23" x2="459.88" y2="127.57"/><line class="cls-2" x1="456.82" y1="127.23" x2="459.88" y2="127.23"/><line class="cls-2" x1="456.82" y1="127.57" x2="459.88" y2="127.57"/><line class="cls-2" x1="456.82" y1="155.2" x2="456.82" y2="155.58"/><line class="cls-2" x1="459.88" y1="155.2" x2="459.88" y2="155.58"/><line class="cls-2" x1="456.82" y1="155.2" x2="459.88" y2="155.2"/><line class="cls-2" x1="456.82" y1="155.58" x2="459.88" y2="155.58"/><line class="cls-2" x1="457.43" y1="127.57" x2="457.43" y2="141.03"/><line class="cls-2" x1="457.81" y1="127.57" x2="457.81" y2="141.03"/><line class="cls-2" x1="456.9" y1="141.03" x2="456.9" y2="141.75"/><line class="cls-2" x1="458.3" y1="141.03" x2="458.3" y2="141.75"/><line class="cls-2" x1="456.9" y1="141.03" x2="458.3" y2="141.03"/><line class="cls-2" x1="456.9" y1="141.75" x2="458.3" y2="141.75"/><line class="cls-2" x1="457.43" y1="141.75" x2="457.43" y2="155.2"/><line class="cls-2" x1="457.81" y1="141.75" x2="457.81" y2="155.2"/><line class="cls-2" x1="456.82" y1="157.21" x2="455.99" y2="157.21"/><line class="cls-2" x1="455.99" y1="157.21" x2="455.99" y2="125.57"/><line class="cls-2" x1="456.82" y1="125.57" x2="455.99" y2="125.57"/><line class="cls-2" x1="456.82" y1="127.23" x2="456.48" y2="127.23"/><line class="cls-2" x1="456.48" y1="127.23" x2="456.48" y2="125.57"/><line class="cls-2" x1="456.82" y1="125.57" x2="456.48" y2="125.57"/><line class="cls-2" x1="456.82" y1="155.58" x2="456.48" y2="155.58"/><line class="cls-2" x1="456.48" y1="157.21" x2="456.48" y2="155.58"/><line class="cls-2" x1="456.82" y1="157.21" x2="456.48" y2="157.21"/><line class="cls-2" x1="459.88" y1="125.76" x2="460.64" y2="125.76"/><line class="cls-2" x1="460.64" y1="157.05" x2="460.64" y2="125.76"/><line class="cls-2" x1="459.88" y1="157.05" x2="460.64" y2="157.05"/><line class="cls-2" x1="459.88" y1="155.28" x2="460.19" y2="155.28"/><line class="cls-2" x1="460.19" y1="156.79" x2="460.19" y2="155.28"/><line class="cls-2" x1="459.88" y1="156.79" x2="460.19" y2="156.79"/><line class="cls-2" x1="459.88" y1="156.79" x2="459.88" y2="155.28"/><line class="cls-2" x1="459.88" y1="127.5" x2="460.19" y2="127.5"/><line class="cls-2" x1="460.19" y1="127.5" x2="460.19" y2="125.98"/><line class="cls-2" x1="459.88" y1="125.98" x2="460.19" y2="125.98"/><line class="cls-2" x1="459.88" y1="127.5" x2="459.88" y2="125.98"/><rect class="cls-1" x="521.4" y="127.21" width="4.65" height="28.36"/><line class="cls-2" x1="525.31" y1="157.21" x2="525.54" y2="157.43"/><line class="cls-2" x1="525.54" y1="125.57" x2="525.28" y2="125.57"/><line class="cls-2" x1="525.28" y1="127.23" x2="522.25" y2="127.23"/><line class="cls-2" x1="525.54" y1="157.21" x2="525.28" y2="157.21"/><line class="cls-2" x1="525.28" y1="155.58" x2="522.25" y2="155.58"/><line class="cls-2" x1="525.09" y1="127.23" x2="522.48" y2="127.23"/><line class="cls-2" x1="525.09" y1="155.58" x2="522.48" y2="155.58"/><line class="cls-2" x1="525.28" y1="155.58" x2="525.28" y2="155.2"/><line class="cls-2" x1="522.25" y1="155.58" x2="522.25" y2="155.2"/><line class="cls-2" x1="525.28" y1="155.58" x2="522.25" y2="155.58"/><line class="cls-2" x1="525.28" y1="155.2" x2="522.25" y2="155.2"/><line class="cls-2" x1="525.28" y1="127.57" x2="525.28" y2="127.23"/><line class="cls-2" x1="522.25" y1="127.57" x2="522.25" y2="127.23"/><line class="cls-2" x1="525.28" y1="127.57" x2="522.25" y2="127.57"/><line class="cls-2" x1="525.28" y1="127.23" x2="522.25" y2="127.23"/><line class="cls-2" x1="524.71" y1="155.2" x2="524.71" y2="141.75"/><line class="cls-2" x1="524.33" y1="155.2" x2="524.33" y2="141.75"/><line class="cls-2" x1="525.24" y1="141.75" x2="525.24" y2="141.03"/><line class="cls-2" x1="523.8" y1="141.75" x2="523.8" y2="141.03"/><line class="cls-2" x1="525.24" y1="141.75" x2="523.8" y2="141.75"/><line class="cls-2" x1="525.24" y1="141.03" x2="523.8" y2="141.03"/><line class="cls-2" x1="524.71" y1="141.03" x2="524.71" y2="127.57"/><line class="cls-2" x1="524.33" y1="141.03" x2="524.33" y2="127.57"/><line class="cls-2" x1="525.28" y1="125.57" x2="526.11" y2="125.57"/><line class="cls-2" x1="526.11" y1="125.57" x2="526.11" y2="157.21"/><line class="cls-2" x1="525.28" y1="157.21" x2="526.11" y2="157.21"/><line class="cls-2" x1="525.28" y1="155.58" x2="525.65" y2="155.58"/><line class="cls-2" x1="525.65" y1="155.58" x2="525.65" y2="157.21"/><line class="cls-2" x1="525.28" y1="157.21" x2="525.65" y2="157.21"/><line class="cls-2" x1="525.28" y1="127.23" x2="525.65" y2="127.23"/><line class="cls-2" x1="525.65" y1="125.57" x2="525.65" y2="127.23"/><line class="cls-2" x1="525.28" y1="125.57" x2="525.65" y2="125.57"/><line class="cls-2" x1="522.25" y1="157.05" x2="521.46" y2="157.05"/><line class="cls-2" x1="521.46" y1="125.76" x2="521.46" y2="157.05"/><line class="cls-2" x1="522.25" y1="125.76" x2="521.46" y2="125.76"/><line class="cls-2" x1="522.25" y1="127.5" x2="521.95" y2="127.5"/><line class="cls-2" x1="521.95" y1="125.98" x2="521.95" y2="127.5"/><line class="cls-2" x1="522.25" y1="125.98" x2="521.95" y2="125.98"/><line class="cls-2" x1="522.25" y1="125.98" x2="522.25" y2="127.5"/><line class="cls-2" x1="522.25" y1="155.28" x2="521.95" y2="155.28"/><line class="cls-2" x1="521.95" y1="155.28" x2="521.95" y2="156.79"/><line class="cls-2" x1="522.25" y1="156.79" x2="521.95" y2="156.79"/><line class="cls-2" x1="522.25" y1="155.28" x2="522.25" y2="156.79"/></g></g></svg>