<svg id="图层_1" data-name="图层 1" xmlns="http://www.w3.org/2000/svg" viewBox="0 0 1008 504"><defs><style>.cls-1,.cls-2{fill:#fff;}.cls-1{fill-rule:evenodd;}.cls-3,.cls-4{fill:none;stroke:#0c4f71;stroke-linecap:round;stroke-linejoin:bevel;}.cls-3{stroke-width:0.15px;}.cls-4{stroke-width:0.23px;}</style></defs><g id="FIREPLACE"><polygon class="cls-1" points="472.66 237.31 472.66 232.59 472.66 217.47 472.66 212.74 466.54 212.74 466.54 237.31 472.66 237.31"/><rect class="cls-2" x="472.66" y="217.47" width="2.38" height="15.12"/><line class="cls-3" x1="472.66" y1="232.59" x2="475.04" y2="232.59"/><line class="cls-3" x1="475.04" y1="217.47" x2="472.66" y2="217.47"/><line class="cls-3" x1="472.66" y1="217.47" x2="472.66" y2="212.74"/><line class="cls-3" x1="472.66" y1="212.74" x2="466.54" y2="212.74"/><line class="cls-3" x1="466.54" y1="212.74" x2="466.54" y2="237.31"/><line class="cls-3" x1="466.54" y1="237.31" x2="472.66" y2="237.31"/><line class="cls-3" x1="472.66" y1="237.31" x2="472.66" y2="232.59"/><line class="cls-3" x1="466.54" y1="232.59" x2="475.04" y2="232.59"/><line class="cls-3" x1="475.04" y1="217.47" x2="466.54" y2="217.47"/><line class="cls-3" x1="472.66" y1="212.74" x2="466.54" y2="212.74"/><line class="cls-3" x1="466.54" y1="212.74" x2="466.54" y2="237.31"/><line class="cls-3" x1="466.54" y1="237.31" x2="472.66" y2="237.31"/><rect class="cls-2" x="465.1" y="211.31" width="7.56" height="27.4"/><line class="cls-3" x1="472.66" y1="211.31" x2="465.1" y2="211.31"/><line class="cls-3" x1="465.1" y1="211.31" x2="465.1" y2="238.71"/><line class="cls-3" x1="465.1" y1="238.71" x2="472.66" y2="238.71"/><line class="cls-3" x1="472.66" y1="238.71" x2="472.66" y2="211.31"/><line class="cls-3" x1="468.43" y1="235.38" x2="472.66" y2="235.38"/><line class="cls-3" x1="468.43" y1="235.38" x2="468.43" y2="214.63"/><line class="cls-3" x1="468.43" y1="217.47" x2="472.66" y2="217.47"/><line class="cls-3" x1="472.66" y1="232.59" x2="468.43" y2="232.59"/><line class="cls-3" x1="472.66" y1="214.67" x2="468.47" y2="214.67"/><line class="cls-3" x1="472.66" y1="211.31" x2="465.1" y2="211.31"/><line class="cls-3" x1="465.1" y1="211.31" x2="465.1" y2="238.71"/><line class="cls-3" x1="465.1" y1="238.71" x2="472.66" y2="238.71"/><line class="cls-3" x1="472.66" y1="238.71" x2="472.66" y2="211.31"/><rect class="cls-2" x="466.16" y="217.47" width="0.38" height="15.12"/><line class="cls-3" x1="466.54" y1="232.59" x2="466.54" y2="217.47"/><line class="cls-3" x1="466.54" y1="217.47" x2="466.16" y2="217.47"/><line class="cls-3" x1="466.16" y1="217.47" x2="466.16" y2="232.59"/><line class="cls-3" x1="466.16" y1="232.59" x2="466.54" y2="232.59"/><line class="cls-3" x1="466.42" y1="217.47" x2="466.42" y2="232.59"/><polygon class="cls-1" points="473.04 231.26 473.04 218.68 469.71 218.68 469.71 220.26 469.71 229.68 469.71 231.26 473.04 231.26"/><rect class="cls-2" x="469.6" y="220.27" width="0.11" height="9.41"/><polygon class="cls-1" points="469.6 229.68 469.6 220.26 469.6 218.68 467.94 218.68 467.94 231.26 469.6 231.26 469.6 229.68"/><line class="cls-3" x1="473.04" y1="218.68" x2="469.71" y2="218.68"/><line class="cls-3" x1="469.71" y1="218.68" x2="469.71" y2="220.27"/><line class="cls-3" x1="469.71" y1="220.27" x2="469.6" y2="220.27"/><line class="cls-3" x1="469.6" y1="220.27" x2="469.6" y2="218.68"/><line class="cls-3" x1="469.6" y1="218.68" x2="467.94" y2="218.68"/><line class="cls-3" x1="467.94" y1="218.68" x2="467.94" y2="231.26"/><line class="cls-3" x1="467.94" y1="231.26" x2="469.6" y2="231.26"/><line class="cls-3" x1="469.6" y1="231.26" x2="469.6" y2="229.68"/><line class="cls-3" x1="469.6" y1="229.68" x2="469.71" y2="229.68"/><line class="cls-3" x1="469.71" y1="229.68" x2="469.71" y2="231.26"/><line class="cls-3" x1="469.71" y1="231.26" x2="473.04" y2="231.26"/><line class="cls-3" x1="473.04" y1="231.26" x2="473.04" y2="218.68"/><line class="cls-3" x1="468.92" y1="229.68" x2="471.19" y2="229.68"/><line class="cls-3" x1="471.19" y1="229.68" x2="471.19" y2="220.27"/><line class="cls-3" x1="471.19" y1="220.27" x2="468.92" y2="220.27"/><line class="cls-3" x1="468.92" y1="220.27" x2="468.92" y2="229.68"/><line class="cls-3" x1="471.38" y1="218.68" x2="471.38" y2="231.26"/><line class="cls-3" x1="469.6" y1="218.68" x2="467.94" y2="218.68"/><line class="cls-3" x1="467.94" y1="218.68" x2="467.94" y2="231.26"/><line class="cls-3" x1="467.94" y1="231.26" x2="469.6" y2="231.26"/><line class="cls-3" x1="469.6" y1="231.26" x2="469.6" y2="229.68"/><line class="cls-3" x1="469.71" y1="229.68" x2="469.71" y2="231.26"/><line class="cls-3" x1="469.71" y1="231.26" x2="473.04" y2="231.26"/><line class="cls-3" x1="473.04" y1="231.26" x2="473.04" y2="218.68"/><line class="cls-3" x1="473.04" y1="218.68" x2="469.71" y2="218.68"/><line class="cls-3" x1="469.71" y1="218.68" x2="469.71" y2="220.27"/><line class="cls-3" x1="469.6" y1="220.27" x2="469.6" y2="218.68"/><line class="cls-4" x1="472.47" y1="211.31" x2="467.03" y2="211.31"/><line class="cls-4" x1="475.04" y1="211.31" x2="473.61" y2="211.31"/><line class="cls-4" x1="465.1" y1="211.31" x2="466.54" y2="211.31"/><line class="cls-4" x1="465.1" y1="211.31" x2="465.1" y2="221.1"/><line class="cls-4" x1="465.1" y1="223.82" x2="465.1" y2="229.26"/><line class="cls-4" x1="465.1" y1="231.98" x2="465.1" y2="238.71"/><line class="cls-4" x1="472.47" y1="238.71" x2="467.03" y2="238.71"/><line class="cls-4" x1="475.04" y1="238.71" x2="473.61" y2="238.71"/><line class="cls-4" x1="465.1" y1="238.71" x2="466.54" y2="238.71"/></g></svg>