<svg id="图层_1" data-name="图层 1" xmlns="http://www.w3.org/2000/svg" viewBox="0 0 1008 504"><defs><style>.cls-1,.cls-4{fill:#fff;}.cls-2,.cls-21,.cls-3,.cls-7,.cls-8,.cls-9{fill:none;}.cls-2,.cls-3,.cls-7,.cls-8,.cls-9{stroke:#0c4f71;stroke-linejoin:bevel;}.cls-2,.cls-7,.cls-8,.cls-9{stroke-linecap:round;}.cls-2{stroke-width:0.23px;}.cls-3{stroke-width:0;}.cls-4,.cls-5{fill-rule:evenodd;}.cls-10,.cls-5,.cls-6{fill:#0c5275;}.cls-7,.cls-9{stroke-width:0.3px;}.cls-8{stroke-width:0.15px;}.cls-9{stroke-dasharray:2.57;}.cls-10{font-size:7px;font-family:CenturyGothic, Century Gothic;}.cls-11{letter-spacing:0em;}.cls-12{letter-spacing:-0.01em;}.cls-13{letter-spacing:0em;}.cls-14{letter-spacing:0em;}.cls-15{letter-spacing:-0.01em;}.cls-16{letter-spacing:0.01em;}.cls-17{letter-spacing:-0.01em;}.cls-18{letter-spacing:0em;}.cls-19{letter-spacing:0em;}.cls-20{letter-spacing:-0.01em;}</style></defs><title>SUNROOM-1</title><g id="merlot-IFP_main_floor" data-name="merlot-IFP main floor"><g id="SUNROOM-1"><g id="SUNROOM-1-2" data-name="SUNROOM-1"><rect class="cls-1" x="459.82" y="110.98" width="62.52" height="64.5"/><line class="cls-2" x1="459.82" y1="110.98" x2="459.82" y2="110.71"/><line class="cls-2" x1="459.82" y1="110.98" x2="459.82" y2="110.71"/><line class="cls-2" x1="522.19" y1="110.98" x2="522.19" y2="110.71"/><line class="cls-2" x1="462.17" y1="110.71" x2="463.87" y2="110.71"/><line class="cls-2" x1="465.57" y1="110.71" x2="467.27" y2="110.71"/><line class="cls-2" x1="468.97" y1="110.71" x2="470.67" y2="110.71"/><line class="cls-2" x1="472.37" y1="110.71" x2="474.07" y2="110.71"/><line class="cls-2" x1="475.77" y1="110.71" x2="477.48" y2="110.71"/><line class="cls-2" x1="479.18" y1="110.71" x2="480.88" y2="110.71"/><line class="cls-2" x1="482.58" y1="110.71" x2="484.28" y2="110.71"/><line class="cls-2" x1="485.98" y1="110.71" x2="487.68" y2="110.71"/><line class="cls-2" x1="489.38" y1="110.71" x2="491.08" y2="110.71"/><line class="cls-2" x1="492.78" y1="110.71" x2="494.48" y2="110.71"/><line class="cls-2" x1="496.19" y1="110.71" x2="497.89" y2="110.71"/><line class="cls-2" x1="499.59" y1="110.71" x2="501.29" y2="110.71"/><line class="cls-2" x1="502.99" y1="110.71" x2="504.69" y2="110.71"/><line class="cls-2" x1="506.39" y1="110.71" x2="508.09" y2="110.71"/><line class="cls-2" x1="509.79" y1="110.71" x2="511.49" y2="110.71"/><line class="cls-2" x1="513.19" y1="110.71" x2="514.9" y2="110.71"/><line class="cls-2" x1="516.6" y1="110.71" x2="518.3" y2="110.71"/><line class="cls-2" x1="520" y1="110.71" x2="523.14" y2="110.71"/><line class="cls-2" x1="459.82" y1="110.71" x2="461.22" y2="110.71"/><line class="cls-2" x1="523.14" y1="112.87" x2="523.14" y2="114.57"/><line class="cls-2" x1="523.14" y1="116.27" x2="523.14" y2="118.27"/><line class="cls-2" x1="523.14" y1="110.71" x2="523.14" y2="112.15"/><line class="cls-2" x1="524.76" y1="173.34" x2="524.76" y2="175.8"/><line class="cls-2" x1="524.76" y1="177.5" x2="524.76" y2="179.2"/><line class="cls-2" x1="524.76" y1="180.9" x2="524.76" y2="182.6"/><line class="cls-2" x1="524.76" y1="184.68" x2="524.76" y2="183.25"/><line class="cls-2" x1="526.8" y1="184.68" x2="528.5" y2="184.68"/><line class="cls-2" x1="524.76" y1="184.68" x2="526.2" y2="184.68"/><line class="cls-2" x1="524.23" y1="185.36" x2="524.19" y2="185.36"/><line class="cls-2" x1="524.19" y1="185.36" x2="524.16" y2="185.36"/><line class="cls-2" x1="524.16" y1="185.36" x2="524.12" y2="185.36"/><line class="cls-2" x1="524.12" y1="185.36" x2="524.12" y2="185.32"/><line class="cls-2" x1="524.12" y1="185.32" x2="524.08" y2="185.32"/><line class="cls-2" x1="524.08" y1="185.32" x2="524.08" y2="185.29"/><line class="cls-2" x1="524.08" y1="185.29" x2="524.08" y2="185.25"/><line class="cls-2" x1="524.08" y1="185.25" x2="524.08" y2="185.21"/><line class="cls-2" x1="524.08" y1="185.21" x2="524.08" y2="173.34"/><line class="cls-2" x1="459.82" y1="110.71" x2="522.19" y2="110.71"/><line class="cls-2" x1="522.19" y1="110.71" x2="522.19" y2="118.99"/><line class="cls-2" x1="459.82" y1="118.99" x2="459.82" y2="110.71"/><line class="cls-2" x1="459.56" y1="173.34" x2="459.6" y2="173.34"/><line class="cls-3" x1="527.9" y1="170.28" x2="528.13" y2="170.05"/><polygon class="cls-4" points="525.44 107.69 525.44 150.66 525.22 150.66 525.22 108.17 525.44 107.69"/><line class="cls-3" x1="525.21" y1="108.9" x2="525.44" y2="109.12"/><line class="cls-3" x1="525.21" y1="111.58" x2="525.44" y2="111.81"/><line class="cls-3" x1="525.21" y1="114.26" x2="525.44" y2="114.49"/><line class="cls-3" x1="525.21" y1="116.91" x2="525.44" y2="117.17"/><line class="cls-3" x1="525.21" y1="119.59" x2="525.44" y2="119.82"/><line class="cls-3" x1="525.21" y1="122.28" x2="525.44" y2="122.5"/><line class="cls-3" x1="525.21" y1="124.92" x2="525.44" y2="125.19"/><line class="cls-3" x1="525.21" y1="127.61" x2="525.44" y2="127.83"/><polygon class="cls-4" points="525.44 150.66 525.44 170.05 525.22 170.28 525.22 150.66 525.44 150.66"/><line class="cls-3" x1="525.21" y1="151.68" x2="525.44" y2="151.91"/><line class="cls-3" x1="525.21" y1="154.33" x2="525.44" y2="154.59"/><line class="cls-3" x1="525.21" y1="157.01" x2="525.44" y2="157.24"/><line class="cls-3" x1="525.21" y1="159.7" x2="525.44" y2="159.92"/><line class="cls-3" x1="525.21" y1="162.34" x2="525.44" y2="162.61"/><line class="cls-3" x1="525.21" y1="165.03" x2="525.44" y2="165.25"/><line class="cls-3" x1="525.21" y1="167.71" x2="525.44" y2="167.94"/><polygon class="cls-5" points="525.22 107.86 525.22 150.66 525.03 150.66 525.03 108.34 525.22 107.86"/><polygon class="cls-5" points="525.22 150.66 525.22 170.28 525.03 170.51 525.03 150.66 525.22 150.66"/><rect class="cls-6" x="522.42" y="150.66" width="2.61" height="22.41"/><polygon class="cls-5" points="522.42 110.81 522.42 150.66 522.19 150.66 522.19 111.42 522.42 110.81"/><polygon class="cls-5" points="522.42 150.66 522.42 173.08 522.19 173.34 522.19 150.66 522.42 150.66"/><rect class="cls-1" x="429.43" y="170.05" width="3.93" height="0.23"/><line class="cls-3" x1="431.66" y1="170.28" x2="431.89" y2="170.05"/><polygon class="cls-4" points="450.38 170.05 456.54 170.05 456.76 170.28 450.38 170.28 450.38 170.05"/><line class="cls-3" x1="450.37" y1="170.28" x2="450.6" y2="170.05"/><line class="cls-3" x1="453.06" y1="170.28" x2="453.29" y2="170.05"/><line class="cls-3" x1="455.7" y1="170.28" x2="455.97" y2="170.05"/><rect class="cls-6" x="429.43" y="170.28" width="3.93" height="0.23"/><polygon class="cls-5" points="450.38 170.28 456.76 170.28 456.99 170.51 450.38 170.51 450.38 170.28"/><rect class="cls-6" x="429.43" y="170.51" width="3.93" height="2.57"/><rect class="cls-6" x="450.37" y="170.51" width="6.61" height="2.57"/><rect class="cls-6" x="429.43" y="173.08" width="3.93" height="0.26"/><polygon class="cls-5" points="450.38 173.08 459.56 173.08 459.82 173.34 450.38 173.34 450.38 173.08"/><polygon class="cls-4" points="456.54 170.05 456.54 150.66 456.76 150.66 456.76 170.28 456.54 170.05"/><line class="cls-3" x1="456.54" y1="152.48" x2="456.76" y2="152.71"/><line class="cls-3" x1="456.54" y1="155.12" x2="456.76" y2="155.39"/><line class="cls-3" x1="456.54" y1="157.81" x2="456.76" y2="158.03"/><line class="cls-3" x1="456.54" y1="160.49" x2="456.76" y2="160.72"/><line class="cls-3" x1="456.54" y1="163.14" x2="456.76" y2="163.4"/><line class="cls-3" x1="456.54" y1="165.82" x2="456.76" y2="166.05"/><line class="cls-3" x1="456.54" y1="168.5" x2="456.76" y2="168.73"/><polygon class="cls-4" points="456.54 150.95 456.54 107.21 456.76 107.7 456.76 150.95 456.54 150.95"/><line class="cls-3" x1="456.54" y1="109.69" x2="456.76" y2="109.92"/><line class="cls-3" x1="456.54" y1="112.37" x2="456.76" y2="112.6"/><line class="cls-3" x1="456.54" y1="115.06" x2="456.76" y2="115.28"/><line class="cls-3" x1="456.54" y1="117.7" x2="456.76" y2="117.97"/><line class="cls-3" x1="456.54" y1="120.39" x2="456.76" y2="120.61"/><line class="cls-3" x1="456.54" y1="123.07" x2="456.76" y2="123.3"/><line class="cls-3" x1="456.54" y1="125.75" x2="456.76" y2="125.98"/><polygon class="cls-5" points="456.76 170.28 456.76 150.66 456.99 150.66 456.99 170.51 456.76 170.28"/><polygon class="cls-5" points="456.76 150.95 456.76 107.7 456.99 108.19 456.99 150.95 456.76 150.95"/><rect class="cls-6" x="456.99" y="150.66" width="2.57" height="22.41"/><rect class="cls-6" x="456.99" y="108.19" width="2.57" height="42.76"/><polygon class="cls-5" points="459.56 173.08 459.56 150.66 459.82 150.66 459.82 173.34 459.56 173.08"/><polygon class="cls-5" points="459.56 150.95 459.56 110.71 459.82 111.33 459.82 150.95 459.56 150.95"/><polygon class="cls-4" points="456.54 107.69 466.67 107.69 466.67 107.91 456.76 107.91 456.54 107.69"/><line class="cls-3" x1="456.69" y1="107.84" x2="456.84" y2="107.69"/><line class="cls-3" x1="459.29" y1="107.91" x2="459.52" y2="107.69"/><line class="cls-3" x1="461.94" y1="107.91" x2="462.21" y2="107.69"/><line class="cls-3" x1="464.62" y1="107.91" x2="464.85" y2="107.69"/><polygon class="cls-4" points="515.31 107.69 525.44 107.69 525.22 107.91 515.31 107.91 515.31 107.69"/><line class="cls-3" x1="515.43" y1="107.91" x2="515.65" y2="107.69"/><line class="cls-3" x1="518.07" y1="107.91" x2="518.34" y2="107.69"/><line class="cls-3" x1="520.75" y1="107.91" x2="520.98" y2="107.69"/><line class="cls-3" x1="523.44" y1="107.91" x2="523.67" y2="107.69"/><polygon class="cls-5" points="456.76 107.91 468.33 107.91 468.33 108.14 456.99 108.14 456.76 107.91"/><polygon class="cls-5" points="513.69 107.91 525.22 107.91 525.03 108.14 513.69 108.14 513.69 107.91"/><rect class="cls-6" x="459.56" y="108.14" width="8.77" height="2.57"/><rect class="cls-6" x="513.69" y="108.14" width="8.73" height="2.57"/><polygon class="cls-5" points="459.56 110.71 468.33 110.71 468.33 110.98 459.82 110.98 459.56 110.71"/><polygon class="cls-5" points="513.69 110.71 522.42 110.71 522.19 110.98 513.69 110.98 513.69 110.71"/><line class="cls-7" x1="525.03" y1="150.66" x2="525.03" y2="108.14"/><line class="cls-7" x1="525.03" y1="170.51" x2="525.03" y2="150.66"/><line class="cls-7" x1="525.06" y1="108.14" x2="522.42" y2="108.14"/><line class="cls-7" x1="522.42" y1="173.08" x2="525.03" y2="173.08"/><line class="cls-7" x1="522.42" y1="110.8" x2="522.42" y2="150.66"/><line class="cls-7" x1="522.42" y1="150.66" x2="522.42" y2="173.08"/><line class="cls-7" x1="433.37" y1="170.51" x2="432.31" y2="170.51"/><line class="cls-7" x1="456.99" y1="170.51" x2="450.37" y2="170.51"/><line class="cls-7" x1="433.37" y1="170.51" x2="433.37" y2="173.08"/><line class="cls-7" x1="450.37" y1="170.51" x2="450.37" y2="173.08"/><line class="cls-7" x1="433.37" y1="170.51" x2="433.37" y2="173.08"/><line class="cls-7" x1="450.37" y1="170.51" x2="450.37" y2="173.08"/><line class="cls-7" x1="432.31" y1="173.08" x2="433.37" y2="173.08"/><line class="cls-7" x1="450.37" y1="173.08" x2="456.99" y2="173.08"/><line class="cls-8" x1="450.37" y1="170.05" x2="450" y2="170.05"/><line class="cls-8" x1="450.37" y1="173.34" x2="450" y2="173.34"/><line class="cls-8" x1="450.37" y1="170.05" x2="450.37" y2="173.34"/><line class="cls-8" x1="450" y1="170.05" x2="450" y2="173.34"/><line class="cls-8" x1="433.71" y1="170.05" x2="433.37" y2="170.05"/><line class="cls-8" x1="433.71" y1="173.34" x2="433.37" y2="173.34"/><line class="cls-8" x1="433.71" y1="170.05" x2="433.71" y2="173.34"/><line class="cls-8" x1="433.37" y1="170.05" x2="433.37" y2="173.34"/><line class="cls-8" x1="450" y1="170.62" x2="433.71" y2="170.62"/><line class="cls-8" x1="450" y1="171" x2="433.71" y2="171"/><line class="cls-8" x1="432.31" y1="169.3" x2="451.89" y2="169.3"/><line class="cls-8" x1="451.89" y1="170.05" x2="451.89" y2="169.3"/><line class="cls-8" x1="450.37" y1="170.05" x2="450.37" y2="169.75"/><line class="cls-8" x1="450.37" y1="169.75" x2="451.89" y2="169.75"/><line class="cls-8" x1="451.89" y1="170.05" x2="451.89" y2="169.75"/><line class="cls-8" x1="433.37" y1="170.05" x2="433.37" y2="169.75"/><line class="cls-8" x1="432.31" y1="169.75" x2="433.37" y2="169.75"/><line class="cls-8" x1="451.85" y1="173.34" x2="451.85" y2="174.1"/><line class="cls-8" x1="432.31" y1="174.1" x2="451.85" y2="174.1"/><line class="cls-8" x1="433.63" y1="173.34" x2="433.63" y2="173.65"/><line class="cls-8" x1="432.31" y1="173.65" x2="433.63" y2="173.65"/><line class="cls-8" x1="432.31" y1="173.34" x2="433.63" y2="173.34"/><line class="cls-8" x1="450.07" y1="173.34" x2="450.07" y2="173.65"/><line class="cls-8" x1="450.07" y1="173.65" x2="451.58" y2="173.65"/><line class="cls-8" x1="451.58" y1="173.34" x2="451.58" y2="173.65"/><line class="cls-8" x1="450.07" y1="173.34" x2="451.58" y2="173.34"/><line class="cls-8" x1="450.37" y1="170.05" x2="450" y2="170.05"/><line class="cls-8" x1="450.37" y1="173.34" x2="450" y2="173.34"/><line class="cls-8" x1="450.37" y1="170.05" x2="450.37" y2="173.34"/><line class="cls-8" x1="450" y1="170.05" x2="450" y2="173.34"/><line class="cls-8" x1="433.71" y1="170.05" x2="433.37" y2="170.05"/><line class="cls-8" x1="433.71" y1="173.34" x2="433.37" y2="173.34"/><line class="cls-8" x1="433.71" y1="170.05" x2="433.71" y2="173.34"/><line class="cls-8" x1="433.37" y1="170.05" x2="433.37" y2="173.34"/><line class="cls-8" x1="450" y1="170.62" x2="433.71" y2="170.62"/><line class="cls-8" x1="450" y1="171" x2="433.71" y2="171"/><line class="cls-8" x1="432.31" y1="169.22" x2="452" y2="169.22"/><line class="cls-8" x1="452" y1="170.05" x2="452" y2="169.22"/><line class="cls-8" x1="450.37" y1="170.05" x2="450.37" y2="169.68"/><line class="cls-8" x1="450.37" y1="169.68" x2="452" y2="169.68"/><line class="cls-8" x1="452" y1="170.05" x2="452" y2="169.68"/><line class="cls-8" x1="433.37" y1="170.05" x2="433.37" y2="169.68"/><line class="cls-8" x1="432.31" y1="169.68" x2="433.37" y2="169.68"/><line class="cls-8" x1="451.85" y1="173.34" x2="451.85" y2="174.1"/><line class="cls-8" x1="432.31" y1="174.1" x2="451.85" y2="174.1"/><line class="cls-8" x1="433.63" y1="173.34" x2="433.63" y2="173.65"/><line class="cls-8" x1="432.31" y1="173.65" x2="433.63" y2="173.65"/><line class="cls-8" x1="432.31" y1="173.34" x2="433.63" y2="173.34"/><line class="cls-8" x1="450.07" y1="173.34" x2="450.07" y2="173.65"/><line class="cls-8" x1="450.07" y1="173.65" x2="451.58" y2="173.65"/><line class="cls-8" x1="451.58" y1="173.34" x2="451.58" y2="173.65"/><line class="cls-8" x1="450.07" y1="173.34" x2="451.58" y2="173.34"/><line class="cls-7" x1="456.99" y1="150.66" x2="456.99" y2="170.51"/><line class="cls-7" x1="456.99" y1="108.19" x2="456.99" y2="150.95"/><line class="cls-7" x1="456.99" y1="173.08" x2="459.56" y2="173.08"/><line class="cls-7" x1="459.56" y1="108.14" x2="456.99" y2="108.14"/><line class="cls-7" x1="459.56" y1="173.08" x2="459.56" y2="150.66"/><line class="cls-7" x1="459.56" y1="150.95" x2="459.56" y2="110.71"/><line class="cls-7" x1="468.33" y1="108.14" x2="459.56" y2="108.14"/><line class="cls-7" x1="522.42" y1="108.14" x2="513.69" y2="108.14"/><line class="cls-7" x1="468.33" y1="108.14" x2="468.33" y2="110.71"/><line class="cls-7" x1="513.69" y1="108.14" x2="513.69" y2="110.71"/><line class="cls-7" x1="459.56" y1="110.71" x2="468.33" y2="110.71"/><line class="cls-7" x1="513.69" y1="110.71" x2="522.42" y2="110.71"/><line class="cls-8" x1="482.5" y1="107.8" x2="482.5" y2="111.09"/><line class="cls-8" x1="468.33" y1="107.69" x2="482.5" y2="107.69"/><line class="cls-8" x1="482.5" y1="107.91" x2="482.12" y2="107.91"/><line class="cls-8" x1="482.5" y1="110.98" x2="482.12" y2="110.98"/><line class="cls-8" x1="482.5" y1="107.91" x2="482.5" y2="110.98"/><line class="cls-8" x1="482.12" y1="107.91" x2="482.12" y2="110.98"/><line class="cls-8" x1="468.67" y1="107.91" x2="468.33" y2="107.91"/><line class="cls-8" x1="468.67" y1="110.98" x2="468.33" y2="110.98"/><line class="cls-8" x1="468.67" y1="107.91" x2="468.67" y2="110.98"/><line class="cls-8" x1="468.33" y1="107.91" x2="468.33" y2="110.98"/><line class="cls-8" x1="482.12" y1="108.52" x2="468.67" y2="108.52"/><line class="cls-8" x1="482.12" y1="108.9" x2="468.67" y2="108.9"/><line class="cls-8" x1="482.5" y1="107.8" x2="482.5" y2="111.09"/><line class="cls-8" x1="499.51" y1="107.8" x2="499.51" y2="111.09"/><line class="cls-8" x1="482.5" y1="107.69" x2="499.51" y2="107.69"/><line class="cls-8" x1="499.51" y1="107.91" x2="499.13" y2="107.91"/><line class="cls-8" x1="499.51" y1="110.98" x2="499.13" y2="110.98"/><line class="cls-8" x1="499.51" y1="107.91" x2="499.51" y2="110.98"/><line class="cls-8" x1="499.13" y1="107.91" x2="499.13" y2="110.98"/><line class="cls-8" x1="482.84" y1="107.91" x2="482.5" y2="107.91"/><line class="cls-8" x1="482.84" y1="110.98" x2="482.5" y2="110.98"/><line class="cls-8" x1="482.84" y1="107.91" x2="482.84" y2="110.98"/><line class="cls-8" x1="482.5" y1="107.91" x2="482.5" y2="110.98"/><line class="cls-8" x1="499.13" y1="108.52" x2="482.84" y2="108.52"/><line class="cls-8" x1="499.13" y1="108.9" x2="482.84" y2="108.9"/><line class="cls-8" x1="499.51" y1="107.8" x2="499.51" y2="111.09"/><line class="cls-8" x1="499.51" y1="107.8" x2="499.51" y2="107.8"/><line class="cls-8" x1="499.51" y1="111.09" x2="499.51" y2="111.09"/><line class="cls-8" x1="499.51" y1="107.69" x2="513.69" y2="107.69"/><line class="cls-8" x1="513.69" y1="107.91" x2="513.31" y2="107.91"/><line class="cls-8" x1="513.69" y1="110.98" x2="513.31" y2="110.98"/><line class="cls-8" x1="513.69" y1="107.91" x2="513.69" y2="110.98"/><line class="cls-8" x1="513.31" y1="107.91" x2="513.31" y2="110.98"/><line class="cls-8" x1="499.85" y1="107.91" x2="499.51" y2="107.91"/><line class="cls-8" x1="499.85" y1="110.98" x2="499.51" y2="110.98"/><line class="cls-8" x1="499.85" y1="107.91" x2="499.85" y2="110.98"/><line class="cls-8" x1="499.51" y1="107.91" x2="499.51" y2="110.98"/><line class="cls-8" x1="513.31" y1="108.52" x2="499.85" y2="108.52"/><line class="cls-8" x1="513.31" y1="108.9" x2="499.85" y2="108.9"/><line class="cls-8" x1="513.69" y1="107.91" x2="513.69" y2="107.57"/><line class="cls-8" x1="513.69" y1="107.57" x2="515.31" y2="107.57"/><line class="cls-8" x1="515.31" y1="107.91" x2="515.31" y2="107.57"/><line class="cls-8" x1="468.33" y1="107.91" x2="468.33" y2="107.57"/><line class="cls-8" x1="466.67" y1="107.57" x2="468.33" y2="107.57"/><line class="cls-8" x1="466.67" y1="107.91" x2="466.67" y2="107.57"/><line class="cls-8" x1="515.16" y1="110.98" x2="515.16" y2="111.73"/><line class="cls-8" x1="466.82" y1="111.73" x2="515.16" y2="111.73"/><line class="cls-8" x1="466.82" y1="110.98" x2="466.82" y2="111.73"/><line class="cls-8" x1="468.59" y1="110.98" x2="468.59" y2="111.28"/><line class="cls-8" x1="467.08" y1="111.28" x2="468.59" y2="111.28"/><line class="cls-8" x1="467.08" y1="110.98" x2="467.08" y2="111.28"/><line class="cls-8" x1="467.08" y1="110.98" x2="468.59" y2="110.98"/><line class="cls-8" x1="513.38" y1="110.98" x2="513.38" y2="111.28"/><line class="cls-8" x1="513.38" y1="111.28" x2="514.9" y2="111.28"/><line class="cls-8" x1="514.9" y1="110.98" x2="514.9" y2="111.28"/><line class="cls-8" x1="513.38" y1="110.98" x2="514.9" y2="110.98"/><rect class="cls-1" x="466.08" y="107.65" width="49.18" height="4.04"/><line class="cls-8" x1="515.22" y1="107.87" x2="515.22" y2="110.94"/><line class="cls-2" x1="466.72" y1="110.67" x2="468.42" y2="110.67"/><line class="cls-2" x1="470.12" y1="110.67" x2="471.83" y2="110.67"/><line class="cls-2" x1="473.53" y1="110.67" x2="475.23" y2="110.67"/><line class="cls-2" x1="476.93" y1="110.67" x2="478.63" y2="110.67"/><line class="cls-2" x1="480.33" y1="110.67" x2="482.03" y2="110.67"/><line class="cls-2" x1="483.73" y1="110.67" x2="485.43" y2="110.67"/><line class="cls-2" x1="487.13" y1="110.67" x2="488.83" y2="110.67"/><line class="cls-2" x1="490.54" y1="110.67" x2="492.24" y2="110.67"/><line class="cls-2" x1="493.94" y1="110.67" x2="495.64" y2="110.67"/><line class="cls-2" x1="497.34" y1="110.67" x2="499.04" y2="110.67"/><line class="cls-2" x1="500.74" y1="110.67" x2="502.44" y2="110.67"/><line class="cls-2" x1="504.14" y1="110.67" x2="505.84" y2="110.67"/><line class="cls-2" x1="507.54" y1="110.67" x2="509.25" y2="110.67"/><line class="cls-2" x1="510.95" y1="110.67" x2="512.65" y2="110.67"/><line class="cls-2" x1="514.35" y1="110.67" x2="516.16" y2="110.67"/><line class="cls-2" x1="464.87" y1="110.67" x2="466.31" y2="110.67"/><line class="cls-2" x1="466.08" y1="110.67" x2="515.22" y2="110.67"/><line class="cls-8" x1="515.22" y1="111.2" x2="514.92" y2="111.2"/><line class="cls-8" x1="466.08" y1="111.2" x2="466.34" y2="111.2"/><line class="cls-9" x1="466.08" y1="108.1" x2="466.08" y2="110.67"/><line class="cls-8" x1="480.25" y1="107.76" x2="480.25" y2="111.05"/><line class="cls-8" x1="466.08" y1="107.65" x2="480.25" y2="107.65"/><line class="cls-8" x1="480.25" y1="107.87" x2="479.88" y2="107.87"/><line class="cls-8" x1="480.25" y1="110.94" x2="479.88" y2="110.94"/><line class="cls-8" x1="480.25" y1="107.87" x2="480.25" y2="110.94"/><line class="cls-8" x1="479.88" y1="107.87" x2="479.88" y2="110.94"/><line class="cls-8" x1="466.42" y1="107.87" x2="466.08" y2="107.87"/><line class="cls-8" x1="466.42" y1="110.94" x2="466.08" y2="110.94"/><line class="cls-8" x1="466.42" y1="107.87" x2="466.42" y2="110.94"/><line class="cls-8" x1="466.08" y1="107.87" x2="466.08" y2="110.94"/><line class="cls-8" x1="479.88" y1="108.44" x2="466.42" y2="108.44"/><line class="cls-8" x1="479.88" y1="108.82" x2="466.42" y2="108.82"/><line class="cls-8" x1="480.25" y1="107.76" x2="480.25" y2="111.05"/><line class="cls-8" x1="501.04" y1="107.76" x2="501.04" y2="111.05"/><line class="cls-8" x1="480.25" y1="107.65" x2="501.04" y2="107.65"/><line class="cls-8" x1="501.04" y1="107.87" x2="500.67" y2="107.87"/><line class="cls-8" x1="501.04" y1="110.94" x2="500.67" y2="110.94"/><line class="cls-8" x1="501.04" y1="107.87" x2="501.04" y2="110.94"/><line class="cls-8" x1="500.67" y1="107.87" x2="500.67" y2="110.94"/><line class="cls-8" x1="480.59" y1="107.87" x2="480.25" y2="107.87"/><line class="cls-8" x1="480.59" y1="110.94" x2="480.25" y2="110.94"/><line class="cls-8" x1="480.59" y1="107.87" x2="480.59" y2="110.94"/><line class="cls-8" x1="480.25" y1="107.87" x2="480.25" y2="110.94"/><line class="cls-8" x1="500.67" y1="108.44" x2="480.59" y2="108.44"/><line class="cls-8" x1="500.67" y1="108.82" x2="480.59" y2="108.82"/><line class="cls-8" x1="501.04" y1="107.76" x2="501.04" y2="111.05"/><line class="cls-8" x1="501.04" y1="107.76" x2="501.04" y2="107.76"/><line class="cls-8" x1="501.04" y1="111.05" x2="501.04" y2="111.05"/><line class="cls-8" x1="501.04" y1="107.65" x2="515.22" y2="107.65"/><line class="cls-8" x1="515.22" y1="107.87" x2="514.84" y2="107.87"/><line class="cls-8" x1="515.22" y1="110.94" x2="514.84" y2="110.94"/><line class="cls-8" x1="514.84" y1="107.87" x2="514.84" y2="110.94"/><line class="cls-8" x1="501.38" y1="107.87" x2="501.04" y2="107.87"/><line class="cls-8" x1="501.38" y1="110.94" x2="501.04" y2="110.94"/><line class="cls-8" x1="501.38" y1="107.87" x2="501.38" y2="110.94"/><line class="cls-8" x1="501.04" y1="107.87" x2="501.04" y2="110.94"/><line class="cls-8" x1="514.84" y1="108.44" x2="501.38" y2="108.44"/><line class="cls-8" x1="514.84" y1="108.82" x2="501.38" y2="108.82"/><line class="cls-8" x1="515.22" y1="107.87" x2="515.22" y2="107.53"/><line class="cls-8" x1="515.22" y1="107.53" x2="516.84" y2="107.53"/><line class="cls-8" x1="516.84" y1="107.87" x2="516.84" y2="107.53"/><line class="cls-8" x1="466.08" y1="107.87" x2="466.08" y2="107.53"/><line class="cls-8" x1="464.42" y1="107.53" x2="466.08" y2="107.53"/><line class="cls-8" x1="464.42" y1="107.87" x2="464.42" y2="107.53"/><line class="cls-8" x1="516.69" y1="110.94" x2="516.69" y2="111.69"/><line class="cls-8" x1="464.57" y1="111.69" x2="516.69" y2="111.69"/><line class="cls-8" x1="464.57" y1="110.94" x2="464.57" y2="111.69"/><line class="cls-8" x1="466.34" y1="110.94" x2="466.34" y2="111.2"/><line class="cls-8" x1="464.83" y1="111.2" x2="466.34" y2="111.2"/><line class="cls-8" x1="464.83" y1="110.94" x2="464.83" y2="111.2"/><line class="cls-8" x1="464.83" y1="110.94" x2="466.34" y2="110.94"/><line class="cls-8" x1="514.92" y1="110.94" x2="514.92" y2="111.2"/><line class="cls-8" x1="514.92" y1="111.2" x2="516.43" y2="111.2"/><line class="cls-8" x1="516.43" y1="110.94" x2="516.43" y2="111.2"/><line class="cls-8" x1="514.92" y1="110.94" x2="516.43" y2="110.94"/><text class="cls-10" transform="translate(470.15 147.31)"><tspan class="cls-11">11</tspan><tspan class="cls-12" x="7.75" y="0">&apos;</tspan><tspan class="cls-13" x="9.09" y="0">-</tspan><tspan class="cls-14" x="11.4" y="0">0</tspan><tspan x="15.27" y="0">&quot;</tspan><tspan class="cls-15" x="17.43" y="0"> </tspan><tspan class="cls-14" x="19.33" y="0">X</tspan><tspan class="cls-16" x="23.58" y="0"> </tspan><tspan class="cls-17" x="25.57" y="0">1</tspan><tspan class="cls-18" x="29.36" y="0">0</tspan><tspan class="cls-19" x="33.24" y="0">&apos;</tspan><tspan class="cls-13" x="34.66" y="0">-</tspan><tspan class="cls-20" x="36.97" y="0">9</tspan><tspan x="40.76" y="0">&quot;</tspan></text><text class="cls-10" transform="translate(473.42 140.29)">SUNROOM</text><rect class="cls-21" x="455.49" y="105.01" width="73.06" height="69"/><rect class="cls-6" x="522.42" y="108.14" width="2.61" height="42.52"/></g></g></g></svg>