<svg id="图层_1" data-name="图层 1" xmlns="http://www.w3.org/2000/svg" viewBox="0 0 1008 504"><defs><style>.cls-1{fill:none;stroke:#0c4f71;stroke-linecap:round;stroke-linejoin:bevel;stroke-width:0.15px;}</style></defs><title>BEAM CEILING-1</title><g id="merlot-IFP_main_floor" data-name="merlot-IFP main floor"><g id="BEAM_CEILING-1" data-name="BEAM CEILING-1"><line class="cls-1" x1="471.9" y1="173.38" x2="471.9" y2="179.05"/><line class="cls-1" x1="439.05" y1="179.05" x2="442.46" y2="179.05"/><line class="cls-1" x1="445.18" y1="179.05" x2="456.06" y2="179.05"/><line class="cls-1" x1="458.78" y1="179.05" x2="464.23" y2="179.05"/><line class="cls-1" x1="466.95" y1="179.05" x2="471.9" y2="179.05"/><line class="cls-1" x1="379.86" y1="205.96" x2="390.75" y2="205.96"/><line class="cls-1" x1="393.47" y1="205.96" x2="398.91" y2="205.96"/><line class="cls-1" x1="401.63" y1="205.96" x2="412.52" y2="205.96"/><line class="cls-1" x1="415.24" y1="205.96" x2="420.68" y2="205.96"/><line class="cls-1" x1="423.41" y1="205.96" x2="434.29" y2="205.96"/><line class="cls-1" x1="437.01" y1="205.96" x2="442.46" y2="205.96"/><line class="cls-1" x1="445.18" y1="205.96" x2="456.06" y2="205.96"/><line class="cls-1" x1="458.78" y1="205.96" x2="464.23" y2="205.96"/><line class="cls-1" x1="376.23" y1="205.96" x2="377.63" y2="205.96"/><line class="cls-1" x1="466.23" y1="205.96" x2="464.79" y2="205.96"/><line class="cls-1" x1="466.23" y1="205.96" x2="466.23" y2="208.57"/><line class="cls-1" x1="379.86" y1="208.57" x2="390.75" y2="208.57"/><line class="cls-1" x1="393.47" y1="208.57" x2="398.91" y2="208.57"/><line class="cls-1" x1="401.63" y1="208.57" x2="412.52" y2="208.57"/><line class="cls-1" x1="415.24" y1="208.57" x2="420.68" y2="208.57"/><line class="cls-1" x1="423.41" y1="208.57" x2="434.29" y2="208.57"/><line class="cls-1" x1="437.01" y1="208.57" x2="442.46" y2="208.57"/><line class="cls-1" x1="445.18" y1="208.57" x2="456.06" y2="208.57"/><line class="cls-1" x1="458.78" y1="208.57" x2="464.23" y2="208.57"/><line class="cls-1" x1="376.23" y1="208.57" x2="377.63" y2="208.57"/><line class="cls-1" x1="466.23" y1="208.57" x2="464.79" y2="208.57"/><line class="cls-1" x1="376.23" y1="205.96" x2="376.23" y2="208.57"/><line class="cls-1" x1="406.7" y1="180.82" x2="406.7" y2="186.27"/><line class="cls-1" x1="406.7" y1="188.99" x2="406.7" y2="199.87"/><line class="cls-1" x1="406.7" y1="202.6" x2="406.7" y2="208.04"/><line class="cls-1" x1="406.7" y1="210.76" x2="406.7" y2="221.65"/><line class="cls-1" x1="406.7" y1="224.37" x2="406.7" y2="229.81"/><line class="cls-1" x1="406.7" y1="232.53" x2="406.7" y2="243.42"/><line class="cls-1" x1="406.7" y1="246.14" x2="406.7" y2="251.58"/><line class="cls-1" x1="406.7" y1="254.3" x2="406.7" y2="265.19"/><line class="cls-1" x1="406.7" y1="267.91" x2="406.7" y2="272.11"/><line class="cls-1" x1="406.7" y1="179.05" x2="406.7" y2="180.45"/><line class="cls-1" x1="406.7" y1="179.05" x2="409.31" y2="179.05"/><line class="cls-1" x1="409.31" y1="180.82" x2="409.31" y2="186.27"/><line class="cls-1" x1="409.31" y1="188.99" x2="409.31" y2="199.87"/><line class="cls-1" x1="409.31" y1="202.6" x2="409.31" y2="208.04"/><line class="cls-1" x1="409.31" y1="210.76" x2="409.31" y2="221.65"/><line class="cls-1" x1="409.31" y1="224.37" x2="409.31" y2="229.81"/><line class="cls-1" x1="409.31" y1="232.53" x2="409.31" y2="243.42"/><line class="cls-1" x1="409.31" y1="246.14" x2="409.31" y2="251.58"/><line class="cls-1" x1="409.31" y1="254.3" x2="409.31" y2="265.19"/><line class="cls-1" x1="409.31" y1="267.91" x2="409.31" y2="272.11"/><line class="cls-1" x1="409.31" y1="179.05" x2="409.31" y2="180.45"/><line class="cls-1" x1="406.7" y1="272.11" x2="409.31" y2="272.11"/><line class="cls-1" x1="436.48" y1="180.82" x2="436.48" y2="186.27"/><line class="cls-1" x1="436.48" y1="188.99" x2="436.48" y2="199.87"/><line class="cls-1" x1="436.48" y1="202.6" x2="436.48" y2="208.04"/><line class="cls-1" x1="436.48" y1="210.76" x2="436.48" y2="221.65"/><line class="cls-1" x1="436.48" y1="224.37" x2="436.48" y2="229.81"/><line class="cls-1" x1="436.48" y1="232.53" x2="436.48" y2="243.42"/><line class="cls-1" x1="436.48" y1="246.14" x2="436.48" y2="251.58"/><line class="cls-1" x1="436.48" y1="254.3" x2="436.48" y2="265.19"/><line class="cls-1" x1="436.48" y1="267.91" x2="436.48" y2="272.11"/><line class="cls-1" x1="436.48" y1="179.05" x2="436.48" y2="180.45"/><line class="cls-1" x1="371.7" y1="179.05" x2="377.14" y2="179.05"/><line class="cls-1" x1="379.86" y1="179.05" x2="390.75" y2="179.05"/><line class="cls-1" x1="393.47" y1="179.05" x2="398.91" y2="179.05"/><line class="cls-1" x1="401.63" y1="179.05" x2="412.52" y2="179.05"/><line class="cls-1" x1="415.24" y1="179.05" x2="420.68" y2="179.05"/><line class="cls-1" x1="423.41" y1="179.05" x2="434.29" y2="179.05"/><line class="cls-1" x1="369.13" y1="179.05" x2="370.56" y2="179.05"/><line class="cls-1" x1="436.48" y1="179.05" x2="435.05" y2="179.05"/><line class="cls-1" x1="439.05" y1="180.82" x2="439.05" y2="186.27"/><line class="cls-1" x1="439.05" y1="188.99" x2="439.05" y2="199.87"/><line class="cls-1" x1="439.05" y1="202.6" x2="439.05" y2="208.04"/><line class="cls-1" x1="439.05" y1="210.76" x2="439.05" y2="221.65"/><line class="cls-1" x1="439.05" y1="224.37" x2="439.05" y2="229.81"/><line class="cls-1" x1="439.05" y1="232.53" x2="439.05" y2="243.42"/><line class="cls-1" x1="439.05" y1="246.14" x2="439.05" y2="251.58"/><line class="cls-1" x1="439.05" y1="254.3" x2="439.05" y2="265.19"/><line class="cls-1" x1="439.05" y1="267.91" x2="439.05" y2="272.11"/><line class="cls-1" x1="439.05" y1="179.05" x2="439.05" y2="180.45"/><line class="cls-1" x1="436.48" y1="272.11" x2="439.05" y2="272.11"/><line class="cls-1" x1="471.9" y1="272.11" x2="469.67" y2="272.11"/><line class="cls-1" x1="466.95" y1="272.11" x2="456.06" y2="272.11"/><line class="cls-1" x1="453.34" y1="272.11" x2="447.9" y2="272.11"/><line class="cls-1" x1="445.18" y1="272.11" x2="434.29" y2="272.11"/><line class="cls-1" x1="431.57" y1="272.11" x2="426.13" y2="272.11"/><line class="cls-1" x1="423.41" y1="272.11" x2="412.52" y2="272.11"/><line class="cls-1" x1="409.8" y1="272.11" x2="404.35" y2="272.11"/><line class="cls-1" x1="401.63" y1="272.11" x2="390.75" y2="272.11"/><line class="cls-1" x1="388.03" y1="272.11" x2="382.58" y2="272.11"/><line class="cls-1" x1="379.86" y1="272.11" x2="369.13" y2="272.11"/><line class="cls-1" x1="471.9" y1="276.08" x2="471.9" y2="277.78"/><line class="cls-1" x1="471.9" y1="272.11" x2="471.9" y2="273.54"/><line class="cls-1" x1="371.7" y1="277.78" x2="377.14" y2="277.78"/><line class="cls-1" x1="379.86" y1="277.78" x2="390.75" y2="277.78"/><line class="cls-1" x1="393.47" y1="277.78" x2="398.91" y2="277.78"/><line class="cls-1" x1="401.63" y1="277.78" x2="412.52" y2="277.78"/><line class="cls-1" x1="458.78" y1="277.78" x2="464.23" y2="277.78"/><line class="cls-1" x1="466.95" y1="277.78" x2="471.67" y2="277.78"/><line class="cls-1" x1="369.13" y1="277.78" x2="370.56" y2="277.78"/><line class="cls-1" x1="369.13" y1="276.08" x2="369.13" y2="277.78"/><line class="cls-1" x1="379.86" y1="242.59" x2="390.75" y2="242.59"/><line class="cls-1" x1="393.47" y1="242.59" x2="398.91" y2="242.59"/><line class="cls-1" x1="401.63" y1="242.59" x2="412.52" y2="242.59"/><line class="cls-1" x1="415.24" y1="242.59" x2="420.68" y2="242.59"/><line class="cls-1" x1="423.41" y1="242.59" x2="434.29" y2="242.59"/><line class="cls-1" x1="437.01" y1="242.59" x2="442.46" y2="242.59"/><line class="cls-1" x1="445.18" y1="242.59" x2="456.06" y2="242.59"/><line class="cls-1" x1="458.78" y1="242.59" x2="464.23" y2="242.59"/><line class="cls-1" x1="376.23" y1="242.59" x2="377.67" y2="242.59"/><line class="cls-1" x1="466.23" y1="242.59" x2="464.79" y2="242.59"/><line class="cls-1" x1="466.23" y1="242.59" x2="466.23" y2="245.19"/><line class="cls-1" x1="379.86" y1="245.19" x2="390.75" y2="245.19"/><line class="cls-1" x1="393.47" y1="245.19" x2="398.91" y2="245.19"/><line class="cls-1" x1="401.63" y1="245.19" x2="412.52" y2="245.19"/><line class="cls-1" x1="415.24" y1="245.19" x2="420.68" y2="245.19"/><line class="cls-1" x1="423.41" y1="245.19" x2="434.29" y2="245.19"/><line class="cls-1" x1="437.01" y1="245.19" x2="442.46" y2="245.19"/><line class="cls-1" x1="445.18" y1="245.19" x2="456.06" y2="245.19"/><line class="cls-1" x1="458.78" y1="245.19" x2="464.23" y2="245.19"/><line class="cls-1" x1="376.23" y1="245.19" x2="377.67" y2="245.19"/><line class="cls-1" x1="466.23" y1="245.19" x2="464.79" y2="245.19"/><line class="cls-1" x1="376.23" y1="242.59" x2="376.23" y2="245.19"/><line class="cls-1" x1="466.23" y1="173.38" x2="466.23" y2="178.1"/><line class="cls-1" x1="466.23" y1="180.82" x2="466.23" y2="186.27"/><line class="cls-1" x1="466.23" y1="188.99" x2="466.23" y2="199.87"/><line class="cls-1" x1="466.23" y1="202.6" x2="466.23" y2="208.04"/><line class="cls-1" x1="466.23" y1="210.76" x2="466.23" y2="221.65"/><line class="cls-1" x1="466.23" y1="224.37" x2="466.23" y2="229.81"/><line class="cls-1" x1="466.23" y1="232.53" x2="466.23" y2="243.42"/><line class="cls-1" x1="466.23" y1="246.14" x2="466.23" y2="251.58"/><line class="cls-1" x1="466.23" y1="254.3" x2="466.23" y2="265.19"/><line class="cls-1" x1="466.23" y1="267.91" x2="466.23" y2="273.35"/><line class="cls-1" x1="466.23" y1="276.08" x2="466.23" y2="277.78"/><line class="cls-1" x1="471.9" y1="173.38" x2="471.9" y2="178.1"/><line class="cls-1" x1="471.9" y1="180.82" x2="471.9" y2="186.27"/><line class="cls-1" x1="471.9" y1="188.99" x2="471.9" y2="199.87"/><line class="cls-1" x1="471.9" y1="202.6" x2="471.9" y2="208.04"/><line class="cls-1" x1="471.9" y1="210.76" x2="471.9" y2="221.65"/><line class="cls-1" x1="471.9" y1="224.37" x2="471.9" y2="229.81"/><line class="cls-1" x1="471.9" y1="232.53" x2="471.9" y2="243.42"/><line class="cls-1" x1="471.9" y1="246.14" x2="471.9" y2="251.58"/><line class="cls-1" x1="471.9" y1="254.3" x2="471.9" y2="265.19"/><line class="cls-1" x1="471.9" y1="267.91" x2="471.9" y2="273.35"/><line class="cls-1" x1="471.9" y1="276.08" x2="471.9" y2="277.78"/><line class="cls-1" x1="466.23" y1="277.78" x2="471.9" y2="277.78"/><line class="cls-1" x1="369.13" y1="259.82" x2="369.13" y2="265.19"/><line class="cls-1" x1="369.13" y1="267.91" x2="369.13" y2="273.35"/><line class="cls-1" x1="369.13" y1="276.08" x2="369.13" y2="278.04"/><line class="cls-1" x1="379.52" y1="173.64" x2="379.52" y2="178.1"/><line class="cls-1" x1="379.52" y1="180.82" x2="379.52" y2="186.27"/><line class="cls-1" x1="379.52" y1="188.99" x2="379.52" y2="199.87"/><line class="cls-1" x1="379.52" y1="202.6" x2="379.52" y2="208.04"/><line class="cls-1" x1="379.52" y1="210.76" x2="379.52" y2="221.65"/><line class="cls-1" x1="379.52" y1="224.37" x2="379.52" y2="229.81"/><line class="cls-1" x1="379.52" y1="232.53" x2="379.52" y2="243.42"/><line class="cls-1" x1="379.52" y1="246.14" x2="379.52" y2="251.58"/><line class="cls-1" x1="379.52" y1="254.3" x2="379.52" y2="265.19"/><line class="cls-1" x1="379.52" y1="267.91" x2="379.52" y2="273.35"/><line class="cls-1" x1="379.52" y1="276.08" x2="379.52" y2="278.04"/><line class="cls-1" x1="371.7" y1="278.04" x2="377.14" y2="278.04"/><line class="cls-1" x1="369.13" y1="278.04" x2="370.56" y2="278.04"/><line class="cls-1" x1="379.52" y1="278.04" x2="378.12" y2="278.04"/><line class="cls-1" x1="369.13" y1="259.22" x2="369.13" y2="265.19"/><line class="cls-1" x1="369.13" y1="267.91" x2="369.13" y2="273.35"/><line class="cls-1" x1="369.13" y1="276.08" x2="369.13" y2="277.78"/><line class="cls-1" x1="367.01" y1="261.33" x2="367.01" y2="265.19"/><line class="cls-1" x1="367.01" y1="267.91" x2="367.01" y2="273.35"/><line class="cls-1" x1="367.01" y1="276.08" x2="367.01" y2="279.89"/><line class="cls-1" x1="371.7" y1="277.78" x2="377.14" y2="277.78"/><line class="cls-1" x1="379.86" y1="277.78" x2="390.75" y2="277.78"/><line class="cls-1" x1="393.47" y1="277.78" x2="398.91" y2="277.78"/><line class="cls-1" x1="401.63" y1="277.78" x2="407.64" y2="277.78"/><line class="cls-1" x1="369.13" y1="277.78" x2="370.56" y2="277.78"/><line class="cls-1" x1="407.64" y1="279.89" x2="404.35" y2="279.89"/><line class="cls-1" x1="401.63" y1="279.89" x2="390.75" y2="279.89"/><line class="cls-1" x1="388.03" y1="279.89" x2="382.58" y2="279.89"/><line class="cls-1" x1="379.86" y1="279.89" x2="368.98" y2="279.89"/><line class="cls-1" x1="367.01" y1="279.89" x2="368.45" y2="279.89"/><line class="cls-1" x1="471.67" y1="173.11" x2="471.67" y2="178.1"/><line class="cls-1" x1="471.67" y1="180.82" x2="471.67" y2="186.27"/><line class="cls-1" x1="471.67" y1="188.99" x2="471.67" y2="199.87"/><line class="cls-1" x1="471.67" y1="202.6" x2="471.67" y2="208.04"/><line class="cls-1" x1="471.67" y1="210.76" x2="471.67" y2="221.65"/><line class="cls-1" x1="471.67" y1="224.37" x2="471.67" y2="229.81"/><line class="cls-1" x1="471.67" y1="232.53" x2="471.67" y2="243.42"/><line class="cls-1" x1="471.67" y1="246.14" x2="471.67" y2="251.58"/><line class="cls-1" x1="471.67" y1="254.3" x2="471.67" y2="265.19"/><line class="cls-1" x1="471.67" y1="267.91" x2="471.67" y2="273.35"/><line class="cls-1" x1="471.67" y1="276.08" x2="471.67" y2="278"/></g></g></svg>