
<svg id="图层_1" data-name="图层 1" xmlns="http://www.w3.org/2000/svg" viewBox="0 0 1008 504"><defs><style>.cls-1,.cls-4{fill:#fff;}.cls-10,.cls-11,.cls-12,.cls-13,.cls-2,.cls-3,.cls-6,.cls-7,.cls-8,.cls-9{fill:none;stroke:#0c5275;stroke-linejoin:bevel;}.cls-10,.cls-11,.cls-12,.cls-13,.cls-2,.cls-6,.cls-7,.cls-8,.cls-9{stroke-linecap:round;}.cls-2{stroke-width:0.23px;}.cls-3{stroke-width:0;}.cls-4{fill-rule:evenodd;}.cls-5{fill:#0c5275;}.cls-10,.cls-12,.cls-13,.cls-6,.cls-7,.cls-8,.cls-9{stroke-width:0.3px;}.cls-6{stroke-dasharray:2.83;}.cls-7{stroke-dasharray:1.89;}.cls-8{stroke-dasharray:2.61;}.cls-9{stroke-dasharray:0.26;}.cls-10{stroke-dasharray:4.46;}.cls-11{stroke-width:0.15px;}.cls-12{stroke-dasharray:2.57;}.cls-13{stroke-dasharray:0.23;}</style></defs><g id="merlot-IFP_main_floor" data-name="merlot-IFP main floor"><g id="BREAKFAST-2"><rect class="cls-1" x="472.83" y="153.39" width="49.63" height="10.44"/><g id="BREAKFAST-2-2" data-name="BREAKFAST-2"><line class="cls-2" x1="521.36" y1="145.96" x2="523.18" y2="145.96"/><line class="cls-2" x1="471.89" y1="145.96" x2="473.32" y2="145.96"/><line class="cls-2" x1="471.89" y1="162.29" x2="471.66" y2="162.29"/><line class="cls-2" x1="471.89" y1="162.29" x2="471.66" y2="162.29"/><line class="cls-3" x1="525.71" y1="159.23" x2="525.97" y2="159"/><polygon class="cls-4" points="525.48 142.94 525.48 146.22 525.26 146.22 525.26 143.16 525.48 142.94"/><line class="cls-3" x1="525.26" y1="143.92" x2="525.48" y2="144.14"/><polygon class="cls-4" points="525.48 157.56 525.48 159 525.26 159.23 525.26 157.56 525.48 157.56"/><rect class="cls-5" x="522.35" y="143.39" width="2.61" height="2.83"/><rect class="cls-5" x="522.46" y="157.56" width="2.61" height="4.46"/><line class="cls-3" x1="469.81" y1="160.95" x2="469.62" y2="161.49"/><polygon class="cls-4" points="469.81 161.41 469.81 157.56 470.03 157.56 470.03 162.02 469.81 161.41"/><line class="cls-3" x1="469.81" y1="157.94" x2="470.03" y2="158.17"/><polygon class="cls-4" points="469.81 146.22 469.81 142.94 470.03 143.16 470.03 146.22 469.81 146.22"/><line class="cls-3" x1="469.81" y1="144.56" x2="470.03" y2="144.79"/><rect class="cls-5" x="470.26" y="157.56" width="2.57" height="4.46"/><rect class="cls-5" x="470.3" y="143.39" width="2.66" height="2.7"/><polygon class="cls-4" points="469.81 142.94 471.43 142.94 471.43 143.16 470.03 143.16 469.81 142.94"/><polygon class="cls-4" points="523.86 142.94 525.48 142.94 525.26 143.16 523.86 143.16 523.86 142.94"/><line class="cls-6" x1="525.07" y1="146.22" x2="525.07" y2="143.39"/><line class="cls-7" x1="525.07" y1="159.45" x2="525.07" y2="157.56"/><line class="cls-8" x1="525.07" y1="146.22" x2="522.46" y2="146.22"/><line class="cls-8" x1="525.07" y1="157.56" x2="522.46" y2="157.56"/><line class="cls-8" x1="525.07" y1="143.39" x2="522.46" y2="143.39"/><line class="cls-8" x1="522.46" y1="162.02" x2="525.07" y2="162.02"/><line class="cls-9" x1="522.46" y1="145.96" x2="522.46" y2="146.22"/><line class="cls-10" x1="522.46" y1="157.56" x2="522.46" y2="162.02"/><line class="cls-11" x1="525.48" y1="157.56" x2="525.48" y2="157.19"/><line class="cls-11" x1="522.23" y1="157.56" x2="522.23" y2="157.19"/><line class="cls-11" x1="525.48" y1="157.56" x2="522.23" y2="157.56"/><line class="cls-11" x1="525.48" y1="157.19" x2="522.23" y2="157.19"/><line class="cls-11" x1="525.48" y1="146.56" x2="525.48" y2="146.22"/><line class="cls-11" x1="522.23" y1="146.56" x2="522.23" y2="146.22"/><line class="cls-11" x1="525.48" y1="146.56" x2="522.23" y2="146.56"/><line class="cls-11" x1="525.48" y1="146.22" x2="522.23" y2="146.22"/><line class="cls-11" x1="524.92" y1="157.19" x2="524.92" y2="146.56"/><line class="cls-11" x1="524.54" y1="157.19" x2="524.54" y2="146.56"/><line class="cls-11" x1="525.48" y1="145.28" x2="526.31" y2="145.28"/><line class="cls-11" x1="526.31" y1="145.28" x2="526.31" y2="158.51"/><line class="cls-11" x1="525.48" y1="158.51" x2="526.31" y2="158.51"/><line class="cls-11" x1="525.48" y1="157.56" x2="525.86" y2="157.56"/><line class="cls-11" x1="525.86" y1="157.56" x2="525.86" y2="158.51"/><line class="cls-11" x1="525.48" y1="158.51" x2="525.86" y2="158.51"/><line class="cls-11" x1="525.48" y1="146.22" x2="525.86" y2="146.22"/><line class="cls-11" x1="525.86" y1="145.28" x2="525.86" y2="146.22"/><line class="cls-11" x1="525.48" y1="145.28" x2="525.86" y2="145.28"/><line class="cls-11" x1="522.23" y1="158.43" x2="521.44" y2="158.43"/><line class="cls-11" x1="521.44" y1="145.32" x2="521.44" y2="158.43"/><line class="cls-11" x1="522.23" y1="145.32" x2="521.44" y2="145.32"/><line class="cls-11" x1="522.23" y1="146.49" x2="521.93" y2="146.49"/><line class="cls-11" x1="521.93" y1="145.54" x2="521.93" y2="146.49"/><line class="cls-11" x1="522.23" y1="145.54" x2="521.93" y2="145.54"/><line class="cls-11" x1="522.23" y1="145.54" x2="522.23" y2="146.49"/><line class="cls-11" x1="522.23" y1="157.26" x2="521.93" y2="157.26"/><line class="cls-11" x1="521.93" y1="157.26" x2="521.93" y2="158.21"/><line class="cls-11" x1="522.23" y1="158.21" x2="521.93" y2="158.21"/><line class="cls-11" x1="522.23" y1="157.26" x2="522.23" y2="158.21"/><line class="cls-10" x1="470.26" y1="157.56" x2="470.26" y2="162.02"/><line class="cls-6" x1="470.26" y1="143.39" x2="470.26" y2="146.22"/><line class="cls-12" x1="470.26" y1="157.56" x2="472.83" y2="157.56"/><line class="cls-12" x1="470.26" y1="146.22" x2="472.83" y2="146.22"/><line class="cls-12" x1="470.26" y1="162.02" x2="472.83" y2="162.02"/><line class="cls-12" x1="472.83" y1="143.39" x2="470.26" y2="143.39"/><line class="cls-10" x1="472.83" y1="162.02" x2="472.83" y2="157.56"/><line class="cls-9" x1="472.83" y1="146.22" x2="472.83" y2="145.96"/><line class="cls-11" x1="469.81" y1="146.22" x2="469.81" y2="146.56"/><line class="cls-11" x1="473.09" y1="146.22" x2="473.09" y2="146.56"/><line class="cls-11" x1="469.81" y1="146.22" x2="473.09" y2="146.22"/><line class="cls-11" x1="469.81" y1="146.56" x2="473.09" y2="146.56"/><line class="cls-11" x1="469.81" y1="157.19" x2="469.81" y2="157.56"/><line class="cls-11" x1="473.09" y1="157.19" x2="473.09" y2="157.56"/><line class="cls-11" x1="469.81" y1="157.19" x2="473.09" y2="157.19"/><line class="cls-11" x1="469.81" y1="157.56" x2="473.09" y2="157.56"/><line class="cls-11" x1="470.37" y1="146.56" x2="470.37" y2="157.19"/><line class="cls-11" x1="470.75" y1="146.56" x2="470.75" y2="157.19"/><line class="cls-11" x1="469.81" y1="158.51" x2="468.97" y2="158.51"/><line class="cls-11" x1="468.97" y1="158.51" x2="468.97" y2="145.28"/><line class="cls-11" x1="469.81" y1="145.28" x2="468.97" y2="145.28"/><line class="cls-11" x1="469.81" y1="146.22" x2="469.43" y2="146.22"/><line class="cls-11" x1="469.43" y1="146.22" x2="469.43" y2="145.28"/><line class="cls-11" x1="469.81" y1="145.28" x2="469.43" y2="145.28"/><line class="cls-11" x1="469.81" y1="157.56" x2="469.43" y2="157.56"/><line class="cls-11" x1="469.43" y1="158.51" x2="469.43" y2="157.56"/><line class="cls-11" x1="469.81" y1="158.51" x2="469.43" y2="158.51"/><line class="cls-11" x1="473.09" y1="145.32" x2="473.85" y2="145.32"/><line class="cls-11" x1="473.85" y1="158.43" x2="473.85" y2="145.32"/><line class="cls-11" x1="473.09" y1="158.43" x2="473.85" y2="158.43"/><line class="cls-11" x1="473.09" y1="157.26" x2="473.36" y2="157.26"/><line class="cls-11" x1="473.36" y1="158.21" x2="473.36" y2="157.26"/><line class="cls-11" x1="473.09" y1="158.21" x2="473.36" y2="158.21"/><line class="cls-11" x1="473.09" y1="158.21" x2="473.09" y2="157.26"/><line class="cls-11" x1="473.09" y1="146.49" x2="473.36" y2="146.49"/><line class="cls-11" x1="473.36" y1="146.49" x2="473.36" y2="145.54"/><line class="cls-11" x1="473.09" y1="145.54" x2="473.36" y2="145.54"/><line class="cls-11" x1="473.09" y1="146.49" x2="473.09" y2="145.54"/><line class="cls-9" x1="473.09" y1="143.39" x2="472.83" y2="143.39"/><line class="cls-13" x1="522.46" y1="143.39" x2="522.23" y2="143.39"/><line class="cls-12" x1="473.09" y1="143.39" x2="473.09" y2="145.96"/><line class="cls-12" x1="522.23" y1="143.39" x2="522.23" y2="145.96"/><line class="cls-9" x1="472.83" y1="145.96" x2="473.09" y2="145.96"/><line class="cls-13" x1="522.23" y1="145.96" x2="522.46" y2="145.96"/><line class="cls-11" x1="487.27" y1="143.05" x2="487.27" y2="146.34"/><line class="cls-11" x1="473.09" y1="142.94" x2="487.27" y2="142.94"/><line class="cls-11" x1="487.27" y1="143.16" x2="486.89" y2="143.16"/><line class="cls-11" x1="487.27" y1="146.22" x2="486.89" y2="146.22"/><line class="cls-11" x1="487.27" y1="143.16" x2="487.27" y2="146.22"/><line class="cls-11" x1="486.89" y1="143.16" x2="486.89" y2="146.22"/><line class="cls-11" x1="473.44" y1="143.16" x2="473.09" y2="143.16"/><line class="cls-11" x1="473.44" y1="146.22" x2="473.09" y2="146.22"/><line class="cls-11" x1="473.44" y1="143.16" x2="473.44" y2="146.22"/><line class="cls-11" x1="473.09" y1="143.16" x2="473.09" y2="146.22"/><line class="cls-11" x1="486.89" y1="143.73" x2="473.44" y2="143.73"/><line class="cls-11" x1="486.89" y1="144.11" x2="473.44" y2="144.11"/><line class="cls-11" x1="487.27" y1="143.05" x2="487.27" y2="146.34"/><line class="cls-11" x1="508.06" y1="143.05" x2="508.06" y2="146.34"/><line class="cls-11" x1="487.27" y1="142.94" x2="508.06" y2="142.94"/><line class="cls-11" x1="508.06" y1="143.16" x2="507.68" y2="143.16"/><line class="cls-11" x1="508.06" y1="146.22" x2="507.68" y2="146.22"/><line class="cls-11" x1="508.06" y1="143.16" x2="508.06" y2="146.22"/><line class="cls-11" x1="507.68" y1="143.16" x2="507.68" y2="146.22"/><line class="cls-11" x1="487.61" y1="143.16" x2="487.27" y2="143.16"/><line class="cls-11" x1="487.61" y1="146.22" x2="487.27" y2="146.22"/><line class="cls-11" x1="487.61" y1="143.16" x2="487.61" y2="146.22"/><line class="cls-11" x1="487.27" y1="143.16" x2="487.27" y2="146.22"/><line class="cls-11" x1="507.68" y1="143.73" x2="487.61" y2="143.73"/><line class="cls-11" x1="507.68" y1="144.11" x2="487.61" y2="144.11"/><line class="cls-11" x1="508.06" y1="143.05" x2="508.06" y2="146.34"/><line class="cls-11" x1="508.06" y1="143.05" x2="508.06" y2="143.05"/><line class="cls-11" x1="508.06" y1="146.34" x2="508.06" y2="146.34"/><line class="cls-11" x1="508.06" y1="142.94" x2="522.23" y2="142.94"/><line class="cls-11" x1="522.23" y1="143.16" x2="521.85" y2="143.16"/><line class="cls-11" x1="522.23" y1="146.22" x2="521.85" y2="146.22"/><line class="cls-11" x1="522.23" y1="143.16" x2="522.23" y2="146.22"/><line class="cls-11" x1="521.85" y1="143.16" x2="521.85" y2="146.22"/><line class="cls-11" x1="508.4" y1="143.16" x2="508.06" y2="143.16"/><line class="cls-11" x1="508.4" y1="146.22" x2="508.06" y2="146.22"/><line class="cls-11" x1="508.4" y1="143.16" x2="508.4" y2="146.22"/><line class="cls-11" x1="508.06" y1="143.16" x2="508.06" y2="146.22"/><line class="cls-11" x1="521.85" y1="143.73" x2="508.4" y2="143.73"/><line class="cls-11" x1="521.85" y1="144.11" x2="508.4" y2="144.11"/><line class="cls-11" x1="522.23" y1="143.16" x2="522.23" y2="142.82"/><line class="cls-11" x1="522.23" y1="142.82" x2="523.86" y2="142.82"/><line class="cls-11" x1="523.86" y1="143.16" x2="523.86" y2="142.82"/><line class="cls-11" x1="473.09" y1="143.16" x2="473.09" y2="142.82"/><line class="cls-11" x1="471.43" y1="142.82" x2="473.09" y2="142.82"/><line class="cls-11" x1="471.43" y1="143.16" x2="471.43" y2="142.82"/><line class="cls-11" x1="523.71" y1="146.22" x2="523.71" y2="146.98"/><line class="cls-11" x1="471.58" y1="146.98" x2="523.71" y2="146.98"/><line class="cls-11" x1="471.58" y1="146.22" x2="471.58" y2="146.98"/><line class="cls-11" x1="473.36" y1="146.22" x2="473.36" y2="146.49"/><line class="cls-11" x1="471.85" y1="146.49" x2="473.36" y2="146.49"/><line class="cls-11" x1="471.85" y1="146.22" x2="471.85" y2="146.49"/><line class="cls-11" x1="471.85" y1="146.22" x2="473.36" y2="146.22"/><line class="cls-11" x1="521.93" y1="146.22" x2="521.93" y2="146.49"/><line class="cls-11" x1="521.93" y1="146.49" x2="523.44" y2="146.49"/><line class="cls-11" x1="523.44" y1="146.22" x2="523.44" y2="146.49"/><line class="cls-11" x1="521.93" y1="146.22" x2="523.44" y2="146.22"/></g></g></g></svg>