<svg id="图层_1" data-name="图层 1" xmlns="http://www.w3.org/2000/svg" viewBox="0 0 1008 504"><defs><style>.cls-1{fill:#fff;}.cls-2,.cls-4{fill:#0c5275;}.cls-2{fill-rule:evenodd;}.cls-3{fill:none;stroke:#0c4f71;stroke-linecap:round;stroke-linejoin:bevel;stroke-width:0.15px;}</style></defs><title>STUDY BAY WINDOW</title><g id="merlot-IFP_main_floor" data-name="merlot-IFP main floor"><g id="STUDY_BAY_WINDOW" data-name="STUDY BAY WINDOW"><rect class="cls-1" x="285.58" y="218.92" width="13.26" height="45.07"/><polygon class="cls-2" points="282.29 267.57 282.29 259.33 282.51 259.33 282.51 267.34 282.29 267.57"/><line class="cls-3" x1="282.29" y1="260.01" x2="282.51" y2="260.24"/><line class="cls-3" x1="282.29" y1="265.38" x2="282.51" y2="265.6"/><polygon class="cls-2" points="282.29 223.88 282.29 215.64 282.51 215.86 282.51 223.88 282.29 223.88"/><line class="cls-3" x1="282.29" y1="217.26" x2="282.51" y2="217.49"/><line class="cls-3" x1="282.29" y1="222.59" x2="282.51" y2="222.82"/><rect class="cls-4" x="282.74" y="259.33" width="2.57" height="7.79"/><rect class="cls-4" x="282.74" y="216.09" width="2.57" height="7.79"/><polygon class="cls-2" points="282.29 215.64 293 215.64 293.28 215.86 282.57 215.86 282.29 215.64"/><line class="cls-3" x1="283.69" y1="215.86" x2="283.91" y2="215.64"/><rect class="cls-4" x="285.31" y="216.09" width="8.26" height="2.61"/><polygon class="cls-2" points="292.96 267.57 282.29 267.57 282.57 267.34 293.25 267.34 292.96 267.57"/><line class="cls-3" x1="282.78" y1="267.57" x2="283" y2="267.34"/><line class="cls-3" x1="285.42" y1="267.57" x2="285.69" y2="267.34"/><line class="cls-3" x1="292.96" y1="267.57" x2="293.25" y2="267.34"/><rect class="cls-4" x="285.31" y="264.51" width="8.22" height="2.61"/><line class="cls-3" x1="293.82" y1="264.51" x2="285.31" y2="264.51"/><line class="cls-3" x1="282.29" y1="259.33" x2="282.29" y2="267.57"/><line class="cls-3" x1="282.29" y1="215.64" x2="282.29" y2="223.88"/><line class="cls-3" x1="282.29" y1="259.33" x2="285.58" y2="259.33"/><line class="cls-3" x1="282.29" y1="223.88" x2="285.58" y2="223.88"/><line class="cls-3" x1="282.51" y1="259.33" x2="282.51" y2="267.34"/><line class="cls-3" x1="282.51" y1="215.86" x2="282.51" y2="223.88"/><line class="cls-3" x1="282.51" y1="259.33" x2="282.51" y2="267.34"/><line class="cls-3" x1="282.51" y1="215.9" x2="282.51" y2="223.88"/><line class="cls-3" x1="282.74" y1="259.33" x2="282.74" y2="267.12"/><line class="cls-3" x1="282.74" y1="216.09" x2="282.74" y2="223.88"/><line class="cls-3" x1="282.74" y1="259.33" x2="285.31" y2="259.33"/><line class="cls-3" x1="282.74" y1="223.88" x2="285.31" y2="223.88"/><line class="cls-3" x1="285.31" y1="264.51" x2="285.31" y2="259.33"/><line class="cls-3" x1="285.31" y1="223.88" x2="285.31" y2="218.7"/><line class="cls-3" x1="285.58" y1="264.28" x2="285.58" y2="259.33"/><line class="cls-3" x1="285.58" y1="223.88" x2="285.58" y2="218.92"/><line class="cls-3" x1="282.17" y1="241.6" x2="285.69" y2="241.6"/><line class="cls-3" x1="282.29" y1="241.6" x2="282.29" y2="241.94"/><line class="cls-3" x1="285.58" y1="241.6" x2="285.58" y2="241.94"/><line class="cls-3" x1="282.29" y1="241.6" x2="285.58" y2="241.6"/><line class="cls-3" x1="282.29" y1="241.94" x2="285.58" y2="241.94"/><line class="cls-3" x1="282.29" y1="258.95" x2="282.29" y2="259.33"/><line class="cls-3" x1="285.58" y1="258.95" x2="285.58" y2="259.33"/><line class="cls-3" x1="282.29" y1="258.95" x2="285.58" y2="258.95"/><line class="cls-3" x1="282.29" y1="259.33" x2="285.58" y2="259.33"/><line class="cls-3" x1="282.85" y1="241.94" x2="282.85" y2="258.95"/><line class="cls-3" x1="283.23" y1="241.94" x2="283.23" y2="258.95"/><line class="cls-3" x1="282.17" y1="241.6" x2="285.69" y2="241.6"/><line class="cls-3" x1="282.29" y1="223.88" x2="282.29" y2="224.25"/><line class="cls-3" x1="285.58" y1="223.88" x2="285.58" y2="224.25"/><line class="cls-3" x1="282.29" y1="223.88" x2="285.58" y2="223.88"/><line class="cls-3" x1="282.29" y1="224.25" x2="285.58" y2="224.25"/><line class="cls-3" x1="282.29" y1="241.26" x2="282.29" y2="241.6"/><line class="cls-3" x1="285.58" y1="241.26" x2="285.58" y2="241.6"/><line class="cls-3" x1="282.29" y1="241.26" x2="285.58" y2="241.26"/><line class="cls-3" x1="282.29" y1="241.6" x2="285.58" y2="241.6"/><line class="cls-3" x1="282.85" y1="224.25" x2="282.85" y2="241.26"/><line class="cls-3" x1="283.23" y1="224.25" x2="283.23" y2="241.26"/><line class="cls-3" x1="282.29" y1="260.99" x2="281.46" y2="260.99"/><line class="cls-3" x1="281.46" y1="260.99" x2="281.46" y2="222.25"/><line class="cls-3" x1="282.29" y1="222.25" x2="281.46" y2="222.25"/><line class="cls-3" x1="282.29" y1="223.88" x2="281.95" y2="223.88"/><line class="cls-3" x1="281.95" y1="223.88" x2="281.95" y2="222.25"/><line class="cls-3" x1="282.29" y1="222.25" x2="281.95" y2="222.25"/><line class="cls-3" x1="282.29" y1="259.33" x2="281.95" y2="259.33"/><line class="cls-3" x1="281.95" y1="260.99" x2="281.95" y2="259.33"/><line class="cls-3" x1="282.29" y1="260.99" x2="281.95" y2="260.99"/><line class="cls-3" x1="285.58" y1="222.4" x2="286.33" y2="222.4"/><line class="cls-3" x1="286.33" y1="260.8" x2="286.33" y2="222.4"/><line class="cls-3" x1="285.58" y1="260.8" x2="286.33" y2="260.8"/><line class="cls-3" x1="285.58" y1="259.03" x2="285.88" y2="259.03"/><line class="cls-3" x1="285.88" y1="260.58" x2="285.88" y2="259.03"/><line class="cls-3" x1="285.58" y1="260.58" x2="285.88" y2="260.58"/><line class="cls-3" x1="285.58" y1="260.58" x2="285.58" y2="259.03"/><line class="cls-3" x1="285.58" y1="224.18" x2="285.88" y2="224.18"/><line class="cls-3" x1="285.88" y1="224.18" x2="285.88" y2="222.67"/><line class="cls-3" x1="285.58" y1="222.67" x2="285.88" y2="222.67"/><line class="cls-3" x1="285.58" y1="224.18" x2="285.58" y2="222.67"/><line class="cls-3" x1="293" y1="215.64" x2="282.29" y2="215.64"/><line class="cls-3" x1="293.28" y1="215.86" x2="282.57" y2="215.86"/><line class="cls-3" x1="293.53" y1="216.09" x2="282.74" y2="216.09"/><line class="cls-3" x1="285.31" y1="218.7" x2="293.34" y2="218.7"/><line class="cls-3" x1="285.58" y1="218.92" x2="294.08" y2="218.92"/><line class="cls-3" x1="282.29" y1="267.57" x2="292.96" y2="267.57"/><line class="cls-3" x1="282.57" y1="267.34" x2="293.25" y2="267.34"/><line class="cls-3" x1="282.57" y1="267.34" x2="293.25" y2="267.34"/><line class="cls-3" x1="282.73" y1="267.12" x2="293.34" y2="267.12"/><line class="cls-3" x1="294.08" y1="264.28" x2="285.58" y2="264.28"/><line class="cls-3" x1="294.08" y1="218.92" x2="294.08" y2="264.28"/><line class="cls-3" x1="294.08" y1="264.28" x2="285.58" y2="264.28"/><line class="cls-3" x1="285.58" y1="264.28" x2="285.58" y2="218.92"/><line class="cls-3" x1="285.58" y1="218.92" x2="294.08" y2="218.92"/></g></g></svg>