<svg id="图层_1" data-name="图层 1" xmlns="http://www.w3.org/2000/svg" viewBox="0 0 1008 504"><defs><style>.cls-1{fill:#fff;}.cls-2,.cls-3{fill:none;stroke:#0c4f71;stroke-linecap:round;stroke-linejoin:bevel;}.cls-2{stroke-width:0.3px;}.cls-3{stroke-width:0.15px;}</style></defs><g id="SITTING_ROOM-2" data-name="SITTING ROOM-2"><g id="SITTING_ROOM_WIONDOW-2" data-name="SITTING ROOM WIONDOW-2"><rect class="cls-1" x="455.97" y="114.34" width="4.65" height="30.23"/><line class="cls-2" x1="457.03" y1="144.59" x2="459.6" y2="144.59"/><line class="cls-2" x1="457.03" y1="114.47" x2="459.6" y2="114.47"/><line class="cls-3" x1="456.8" y1="114.47" x2="456.8" y2="114.87"/><line class="cls-3" x1="459.86" y1="114.47" x2="459.86" y2="114.87"/><line class="cls-3" x1="456.8" y1="114.47" x2="459.86" y2="114.47"/><line class="cls-3" x1="456.8" y1="114.87" x2="459.86" y2="114.87"/><line class="cls-3" x1="456.8" y1="144.23" x2="456.8" y2="144.59"/><line class="cls-3" x1="459.86" y1="144.23" x2="459.86" y2="144.59"/><line class="cls-3" x1="456.8" y1="144.23" x2="459.86" y2="144.23"/><line class="cls-3" x1="456.8" y1="144.59" x2="459.86" y2="144.59"/><line class="cls-3" x1="457.37" y1="114.87" x2="457.37" y2="129.17"/><line class="cls-3" x1="457.75" y1="114.87" x2="457.75" y2="129.17"/><line class="cls-3" x1="456.88" y1="129.17" x2="456.88" y2="129.93"/><line class="cls-3" x1="458.28" y1="129.17" x2="458.28" y2="129.93"/><line class="cls-3" x1="456.88" y1="129.17" x2="458.28" y2="129.17"/><line class="cls-3" x1="456.88" y1="129.93" x2="458.28" y2="129.93"/><line class="cls-3" x1="457.37" y1="129.93" x2="457.37" y2="144.23"/><line class="cls-3" x1="457.75" y1="129.93" x2="457.75" y2="144.23"/><line class="cls-3" x1="456.8" y1="146.36" x2="455.97" y2="146.36"/><line class="cls-3" x1="455.97" y1="146.36" x2="455.97" y2="112.74"/><line class="cls-3" x1="456.8" y1="112.74" x2="455.97" y2="112.74"/><line class="cls-3" x1="456.8" y1="114.47" x2="456.46" y2="114.47"/><line class="cls-3" x1="456.46" y1="114.47" x2="456.46" y2="112.74"/><line class="cls-3" x1="456.8" y1="112.74" x2="456.46" y2="112.74"/><line class="cls-3" x1="456.8" y1="144.59" x2="456.46" y2="144.59"/><line class="cls-3" x1="456.46" y1="146.36" x2="456.46" y2="144.59"/><line class="cls-3" x1="456.8" y1="146.36" x2="456.46" y2="146.36"/><line class="cls-3" x1="459.86" y1="112.9" x2="460.62" y2="112.9"/><line class="cls-3" x1="460.62" y1="146.16" x2="460.62" y2="112.9"/><line class="cls-3" x1="459.86" y1="146.16" x2="460.62" y2="146.16"/><line class="cls-3" x1="459.86" y1="144.31" x2="460.13" y2="144.31"/><line class="cls-3" x1="460.13" y1="145.92" x2="460.13" y2="144.31"/><line class="cls-3" x1="459.86" y1="145.92" x2="460.13" y2="145.92"/><line class="cls-3" x1="459.86" y1="145.92" x2="459.86" y2="144.31"/><line class="cls-3" x1="459.86" y1="114.79" x2="460.13" y2="114.79"/><line class="cls-3" x1="460.13" y1="114.79" x2="460.13" y2="113.18"/><line class="cls-3" x1="459.86" y1="113.18" x2="460.13" y2="113.18"/><line class="cls-3" x1="459.86" y1="114.79" x2="459.86" y2="113.18"/><rect class="cls-1" x="521.31" y="114.63" width="4.8" height="29.84"/><line class="cls-2" x1="525.07" y1="114.47" x2="522.46" y2="114.47"/><line class="cls-2" x1="525.07" y1="144.59" x2="522.46" y2="144.59"/><line class="cls-3" x1="525.25" y1="144.59" x2="525.25" y2="144.23"/><line class="cls-3" x1="522.23" y1="144.59" x2="522.23" y2="144.23"/><line class="cls-3" x1="525.25" y1="144.59" x2="522.23" y2="144.59"/><line class="cls-3" x1="525.25" y1="144.23" x2="522.23" y2="144.23"/><line class="cls-3" x1="525.25" y1="114.87" x2="525.25" y2="114.47"/><line class="cls-3" x1="522.23" y1="114.87" x2="522.23" y2="114.47"/><line class="cls-3" x1="525.25" y1="114.87" x2="522.23" y2="114.87"/><line class="cls-3" x1="525.25" y1="114.47" x2="522.23" y2="114.47"/><line class="cls-3" x1="524.69" y1="144.23" x2="524.69" y2="129.93"/><line class="cls-3" x1="524.31" y1="144.23" x2="524.31" y2="129.93"/><line class="cls-3" x1="525.22" y1="129.93" x2="525.22" y2="129.17"/><line class="cls-3" x1="523.78" y1="129.93" x2="523.78" y2="129.17"/><line class="cls-3" x1="525.22" y1="129.93" x2="523.78" y2="129.93"/><line class="cls-3" x1="525.22" y1="129.17" x2="523.78" y2="129.17"/><line class="cls-3" x1="524.69" y1="129.17" x2="524.69" y2="114.87"/><line class="cls-3" x1="524.31" y1="129.17" x2="524.31" y2="114.87"/><line class="cls-3" x1="525.25" y1="112.74" x2="526.09" y2="112.74"/><line class="cls-3" x1="526.09" y1="112.74" x2="526.09" y2="146.36"/><line class="cls-3" x1="525.25" y1="146.36" x2="526.09" y2="146.36"/><line class="cls-3" x1="525.25" y1="144.59" x2="525.6" y2="144.59"/><line class="cls-3" x1="525.6" y1="144.59" x2="525.6" y2="146.36"/><line class="cls-3" x1="525.25" y1="146.36" x2="525.6" y2="146.36"/><line class="cls-3" x1="525.25" y1="114.47" x2="525.6" y2="114.47"/><line class="cls-3" x1="525.6" y1="112.74" x2="525.6" y2="114.47"/><line class="cls-3" x1="525.25" y1="112.74" x2="525.6" y2="112.74"/><line class="cls-3" x1="522.23" y1="146.16" x2="521.44" y2="146.16"/><line class="cls-3" x1="521.44" y1="112.9" x2="521.44" y2="146.16"/><line class="cls-3" x1="522.23" y1="112.9" x2="521.44" y2="112.9"/><line class="cls-3" x1="522.23" y1="114.79" x2="521.93" y2="114.79"/><line class="cls-3" x1="521.93" y1="113.18" x2="521.93" y2="114.79"/><line class="cls-3" x1="522.23" y1="113.18" x2="521.93" y2="113.18"/><line class="cls-3" x1="522.23" y1="113.18" x2="522.23" y2="114.79"/><line class="cls-3" x1="522.23" y1="144.31" x2="521.93" y2="144.31"/><line class="cls-3" x1="521.93" y1="144.31" x2="521.93" y2="145.92"/><line class="cls-3" x1="522.23" y1="145.92" x2="521.93" y2="145.92"/><line class="cls-3" x1="522.23" y1="144.31" x2="522.23" y2="145.92"/></g></g></svg>