<svg id="图层_1" data-name="图层 1" xmlns="http://www.w3.org/2000/svg" viewBox="0 0 1008 504"><defs><style>.cls-1,.cls-2{fill:none;stroke:#0c4f71;stroke-linecap:round;stroke-linejoin:bevel;stroke-width:0.23px;}.cls-1{fill-rule:evenodd;}</style></defs><g id="FREE_STANDING_TUB-2" data-name="FREE STANDING TUB-2"><polygon class="cls-1" points="532.89 171.27 532.92 171.23 532.55 170.21 532.89 171.27"/><polygon class="cls-1" points="532.92 171.23 532.89 171.27 533.04 172.33 532.89 173.38 532.92 173.42 533.04 172.33 532.92 171.23"/><polygon class="cls-1" points="532.92 173.42 532.89 173.38 532.55 174.44 532.92 173.42"/><line class="cls-2" x1="532.92" y1="173.42" x2="533.04" y2="172.33"/><line class="cls-2" x1="533.04" y1="172.33" x2="532.92" y2="171.23"/><line class="cls-2" x1="532.92" y1="171.23" x2="532.55" y2="170.21"/><line class="cls-2" x1="532.55" y1="170.21" x2="532.89" y2="171.27"/><line class="cls-2" x1="532.89" y1="171.27" x2="533.04" y2="172.33"/><line class="cls-2" x1="533.04" y1="172.33" x2="532.89" y2="173.39"/><line class="cls-2" x1="532.89" y1="173.39" x2="532.55" y2="174.44"/><line class="cls-2" x1="532.55" y1="174.44" x2="532.92" y2="173.42"/><polygon class="cls-1" points="502.16 174.44 501.82 173.42 501.7 172.33 501.82 171.27 501.82 171.23 501.7 172.33 501.82 173.38 502.16 174.44"/><polygon class="cls-1" points="501.82 171.23 501.82 171.27 502.16 170.21 501.82 171.23"/><line class="cls-2" x1="501.82" y1="173.42" x2="501.7" y2="172.33"/><line class="cls-2" x1="501.7" y1="172.33" x2="501.82" y2="171.27"/><line class="cls-2" x1="501.82" y1="171.27" x2="502.16" y2="170.21"/><line class="cls-2" x1="502.16" y1="170.21" x2="501.82" y2="171.23"/><line class="cls-2" x1="501.82" y1="171.23" x2="501.7" y2="172.33"/><line class="cls-2" x1="501.7" y1="172.33" x2="501.82" y2="173.39"/><line class="cls-2" x1="501.82" y1="173.39" x2="502.16" y2="174.44"/><line class="cls-2" x1="502.16" y1="174.44" x2="501.82" y2="173.42"/><polygon class="cls-1" points="533.6 174.71 534.02 173.57 534.13 172.33 534.02 171.12 533.6 169.95 533 168.85 532.13 167.87 531.11 167 529.9 166.28 528.54 165.71 527.03 165.33 525.44 165.15 523.66 164.99 521.85 164.88 520.07 164.81 518.26 164.77 516.48 164.77 514.67 164.81 512.89 164.88 511.08 164.99 509.3 165.15 507.71 165.33 506.2 165.71 504.84 166.28 503.63 167 502.61 167.87 501.74 168.85 501.14 169.95 500.72 171.12 500.61 172.33 500.72 173.57 501.14 174.71 501.74 175.8 502.61 176.79 503.63 177.66 504.84 178.38 506.2 178.94 507.71 179.32 509.3 179.55 511.08 179.66 512.89 179.77 514.67 179.85 516.48 179.89 518.26 179.89 520.07 179.85 521.85 179.77 523.66 179.66 525.44 179.55 527.03 179.32 528.54 178.94 529.9 178.38 531.11 177.66 532.13 176.79 533 175.8 533.6 174.71"/><line class="cls-2" x1="534.02" y1="173.57" x2="534.13" y2="172.33"/><line class="cls-2" x1="534.13" y1="172.33" x2="534.02" y2="171.12"/><line class="cls-2" x1="534.02" y1="171.12" x2="533.6" y2="169.95"/><line class="cls-2" x1="533.6" y1="169.95" x2="533" y2="168.85"/><line class="cls-2" x1="533" y1="168.85" x2="532.13" y2="167.87"/><line class="cls-2" x1="532.13" y1="167.87" x2="531.11" y2="167"/><line class="cls-2" x1="531.11" y1="167" x2="529.9" y2="166.28"/><line class="cls-2" x1="529.9" y1="166.28" x2="528.54" y2="165.71"/><line class="cls-2" x1="528.54" y1="165.71" x2="527.03" y2="165.33"/><line class="cls-2" x1="527.03" y1="165.33" x2="525.44" y2="165.15"/><line class="cls-2" x1="525.44" y1="165.15" x2="523.66" y2="164.99"/><line class="cls-2" x1="523.66" y1="164.99" x2="521.85" y2="164.88"/><line class="cls-2" x1="521.85" y1="164.88" x2="520.07" y2="164.81"/><line class="cls-2" x1="520.07" y1="164.81" x2="518.26" y2="164.77"/><line class="cls-2" x1="518.26" y1="164.77" x2="516.48" y2="164.77"/><line class="cls-2" x1="516.48" y1="164.77" x2="514.67" y2="164.81"/><line class="cls-2" x1="514.67" y1="164.81" x2="512.89" y2="164.88"/><line class="cls-2" x1="512.89" y1="164.88" x2="511.08" y2="164.99"/><line class="cls-2" x1="511.08" y1="164.99" x2="509.3" y2="165.15"/><line class="cls-2" x1="509.3" y1="165.15" x2="507.71" y2="165.33"/><line class="cls-2" x1="507.71" y1="165.33" x2="506.2" y2="165.71"/><line class="cls-2" x1="506.2" y1="165.71" x2="504.84" y2="166.28"/><line class="cls-2" x1="504.84" y1="166.28" x2="503.63" y2="167"/><line class="cls-2" x1="503.63" y1="167" x2="502.61" y2="167.87"/><line class="cls-2" x1="502.61" y1="167.87" x2="501.74" y2="168.85"/><line class="cls-2" x1="501.74" y1="168.85" x2="501.14" y2="169.95"/><line class="cls-2" x1="501.14" y1="169.95" x2="500.72" y2="171.12"/><line class="cls-2" x1="500.72" y1="173.57" x2="501.14" y2="174.71"/><line class="cls-2" x1="501.14" y1="174.71" x2="501.74" y2="175.8"/><line class="cls-2" x1="501.74" y1="175.8" x2="502.61" y2="176.79"/><line class="cls-2" x1="502.61" y1="176.79" x2="503.63" y2="177.66"/><line class="cls-2" x1="503.63" y1="177.66" x2="504.84" y2="178.37"/><line class="cls-2" x1="504.84" y1="178.37" x2="506.2" y2="178.94"/><line class="cls-2" x1="506.2" y1="178.94" x2="507.71" y2="179.32"/><line class="cls-2" x1="507.71" y1="179.32" x2="509.3" y2="179.55"/><line class="cls-2" x1="509.3" y1="179.55" x2="511.08" y2="179.66"/><line class="cls-2" x1="511.08" y1="179.66" x2="512.89" y2="179.77"/><line class="cls-2" x1="512.89" y1="179.77" x2="514.67" y2="179.85"/><line class="cls-2" x1="514.67" y1="179.85" x2="516.48" y2="179.89"/><line class="cls-2" x1="516.48" y1="179.89" x2="518.26" y2="179.89"/><line class="cls-2" x1="518.26" y1="179.89" x2="520.07" y2="179.85"/><line class="cls-2" x1="520.07" y1="179.85" x2="521.85" y2="179.77"/><line class="cls-2" x1="521.85" y1="179.77" x2="523.66" y2="179.66"/><line class="cls-2" x1="523.66" y1="179.66" x2="525.44" y2="179.55"/><line class="cls-2" x1="525.44" y1="179.55" x2="527.03" y2="179.32"/><line class="cls-2" x1="527.03" y1="179.32" x2="528.54" y2="178.94"/><line class="cls-2" x1="528.54" y1="178.94" x2="529.9" y2="178.37"/><line class="cls-2" x1="529.9" y1="178.37" x2="531.11" y2="177.66"/><line class="cls-2" x1="531.11" y1="177.66" x2="532.13" y2="176.79"/><line class="cls-2" x1="532.13" y1="176.79" x2="533" y2="175.8"/><line class="cls-2" x1="533" y1="175.8" x2="533.6" y2="174.71"/><line class="cls-2" x1="533.6" y1="174.71" x2="534.02" y2="173.57"/><line class="cls-2" x1="517.5" y1="167" x2="517.62" y2="167"/><line class="cls-2" x1="517.62" y1="167" x2="517.77" y2="166.96"/><line class="cls-2" x1="517.77" y1="166.96" x2="517.88" y2="166.96"/><line class="cls-2" x1="517.88" y1="166.96" x2="517.96" y2="166.96"/><line class="cls-2" x1="517.96" y1="166.96" x2="517.99" y2="166.92"/><line class="cls-2" x1="517.99" y1="166.92" x2="518.07" y2="166.73"/><line class="cls-2" x1="518.07" y1="166.73" x2="518.03" y2="166.7"/><line class="cls-2" x1="518.03" y1="166.7" x2="517.92" y2="166.7"/><line class="cls-2" x1="517.92" y1="166.7" x2="517.8" y2="166.7"/><line class="cls-2" x1="517.8" y1="166.7" x2="517.62" y2="166.66"/><line class="cls-2" x1="517.62" y1="166.66" x2="517.46" y2="166.66"/><line class="cls-2" x1="517.46" y1="166.66" x2="517.28" y2="166.66"/><line class="cls-2" x1="517.28" y1="166.66" x2="517.09" y2="166.66"/><line class="cls-2" x1="517.09" y1="166.66" x2="516.94" y2="166.7"/><line class="cls-2" x1="516.94" y1="166.7" x2="516.82" y2="166.7"/><line class="cls-2" x1="516.82" y1="166.7" x2="516.71" y2="166.73"/><line class="cls-2" x1="516.71" y1="166.73" x2="516.67" y2="166.73"/><line class="cls-2" x1="516.67" y1="166.73" x2="516.67" y2="166.77"/><line class="cls-2" x1="516.67" y1="166.77" x2="516.78" y2="166.92"/><line class="cls-2" x1="517.28" y1="167" x2="517.16" y2="167"/><line class="cls-2" x1="517.16" y1="167" x2="517.01" y2="166.96"/><line class="cls-2" x1="517.01" y1="166.96" x2="516.9" y2="166.96"/><line class="cls-2" x1="516.9" y1="166.96" x2="516.82" y2="166.96"/><line class="cls-2" x1="516.82" y1="166.96" x2="516.78" y2="166.92"/><line class="cls-2" x1="516.78" y1="166.92" x2="516.75" y2="166.92"/><line class="cls-2" x1="516.75" y1="166.92" x2="516.78" y2="166.88"/><line class="cls-2" x1="516.78" y1="166.88" x2="516.86" y2="166.88"/><line class="cls-2" x1="516.86" y1="166.88" x2="516.97" y2="166.88"/><line class="cls-2" x1="516.97" y1="166.88" x2="517.12" y2="166.85"/><line class="cls-2" x1="517.12" y1="166.85" x2="517.28" y2="166.85"/><line class="cls-2" x1="517.28" y1="166.85" x2="517.43" y2="166.85"/><line class="cls-2" x1="517.43" y1="166.85" x2="517.58" y2="166.85"/><line class="cls-2" x1="517.58" y1="166.85" x2="517.73" y2="166.88"/><line class="cls-2" x1="517.73" y1="166.88" x2="517.84" y2="166.88"/><line class="cls-2" x1="517.84" y1="166.88" x2="517.92" y2="166.88"/><line class="cls-2" x1="517.92" y1="166.88" x2="517.99" y2="166.92"/><line class="cls-2" x1="517.28" y1="167.11" x2="517.35" y2="167.19"/><line class="cls-2" x1="517.35" y1="167.19" x2="517.5" y2="167.11"/><line class="cls-2" x1="517.5" y1="167.11" x2="517.46" y2="167.11"/><line class="cls-2" x1="517.46" y1="167.11" x2="517.43" y2="167.11"/><line class="cls-2" x1="517.43" y1="167.11" x2="517.39" y2="167.11"/><line class="cls-2" x1="517.39" y1="167.11" x2="517.35" y2="167.11"/><line class="cls-2" x1="517.35" y1="166.92" x2="517.31" y2="166.92"/><line class="cls-2" x1="517.31" y1="166.92" x2="517.28" y2="166.92"/><line class="cls-2" x1="517.28" y1="166.92" x2="517.28" y2="167.11"/><line class="cls-2" x1="517.28" y1="167.11" x2="517.31" y2="167.11"/><line class="cls-2" x1="517.31" y1="167.11" x2="517.35" y2="167.11"/><line class="cls-2" x1="517.5" y1="167.11" x2="517.5" y2="166.92"/><line class="cls-2" x1="517.5" y1="166.92" x2="517.46" y2="166.92"/><line class="cls-2" x1="517.46" y1="166.92" x2="517.43" y2="166.92"/><line class="cls-2" x1="517.43" y1="166.92" x2="517.39" y2="166.92"/><line class="cls-2" x1="517.39" y1="166.92" x2="517.35" y2="166.92"/><polygon class="cls-1" points="517.77 169.04 517.8 168.96 517.77 168.89 517.73 168.81 517.69 168.74 517.58 168.7 517.5 168.66 517.39 168.66 517.28 168.66 517.2 168.7 517.09 168.74 517.05 168.81 516.97 168.89 516.97 168.96 516.97 169.04 517.05 169.11 517.09 169.19 517.2 169.23 517.28 169.26 517.39 169.3 517.5 169.26 517.58 169.23 517.69 169.19 517.73 169.11 517.77 169.04"/><line class="cls-2" x1="517.8" y1="168.96" x2="517.77" y2="168.89"/><line class="cls-2" x1="517.77" y1="168.89" x2="517.73" y2="168.81"/><line class="cls-2" x1="517.73" y1="168.81" x2="517.69" y2="168.74"/><line class="cls-2" x1="517.69" y1="168.74" x2="517.58" y2="168.7"/><line class="cls-2" x1="517.58" y1="168.7" x2="517.5" y2="168.66"/><line class="cls-2" x1="517.5" y1="168.66" x2="517.39" y2="168.66"/><line class="cls-2" x1="517.39" y1="168.66" x2="517.28" y2="168.66"/><line class="cls-2" x1="517.28" y1="168.66" x2="517.2" y2="168.7"/><line class="cls-2" x1="517.2" y1="168.7" x2="517.09" y2="168.74"/><line class="cls-2" x1="517.09" y1="168.74" x2="517.05" y2="168.81"/><line class="cls-2" x1="517.05" y1="168.81" x2="516.97" y2="168.89"/><line class="cls-2" x1="516.97" y1="168.89" x2="516.97" y2="168.96"/><line class="cls-2" x1="516.97" y1="168.96" x2="516.97" y2="169.04"/><line class="cls-2" x1="516.97" y1="169.04" x2="517.05" y2="169.11"/><line class="cls-2" x1="517.05" y1="169.11" x2="517.09" y2="169.19"/><line class="cls-2" x1="517.09" y1="169.19" x2="517.2" y2="169.23"/><line class="cls-2" x1="517.2" y1="169.23" x2="517.28" y2="169.27"/><line class="cls-2" x1="517.28" y1="169.27" x2="517.39" y2="169.3"/><line class="cls-2" x1="517.39" y1="169.3" x2="517.5" y2="169.27"/><line class="cls-2" x1="517.5" y1="169.27" x2="517.58" y2="169.23"/><line class="cls-2" x1="517.58" y1="169.23" x2="517.69" y2="169.19"/><line class="cls-2" x1="517.69" y1="169.19" x2="517.73" y2="169.11"/><line class="cls-2" x1="517.73" y1="169.11" x2="517.77" y2="169.04"/><line class="cls-2" x1="517.77" y1="169.04" x2="517.8" y2="168.96"/><polygon class="cls-1" points="518.03 169.11 518.07 168.96 518.03 168.85 517.96 168.7 517.88 168.62 517.73 168.51 517.58 168.47 517.39 168.47 517.2 168.47 517.05 168.51 516.9 168.62 516.82 168.7 516.75 168.85 516.71 168.96 516.75 169.11 516.82 169.23 516.9 169.34 517.05 169.42 517.2 169.45 517.39 169.49 517.58 169.45 517.73 169.42 517.88 169.34 517.96 169.23 518.03 169.11"/><line class="cls-2" x1="518.07" y1="168.96" x2="518.03" y2="168.85"/><line class="cls-2" x1="518.03" y1="168.85" x2="517.96" y2="168.7"/><line class="cls-2" x1="517.96" y1="168.7" x2="517.88" y2="168.62"/><line class="cls-2" x1="517.88" y1="168.62" x2="517.73" y2="168.51"/><line class="cls-2" x1="517.73" y1="168.51" x2="517.58" y2="168.47"/><line class="cls-2" x1="517.58" y1="168.47" x2="517.39" y2="168.47"/><line class="cls-2" x1="517.39" y1="168.47" x2="517.2" y2="168.47"/><line class="cls-2" x1="517.2" y1="168.47" x2="517.05" y2="168.51"/><line class="cls-2" x1="517.05" y1="168.51" x2="516.9" y2="168.62"/><line class="cls-2" x1="516.9" y1="168.62" x2="516.82" y2="168.7"/><line class="cls-2" x1="516.82" y1="168.7" x2="516.75" y2="168.85"/><line class="cls-2" x1="516.75" y1="168.85" x2="516.71" y2="168.96"/><line class="cls-2" x1="516.71" y1="168.96" x2="516.75" y2="169.11"/><line class="cls-2" x1="516.75" y1="169.11" x2="516.82" y2="169.23"/><line class="cls-2" x1="516.82" y1="169.23" x2="516.9" y2="169.34"/><line class="cls-2" x1="516.9" y1="169.34" x2="517.05" y2="169.42"/><line class="cls-2" x1="517.05" y1="169.42" x2="517.2" y2="169.45"/><line class="cls-2" x1="517.2" y1="169.45" x2="517.39" y2="169.49"/><line class="cls-2" x1="517.39" y1="169.49" x2="517.58" y2="169.45"/><line class="cls-2" x1="517.58" y1="169.45" x2="517.73" y2="169.42"/><line class="cls-2" x1="517.73" y1="169.42" x2="517.88" y2="169.34"/><line class="cls-2" x1="517.88" y1="169.34" x2="517.96" y2="169.23"/><line class="cls-2" x1="517.96" y1="169.23" x2="518.03" y2="169.11"/><line class="cls-2" x1="518.03" y1="169.11" x2="518.07" y2="168.96"/><polygon class="cls-1" points="517.77 169.04 517.77 168.96 517.77 168.89 517.73 168.81 517.65 168.77 517.58 168.74 517.5 168.7 517.39 168.7 517.28 168.7 517.2 168.74 517.12 168.77 517.05 168.81 517.01 168.89 517.01 168.96 517.01 169.04 517.05 169.11 517.12 169.19 517.2 169.23 517.28 169.26 517.39 169.26 517.5 169.26 517.58 169.23 517.65 169.19 517.73 169.11 517.77 169.04"/><line class="cls-2" x1="517.77" y1="168.96" x2="517.77" y2="168.89"/><line class="cls-2" x1="517.77" y1="168.89" x2="517.73" y2="168.81"/><line class="cls-2" x1="517.73" y1="168.81" x2="517.65" y2="168.77"/><line class="cls-2" x1="517.65" y1="168.77" x2="517.58" y2="168.74"/><line class="cls-2" x1="517.58" y1="168.74" x2="517.5" y2="168.7"/><line class="cls-2" x1="517.5" y1="168.7" x2="517.39" y2="168.7"/><line class="cls-2" x1="517.39" y1="168.7" x2="517.28" y2="168.7"/><line class="cls-2" x1="517.28" y1="168.7" x2="517.2" y2="168.74"/><line class="cls-2" x1="517.2" y1="168.74" x2="517.12" y2="168.77"/><line class="cls-2" x1="517.12" y1="168.77" x2="517.05" y2="168.81"/><line class="cls-2" x1="517.05" y1="168.81" x2="517.01" y2="168.89"/><line class="cls-2" x1="517.01" y1="168.89" x2="517.01" y2="168.96"/><line class="cls-2" x1="517.01" y1="168.96" x2="517.01" y2="169.04"/><line class="cls-2" x1="517.01" y1="169.04" x2="517.05" y2="169.11"/><line class="cls-2" x1="517.05" y1="169.11" x2="517.12" y2="169.19"/><line class="cls-2" x1="517.12" y1="169.19" x2="517.2" y2="169.23"/><line class="cls-2" x1="517.2" y1="169.23" x2="517.28" y2="169.27"/><line class="cls-2" x1="517.28" y1="169.27" x2="517.39" y2="169.27"/><line class="cls-2" x1="517.39" y1="169.27" x2="517.5" y2="169.27"/><line class="cls-2" x1="517.5" y1="169.27" x2="517.58" y2="169.23"/><line class="cls-2" x1="517.58" y1="169.23" x2="517.65" y2="169.19"/><line class="cls-2" x1="517.65" y1="169.19" x2="517.73" y2="169.11"/><line class="cls-2" x1="517.73" y1="169.11" x2="517.77" y2="169.04"/><line class="cls-2" x1="517.77" y1="169.04" x2="517.77" y2="168.96"/><line class="cls-2" x1="531.68" y1="173.27" x2="531.79" y2="172.33"/><line class="cls-2" x1="531.79" y1="172.33" x2="531.68" y2="171.42"/><line class="cls-2" x1="531.68" y1="171.42" x2="531.41" y2="170.51"/><line class="cls-2" x1="531.41" y1="170.51" x2="530.92" y2="169.72"/><line class="cls-2" x1="530.92" y1="169.72" x2="530.28" y2="169"/><line class="cls-2" x1="530.28" y1="169" x2="529.52" y2="168.32"/><line class="cls-2" x1="529.52" y1="168.32" x2="528.62" y2="167.79"/><line class="cls-2" x1="528.62" y1="167.79" x2="527.59" y2="167.38"/><line class="cls-2" x1="527.59" y1="167.38" x2="526.46" y2="167.07"/><line class="cls-2" x1="526.46" y1="167.07" x2="525.14" y2="166.92"/><line class="cls-2" x1="525.14" y1="166.92" x2="523.44" y2="166.77"/><line class="cls-2" x1="523.44" y1="166.77" x2="521.7" y2="166.66"/><line class="cls-2" x1="521.7" y1="166.66" x2="519.96" y2="166.58"/><line class="cls-2" x1="519.96" y1="166.58" x2="518.22" y2="166.54"/><line class="cls-2" x1="518.22" y1="166.54" x2="516.48" y2="166.54"/><line class="cls-2" x1="516.48" y1="166.54" x2="514.74" y2="166.58"/><line class="cls-2" x1="514.74" y1="166.58" x2="513.04" y2="166.66"/><line class="cls-2" x1="513.04" y1="166.66" x2="511.3" y2="166.77"/><line class="cls-2" x1="511.3" y1="166.77" x2="509.6" y2="166.92"/><line class="cls-2" x1="509.6" y1="166.92" x2="508.28" y2="167.07"/><line class="cls-2" x1="508.28" y1="167.07" x2="507.15" y2="167.38"/><line class="cls-2" x1="507.15" y1="167.38" x2="506.13" y2="167.79"/><line class="cls-2" x1="506.13" y1="167.79" x2="505.22" y2="168.32"/><line class="cls-2" x1="505.22" y1="168.32" x2="504.46" y2="169"/><line class="cls-2" x1="504.46" y1="169" x2="503.82" y2="169.72"/><line class="cls-2" x1="503.82" y1="169.72" x2="503.33" y2="170.51"/><line class="cls-2" x1="503.33" y1="170.51" x2="503.03" y2="171.42"/><line class="cls-2" x1="503.03" y1="171.42" x2="502.95" y2="172.33"/><line class="cls-2" x1="502.95" y1="172.33" x2="503.03" y2="173.27"/><line class="cls-2" x1="503.03" y1="173.27" x2="503.33" y2="174.14"/><line class="cls-2" x1="503.33" y1="174.14" x2="503.82" y2="174.94"/><line class="cls-2" x1="503.82" y1="174.94" x2="504.46" y2="175.69"/><line class="cls-2" x1="504.46" y1="175.69" x2="505.22" y2="176.33"/><line class="cls-2" x1="505.22" y1="176.33" x2="506.13" y2="176.86"/><line class="cls-2" x1="506.13" y1="176.86" x2="507.15" y2="177.28"/><line class="cls-2" x1="507.15" y1="177.28" x2="508.28" y2="177.58"/><line class="cls-2" x1="508.28" y1="177.58" x2="509.6" y2="177.77"/><line class="cls-2" x1="509.6" y1="177.77" x2="511.3" y2="177.88"/><line class="cls-2" x1="511.3" y1="177.88" x2="513.04" y2="178"/><line class="cls-2" x1="513.04" y1="178" x2="514.74" y2="178.07"/><line class="cls-2" x1="514.74" y1="178.07" x2="516.48" y2="178.11"/><line class="cls-2" x1="516.48" y1="178.11" x2="518.22" y2="178.11"/><line class="cls-2" x1="518.22" y1="178.11" x2="519.96" y2="178.07"/><line class="cls-2" x1="519.96" y1="178.07" x2="521.7" y2="178"/><line class="cls-2" x1="521.7" y1="178" x2="523.44" y2="177.88"/><line class="cls-2" x1="523.44" y1="177.88" x2="525.14" y2="177.77"/><line class="cls-2" x1="525.14" y1="177.77" x2="526.46" y2="177.58"/><line class="cls-2" x1="526.46" y1="177.58" x2="527.59" y2="177.28"/><line class="cls-2" x1="527.59" y1="177.28" x2="528.62" y2="176.86"/><line class="cls-2" x1="528.62" y1="176.86" x2="529.52" y2="176.33"/><line class="cls-2" x1="529.52" y1="176.33" x2="530.28" y2="175.69"/><line class="cls-2" x1="530.28" y1="175.69" x2="530.92" y2="174.94"/><line class="cls-2" x1="530.92" y1="174.94" x2="531.41" y2="174.14"/><line class="cls-2" x1="531.41" y1="174.14" x2="531.68" y2="173.27"/><line class="cls-2" x1="528.92" y1="172.89" x2="528.99" y2="172.33"/><line class="cls-2" x1="528.99" y1="172.33" x2="528.92" y2="171.76"/><line class="cls-2" x1="528.92" y1="171.76" x2="528.73" y2="171.23"/><line class="cls-2" x1="528.73" y1="171.23" x2="528.46" y2="170.78"/><line class="cls-2" x1="528.46" y1="170.78" x2="528.09" y2="170.32"/><line class="cls-2" x1="528.09" y1="170.32" x2="527.59" y2="169.95"/><line class="cls-2" x1="527.59" y1="169.95" x2="527.07" y2="169.61"/><line class="cls-2" x1="527.07" y1="169.61" x2="526.42" y2="169.34"/><line class="cls-2" x1="526.42" y1="169.34" x2="525.78" y2="169.15"/><line class="cls-2" x1="525.78" y1="169.15" x2="524.76" y2="169.04"/><line class="cls-2" x1="524.76" y1="169.04" x2="523.17" y2="168.93"/><line class="cls-2" x1="523.17" y1="168.93" x2="521.51" y2="168.81"/><line class="cls-2" x1="521.51" y1="168.81" x2="519.85" y2="168.74"/><line class="cls-2" x1="519.85" y1="168.74" x2="518.18" y2="168.7"/><line class="cls-2" x1="518.18" y1="168.7" x2="516.52" y2="168.7"/><line class="cls-2" x1="516.52" y1="168.7" x2="514.86" y2="168.74"/><line class="cls-2" x1="514.86" y1="168.74" x2="513.19" y2="168.81"/><line class="cls-2" x1="513.19" y1="168.81" x2="511.53" y2="168.93"/><line class="cls-2" x1="511.53" y1="168.93" x2="509.98" y2="169.04"/><line class="cls-2" x1="509.98" y1="169.04" x2="508.96" y2="169.15"/><line class="cls-2" x1="508.96" y1="169.15" x2="508.28" y2="169.34"/><line class="cls-2" x1="508.28" y1="169.34" x2="507.67" y2="169.61"/><line class="cls-2" x1="507.67" y1="169.61" x2="507.15" y2="169.95"/><line class="cls-2" x1="507.15" y1="169.95" x2="506.65" y2="170.32"/><line class="cls-2" x1="506.65" y1="170.32" x2="506.28" y2="170.78"/><line class="cls-2" x1="506.28" y1="170.78" x2="506.01" y2="171.23"/><line class="cls-2" x1="506.01" y1="171.23" x2="505.82" y2="171.76"/><line class="cls-2" x1="505.82" y1="171.76" x2="505.75" y2="172.33"/><line class="cls-2" x1="505.75" y1="172.33" x2="505.82" y2="172.89"/><line class="cls-2" x1="505.82" y1="172.89" x2="506.01" y2="173.42"/><line class="cls-2" x1="506.01" y1="173.42" x2="506.28" y2="173.91"/><line class="cls-2" x1="506.28" y1="173.91" x2="506.65" y2="174.33"/><line class="cls-2" x1="506.65" y1="174.33" x2="507.15" y2="174.75"/><line class="cls-2" x1="507.15" y1="174.75" x2="507.67" y2="175.05"/><line class="cls-2" x1="507.67" y1="175.05" x2="508.28" y2="175.31"/><line class="cls-2" x1="508.28" y1="175.31" x2="508.96" y2="175.5"/><line class="cls-2" x1="508.96" y1="175.5" x2="509.98" y2="175.62"/><line class="cls-2" x1="509.98" y1="175.62" x2="511.53" y2="175.73"/><line class="cls-2" x1="511.53" y1="175.73" x2="513.19" y2="175.84"/><line class="cls-2" x1="513.19" y1="175.84" x2="514.86" y2="175.92"/><line class="cls-2" x1="514.86" y1="175.92" x2="516.52" y2="175.96"/><line class="cls-2" x1="516.52" y1="175.96" x2="518.18" y2="175.96"/><line class="cls-2" x1="518.18" y1="175.96" x2="519.85" y2="175.92"/><line class="cls-2" x1="519.85" y1="175.92" x2="521.51" y2="175.84"/><line class="cls-2" x1="521.51" y1="175.84" x2="523.17" y2="175.73"/><line class="cls-2" x1="523.17" y1="175.73" x2="524.76" y2="175.62"/><line class="cls-2" x1="524.76" y1="175.62" x2="525.78" y2="175.5"/><line class="cls-2" x1="525.78" y1="175.5" x2="526.42" y2="175.31"/><line class="cls-2" x1="526.42" y1="175.31" x2="527.07" y2="175.05"/><line class="cls-2" x1="527.07" y1="175.05" x2="527.59" y2="174.75"/><line class="cls-2" x1="527.59" y1="174.75" x2="528.09" y2="174.33"/><line class="cls-2" x1="528.09" y1="174.33" x2="528.46" y2="173.91"/><line class="cls-2" x1="528.46" y1="173.91" x2="528.73" y2="173.42"/><line class="cls-2" x1="528.73" y1="173.42" x2="528.92" y2="172.89"/></g></svg>