<svg id="图层_1" data-name="图层 1" xmlns="http://www.w3.org/2000/svg" viewBox="0 0 1008 504"><defs><style>.cls-1{fill:none;stroke:#0c4f71;stroke-linecap:round;stroke-linejoin:bevel;stroke-width:0.15px;}</style></defs><title>BEAM CEILING-2</title><g id="merlot-IFP_main_floor" data-name="merlot-IFP main floor"><g id="BEAM_CEILING-2" data-name="BEAM CEILING-2"><line class="cls-1" x1="471.9" y1="162.95" x2="471.9" y2="169.17"/><line class="cls-1" x1="439.05" y1="169.17" x2="442.46" y2="169.17"/><line class="cls-1" x1="445.18" y1="169.17" x2="456.06" y2="169.17"/><line class="cls-1" x1="458.78" y1="169.17" x2="464.23" y2="169.17"/><line class="cls-1" x1="466.95" y1="169.17" x2="471.9" y2="169.17"/><line class="cls-1" x1="379.86" y1="198.7" x2="390.75" y2="198.7"/><line class="cls-1" x1="393.47" y1="198.7" x2="398.91" y2="198.7"/><line class="cls-1" x1="401.63" y1="198.7" x2="412.52" y2="198.7"/><line class="cls-1" x1="415.24" y1="198.7" x2="420.68" y2="198.7"/><line class="cls-1" x1="423.41" y1="198.7" x2="434.29" y2="198.7"/><line class="cls-1" x1="437.01" y1="198.7" x2="442.46" y2="198.7"/><line class="cls-1" x1="445.18" y1="198.7" x2="456.06" y2="198.7"/><line class="cls-1" x1="458.78" y1="198.7" x2="464.23" y2="198.7"/><line class="cls-1" x1="376.23" y1="198.7" x2="377.63" y2="198.7"/><line class="cls-1" x1="466.23" y1="198.7" x2="464.79" y2="198.7"/><line class="cls-1" x1="466.23" y1="198.7" x2="466.23" y2="201.56"/><line class="cls-1" x1="379.86" y1="201.56" x2="390.75" y2="201.56"/><line class="cls-1" x1="393.47" y1="201.56" x2="398.91" y2="201.56"/><line class="cls-1" x1="401.63" y1="201.56" x2="412.52" y2="201.56"/><line class="cls-1" x1="415.24" y1="201.56" x2="420.68" y2="201.56"/><line class="cls-1" x1="423.41" y1="201.56" x2="434.29" y2="201.56"/><line class="cls-1" x1="437.01" y1="201.56" x2="442.46" y2="201.56"/><line class="cls-1" x1="445.18" y1="201.56" x2="456.06" y2="201.56"/><line class="cls-1" x1="458.78" y1="201.56" x2="464.23" y2="201.56"/><line class="cls-1" x1="376.23" y1="201.56" x2="377.63" y2="201.56"/><line class="cls-1" x1="466.23" y1="201.56" x2="464.79" y2="201.56"/><line class="cls-1" x1="376.23" y1="198.7" x2="376.23" y2="201.56"/><line class="cls-1" x1="406.7" y1="171.12" x2="406.7" y2="177.09"/><line class="cls-1" x1="406.7" y1="180.08" x2="406.7" y2="192.02"/><line class="cls-1" x1="406.7" y1="195.01" x2="406.7" y2="200.98"/><line class="cls-1" x1="406.7" y1="203.96" x2="406.7" y2="215.91"/><line class="cls-1" x1="406.7" y1="218.89" x2="406.7" y2="224.87"/><line class="cls-1" x1="406.7" y1="227.85" x2="406.7" y2="239.8"/><line class="cls-1" x1="406.7" y1="242.78" x2="406.7" y2="248.75"/><line class="cls-1" x1="406.7" y1="251.74" x2="406.7" y2="263.68"/><line class="cls-1" x1="406.7" y1="266.67" x2="406.7" y2="271.27"/><line class="cls-1" x1="406.7" y1="169.17" x2="406.7" y2="170.7"/><line class="cls-1" x1="406.7" y1="169.17" x2="409.31" y2="169.17"/><line class="cls-1" x1="409.31" y1="171.12" x2="409.31" y2="177.09"/><line class="cls-1" x1="409.31" y1="180.08" x2="409.31" y2="192.02"/><line class="cls-1" x1="409.31" y1="195.01" x2="409.31" y2="200.98"/><line class="cls-1" x1="409.31" y1="203.96" x2="409.31" y2="215.91"/><line class="cls-1" x1="409.31" y1="218.89" x2="409.31" y2="224.87"/><line class="cls-1" x1="409.31" y1="227.85" x2="409.31" y2="239.8"/><line class="cls-1" x1="409.31" y1="242.78" x2="409.31" y2="248.75"/><line class="cls-1" x1="409.31" y1="251.74" x2="409.31" y2="263.68"/><line class="cls-1" x1="409.31" y1="266.67" x2="409.31" y2="271.27"/><line class="cls-1" x1="409.31" y1="169.17" x2="409.31" y2="170.7"/><line class="cls-1" x1="406.7" y1="271.27" x2="409.31" y2="271.27"/><line class="cls-1" x1="436.48" y1="171.12" x2="436.48" y2="177.09"/><line class="cls-1" x1="436.48" y1="180.08" x2="436.48" y2="192.02"/><line class="cls-1" x1="436.48" y1="195.01" x2="436.48" y2="200.98"/><line class="cls-1" x1="436.48" y1="203.96" x2="436.48" y2="215.91"/><line class="cls-1" x1="436.48" y1="218.89" x2="436.48" y2="224.87"/><line class="cls-1" x1="436.48" y1="227.85" x2="436.48" y2="239.8"/><line class="cls-1" x1="436.48" y1="242.78" x2="436.48" y2="248.75"/><line class="cls-1" x1="436.48" y1="251.74" x2="436.48" y2="263.68"/><line class="cls-1" x1="436.48" y1="266.67" x2="436.48" y2="271.27"/><line class="cls-1" x1="436.48" y1="169.17" x2="436.48" y2="170.7"/><line class="cls-1" x1="371.7" y1="169.17" x2="377.14" y2="169.17"/><line class="cls-1" x1="379.86" y1="169.17" x2="390.75" y2="169.17"/><line class="cls-1" x1="393.47" y1="169.17" x2="398.91" y2="169.17"/><line class="cls-1" x1="401.63" y1="169.17" x2="412.52" y2="169.17"/><line class="cls-1" x1="415.24" y1="169.17" x2="420.68" y2="169.17"/><line class="cls-1" x1="423.41" y1="169.17" x2="434.29" y2="169.17"/><line class="cls-1" x1="369.13" y1="169.17" x2="370.56" y2="169.17"/><line class="cls-1" x1="436.48" y1="169.17" x2="435.05" y2="169.17"/><line class="cls-1" x1="439.05" y1="171.12" x2="439.05" y2="177.09"/><line class="cls-1" x1="439.05" y1="180.08" x2="439.05" y2="192.02"/><line class="cls-1" x1="439.05" y1="195.01" x2="439.05" y2="200.98"/><line class="cls-1" x1="439.05" y1="203.96" x2="439.05" y2="215.91"/><line class="cls-1" x1="439.05" y1="218.89" x2="439.05" y2="224.87"/><line class="cls-1" x1="439.05" y1="227.85" x2="439.05" y2="239.8"/><line class="cls-1" x1="439.05" y1="242.78" x2="439.05" y2="248.75"/><line class="cls-1" x1="439.05" y1="251.74" x2="439.05" y2="263.68"/><line class="cls-1" x1="439.05" y1="266.67" x2="439.05" y2="271.27"/><line class="cls-1" x1="439.05" y1="169.17" x2="439.05" y2="170.7"/><line class="cls-1" x1="436.48" y1="271.27" x2="439.05" y2="271.27"/><line class="cls-1" x1="471.9" y1="271.27" x2="469.67" y2="271.27"/><line class="cls-1" x1="466.95" y1="271.27" x2="456.06" y2="271.27"/><line class="cls-1" x1="453.34" y1="271.27" x2="447.9" y2="271.27"/><line class="cls-1" x1="445.18" y1="271.27" x2="434.29" y2="271.27"/><line class="cls-1" x1="431.57" y1="271.27" x2="426.13" y2="271.27"/><line class="cls-1" x1="423.41" y1="271.27" x2="412.52" y2="271.27"/><line class="cls-1" x1="409.8" y1="271.27" x2="404.35" y2="271.27"/><line class="cls-1" x1="401.63" y1="271.27" x2="390.75" y2="271.27"/><line class="cls-1" x1="388.03" y1="271.27" x2="382.58" y2="271.27"/><line class="cls-1" x1="379.86" y1="271.27" x2="369.13" y2="271.27"/><line class="cls-1" x1="471.9" y1="275.63" x2="471.9" y2="277.49"/><line class="cls-1" x1="471.9" y1="271.27" x2="471.9" y2="272.85"/><line class="cls-1" x1="371.7" y1="277.49" x2="377.14" y2="277.49"/><line class="cls-1" x1="379.86" y1="277.49" x2="390.75" y2="277.49"/><line class="cls-1" x1="393.47" y1="277.49" x2="398.91" y2="277.49"/><line class="cls-1" x1="401.63" y1="277.49" x2="412.52" y2="277.49"/><line class="cls-1" x1="458.78" y1="277.49" x2="464.23" y2="277.49"/><line class="cls-1" x1="466.95" y1="277.49" x2="471.67" y2="277.49"/><line class="cls-1" x1="369.13" y1="277.49" x2="370.56" y2="277.49"/><line class="cls-1" x1="369.13" y1="275.63" x2="369.13" y2="277.49"/><line class="cls-1" x1="379.86" y1="238.88" x2="390.75" y2="238.88"/><line class="cls-1" x1="393.47" y1="238.88" x2="398.91" y2="238.88"/><line class="cls-1" x1="401.63" y1="238.88" x2="412.52" y2="238.88"/><line class="cls-1" x1="415.24" y1="238.88" x2="420.68" y2="238.88"/><line class="cls-1" x1="423.41" y1="238.88" x2="434.29" y2="238.88"/><line class="cls-1" x1="437.01" y1="238.88" x2="442.46" y2="238.88"/><line class="cls-1" x1="445.18" y1="238.88" x2="456.06" y2="238.88"/><line class="cls-1" x1="458.78" y1="238.88" x2="464.23" y2="238.88"/><line class="cls-1" x1="376.23" y1="238.88" x2="377.67" y2="238.88"/><line class="cls-1" x1="466.23" y1="238.88" x2="464.79" y2="238.88"/><line class="cls-1" x1="466.23" y1="238.88" x2="466.23" y2="241.75"/><line class="cls-1" x1="379.86" y1="241.75" x2="390.75" y2="241.75"/><line class="cls-1" x1="393.47" y1="241.75" x2="398.91" y2="241.75"/><line class="cls-1" x1="401.63" y1="241.75" x2="412.52" y2="241.75"/><line class="cls-1" x1="415.24" y1="241.75" x2="420.68" y2="241.75"/><line class="cls-1" x1="423.41" y1="241.75" x2="434.29" y2="241.75"/><line class="cls-1" x1="437.01" y1="241.75" x2="442.46" y2="241.75"/><line class="cls-1" x1="445.18" y1="241.75" x2="456.06" y2="241.75"/><line class="cls-1" x1="458.78" y1="241.75" x2="464.23" y2="241.75"/><line class="cls-1" x1="376.23" y1="241.75" x2="377.67" y2="241.75"/><line class="cls-1" x1="466.23" y1="241.75" x2="464.79" y2="241.75"/><line class="cls-1" x1="376.23" y1="238.88" x2="376.23" y2="241.75"/><line class="cls-1" x1="466.23" y1="162.95" x2="466.23" y2="168.13"/><line class="cls-1" x1="466.23" y1="171.12" x2="466.23" y2="177.09"/><line class="cls-1" x1="466.23" y1="180.08" x2="466.23" y2="192.02"/><line class="cls-1" x1="466.23" y1="195.01" x2="466.23" y2="200.98"/><line class="cls-1" x1="466.23" y1="203.96" x2="466.23" y2="215.91"/><line class="cls-1" x1="466.23" y1="218.89" x2="466.23" y2="224.87"/><line class="cls-1" x1="466.23" y1="227.85" x2="466.23" y2="239.8"/><line class="cls-1" x1="466.23" y1="242.78" x2="466.23" y2="248.75"/><line class="cls-1" x1="466.23" y1="251.74" x2="466.23" y2="263.68"/><line class="cls-1" x1="466.23" y1="266.67" x2="466.23" y2="272.64"/><line class="cls-1" x1="466.23" y1="275.63" x2="466.23" y2="277.49"/><line class="cls-1" x1="471.9" y1="162.95" x2="471.9" y2="168.13"/><line class="cls-1" x1="471.9" y1="171.12" x2="471.9" y2="177.09"/><line class="cls-1" x1="471.9" y1="180.08" x2="471.9" y2="192.02"/><line class="cls-1" x1="471.9" y1="195.01" x2="471.9" y2="200.98"/><line class="cls-1" x1="471.9" y1="203.96" x2="471.9" y2="215.91"/><line class="cls-1" x1="471.9" y1="218.89" x2="471.9" y2="224.87"/><line class="cls-1" x1="471.9" y1="227.85" x2="471.9" y2="239.8"/><line class="cls-1" x1="471.9" y1="242.78" x2="471.9" y2="248.75"/><line class="cls-1" x1="471.9" y1="251.74" x2="471.9" y2="263.68"/><line class="cls-1" x1="471.9" y1="266.67" x2="471.9" y2="272.64"/><line class="cls-1" x1="471.9" y1="275.63" x2="471.9" y2="277.49"/><line class="cls-1" x1="466.23" y1="277.49" x2="471.9" y2="277.49"/><line class="cls-1" x1="369.13" y1="257.8" x2="369.13" y2="263.68"/><line class="cls-1" x1="369.13" y1="266.67" x2="369.13" y2="272.64"/><line class="cls-1" x1="369.13" y1="275.63" x2="369.13" y2="277.78"/><line class="cls-1" x1="379.52" y1="163.24" x2="379.52" y2="168.13"/><line class="cls-1" x1="379.52" y1="171.12" x2="379.52" y2="177.09"/><line class="cls-1" x1="379.52" y1="180.08" x2="379.52" y2="192.02"/><line class="cls-1" x1="379.52" y1="195.01" x2="379.52" y2="200.98"/><line class="cls-1" x1="379.52" y1="203.96" x2="379.52" y2="215.91"/><line class="cls-1" x1="379.52" y1="218.89" x2="379.52" y2="224.87"/><line class="cls-1" x1="379.52" y1="227.85" x2="379.52" y2="239.8"/><line class="cls-1" x1="379.52" y1="242.78" x2="379.52" y2="248.75"/><line class="cls-1" x1="379.52" y1="251.74" x2="379.52" y2="263.68"/><line class="cls-1" x1="379.52" y1="266.67" x2="379.52" y2="272.64"/><line class="cls-1" x1="379.52" y1="275.63" x2="379.52" y2="277.78"/><line class="cls-1" x1="371.7" y1="277.78" x2="377.14" y2="277.78"/><line class="cls-1" x1="369.13" y1="277.78" x2="370.56" y2="277.78"/><line class="cls-1" x1="379.52" y1="277.78" x2="378.12" y2="277.78"/><line class="cls-1" x1="369.13" y1="257.13" x2="369.13" y2="263.68"/><line class="cls-1" x1="369.13" y1="266.67" x2="369.13" y2="272.64"/><line class="cls-1" x1="369.13" y1="275.63" x2="369.13" y2="277.49"/><line class="cls-1" x1="367.01" y1="259.45" x2="367.01" y2="263.68"/><line class="cls-1" x1="367.01" y1="266.67" x2="367.01" y2="272.64"/><line class="cls-1" x1="367.01" y1="275.63" x2="367.01" y2="279.82"/><line class="cls-1" x1="371.7" y1="277.49" x2="377.14" y2="277.49"/><line class="cls-1" x1="379.86" y1="277.49" x2="390.75" y2="277.49"/><line class="cls-1" x1="393.47" y1="277.49" x2="398.91" y2="277.49"/><line class="cls-1" x1="401.63" y1="277.49" x2="407.64" y2="277.49"/><line class="cls-1" x1="369.13" y1="277.49" x2="370.56" y2="277.49"/><line class="cls-1" x1="407.64" y1="279.82" x2="404.35" y2="279.82"/><line class="cls-1" x1="401.63" y1="279.82" x2="390.75" y2="279.82"/><line class="cls-1" x1="388.03" y1="279.82" x2="382.58" y2="279.82"/><line class="cls-1" x1="379.86" y1="279.82" x2="368.98" y2="279.82"/><line class="cls-1" x1="367.01" y1="279.82" x2="368.45" y2="279.82"/><line class="cls-1" x1="471.67" y1="162.66" x2="471.67" y2="168.13"/><line class="cls-1" x1="471.67" y1="171.12" x2="471.67" y2="177.09"/><line class="cls-1" x1="471.67" y1="180.08" x2="471.67" y2="192.02"/><line class="cls-1" x1="471.67" y1="195.01" x2="471.67" y2="200.98"/><line class="cls-1" x1="471.67" y1="203.96" x2="471.67" y2="215.91"/><line class="cls-1" x1="471.67" y1="218.89" x2="471.67" y2="224.87"/><line class="cls-1" x1="471.67" y1="227.85" x2="471.67" y2="239.8"/><line class="cls-1" x1="471.67" y1="242.78" x2="471.67" y2="248.75"/><line class="cls-1" x1="471.67" y1="251.74" x2="471.67" y2="263.68"/><line class="cls-1" x1="471.67" y1="266.67" x2="471.67" y2="272.64"/><line class="cls-1" x1="471.67" y1="275.63" x2="471.67" y2="277.74"/></g></g></svg>