<svg id="图层_1" data-name="图层 1" xmlns="http://www.w3.org/2000/svg" viewBox="0 0 1008 504"><defs><style>.cls-1,.cls-3{fill:#fff;}.cls-2,.cls-5{fill:none;}.cls-2{stroke:#0c5275;stroke-linecap:round;stroke-linejoin:bevel;stroke-width:0.15px;}.cls-3{fill-rule:evenodd;}.cls-4,.cls-6{fill:#0c5275;}.cls-6{font-size:7px;font-family:CenturyGothic, Century Gothic;}.cls-7{letter-spacing:0em;}.cls-8{letter-spacing:-0.01em;}.cls-9{letter-spacing:0em;}.cls-10{letter-spacing:0em;}.cls-11{letter-spacing:-0.01em;}.cls-12{letter-spacing:0.01em;}.cls-13{letter-spacing:-0.01em;}.cls-14{letter-spacing:0em;}.cls-15{letter-spacing:0em;}.cls-16{letter-spacing:-0.01em;}.cls-17{letter-spacing:0em;}</style></defs><title>OPT.STUDY-2</title><g id="merlot-IFP_main_floor" data-name="merlot-IFP main floor"><g id="OPT.STUDY-2"><g id="OPT.STUDY-2-2" data-name="OPT.STUDY-2"><rect class="cls-1" x="291.78" y="194.36" width="75.07" height="83.76"/><line class="cls-2" x1="299.42" y1="279.87" x2="320.21" y2="279.87"/><line class="cls-2" x1="324.94" y1="279.87" x2="320.21" y2="279.87"/><line class="cls-2" x1="329.66" y1="279.87" x2="324.94" y2="279.87"/><line class="cls-2" x1="334.39" y1="279.87" x2="329.66" y2="279.87"/><line class="cls-2" x1="339.11" y1="279.87" x2="334.39" y2="279.87"/><line class="cls-2" x1="343.84" y1="279.87" x2="339.11" y2="279.87"/><line class="cls-2" x1="348.56" y1="279.87" x2="343.84" y2="279.87"/><line class="cls-2" x1="296.36" y1="245.62" x2="298.55" y2="245.62"/><line class="cls-2" x1="300.26" y1="245.62" x2="301.96" y2="245.62"/><line class="cls-2" x1="303.66" y1="245.62" x2="306.27" y2="245.62"/><line class="cls-2" x1="306.27" y1="233.22" x2="306.27" y2="234.93"/><line class="cls-2" x1="306.27" y1="236.63" x2="306.27" y2="238.33"/><line class="cls-2" x1="306.27" y1="240.03" x2="306.27" y2="241.73"/><line class="cls-2" x1="306.27" y1="243.43" x2="306.27" y2="245.62"/><line class="cls-2" x1="306.27" y1="231.45" x2="306.27" y2="232.88"/><line class="cls-2" x1="296.36" y1="231.45" x2="298.55" y2="231.45"/><line class="cls-2" x1="300.26" y1="231.45" x2="301.96" y2="231.45"/><line class="cls-2" x1="303.66" y1="231.45" x2="306.27" y2="231.45"/><line class="cls-2" x1="306.98" y1="246.19" x2="306.98" y2="246.23"/><line class="cls-2" x1="306.98" y1="246.23" x2="306.98" y2="246.27"/><line class="cls-2" x1="306.98" y1="246.27" x2="306.95" y2="246.27"/><line class="cls-2" x1="306.95" y1="246.27" x2="306.95" y2="246.3"/><line class="cls-2" x1="306.95" y1="246.3" x2="306.91" y2="246.3"/><line class="cls-2" x1="306.91" y1="246.3" x2="306.91" y2="246.34"/><line class="cls-2" x1="306.91" y1="246.34" x2="306.87" y2="246.34"/><line class="cls-2" x1="306.87" y1="246.34" x2="306.83" y2="246.34"/><line class="cls-2" x1="306.83" y1="246.34" x2="296.36" y2="246.34"/><line class="cls-2" x1="296.36" y1="246.34" x2="296.36" y2="231.45"/><line class="cls-2" x1="296.36" y1="231.45" x2="306.98" y2="231.45"/><line class="cls-2" x1="306.98" y1="231.45" x2="306.98" y2="246.19"/><line class="cls-2" x1="298.03" y1="242.07" x2="298.21" y2="242.26"/><line class="cls-2" x1="298.21" y1="242.26" x2="298.4" y2="242.45"/><line class="cls-2" x1="298.4" y1="242.45" x2="298.59" y2="242.64"/><line class="cls-2" x1="298.59" y1="242.64" x2="298.82" y2="242.79"/><line class="cls-2" x1="298.82" y1="242.79" x2="299.12" y2="242.94"/><line class="cls-2" x1="299.12" y1="242.94" x2="299.42" y2="243.05"/><line class="cls-2" x1="299.42" y1="243.05" x2="299.73" y2="243.17"/><line class="cls-2" x1="299.73" y1="243.17" x2="300.03" y2="243.24"/><line class="cls-2" x1="300.03" y1="243.24" x2="300.37" y2="243.28"/><line class="cls-2" x1="300.37" y1="243.28" x2="300.67" y2="243.28"/><line class="cls-2" x1="300.67" y1="243.28" x2="301.01" y2="243.24"/><line class="cls-2" x1="301.01" y1="243.24" x2="301.31" y2="243.2"/><line class="cls-2" x1="301.31" y1="243.2" x2="301.62" y2="243.09"/><line class="cls-2" x1="301.62" y1="243.09" x2="301.92" y2="242.98"/><line class="cls-2" x1="301.92" y1="242.98" x2="302.22" y2="242.83"/><line class="cls-2" x1="302.22" y1="242.83" x2="302.49" y2="242.67"/><line class="cls-2" x1="302.49" y1="242.67" x2="302.75" y2="242.45"/><line class="cls-2" x1="302.75" y1="242.45" x2="302.98" y2="242.22"/><line class="cls-2" x1="302.98" y1="242.22" x2="303.13" y2="242.07"/><line class="cls-2" x1="303.13" y1="242.07" x2="303.39" y2="241.69"/><line class="cls-2" x1="303.39" y1="241.69" x2="303.62" y2="241.31"/><line class="cls-2" x1="303.62" y1="241.31" x2="303.88" y2="240.78"/><line class="cls-2" x1="303.88" y1="240.78" x2="304.07" y2="240.26"/><line class="cls-2" x1="304.07" y1="240.26" x2="304.22" y2="239.73"/><line class="cls-2" x1="304.22" y1="239.73" x2="304.34" y2="239.16"/><line class="cls-2" x1="304.34" y1="239.16" x2="304.38" y2="238.59"/><line class="cls-2" x1="304.38" y1="238.59" x2="304.34" y2="238.03"/><line class="cls-2" x1="304.34" y1="238.03" x2="304.26" y2="237.46"/><line class="cls-2" x1="304.26" y1="237.46" x2="304.11" y2="236.93"/><line class="cls-2" x1="304.11" y1="236.93" x2="303.92" y2="236.4"/><line class="cls-2" x1="303.92" y1="236.4" x2="303.7" y2="235.95"/><line class="cls-2" x1="303.7" y1="235.95" x2="303.43" y2="235.49"/><line class="cls-2" x1="303.43" y1="235.49" x2="303.13" y2="235.04"/><line class="cls-2" x1="303.13" y1="235.04" x2="302.94" y2="234.85"/><line class="cls-2" x1="302.94" y1="234.85" x2="302.71" y2="234.62"/><line class="cls-2" x1="302.71" y1="234.62" x2="302.49" y2="234.43"/><line class="cls-2" x1="302.49" y1="234.43" x2="302.26" y2="234.28"/><line class="cls-2" x1="302.26" y1="234.28" x2="301.99" y2="234.13"/><line class="cls-2" x1="301.99" y1="234.13" x2="301.73" y2="234.02"/><line class="cls-2" x1="301.73" y1="234.02" x2="301.43" y2="233.94"/><line class="cls-2" x1="301.43" y1="233.94" x2="301.09" y2="233.87"/><line class="cls-2" x1="301.09" y1="233.87" x2="300.78" y2="233.83"/><line class="cls-2" x1="300.78" y1="233.83" x2="300.44" y2="233.83"/><line class="cls-2" x1="300.44" y1="233.83" x2="300.14" y2="233.87"/><line class="cls-2" x1="300.14" y1="233.87" x2="299.8" y2="233.91"/><line class="cls-2" x1="299.8" y1="233.91" x2="299.5" y2="234.02"/><line class="cls-2" x1="299.5" y1="234.02" x2="299.24" y2="234.13"/><line class="cls-2" x1="299.24" y1="234.13" x2="298.93" y2="234.25"/><line class="cls-2" x1="298.93" y1="234.25" x2="298.71" y2="234.43"/><line class="cls-2" x1="298.71" y1="234.43" x2="298.44" y2="234.62"/><line class="cls-2" x1="298.44" y1="234.62" x2="298.21" y2="234.81"/><line class="cls-2" x1="298.21" y1="234.81" x2="298.03" y2="235.04"/><line class="cls-2" x1="298.03" y1="235.04" x2="297.72" y2="235.45"/><line class="cls-2" x1="297.72" y1="235.45" x2="297.46" y2="235.91"/><line class="cls-2" x1="297.46" y1="235.91" x2="297.23" y2="236.4"/><line class="cls-2" x1="297.23" y1="236.4" x2="297.04" y2="236.93"/><line class="cls-2" x1="297.04" y1="236.93" x2="296.89" y2="237.46"/><line class="cls-2" x1="296.89" y1="237.46" x2="296.82" y2="238.03"/><line class="cls-2" x1="296.82" y1="238.03" x2="296.78" y2="238.59"/><line class="cls-2" x1="296.78" y1="238.59" x2="296.82" y2="239.16"/><line class="cls-2" x1="296.82" y1="239.16" x2="296.93" y2="239.73"/><line class="cls-2" x1="296.93" y1="239.73" x2="297.04" y2="240.26"/><line class="cls-2" x1="297.04" y1="240.26" x2="297.27" y2="240.78"/><line class="cls-2" x1="297.27" y1="240.78" x2="297.46" y2="241.24"/><line class="cls-2" x1="297.46" y1="241.24" x2="297.72" y2="241.65"/><line class="cls-2" x1="297.72" y1="241.65" x2="298.03" y2="242.07"/><polygon class="cls-3" points="303.13 242.03 297.99 242.03 298.25 242.3 298.56 242.6 298.93 242.83 299.31 243.01 299.73 243.17 300.14 243.24 300.56 243.28 300.97 243.24 301.39 243.17 301.81 243.01 302.18 242.83 302.56 242.6 302.86 242.3 303.13 242.03"/><polygon class="cls-3" points="303.13 235.04 303.13 242.03 303.17 241.96 303.58 241.35 303.92 240.67 304.15 239.99 304.3 239.27 304.34 238.55 304.3 237.8 304.15 237.08 303.92 236.4 303.58 235.72 303.17 235.12 303.13 235.04"/><polygon class="cls-3" points="297.99 235.04 303.13 235.04 302.86 234.78 302.56 234.47 302.18 234.25 301.81 234.06 301.39 233.91 300.97 233.83 300.56 233.79 300.14 233.83 299.73 233.91 299.31 234.06 298.93 234.25 298.56 234.47 298.25 234.78 297.99 235.04"/><polygon class="cls-3" points="297.99 242.03 297.99 235.04 297.95 235.12 297.53 235.72 297.19 236.4 296.97 237.08 296.82 237.8 296.78 238.55 296.82 239.27 296.97 239.99 297.19 240.67 297.53 241.35 297.95 241.96 297.99 242.03"/><rect class="cls-1" x="297.99" y="235.04" width="5.14" height="6.99"/><line class="cls-2" x1="297.99" y1="242.03" x2="298.21" y2="242.26"/><line class="cls-2" x1="298.21" y1="242.26" x2="298.44" y2="242.49"/><line class="cls-2" x1="298.44" y1="242.49" x2="298.67" y2="242.67"/><line class="cls-2" x1="298.67" y1="242.67" x2="298.93" y2="242.83"/><line class="cls-2" x1="298.93" y1="242.83" x2="299.2" y2="242.98"/><line class="cls-2" x1="299.2" y1="242.98" x2="299.46" y2="243.09"/><line class="cls-2" x1="299.46" y1="243.09" x2="299.76" y2="243.17"/><line class="cls-2" x1="299.76" y1="243.17" x2="300.1" y2="243.24"/><line class="cls-2" x1="300.1" y1="243.24" x2="300.41" y2="243.28"/><line class="cls-2" x1="300.41" y1="243.28" x2="300.75" y2="243.24"/><line class="cls-2" x1="300.75" y1="243.24" x2="301.05" y2="243.24"/><line class="cls-2" x1="301.05" y1="243.24" x2="301.39" y2="243.17"/><line class="cls-2" x1="301.39" y1="243.17" x2="301.69" y2="243.05"/><line class="cls-2" x1="301.69" y1="243.05" x2="301.96" y2="242.94"/><line class="cls-2" x1="301.96" y1="242.94" x2="302.22" y2="242.83"/><line class="cls-2" x1="302.22" y1="242.83" x2="302.49" y2="242.64"/><line class="cls-2" x1="302.49" y1="242.64" x2="302.71" y2="242.45"/><line class="cls-2" x1="302.71" y1="242.45" x2="302.9" y2="242.26"/><line class="cls-2" x1="302.9" y1="242.26" x2="303.13" y2="242.03"/><line class="cls-2" x1="303.13" y1="242.03" x2="303.36" y2="241.69"/><line class="cls-2" x1="303.36" y1="241.69" x2="303.58" y2="241.35"/><line class="cls-2" x1="303.58" y1="241.35" x2="303.77" y2="241.01"/><line class="cls-2" x1="303.77" y1="241.01" x2="304" y2="240.48"/><line class="cls-2" x1="304" y1="240.48" x2="304.15" y2="239.95"/><line class="cls-2" x1="304.15" y1="239.95" x2="304.26" y2="239.39"/><line class="cls-2" x1="304.26" y1="239.39" x2="304.34" y2="238.82"/><line class="cls-2" x1="304.34" y1="238.82" x2="304.34" y2="238.25"/><line class="cls-2" x1="304.34" y1="238.25" x2="304.26" y2="237.69"/><line class="cls-2" x1="304.26" y1="237.69" x2="304.15" y2="237.16"/><line class="cls-2" x1="304.15" y1="237.16" x2="304" y2="236.59"/><line class="cls-2" x1="304" y1="236.59" x2="303.81" y2="236.17"/><line class="cls-2" x1="303.81" y1="236.17" x2="303.62" y2="235.8"/><line class="cls-2" x1="303.62" y1="235.8" x2="303.39" y2="235.38"/><line class="cls-2" x1="303.39" y1="235.38" x2="303.13" y2="235.04"/><line class="cls-2" x1="303.13" y1="235.04" x2="302.9" y2="234.77"/><line class="cls-2" x1="302.9" y1="234.77" x2="302.64" y2="234.55"/><line class="cls-2" x1="302.64" y1="234.55" x2="302.37" y2="234.36"/><line class="cls-2" x1="302.37" y1="234.36" x2="302.07" y2="234.17"/><line class="cls-2" x1="302.07" y1="234.17" x2="301.81" y2="234.06"/><line class="cls-2" x1="301.81" y1="234.06" x2="301.47" y2="233.94"/><line class="cls-2" x1="301.47" y1="233.94" x2="301.16" y2="233.87"/><line class="cls-2" x1="301.16" y1="233.87" x2="300.86" y2="233.83"/><line class="cls-2" x1="300.86" y1="233.83" x2="300.52" y2="233.79"/><line class="cls-2" x1="300.52" y1="233.79" x2="300.22" y2="233.83"/><line class="cls-2" x1="300.22" y1="233.83" x2="299.88" y2="233.87"/><line class="cls-2" x1="299.88" y1="233.87" x2="299.58" y2="233.94"/><line class="cls-2" x1="299.58" y1="233.94" x2="299.27" y2="234.06"/><line class="cls-2" x1="299.27" y1="234.06" x2="298.97" y2="234.21"/><line class="cls-2" x1="298.97" y1="234.21" x2="298.71" y2="234.4"/><line class="cls-2" x1="298.71" y1="234.4" x2="298.44" y2="234.59"/><line class="cls-2" x1="298.44" y1="234.59" x2="298.21" y2="234.81"/><line class="cls-2" x1="298.21" y1="234.81" x2="297.99" y2="235.04"/><line class="cls-2" x1="297.99" y1="235.04" x2="297.76" y2="235.38"/><line class="cls-2" x1="297.76" y1="235.38" x2="297.53" y2="235.72"/><line class="cls-2" x1="297.53" y1="235.72" x2="297.35" y2="236.1"/><line class="cls-2" x1="297.35" y1="236.1" x2="297.12" y2="236.59"/><line class="cls-2" x1="297.12" y1="236.59" x2="296.97" y2="237.16"/><line class="cls-2" x1="296.97" y1="237.16" x2="296.85" y2="237.69"/><line class="cls-2" x1="296.85" y1="237.69" x2="296.78" y2="238.25"/><line class="cls-2" x1="296.78" y1="238.25" x2="296.78" y2="238.82"/><line class="cls-2" x1="296.78" y1="238.82" x2="296.85" y2="239.39"/><line class="cls-2" x1="296.85" y1="239.39" x2="296.97" y2="239.95"/><line class="cls-2" x1="296.97" y1="239.95" x2="297.12" y2="240.48"/><line class="cls-2" x1="297.12" y1="240.48" x2="297.31" y2="240.9"/><line class="cls-2" x1="297.31" y1="240.9" x2="297.5" y2="241.31"/><line class="cls-2" x1="297.5" y1="241.31" x2="297.72" y2="241.69"/><line class="cls-2" x1="297.72" y1="241.69" x2="297.99" y2="242.03"/><path class="cls-2" d="M300.1,238a.49.49,0,1,0,.5.49A.49.49,0,0,0,300.1,238Z"/><path class="cls-2" d="M300.1,238.21h0a.29.29,0,1,0,0,.57.29.29,0,0,0,.28-.28A.29.29,0,0,0,300.1,238.21Z"/><line class="cls-2" x1="298.71" y1="241.46" x2="298.86" y2="241.65"/><line class="cls-2" x1="298.86" y1="241.65" x2="299.01" y2="241.8"/><line class="cls-2" x1="299.01" y1="241.8" x2="299.2" y2="241.92"/><line class="cls-2" x1="299.2" y1="241.92" x2="299.39" y2="242.07"/><line class="cls-2" x1="299.39" y1="242.07" x2="299.58" y2="242.15"/><line class="cls-2" x1="299.58" y1="242.15" x2="299.8" y2="242.26"/><line class="cls-2" x1="299.8" y1="242.26" x2="299.99" y2="242.3"/><line class="cls-2" x1="299.99" y1="242.3" x2="300.22" y2="242.33"/><line class="cls-2" x1="300.22" y1="242.33" x2="300.44" y2="242.37"/><line class="cls-2" x1="300.44" y1="242.37" x2="300.67" y2="242.37"/><line class="cls-2" x1="300.67" y1="242.37" x2="300.9" y2="242.33"/><line class="cls-2" x1="300.9" y1="242.33" x2="301.12" y2="242.3"/><line class="cls-2" x1="301.12" y1="242.3" x2="301.35" y2="242.22"/><line class="cls-2" x1="301.35" y1="242.22" x2="301.54" y2="242.15"/><line class="cls-2" x1="301.54" y1="242.15" x2="301.77" y2="242.03"/><line class="cls-2" x1="301.77" y1="242.03" x2="301.96" y2="241.92"/><line class="cls-2" x1="301.96" y1="241.92" x2="302.11" y2="241.8"/><line class="cls-2" x1="302.11" y1="241.8" x2="302.26" y2="241.65"/><line class="cls-2" x1="302.26" y1="241.65" x2="302.41" y2="241.46"/><line class="cls-2" x1="302.41" y1="241.46" x2="302.6" y2="241.2"/><line class="cls-2" x1="302.6" y1="241.2" x2="302.79" y2="240.94"/><line class="cls-2" x1="302.79" y1="240.94" x2="303.01" y2="240.52"/><line class="cls-2" x1="303.01" y1="240.52" x2="303.17" y2="240.1"/><line class="cls-2" x1="303.17" y1="240.1" x2="303.32" y2="239.69"/><line class="cls-2" x1="303.32" y1="239.69" x2="303.39" y2="239.23"/><line class="cls-2" x1="303.39" y1="239.23" x2="303.43" y2="238.78"/><line class="cls-2" x1="303.43" y1="238.78" x2="303.43" y2="238.33"/><line class="cls-2" x1="303.43" y1="238.33" x2="303.39" y2="237.87"/><line class="cls-2" x1="303.39" y1="237.87" x2="303.32" y2="237.42"/><line class="cls-2" x1="303.32" y1="237.42" x2="303.2" y2="237"/><line class="cls-2" x1="303.2" y1="237" x2="303.01" y2="236.59"/><line class="cls-2" x1="303.01" y1="236.59" x2="302.83" y2="236.25"/><line class="cls-2" x1="302.83" y1="236.25" x2="302.64" y2="235.91"/><line class="cls-2" x1="302.64" y1="235.91" x2="302.41" y2="235.61"/><line class="cls-2" x1="302.41" y1="235.61" x2="302.3" y2="235.45"/><line class="cls-2" x1="302.3" y1="235.45" x2="302.18" y2="235.34"/><line class="cls-2" x1="302.18" y1="235.34" x2="302.03" y2="235.19"/><line class="cls-2" x1="302.03" y1="235.19" x2="301.84" y2="235.08"/><line class="cls-2" x1="301.84" y1="235.08" x2="301.65" y2="234.96"/><line class="cls-2" x1="301.65" y1="234.96" x2="301.43" y2="234.89"/><line class="cls-2" x1="301.43" y1="234.89" x2="301.24" y2="234.81"/><line class="cls-2" x1="301.24" y1="234.81" x2="301.01" y2="234.74"/><line class="cls-2" x1="301.01" y1="234.74" x2="300.78" y2="234.7"/><line class="cls-2" x1="300.78" y1="234.7" x2="300.56" y2="234.7"/><line class="cls-2" x1="300.56" y1="234.7" x2="300.33" y2="234.7"/><line class="cls-2" x1="300.33" y1="234.7" x2="300.1" y2="234.74"/><line class="cls-2" x1="300.1" y1="234.74" x2="299.88" y2="234.81"/><line class="cls-2" x1="299.88" y1="234.81" x2="299.65" y2="234.89"/><line class="cls-2" x1="299.65" y1="234.89" x2="299.42" y2="235"/><line class="cls-2" x1="299.42" y1="235" x2="299.24" y2="235.11"/><line class="cls-2" x1="299.24" y1="235.11" x2="299.05" y2="235.27"/><line class="cls-2" x1="299.05" y1="235.27" x2="298.86" y2="235.42"/><line class="cls-2" x1="298.86" y1="235.42" x2="298.71" y2="235.61"/><line class="cls-2" x1="298.71" y1="235.61" x2="298.52" y2="235.87"/><line class="cls-2" x1="298.52" y1="235.87" x2="298.33" y2="236.17"/><line class="cls-2" x1="298.33" y1="236.17" x2="298.1" y2="236.55"/><line class="cls-2" x1="298.1" y1="236.55" x2="297.95" y2="236.97"/><line class="cls-2" x1="297.95" y1="236.97" x2="297.8" y2="237.42"/><line class="cls-2" x1="297.8" y1="237.42" x2="297.72" y2="237.87"/><line class="cls-2" x1="297.72" y1="237.87" x2="297.69" y2="238.33"/><line class="cls-2" x1="297.69" y1="238.33" x2="297.69" y2="238.78"/><line class="cls-2" x1="297.69" y1="238.78" x2="297.72" y2="239.2"/><line class="cls-2" x1="297.72" y1="239.2" x2="297.8" y2="239.65"/><line class="cls-2" x1="297.8" y1="239.65" x2="297.95" y2="240.1"/><line class="cls-2" x1="297.95" y1="240.1" x2="298.1" y2="240.52"/><line class="cls-2" x1="298.1" y1="240.52" x2="298.29" y2="240.86"/><line class="cls-2" x1="298.29" y1="240.86" x2="298.48" y2="241.16"/><line class="cls-2" x1="298.48" y1="241.16" x2="298.71" y2="241.46"/><path class="cls-2" d="M297.31,239.2a.4.4,0,0,0-.38.39.4.4,0,0,0,.4.4.39.39,0,0,0,.39-.4.38.38,0,0,0-.39-.39Z"/><line class="cls-2" x1="297.04" y1="238.86" x2="299.2" y2="238.86"/><line class="cls-2" x1="299.2" y1="238.86" x2="299.2" y2="238.18"/><line class="cls-2" x1="299.2" y1="238.18" x2="297.04" y2="238.18"/><line class="cls-2" x1="297.04" y1="238.18" x2="297.04" y2="238.86"/><path class="cls-2" d="M297.35,237.12h0a.38.38,0,1,0,0,.75.38.38,0,1,0,0-.75Z"/><polygon class="cls-3" points="296.89 251.33 296.67 251.1 296.7 251.1 296.74 251.1 296.78 251.1 296.78 251.14 296.82 251.14 296.85 251.18 296.89 251.22 296.89 251.25 296.89 251.29 296.89 251.33"/><polygon class="cls-3" points="296.67 256.24 296.89 255.98 296.89 256.02 296.89 256.06 296.89 256.09 296.89 256.13 296.85 256.13 296.85 256.17 296.82 256.17 296.78 256.21 296.74 256.21 296.7 256.24 296.67 256.24"/><polygon class="cls-3" points="296.36 256.24 296.36 251.1 296.67 251.1 296.89 251.33 296.89 255.98 296.67 256.24 296.36 256.24"/><line class="cls-2" x1="296.36" y1="251.1" x2="296.66" y2="251.1"/><line class="cls-2" x1="296.66" y1="251.1" x2="296.7" y2="251.1"/><line class="cls-2" x1="296.7" y1="251.1" x2="296.74" y2="251.1"/><line class="cls-2" x1="296.74" y1="251.1" x2="296.78" y2="251.1"/><line class="cls-2" x1="296.78" y1="251.1" x2="296.78" y2="251.14"/><line class="cls-2" x1="296.78" y1="251.14" x2="296.82" y2="251.14"/><line class="cls-2" x1="296.82" y1="251.14" x2="296.85" y2="251.18"/><line class="cls-2" x1="296.85" y1="251.18" x2="296.89" y2="251.22"/><line class="cls-2" x1="296.89" y1="251.22" x2="296.89" y2="251.25"/><line class="cls-2" x1="296.89" y1="251.25" x2="296.89" y2="251.29"/><line class="cls-2" x1="296.89" y1="251.29" x2="296.89" y2="251.33"/><line class="cls-2" x1="296.89" y1="251.33" x2="296.89" y2="255.98"/><line class="cls-2" x1="296.89" y1="255.98" x2="296.89" y2="256.02"/><line class="cls-2" x1="296.89" y1="256.02" x2="296.89" y2="256.05"/><line class="cls-2" x1="296.89" y1="256.05" x2="296.89" y2="256.09"/><line class="cls-2" x1="296.89" y1="256.09" x2="296.85" y2="256.13"/><line class="cls-2" x1="296.85" y1="256.13" x2="296.85" y2="256.17"/><line class="cls-2" x1="296.85" y1="256.17" x2="296.82" y2="256.17"/><line class="cls-2" x1="296.82" y1="256.17" x2="296.82" y2="256.21"/><line class="cls-2" x1="296.82" y1="256.21" x2="296.78" y2="256.21"/><line class="cls-2" x1="296.78" y1="256.21" x2="296.74" y2="256.21"/><line class="cls-2" x1="296.74" y1="256.21" x2="296.7" y2="256.24"/><line class="cls-2" x1="296.7" y1="256.24" x2="296.66" y2="256.24"/><line class="cls-2" x1="296.66" y1="256.24" x2="296.36" y2="256.24"/><line class="cls-2" x1="296.36" y1="256.24" x2="296.36" y2="251.1"/><line class="cls-2" x1="297.04" y1="249.14" x2="297.04" y2="258.17"/><line class="cls-2" x1="297.04" y1="258.17" x2="301.81" y2="258.17"/><line class="cls-2" x1="301.81" y1="258.17" x2="302.26" y2="257.72"/><line class="cls-2" x1="302.26" y1="257.72" x2="302.26" y2="249.63"/><line class="cls-2" x1="302.26" y1="249.63" x2="301.77" y2="249.14"/><line class="cls-2" x1="301.77" y1="249.14" x2="297.04" y2="249.14"/><line class="cls-2" x1="297.04" y1="249.14" x2="297" y2="249.14"/><line class="cls-2" x1="297" y1="249.14" x2="301.81" y2="249.14"/><line class="cls-2" x1="301.81" y1="249.14" x2="302.26" y2="249.59"/><line class="cls-2" x1="302.26" y1="249.59" x2="302.26" y2="257.72"/><line class="cls-2" x1="302.26" y1="257.72" x2="301.81" y2="258.21"/><line class="cls-2" x1="301.81" y1="258.21" x2="297" y2="258.21"/><line class="cls-2" x1="297" y1="258.21" x2="297" y2="249.14"/><line class="cls-2" x1="297" y1="258.21" x2="297.04" y2="258.17"/><line class="cls-2" x1="302.26" y1="256.81" x2="302.6" y2="256.81"/><line class="cls-2" x1="302.6" y1="256.81" x2="302.56" y2="257.94"/><line class="cls-2" x1="302.56" y1="257.94" x2="302.11" y2="257.94"/><line class="cls-2" x1="302.11" y1="257.94" x2="302.11" y2="257.87"/><line class="cls-2" x1="302.71" y1="250.31" x2="302.26" y2="250.35"/><line class="cls-2" x1="302.26" y1="250.35" x2="303.17" y2="250.16"/><line class="cls-2" x1="303.17" y1="250.16" x2="304.83" y2="250.27"/><line class="cls-2" x1="304.83" y1="250.27" x2="302.71" y2="250.31"/><line class="cls-2" x1="308.46" y1="256.62" x2="308.31" y2="256.66"/><line class="cls-2" x1="308.31" y1="256.66" x2="307.4" y2="256.85"/><line class="cls-2" x1="308.84" y1="256.47" x2="309.21" y2="256.36"/><line class="cls-2" x1="309.21" y1="256.36" x2="310.08" y2="255.98"/><line class="cls-2" x1="310.08" y1="255.98" x2="310.76" y2="255.6"/><line class="cls-2" x1="310.76" y1="255.6" x2="310.84" y2="255.53"/><line class="cls-2" x1="310.84" y1="255.53" x2="310.88" y2="255.49"/><line class="cls-2" x1="308.84" y1="250.84" x2="309.21" y2="250.95"/><line class="cls-2" x1="309.21" y1="250.95" x2="310.08" y2="251.33"/><line class="cls-2" x1="310.08" y1="251.33" x2="310.16" y2="251.37"/><line class="cls-2" x1="310.16" y1="251.37" x2="310.27" y2="251.41"/><line class="cls-2" x1="310.27" y1="251.41" x2="310.42" y2="251.52"/><line class="cls-2" x1="310.42" y1="251.52" x2="310.76" y2="251.75"/><line class="cls-2" x1="310.76" y1="251.75" x2="310.88" y2="251.86"/><line class="cls-2" x1="307.4" y1="250.46" x2="308.31" y2="250.69"/><line class="cls-2" x1="308.31" y1="250.69" x2="308.46" y2="250.73"/><line class="cls-2" x1="302.71" y1="257.04" x2="304.83" y2="257.08"/><line class="cls-2" x1="304.83" y1="257.08" x2="302.71" y2="257.04"/><line class="cls-2" x1="302.71" y1="257.04" x2="302.6" y2="257"/><line class="cls-2" x1="310.91" y1="255.45" x2="310.88" y2="255.49"/><line class="cls-2" x1="310.88" y1="255.49" x2="310.91" y2="255.45"/><line class="cls-2" x1="306.61" y1="250.27" x2="307.44" y2="250.35"/><line class="cls-2" x1="307.44" y1="250.35" x2="308.34" y2="250.54"/><line class="cls-2" x1="308.34" y1="250.54" x2="309.25" y2="250.84"/><line class="cls-2" x1="309.25" y1="250.84" x2="310.12" y2="251.22"/><line class="cls-2" x1="310.12" y1="251.22" x2="310.84" y2="251.63"/><line class="cls-2" x1="310.84" y1="251.63" x2="310.91" y2="251.71"/><line class="cls-2" x1="310.91" y1="251.71" x2="310.95" y2="251.75"/><line class="cls-2" x1="310.95" y1="251.75" x2="310.99" y2="251.75"/><line class="cls-2" x1="310.99" y1="251.75" x2="310.99" y2="251.78"/><line class="cls-2" x1="310.99" y1="251.78" x2="311.6" y2="252.65"/><line class="cls-2" x1="311.6" y1="252.65" x2="311.78" y2="253.67"/><line class="cls-2" x1="311.78" y1="253.67" x2="311.6" y2="254.69"/><line class="cls-2" x1="311.6" y1="254.69" x2="310.99" y2="255.56"/><line class="cls-2" x1="310.99" y1="255.56" x2="310.84" y2="255.68"/><line class="cls-2" x1="310.84" y1="255.68" x2="310.5" y2="255.94"/><line class="cls-2" x1="310.5" y1="255.94" x2="310.31" y2="256.02"/><line class="cls-2" x1="310.31" y1="256.02" x2="310.23" y2="256.05"/><line class="cls-2" x1="310.23" y1="256.05" x2="310.12" y2="256.09"/><line class="cls-2" x1="310.12" y1="256.09" x2="309.25" y2="256.47"/><line class="cls-2" x1="309.25" y1="256.47" x2="308.34" y2="256.77"/><line class="cls-2" x1="308.34" y1="256.77" x2="307.44" y2="256.96"/><line class="cls-2" x1="307.44" y1="256.96" x2="306.61" y2="257.04"/><line class="cls-2" x1="304.83" y1="250.27" x2="303.66" y2="250.76"/><line class="cls-2" x1="303.66" y1="250.76" x2="302.67" y2="251.63"/><line class="cls-2" x1="302.67" y1="251.63" x2="302.67" y2="255.71"/><line class="cls-2" x1="302.67" y1="255.71" x2="303.66" y2="256.55"/><line class="cls-2" x1="303.66" y1="256.55" x2="304.83" y2="257.08"/><line class="cls-2" x1="305.7" y1="257.15" x2="305.06" y2="257.19"/><line class="cls-2" x1="305.06" y1="257.19" x2="302.71" y2="257.15"/><line class="cls-2" x1="302.71" y1="257.15" x2="302.6" y2="257.15"/><line class="cls-2" x1="296.93" y1="254.54" x2="296.93" y2="255.98"/><line class="cls-2" x1="296.93" y1="255.98" x2="296.89" y2="256.13"/><line class="cls-2" x1="296.89" y1="256.13" x2="296.82" y2="256.21"/><line class="cls-2" x1="296.82" y1="256.21" x2="296.66" y2="256.24"/><line class="cls-2" x1="296.66" y1="256.24" x2="296.36" y2="256.24"/><line class="cls-2" x1="296.36" y1="256.24" x2="296.36" y2="251.1"/><line class="cls-2" x1="296.36" y1="251.1" x2="296.66" y2="251.1"/><line class="cls-2" x1="296.66" y1="251.1" x2="296.82" y2="251.14"/><line class="cls-2" x1="296.82" y1="251.14" x2="296.89" y2="251.22"/><line class="cls-2" x1="296.89" y1="251.22" x2="296.93" y2="251.33"/><line class="cls-2" x1="296.93" y1="251.33" x2="296.93" y2="252.65"/><line class="cls-2" x1="297" y1="254.54" x2="296.89" y2="254.54"/><line class="cls-2" x1="296.89" y1="254.54" x2="296.89" y2="252.65"/><line class="cls-2" x1="296.89" y1="252.65" x2="297" y2="252.65"/><line class="cls-2" x1="297" y1="254.96" x2="296.97" y2="254.92"/><line class="cls-2" x1="296.97" y1="254.92" x2="296.93" y2="254.85"/><line class="cls-2" x1="296.93" y1="252.35" x2="296.97" y2="252.28"/><line class="cls-2" x1="296.97" y1="252.28" x2="297" y2="252.2"/><line class="cls-2" x1="297" y1="255.11" x2="296.93" y2="255.11"/><line class="cls-2" x1="296.93" y1="252.05" x2="297" y2="252.05"/><rect class="cls-1" x="302.26" y="250.12" width="2.95" height="6.99"/><line class="cls-2" x1="302.26" y1="250.12" x2="305.21" y2="250.12"/><line class="cls-2" x1="305.21" y1="250.12" x2="305.21" y2="257.11"/><line class="cls-2" x1="305.21" y1="257.11" x2="302.26" y2="257.11"/><line class="cls-2" x1="302.26" y1="257.11" x2="302.26" y2="250.12"/><rect class="cls-1" x="302.11" y="256.81" width="0.49" height="1.13"/><line class="cls-2" x1="302.11" y1="256.81" x2="302.6" y2="256.81"/><line class="cls-2" x1="302.6" y1="256.81" x2="302.6" y2="257.94"/><line class="cls-2" x1="302.6" y1="257.94" x2="302.11" y2="257.94"/><line class="cls-2" x1="302.11" y1="257.94" x2="302.11" y2="256.81"/><polygon class="cls-3" points="297 258.17 297 249.14 301.77 249.14 302.26 249.63 302.26 257.72 301.77 258.17 297 258.17"/><line class="cls-2" x1="297" y1="249.14" x2="301.77" y2="249.14"/><line class="cls-2" x1="301.77" y1="249.14" x2="302.26" y2="249.63"/><line class="cls-2" x1="302.26" y1="249.63" x2="302.26" y2="257.72"/><line class="cls-2" x1="302.26" y1="257.72" x2="301.77" y2="258.17"/><line class="cls-2" x1="301.77" y1="258.17" x2="297" y2="258.17"/><line class="cls-2" x1="297" y1="258.17" x2="297" y2="249.14"/><line class="cls-2" x1="302.6" y1="256.81" x2="302.26" y2="256.77"/><line class="cls-2" x1="302.26" y1="256.77" x2="302.26" y2="250.23"/><line class="cls-2" x1="302.26" y1="250.23" x2="302.71" y2="250.16"/><line class="cls-2" x1="302.71" y1="250.16" x2="305.06" y2="250.12"/><line class="cls-2" x1="305.06" y1="250.12" x2="305.7" y2="250.2"/><polygon class="cls-3" points="307.4 256.85 309.82 256.09 308.65 256.58 307.4 256.85"/><polygon class="cls-3" points="309.82 256.09 307.4 256.85 306.15 257.19 304.83 257.07 303.66 256.55 302.68 255.72 302.68 251.63 303.66 250.76 304.83 250.27 306.15 250.16 307.4 250.46 309.82 251.22 310.88 251.86 311.37 252.35 311.63 252.99 311.63 253.67 311.63 254.35 311.37 255 310.88 255.49 309.82 256.09"/><polygon class="cls-3" points="311.63 254.35 311.63 253.67 311.67 253.75 311.67 253.79 311.67 253.94 311.67 254.2 311.63 254.35"/><polygon class="cls-3" points="309.82 251.22 307.4 250.46 308.65 250.76 309.82 251.22"/><line class="cls-2" x1="311.37" y1="255" x2="310.88" y2="255.49"/><line class="cls-2" x1="310.88" y1="255.49" x2="309.82" y2="256.09"/><line class="cls-2" x1="309.82" y1="256.09" x2="308.65" y2="256.58"/><line class="cls-2" x1="308.65" y1="256.58" x2="307.4" y2="256.85"/><line class="cls-2" x1="307.4" y1="256.85" x2="306.15" y2="257.19"/><line class="cls-2" x1="306.15" y1="257.19" x2="304.83" y2="257.08"/><line class="cls-2" x1="304.83" y1="257.08" x2="303.66" y2="256.55"/><line class="cls-2" x1="303.66" y1="256.55" x2="302.67" y2="255.71"/><line class="cls-2" x1="302.67" y1="255.71" x2="302.67" y2="251.63"/><line class="cls-2" x1="302.67" y1="251.63" x2="303.66" y2="250.76"/><line class="cls-2" x1="303.66" y1="250.76" x2="304.83" y2="250.27"/><line class="cls-2" x1="304.83" y1="250.27" x2="306.15" y2="250.16"/><line class="cls-2" x1="306.15" y1="250.16" x2="307.4" y2="250.46"/><line class="cls-2" x1="307.4" y1="250.46" x2="308.65" y2="250.76"/><line class="cls-2" x1="308.65" y1="250.76" x2="309.82" y2="251.22"/><line class="cls-2" x1="309.82" y1="251.22" x2="310.88" y2="251.86"/><line class="cls-2" x1="310.88" y1="251.86" x2="311.37" y2="252.35"/><line class="cls-2" x1="311.37" y1="252.35" x2="311.63" y2="252.99"/><line class="cls-2" x1="311.63" y1="252.99" x2="311.63" y2="253.67"/><line class="cls-2" x1="311.63" y1="253.67" x2="311.67" y2="253.75"/><line class="cls-2" x1="311.67" y1="253.75" x2="311.67" y2="253.79"/><line class="cls-2" x1="311.67" y1="253.79" x2="311.67" y2="253.94"/><line class="cls-2" x1="311.67" y1="253.94" x2="311.67" y2="254.2"/><line class="cls-2" x1="311.67" y1="254.2" x2="311.63" y2="254.35"/><line class="cls-2" x1="311.63" y1="254.35" x2="311.37" y2="255"/><line class="cls-2" x1="369.12" y1="233.11" x2="369.12" y2="217.99"/><line class="cls-2" x1="369.12" y1="233.11" x2="369.12" y2="217.99"/><line class="cls-2" x1="369.12" y1="211.83" x2="369.12" y2="221.66"/><line class="cls-2" x1="369.12" y1="224.38" x2="369.12" y2="229.82"/><line class="cls-2" x1="369.12" y1="232.54" x2="369.12" y2="239.23"/><line class="cls-2" x1="369.12" y1="161.81" x2="369.12" y2="168.18"/><line class="cls-2" x1="369.12" y1="277.75" x2="370.52" y2="277.75"/><line class="cls-2" x1="369.12" y1="276.09" x2="369.12" y2="277.75"/><line class="cls-2" x1="369.12" y1="272.08" x2="369.12" y2="273.52"/><line class="cls-2" x1="369.12" y1="277.75" x2="370.52" y2="277.75"/><line class="cls-2" x1="369.12" y1="266.9" x2="369.12" y2="273.37"/><line class="cls-2" x1="369.12" y1="276.09" x2="369.12" y2="278.02"/><line class="cls-2" x1="369.12" y1="278.02" x2="370.52" y2="278.02"/><line class="cls-2" x1="368.63" y1="162.1" x2="368.63" y2="167.16"/><line class="cls-2" x1="368.63" y1="180.84" x2="368.63" y2="186.28"/><line class="cls-2" x1="368.63" y1="189" x2="368.63" y2="199.89"/><line class="cls-2" x1="368.63" y1="202.61" x2="368.63" y2="208.05"/><line class="cls-2" x1="368.63" y1="210.77" x2="368.63" y2="221.66"/><line class="cls-2" x1="368.63" y1="224.38" x2="368.63" y2="229.82"/><line class="cls-2" x1="368.63" y1="232.54" x2="368.63" y2="243.43"/><line class="cls-2" x1="368.63" y1="246.15" x2="368.63" y2="251.59"/><line class="cls-2" x1="368.63" y1="254.32" x2="368.63" y2="265.2"/><line class="cls-2" x1="368.63" y1="267.92" x2="368.63" y2="273.37"/><line class="cls-2" x1="368.63" y1="276.09" x2="368.63" y2="278.02"/><rect class="cls-1" x="293.07" y="260.97" width="0.23" height="25.78"/><line class="cls-2" x1="293.07" y1="262.25" x2="293.3" y2="262.48"/><line class="cls-2" x1="293.07" y1="264.9" x2="293.3" y2="265.16"/><line class="cls-2" x1="293.07" y1="267.58" x2="293.3" y2="267.81"/><line class="cls-2" x1="293.07" y1="270.27" x2="293.3" y2="270.49"/><line class="cls-2" x1="293.07" y1="272.91" x2="293.3" y2="273.18"/><line class="cls-2" x1="293.07" y1="275.6" x2="293.3" y2="275.82"/><line class="cls-2" x1="293.07" y1="278.28" x2="293.3" y2="278.51"/><line class="cls-2" x1="293.07" y1="280.96" x2="293.3" y2="281.19"/><line class="cls-2" x1="293.07" y1="283.61" x2="293.3" y2="283.87"/><line class="cls-2" x1="293.07" y1="286.29" x2="293.3" y2="286.52"/><rect class="cls-1" x="293.07" y="216.33" width="0.23" height="30.01"/><line class="cls-2" x1="293.07" y1="219.47" x2="293.3" y2="219.73"/><line class="cls-2" x1="293.07" y1="222.15" x2="293.3" y2="222.38"/><line class="cls-2" x1="293.07" y1="224.83" x2="293.3" y2="225.06"/><line class="cls-2" x1="293.07" y1="227.48" x2="293.3" y2="227.74"/><line class="cls-2" x1="293.07" y1="230.16" x2="293.3" y2="230.39"/><line class="cls-2" x1="293.07" y1="232.85" x2="293.3" y2="233.07"/><line class="cls-2" x1="293.07" y1="235.53" x2="293.3" y2="235.76"/><line class="cls-2" x1="293.07" y1="238.18" x2="293.3" y2="238.4"/><line class="cls-2" x1="293.07" y1="240.86" x2="293.3" y2="241.09"/><line class="cls-2" x1="293.07" y1="243.54" x2="293.3" y2="243.77"/><polygon class="cls-3" points="293.07 216.33 293.07 158.71 293.3 159.52 293.3 216.33 293.07 216.33"/><line class="cls-2" x1="293.07" y1="174.03" x2="293.3" y2="174.26"/><line class="cls-2" x1="293.07" y1="176.72" x2="293.3" y2="176.94"/><line class="cls-2" x1="293.07" y1="179.4" x2="293.3" y2="179.63"/><line class="cls-2" x1="293.07" y1="182.05" x2="293.3" y2="182.31"/><rect class="cls-4" x="293.53" y="259.34" width="2.61" height="27.4"/><rect class="cls-4" x="293.53" y="216.33" width="2.61" height="43.01"/><rect class="cls-4" x="293.53" y="159.16" width="2.61" height="57.17"/><rect class="cls-4" x="367.23" y="161.51" width="1.66" height="105.1"/><rect class="cls-4" x="296.14" y="261.23" width="6.61" height="1.63"/><rect class="cls-1" x="302.75" y="261.57" width="21.73" height="0.23"/><rect class="cls-4" x="296.14" y="277.98" width="48.87" height="1.66"/><rect class="cls-4" x="324.48" y="249.78" width="1.63" height="28.2"/><rect class="cls-4" x="324.48" y="229.56" width="1.63" height="3.44"/><rect class="cls-4" x="296.14" y="229.56" width="28.35" height="1.66"/><rect class="cls-4" x="346.67" y="265.01" width="2" height="1.63"/><rect class="cls-4" x="365.46" y="265.01" width="1.78" height="1.63"/><rect class="cls-4" x="326.11" y="251.78" width="1.78" height="1.63"/><rect class="cls-4" x="341.83" y="251.78" width="3.18" height="1.63"/><rect class="cls-4" x="345.01" y="251.78" width="1.66" height="27.86"/><line class="cls-2" x1="293.07" y1="260.97" x2="293.07" y2="279.79"/><line class="cls-2" x1="293.07" y1="216.33" x2="293.07" y2="261.49"/><line class="cls-2" x1="293.07" y1="158.71" x2="293.07" y2="216.33"/><line class="cls-2" x1="293.07" y1="260.97" x2="293.3" y2="260.97"/><line class="cls-2" x1="293.3" y1="260.97" x2="293.3" y2="279.79"/><line class="cls-2" x1="293.3" y1="216.33" x2="293.3" y2="246.34"/><line class="cls-2" x1="293.3" y1="159.52" x2="293.3" y2="216.33"/><line class="cls-2" x1="293.3" y1="259.34" x2="293.3" y2="279.79"/><line class="cls-2" x1="293.3" y1="216.33" x2="293.3" y2="259.34"/><line class="cls-2" x1="293.3" y1="158.94" x2="293.3" y2="216.33"/><line class="cls-2" x1="293.53" y1="259.34" x2="293.53" y2="279.79"/><line class="cls-2" x1="293.53" y1="216.33" x2="293.53" y2="259.34"/><line class="cls-2" x1="293.53" y1="159.27" x2="293.53" y2="216.33"/><line class="cls-2" x1="296.14" y1="279.79" x2="296.14" y2="279.64"/><line class="cls-2" x1="296.14" y1="277.98" x2="296.14" y2="262.86"/><line class="cls-2" x1="296.14" y1="261.08" x2="296.14" y2="236.55"/><line class="cls-2" x1="296.14" y1="229.56" x2="296.14" y2="216.33"/><line class="cls-2" x1="296.14" y1="216.33" x2="296.14" y2="161.6"/><line class="cls-2" x1="296.36" y1="277.75" x2="296.36" y2="263.12"/><line class="cls-2" x1="296.36" y1="261.08" x2="296.36" y2="236.88"/><line class="cls-2" x1="296.36" y1="229.33" x2="296.36" y2="216.33"/><line class="cls-2" x1="296.36" y1="216.33" x2="296.36" y2="162"/><line class="cls-2" x1="293.3" y1="260.97" x2="292.96" y2="260.97"/><line class="cls-2" x1="369.12" y1="266.9" x2="369.12" y2="161.81"/><line class="cls-2" x1="368.9" y1="266.61" x2="368.9" y2="161.51"/><line class="cls-2" x1="367.23" y1="266.64" x2="368.9" y2="266.64"/><line class="cls-2" x1="367.23" y1="161.51" x2="367.23" y2="264.78"/><line class="cls-2" x1="367.01" y1="161.81" x2="367.01" y2="264.48"/><line class="cls-2" x1="302.75" y1="260.97" x2="296.36" y2="260.97"/><line class="cls-2" x1="302.75" y1="261.57" x2="302.75" y2="260.97"/><line class="cls-2" x1="302.75" y1="263.12" x2="302.75" y2="261.8"/><line class="cls-2" x1="302.75" y1="261.23" x2="296.14" y2="261.23"/><line class="cls-2" x1="302.75" y1="262.86" x2="302.75" y2="261.23"/><line class="cls-2" x1="296.14" y1="262.86" x2="302.75" y2="262.86"/><line class="cls-2" x1="296.36" y1="263.12" x2="302.75" y2="263.12"/><line class="cls-2" x1="324.48" y1="261.57" x2="302.75" y2="261.57"/><line class="cls-2" x1="302.75" y1="261.57" x2="302.75" y2="261.8"/><line class="cls-2" x1="324.48" y1="261.8" x2="324.48" y2="261.57"/><line class="cls-2" x1="302.75" y1="261.8" x2="324.48" y2="261.8"/><line class="cls-2" x1="350.68" y1="277.79" x2="346.9" y2="277.79"/><line class="cls-2" x1="296.14" y1="279.64" x2="345.01" y2="279.64"/><line class="cls-2" x1="345.01" y1="277.98" x2="326.11" y2="277.98"/><line class="cls-2" x1="324.48" y1="277.98" x2="296.14" y2="277.98"/><line class="cls-2" x1="344.78" y1="277.75" x2="326.37" y2="277.75"/><line class="cls-2" x1="324.22" y1="277.75" x2="296.36" y2="277.75"/><line class="cls-2" x1="369.12" y1="266.9" x2="369.12" y2="273.37"/><line class="cls-2" x1="369.12" y1="276.09" x2="369.12" y2="277.75"/><line class="cls-2" x1="367.01" y1="266.9" x2="367.01" y2="273.37"/><line class="cls-2" x1="367.01" y1="276.09" x2="367.01" y2="279.79"/><rect class="cls-1" x="316.21" y="157.84" width="30.35" height="5.02"/><line class="cls-2" x1="372.22" y1="157.16" x2="372.22" y2="157.12"/><line class="cls-2" x1="372.22" y1="157.12" x2="372.19" y2="157.08"/><line class="cls-2" x1="372.19" y1="157.08" x2="372.15" y2="157.08"/><line class="cls-2" x1="372.15" y1="157.08" x2="372.15" y2="157.05"/><line class="cls-2" x1="372.15" y1="157.05" x2="372.11" y2="157.05"/><line class="cls-2" x1="372.11" y1="157.05" x2="372.15" y2="157.05"/><line class="cls-2" x1="371.92" y1="157.39" x2="371.88" y2="157.35"/><line class="cls-2" x1="371.88" y1="157.35" x2="371.85" y2="157.35"/><line class="cls-2" x1="371.85" y1="157.35" x2="371.77" y2="157.39"/><line class="cls-2" x1="371.77" y1="157.39" x2="371.73" y2="157.46"/><line class="cls-2" x1="371.73" y1="157.46" x2="371.73" y2="157.54"/><line class="cls-2" x1="371.73" y1="157.54" x2="371.73" y2="157.57"/><line class="cls-2" x1="371.73" y1="157.57" x2="371.77" y2="157.57"/><line class="cls-2" x1="371.77" y1="157.57" x2="371.77" y2="157.61"/><line class="cls-2" x1="371.77" y1="157.61" x2="371.81" y2="157.61"/><line class="cls-2" x1="371.81" y1="157.61" x2="371.81" y2="157.65"/><line class="cls-2" x1="371.81" y1="157.65" x2="371.62" y2="157.91"/><line class="cls-2" x1="371.62" y1="157.91" x2="371.58" y2="157.95"/><line class="cls-2" x1="371.58" y1="157.95" x2="371.54" y2="157.91"/><line class="cls-2" x1="371.54" y1="157.91" x2="371.5" y2="157.88"/><line class="cls-2" x1="371.5" y1="157.88" x2="371.47" y2="157.88"/><line class="cls-2" x1="372.15" y1="157.05" x2="372.15" y2="157.08"/><line class="cls-2" x1="372.15" y1="157.08" x2="372.19" y2="157.08"/><line class="cls-2" x1="372.19" y1="157.08" x2="372.22" y2="157.12"/><line class="cls-2" x1="372.22" y1="157.12" x2="372.15" y2="157.08"/><line class="cls-2" x1="372.15" y1="157.08" x2="372.15" y2="157.05"/><line class="cls-2" x1="372.15" y1="157.05" x2="372.11" y2="157.05"/><line class="cls-2" x1="372.11" y1="157.05" x2="372.07" y2="157.08"/><line class="cls-2" x1="372.07" y1="157.08" x2="371.88" y2="157.35"/><line class="cls-2" x1="371.88" y1="157.35" x2="371.92" y2="157.39"/><line class="cls-2" x1="371.92" y1="157.39" x2="371.96" y2="157.39"/><line class="cls-2" x1="371.96" y1="157.39" x2="371.96" y2="157.42"/><line class="cls-2" x1="371.96" y1="157.42" x2="372" y2="157.42"/><line class="cls-2" x1="371.5" y1="157.91" x2="371.5" y2="157.88"/><line class="cls-2" x1="371.5" y1="157.88" x2="371.5" y2="157.91"/><line class="cls-2" x1="371.5" y1="157.91" x2="371.54" y2="157.91"/><line class="cls-2" x1="371.54" y1="157.91" x2="371.54" y2="157.95"/><line class="cls-2" x1="371.54" y1="157.95" x2="371.58" y2="157.95"/><line class="cls-2" x1="371.73" y1="157.57" x2="371.5" y2="157.84"/><line class="cls-2" x1="371.5" y1="157.84" x2="371.47" y2="157.88"/><line class="cls-2" x1="371.47" y1="157.88" x2="371.5" y2="157.88"/><line class="cls-2" x1="372.22" y1="157.12" x2="372.26" y2="157.16"/><line class="cls-2" x1="372.26" y1="157.16" x2="372.22" y2="157.16"/><line class="cls-2" x1="372.22" y1="157.16" x2="372.26" y2="157.16"/><line class="cls-2" x1="372.26" y1="157.16" x2="372.22" y2="157.2"/><line class="cls-2" x1="372.22" y1="157.2" x2="372" y2="157.42"/><line class="cls-2" x1="372" y1="157.42" x2="372" y2="157.46"/><line class="cls-2" x1="372" y1="157.46" x2="372" y2="157.57"/><line class="cls-2" x1="372" y1="157.57" x2="371.96" y2="157.61"/><line class="cls-2" x1="371.96" y1="157.61" x2="371.88" y2="157.65"/><line class="cls-2" x1="371.88" y1="157.65" x2="371.81" y2="157.65"/><line class="cls-2" x1="372" y1="157.54" x2="372" y2="157.5"/><line class="cls-2" x1="372" y1="157.57" x2="371.96" y2="157.65"/><line class="cls-2" x1="371.96" y1="157.65" x2="371.88" y2="157.65"/><line class="cls-2" x1="371.88" y1="157.65" x2="371.85" y2="157.65"/><line class="cls-2" x1="371.77" y1="157.39" x2="371.81" y2="157.35"/><line class="cls-2" x1="371.81" y1="157.35" x2="371.88" y2="157.35"/><line class="cls-2" x1="371.88" y1="157.35" x2="371.92" y2="157.35"/><line class="cls-2" x1="371.66" y1="158.07" x2="371.66" y2="158.71"/><line class="cls-2" x1="371.66" y1="158.71" x2="372.07" y2="158.71"/><line class="cls-2" x1="372.07" y1="158.71" x2="372.07" y2="158.07"/><line class="cls-2" x1="372.07" y1="158.07" x2="371.66" y2="158.07"/><line class="cls-2" x1="371.66" y1="158.07" x2="371.54" y2="158.07"/><line class="cls-2" x1="372.19" y1="157.99" x2="372.19" y2="158.07"/><line class="cls-2" x1="371.58" y1="157.95" x2="371.54" y2="157.95"/><line class="cls-2" x1="371.54" y1="157.95" x2="371.54" y2="157.99"/><line class="cls-2" x1="372.19" y1="157.99" x2="372.19" y2="157.95"/><line class="cls-2" x1="372.19" y1="157.95" x2="372.19" y2="157.99"/><line class="cls-2" x1="372.07" y1="158.07" x2="372.19" y2="158.07"/><line class="cls-2" x1="372.19" y1="158.07" x2="371.54" y2="158.07"/><line class="cls-2" x1="371.54" y1="158.07" x2="371.54" y2="157.99"/><line class="cls-2" x1="372.15" y1="157.27" x2="372.19" y2="157.39"/><line class="cls-2" x1="372.19" y1="157.39" x2="372.19" y2="157.5"/><line class="cls-2" x1="372.19" y1="157.5" x2="372.19" y2="157.61"/><line class="cls-2" x1="372.19" y1="157.61" x2="372.15" y2="157.73"/><line class="cls-2" x1="372.15" y1="157.73" x2="372.11" y2="157.76"/><line class="cls-2" x1="372.11" y1="157.76" x2="372.07" y2="157.8"/><line class="cls-2" x1="372.07" y1="157.8" x2="372.07" y2="157.84"/><line class="cls-2" x1="372.07" y1="157.84" x2="372.07" y2="157.88"/><line class="cls-2" x1="372.07" y1="157.88" x2="372.11" y2="157.91"/><line class="cls-2" x1="372.11" y1="157.91" x2="372.15" y2="157.91"/><line class="cls-2" x1="372.15" y1="157.91" x2="372.19" y2="157.95"/><line class="cls-2" x1="371.54" y1="157.95" x2="371.54" y2="157.99"/><line class="cls-2" x1="371.54" y1="157.99" x2="372.19" y2="157.99"/><line class="cls-2" x1="371.66" y1="157.88" x2="371.66" y2="157.91"/><line class="cls-2" x1="371.58" y1="157.73" x2="371.58" y2="157.61"/><line class="cls-2" x1="371.58" y1="157.61" x2="371.54" y2="157.5"/><line class="cls-2" x1="371.54" y1="157.5" x2="371.58" y2="157.39"/><line class="cls-2" x1="371.58" y1="157.39" x2="371.58" y2="157.27"/><line class="cls-2" x1="371.58" y1="157.27" x2="371.66" y2="157.16"/><line class="cls-2" x1="371.66" y1="157.16" x2="371.69" y2="157.05"/><line class="cls-2" x1="371.69" y1="157.05" x2="371.73" y2="156.93"/><line class="cls-2" x1="371.73" y1="156.93" x2="371.73" y2="156.78"/><line class="cls-2" x1="372" y1="156.78" x2="372" y2="156.93"/><line class="cls-2" x1="372" y1="156.93" x2="372.03" y2="157.05"/><line class="cls-2" x1="372.03" y1="157.05" x2="372.07" y2="157.12"/><line class="cls-2" x1="371.81" y1="156.63" x2="371.73" y2="156.67"/><line class="cls-2" x1="371.73" y1="156.67" x2="371.69" y2="156.78"/><line class="cls-2" x1="371.69" y1="156.78" x2="371.73" y2="156.82"/><line class="cls-2" x1="372" y1="156.86" x2="372.03" y2="156.86"/><line class="cls-2" x1="372.03" y1="156.86" x2="372.03" y2="156.78"/><line class="cls-2" x1="372.03" y1="156.78" x2="372.03" y2="156.67"/><line class="cls-2" x1="372.03" y1="156.67" x2="371.96" y2="156.59"/><line class="cls-2" x1="371.96" y1="156.59" x2="371.88" y2="156.59"/><line class="cls-2" x1="371.88" y1="156.59" x2="371.77" y2="156.59"/><line class="cls-2" x1="371.77" y1="156.59" x2="371.73" y2="156.67"/><line class="cls-2" x1="371.73" y1="156.67" x2="371.69" y2="156.78"/><line class="cls-2" x1="371.69" y1="156.78" x2="371.73" y2="156.86"/><line class="cls-2" x1="372" y1="156.67" x2="372.03" y2="156.78"/><line class="cls-2" x1="371.73" y1="156.86" x2="371.69" y2="156.78"/><line class="cls-2" x1="371.69" y1="156.78" x2="371.73" y2="156.67"/><line class="cls-2" x1="371.73" y1="156.67" x2="371.77" y2="156.59"/><line class="cls-2" x1="371.77" y1="156.59" x2="371.88" y2="156.59"/><line class="cls-2" x1="371.88" y1="156.59" x2="371.96" y2="156.59"/><line class="cls-2" x1="371.96" y1="156.59" x2="372.03" y2="156.67"/><line class="cls-2" x1="372.03" y1="156.67" x2="372.07" y2="156.78"/><line class="cls-2" x1="372.07" y1="156.78" x2="372.03" y2="156.86"/><line class="cls-2" x1="372.03" y1="156.86" x2="372" y2="156.86"/><line class="cls-2" x1="369.12" y1="162.26" x2="369.12" y2="162"/><line class="cls-2" x1="293.07" y1="159.99" x2="293.3" y2="160.26"/><polygon class="cls-3" points="293.07 158.71 316.21 158.71 316.21 158.94 293.3 158.94 293.07 158.71"/><line class="cls-2" x1="293.26" y1="158.86" x2="293.41" y2="158.71"/><line class="cls-2" x1="295.87" y1="158.94" x2="296.1" y2="158.71"/><line class="cls-2" x1="298.52" y1="158.94" x2="298.78" y2="158.71"/><line class="cls-2" x1="301.2" y1="158.94" x2="301.43" y2="158.71"/><line class="cls-2" x1="303.88" y1="158.94" x2="304.11" y2="158.71"/><line class="cls-2" x1="306.53" y1="158.94" x2="306.79" y2="158.71"/><line class="cls-2" x1="309.21" y1="158.94" x2="309.44" y2="158.71"/><line class="cls-2" x1="311.9" y1="158.94" x2="312.12" y2="158.71"/><line class="cls-2" x1="314.58" y1="158.94" x2="314.81" y2="158.71"/><line class="cls-2" x1="346.63" y1="158.94" x2="346.86" y2="158.71"/><line class="cls-2" x1="349.32" y1="158.94" x2="349.54" y2="158.71"/><line class="cls-2" x1="352" y1="158.94" x2="352.23" y2="158.71"/><line class="cls-2" x1="354.65" y1="158.94" x2="354.91" y2="158.71"/><line class="cls-2" x1="357.33" y1="158.94" x2="357.56" y2="158.71"/><line class="cls-2" x1="360.01" y1="158.94" x2="360.24" y2="158.71"/><line class="cls-2" x1="362.66" y1="158.94" x2="362.92" y2="158.71"/><line class="cls-2" x1="365.34" y1="158.94" x2="365.57" y2="158.71"/><line class="cls-2" x1="368.03" y1="158.94" x2="368.25" y2="158.71"/><line class="cls-2" x1="370.71" y1="158.94" x2="370.94" y2="158.71"/><rect class="cls-4" x="296.14" y="159.16" width="20.07" height="2.57"/><line class="cls-2" x1="296.14" y1="159.16" x2="293.53" y2="159.16"/><line class="cls-2" x1="316.21" y1="158.71" x2="293.07" y2="158.71"/><line class="cls-2" x1="316.21" y1="158.71" x2="316.21" y2="162"/><line class="cls-2" x1="346.44" y1="158.71" x2="346.44" y2="162"/><line class="cls-2" x1="316.21" y1="158.94" x2="293.3" y2="158.94"/><line class="cls-2" x1="316.21" y1="158.94" x2="293.3" y2="158.94"/><line class="cls-2" x1="316.21" y1="159.16" x2="296.14" y2="159.16"/><line class="cls-2" x1="316.21" y1="159.16" x2="316.21" y2="161.73"/><line class="cls-2" x1="346.44" y1="159.16" x2="346.44" y2="161.73"/><line class="cls-2" x1="296.14" y1="161.73" x2="316.21" y2="161.73"/><line class="cls-2" x1="346.44" y1="161.73" x2="367.23" y2="161.73"/><line class="cls-2" x1="296.36" y1="162" x2="316.21" y2="162"/><polygon class="cls-3" points="372.66 158.71 346.56 158.71 346.56 158.94 372.4 158.94 372.66 158.71"/><rect class="cls-4" x="346.56" y="159.16" width="22.65" height="2.57"/><line class="cls-2" x1="346.56" y1="158.71" x2="372.66" y2="158.71"/><line class="cls-2" x1="346.56" y1="158.94" x2="372.41" y2="158.94"/><line class="cls-2" x1="346.56" y1="158.94" x2="372.41" y2="158.94"/><line class="cls-2" x1="346.56" y1="159.16" x2="369.21" y2="159.16"/><line class="cls-2" x1="369.21" y1="161.73" x2="346.56" y2="161.73"/><line class="cls-2" x1="368.95" y1="162" x2="346.56" y2="162"/><line class="cls-2" x1="346.44" y1="162" x2="367.01" y2="162"/><line class="cls-2" x1="331.33" y1="158.6" x2="331.33" y2="162.11"/><line class="cls-2" x1="331.33" y1="158.71" x2="330.95" y2="158.71"/><line class="cls-2" x1="331.33" y1="162" x2="330.95" y2="162"/><line class="cls-2" x1="331.33" y1="158.71" x2="331.33" y2="162"/><line class="cls-2" x1="330.95" y1="158.71" x2="330.95" y2="162"/><line class="cls-2" x1="316.55" y1="158.71" x2="316.21" y2="158.71"/><line class="cls-2" x1="316.55" y1="162" x2="316.21" y2="162"/><line class="cls-2" x1="316.55" y1="158.71" x2="316.55" y2="162"/><line class="cls-2" x1="316.21" y1="158.71" x2="316.21" y2="162"/><line class="cls-2" x1="330.95" y1="159.28" x2="316.55" y2="159.28"/><line class="cls-2" x1="330.95" y1="159.65" x2="316.55" y2="159.65"/><line class="cls-2" x1="331.33" y1="158.6" x2="331.33" y2="162.11"/><line class="cls-2" x1="331.33" y1="158.6" x2="331.33" y2="158.6"/><line class="cls-2" x1="331.33" y1="162.11" x2="331.33" y2="162.11"/><line class="cls-2" x1="346.44" y1="158.71" x2="346.07" y2="158.71"/><line class="cls-2" x1="346.44" y1="162" x2="346.07" y2="162"/><line class="cls-2" x1="346.44" y1="158.71" x2="346.44" y2="162"/><line class="cls-2" x1="346.07" y1="158.71" x2="346.07" y2="162"/><line class="cls-2" x1="331.67" y1="158.71" x2="331.33" y2="158.71"/><line class="cls-2" x1="331.67" y1="162" x2="331.33" y2="162"/><line class="cls-2" x1="331.67" y1="158.71" x2="331.67" y2="162"/><line class="cls-2" x1="331.33" y1="158.71" x2="331.33" y2="162"/><line class="cls-2" x1="346.07" y1="159.28" x2="331.67" y2="159.28"/><line class="cls-2" x1="346.07" y1="159.65" x2="331.67" y2="159.65"/><line class="cls-2" x1="314.54" y1="158.71" x2="314.54" y2="157.88"/><line class="cls-2" x1="314.54" y1="157.88" x2="348.11" y2="157.88"/><line class="cls-2" x1="348.11" y1="158.71" x2="348.11" y2="157.88"/><line class="cls-2" x1="346.44" y1="158.71" x2="346.44" y2="158.37"/><line class="cls-2" x1="346.44" y1="158.37" x2="348.11" y2="158.37"/><line class="cls-2" x1="348.11" y1="158.71" x2="348.11" y2="158.37"/><line class="cls-2" x1="316.21" y1="158.71" x2="316.21" y2="158.37"/><line class="cls-2" x1="314.54" y1="158.37" x2="316.21" y2="158.37"/><line class="cls-2" x1="314.54" y1="158.71" x2="314.54" y2="158.37"/><line class="cls-2" x1="347.92" y1="162" x2="347.92" y2="162.75"/><line class="cls-2" x1="314.73" y1="162.75" x2="347.92" y2="162.75"/><line class="cls-2" x1="314.73" y1="162" x2="314.73" y2="162.75"/><line class="cls-2" x1="316.51" y1="162" x2="316.51" y2="162.3"/><line class="cls-2" x1="314.96" y1="162.3" x2="316.51" y2="162.3"/><line class="cls-2" x1="314.96" y1="162" x2="314.96" y2="162.3"/><line class="cls-2" x1="314.96" y1="162" x2="316.51" y2="162"/><line class="cls-2" x1="346.14" y1="162" x2="346.14" y2="162.3"/><line class="cls-2" x1="346.14" y1="162.3" x2="347.69" y2="162.3"/><line class="cls-2" x1="347.69" y1="162" x2="347.69" y2="162.3"/><line class="cls-2" x1="346.14" y1="162" x2="347.69" y2="162"/><line class="cls-2" x1="324.22" y1="261.8" x2="324.22" y2="277.75"/><line class="cls-2" x1="324.22" y1="249.78" x2="324.22" y2="261.57"/><line class="cls-2" x1="324.22" y1="231.45" x2="324.22" y2="233"/><line class="cls-2" x1="324.22" y1="249.78" x2="326.37" y2="249.78"/><line class="cls-2" x1="324.22" y1="233" x2="326.37" y2="233"/><line class="cls-2" x1="324.48" y1="249.78" x2="324.48" y2="277.98"/><line class="cls-2" x1="324.48" y1="231.22" x2="324.48" y2="233"/><line class="cls-2" x1="324.48" y1="249.78" x2="326.11" y2="249.78"/><line class="cls-2" x1="324.48" y1="233" x2="326.11" y2="233"/><line class="cls-2" x1="326.11" y1="229.56" x2="324.48" y2="229.56"/><line class="cls-2" x1="326.11" y1="277.98" x2="326.11" y2="253.41"/><line class="cls-2" x1="326.11" y1="251.78" x2="326.11" y2="249.78"/><line class="cls-2" x1="326.11" y1="233" x2="326.11" y2="229.56"/><line class="cls-2" x1="326.37" y1="277.75" x2="326.37" y2="253.67"/><line class="cls-2" x1="326.37" y1="251.52" x2="326.37" y2="249.78"/><line class="cls-2" x1="326.37" y1="233" x2="326.37" y2="229.33"/><line class="cls-2" x1="324.22" y1="233" x2="324.22" y2="233.34"/><line class="cls-2" x1="326.37" y1="233" x2="326.37" y2="233.34"/><line class="cls-2" x1="324.22" y1="233" x2="326.37" y2="233"/><line class="cls-2" x1="324.22" y1="233.34" x2="326.37" y2="233.34"/><line class="cls-2" x1="324.22" y1="249.4" x2="324.22" y2="249.78"/><line class="cls-2" x1="326.37" y1="249.4" x2="326.37" y2="249.78"/><line class="cls-2" x1="324.22" y1="249.4" x2="326.37" y2="249.4"/><line class="cls-2" x1="324.22" y1="249.78" x2="326.37" y2="249.78"/><line class="cls-2" x1="324.22" y1="233.34" x2="308.16" y2="233.34"/><line class="cls-2" x1="324.22" y1="233.98" x2="308.16" y2="233.98"/><line class="cls-2" x1="308.16" y1="233.34" x2="308.16" y2="233.98"/><line class="cls-2" x1="324.22" y1="233.98" x2="324.22" y2="233.34"/><line class="cls-2" x1="324.22" y1="249.4" x2="323.31" y2="249.4"/><line class="cls-2" x1="323.31" y1="249.4" x2="322.41" y2="249.33"/><line class="cls-2" x1="322.41" y1="249.33" x2="321.31" y2="249.14"/><line class="cls-2" x1="321.31" y1="249.14" x2="320.21" y2="248.91"/><line class="cls-2" x1="320.21" y1="248.91" x2="319.12" y2="248.57"/><line class="cls-2" x1="319.12" y1="248.57" x2="318.06" y2="248.16"/><line class="cls-2" x1="318.06" y1="248.16" x2="317" y2="247.7"/><line class="cls-2" x1="317" y1="247.7" x2="316.02" y2="247.17"/><line class="cls-2" x1="316.02" y1="247.17" x2="315.07" y2="246.53"/><line class="cls-2" x1="315.07" y1="246.53" x2="314.17" y2="245.85"/><line class="cls-2" x1="314.17" y1="245.85" x2="313.3" y2="245.13"/><line class="cls-2" x1="313.3" y1="245.13" x2="312.5" y2="244.34"/><line class="cls-2" x1="312.5" y1="244.34" x2="311.75" y2="243.47"/><line class="cls-2" x1="311.75" y1="243.47" x2="311.07" y2="242.56"/><line class="cls-2" x1="311.07" y1="242.56" x2="310.46" y2="241.62"/><line class="cls-2" x1="310.46" y1="241.62" x2="309.89" y2="240.63"/><line class="cls-2" x1="309.89" y1="240.63" x2="309.44" y2="239.57"/><line class="cls-2" x1="309.44" y1="239.57" x2="309.02" y2="238.52"/><line class="cls-2" x1="309.02" y1="238.52" x2="308.68" y2="237.46"/><line class="cls-2" x1="308.68" y1="237.46" x2="308.46" y2="236.32"/><line class="cls-2" x1="308.46" y1="236.32" x2="308.27" y2="235.23"/><line class="cls-2" x1="308.27" y1="235.23" x2="308.19" y2="234.09"/><line class="cls-2" x1="308.19" y1="234.09" x2="308.16" y2="233.34"/><line class="cls-2" x1="324.22" y1="233.22" x2="323.95" y2="233.22"/><line class="cls-2" x1="323.95" y1="233.22" x2="323.95" y2="231.68"/><line class="cls-2" x1="324.22" y1="231.68" x2="323.95" y2="231.68"/><line class="cls-2" x1="324.22" y1="249.52" x2="323.95" y2="249.52"/><line class="cls-2" x1="323.95" y1="251.07" x2="323.95" y2="249.52"/><line class="cls-2" x1="324.22" y1="251.07" x2="323.95" y2="251.07"/><line class="cls-2" x1="326.37" y1="249.52" x2="326.64" y2="249.52"/><line class="cls-2" x1="326.64" y1="251.07" x2="326.64" y2="249.52"/><line class="cls-2" x1="326.37" y1="251.07" x2="326.64" y2="251.07"/><line class="cls-2" x1="326.37" y1="233.22" x2="326.64" y2="233.22"/><line class="cls-2" x1="326.64" y1="233.22" x2="326.64" y2="231.68"/><line class="cls-2" x1="326.37" y1="231.68" x2="326.64" y2="231.68"/><line class="cls-2" x1="296.36" y1="231.45" x2="324.22" y2="231.45"/><line class="cls-2" x1="296.14" y1="231.22" x2="324.48" y2="231.22"/><line class="cls-2" x1="324.48" y1="229.56" x2="296.14" y2="229.56"/><line class="cls-2" x1="326.37" y1="229.33" x2="296.36" y2="229.33"/><line class="cls-2" x1="348.67" y1="264.75" x2="346.9" y2="264.75"/><line class="cls-2" x1="367.01" y1="264.75" x2="365.46" y2="264.75"/><line class="cls-2" x1="348.67" y1="264.75" x2="348.67" y2="266.9"/><line class="cls-2" x1="365.46" y1="264.75" x2="365.46" y2="266.9"/><line class="cls-2" x1="348.67" y1="265.01" x2="346.67" y2="265.01"/><line class="cls-2" x1="367.23" y1="265.01" x2="365.46" y2="265.01"/><line class="cls-2" x1="348.67" y1="265.01" x2="348.67" y2="266.64"/><line class="cls-2" x1="365.46" y1="265.01" x2="365.46" y2="266.64"/><line class="cls-2" x1="346.67" y1="266.64" x2="348.67" y2="266.64"/><line class="cls-2" x1="365.46" y1="266.64" x2="367.23" y2="266.64"/><line class="cls-2" x1="346.9" y1="266.9" x2="348.67" y2="266.9"/><line class="cls-2" x1="365.46" y1="266.9" x2="369.12" y2="266.9"/><line class="cls-2" x1="365.46" y1="264.75" x2="365.12" y2="264.75"/><line class="cls-2" x1="365.46" y1="266.9" x2="365.12" y2="266.9"/><line class="cls-2" x1="365.46" y1="264.75" x2="365.46" y2="266.9"/><line class="cls-2" x1="365.12" y1="264.75" x2="365.12" y2="266.9"/><line class="cls-2" x1="349.05" y1="264.75" x2="348.67" y2="264.75"/><line class="cls-2" x1="349.05" y1="266.9" x2="348.67" y2="266.9"/><line class="cls-2" x1="349.05" y1="264.75" x2="349.05" y2="266.9"/><line class="cls-2" x1="348.67" y1="264.75" x2="348.67" y2="266.9"/><line class="cls-2" x1="365.12" y1="264.75" x2="365.12" y2="248.68"/><line class="cls-2" x1="364.44" y1="264.75" x2="364.44" y2="248.68"/><line class="cls-2" x1="365.12" y1="248.68" x2="364.44" y2="248.68"/><line class="cls-2" x1="364.44" y1="264.75" x2="365.12" y2="264.75"/><line class="cls-2" x1="349.05" y1="264.75" x2="349.05" y2="263.92"/><line class="cls-2" x1="349.05" y1="263.92" x2="349.17" y2="262.78"/><line class="cls-2" x1="349.17" y1="262.78" x2="349.36" y2="261.65"/><line class="cls-2" x1="349.36" y1="261.65" x2="349.58" y2="260.55"/><line class="cls-2" x1="349.58" y1="260.55" x2="349.92" y2="259.49"/><line class="cls-2" x1="349.92" y1="259.49" x2="350.34" y2="258.44"/><line class="cls-2" x1="350.34" y1="258.44" x2="350.83" y2="257.42"/><line class="cls-2" x1="350.83" y1="257.42" x2="351.4" y2="256.4"/><line class="cls-2" x1="351.4" y1="256.4" x2="352" y2="255.45"/><line class="cls-2" x1="352" y1="255.45" x2="352.68" y2="254.58"/><line class="cls-2" x1="352.68" y1="254.58" x2="353.44" y2="253.71"/><line class="cls-2" x1="353.44" y1="253.71" x2="354.27" y2="252.92"/><line class="cls-2" x1="354.27" y1="252.92" x2="355.1" y2="252.2"/><line class="cls-2" x1="355.1" y1="252.2" x2="356.05" y2="251.52"/><line class="cls-2" x1="356.05" y1="251.52" x2="356.99" y2="250.91"/><line class="cls-2" x1="356.99" y1="250.91" x2="357.97" y2="250.35"/><line class="cls-2" x1="357.97" y1="250.35" x2="359.03" y2="249.89"/><line class="cls-2" x1="359.03" y1="249.89" x2="360.09" y2="249.52"/><line class="cls-2" x1="360.09" y1="249.52" x2="361.19" y2="249.18"/><line class="cls-2" x1="361.19" y1="249.18" x2="362.28" y2="248.95"/><line class="cls-2" x1="362.28" y1="248.95" x2="363.42" y2="248.8"/><line class="cls-2" x1="363.42" y1="248.8" x2="364.25" y2="248.72"/><line class="cls-2" x1="364.25" y1="248.72" x2="365.12" y2="248.68"/><line class="cls-2" x1="365.23" y1="264.75" x2="365.23" y2="264.48"/><line class="cls-2" x1="365.23" y1="264.48" x2="366.74" y2="264.48"/><line class="cls-2" x1="366.74" y1="264.75" x2="366.74" y2="264.48"/><line class="cls-2" x1="348.94" y1="264.75" x2="348.94" y2="264.48"/><line class="cls-2" x1="347.39" y1="264.48" x2="348.94" y2="264.48"/><line class="cls-2" x1="347.39" y1="264.75" x2="347.39" y2="264.48"/><line class="cls-2" x1="348.94" y1="266.9" x2="348.94" y2="267.21"/><line class="cls-2" x1="347.39" y1="267.21" x2="348.94" y2="267.21"/><line class="cls-2" x1="347.39" y1="266.9" x2="347.39" y2="267.21"/><line class="cls-2" x1="365.23" y1="266.9" x2="365.23" y2="267.21"/><line class="cls-2" x1="365.23" y1="267.21" x2="366.74" y2="267.21"/><line class="cls-2" x1="366.74" y1="266.9" x2="366.74" y2="267.21"/><line class="cls-2" x1="350.68" y1="279.79" x2="350.68" y2="277.79"/><line class="cls-2" x1="369.12" y1="277.75" x2="370.52" y2="277.75"/><line class="cls-2" x1="327.89" y1="251.52" x2="326.37" y2="251.52"/><line class="cls-2" x1="346.9" y1="251.52" x2="341.83" y2="251.52"/><line class="cls-2" x1="327.89" y1="251.52" x2="327.89" y2="253.67"/><line class="cls-2" x1="341.83" y1="251.52" x2="341.83" y2="253.67"/><line class="cls-2" x1="327.89" y1="251.78" x2="326.11" y2="251.78"/><line class="cls-2" x1="345.01" y1="251.78" x2="341.83" y2="251.78"/><line class="cls-2" x1="327.89" y1="251.78" x2="327.89" y2="253.41"/><line class="cls-2" x1="341.83" y1="251.78" x2="341.83" y2="253.41"/><line class="cls-2" x1="326.11" y1="253.41" x2="327.89" y2="253.41"/><line class="cls-2" x1="341.83" y1="253.41" x2="345.01" y2="253.41"/><line class="cls-2" x1="326.37" y1="253.67" x2="327.89" y2="253.67"/><line class="cls-2" x1="341.83" y1="253.67" x2="344.78" y2="253.67"/><line class="cls-2" x1="341.83" y1="251.52" x2="341.49" y2="251.52"/><line class="cls-2" x1="341.83" y1="253.67" x2="341.49" y2="253.67"/><line class="cls-2" x1="341.83" y1="251.52" x2="341.83" y2="253.67"/><line class="cls-2" x1="341.49" y1="251.52" x2="341.49" y2="253.67"/><line class="cls-2" x1="328.26" y1="251.52" x2="327.89" y2="251.52"/><line class="cls-2" x1="328.26" y1="253.67" x2="327.89" y2="253.67"/><line class="cls-2" x1="328.26" y1="251.52" x2="328.26" y2="253.67"/><line class="cls-2" x1="327.89" y1="251.52" x2="327.89" y2="253.67"/><line class="cls-2" x1="328.26" y1="253.67" x2="328.26" y2="266.9"/><line class="cls-2" x1="328.91" y1="253.67" x2="328.91" y2="266.9"/><line class="cls-2" x1="328.26" y1="266.9" x2="328.91" y2="266.9"/><line class="cls-2" x1="328.91" y1="253.67" x2="328.26" y2="253.67"/><line class="cls-2" x1="341.49" y1="253.67" x2="341.42" y2="254.92"/><line class="cls-2" x1="341.42" y1="254.92" x2="341.27" y2="256.02"/><line class="cls-2" x1="341.27" y1="256.02" x2="341" y2="257.15"/><line class="cls-2" x1="341" y1="257.15" x2="340.66" y2="258.21"/><line class="cls-2" x1="340.66" y1="258.21" x2="340.25" y2="259.27"/><line class="cls-2" x1="340.25" y1="259.27" x2="339.72" y2="260.25"/><line class="cls-2" x1="339.72" y1="260.25" x2="339.11" y2="261.23"/><line class="cls-2" x1="339.11" y1="261.23" x2="338.43" y2="262.14"/><line class="cls-2" x1="338.43" y1="262.14" x2="337.68" y2="262.97"/><line class="cls-2" x1="337.68" y1="262.97" x2="336.84" y2="263.73"/><line class="cls-2" x1="336.84" y1="263.73" x2="335.94" y2="264.45"/><line class="cls-2" x1="335.94" y1="264.45" x2="334.99" y2="265.05"/><line class="cls-2" x1="334.99" y1="265.05" x2="333.97" y2="265.58"/><line class="cls-2" x1="333.97" y1="265.58" x2="332.95" y2="266.03"/><line class="cls-2" x1="332.95" y1="266.03" x2="331.85" y2="266.37"/><line class="cls-2" x1="331.85" y1="266.37" x2="330.76" y2="266.64"/><line class="cls-2" x1="330.76" y1="266.64" x2="329.62" y2="266.83"/><line class="cls-2" x1="329.62" y1="266.83" x2="328.94" y2="266.87"/><line class="cls-2" x1="328.94" y1="266.87" x2="328.26" y2="266.9"/><line class="cls-2" x1="341.61" y1="251.52" x2="341.61" y2="251.25"/><line class="cls-2" x1="341.61" y1="251.25" x2="343.12" y2="251.25"/><line class="cls-2" x1="343.12" y1="251.52" x2="343.12" y2="251.25"/><line class="cls-2" x1="328.11" y1="251.52" x2="328.11" y2="251.25"/><line class="cls-2" x1="326.6" y1="251.25" x2="328.11" y2="251.25"/><line class="cls-2" x1="326.6" y1="251.52" x2="326.6" y2="251.25"/><line class="cls-2" x1="328.11" y1="253.67" x2="328.11" y2="253.98"/><line class="cls-2" x1="326.6" y1="253.98" x2="328.11" y2="253.98"/><line class="cls-2" x1="326.6" y1="253.67" x2="326.6" y2="253.98"/><line class="cls-2" x1="341.61" y1="253.67" x2="341.61" y2="253.98"/><line class="cls-2" x1="341.61" y1="253.98" x2="343.12" y2="253.98"/><line class="cls-2" x1="343.12" y1="253.67" x2="343.12" y2="253.98"/><line class="cls-2" x1="346.9" y1="264.75" x2="346.9" y2="251.52"/><line class="cls-2" x1="346.9" y1="279.79" x2="346.9" y2="266.9"/><line class="cls-2" x1="346.67" y1="279.64" x2="346.67" y2="266.64"/><line class="cls-2" x1="346.67" y1="265.01" x2="346.67" y2="251.78"/><line class="cls-2" x1="346.67" y1="251.78" x2="345.01" y2="251.78"/><line class="cls-2" x1="345.01" y1="279.64" x2="346.67" y2="279.64"/><line class="cls-2" x1="345.01" y1="253.41" x2="345.01" y2="277.98"/><line class="cls-2" x1="344.78" y1="253.67" x2="344.78" y2="277.75"/><line class="cls-2" x1="296.36" y1="277.75" x2="296.36" y2="263.12"/><line class="cls-2" x1="296.36" y1="263.12" x2="301.84" y2="263.12"/><line class="cls-2" x1="301.84" y1="263.12" x2="302.03" y2="263.12"/><line class="cls-2" x1="302.03" y1="263.12" x2="302.03" y2="277.75"/><line class="cls-2" x1="302.03" y1="277.75" x2="296.36" y2="277.75"/><line class="cls-2" x1="369.12" y1="259.38" x2="369.12" y2="279.79"/><line class="cls-2" x1="368.9" y1="278.02" x2="346.75" y2="278.02"/><line class="cls-2" x1="346.75" y1="278.02" x2="346.75" y2="266.87"/><line class="cls-2" x1="346.75" y1="266.87" x2="368.9" y2="266.87"/><line class="cls-2" x1="368.9" y1="266.87" x2="368.9" y2="278.02"/><line class="cls-2" x1="346.67" y1="279.68" x2="346.67" y2="277.94"/><line class="cls-2" x1="344.78" y1="272.12" x2="344.78" y2="277.79"/><line class="cls-2" x1="344.78" y1="277.79" x2="326.37" y2="277.79"/><line class="cls-2" x1="326.37" y1="277.79" x2="326.37" y2="272.12"/><line class="cls-2" x1="326.37" y1="272.12" x2="344.78" y2="272.12"/><line class="cls-2" x1="297.23" y1="263.88" x2="301.12" y2="263.88"/><line class="cls-2" x1="301.12" y1="276.96" x2="297.23" y2="276.96"/><line class="cls-2" x1="297.23" y1="276.96" x2="297.23" y2="263.88"/><rect class="cls-5" x="286.01" y="142.24" width="83.67" height="137.59"/><text class="cls-6" transform="translate(310.27 214.28)"><tspan class="cls-7">12</tspan><tspan class="cls-8" x="7.75" y="0">&apos;</tspan><tspan class="cls-9" x="9.09" y="0">-</tspan><tspan class="cls-10" x="11.4" y="0">6</tspan><tspan x="15.27" y="0">&quot;</tspan><tspan class="cls-11" x="17.43" y="0"> </tspan><tspan class="cls-10" x="19.33" y="0">X</tspan><tspan class="cls-12" x="23.58" y="0"> </tspan><tspan class="cls-13" x="25.57" y="0">1</tspan><tspan class="cls-14" x="29.36" y="0">5</tspan><tspan class="cls-15" x="33.24" y="0">&apos;</tspan><tspan class="cls-9" x="34.66" y="0">-1</tspan><tspan class="cls-16" x="40.83" y="0">0</tspan><tspan class="cls-17" x="44.63" y="0">&quot;</tspan></text><text class="cls-6" transform="translate(321.76 207.27)">STUDY</text><text class="cls-6" transform="translate(306.83 248.57)">BATH</text><text class="cls-6" transform="translate(337.68 277.47) rotate(-90)">CLOSET</text><text class="cls-6" transform="translate(296.1 272.07)">SHOWER</text></g></g></g></svg>