<svg id="图层_1" data-name="图层 1" xmlns="http://www.w3.org/2000/svg" viewBox="0 0 1008 504"><defs><style>.cls-1,.cls-3{fill:#fff;}.cls-2{fill:none;stroke:#0b4d6e;stroke-linecap:round;stroke-linejoin:bevel;stroke-width:0.15px;}.cls-3{fill-rule:evenodd;}.cls-4,.cls-5{fill:#0c4f71;}.cls-5{font-size:7px;font-family:CenturyGothic, Century Gothic;}.cls-6{letter-spacing:0em;}.cls-7{letter-spacing:-0.01em;}.cls-8{letter-spacing:0em;}.cls-9{letter-spacing:0em;}.cls-10{letter-spacing:-0.01em;}.cls-11{letter-spacing:0.01em;}.cls-12{letter-spacing:-0.01em;}.cls-13{letter-spacing:0em;}.cls-14{letter-spacing:0em;}.cls-15{letter-spacing:-0.01em;}.cls-16{letter-spacing:0em;}</style></defs><g id="FINISHED_BASEMENT-2" data-name="FINISHED BASEMENT-2"><rect class="cls-1" x="354.17" y="213.47" width="53.06" height="25.97"/><g id="BED_6_WINDOW" data-name="BED#6 WINDOW"><rect class="cls-1" x="292.81" y="346.4" width="7.48" height="28.16"/><line class="cls-2" x1="297.43" y1="374.73" x2="299.54" y2="374.73"/><line class="cls-2" x1="297.43" y1="346.39" x2="299.54" y2="346.39"/><line class="cls-2" x1="297.65" y1="374.73" x2="299.32" y2="374.73"/><line class="cls-2" x1="297.65" y1="346.39" x2="299.32" y2="346.39"/><line class="cls-2" x1="297.43" y1="346.39" x2="297.43" y2="346.76"/><line class="cls-2" x1="299.54" y1="346.39" x2="299.54" y2="346.76"/><line class="cls-2" x1="297.43" y1="346.39" x2="299.54" y2="346.39"/><line class="cls-2" x1="297.43" y1="346.76" x2="299.54" y2="346.76"/><line class="cls-2" x1="297.43" y1="374.39" x2="297.43" y2="374.73"/><line class="cls-2" x1="299.54" y1="374.39" x2="299.54" y2="374.73"/><line class="cls-2" x1="297.43" y1="374.39" x2="299.54" y2="374.39"/><line class="cls-2" x1="297.43" y1="374.73" x2="299.54" y2="374.73"/><line class="cls-2" x1="299.54" y1="344.91" x2="300.3" y2="344.91"/><line class="cls-2" x1="300.3" y1="376.21" x2="300.3" y2="344.91"/><line class="cls-2" x1="299.54" y1="376.21" x2="300.3" y2="376.21"/><line class="cls-2" x1="299.54" y1="374.43" x2="299.85" y2="374.43"/><line class="cls-2" x1="299.85" y1="375.98" x2="299.85" y2="374.43"/><line class="cls-2" x1="299.54" y1="375.98" x2="299.85" y2="375.98"/><line class="cls-2" x1="299.54" y1="375.98" x2="299.54" y2="374.43"/><line class="cls-2" x1="299.54" y1="346.69" x2="299.85" y2="346.69"/><line class="cls-2" x1="299.85" y1="346.69" x2="299.85" y2="345.14"/><line class="cls-2" x1="299.54" y1="345.14" x2="299.85" y2="345.14"/><line class="cls-2" x1="299.54" y1="346.69" x2="299.54" y2="345.14"/><line class="cls-2" x1="293.65" y1="374.73" x2="297.43" y2="374.73"/><line class="cls-2" x1="293.65" y1="346.39" x2="297.43" y2="346.39"/><line class="cls-2" x1="293.65" y1="346.39" x2="293.65" y2="346.76"/><line class="cls-2" x1="297.43" y1="346.39" x2="297.43" y2="346.76"/><line class="cls-2" x1="293.65" y1="346.39" x2="297.43" y2="346.39"/><line class="cls-2" x1="293.65" y1="346.76" x2="297.43" y2="346.76"/><line class="cls-2" x1="293.65" y1="374.39" x2="293.65" y2="374.73"/><line class="cls-2" x1="297.43" y1="374.39" x2="297.43" y2="374.73"/><line class="cls-2" x1="293.65" y1="374.39" x2="297.43" y2="374.39"/><line class="cls-2" x1="293.65" y1="374.73" x2="297.43" y2="374.73"/><line class="cls-2" x1="293.95" y1="346.76" x2="293.95" y2="360.22"/><line class="cls-2" x1="294.33" y1="346.76" x2="294.33" y2="360.22"/><line class="cls-2" x1="293.68" y1="360.22" x2="293.68" y2="360.94"/><line class="cls-2" x1="295.12" y1="360.22" x2="295.12" y2="360.94"/><line class="cls-2" x1="293.68" y1="360.22" x2="295.12" y2="360.22"/><line class="cls-2" x1="293.68" y1="360.94" x2="295.12" y2="360.94"/><line class="cls-2" x1="294.48" y1="360.94" x2="294.48" y2="374.39"/><line class="cls-2" x1="294.86" y1="360.94" x2="294.86" y2="374.39"/><line class="cls-2" x1="293.65" y1="376.4" x2="292.81" y2="376.4"/><line class="cls-2" x1="292.81" y1="376.4" x2="292.81" y2="344.72"/><line class="cls-2" x1="293.65" y1="344.72" x2="292.81" y2="344.72"/><line class="cls-2" x1="293.65" y1="346.39" x2="293.27" y2="346.39"/><line class="cls-2" x1="293.27" y1="346.39" x2="293.27" y2="344.72"/><line class="cls-2" x1="293.65" y1="344.72" x2="293.27" y2="344.72"/><line class="cls-2" x1="293.65" y1="374.73" x2="293.27" y2="374.73"/><line class="cls-2" x1="293.27" y1="376.4" x2="293.27" y2="374.73"/><line class="cls-2" x1="293.65" y1="376.4" x2="293.27" y2="376.4"/></g><g id="BATH"><line class="cls-2" x1="379.86" y1="361.28" x2="379.86" y2="363.36"/><line class="cls-2" x1="379.86" y1="365.06" x2="379.86" y2="366.76"/><line class="cls-2" x1="379.86" y1="368.46" x2="379.86" y2="371.18"/><line class="cls-2" x1="368.37" y1="361.28" x2="370.07" y2="361.28"/><line class="cls-2" x1="371.77" y1="361.28" x2="373.48" y2="361.28"/><line class="cls-2" x1="375.18" y1="361.28" x2="376.88" y2="361.28"/><line class="cls-2" x1="365.92" y1="361.28" x2="367.35" y2="361.28"/><line class="cls-2" x1="379.86" y1="361.28" x2="378.43" y2="361.28"/><line class="cls-2" x1="380.39" y1="360.56" x2="380.43" y2="360.56"/><line class="cls-2" x1="380.43" y1="360.56" x2="380.47" y2="360.56"/><line class="cls-2" x1="380.47" y1="360.56" x2="380.47" y2="360.6"/><line class="cls-2" x1="380.47" y1="360.6" x2="380.51" y2="360.6"/><line class="cls-2" x1="380.51" y1="360.6" x2="380.51" y2="360.64"/><line class="cls-2" x1="380.51" y1="360.64" x2="380.54" y2="360.64"/><line class="cls-2" x1="380.54" y1="360.64" x2="380.54" y2="360.67"/><line class="cls-2" x1="380.54" y1="360.67" x2="380.58" y2="360.71"/><line class="cls-2" x1="380.58" y1="360.71" x2="380.58" y2="360.75"/><line class="cls-2" x1="380.58" y1="360.75" x2="380.58" y2="371.18"/><line class="cls-2" x1="380.58" y1="371.18" x2="365.92" y2="371.18"/><line class="cls-2" x1="365.92" y1="371.18" x2="365.92" y2="360.56"/><line class="cls-2" x1="365.92" y1="360.56" x2="380.39" y2="360.56"/><line class="cls-2" x1="369.28" y1="368.12" x2="369.47" y2="368.27"/><line class="cls-2" x1="369.47" y1="368.27" x2="369.96" y2="368.57"/><line class="cls-2" x1="369.96" y1="368.57" x2="370.45" y2="368.84"/><line class="cls-2" x1="370.45" y1="368.84" x2="370.98" y2="369.06"/><line class="cls-2" x1="370.98" y1="369.06" x2="371.51" y2="369.22"/><line class="cls-2" x1="371.51" y1="369.22" x2="372.08" y2="369.29"/><line class="cls-2" x1="372.08" y1="369.29" x2="372.64" y2="369.37"/><line class="cls-2" x1="372.64" y1="369.37" x2="373.21" y2="369.33"/><line class="cls-2" x1="373.21" y1="369.33" x2="373.78" y2="369.25"/><line class="cls-2" x1="373.78" y1="369.25" x2="374.35" y2="369.14"/><line class="cls-2" x1="374.35" y1="369.14" x2="374.87" y2="368.95"/><line class="cls-2" x1="374.87" y1="368.95" x2="375.37" y2="368.69"/><line class="cls-2" x1="375.37" y1="368.69" x2="375.86" y2="368.42"/><line class="cls-2" x1="375.86" y1="368.42" x2="376.27" y2="368.12"/><line class="cls-2" x1="376.27" y1="368.12" x2="376.46" y2="367.93"/><line class="cls-2" x1="376.46" y1="367.93" x2="376.65" y2="367.74"/><line class="cls-2" x1="376.65" y1="367.74" x2="376.8" y2="367.55"/><line class="cls-2" x1="376.8" y1="367.55" x2="376.99" y2="367.29"/><line class="cls-2" x1="376.99" y1="367.29" x2="377.14" y2="366.99"/><line class="cls-2" x1="377.14" y1="366.99" x2="377.29" y2="366.72"/><line class="cls-2" x1="377.29" y1="366.72" x2="377.37" y2="366.38"/><line class="cls-2" x1="377.37" y1="366.38" x2="377.44" y2="366.08"/><line class="cls-2" x1="377.44" y1="366.08" x2="377.48" y2="365.78"/><line class="cls-2" x1="377.48" y1="365.78" x2="377.48" y2="365.44"/><line class="cls-2" x1="377.48" y1="365.44" x2="377.44" y2="365.1"/><line class="cls-2" x1="377.44" y1="365.1" x2="377.41" y2="364.79"/><line class="cls-2" x1="377.41" y1="364.79" x2="377.29" y2="364.49"/><line class="cls-2" x1="377.29" y1="364.49" x2="377.18" y2="364.19"/><line class="cls-2" x1="377.18" y1="364.19" x2="377.03" y2="363.89"/><line class="cls-2" x1="377.03" y1="363.89" x2="376.84" y2="363.62"/><line class="cls-2" x1="376.84" y1="363.62" x2="376.65" y2="363.39"/><line class="cls-2" x1="376.65" y1="363.39" x2="376.46" y2="363.17"/><line class="cls-2" x1="376.46" y1="363.17" x2="376.27" y2="363.02"/><line class="cls-2" x1="376.27" y1="363.02" x2="375.82" y2="362.68"/><line class="cls-2" x1="375.82" y1="362.68" x2="375.33" y2="362.41"/><line class="cls-2" x1="375.33" y1="362.41" x2="374.84" y2="362.18"/><line class="cls-2" x1="374.84" y1="362.18" x2="374.31" y2="362"/><line class="cls-2" x1="374.31" y1="362" x2="373.78" y2="361.88"/><line class="cls-2" x1="373.78" y1="361.88" x2="373.21" y2="361.81"/><line class="cls-2" x1="373.21" y1="361.81" x2="372.64" y2="361.77"/><line class="cls-2" x1="372.64" y1="361.77" x2="372.08" y2="361.81"/><line class="cls-2" x1="372.08" y1="361.81" x2="371.51" y2="361.92"/><line class="cls-2" x1="371.51" y1="361.92" x2="370.98" y2="362.07"/><line class="cls-2" x1="370.98" y1="362.07" x2="370.45" y2="362.3"/><line class="cls-2" x1="370.45" y1="362.3" x2="369.92" y2="362.52"/><line class="cls-2" x1="369.92" y1="362.52" x2="369.58" y2="362.75"/><line class="cls-2" x1="369.58" y1="362.75" x2="369.28" y2="363.02"/><line class="cls-2" x1="369.28" y1="363.02" x2="369.02" y2="363.24"/><line class="cls-2" x1="369.02" y1="363.24" x2="368.79" y2="363.47"/><line class="cls-2" x1="368.79" y1="363.47" x2="368.56" y2="363.77"/><line class="cls-2" x1="368.56" y1="363.77" x2="368.41" y2="364.07"/><line class="cls-2" x1="368.41" y1="364.07" x2="368.26" y2="364.38"/><line class="cls-2" x1="368.26" y1="364.38" x2="368.15" y2="364.68"/><line class="cls-2" x1="368.15" y1="364.68" x2="368.07" y2="365.02"/><line class="cls-2" x1="368.07" y1="365.02" x2="368.03" y2="365.32"/><line class="cls-2" x1="368.03" y1="365.32" x2="368.03" y2="365.66"/><line class="cls-2" x1="368.03" y1="365.66" x2="368.07" y2="365.96"/><line class="cls-2" x1="368.07" y1="365.96" x2="368.11" y2="366.3"/><line class="cls-2" x1="368.11" y1="366.3" x2="368.22" y2="366.61"/><line class="cls-2" x1="368.22" y1="366.61" x2="368.34" y2="366.91"/><line class="cls-2" x1="368.34" y1="366.91" x2="368.45" y2="367.17"/><line class="cls-2" x1="368.45" y1="367.17" x2="368.64" y2="367.44"/><line class="cls-2" x1="368.64" y1="367.44" x2="368.83" y2="367.7"/><line class="cls-2" x1="368.83" y1="367.7" x2="369.02" y2="367.93"/><line class="cls-2" x1="369.02" y1="367.93" x2="369.28" y2="368.12"/><polygon class="cls-3" points="369.28 363.02 369.28 368.12 369.02 367.89 368.71 367.59 368.49 367.21 368.3 366.83 368.15 366.42 368.07 366 368.03 365.59 368.07 365.17 368.15 364.72 368.3 364.34 368.49 363.96 368.71 363.58 369.02 363.28 369.28 363.02"/><polygon class="cls-3" points="376.27 363.02 369.28 363.02 369.36 362.94 369.96 362.56 370.64 362.22 371.32 362 372.04 361.85 372.8 361.81 373.51 361.85 374.23 362 374.91 362.22 375.59 362.56 376.2 362.94 376.27 363.02"/><polygon class="cls-3" points="376.27 368.12 376.27 363.02 376.54 363.28 376.84 363.58 377.07 363.96 377.26 364.34 377.41 364.72 377.48 365.17 377.52 365.59 377.48 366 377.41 366.42 377.26 366.83 377.07 367.21 376.84 367.59 376.54 367.89 376.27 368.12"/><polygon class="cls-3" points="369.28 368.12 376.27 368.12 376.2 368.19 375.59 368.61 374.91 368.95 374.23 369.18 373.51 369.33 372.8 369.37 372.04 369.33 371.32 369.18 370.64 368.95 369.96 368.61 369.36 368.19 369.28 368.12"/><rect class="cls-1" x="369.28" y="363.02" width="6.99" height="5.1"/><line class="cls-2" x1="369.28" y1="368.12" x2="369.05" y2="367.93"/><line class="cls-2" x1="369.05" y1="367.93" x2="368.83" y2="367.7"/><line class="cls-2" x1="368.83" y1="367.7" x2="368.68" y2="367.48"/><line class="cls-2" x1="368.68" y1="367.48" x2="368.49" y2="367.21"/><line class="cls-2" x1="368.49" y1="367.21" x2="368.34" y2="366.95"/><line class="cls-2" x1="368.34" y1="366.95" x2="368.22" y2="366.68"/><line class="cls-2" x1="368.22" y1="366.68" x2="368.15" y2="366.38"/><line class="cls-2" x1="368.15" y1="366.38" x2="368.07" y2="366.04"/><line class="cls-2" x1="368.07" y1="366.04" x2="368.07" y2="365.74"/><line class="cls-2" x1="368.07" y1="365.74" x2="368.07" y2="365.4"/><line class="cls-2" x1="368.07" y1="365.4" x2="368.11" y2="365.1"/><line class="cls-2" x1="368.11" y1="365.1" x2="368.15" y2="364.76"/><line class="cls-2" x1="368.15" y1="364.76" x2="368.26" y2="364.45"/><line class="cls-2" x1="368.26" y1="364.45" x2="368.37" y2="364.19"/><line class="cls-2" x1="368.37" y1="364.19" x2="368.52" y2="363.92"/><line class="cls-2" x1="368.52" y1="363.92" x2="368.68" y2="363.66"/><line class="cls-2" x1="368.68" y1="363.66" x2="368.86" y2="363.43"/><line class="cls-2" x1="368.86" y1="363.43" x2="369.05" y2="363.21"/><line class="cls-2" x1="369.05" y1="363.21" x2="369.28" y2="363.02"/><line class="cls-2" x1="369.28" y1="363.02" x2="369.62" y2="362.79"/><line class="cls-2" x1="369.62" y1="362.79" x2="369.96" y2="362.56"/><line class="cls-2" x1="369.96" y1="362.56" x2="370.3" y2="362.37"/><line class="cls-2" x1="370.3" y1="362.37" x2="370.83" y2="362.15"/><line class="cls-2" x1="370.83" y1="362.15" x2="371.36" y2="361.96"/><line class="cls-2" x1="371.36" y1="361.96" x2="371.93" y2="361.84"/><line class="cls-2" x1="371.93" y1="361.84" x2="372.49" y2="361.81"/><line class="cls-2" x1="372.49" y1="361.81" x2="373.06" y2="361.81"/><line class="cls-2" x1="373.06" y1="361.81" x2="373.63" y2="361.84"/><line class="cls-2" x1="373.63" y1="361.84" x2="374.19" y2="361.96"/><line class="cls-2" x1="374.19" y1="361.96" x2="374.72" y2="362.15"/><line class="cls-2" x1="374.72" y1="362.15" x2="375.14" y2="362.3"/><line class="cls-2" x1="375.14" y1="362.3" x2="375.55" y2="362.52"/><line class="cls-2" x1="375.55" y1="362.52" x2="375.93" y2="362.75"/><line class="cls-2" x1="375.93" y1="362.75" x2="376.27" y2="363.02"/><line class="cls-2" x1="376.27" y1="363.02" x2="376.54" y2="363.24"/><line class="cls-2" x1="376.54" y1="363.24" x2="376.76" y2="363.51"/><line class="cls-2" x1="376.76" y1="363.51" x2="376.95" y2="363.77"/><line class="cls-2" x1="376.95" y1="363.77" x2="377.14" y2="364.07"/><line class="cls-2" x1="377.14" y1="364.07" x2="377.26" y2="364.34"/><line class="cls-2" x1="377.26" y1="364.34" x2="377.37" y2="364.64"/><line class="cls-2" x1="377.37" y1="364.64" x2="377.44" y2="364.98"/><line class="cls-2" x1="377.44" y1="364.98" x2="377.48" y2="365.28"/><line class="cls-2" x1="377.48" y1="365.28" x2="377.52" y2="365.62"/><line class="cls-2" x1="377.52" y1="365.62" x2="377.48" y2="365.93"/><line class="cls-2" x1="377.48" y1="365.93" x2="377.44" y2="366.27"/><line class="cls-2" x1="377.44" y1="366.27" x2="377.37" y2="366.57"/><line class="cls-2" x1="377.37" y1="366.57" x2="377.26" y2="366.87"/><line class="cls-2" x1="377.26" y1="366.87" x2="377.1" y2="367.17"/><line class="cls-2" x1="377.1" y1="367.17" x2="376.92" y2="367.44"/><line class="cls-2" x1="376.92" y1="367.44" x2="376.73" y2="367.7"/><line class="cls-2" x1="376.73" y1="367.7" x2="376.5" y2="367.93"/><line class="cls-2" x1="376.5" y1="367.93" x2="376.27" y2="368.12"/><line class="cls-2" x1="376.27" y1="368.12" x2="375.93" y2="368.38"/><line class="cls-2" x1="375.93" y1="368.38" x2="375.59" y2="368.61"/><line class="cls-2" x1="375.59" y1="368.61" x2="375.25" y2="368.8"/><line class="cls-2" x1="375.25" y1="368.8" x2="374.72" y2="369.03"/><line class="cls-2" x1="374.72" y1="369.03" x2="374.16" y2="369.18"/><line class="cls-2" x1="374.16" y1="369.18" x2="373.63" y2="369.29"/><line class="cls-2" x1="373.63" y1="369.29" x2="373.06" y2="369.37"/><line class="cls-2" x1="373.06" y1="369.37" x2="372.49" y2="369.37"/><line class="cls-2" x1="372.49" y1="369.37" x2="371.93" y2="369.29"/><line class="cls-2" x1="371.93" y1="369.29" x2="371.36" y2="369.18"/><line class="cls-2" x1="371.36" y1="369.18" x2="370.83" y2="369.03"/><line class="cls-2" x1="370.83" y1="369.03" x2="370.41" y2="368.84"/><line class="cls-2" x1="370.41" y1="368.84" x2="370.04" y2="368.65"/><line class="cls-2" x1="370.04" y1="368.65" x2="369.62" y2="368.38"/><line class="cls-2" x1="369.62" y1="368.38" x2="369.28" y2="368.12"/><path class="cls-2" d="M372.8,365.55a.49.49,0,1,0,.49.49A.49.49,0,0,0,372.8,365.55Z"/><path class="cls-2" d="M372.8,365.74a.3.3,0,0,0-.27.3.29.29,0,1,0,.28-.3Z"/><line class="cls-2" x1="369.85" y1="367.44" x2="369.66" y2="367.29"/><line class="cls-2" x1="369.66" y1="367.29" x2="369.51" y2="367.14"/><line class="cls-2" x1="369.51" y1="367.14" x2="369.39" y2="366.95"/><line class="cls-2" x1="369.39" y1="366.95" x2="369.24" y2="366.76"/><line class="cls-2" x1="369.24" y1="366.76" x2="369.17" y2="366.57"/><line class="cls-2" x1="369.17" y1="366.57" x2="369.09" y2="366.34"/><line class="cls-2" x1="369.09" y1="366.34" x2="369.02" y2="366.12"/><line class="cls-2" x1="369.02" y1="366.12" x2="368.98" y2="365.93"/><line class="cls-2" x1="368.98" y1="365.93" x2="368.94" y2="365.7"/><line class="cls-2" x1="368.94" y1="365.7" x2="368.94" y2="365.47"/><line class="cls-2" x1="368.94" y1="365.47" x2="368.98" y2="365.25"/><line class="cls-2" x1="368.98" y1="365.25" x2="369.02" y2="365.02"/><line class="cls-2" x1="369.02" y1="365.02" x2="369.09" y2="364.79"/><line class="cls-2" x1="369.09" y1="364.79" x2="369.17" y2="364.57"/><line class="cls-2" x1="369.17" y1="364.57" x2="369.28" y2="364.38"/><line class="cls-2" x1="369.28" y1="364.38" x2="369.39" y2="364.19"/><line class="cls-2" x1="369.39" y1="364.19" x2="369.51" y2="364.04"/><line class="cls-2" x1="369.51" y1="364.04" x2="369.66" y2="363.89"/><line class="cls-2" x1="369.66" y1="363.89" x2="369.85" y2="363.73"/><line class="cls-2" x1="369.85" y1="363.73" x2="370.11" y2="363.55"/><line class="cls-2" x1="370.11" y1="363.55" x2="370.38" y2="363.36"/><line class="cls-2" x1="370.38" y1="363.36" x2="370.79" y2="363.13"/><line class="cls-2" x1="370.79" y1="363.13" x2="371.21" y2="362.98"/><line class="cls-2" x1="371.21" y1="362.98" x2="371.62" y2="362.83"/><line class="cls-2" x1="371.62" y1="362.83" x2="372.08" y2="362.75"/><line class="cls-2" x1="372.08" y1="362.75" x2="372.53" y2="362.71"/><line class="cls-2" x1="372.53" y1="362.71" x2="372.98" y2="362.71"/><line class="cls-2" x1="372.98" y1="362.71" x2="373.44" y2="362.75"/><line class="cls-2" x1="373.44" y1="362.75" x2="373.89" y2="362.83"/><line class="cls-2" x1="373.89" y1="362.83" x2="374.31" y2="362.94"/><line class="cls-2" x1="374.31" y1="362.94" x2="374.76" y2="363.13"/><line class="cls-2" x1="374.76" y1="363.13" x2="375.1" y2="363.28"/><line class="cls-2" x1="375.1" y1="363.28" x2="375.4" y2="363.51"/><line class="cls-2" x1="375.4" y1="363.51" x2="375.71" y2="363.73"/><line class="cls-2" x1="375.71" y1="363.73" x2="375.86" y2="363.85"/><line class="cls-2" x1="375.86" y1="363.85" x2="375.97" y2="363.96"/><line class="cls-2" x1="375.97" y1="363.96" x2="376.12" y2="364.11"/><line class="cls-2" x1="376.12" y1="364.11" x2="376.23" y2="364.3"/><line class="cls-2" x1="376.23" y1="364.3" x2="376.35" y2="364.49"/><line class="cls-2" x1="376.35" y1="364.49" x2="376.46" y2="364.72"/><line class="cls-2" x1="376.46" y1="364.72" x2="376.54" y2="364.91"/><line class="cls-2" x1="376.54" y1="364.91" x2="376.58" y2="365.13"/><line class="cls-2" x1="376.58" y1="365.13" x2="376.61" y2="365.36"/><line class="cls-2" x1="376.61" y1="365.36" x2="376.61" y2="365.59"/><line class="cls-2" x1="376.61" y1="365.59" x2="376.61" y2="365.81"/><line class="cls-2" x1="376.61" y1="365.81" x2="376.58" y2="366.04"/><line class="cls-2" x1="376.58" y1="366.04" x2="376.5" y2="366.27"/><line class="cls-2" x1="376.5" y1="366.27" x2="376.42" y2="366.49"/><line class="cls-2" x1="376.42" y1="366.49" x2="376.31" y2="366.72"/><line class="cls-2" x1="376.31" y1="366.72" x2="376.2" y2="366.91"/><line class="cls-2" x1="376.2" y1="366.91" x2="376.05" y2="367.1"/><line class="cls-2" x1="376.05" y1="367.1" x2="375.89" y2="367.29"/><line class="cls-2" x1="375.89" y1="367.29" x2="375.71" y2="367.44"/><line class="cls-2" x1="375.71" y1="367.44" x2="375.44" y2="367.63"/><line class="cls-2" x1="375.44" y1="367.63" x2="375.18" y2="367.82"/><line class="cls-2" x1="375.18" y1="367.82" x2="374.76" y2="368.04"/><line class="cls-2" x1="374.76" y1="368.04" x2="374.35" y2="368.19"/><line class="cls-2" x1="374.35" y1="368.19" x2="373.89" y2="368.35"/><line class="cls-2" x1="373.89" y1="368.35" x2="373.48" y2="368.42"/><line class="cls-2" x1="373.48" y1="368.42" x2="373.02" y2="368.46"/><line class="cls-2" x1="373.02" y1="368.46" x2="372.57" y2="368.46"/><line class="cls-2" x1="372.57" y1="368.46" x2="372.11" y2="368.42"/><line class="cls-2" x1="372.11" y1="368.42" x2="371.66" y2="368.35"/><line class="cls-2" x1="371.66" y1="368.35" x2="371.21" y2="368.19"/><line class="cls-2" x1="371.21" y1="368.19" x2="370.79" y2="368.04"/><line class="cls-2" x1="370.79" y1="368.04" x2="370.45" y2="367.85"/><line class="cls-2" x1="370.45" y1="367.85" x2="370.15" y2="367.67"/><line class="cls-2" x1="370.15" y1="367.67" x2="369.85" y2="367.44"/><path class="cls-2" d="M371.74,368.42h0a.4.4,0,1,0,0,.8.4.4,0,0,0,0-.8Z"/><line class="cls-2" x1="372.46" y1="369.1" x2="372.46" y2="366.95"/><line class="cls-2" x1="372.46" y1="366.95" x2="373.14" y2="366.95"/><line class="cls-2" x1="373.14" y1="366.95" x2="373.14" y2="369.1"/><line class="cls-2" x1="373.14" y1="369.1" x2="372.46" y2="369.1"/><ellipse class="cls-2" cx="373.82" cy="368.82" rx="0.38" ry="0.4"/><rect class="cls-1" x="397.1" y="343.1" width="14.17" height="28.35"/><line class="cls-2" x1="397.1" y1="343.1" x2="411.27" y2="343.1"/><line class="cls-2" x1="411.27" y1="343.1" x2="411.27" y2="371.45"/><line class="cls-2" x1="411.27" y1="371.45" x2="397.1" y2="371.45"/><line class="cls-2" x1="397.1" y1="371.45" x2="397.1" y2="343.1"/><line class="cls-2" x1="401.9" y1="370.5" x2="401.52" y2="370.46"/><line class="cls-2" x1="401.52" y1="370.46" x2="401.18" y2="370.42"/><line class="cls-2" x1="401.18" y1="370.42" x2="400.84" y2="370.31"/><line class="cls-2" x1="400.84" y1="370.31" x2="400.5" y2="370.2"/><line class="cls-2" x1="400.5" y1="370.2" x2="400.2" y2="370.01"/><line class="cls-2" x1="400.2" y1="370.01" x2="399.9" y2="369.82"/><line class="cls-2" x1="399.9" y1="369.82" x2="399.63" y2="369.59"/><line class="cls-2" x1="399.63" y1="369.59" x2="399.37" y2="369.33"/><line class="cls-2" x1="399.37" y1="369.33" x2="399.14" y2="369.03"/><line class="cls-2" x1="399.14" y1="369.03" x2="398.95" y2="368.72"/><line class="cls-2" x1="398.95" y1="368.72" x2="398.76" y2="368.38"/><line class="cls-2" x1="398.76" y1="368.38" x2="398.65" y2="368.04"/><line class="cls-2" x1="398.65" y1="368.04" x2="398.54" y2="367.74"/><line class="cls-2" x1="398.54" y1="367.74" x2="398.46" y2="367.44"/><line class="cls-2" x1="398.46" y1="367.44" x2="398.42" y2="367.1"/><line class="cls-2" x1="398.42" y1="367.1" x2="398.42" y2="366.8"/><line class="cls-2" x1="398.42" y1="366.8" x2="398.42" y2="349.33"/><line class="cls-2" x1="398.42" y1="349.33" x2="398.46" y2="348.88"/><line class="cls-2" x1="398.46" y1="348.88" x2="398.5" y2="348.43"/><line class="cls-2" x1="398.5" y1="348.43" x2="398.61" y2="347.97"/><line class="cls-2" x1="398.61" y1="347.97" x2="398.72" y2="347.52"/><line class="cls-2" x1="398.72" y1="347.52" x2="398.88" y2="347.1"/><line class="cls-2" x1="398.88" y1="347.1" x2="399.07" y2="346.73"/><line class="cls-2" x1="399.07" y1="346.73" x2="399.29" y2="346.35"/><line class="cls-2" x1="399.29" y1="346.35" x2="399.56" y2="345.97"/><line class="cls-2" x1="399.56" y1="345.97" x2="399.86" y2="345.63"/><line class="cls-2" x1="399.86" y1="345.63" x2="400.16" y2="345.33"/><line class="cls-2" x1="400.16" y1="345.33" x2="400.5" y2="345.02"/><line class="cls-2" x1="400.5" y1="345.02" x2="400.84" y2="344.8"/><line class="cls-2" x1="400.84" y1="344.8" x2="401.22" y2="344.57"/><line class="cls-2" x1="401.22" y1="344.57" x2="401.6" y2="344.38"/><line class="cls-2" x1="401.6" y1="344.38" x2="402.01" y2="344.23"/><line class="cls-2" x1="402.01" y1="344.23" x2="402.43" y2="344.12"/><line class="cls-2" x1="402.43" y1="344.12" x2="402.92" y2="344.04"/><line class="cls-2" x1="402.92" y1="344.04" x2="403.41" y2="344.04"/><line class="cls-2" x1="403.41" y1="344.04" x2="404.89" y2="344.04"/><line class="cls-2" x1="404.89" y1="344.04" x2="405.3" y2="344.04"/><line class="cls-2" x1="405.3" y1="344.04" x2="405.72" y2="344.12"/><line class="cls-2" x1="405.72" y1="344.12" x2="406.13" y2="344.19"/><line class="cls-2" x1="406.13" y1="344.19" x2="406.55" y2="344.34"/><line class="cls-2" x1="406.55" y1="344.34" x2="406.93" y2="344.53"/><line class="cls-2" x1="406.93" y1="344.53" x2="407.3" y2="344.72"/><line class="cls-2" x1="407.3" y1="344.72" x2="407.68" y2="344.95"/><line class="cls-2" x1="407.68" y1="344.95" x2="407.99" y2="345.25"/><line class="cls-2" x1="407.99" y1="345.25" x2="408.33" y2="345.55"/><line class="cls-2" x1="408.33" y1="345.55" x2="408.59" y2="345.89"/><line class="cls-2" x1="408.59" y1="345.89" x2="408.85" y2="346.23"/><line class="cls-2" x1="408.85" y1="346.23" x2="409.08" y2="346.61"/><line class="cls-2" x1="409.08" y1="346.61" x2="409.31" y2="347.03"/><line class="cls-2" x1="409.31" y1="347.03" x2="409.46" y2="347.44"/><line class="cls-2" x1="409.46" y1="347.44" x2="409.57" y2="347.86"/><line class="cls-2" x1="409.57" y1="347.86" x2="409.69" y2="348.31"/><line class="cls-2" x1="409.69" y1="348.31" x2="409.72" y2="348.77"/><line class="cls-2" x1="409.72" y1="348.77" x2="409.76" y2="349.22"/><line class="cls-2" x1="409.76" y1="349.22" x2="409.76" y2="366.72"/><line class="cls-2" x1="409.76" y1="366.72" x2="409.72" y2="367.02"/><line class="cls-2" x1="409.72" y1="367.02" x2="409.69" y2="367.36"/><line class="cls-2" x1="409.69" y1="367.36" x2="409.61" y2="367.74"/><line class="cls-2" x1="409.61" y1="367.74" x2="409.5" y2="368.08"/><line class="cls-2" x1="409.5" y1="368.08" x2="409.35" y2="368.42"/><line class="cls-2" x1="409.35" y1="368.42" x2="409.19" y2="368.76"/><line class="cls-2" x1="409.19" y1="368.76" x2="408.97" y2="369.06"/><line class="cls-2" x1="408.97" y1="369.06" x2="408.74" y2="369.37"/><line class="cls-2" x1="408.74" y1="369.37" x2="408.48" y2="369.59"/><line class="cls-2" x1="408.48" y1="369.59" x2="408.21" y2="369.82"/><line class="cls-2" x1="408.21" y1="369.82" x2="407.91" y2="370.05"/><line class="cls-2" x1="407.91" y1="370.05" x2="407.57" y2="370.2"/><line class="cls-2" x1="407.57" y1="370.2" x2="407.23" y2="370.31"/><line class="cls-2" x1="407.23" y1="370.31" x2="406.89" y2="370.42"/><line class="cls-2" x1="406.89" y1="370.42" x2="406.55" y2="370.46"/><line class="cls-2" x1="406.55" y1="370.46" x2="406.21" y2="370.5"/><line class="cls-2" x1="406.21" y1="370.5" x2="401.9" y2="370.5"/><line class="cls-2" x1="404.21" y1="366.91" x2="404.21" y2="366.95"/><line class="cls-2" x1="404.21" y1="366.95" x2="404.21" y2="366.99"/><line class="cls-2" x1="404.21" y1="366.99" x2="404.21" y2="367.02"/><line class="cls-2" x1="404.21" y1="367.02" x2="404.21" y2="367.06"/><line class="cls-2" x1="404.21" y1="367.06" x2="404.21" y2="367.1"/><line class="cls-2" x1="404.21" y1="367.1" x2="404.24" y2="367.1"/><line class="cls-2" x1="404.24" y1="367.1" x2="404.24" y2="367.14"/><line class="cls-2" x1="404.24" y1="367.14" x2="404.28" y2="367.17"/><line class="cls-2" x1="404.28" y1="367.17" x2="404.32" y2="367.21"/><line class="cls-2" x1="404.32" y1="367.21" x2="404.36" y2="367.25"/><line class="cls-2" x1="404.36" y1="367.25" x2="404.39" y2="367.25"/><line class="cls-2" x1="404.39" y1="367.25" x2="404.39" y2="367.29"/><line class="cls-2" x1="404.39" y1="367.29" x2="404.43" y2="367.29"/><line class="cls-2" x1="404.43" y1="367.29" x2="404.47" y2="367.29"/><line class="cls-2" x1="404.47" y1="367.29" x2="404.51" y2="367.33"/><line class="cls-2" x1="404.51" y1="367.33" x2="404.55" y2="367.33"/><line class="cls-2" x1="404.55" y1="367.33" x2="404.58" y2="367.33"/><line class="cls-2" x1="404.58" y1="367.33" x2="404.62" y2="367.33"/><line class="cls-2" x1="404.62" y1="367.33" x2="404.66" y2="367.29"/><line class="cls-2" x1="404.66" y1="367.29" x2="404.7" y2="367.29"/><line class="cls-2" x1="404.7" y1="367.29" x2="404.73" y2="367.29"/><line class="cls-2" x1="404.73" y1="367.29" x2="404.73" y2="367.25"/><line class="cls-2" x1="404.73" y1="367.25" x2="404.77" y2="367.25"/><line class="cls-2" x1="404.77" y1="367.25" x2="404.81" y2="367.21"/><line class="cls-2" x1="404.81" y1="367.21" x2="404.85" y2="367.17"/><line class="cls-2" x1="404.85" y1="367.17" x2="404.85" y2="367.14"/><line class="cls-2" x1="404.85" y1="367.14" x2="404.89" y2="367.14"/><line class="cls-2" x1="404.89" y1="367.14" x2="404.89" y2="367.1"/><line class="cls-2" x1="404.89" y1="367.1" x2="404.92" y2="367.06"/><line class="cls-2" x1="404.92" y1="367.06" x2="404.92" y2="367.02"/><line class="cls-2" x1="404.92" y1="367.02" x2="404.92" y2="366.99"/><line class="cls-2" x1="404.92" y1="366.99" x2="404.92" y2="366.95"/><line class="cls-2" x1="404.92" y1="366.95" x2="404.92" y2="366.91"/><line class="cls-2" x1="404.92" y1="366.91" x2="404.92" y2="366.87"/><line class="cls-2" x1="404.92" y1="366.87" x2="404.92" y2="366.83"/><line class="cls-2" x1="404.92" y1="366.83" x2="404.92" y2="366.8"/><line class="cls-2" x1="404.92" y1="366.8" x2="404.92" y2="366.76"/><line class="cls-2" x1="404.92" y1="366.76" x2="404.89" y2="366.76"/><line class="cls-2" x1="404.89" y1="366.76" x2="404.89" y2="366.72"/><line class="cls-2" x1="404.89" y1="366.72" x2="404.85" y2="366.68"/><line class="cls-2" x1="404.85" y1="366.68" x2="404.85" y2="366.65"/><line class="cls-2" x1="404.85" y1="366.65" x2="404.81" y2="366.65"/><line class="cls-2" x1="404.81" y1="366.65" x2="404.81" y2="366.61"/><line class="cls-2" x1="404.81" y1="366.61" x2="404.77" y2="366.61"/><line class="cls-2" x1="404.77" y1="366.61" x2="404.77" y2="366.57"/><line class="cls-2" x1="404.77" y1="366.57" x2="404.73" y2="366.57"/><line class="cls-2" x1="404.73" y1="366.57" x2="404.7" y2="366.53"/><line class="cls-2" x1="404.7" y1="366.53" x2="404.66" y2="366.53"/><line class="cls-2" x1="404.66" y1="366.53" x2="404.62" y2="366.53"/><line class="cls-2" x1="404.62" y1="366.53" x2="404.58" y2="366.53"/><line class="cls-2" x1="404.58" y1="366.53" x2="404.55" y2="366.53"/><line class="cls-2" x1="404.55" y1="366.53" x2="404.51" y2="366.53"/><line class="cls-2" x1="404.51" y1="366.53" x2="404.47" y2="366.53"/><line class="cls-2" x1="404.47" y1="366.53" x2="404.43" y2="366.53"/><line class="cls-2" x1="404.43" y1="366.53" x2="404.39" y2="366.57"/><line class="cls-2" x1="404.39" y1="366.57" x2="404.36" y2="366.57"/><line class="cls-2" x1="404.36" y1="366.57" x2="404.36" y2="366.61"/><line class="cls-2" x1="404.36" y1="366.61" x2="404.32" y2="366.61"/><line class="cls-2" x1="404.32" y1="366.61" x2="404.32" y2="366.65"/><line class="cls-2" x1="404.32" y1="366.65" x2="404.28" y2="366.65"/><line class="cls-2" x1="404.28" y1="366.65" x2="404.24" y2="366.68"/><line class="cls-2" x1="404.24" y1="366.68" x2="404.24" y2="366.72"/><line class="cls-2" x1="404.24" y1="366.72" x2="404.21" y2="366.76"/><line class="cls-2" x1="404.21" y1="366.76" x2="404.21" y2="366.8"/><line class="cls-2" x1="404.21" y1="366.8" x2="404.21" y2="366.83"/><line class="cls-2" x1="404.21" y1="366.83" x2="404.21" y2="366.87"/><line class="cls-2" x1="404.21" y1="366.87" x2="404.21" y2="366.91"/><polygon class="cls-3" points="386.52 371.11 386.25 371.37 386.29 371.33 386.29 371.29 386.29 371.26 386.29 371.22 386.33 371.22 386.33 371.18 386.37 371.18 386.4 371.14 386.44 371.14 386.48 371.11 386.52 371.11"/><polygon class="cls-3" points="391.39 371.37 391.17 371.11 391.2 371.11 391.24 371.14 391.28 371.14 391.32 371.18 391.35 371.22 391.39 371.26 391.39 371.29 391.39 371.33 391.39 371.37"/><polygon class="cls-3" points="391.39 371.67 386.25 371.67 386.25 371.37 386.52 371.11 391.17 371.11 391.39 371.37 391.39 371.67"/><line class="cls-2" x1="386.25" y1="371.67" x2="386.25" y2="371.37"/><line class="cls-2" x1="386.25" y1="371.37" x2="386.25" y2="371.33"/><line class="cls-2" x1="386.25" y1="371.33" x2="386.29" y2="371.29"/><line class="cls-2" x1="386.29" y1="371.29" x2="386.29" y2="371.26"/><line class="cls-2" x1="386.29" y1="371.26" x2="386.29" y2="371.22"/><line class="cls-2" x1="386.29" y1="371.22" x2="386.33" y2="371.22"/><line class="cls-2" x1="386.33" y1="371.22" x2="386.33" y2="371.18"/><line class="cls-2" x1="386.33" y1="371.18" x2="386.36" y2="371.18"/><line class="cls-2" x1="386.36" y1="371.18" x2="386.4" y2="371.14"/><line class="cls-2" x1="386.4" y1="371.14" x2="386.44" y2="371.14"/><line class="cls-2" x1="386.44" y1="371.14" x2="386.44" y2="371.11"/><line class="cls-2" x1="386.44" y1="371.11" x2="386.48" y2="371.11"/><line class="cls-2" x1="386.48" y1="371.11" x2="386.52" y2="371.11"/><line class="cls-2" x1="386.52" y1="371.11" x2="391.17" y2="371.11"/><line class="cls-2" x1="391.17" y1="371.11" x2="391.2" y2="371.11"/><line class="cls-2" x1="391.2" y1="371.11" x2="391.24" y2="371.14"/><line class="cls-2" x1="391.24" y1="371.14" x2="391.28" y2="371.14"/><line class="cls-2" x1="391.28" y1="371.14" x2="391.32" y2="371.18"/><line class="cls-2" x1="391.32" y1="371.18" x2="391.35" y2="371.18"/><line class="cls-2" x1="391.35" y1="371.18" x2="391.35" y2="371.22"/><line class="cls-2" x1="391.35" y1="371.22" x2="391.39" y2="371.26"/><line class="cls-2" x1="391.39" y1="371.26" x2="391.39" y2="371.29"/><line class="cls-2" x1="391.39" y1="371.29" x2="391.39" y2="371.33"/><line class="cls-2" x1="391.39" y1="371.33" x2="391.39" y2="371.37"/><line class="cls-2" x1="391.39" y1="371.37" x2="391.39" y2="371.67"/><line class="cls-2" x1="391.39" y1="371.67" x2="386.25" y2="371.67"/><line class="cls-2" x1="384.32" y1="370.99" x2="393.36" y2="370.99"/><line class="cls-2" x1="393.36" y1="370.99" x2="393.36" y2="366.23"/><line class="cls-2" x1="393.36" y1="366.23" x2="392.87" y2="365.78"/><line class="cls-2" x1="392.87" y1="365.78" x2="384.78" y2="365.78"/><line class="cls-2" x1="384.78" y1="365.78" x2="384.32" y2="366.23"/><line class="cls-2" x1="384.32" y1="366.23" x2="384.32" y2="370.99"/><line class="cls-2" x1="384.32" y1="370.99" x2="384.29" y2="370.99"/><line class="cls-2" x1="384.29" y1="370.99" x2="384.29" y2="366.23"/><line class="cls-2" x1="384.29" y1="366.23" x2="384.78" y2="365.78"/><line class="cls-2" x1="384.78" y1="365.78" x2="392.9" y2="365.78"/><line class="cls-2" x1="392.9" y1="365.78" x2="393.36" y2="366.23"/><line class="cls-2" x1="393.36" y1="366.23" x2="393.36" y2="370.99"/><line class="cls-2" x1="393.36" y1="370.99" x2="384.29" y2="370.99"/><line class="cls-2" x1="392" y1="365.78" x2="392" y2="365.44"/><line class="cls-2" x1="392" y1="365.44" x2="393.09" y2="365.44"/><line class="cls-2" x1="393.09" y1="365.44" x2="393.09" y2="365.93"/><line class="cls-2" x1="393.09" y1="365.93" x2="393.06" y2="365.93"/><line class="cls-2" x1="385.46" y1="365.32" x2="385.53" y2="365.78"/><line class="cls-2" x1="385.53" y1="365.78" x2="385.34" y2="364.87"/><line class="cls-2" x1="385.34" y1="364.87" x2="385.42" y2="363.21"/><line class="cls-2" x1="385.42" y1="363.21" x2="385.46" y2="365.32"/><line class="cls-2" x1="391.77" y1="359.58" x2="391.85" y2="359.69"/><line class="cls-2" x1="391.85" y1="359.69" x2="392.03" y2="360.64"/><line class="cls-2" x1="391.66" y1="359.2" x2="391.54" y2="358.82"/><line class="cls-2" x1="391.54" y1="358.82" x2="391.17" y2="357.95"/><line class="cls-2" x1="391.17" y1="357.95" x2="390.75" y2="357.27"/><line class="cls-2" x1="390.75" y1="357.27" x2="390.71" y2="357.2"/><line class="cls-2" x1="390.71" y1="357.2" x2="390.67" y2="357.16"/><line class="cls-2" x1="390.67" y1="357.16" x2="390.64" y2="357.12"/><line class="cls-2" x1="386.02" y1="359.2" x2="386.14" y2="358.82"/><line class="cls-2" x1="386.14" y1="358.82" x2="386.52" y2="357.95"/><line class="cls-2" x1="386.52" y1="357.95" x2="386.55" y2="357.88"/><line class="cls-2" x1="386.55" y1="357.88" x2="386.59" y2="357.76"/><line class="cls-2" x1="386.59" y1="357.76" x2="386.67" y2="357.57"/><line class="cls-2" x1="386.67" y1="357.57" x2="386.89" y2="357.27"/><line class="cls-2" x1="386.89" y1="357.27" x2="387.01" y2="357.12"/><line class="cls-2" x1="385.65" y1="360.64" x2="385.84" y2="359.69"/><line class="cls-2" x1="385.84" y1="359.69" x2="385.87" y2="359.58"/><line class="cls-2" x1="392.19" y1="365.32" x2="392.22" y2="363.21"/><line class="cls-2" x1="392.22" y1="363.21" x2="392.19" y2="365.32"/><line class="cls-2" x1="392.19" y1="365.32" x2="392.19" y2="365.44"/><line class="cls-2" x1="385.46" y1="361.43" x2="385.53" y2="360.6"/><line class="cls-2" x1="385.53" y1="360.6" x2="385.72" y2="359.69"/><line class="cls-2" x1="385.72" y1="359.69" x2="386.02" y2="358.78"/><line class="cls-2" x1="386.02" y1="358.78" x2="386.4" y2="357.91"/><line class="cls-2" x1="386.4" y1="357.91" x2="386.82" y2="357.2"/><line class="cls-2" x1="386.82" y1="357.2" x2="386.89" y2="357.12"/><line class="cls-2" x1="386.89" y1="357.12" x2="386.93" y2="357.08"/><line class="cls-2" x1="386.93" y1="357.08" x2="386.93" y2="357.04"/><line class="cls-2" x1="386.93" y1="357.04" x2="386.97" y2="357.04"/><line class="cls-2" x1="386.97" y1="357.04" x2="387.8" y2="356.44"/><line class="cls-2" x1="387.8" y1="356.44" x2="388.82" y2="356.25"/><line class="cls-2" x1="388.82" y1="356.25" x2="389.84" y2="356.44"/><line class="cls-2" x1="389.84" y1="356.44" x2="390.71" y2="357.04"/><line class="cls-2" x1="390.71" y1="357.04" x2="390.86" y2="357.2"/><line class="cls-2" x1="390.86" y1="357.2" x2="391.09" y2="357.54"/><line class="cls-2" x1="391.09" y1="357.54" x2="391.2" y2="357.72"/><line class="cls-2" x1="391.2" y1="357.72" x2="391.24" y2="357.8"/><line class="cls-2" x1="391.24" y1="357.8" x2="391.28" y2="357.91"/><line class="cls-2" x1="391.28" y1="357.91" x2="391.66" y2="358.78"/><line class="cls-2" x1="391.66" y1="358.78" x2="391.96" y2="359.69"/><line class="cls-2" x1="391.96" y1="359.69" x2="392.15" y2="360.6"/><line class="cls-2" x1="392.15" y1="360.6" x2="392.22" y2="361.43"/><line class="cls-2" x1="385.42" y1="363.21" x2="385.95" y2="364.38"/><line class="cls-2" x1="385.95" y1="364.38" x2="386.78" y2="365.36"/><line class="cls-2" x1="386.78" y1="365.36" x2="390.86" y2="365.36"/><line class="cls-2" x1="390.86" y1="365.36" x2="391.73" y2="364.38"/><line class="cls-2" x1="391.73" y1="364.38" x2="392.22" y2="363.21"/><line class="cls-2" x1="392.3" y1="362.34" x2="392.37" y2="362.98"/><line class="cls-2" x1="392.37" y1="362.98" x2="392.34" y2="365.32"/><line class="cls-2" x1="392.34" y1="365.32" x2="392.3" y2="365.44"/><line class="cls-2" x1="389.69" y1="371.11" x2="391.17" y2="371.11"/><line class="cls-2" x1="391.17" y1="371.11" x2="391.28" y2="371.14"/><line class="cls-2" x1="391.28" y1="371.14" x2="391.35" y2="371.22"/><line class="cls-2" x1="391.35" y1="371.22" x2="391.39" y2="371.33"/><line class="cls-2" x1="391.39" y1="371.33" x2="391.39" y2="371.67"/><line class="cls-2" x1="391.39" y1="371.67" x2="386.25" y2="371.67"/><line class="cls-2" x1="386.25" y1="371.67" x2="386.25" y2="371.33"/><line class="cls-2" x1="386.25" y1="371.33" x2="386.29" y2="371.22"/><line class="cls-2" x1="386.29" y1="371.22" x2="386.4" y2="371.14"/><line class="cls-2" x1="386.4" y1="371.14" x2="386.52" y2="371.11"/><line class="cls-2" x1="386.52" y1="371.11" x2="387.8" y2="371.11"/><line class="cls-2" x1="389.69" y1="370.99" x2="389.69" y2="371.11"/><line class="cls-2" x1="389.69" y1="371.11" x2="387.8" y2="371.11"/><line class="cls-2" x1="387.8" y1="371.11" x2="387.8" y2="370.99"/><line class="cls-2" x1="390.14" y1="370.99" x2="390.14" y2="371.03"/><line class="cls-2" x1="390.14" y1="371.03" x2="390.07" y2="371.07"/><line class="cls-2" x1="390.07" y1="371.07" x2="389.99" y2="371.11"/><line class="cls-2" x1="387.5" y1="371.11" x2="387.46" y2="371.07"/><line class="cls-2" x1="387.46" y1="371.07" x2="387.39" y2="371.03"/><line class="cls-2" x1="387.39" y1="371.03" x2="387.39" y2="370.99"/><line class="cls-2" x1="390.3" y1="370.99" x2="390.3" y2="371.11"/><line class="cls-2" x1="387.23" y1="371.11" x2="387.23" y2="370.99"/><rect class="cls-1" x="385.31" y="362.83" width="6.99" height="2.95"/><line class="cls-2" x1="385.31" y1="365.78" x2="385.31" y2="362.83"/><line class="cls-2" x1="385.31" y1="362.83" x2="392.3" y2="362.83"/><line class="cls-2" x1="392.3" y1="362.83" x2="392.3" y2="365.78"/><line class="cls-2" x1="392.3" y1="365.78" x2="385.31" y2="365.78"/><rect class="cls-1" x="392" y="365.44" width="1.1" height="0.49"/><line class="cls-2" x1="392" y1="365.93" x2="392" y2="365.44"/><line class="cls-2" x1="392" y1="365.44" x2="393.09" y2="365.44"/><line class="cls-2" x1="393.09" y1="365.44" x2="393.09" y2="365.93"/><line class="cls-2" x1="393.09" y1="365.93" x2="392" y2="365.93"/><polygon class="cls-3" points="393.36 371.03 384.32 371.03 384.32 366.23 384.78 365.78 392.87 365.78 393.36 366.23 393.36 371.03"/><line class="cls-2" x1="384.32" y1="371.03" x2="384.32" y2="366.23"/><line class="cls-2" x1="384.32" y1="366.23" x2="384.78" y2="365.78"/><line class="cls-2" x1="384.78" y1="365.78" x2="392.87" y2="365.78"/><line class="cls-2" x1="392.87" y1="365.78" x2="393.36" y2="366.23"/><line class="cls-2" x1="393.36" y1="366.23" x2="393.36" y2="371.03"/><line class="cls-2" x1="393.36" y1="371.03" x2="384.32" y2="371.03"/><line class="cls-2" x1="392" y1="365.44" x2="391.96" y2="365.78"/><line class="cls-2" x1="391.96" y1="365.78" x2="385.38" y2="365.78"/><line class="cls-2" x1="385.38" y1="365.78" x2="385.34" y2="365.32"/><line class="cls-2" x1="385.34" y1="365.32" x2="385.31" y2="362.98"/><line class="cls-2" x1="385.31" y1="362.98" x2="385.34" y2="362.34"/><polygon class="cls-3" points="392.04 360.63 391.28 358.22 391.73 359.39 392.04 360.63"/><polygon class="cls-3" points="391.28 358.22 392.04 360.63 392.34 361.88 392.26 363.17 391.73 364.38 390.86 365.36 386.78 365.36 385.95 364.38 385.42 363.17 385.34 361.88 385.65 360.63 386.4 358.22 387.05 357.12 387.54 356.67 388.14 356.4 388.82 356.36 389.54 356.4 390.14 356.67 390.64 357.12 391.28 358.22"/><polygon class="cls-3" points="389.54 356.4 388.82 356.36 388.9 356.36 388.97 356.36 389.12 356.36 389.39 356.36 389.54 356.4"/><polygon class="cls-3" points="386.4 358.22 385.65 360.63 385.91 359.39 386.4 358.22"/><line class="cls-2" x1="390.14" y1="356.67" x2="390.64" y2="357.12"/><line class="cls-2" x1="390.64" y1="357.12" x2="391.28" y2="358.22"/><line class="cls-2" x1="391.28" y1="358.22" x2="391.73" y2="359.39"/><line class="cls-2" x1="391.73" y1="359.39" x2="392.03" y2="360.64"/><line class="cls-2" x1="392.03" y1="360.64" x2="392.34" y2="361.88"/><line class="cls-2" x1="392.34" y1="361.88" x2="392.26" y2="363.17"/><line class="cls-2" x1="392.26" y1="363.17" x2="391.73" y2="364.38"/><line class="cls-2" x1="391.73" y1="364.38" x2="390.86" y2="365.36"/><line class="cls-2" x1="390.86" y1="365.36" x2="386.78" y2="365.36"/><line class="cls-2" x1="386.78" y1="365.36" x2="385.95" y2="364.38"/><line class="cls-2" x1="385.95" y1="364.38" x2="385.42" y2="363.17"/><line class="cls-2" x1="385.42" y1="363.17" x2="385.34" y2="361.88"/><line class="cls-2" x1="385.34" y1="361.88" x2="385.65" y2="360.64"/><line class="cls-2" x1="385.65" y1="360.64" x2="385.91" y2="359.39"/><line class="cls-2" x1="385.91" y1="359.39" x2="386.4" y2="358.22"/><line class="cls-2" x1="386.4" y1="358.22" x2="387.05" y2="357.12"/><line class="cls-2" x1="387.05" y1="357.12" x2="387.54" y2="356.67"/><line class="cls-2" x1="387.54" y1="356.67" x2="388.14" y2="356.4"/><line class="cls-2" x1="388.14" y1="356.4" x2="388.82" y2="356.36"/><line class="cls-2" x1="388.82" y1="356.36" x2="388.9" y2="356.36"/><line class="cls-2" x1="388.9" y1="356.36" x2="388.97" y2="356.36"/><line class="cls-2" x1="388.97" y1="356.36" x2="389.12" y2="356.36"/><line class="cls-2" x1="389.12" y1="356.36" x2="389.39" y2="356.36"/><line class="cls-2" x1="389.39" y1="356.36" x2="389.54" y2="356.4"/><line class="cls-2" x1="389.54" y1="356.4" x2="390.14" y2="356.67"/><rect class="cls-4" x="365.69" y="371.67" width="45.36" height="1.66"/><rect class="cls-4" x="365.69" y="341.66" width="2.23" height="1.66"/><rect class="cls-4" x="381.87" y="341.66" width="29.18" height="1.66"/><rect class="cls-4" x="364.03" y="340.38" width="1.66" height="32.96"/><line class="cls-2" x1="365.69" y1="373.34" x2="411.05" y2="373.34"/><line class="cls-2" x1="411.05" y1="371.67" x2="365.69" y2="371.67"/><line class="cls-2" x1="410.82" y1="371.45" x2="365.92" y2="371.45"/><line class="cls-2" x1="410.82" y1="357.92" x2="410.82" y2="370.05"/><line class="cls-2" x1="410.82" y1="343.55" x2="410.82" y2="371.45"/><line class="cls-2" x1="411.05" y1="343.32" x2="411.05" y2="371.67"/><line class="cls-2" x1="411.05" y1="357.81" x2="411.05" y2="370.17"/><line class="cls-2" x1="367.92" y1="341.43" x2="365.92" y2="341.43"/><line class="cls-2" x1="410.82" y1="341.43" x2="381.87" y2="341.43"/><line class="cls-2" x1="367.92" y1="341.43" x2="367.92" y2="343.55"/><line class="cls-2" x1="381.87" y1="341.43" x2="381.87" y2="343.55"/><line class="cls-2" x1="367.92" y1="341.66" x2="365.69" y2="341.66"/><line class="cls-2" x1="411.05" y1="341.66" x2="381.87" y2="341.66"/><line class="cls-2" x1="367.92" y1="341.66" x2="367.92" y2="343.32"/><line class="cls-2" x1="381.87" y1="341.66" x2="381.87" y2="343.32"/><line class="cls-2" x1="365.69" y1="343.32" x2="367.92" y2="343.32"/><line class="cls-2" x1="381.87" y1="343.32" x2="411.05" y2="343.32"/><line class="cls-2" x1="365.92" y1="343.55" x2="367.92" y2="343.55"/><line class="cls-2" x1="381.87" y1="343.55" x2="410.82" y2="343.55"/><line class="cls-2" x1="381.87" y1="341.43" x2="381.49" y2="341.43"/><line class="cls-2" x1="381.87" y1="343.55" x2="381.49" y2="343.55"/><line class="cls-2" x1="381.87" y1="341.43" x2="381.87" y2="343.55"/><line class="cls-2" x1="381.49" y1="341.43" x2="381.49" y2="343.55"/><line class="cls-2" x1="368.26" y1="341.43" x2="367.92" y2="341.43"/><line class="cls-2" x1="368.26" y1="343.55" x2="367.92" y2="343.55"/><line class="cls-2" x1="368.26" y1="341.43" x2="368.26" y2="343.55"/><line class="cls-2" x1="367.92" y1="341.43" x2="367.92" y2="343.55"/><line class="cls-2" x1="368.26" y1="343.55" x2="368.26" y2="356.78"/><line class="cls-2" x1="368.94" y1="343.55" x2="368.94" y2="356.78"/><line class="cls-2" x1="368.26" y1="356.78" x2="368.94" y2="356.78"/><line class="cls-2" x1="368.94" y1="343.55" x2="368.26" y2="343.55"/><line class="cls-2" x1="381.49" y1="343.55" x2="381.45" y2="344.68"/><line class="cls-2" x1="381.45" y1="344.68" x2="381.34" y2="345.78"/><line class="cls-2" x1="381.34" y1="345.78" x2="381.07" y2="346.88"/><line class="cls-2" x1="381.07" y1="346.88" x2="380.77" y2="347.97"/><line class="cls-2" x1="380.77" y1="347.97" x2="380.32" y2="349.03"/><line class="cls-2" x1="380.32" y1="349.03" x2="379.83" y2="350.01"/><line class="cls-2" x1="379.83" y1="350.01" x2="379.22" y2="351"/><line class="cls-2" x1="379.22" y1="351" x2="378.54" y2="351.9"/><line class="cls-2" x1="378.54" y1="351.9" x2="377.78" y2="352.74"/><line class="cls-2" x1="377.78" y1="352.74" x2="376.99" y2="353.53"/><line class="cls-2" x1="376.99" y1="353.53" x2="376.08" y2="354.25"/><line class="cls-2" x1="376.08" y1="354.25" x2="375.14" y2="354.85"/><line class="cls-2" x1="375.14" y1="354.85" x2="374.16" y2="355.42"/><line class="cls-2" x1="374.16" y1="355.42" x2="373.1" y2="355.87"/><line class="cls-2" x1="373.1" y1="355.87" x2="372.04" y2="356.25"/><line class="cls-2" x1="372.04" y1="356.25" x2="370.94" y2="356.52"/><line class="cls-2" x1="370.94" y1="356.52" x2="369.81" y2="356.7"/><line class="cls-2" x1="369.81" y1="356.7" x2="368.68" y2="356.78"/><line class="cls-2" x1="368.68" y1="356.78" x2="368.26" y2="356.78"/><line class="cls-2" x1="381.64" y1="341.43" x2="381.64" y2="341.13"/><line class="cls-2" x1="381.64" y1="341.13" x2="383.15" y2="341.13"/><line class="cls-2" x1="383.15" y1="341.43" x2="383.15" y2="341.13"/><line class="cls-2" x1="368.15" y1="341.43" x2="368.15" y2="341.13"/><line class="cls-2" x1="366.63" y1="341.13" x2="368.15" y2="341.13"/><line class="cls-2" x1="366.63" y1="341.43" x2="366.63" y2="341.13"/><line class="cls-2" x1="368.15" y1="343.55" x2="368.15" y2="343.85"/><line class="cls-2" x1="366.63" y1="343.85" x2="368.15" y2="343.85"/><line class="cls-2" x1="366.63" y1="343.55" x2="366.63" y2="343.85"/><line class="cls-2" x1="381.64" y1="343.55" x2="381.64" y2="343.85"/><line class="cls-2" x1="381.64" y1="343.85" x2="383.15" y2="343.85"/><line class="cls-2" x1="383.15" y1="343.55" x2="383.15" y2="343.85"/><line class="cls-2" x1="363.8" y1="340.38" x2="363.8" y2="373.34"/><line class="cls-2" x1="363.8" y1="340.38" x2="365.92" y2="340.38"/><line class="cls-2" x1="364.03" y1="340.38" x2="364.03" y2="373.34"/><line class="cls-2" x1="364.03" y1="340.38" x2="365.69" y2="340.38"/><line class="cls-2" x1="365.69" y1="373.34" x2="365.69" y2="371.65"/><line class="cls-2" x1="365.69" y1="371.67" x2="365.69" y2="343.32"/><line class="cls-2" x1="365.69" y1="341.66" x2="365.69" y2="340.38"/><line class="cls-2" x1="365.92" y1="373.34" x2="365.92" y2="371.86"/><line class="cls-2" x1="365.92" y1="371.45" x2="365.92" y2="343.55"/><line class="cls-2" x1="365.92" y1="341.43" x2="365.92" y2="340.38"/><line class="cls-2" x1="363.8" y1="340" x2="363.8" y2="340.38"/><line class="cls-2" x1="365.92" y1="340" x2="365.92" y2="340.38"/><line class="cls-2" x1="363.8" y1="340" x2="365.92" y2="340"/><line class="cls-2" x1="363.8" y1="340.38" x2="365.92" y2="340.38"/><line class="cls-2" x1="363.8" y1="340.15" x2="363.5" y2="340.15"/><line class="cls-2" x1="363.5" y1="341.66" x2="363.5" y2="340.15"/><line class="cls-2" x1="363.8" y1="341.66" x2="363.5" y2="341.66"/><line class="cls-2" x1="365.92" y1="340.15" x2="366.22" y2="340.15"/><line class="cls-2" x1="366.22" y1="341.66" x2="366.22" y2="340.15"/><line class="cls-2" x1="365.92" y1="341.66" x2="366.22" y2="341.66"/><line class="cls-2" x1="411.05" y1="357.81" x2="411.05" y2="367.26"/><text class="cls-5" transform="translate(378.56 355.87)">BATH</text><rect class="cls-4" x="411.05" y="341.43" width="1.66" height="32.13"/><line class="cls-2" x1="410.82" y1="341.43" x2="410.82" y2="371.45"/><line class="cls-2" x1="411.05" y1="341.43" x2="411.05" y2="346.94"/><line class="cls-2" x1="412.71" y1="372.67" x2="412.71" y2="341.43"/><line class="cls-2" x1="412.94" y1="372.57" x2="412.94" y2="341.43"/></g><g id="BED_6" data-name="BED#6"><polygon class="cls-3" points="346.75 396.73 346.34 396.73 317.57 396.73 317.08 396.73 317.08 359.77 346.75 359.77 346.75 396.73"/><rect class="cls-1" x="317.57" y="396.73" width="28.76" height="0.45"/><line class="cls-2" x1="346.34" y1="396.73" x2="346.34" y2="397.19"/><line class="cls-2" x1="317.57" y1="397.19" x2="317.57" y2="396.73"/><line class="cls-2" x1="317.57" y1="396.73" x2="317.08" y2="396.73"/><line class="cls-2" x1="317.08" y1="396.73" x2="317.08" y2="359.77"/><line class="cls-2" x1="317.08" y1="359.77" x2="346.75" y2="359.77"/><line class="cls-2" x1="346.75" y1="359.77" x2="346.75" y2="396.73"/><line class="cls-2" x1="346.75" y1="396.73" x2="346.34" y2="396.73"/><rect class="cls-1" x="317.57" y="395.9" width="28.76" height="1.29"/><line class="cls-2" x1="317.57" y1="397.19" x2="317.57" y2="395.9"/><line class="cls-2" x1="317.57" y1="395.9" x2="346.34" y2="395.9"/><line class="cls-2" x1="346.34" y1="395.9" x2="346.34" y2="397.19"/><line class="cls-2" x1="319.24" y1="395.9" x2="319.16" y2="395.67"/><line class="cls-2" x1="319.16" y1="395.67" x2="319.46" y2="394.8"/><line class="cls-2" x1="319.46" y1="394.8" x2="319.08" y2="392.08"/><line class="cls-2" x1="319.08" y1="392.08" x2="319.58" y2="389.89"/><line class="cls-2" x1="332.05" y1="395.9" x2="332.01" y2="395.67"/><line class="cls-2" x1="332.01" y1="395.67" x2="332.28" y2="394.8"/><line class="cls-2" x1="332.28" y1="394.8" x2="331.9" y2="392.08"/><line class="cls-2" x1="331.9" y1="392.08" x2="331.52" y2="394.8"/><line class="cls-2" x1="331.52" y1="394.8" x2="331.82" y2="395.79"/><line class="cls-2" x1="331.82" y1="395.79" x2="331.78" y2="395.9"/><line class="cls-2" x1="343.92" y1="384.79" x2="343.99" y2="384.79"/><line class="cls-2" x1="343.99" y1="384.79" x2="344.48" y2="384.94"/><line class="cls-2" x1="344.48" y1="384.94" x2="344.6" y2="385.51"/><line class="cls-2" x1="344.6" y1="385.51" x2="344.18" y2="387.28"/><line class="cls-2" x1="344.18" y1="387.28" x2="344.37" y2="389.89"/><line class="cls-2" x1="344.37" y1="389.89" x2="344.75" y2="392.08"/><line class="cls-2" x1="344.75" y1="392.08" x2="344.33" y2="394.8"/><line class="cls-2" x1="344.33" y1="394.8" x2="344.67" y2="395.79"/><line class="cls-2" x1="344.67" y1="395.79" x2="344.64" y2="395.9"/><line class="cls-2" x1="319.2" y1="385.51" x2="319.24" y2="387.24"/><line class="cls-2" x1="319.24" y1="387.24" x2="319.58" y2="389.89"/><line class="cls-2" x1="319.58" y1="389.89" x2="320.41" y2="387.89"/><line class="cls-2" x1="331.9" y1="392.08" x2="332.43" y2="389.89"/><line class="cls-2" x1="332.43" y1="389.89" x2="333.22" y2="387.89"/><line class="cls-2" x1="332.16" y1="387.96" x2="332.05" y2="387.24"/><line class="cls-2" x1="332.05" y1="387.24" x2="332.01" y2="385.51"/><line class="cls-2" x1="332.01" y1="385.51" x2="332.05" y2="387.24"/><line class="cls-2" x1="332.05" y1="387.24" x2="332.43" y2="389.89"/><line class="cls-2" x1="331.37" y1="387.28" x2="331.52" y2="389.89"/><line class="cls-2" x1="331.52" y1="389.89" x2="331.9" y2="392.08"/><line class="cls-2" x1="331.52" y1="389.89" x2="331.33" y2="387.28"/><line class="cls-2" x1="331.33" y1="387.28" x2="331.78" y2="385.51"/><line class="cls-2" x1="331.78" y1="385.51" x2="331.67" y2="384.94"/><line class="cls-2" x1="331.67" y1="384.94" x2="331.14" y2="384.79"/><line class="cls-2" x1="331.14" y1="384.79" x2="329.1" y2="385.09"/><line class="cls-2" x1="329.1" y1="385.09" x2="326.61" y2="384.79"/><line class="cls-2" x1="326.61" y1="384.79" x2="324.53" y2="385.05"/><line class="cls-2" x1="324.53" y1="385.05" x2="322.71" y2="385.17"/><line class="cls-2" x1="322.71" y1="385.17" x2="321.92" y2="385.24"/><line class="cls-2" x1="321.92" y1="385.24" x2="320.41" y2="385.09"/><line class="cls-2" x1="320.41" y1="385.09" x2="320.03" y2="384.94"/><line class="cls-2" x1="320.03" y1="384.94" x2="319.88" y2="384.94"/><line class="cls-2" x1="319.88" y1="384.94" x2="319.35" y2="384.98"/><line class="cls-2" x1="319.35" y1="384.98" x2="319.2" y2="385.51"/><line class="cls-2" x1="319.2" y1="385.51" x2="319.2" y2="387.24"/><line class="cls-2" x1="319.2" y1="387.24" x2="319.31" y2="387.96"/><line class="cls-2" x1="332.01" y1="385.51" x2="332.16" y2="384.98"/><line class="cls-2" x1="332.16" y1="384.98" x2="332.69" y2="384.94"/><line class="cls-2" x1="332.69" y1="384.94" x2="334.77" y2="385.2"/><line class="cls-2" x1="334.77" y1="385.2" x2="337.38" y2="385.05"/><line class="cls-2" x1="337.38" y1="385.05" x2="339.42" y2="384.79"/><line class="cls-2" x1="339.42" y1="384.79" x2="339.46" y2="384.79"/><line class="cls-2" x1="331.75" y1="385.28" x2="331.78" y2="385.51"/><line class="cls-2" x1="331.78" y1="385.51" x2="331.37" y2="387.28"/><line class="cls-2" x1="342.41" y1="361.69" x2="343.43" y2="361.54"/><line class="cls-2" x1="343.43" y1="361.54" x2="344.07" y2="361.81"/><line class="cls-2" x1="344.07" y1="361.81" x2="344.56" y2="362.3"/><line class="cls-2" x1="344.56" y1="362.3" x2="344.82" y2="362.98"/><line class="cls-2" x1="344.82" y1="362.98" x2="344.82" y2="394.12"/><line class="cls-2" x1="344.82" y1="394.12" x2="344.56" y2="394.8"/><line class="cls-2" x1="344.56" y1="394.8" x2="344.41" y2="394.96"/><line class="cls-2" x1="332.05" y1="395.56" x2="331.75" y2="395.56"/><line class="cls-2" x1="319.39" y1="394.92" x2="319.27" y2="394.8"/><line class="cls-2" x1="319.27" y1="394.8" x2="319.01" y2="394.12"/><line class="cls-2" x1="319.01" y1="394.12" x2="319.01" y2="362.98"/><line class="cls-2" x1="319.01" y1="362.98" x2="319.27" y2="362.3"/><line class="cls-2" x1="319.27" y1="362.3" x2="319.73" y2="361.81"/><line class="cls-2" x1="319.73" y1="361.81" x2="320.41" y2="361.54"/><line class="cls-2" x1="320.41" y1="361.54" x2="321.43" y2="361.54"/><line class="cls-2" x1="321.43" y1="361.54" x2="327.51" y2="361.69"/><line class="cls-2" x1="327.51" y1="361.01" x2="336.32" y2="361.01"/><line class="cls-2" x1="319.12" y1="395.9" x2="318.74" y2="395.48"/><line class="cls-2" x1="318.74" y1="395.48" x2="318.48" y2="394.8"/><line class="cls-2" x1="318.48" y1="394.8" x2="318.48" y2="362.3"/><line class="cls-2" x1="318.48" y1="362.3" x2="318.74" y2="361.62"/><line class="cls-2" x1="318.74" y1="361.62" x2="319.2" y2="361.13"/><line class="cls-2" x1="319.2" y1="361.13" x2="319.88" y2="360.86"/><line class="cls-2" x1="319.88" y1="360.86" x2="343.92" y2="360.86"/><line class="cls-2" x1="343.92" y1="360.86" x2="344.6" y2="361.13"/><line class="cls-2" x1="344.6" y1="361.13" x2="345.09" y2="361.62"/><line class="cls-2" x1="345.09" y1="361.62" x2="345.35" y2="362.3"/><line class="cls-2" x1="345.35" y1="362.3" x2="345.35" y2="394.8"/><line class="cls-2" x1="345.35" y1="394.8" x2="345.09" y2="395.48"/><line class="cls-2" x1="345.09" y1="395.48" x2="344.67" y2="395.9"/><line class="cls-2" x1="317.57" y1="396.73" x2="317.08" y2="396.73"/><line class="cls-2" x1="317.08" y1="396.73" x2="317.08" y2="359.77"/><line class="cls-2" x1="317.08" y1="359.77" x2="346.75" y2="359.77"/><line class="cls-2" x1="346.75" y1="359.77" x2="346.75" y2="396.73"/><line class="cls-2" x1="346.75" y1="396.73" x2="346.34" y2="396.73"/><line class="cls-2" x1="340.33" y1="384.9" x2="341.91" y2="385.13"/><line class="cls-2" x1="341.91" y1="385.13" x2="343.39" y2="385.01"/><line class="cls-2" x1="343.39" y1="385.01" x2="344.07" y2="384.75"/><line class="cls-2" x1="344.56" y1="385.28" x2="344.64" y2="385.51"/><line class="cls-2" x1="344.64" y1="385.51" x2="344.22" y2="387.28"/><line class="cls-2" x1="344.22" y1="387.28" x2="344.37" y2="389.89"/><line class="cls-2" x1="344.33" y1="395.83" x2="344.33" y2="395.9"/><rect class="cls-4" x="364.03" y="323.93" width="1.66" height="1.55"/><line class="cls-2" x1="363.8" y1="324.2" x2="363.8" y2="325.48"/><line class="cls-2" x1="363.8" y1="325.48" x2="365.92" y2="325.48"/><line class="cls-2" x1="364.03" y1="323.93" x2="364.03" y2="325.48"/><line class="cls-2" x1="364.03" y1="325.48" x2="365.69" y2="325.48"/><line class="cls-2" x1="365.69" y1="325.48" x2="365.69" y2="323.93"/><line class="cls-2" x1="365.92" y1="325.48" x2="365.92" y2="321.1"/><line class="cls-2" x1="363.8" y1="325.48" x2="363.8" y2="325.82"/><line class="cls-2" x1="365.92" y1="325.48" x2="365.92" y2="325.82"/><line class="cls-2" x1="363.8" y1="325.48" x2="365.92" y2="325.48"/><line class="cls-2" x1="363.8" y1="325.82" x2="365.92" y2="325.82"/><line class="cls-2" x1="363.8" y1="325.82" x2="349.63" y2="325.82"/><line class="cls-2" x1="363.8" y1="326.5" x2="349.63" y2="326.5"/><line class="cls-2" x1="349.63" y1="325.82" x2="349.63" y2="326.5"/><line class="cls-2" x1="363.8" y1="326.5" x2="363.8" y2="325.82"/><line class="cls-2" x1="363.8" y1="340" x2="362.89" y2="340"/><line class="cls-2" x1="362.89" y1="340" x2="361.95" y2="339.88"/><line class="cls-2" x1="361.95" y1="339.88" x2="360.85" y2="339.69"/><line class="cls-2" x1="360.85" y1="339.69" x2="359.76" y2="339.43"/><line class="cls-2" x1="359.76" y1="339.43" x2="358.66" y2="339.05"/><line class="cls-2" x1="358.66" y1="339.05" x2="357.64" y2="338.6"/><line class="cls-2" x1="357.64" y1="338.6" x2="356.62" y2="338.07"/><line class="cls-2" x1="356.62" y1="338.07" x2="355.67" y2="337.46"/><line class="cls-2" x1="355.67" y1="337.46" x2="354.77" y2="336.78"/><line class="cls-2" x1="354.77" y1="336.78" x2="353.93" y2="336.03"/><line class="cls-2" x1="353.93" y1="336.03" x2="353.14" y2="335.2"/><line class="cls-2" x1="353.14" y1="335.2" x2="352.42" y2="334.33"/><line class="cls-2" x1="352.42" y1="334.33" x2="351.78" y2="333.38"/><line class="cls-2" x1="351.78" y1="333.38" x2="351.21" y2="332.4"/><line class="cls-2" x1="351.21" y1="332.4" x2="350.76" y2="331.38"/><line class="cls-2" x1="350.76" y1="331.38" x2="350.34" y2="330.32"/><line class="cls-2" x1="350.34" y1="330.32" x2="350.04" y2="329.22"/><line class="cls-2" x1="350.04" y1="329.22" x2="349.81" y2="328.13"/><line class="cls-2" x1="349.81" y1="328.13" x2="349.66" y2="326.99"/><line class="cls-2" x1="349.66" y1="326.99" x2="349.63" y2="325.86"/><line class="cls-2" x1="349.63" y1="325.86" x2="349.63" y2="325.82"/><line class="cls-2" x1="363.8" y1="325.71" x2="363.5" y2="325.71"/><line class="cls-2" x1="363.5" y1="325.71" x2="363.5" y2="324.2"/><line class="cls-2" x1="363.8" y1="324.2" x2="363.5" y2="324.2"/><line class="cls-2" x1="365.92" y1="325.71" x2="366.22" y2="325.71"/><line class="cls-2" x1="366.22" y1="325.71" x2="366.22" y2="324.2"/><line class="cls-2" x1="365.92" y1="324.2" x2="366.22" y2="324.2"/><text class="cls-5" transform="translate(309.4 355.83)"><tspan class="cls-6">11</tspan><tspan class="cls-7" x="7.75" y="0">&apos;</tspan><tspan class="cls-8" x="9.09" y="0">-</tspan><tspan class="cls-9" x="11.4" y="0">4</tspan><tspan x="15.27" y="0">&quot;</tspan><tspan class="cls-10" x="17.43" y="0"> </tspan><tspan class="cls-9" x="19.33" y="0">X</tspan><tspan class="cls-11" x="23.58" y="0"> </tspan><tspan class="cls-12" x="25.57" y="0">1</tspan><tspan class="cls-13" x="29.36" y="0">2</tspan><tspan class="cls-14" x="33.24" y="0">&apos;</tspan><tspan class="cls-8" x="34.66" y="0">-</tspan><tspan class="cls-15" x="36.97" y="0">11</tspan><tspan class="cls-16" x="44.56" y="0">&quot;</tspan></text><text class="cls-5" transform="translate(321.16 348.81)">BED#6</text><rect class="cls-4" x="364.03" y="340.38" width="1.66" height="57.04"/><line class="cls-2" x1="363.8" y1="340.38" x2="363.8" y2="397.41"/><line class="cls-2" x1="364.03" y1="340.38" x2="364.03" y2="397.41"/><line class="cls-2" x1="365.69" y1="397.41" x2="365.69" y2="340.38"/><line class="cls-2" x1="365.92" y1="397.41" x2="365.92" y2="340.64"/><line class="cls-2" x1="363.8" y1="340.38" x2="363.8" y2="373.34"/><line class="cls-2" x1="363.8" y1="340.38" x2="365.92" y2="340.38"/><line class="cls-2" x1="364.03" y1="340.38" x2="364.03" y2="373.34"/><line class="cls-2" x1="364.03" y1="340.38" x2="365.69" y2="340.38"/><line class="cls-2" x1="365.69" y1="341.66" x2="365.69" y2="340.38"/><line class="cls-2" x1="365.92" y1="341.43" x2="365.92" y2="340.38"/><line class="cls-2" x1="363.8" y1="340" x2="363.8" y2="340.38"/><line class="cls-2" x1="365.92" y1="340" x2="365.92" y2="340.38"/><line class="cls-2" x1="363.8" y1="340" x2="365.92" y2="340"/><line class="cls-2" x1="363.8" y1="340.38" x2="365.92" y2="340.38"/><line class="cls-2" x1="363.8" y1="340.15" x2="363.5" y2="340.15"/><line class="cls-2" x1="363.5" y1="341.66" x2="363.5" y2="340.15"/><line class="cls-2" x1="365.92" y1="340.15" x2="366.22" y2="340.15"/><line class="cls-2" x1="363.8" y1="341.68" x2="363.5" y2="341.68"/><line class="cls-2" x1="365.92" y1="341.68" x2="366.22" y2="341.68"/><line class="cls-2" x1="366.22" y1="341.66" x2="366.22" y2="340.15"/></g><g id="BED_6_CLOSET" data-name="BED#6 CLOSET"><rect class="cls-1" x="363.5" y="375.11" width="2.72" height="13.87"/><rect class="cls-4" x="364.03" y="389.02" width="1.66" height="8.39"/><line class="cls-2" x1="365.92" y1="373.56" x2="410.82" y2="373.56"/><line class="cls-2" x1="363.8" y1="389.02" x2="363.8" y2="397.19"/><line class="cls-2" x1="363.8" y1="389.02" x2="365.92" y2="389.02"/><line class="cls-2" x1="363.8" y1="375.11" x2="365.92" y2="375.11"/><line class="cls-2" x1="364.03" y1="389.02" x2="364.03" y2="397.41"/><line class="cls-2" x1="364.03" y1="389.02" x2="365.69" y2="389.02"/><line class="cls-2" x1="364.03" y1="375.11" x2="365.69" y2="375.11"/><line class="cls-2" x1="365.69" y1="397.41" x2="365.69" y2="389.02"/><line class="cls-2" x1="365.92" y1="397.19" x2="365.92" y2="389.02"/><line class="cls-2" x1="363.8" y1="375.11" x2="363.8" y2="375.45"/><line class="cls-2" x1="365.92" y1="375.11" x2="365.92" y2="375.45"/><line class="cls-2" x1="363.8" y1="375.11" x2="365.92" y2="375.11"/><line class="cls-2" x1="363.8" y1="375.45" x2="365.92" y2="375.45"/><line class="cls-2" x1="363.8" y1="388.68" x2="363.8" y2="389.02"/><line class="cls-2" x1="365.92" y1="388.68" x2="365.92" y2="389.02"/><line class="cls-2" x1="363.8" y1="388.68" x2="365.92" y2="388.68"/><line class="cls-2" x1="363.8" y1="389.02" x2="365.92" y2="389.02"/><line class="cls-2" x1="365.92" y1="375.45" x2="379.15" y2="375.45"/><line class="cls-2" x1="365.92" y1="376.09" x2="379.15" y2="376.09"/><line class="cls-2" x1="379.15" y1="375.45" x2="379.15" y2="376.09"/><line class="cls-2" x1="365.92" y1="376.09" x2="365.92" y2="375.45"/><line class="cls-2" x1="365.92" y1="388.68" x2="366.29" y2="388.68"/><line class="cls-2" x1="366.29" y1="388.68" x2="367.39" y2="388.61"/><line class="cls-2" x1="367.39" y1="388.61" x2="368.52" y2="388.42"/><line class="cls-2" x1="368.52" y1="388.42" x2="369.62" y2="388.15"/><line class="cls-2" x1="369.62" y1="388.15" x2="370.72" y2="387.77"/><line class="cls-2" x1="370.72" y1="387.77" x2="371.74" y2="387.32"/><line class="cls-2" x1="371.74" y1="387.32" x2="372.72" y2="386.79"/><line class="cls-2" x1="372.72" y1="386.79" x2="373.66" y2="386.15"/><line class="cls-2" x1="373.66" y1="386.15" x2="374.57" y2="385.47"/><line class="cls-2" x1="374.57" y1="385.47" x2="375.4" y2="384.67"/><line class="cls-2" x1="375.4" y1="384.67" x2="376.16" y2="383.84"/><line class="cls-2" x1="376.16" y1="383.84" x2="376.84" y2="382.94"/><line class="cls-2" x1="376.84" y1="382.94" x2="377.44" y2="381.95"/><line class="cls-2" x1="377.44" y1="381.95" x2="377.94" y2="380.97"/><line class="cls-2" x1="377.94" y1="380.97" x2="378.39" y2="379.91"/><line class="cls-2" x1="378.39" y1="379.91" x2="378.73" y2="378.82"/><line class="cls-2" x1="378.73" y1="378.82" x2="378.96" y2="377.72"/><line class="cls-2" x1="378.96" y1="377.72" x2="379.11" y2="376.59"/><line class="cls-2" x1="379.11" y1="376.59" x2="379.15" y2="375.45"/><line class="cls-2" x1="363.8" y1="375.34" x2="363.5" y2="375.34"/><line class="cls-2" x1="363.5" y1="375.34" x2="363.5" y2="373.79"/><line class="cls-2" x1="363.8" y1="373.79" x2="363.5" y2="373.79"/><line class="cls-2" x1="363.8" y1="388.79" x2="363.5" y2="388.79"/><line class="cls-2" x1="363.5" y1="390.34" x2="363.5" y2="388.79"/><line class="cls-2" x1="363.8" y1="390.34" x2="363.5" y2="390.34"/><line class="cls-2" x1="365.92" y1="388.79" x2="366.22" y2="388.79"/><line class="cls-2" x1="366.22" y1="390.34" x2="366.22" y2="388.79"/><line class="cls-2" x1="365.92" y1="390.34" x2="366.22" y2="390.34"/><line class="cls-2" x1="365.92" y1="375.34" x2="366.22" y2="375.34"/><line class="cls-2" x1="366.22" y1="375.34" x2="366.22" y2="373.79"/><line class="cls-2" x1="365.92" y1="373.79" x2="366.22" y2="373.79"/><line class="cls-2" x1="365.69" y1="397.41" x2="365.69" y2="391.74"/><rect class="cls-4" x="411.05" y="371.45" width="1.66" height="32.36"/><line class="cls-2" x1="410.82" y1="371.45" x2="410.82" y2="402.93"/><line class="cls-2" x1="411.05" y1="371.45" x2="411.05" y2="403.8"/><line class="cls-2" x1="412.71" y1="403.8" x2="412.71" y2="371.45"/><line class="cls-2" x1="412.94" y1="403.64" x2="412.94" y2="371.45"/><line class="cls-2" x1="412.71" y1="403.8" x2="412.71" y2="381.94"/><line class="cls-2" x1="365.69" y1="391.74" x2="411.05" y2="391.74"/><line class="cls-2" x1="405.38" y1="373.34" x2="411.05" y2="373.34"/><line class="cls-2" x1="411.05" y1="391.74" x2="405.38" y2="391.74"/><line class="cls-2" x1="405.38" y1="391.74" x2="405.38" y2="373.34"/><rect class="cls-4" x="365.69" y="371.67" width="45.36" height="1.66"/><line class="cls-2" x1="365.69" y1="373.34" x2="411.05" y2="373.34"/><line class="cls-2" x1="411.05" y1="371.67" x2="365.69" y2="371.67"/><line class="cls-2" x1="410.82" y1="371.45" x2="365.92" y2="371.45"/><line class="cls-2" x1="365.92" y1="374.72" x2="365.92" y2="373.67"/><rect class="cls-4" x="364.03" y="371.67" width="1.66" height="3.44"/><line class="cls-2" x1="363.8" y1="371.67" x2="363.8" y2="375.11"/><line class="cls-2" x1="364.03" y1="371.67" x2="364.03" y2="375.11"/><line class="cls-2" x1="365.69" y1="374.77" x2="365.69" y2="371.96"/><line class="cls-2" x1="365.92" y1="374.75" x2="365.92" y2="371.99"/><text class="cls-5" transform="translate(375.31 387.77)">CLOSET</text></g><g id="WINDOW"><rect class="cls-1" x="292.81" y="200.29" width="7.48" height="50.96"/><rect class="cls-2" x="292.81" y="200.58" width="7.48" height="50.67"/><line class="cls-2" x1="297.43" y1="251.44" x2="299.54" y2="251.44"/><line class="cls-2" x1="297.43" y1="200.41" x2="299.54" y2="200.41"/><line class="cls-2" x1="297.65" y1="251.44" x2="299.32" y2="251.44"/><line class="cls-2" x1="297.65" y1="200.41" x2="299.32" y2="200.41"/><line class="cls-2" x1="297.43" y1="200.41" x2="297.43" y2="200.75"/><line class="cls-2" x1="299.54" y1="200.41" x2="299.54" y2="200.75"/><line class="cls-2" x1="297.43" y1="200.41" x2="299.54" y2="200.41"/><line class="cls-2" x1="297.43" y1="200.75" x2="299.54" y2="200.75"/><line class="cls-2" x1="297.43" y1="251.06" x2="297.43" y2="251.44"/><line class="cls-2" x1="299.54" y1="251.06" x2="299.54" y2="251.44"/><line class="cls-2" x1="297.43" y1="251.06" x2="299.54" y2="251.06"/><line class="cls-2" x1="297.43" y1="251.44" x2="299.54" y2="251.44"/><line class="cls-2" x1="299.54" y1="198.93" x2="300.3" y2="198.93"/><line class="cls-2" x1="300.3" y1="252.91" x2="300.3" y2="198.93"/><line class="cls-2" x1="299.54" y1="252.91" x2="300.3" y2="252.91"/><line class="cls-2" x1="299.54" y1="251.13" x2="299.85" y2="251.13"/><line class="cls-2" x1="299.85" y1="252.68" x2="299.85" y2="251.13"/><line class="cls-2" x1="299.54" y1="252.68" x2="299.85" y2="252.68"/><line class="cls-2" x1="299.54" y1="252.68" x2="299.54" y2="251.13"/><line class="cls-2" x1="299.54" y1="200.71" x2="299.85" y2="200.71"/><line class="cls-2" x1="299.85" y1="200.71" x2="299.85" y2="199.16"/><line class="cls-2" x1="299.54" y1="199.16" x2="299.85" y2="199.16"/><line class="cls-2" x1="299.54" y1="200.71" x2="299.54" y2="199.16"/><line class="cls-2" x1="293.65" y1="251.44" x2="297.43" y2="251.44"/><line class="cls-2" x1="293.65" y1="200.41" x2="297.43" y2="200.41"/><line class="cls-2" x1="293.53" y1="234.43" x2="297.54" y2="234.43"/><line class="cls-2" x1="293.65" y1="234.43" x2="293.65" y2="234.77"/><line class="cls-2" x1="297.43" y1="234.43" x2="297.43" y2="234.77"/><line class="cls-2" x1="293.65" y1="234.43" x2="297.43" y2="234.43"/><line class="cls-2" x1="293.65" y1="234.77" x2="297.43" y2="234.77"/><line class="cls-2" x1="293.65" y1="251.06" x2="293.65" y2="251.44"/><line class="cls-2" x1="297.43" y1="251.06" x2="297.43" y2="251.44"/><line class="cls-2" x1="293.65" y1="251.06" x2="297.43" y2="251.06"/><line class="cls-2" x1="293.65" y1="251.44" x2="297.43" y2="251.44"/><line class="cls-2" x1="294.21" y1="234.77" x2="294.21" y2="251.06"/><line class="cls-2" x1="294.59" y1="234.77" x2="294.59" y2="251.06"/><line class="cls-2" x1="293.53" y1="234.43" x2="297.54" y2="234.43"/><line class="cls-2" x1="293.53" y1="217.42" x2="297.54" y2="217.42"/><line class="cls-2" x1="293.53" y1="234.43" x2="293.53" y2="234.43"/><line class="cls-2" x1="297.54" y1="234.43" x2="297.54" y2="234.43"/><line class="cls-2" x1="293.65" y1="217.42" x2="293.65" y2="217.76"/><line class="cls-2" x1="297.43" y1="217.42" x2="297.43" y2="217.76"/><line class="cls-2" x1="293.65" y1="217.42" x2="297.43" y2="217.42"/><line class="cls-2" x1="293.65" y1="217.76" x2="297.43" y2="217.76"/><line class="cls-2" x1="293.65" y1="234.05" x2="293.65" y2="234.43"/><line class="cls-2" x1="297.43" y1="234.05" x2="297.43" y2="234.43"/><line class="cls-2" x1="293.65" y1="234.05" x2="297.43" y2="234.05"/><line class="cls-2" x1="293.65" y1="234.43" x2="297.43" y2="234.43"/><line class="cls-2" x1="294.21" y1="217.76" x2="294.21" y2="234.05"/><line class="cls-2" x1="294.59" y1="217.76" x2="294.59" y2="234.05"/><line class="cls-2" x1="293.53" y1="217.42" x2="297.54" y2="217.42"/><line class="cls-2" x1="293.53" y1="217.42" x2="293.53" y2="217.42"/><line class="cls-2" x1="297.54" y1="217.42" x2="297.54" y2="217.42"/><line class="cls-2" x1="293.65" y1="200.41" x2="293.65" y2="200.75"/><line class="cls-2" x1="297.43" y1="200.41" x2="297.43" y2="200.75"/><line class="cls-2" x1="293.65" y1="200.41" x2="297.43" y2="200.41"/><line class="cls-2" x1="293.65" y1="200.75" x2="297.43" y2="200.75"/><line class="cls-2" x1="293.65" y1="217.04" x2="293.65" y2="217.42"/><line class="cls-2" x1="297.43" y1="217.04" x2="297.43" y2="217.42"/><line class="cls-2" x1="293.65" y1="217.04" x2="297.43" y2="217.04"/><line class="cls-2" x1="293.65" y1="217.42" x2="297.43" y2="217.42"/><line class="cls-2" x1="294.21" y1="200.75" x2="294.21" y2="217.04"/><line class="cls-2" x1="294.59" y1="200.75" x2="294.59" y2="217.04"/><line class="cls-2" x1="293.65" y1="253.06" x2="292.81" y2="253.06"/><line class="cls-2" x1="292.81" y1="253.06" x2="292.81" y2="198.75"/><line class="cls-2" x1="293.65" y1="198.75" x2="292.81" y2="198.75"/><line class="cls-2" x1="293.65" y1="200.41" x2="293.27" y2="200.41"/><line class="cls-2" x1="293.27" y1="200.41" x2="293.27" y2="198.75"/><line class="cls-2" x1="293.65" y1="198.75" x2="293.27" y2="198.75"/><line class="cls-2" x1="293.65" y1="251.44" x2="293.27" y2="251.44"/><line class="cls-2" x1="293.27" y1="253.06" x2="293.27" y2="251.44"/><line class="cls-2" x1="293.65" y1="253.06" x2="293.27" y2="253.06"/></g><g id="WINDOW-2" data-name="WINDOW"><rect class="cls-1" x="394.98" y="157.37" width="51.03" height="7.52"/><rect class="cls-2" x="394.98" y="157.37" width="51.03" height="7.52"/><line class="cls-2" x1="394.98" y1="158.2" x2="394.98" y2="161.98"/><line class="cls-2" x1="446.01" y1="158.2" x2="446.01" y2="161.98"/><line class="cls-2" x1="411.99" y1="158.09" x2="411.99" y2="162.09"/><line class="cls-2" x1="411.99" y1="158.2" x2="411.65" y2="158.2"/><line class="cls-2" x1="411.99" y1="161.98" x2="411.65" y2="161.98"/><line class="cls-2" x1="411.99" y1="158.2" x2="411.99" y2="161.98"/><line class="cls-2" x1="411.65" y1="158.2" x2="411.65" y2="161.98"/><line class="cls-2" x1="395.32" y1="158.2" x2="394.98" y2="158.2"/><line class="cls-2" x1="395.32" y1="161.98" x2="394.98" y2="161.98"/><line class="cls-2" x1="395.32" y1="158.2" x2="395.32" y2="161.98"/><line class="cls-2" x1="394.98" y1="158.2" x2="394.98" y2="161.98"/><line class="cls-2" x1="411.65" y1="158.81" x2="395.32" y2="158.81"/><line class="cls-2" x1="411.65" y1="159.18" x2="395.32" y2="159.18"/><line class="cls-2" x1="411.99" y1="158.09" x2="411.99" y2="162.09"/><line class="cls-2" x1="429" y1="158.09" x2="429" y2="162.09"/><line class="cls-2" x1="411.99" y1="158.09" x2="411.99" y2="158.09"/><line class="cls-2" x1="411.99" y1="162.09" x2="411.99" y2="162.09"/><line class="cls-2" x1="429" y1="158.2" x2="428.66" y2="158.2"/><line class="cls-2" x1="429" y1="161.98" x2="428.66" y2="161.98"/><line class="cls-2" x1="429" y1="158.2" x2="429" y2="161.98"/><line class="cls-2" x1="428.66" y1="158.2" x2="428.66" y2="161.98"/><line class="cls-2" x1="412.33" y1="158.2" x2="411.99" y2="158.2"/><line class="cls-2" x1="412.33" y1="161.98" x2="411.99" y2="161.98"/><line class="cls-2" x1="412.33" y1="158.2" x2="412.33" y2="161.98"/><line class="cls-2" x1="411.99" y1="158.2" x2="411.99" y2="161.98"/><line class="cls-2" x1="428.66" y1="158.81" x2="412.33" y2="158.81"/><line class="cls-2" x1="428.66" y1="159.18" x2="412.33" y2="159.18"/><line class="cls-2" x1="429" y1="158.09" x2="429" y2="162.09"/><line class="cls-2" x1="446.01" y1="158.2" x2="445.67" y2="158.2"/><line class="cls-2" x1="446.01" y1="161.98" x2="445.67" y2="161.98"/><line class="cls-2" x1="446.01" y1="158.2" x2="446.01" y2="161.98"/><line class="cls-2" x1="445.67" y1="158.2" x2="445.67" y2="161.98"/><line class="cls-2" x1="429.34" y1="158.2" x2="429" y2="158.2"/><line class="cls-2" x1="429.34" y1="161.98" x2="429" y2="161.98"/><line class="cls-2" x1="429.34" y1="158.2" x2="429.34" y2="161.98"/><line class="cls-2" x1="429" y1="158.2" x2="429" y2="161.98"/><line class="cls-2" x1="445.67" y1="158.81" x2="429.34" y2="158.81"/><line class="cls-2" x1="445.67" y1="159.18" x2="429.34" y2="159.18"/><line class="cls-2" x1="393.32" y1="158.2" x2="393.32" y2="157.37"/><line class="cls-2" x1="393.32" y1="157.37" x2="447.67" y2="157.37"/><line class="cls-2" x1="447.67" y1="158.2" x2="447.67" y2="157.37"/><line class="cls-2" x1="446.01" y1="158.2" x2="446.01" y2="157.86"/><line class="cls-2" x1="446.01" y1="157.86" x2="447.67" y2="157.86"/><line class="cls-2" x1="447.67" y1="158.2" x2="447.67" y2="157.86"/><line class="cls-2" x1="394.98" y1="158.2" x2="394.98" y2="157.86"/><line class="cls-2" x1="393.32" y1="157.86" x2="394.98" y2="157.86"/><line class="cls-2" x1="393.32" y1="158.2" x2="393.32" y2="157.86"/><line class="cls-2" x1="394.98" y1="161.98" x2="394.98" y2="164.1"/><line class="cls-2" x1="446.01" y1="161.98" x2="446.01" y2="164.1"/><line class="cls-2" x1="394.98" y1="162.21" x2="394.98" y2="163.87"/><line class="cls-2" x1="446.01" y1="162.21" x2="446.01" y2="163.87"/><line class="cls-2" x1="446.01" y1="161.98" x2="445.67" y2="161.98"/><line class="cls-2" x1="446.01" y1="164.1" x2="445.67" y2="164.1"/><line class="cls-2" x1="446.01" y1="161.98" x2="446.01" y2="164.1"/><line class="cls-2" x1="445.67" y1="161.98" x2="445.67" y2="164.1"/><line class="cls-2" x1="395.32" y1="161.98" x2="394.98" y2="161.98"/><line class="cls-2" x1="395.32" y1="164.1" x2="394.98" y2="164.1"/><line class="cls-2" x1="395.32" y1="161.98" x2="395.32" y2="164.1"/><line class="cls-2" x1="394.98" y1="161.98" x2="394.98" y2="164.1"/><line class="cls-2" x1="447.48" y1="164.1" x2="447.48" y2="164.89"/><line class="cls-2" x1="393.51" y1="164.89" x2="447.48" y2="164.89"/><line class="cls-2" x1="393.51" y1="164.1" x2="393.51" y2="164.89"/><line class="cls-2" x1="395.29" y1="164.1" x2="395.29" y2="164.4"/><line class="cls-2" x1="393.74" y1="164.4" x2="395.29" y2="164.4"/><line class="cls-2" x1="393.74" y1="164.1" x2="393.74" y2="164.4"/><line class="cls-2" x1="393.74" y1="164.1" x2="395.29" y2="164.1"/><line class="cls-2" x1="445.71" y1="164.1" x2="445.71" y2="164.4"/><line class="cls-2" x1="445.71" y1="164.4" x2="447.26" y2="164.4"/><line class="cls-2" x1="447.26" y1="164.1" x2="447.26" y2="164.4"/><line class="cls-2" x1="445.71" y1="164.1" x2="447.26" y2="164.1"/></g><g id="REC_ROOM" data-name="REC ROOM"><text class="cls-5" transform="translate(362.42 230.97)"><tspan class="cls-6">45</tspan><tspan class="cls-7" x="7.75" y="0">&apos;</tspan><tspan class="cls-8" x="9.09" y="0">-</tspan><tspan class="cls-9" x="11.4" y="0">6</tspan><tspan x="15.27" y="0">&quot;</tspan><tspan class="cls-10" x="17.43" y="0"> </tspan><tspan class="cls-9" x="19.33" y="0">X</tspan><tspan class="cls-11" x="23.58" y="0"> </tspan><tspan class="cls-12" x="25.57" y="0">1</tspan><tspan class="cls-13" x="29.36" y="0">9</tspan><tspan class="cls-14" x="33.24" y="0">&apos;</tspan><tspan class="cls-8" x="34.66" y="0">-</tspan><tspan class="cls-15" x="36.97" y="0">9</tspan><tspan x="40.76" y="0">&quot;</tspan></text><text class="cls-5" transform="translate(364.41 223.95)">REC ROOM</text></g></g></svg>