<svg id="图层_1" data-name="图层 1" xmlns="http://www.w3.org/2000/svg" viewBox="0 0 1008 504"><defs><style>.cls-1,.cls-3{fill:#0c4f71;}.cls-2{fill:none;stroke:#0b4d6e;stroke-linecap:round;stroke-linejoin:bevel;stroke-width:0.15px;}.cls-3{font-size:7px;font-family:CenturyGothic, Century Gothic;}</style></defs><g id="THEATRE_CLOSET" data-name="THEATRE CLOSET"><rect class="cls-1" x="529.62" y="314.75" width="2.15" height="1.63"/><rect class="cls-1" x="504.11" y="314.75" width="2.15" height="1.63"/><line class="cls-2" x1="529.62" y1="316.64" x2="531.51" y2="316.64"/><line class="cls-2" x1="503.31" y1="316.64" x2="506.26" y2="316.64"/><line class="cls-2" x1="529.62" y1="316.64" x2="529.62" y2="314.48"/><line class="cls-2" x1="506.26" y1="316.64" x2="506.26" y2="314.48"/><line class="cls-2" x1="529.62" y1="316.37" x2="531.77" y2="316.37"/><line class="cls-2" x1="504.11" y1="316.37" x2="506.26" y2="316.37"/><line class="cls-2" x1="529.62" y1="316.37" x2="529.62" y2="314.75"/><line class="cls-2" x1="506.26" y1="316.37" x2="506.26" y2="314.75"/><line class="cls-2" x1="531.77" y1="314.75" x2="529.62" y2="314.75"/><line class="cls-2" x1="506.26" y1="314.75" x2="504.11" y2="314.75"/><line class="cls-2" x1="531.51" y1="314.48" x2="529.62" y2="314.48"/><line class="cls-2" x1="506.26" y1="314.48" x2="504.37" y2="314.48"/><line class="cls-2" x1="506.26" y1="316.64" x2="506.6" y2="316.64"/><line class="cls-2" x1="506.26" y1="314.48" x2="506.6" y2="314.48"/><line class="cls-2" x1="506.26" y1="316.64" x2="506.26" y2="314.48"/><line class="cls-2" x1="506.6" y1="316.64" x2="506.6" y2="314.48"/><line class="cls-2" x1="529.28" y1="316.64" x2="529.62" y2="316.64"/><line class="cls-2" x1="529.28" y1="314.48" x2="529.62" y2="314.48"/><line class="cls-2" x1="529.28" y1="316.64" x2="529.28" y2="314.48"/><line class="cls-2" x1="529.62" y1="316.64" x2="529.62" y2="314.48"/><line class="cls-2" x1="529.28" y1="316.64" x2="529.28" y2="327.98"/><line class="cls-2" x1="528.64" y1="316.64" x2="528.64" y2="327.98"/><line class="cls-2" x1="529.28" y1="327.98" x2="528.64" y2="327.98"/><line class="cls-2" x1="528.64" y1="316.64" x2="529.28" y2="316.64"/><line class="cls-2" x1="517.94" y1="316.64" x2="517.98" y2="317.51"/><line class="cls-2" x1="517.98" y1="317.51" x2="518.09" y2="318.38"/><line class="cls-2" x1="518.09" y1="318.38" x2="518.32" y2="319.47"/><line class="cls-2" x1="518.32" y1="319.47" x2="518.66" y2="320.57"/><line class="cls-2" x1="518.66" y1="320.57" x2="519.07" y2="321.59"/><line class="cls-2" x1="519.07" y1="321.59" x2="519.64" y2="322.61"/><line class="cls-2" x1="519.64" y1="322.61" x2="520.28" y2="323.52"/><line class="cls-2" x1="520.28" y1="323.52" x2="521" y2="324.39"/><line class="cls-2" x1="521" y1="324.39" x2="521.83" y2="325.18"/><line class="cls-2" x1="521.83" y1="325.18" x2="522.74" y2="325.9"/><line class="cls-2" x1="522.74" y1="325.9" x2="523.69" y2="326.5"/><line class="cls-2" x1="523.69" y1="326.5" x2="524.71" y2="326.99"/><line class="cls-2" x1="524.71" y1="326.99" x2="525.76" y2="327.41"/><line class="cls-2" x1="525.76" y1="327.41" x2="526.86" y2="327.71"/><line class="cls-2" x1="526.86" y1="327.71" x2="527.96" y2="327.9"/><line class="cls-2" x1="527.96" y1="327.9" x2="529.09" y2="327.98"/><line class="cls-2" x1="529.09" y1="327.98" x2="529.28" y2="327.98"/><line class="cls-2" x1="506.6" y1="316.64" x2="506.6" y2="327.98"/><line class="cls-2" x1="507.24" y1="316.64" x2="507.24" y2="327.98"/><line class="cls-2" x1="506.6" y1="327.98" x2="507.24" y2="327.98"/><line class="cls-2" x1="507.24" y1="316.64" x2="506.6" y2="316.64"/><line class="cls-2" x1="517.94" y1="316.64" x2="517.9" y2="317.51"/><line class="cls-2" x1="517.9" y1="317.51" x2="517.79" y2="318.38"/><line class="cls-2" x1="517.79" y1="318.38" x2="517.56" y2="319.47"/><line class="cls-2" x1="517.56" y1="319.47" x2="517.22" y2="320.57"/><line class="cls-2" x1="517.22" y1="320.57" x2="516.81" y2="321.59"/><line class="cls-2" x1="516.81" y1="321.59" x2="516.24" y2="322.61"/><line class="cls-2" x1="516.24" y1="322.61" x2="515.6" y2="323.52"/><line class="cls-2" x1="515.6" y1="323.52" x2="514.88" y2="324.39"/><line class="cls-2" x1="514.88" y1="324.39" x2="514.05" y2="325.18"/><line class="cls-2" x1="514.05" y1="325.18" x2="513.14" y2="325.9"/><line class="cls-2" x1="513.14" y1="325.9" x2="512.19" y2="326.5"/><line class="cls-2" x1="512.19" y1="326.5" x2="511.17" y2="326.99"/><line class="cls-2" x1="511.17" y1="326.99" x2="510.12" y2="327.41"/><line class="cls-2" x1="510.12" y1="327.41" x2="509.02" y2="327.71"/><line class="cls-2" x1="509.02" y1="327.71" x2="507.92" y2="327.9"/><line class="cls-2" x1="507.92" y1="327.9" x2="506.79" y2="327.98"/><line class="cls-2" x1="506.79" y1="327.98" x2="506.6" y2="327.98"/><line class="cls-2" x1="506.49" y1="316.64" x2="506.49" y2="316.94"/><line class="cls-2" x1="506.49" y1="316.94" x2="504.94" y2="316.94"/><line class="cls-2" x1="504.94" y1="316.64" x2="504.94" y2="316.94"/><line class="cls-2" x1="529.39" y1="316.64" x2="529.39" y2="316.94"/><line class="cls-2" x1="530.94" y1="316.94" x2="529.39" y2="316.94"/><line class="cls-2" x1="530.94" y1="316.64" x2="530.94" y2="316.94"/><line class="cls-2" x1="529.39" y1="314.48" x2="529.39" y2="314.22"/><line class="cls-2" x1="530.94" y1="314.22" x2="529.39" y2="314.22"/><line class="cls-2" x1="530.94" y1="314.48" x2="530.94" y2="314.22"/><line class="cls-2" x1="506.49" y1="314.48" x2="506.49" y2="314.22"/><line class="cls-2" x1="506.49" y1="314.22" x2="504.94" y2="314.22"/><line class="cls-2" x1="504.94" y1="314.48" x2="504.94" y2="314.22"/><text class="cls-3" transform="translate(505.31 307.5)">CLOSET</text></g></svg>