<svg id="图层_1" data-name="图层 1" xmlns="http://www.w3.org/2000/svg" viewBox="0 0 1008 504"><defs><style>.cls-1{fill:#fff;fill-rule:evenodd;}.cls-2{fill:none;stroke:#0c4f71;stroke-linecap:round;stroke-linejoin:bevel;stroke-width:0.15px;}</style></defs><g id="_5_GARAGE_EXTENED-1" data-name="5&apos; GARAGE EXTENED-1"><g id="_5_FREE_STANDING_TUB-1" data-name="5&apos; FREE STANDING TUB-1"><polygon class="cls-1" points="611 249.28 611.04 249.24 610.66 248.22 611 249.28"/><polygon class="cls-1" points="611.04 249.24 611 249.28 611.15 250.34 611 251.4 611.04 251.44 611.15 250.34 611.04 249.24"/><polygon class="cls-1" points="611.04 251.44 611 251.4 610.66 252.46 611.04 251.44"/><line class="cls-2" x1="611.04" y1="251.44" x2="611.15" y2="250.34"/><line class="cls-2" x1="611.15" y1="250.34" x2="611.04" y2="249.24"/><line class="cls-2" x1="611.04" y1="249.24" x2="610.66" y2="248.22"/><line class="cls-2" x1="610.66" y1="248.22" x2="611" y2="249.28"/><line class="cls-2" x1="611" y1="249.28" x2="611.15" y2="250.34"/><line class="cls-2" x1="611.15" y1="250.34" x2="611" y2="251.4"/><line class="cls-2" x1="611" y1="251.4" x2="610.66" y2="252.46"/><line class="cls-2" x1="610.66" y1="252.46" x2="611.04" y2="251.44"/><polygon class="cls-1" points="580.27 252.46 579.93 251.44 579.82 250.34 579.93 249.28 579.93 249.24 579.82 250.34 579.93 251.4 580.27 252.46"/><polygon class="cls-1" points="579.93 249.24 579.93 249.28 580.27 248.22 579.93 249.24"/><line class="cls-2" x1="579.93" y1="251.44" x2="579.82" y2="250.34"/><line class="cls-2" x1="579.82" y1="250.34" x2="579.93" y2="249.28"/><line class="cls-2" x1="579.93" y1="249.28" x2="580.27" y2="248.22"/><line class="cls-2" x1="580.27" y1="248.22" x2="579.93" y2="249.24"/><line class="cls-2" x1="579.93" y1="249.24" x2="579.82" y2="250.34"/><line class="cls-2" x1="579.82" y1="250.34" x2="579.93" y2="251.4"/><line class="cls-2" x1="579.93" y1="251.4" x2="580.27" y2="252.46"/><line class="cls-2" x1="580.27" y1="252.46" x2="579.93" y2="251.44"/><polygon class="cls-1" points="611.72 252.72 612.13 251.55 612.25 250.34 612.13 249.09 611.72 247.92 611.08 246.86 610.25 245.88 609.23 245.01 608.01 244.29 606.65 243.72 605.14 243.35 603.55 243.12 601.78 242.97 599.96 242.89 598.19 242.82 596.37 242.78 594.6 242.78 592.78 242.82 590.97 242.89 589.19 242.97 587.41 243.12 585.79 243.35 584.32 243.72 582.96 244.29 581.75 245.01 580.73 245.88 579.86 246.86 579.25 247.92 578.84 249.09 578.68 250.34 578.84 251.55 579.25 252.72 579.86 253.82 580.73 254.8 581.75 255.67 582.96 256.39 584.32 256.95 585.79 257.33 587.41 257.52 589.19 257.67 590.97 257.79 592.78 257.86 594.6 257.9 596.37 257.9 598.19 257.86 599.96 257.79 601.78 257.67 603.55 257.52 605.14 257.33 606.65 256.95 608.01 256.39 609.23 255.67 610.25 254.8 611.08 253.82 611.72 252.72"/><line class="cls-2" x1="612.14" y1="251.55" x2="612.25" y2="250.34"/><line class="cls-2" x1="612.25" y1="250.34" x2="612.14" y2="249.09"/><line class="cls-2" x1="612.14" y1="249.09" x2="611.72" y2="247.92"/><line class="cls-2" x1="611.72" y1="247.92" x2="611.08" y2="246.86"/><line class="cls-2" x1="611.08" y1="246.86" x2="610.25" y2="245.88"/><line class="cls-2" x1="610.25" y1="245.88" x2="609.22" y2="245.01"/><line class="cls-2" x1="609.22" y1="245.01" x2="608.02" y2="244.29"/><line class="cls-2" x1="608.02" y1="244.29" x2="606.65" y2="243.72"/><line class="cls-2" x1="606.65" y1="243.72" x2="605.14" y2="243.35"/><line class="cls-2" x1="605.14" y1="243.35" x2="603.55" y2="243.12"/><line class="cls-2" x1="603.55" y1="243.12" x2="601.78" y2="242.97"/><line class="cls-2" x1="601.78" y1="242.97" x2="599.96" y2="242.89"/><line class="cls-2" x1="599.96" y1="242.89" x2="598.19" y2="242.82"/><line class="cls-2" x1="598.19" y1="242.82" x2="596.37" y2="242.78"/><line class="cls-2" x1="596.37" y1="242.78" x2="594.6" y2="242.78"/><line class="cls-2" x1="594.6" y1="242.78" x2="592.78" y2="242.82"/><line class="cls-2" x1="592.78" y1="242.82" x2="590.97" y2="242.89"/><line class="cls-2" x1="590.97" y1="242.89" x2="589.19" y2="242.97"/><line class="cls-2" x1="589.19" y1="242.97" x2="587.42" y2="243.12"/><line class="cls-2" x1="587.42" y1="243.12" x2="585.79" y2="243.35"/><line class="cls-2" x1="585.79" y1="243.35" x2="584.32" y2="243.72"/><line class="cls-2" x1="584.32" y1="243.72" x2="582.95" y2="244.29"/><line class="cls-2" x1="582.95" y1="244.29" x2="581.75" y2="245.01"/><line class="cls-2" x1="581.75" y1="245.01" x2="580.72" y2="245.88"/><line class="cls-2" x1="580.72" y1="245.88" x2="579.86" y2="246.86"/><line class="cls-2" x1="579.86" y1="246.86" x2="579.25" y2="247.92"/><line class="cls-2" x1="579.25" y1="247.92" x2="578.84" y2="249.09"/><line class="cls-2" x1="578.84" y1="249.09" x2="578.68" y2="250.34"/><line class="cls-2" x1="578.68" y1="250.34" x2="578.84" y2="251.55"/><line class="cls-2" x1="578.84" y1="251.55" x2="579.25" y2="252.72"/><line class="cls-2" x1="579.25" y1="252.72" x2="579.86" y2="253.82"/><line class="cls-2" x1="579.86" y1="253.82" x2="580.72" y2="254.8"/><line class="cls-2" x1="580.72" y1="254.8" x2="581.75" y2="255.67"/><line class="cls-2" x1="581.75" y1="255.67" x2="582.95" y2="256.39"/><line class="cls-2" x1="582.95" y1="256.39" x2="584.32" y2="256.95"/><line class="cls-2" x1="584.32" y1="256.95" x2="585.79" y2="257.33"/><line class="cls-2" x1="585.79" y1="257.33" x2="587.42" y2="257.52"/><line class="cls-2" x1="587.42" y1="257.52" x2="589.19" y2="257.67"/><line class="cls-2" x1="589.19" y1="257.67" x2="590.97" y2="257.79"/><line class="cls-2" x1="590.97" y1="257.79" x2="592.78" y2="257.86"/><line class="cls-2" x1="592.78" y1="257.86" x2="594.6" y2="257.9"/><line class="cls-2" x1="594.6" y1="257.9" x2="596.37" y2="257.9"/><line class="cls-2" x1="596.37" y1="257.9" x2="598.19" y2="257.86"/><line class="cls-2" x1="598.19" y1="257.86" x2="599.96" y2="257.79"/><line class="cls-2" x1="599.96" y1="257.79" x2="601.78" y2="257.67"/><line class="cls-2" x1="601.78" y1="257.67" x2="603.55" y2="257.52"/><line class="cls-2" x1="603.55" y1="257.52" x2="605.14" y2="257.33"/><line class="cls-2" x1="605.14" y1="257.33" x2="606.65" y2="256.95"/><line class="cls-2" x1="606.65" y1="256.95" x2="608.02" y2="256.39"/><line class="cls-2" x1="608.02" y1="256.39" x2="609.22" y2="255.67"/><line class="cls-2" x1="609.22" y1="255.67" x2="610.25" y2="254.8"/><line class="cls-2" x1="610.25" y1="254.8" x2="611.08" y2="253.82"/><line class="cls-2" x1="611.08" y1="253.82" x2="611.72" y2="252.72"/><line class="cls-2" x1="611.72" y1="252.72" x2="612.14" y2="251.55"/><line class="cls-2" x1="595.62" y1="244.97" x2="595.73" y2="244.97"/><line class="cls-2" x1="595.73" y1="244.97" x2="595.88" y2="244.97"/><line class="cls-2" x1="595.88" y1="244.97" x2="596" y2="244.97"/><line class="cls-2" x1="596" y1="244.97" x2="596.07" y2="244.93"/><line class="cls-2" x1="596.07" y1="244.93" x2="596.11" y2="244.93"/><line class="cls-2" x1="596.11" y1="244.93" x2="596.18" y2="244.75"/><line class="cls-2" x1="596.18" y1="244.75" x2="596.15" y2="244.71"/><line class="cls-2" x1="596.15" y1="244.71" x2="596.03" y2="244.71"/><line class="cls-2" x1="596.03" y1="244.71" x2="595.88" y2="244.67"/><line class="cls-2" x1="595.88" y1="244.67" x2="595.73" y2="244.67"/><line class="cls-2" x1="595.73" y1="244.67" x2="595.54" y2="244.67"/><line class="cls-2" x1="595.54" y1="244.67" x2="595.39" y2="244.67"/><line class="cls-2" x1="595.39" y1="244.67" x2="595.2" y2="244.67"/><line class="cls-2" x1="595.2" y1="244.67" x2="595.05" y2="244.67"/><line class="cls-2" x1="595.05" y1="244.67" x2="594.9" y2="244.71"/><line class="cls-2" x1="594.9" y1="244.71" x2="594.82" y2="244.71"/><line class="cls-2" x1="594.82" y1="244.71" x2="594.79" y2="244.75"/><line class="cls-2" x1="594.79" y1="244.75" x2="594.86" y2="244.93"/><line class="cls-2" x1="595.35" y1="244.97" x2="595.28" y2="244.97"/><line class="cls-2" x1="595.28" y1="244.97" x2="595.13" y2="244.97"/><line class="cls-2" x1="595.13" y1="244.97" x2="595.01" y2="244.97"/><line class="cls-2" x1="595.01" y1="244.97" x2="594.94" y2="244.93"/><line class="cls-2" x1="594.94" y1="244.93" x2="594.86" y2="244.93"/><line class="cls-2" x1="594.86" y1="244.93" x2="594.9" y2="244.9"/><line class="cls-2" x1="594.9" y1="244.9" x2="594.97" y2="244.9"/><line class="cls-2" x1="594.97" y1="244.9" x2="595.09" y2="244.86"/><line class="cls-2" x1="595.09" y1="244.86" x2="595.24" y2="244.86"/><line class="cls-2" x1="595.24" y1="244.86" x2="595.39" y2="244.86"/><line class="cls-2" x1="595.39" y1="244.86" x2="595.54" y2="244.86"/><line class="cls-2" x1="595.54" y1="244.86" x2="595.69" y2="244.86"/><line class="cls-2" x1="595.69" y1="244.86" x2="595.84" y2="244.86"/><line class="cls-2" x1="595.84" y1="244.86" x2="595.96" y2="244.9"/><line class="cls-2" x1="595.96" y1="244.9" x2="596.03" y2="244.9"/><line class="cls-2" x1="596.03" y1="244.9" x2="596.11" y2="244.9"/><line class="cls-2" x1="596.11" y1="244.9" x2="596.11" y2="244.93"/><line class="cls-2" x1="595.35" y1="245.12" x2="595.47" y2="245.2"/><line class="cls-2" x1="595.47" y1="245.2" x2="595.62" y2="245.12"/><line class="cls-2" x1="595.62" y1="245.12" x2="595.58" y2="245.12"/><line class="cls-2" x1="595.58" y1="245.12" x2="595.54" y2="245.12"/><line class="cls-2" x1="595.54" y1="245.12" x2="595.5" y2="245.12"/><line class="cls-2" x1="595.5" y1="245.12" x2="595.47" y2="245.12"/><line class="cls-2" x1="595.47" y1="244.93" x2="595.43" y2="244.93"/><line class="cls-2" x1="595.43" y1="244.93" x2="595.39" y2="244.93"/><line class="cls-2" x1="595.39" y1="244.93" x2="595.35" y2="244.93"/><line class="cls-2" x1="595.35" y1="244.93" x2="595.35" y2="245.12"/><line class="cls-2" x1="595.35" y1="245.12" x2="595.39" y2="245.12"/><line class="cls-2" x1="595.39" y1="245.12" x2="595.43" y2="245.12"/><line class="cls-2" x1="595.43" y1="245.12" x2="595.47" y2="245.12"/><line class="cls-2" x1="595.62" y1="245.12" x2="595.62" y2="244.93"/><line class="cls-2" x1="595.62" y1="244.93" x2="595.58" y2="244.93"/><line class="cls-2" x1="595.58" y1="244.93" x2="595.54" y2="244.93"/><line class="cls-2" x1="595.54" y1="244.93" x2="595.5" y2="244.93"/><line class="cls-2" x1="595.5" y1="244.93" x2="595.47" y2="244.93"/><polygon class="cls-1" points="595.88 247.05 595.92 246.97 595.88 246.9 595.84 246.82 595.81 246.75 595.69 246.71 595.62 246.67 595.5 246.67 595.39 246.67 595.28 246.71 595.2 246.75 595.13 246.82 595.09 246.9 595.09 246.97 595.09 247.05 595.13 247.13 595.2 247.2 595.28 247.24 595.39 247.28 595.5 247.28 595.62 247.28 595.69 247.24 595.81 247.2 595.84 247.13 595.88 247.05"/><line class="cls-2" x1="595.92" y1="246.98" x2="595.88" y2="246.9"/><line class="cls-2" x1="595.88" y1="246.9" x2="595.84" y2="246.82"/><line class="cls-2" x1="595.84" y1="246.82" x2="595.81" y2="246.75"/><line class="cls-2" x1="595.81" y1="246.75" x2="595.69" y2="246.71"/><line class="cls-2" x1="595.69" y1="246.71" x2="595.62" y2="246.67"/><line class="cls-2" x1="595.62" y1="246.67" x2="595.5" y2="246.67"/><line class="cls-2" x1="595.5" y1="246.67" x2="595.39" y2="246.67"/><line class="cls-2" x1="595.39" y1="246.67" x2="595.28" y2="246.71"/><line class="cls-2" x1="595.28" y1="246.71" x2="595.2" y2="246.75"/><line class="cls-2" x1="595.2" y1="246.75" x2="595.13" y2="246.82"/><line class="cls-2" x1="595.13" y1="246.82" x2="595.09" y2="246.9"/><line class="cls-2" x1="595.09" y1="246.9" x2="595.09" y2="246.98"/><line class="cls-2" x1="595.09" y1="246.98" x2="595.09" y2="247.05"/><line class="cls-2" x1="595.09" y1="247.05" x2="595.13" y2="247.13"/><line class="cls-2" x1="595.13" y1="247.13" x2="595.2" y2="247.2"/><line class="cls-2" x1="595.2" y1="247.2" x2="595.28" y2="247.24"/><line class="cls-2" x1="595.28" y1="247.24" x2="595.39" y2="247.28"/><line class="cls-2" x1="595.39" y1="247.28" x2="595.5" y2="247.28"/><line class="cls-2" x1="595.5" y1="247.28" x2="595.62" y2="247.28"/><line class="cls-2" x1="595.62" y1="247.28" x2="595.69" y2="247.24"/><line class="cls-2" x1="595.69" y1="247.24" x2="595.81" y2="247.2"/><line class="cls-2" x1="595.81" y1="247.2" x2="595.84" y2="247.13"/><line class="cls-2" x1="595.84" y1="247.13" x2="595.88" y2="247.05"/><line class="cls-2" x1="595.88" y1="247.05" x2="595.92" y2="246.98"/><polygon class="cls-1" points="596.15 247.13 596.18 246.97 596.15 246.86 596.07 246.71 595.96 246.6 595.84 246.52 595.69 246.48 595.5 246.45 595.32 246.48 595.16 246.52 595.01 246.6 594.9 246.71 594.86 246.86 594.82 246.97 594.86 247.13 594.9 247.24 595.01 247.35 595.16 247.43 595.32 247.47 595.5 247.5 595.69 247.47 595.84 247.43 595.96 247.35 596.07 247.24 596.15 247.13"/><line class="cls-2" x1="596.18" y1="246.98" x2="596.15" y2="246.86"/><line class="cls-2" x1="596.15" y1="246.86" x2="596.07" y2="246.71"/><line class="cls-2" x1="596.07" y1="246.71" x2="595.96" y2="246.6"/><line class="cls-2" x1="595.96" y1="246.6" x2="595.84" y2="246.52"/><line class="cls-2" x1="595.84" y1="246.52" x2="595.69" y2="246.48"/><line class="cls-2" x1="595.69" y1="246.48" x2="595.5" y2="246.45"/><line class="cls-2" x1="595.5" y1="246.45" x2="595.31" y2="246.48"/><line class="cls-2" x1="595.31" y1="246.48" x2="595.16" y2="246.52"/><line class="cls-2" x1="595.16" y1="246.52" x2="595.01" y2="246.6"/><line class="cls-2" x1="595.01" y1="246.6" x2="594.9" y2="246.71"/><line class="cls-2" x1="594.9" y1="246.71" x2="594.86" y2="246.86"/><line class="cls-2" x1="594.86" y1="246.86" x2="594.82" y2="246.98"/><line class="cls-2" x1="594.82" y1="246.98" x2="594.86" y2="247.13"/><line class="cls-2" x1="594.86" y1="247.13" x2="594.9" y2="247.24"/><line class="cls-2" x1="594.9" y1="247.24" x2="595.01" y2="247.35"/><line class="cls-2" x1="595.01" y1="247.35" x2="595.16" y2="247.43"/><line class="cls-2" x1="595.16" y1="247.43" x2="595.31" y2="247.47"/><line class="cls-2" x1="595.31" y1="247.47" x2="595.5" y2="247.5"/><line class="cls-2" x1="595.5" y1="247.5" x2="595.69" y2="247.47"/><line class="cls-2" x1="595.69" y1="247.47" x2="595.84" y2="247.43"/><line class="cls-2" x1="595.84" y1="247.43" x2="595.96" y2="247.35"/><line class="cls-2" x1="595.96" y1="247.35" x2="596.07" y2="247.24"/><line class="cls-2" x1="596.07" y1="247.24" x2="596.15" y2="247.13"/><line class="cls-2" x1="596.15" y1="247.13" x2="596.18" y2="246.98"/><polygon class="cls-1" points="595.84 247.05 595.88 246.97 595.84 246.9 595.81 246.82 595.77 246.79 595.69 246.71 595.58 246.71 595.5 246.67 595.39 246.71 595.32 246.71 595.24 246.79 595.16 246.82 595.13 246.9 595.13 246.97 595.13 247.05 595.16 247.13 595.24 247.16 595.32 247.24 595.39 247.24 595.5 247.28 595.58 247.24 595.69 247.24 595.77 247.16 595.81 247.13 595.84 247.05"/><line class="cls-2" x1="595.88" y1="246.98" x2="595.84" y2="246.9"/><line class="cls-2" x1="595.84" y1="246.9" x2="595.81" y2="246.82"/><line class="cls-2" x1="595.81" y1="246.82" x2="595.77" y2="246.79"/><line class="cls-2" x1="595.77" y1="246.79" x2="595.69" y2="246.71"/><line class="cls-2" x1="595.69" y1="246.71" x2="595.58" y2="246.71"/><line class="cls-2" x1="595.58" y1="246.71" x2="595.5" y2="246.67"/><line class="cls-2" x1="595.5" y1="246.67" x2="595.39" y2="246.71"/><line class="cls-2" x1="595.39" y1="246.71" x2="595.31" y2="246.71"/><line class="cls-2" x1="595.31" y1="246.71" x2="595.24" y2="246.79"/><line class="cls-2" x1="595.24" y1="246.79" x2="595.16" y2="246.82"/><line class="cls-2" x1="595.16" y1="246.82" x2="595.13" y2="246.9"/><line class="cls-2" x1="595.13" y1="246.9" x2="595.13" y2="246.98"/><line class="cls-2" x1="595.13" y1="246.98" x2="595.13" y2="247.05"/><line class="cls-2" x1="595.13" y1="247.05" x2="595.16" y2="247.13"/><line class="cls-2" x1="595.16" y1="247.13" x2="595.24" y2="247.16"/><line class="cls-2" x1="595.24" y1="247.16" x2="595.31" y2="247.24"/><line class="cls-2" x1="595.31" y1="247.24" x2="595.39" y2="247.24"/><line class="cls-2" x1="595.39" y1="247.24" x2="595.5" y2="247.28"/><line class="cls-2" x1="595.5" y1="247.28" x2="595.58" y2="247.24"/><line class="cls-2" x1="595.58" y1="247.24" x2="595.69" y2="247.24"/><line class="cls-2" x1="595.69" y1="247.24" x2="595.77" y2="247.16"/><line class="cls-2" x1="595.77" y1="247.16" x2="595.81" y2="247.13"/><line class="cls-2" x1="595.81" y1="247.13" x2="595.84" y2="247.05"/><line class="cls-2" x1="595.84" y1="247.05" x2="595.88" y2="246.98"/><line class="cls-2" x1="609.79" y1="251.25" x2="609.91" y2="250.34"/><line class="cls-2" x1="609.91" y1="250.34" x2="609.79" y2="249.39"/><line class="cls-2" x1="609.79" y1="249.39" x2="609.53" y2="248.53"/><line class="cls-2" x1="609.53" y1="248.53" x2="609.04" y2="247.73"/><line class="cls-2" x1="609.04" y1="247.73" x2="608.39" y2="246.98"/><line class="cls-2" x1="608.39" y1="246.98" x2="607.6" y2="246.33"/><line class="cls-2" x1="607.6" y1="246.33" x2="606.69" y2="245.8"/><line class="cls-2" x1="606.69" y1="245.8" x2="605.67" y2="245.39"/><line class="cls-2" x1="605.67" y1="245.39" x2="604.58" y2="245.09"/><line class="cls-2" x1="604.58" y1="245.09" x2="603.25" y2="244.9"/><line class="cls-2" x1="603.25" y1="244.9" x2="601.55" y2="244.78"/><line class="cls-2" x1="601.55" y1="244.78" x2="599.81" y2="244.67"/><line class="cls-2" x1="599.81" y1="244.67" x2="598.07" y2="244.59"/><line class="cls-2" x1="598.07" y1="244.59" x2="596.34" y2="244.56"/><line class="cls-2" x1="596.34" y1="244.56" x2="594.6" y2="244.56"/><line class="cls-2" x1="594.6" y1="244.56" x2="592.86" y2="244.59"/><line class="cls-2" x1="592.86" y1="244.59" x2="591.12" y2="244.67"/><line class="cls-2" x1="591.12" y1="244.67" x2="589.42" y2="244.78"/><line class="cls-2" x1="589.42" y1="244.78" x2="587.72" y2="244.9"/><line class="cls-2" x1="587.72" y1="244.9" x2="586.39" y2="245.09"/><line class="cls-2" x1="586.39" y1="245.09" x2="585.26" y2="245.39"/><line class="cls-2" x1="585.26" y1="245.39" x2="584.24" y2="245.8"/><line class="cls-2" x1="584.24" y1="245.8" x2="583.33" y2="246.33"/><line class="cls-2" x1="583.33" y1="246.33" x2="582.58" y2="246.98"/><line class="cls-2" x1="582.58" y1="246.98" x2="581.93" y2="247.73"/><line class="cls-2" x1="581.93" y1="247.73" x2="581.44" y2="248.53"/><line class="cls-2" x1="581.44" y1="248.53" x2="581.14" y2="249.39"/><line class="cls-2" x1="581.14" y1="249.39" x2="581.07" y2="250.34"/><line class="cls-2" x1="581.07" y1="250.34" x2="581.14" y2="251.25"/><line class="cls-2" x1="581.14" y1="251.25" x2="581.44" y2="252.12"/><line class="cls-2" x1="581.44" y1="252.12" x2="581.93" y2="252.95"/><line class="cls-2" x1="581.93" y1="252.95" x2="582.58" y2="253.67"/><line class="cls-2" x1="582.58" y1="253.67" x2="583.33" y2="254.35"/><line class="cls-2" x1="583.33" y1="254.35" x2="584.24" y2="254.88"/><line class="cls-2" x1="584.24" y1="254.88" x2="585.26" y2="255.29"/><line class="cls-2" x1="585.26" y1="255.29" x2="586.39" y2="255.59"/><line class="cls-2" x1="586.39" y1="255.59" x2="587.72" y2="255.74"/><line class="cls-2" x1="587.72" y1="255.74" x2="589.42" y2="255.9"/><line class="cls-2" x1="589.42" y1="255.9" x2="591.12" y2="256.01"/><line class="cls-2" x1="591.12" y1="256.01" x2="592.86" y2="256.08"/><line class="cls-2" x1="592.86" y1="256.08" x2="594.6" y2="256.08"/><line class="cls-2" x1="594.6" y1="256.08" x2="596.34" y2="256.08"/><line class="cls-2" x1="596.34" y1="256.08" x2="598.07" y2="256.08"/><line class="cls-2" x1="598.07" y1="256.08" x2="599.81" y2="256.01"/><line class="cls-2" x1="599.81" y1="256.01" x2="601.55" y2="255.9"/><line class="cls-2" x1="601.55" y1="255.9" x2="603.25" y2="255.74"/><line class="cls-2" x1="603.25" y1="255.74" x2="604.58" y2="255.59"/><line class="cls-2" x1="604.58" y1="255.59" x2="605.67" y2="255.29"/><line class="cls-2" x1="605.67" y1="255.29" x2="606.69" y2="254.88"/><line class="cls-2" x1="606.69" y1="254.88" x2="607.6" y2="254.35"/><line class="cls-2" x1="607.6" y1="254.35" x2="608.39" y2="253.67"/><line class="cls-2" x1="608.39" y1="253.67" x2="609.04" y2="252.95"/><line class="cls-2" x1="609.04" y1="252.95" x2="609.53" y2="252.12"/><line class="cls-2" x1="609.53" y1="252.12" x2="609.79" y2="251.25"/><line class="cls-2" x1="607.03" y1="250.91" x2="607.07" y2="250.34"/><line class="cls-2" x1="607.07" y1="250.34" x2="607.03" y2="249.77"/><line class="cls-2" x1="607.03" y1="249.77" x2="606.84" y2="249.24"/><line class="cls-2" x1="606.84" y1="249.24" x2="606.58" y2="248.75"/><line class="cls-2" x1="606.58" y1="248.75" x2="606.16" y2="248.34"/><line class="cls-2" x1="606.16" y1="248.34" x2="605.71" y2="247.92"/><line class="cls-2" x1="605.71" y1="247.92" x2="605.14" y2="247.62"/><line class="cls-2" x1="605.14" y1="247.62" x2="604.54" y2="247.35"/><line class="cls-2" x1="604.54" y1="247.35" x2="603.9" y2="247.16"/><line class="cls-2" x1="603.9" y1="247.16" x2="602.87" y2="247.05"/><line class="cls-2" x1="602.87" y1="247.05" x2="601.29" y2="246.94"/><line class="cls-2" x1="601.29" y1="246.94" x2="599.62" y2="246.82"/><line class="cls-2" x1="599.62" y1="246.82" x2="597.96" y2="246.75"/><line class="cls-2" x1="597.96" y1="246.75" x2="596.3" y2="246.71"/><line class="cls-2" x1="596.3" y1="246.71" x2="594.63" y2="246.71"/><line class="cls-2" x1="594.63" y1="246.71" x2="592.97" y2="246.75"/><line class="cls-2" x1="592.97" y1="246.75" x2="591.31" y2="246.82"/><line class="cls-2" x1="591.31" y1="246.82" x2="589.65" y2="246.94"/><line class="cls-2" x1="589.65" y1="246.94" x2="588.1" y2="247.05"/><line class="cls-2" x1="588.1" y1="247.05" x2="587.07" y2="247.16"/><line class="cls-2" x1="587.07" y1="247.16" x2="586.39" y2="247.35"/><line class="cls-2" x1="586.39" y1="247.35" x2="585.79" y2="247.62"/><line class="cls-2" x1="585.79" y1="247.62" x2="585.26" y2="247.92"/><line class="cls-2" x1="585.26" y1="247.92" x2="584.77" y2="248.34"/><line class="cls-2" x1="584.77" y1="248.34" x2="584.39" y2="248.75"/><line class="cls-2" x1="584.39" y1="248.75" x2="584.13" y2="249.24"/><line class="cls-2" x1="584.13" y1="249.24" x2="583.94" y2="249.77"/><line class="cls-2" x1="583.94" y1="249.77" x2="583.86" y2="250.34"/><line class="cls-2" x1="583.86" y1="250.34" x2="583.94" y2="250.91"/><line class="cls-2" x1="583.94" y1="250.91" x2="584.13" y2="251.4"/><line class="cls-2" x1="584.13" y1="251.4" x2="584.39" y2="251.89"/><line class="cls-2" x1="584.39" y1="251.89" x2="584.77" y2="252.34"/><line class="cls-2" x1="584.77" y1="252.34" x2="585.26" y2="252.72"/><line class="cls-2" x1="585.26" y1="252.72" x2="585.79" y2="253.06"/><line class="cls-2" x1="585.79" y1="253.06" x2="586.39" y2="253.33"/><line class="cls-2" x1="586.39" y1="253.33" x2="587.07" y2="253.48"/><line class="cls-2" x1="587.07" y1="253.48" x2="588.1" y2="253.63"/><line class="cls-2" x1="588.1" y1="253.63" x2="589.65" y2="253.74"/><line class="cls-2" x1="589.65" y1="253.74" x2="591.31" y2="253.85"/><line class="cls-2" x1="591.31" y1="253.85" x2="592.97" y2="253.93"/><line class="cls-2" x1="592.97" y1="253.93" x2="594.63" y2="253.93"/><line class="cls-2" x1="594.63" y1="253.93" x2="596.3" y2="253.93"/><line class="cls-2" x1="596.3" y1="253.93" x2="597.96" y2="253.93"/><line class="cls-2" x1="597.96" y1="253.93" x2="599.62" y2="253.85"/><line class="cls-2" x1="599.62" y1="253.85" x2="601.29" y2="253.74"/><line class="cls-2" x1="601.29" y1="253.74" x2="602.87" y2="253.63"/><line class="cls-2" x1="602.87" y1="253.63" x2="603.9" y2="253.48"/><line class="cls-2" x1="603.9" y1="253.48" x2="604.54" y2="253.33"/><line class="cls-2" x1="604.54" y1="253.33" x2="605.14" y2="253.06"/><line class="cls-2" x1="605.14" y1="253.06" x2="605.71" y2="252.72"/><line class="cls-2" x1="605.71" y1="252.72" x2="606.16" y2="252.34"/><line class="cls-2" x1="606.16" y1="252.34" x2="606.58" y2="251.89"/><line class="cls-2" x1="606.58" y1="251.89" x2="606.84" y2="251.4"/><line class="cls-2" x1="606.84" y1="251.4" x2="607.03" y2="250.91"/></g></g></svg>