<svg id="图层_1" data-name="图层 1" xmlns="http://www.w3.org/2000/svg" viewBox="0 0 1008 504"><defs><style>.cls-1{fill:#fff;}.cls-2,.cls-3{fill:none;stroke:#0c4f71;stroke-linecap:round;stroke-linejoin:bevel;}.cls-2{stroke-width:0.3px;}.cls-3{stroke-width:0.15px;}</style></defs><title>SUNROOM--WINDOW-2</title><g id="merlot-IFP_main_floor" data-name="merlot-IFP main floor"><g id="SUNROOM-2"><g id="SUNROOM--WINDOW-2"><rect class="cls-1" x="521.66" y="116.7" width="3.94" height="22.59"/><line class="cls-2" x1="525.03" y1="116.7" x2="522.42" y2="116.7"/><line class="cls-2" x1="525.03" y1="139.38" x2="522.42" y2="139.38"/><line class="cls-3" x1="525.55" y1="128.04" x2="522.04" y2="128.04"/><line class="cls-3" x1="525.44" y1="128.04" x2="525.44" y2="127.66"/><line class="cls-3" x1="522.19" y1="128.04" x2="522.19" y2="127.66"/><line class="cls-3" x1="525.44" y1="128.04" x2="522.19" y2="128.04"/><line class="cls-3" x1="525.44" y1="127.66" x2="522.19" y2="127.66"/><line class="cls-3" x1="525.44" y1="117.04" x2="525.44" y2="116.7"/><line class="cls-3" x1="522.19" y1="117.04" x2="522.19" y2="116.7"/><line class="cls-3" x1="525.44" y1="117.04" x2="522.19" y2="117.04"/><line class="cls-3" x1="525.44" y1="116.7" x2="522.19" y2="116.7"/><line class="cls-3" x1="524.87" y1="127.66" x2="524.87" y2="117.04"/><line class="cls-3" x1="524.5" y1="127.66" x2="524.5" y2="117.04"/><line class="cls-3" x1="525.55" y1="128.04" x2="522.04" y2="128.04"/><line class="cls-3" x1="525.55" y1="128.04" x2="525.55" y2="128.04"/><line class="cls-3" x1="522.04" y1="128.04" x2="522.04" y2="128.04"/><line class="cls-3" x1="525.44" y1="139.38" x2="525.44" y2="139"/><line class="cls-3" x1="522.19" y1="139.38" x2="522.19" y2="139"/><line class="cls-3" x1="525.44" y1="139.38" x2="522.19" y2="139.38"/><line class="cls-3" x1="525.44" y1="139" x2="522.19" y2="139"/><line class="cls-3" x1="525.44" y1="128.38" x2="525.44" y2="128.04"/><line class="cls-3" x1="522.19" y1="128.38" x2="522.19" y2="128.04"/><line class="cls-3" x1="525.44" y1="128.38" x2="522.19" y2="128.38"/><line class="cls-3" x1="525.44" y1="128.04" x2="522.19" y2="128.04"/><line class="cls-3" x1="524.87" y1="139" x2="524.87" y2="128.38"/><line class="cls-3" x1="524.5" y1="139" x2="524.5" y2="128.38"/><line class="cls-3" x1="525.44" y1="115.75" x2="526.27" y2="115.75"/><line class="cls-3" x1="526.27" y1="115.75" x2="526.27" y2="140.32"/><line class="cls-3" x1="525.44" y1="140.32" x2="526.27" y2="140.32"/><line class="cls-3" x1="525.44" y1="139.38" x2="525.82" y2="139.38"/><line class="cls-3" x1="525.82" y1="139.38" x2="525.82" y2="140.32"/><line class="cls-3" x1="525.44" y1="140.32" x2="525.82" y2="140.32"/><line class="cls-3" x1="525.44" y1="116.7" x2="525.82" y2="116.7"/><line class="cls-3" x1="525.82" y1="115.75" x2="525.82" y2="116.7"/><line class="cls-3" x1="525.44" y1="115.75" x2="525.82" y2="115.75"/><line class="cls-3" x1="522.19" y1="140.25" x2="521.4" y2="140.25"/><line class="cls-3" x1="521.4" y1="115.79" x2="521.4" y2="140.25"/><line class="cls-3" x1="522.19" y1="115.79" x2="521.4" y2="115.79"/><line class="cls-3" x1="522.19" y1="117" x2="521.89" y2="117"/><line class="cls-3" x1="521.89" y1="116.06" x2="521.89" y2="117"/><line class="cls-3" x1="522.19" y1="116.06" x2="521.89" y2="116.06"/><line class="cls-3" x1="522.19" y1="116.06" x2="522.19" y2="117"/><line class="cls-3" x1="522.19" y1="139.08" x2="521.89" y2="139.08"/><line class="cls-3" x1="521.89" y1="139.08" x2="521.89" y2="140.02"/><line class="cls-3" x1="522.19" y1="140.02" x2="521.89" y2="140.02"/><line class="cls-3" x1="522.19" y1="139.08" x2="522.19" y2="140.02"/></g><g id="SUNROOM--WINDOW-2-2" data-name="SUNROOM--WINDOW-2"><rect class="cls-1" x="456.27" y="116.7" width="3.94" height="22.59"/><line class="cls-2" x1="456.99" y1="139.38" x2="459.56" y2="139.38"/><line class="cls-2" x1="456.99" y1="116.7" x2="459.56" y2="116.7"/><line class="cls-3" x1="456.42" y1="128.04" x2="459.94" y2="128.04"/><line class="cls-3" x1="456.54" y1="128.04" x2="456.54" y2="128.38"/><line class="cls-3" x1="459.82" y1="128.04" x2="459.82" y2="128.38"/><line class="cls-3" x1="456.54" y1="128.04" x2="459.82" y2="128.04"/><line class="cls-3" x1="456.54" y1="128.38" x2="459.82" y2="128.38"/><line class="cls-3" x1="456.54" y1="139" x2="456.54" y2="139.38"/><line class="cls-3" x1="459.82" y1="139" x2="459.82" y2="139.38"/><line class="cls-3" x1="456.54" y1="139" x2="459.82" y2="139"/><line class="cls-3" x1="456.54" y1="139.38" x2="459.82" y2="139.38"/><line class="cls-3" x1="457.1" y1="128.38" x2="457.1" y2="139"/><line class="cls-3" x1="457.48" y1="128.38" x2="457.48" y2="139"/><line class="cls-3" x1="456.42" y1="128.04" x2="459.94" y2="128.04"/><line class="cls-3" x1="456.42" y1="128.04" x2="456.42" y2="128.04"/><line class="cls-3" x1="459.94" y1="128.04" x2="459.94" y2="128.04"/><line class="cls-3" x1="456.54" y1="116.7" x2="456.54" y2="117.04"/><line class="cls-3" x1="459.82" y1="116.7" x2="459.82" y2="117.04"/><line class="cls-3" x1="456.54" y1="116.7" x2="459.82" y2="116.7"/><line class="cls-3" x1="456.54" y1="117.04" x2="459.82" y2="117.04"/><line class="cls-3" x1="456.54" y1="127.66" x2="456.54" y2="128.04"/><line class="cls-3" x1="459.82" y1="127.66" x2="459.82" y2="128.04"/><line class="cls-3" x1="456.54" y1="127.66" x2="459.82" y2="127.66"/><line class="cls-3" x1="456.54" y1="128.04" x2="459.82" y2="128.04"/><line class="cls-3" x1="457.1" y1="117.04" x2="457.1" y2="127.66"/><line class="cls-3" x1="457.48" y1="117.04" x2="457.48" y2="127.66"/><line class="cls-3" x1="456.54" y1="140.32" x2="455.7" y2="140.32"/><line class="cls-3" x1="455.7" y1="140.32" x2="455.7" y2="115.75"/><line class="cls-3" x1="456.54" y1="115.75" x2="455.7" y2="115.75"/><line class="cls-3" x1="456.54" y1="116.7" x2="456.16" y2="116.7"/><line class="cls-3" x1="456.16" y1="116.7" x2="456.16" y2="115.75"/><line class="cls-3" x1="456.54" y1="115.75" x2="456.16" y2="115.75"/><line class="cls-3" x1="456.54" y1="139.38" x2="456.16" y2="139.38"/><line class="cls-3" x1="456.16" y1="140.32" x2="456.16" y2="139.38"/><line class="cls-3" x1="456.54" y1="140.32" x2="456.16" y2="140.32"/><line class="cls-3" x1="459.82" y1="115.79" x2="460.58" y2="115.79"/><line class="cls-3" x1="460.58" y1="140.25" x2="460.58" y2="115.79"/><line class="cls-3" x1="459.82" y1="140.25" x2="460.58" y2="140.25"/><line class="cls-3" x1="459.82" y1="139.08" x2="460.09" y2="139.08"/><line class="cls-3" x1="460.09" y1="140.02" x2="460.09" y2="139.08"/><line class="cls-3" x1="459.82" y1="140.02" x2="460.09" y2="140.02"/><line class="cls-3" x1="459.82" y1="140.02" x2="459.82" y2="139.08"/><line class="cls-3" x1="459.82" y1="117" x2="460.09" y2="117"/><line class="cls-3" x1="460.09" y1="117" x2="460.09" y2="116.06"/><line class="cls-3" x1="459.82" y1="116.06" x2="460.09" y2="116.06"/><line class="cls-3" x1="459.82" y1="117" x2="459.82" y2="116.06"/></g></g></g></svg>