<svg id="图层_1" data-name="图层 1" xmlns="http://www.w3.org/2000/svg" xmlns:xlink="http://www.w3.org/1999/xlink" viewBox="0 0 1008 504"><defs><style>.cls-1,.cls-5,.cls-6{fill:none;}.cls-2{clip-path:url(#clip-path);}.cls-3{fill:#fff;}.cls-4{fill:#0b4d6e;}.cls-5,.cls-6{stroke:#0b4d6e;stroke-linecap:round;stroke-linejoin:bevel;}.cls-5{stroke-width:0.3px;}.cls-6{stroke-width:0.15px;}</style><clipPath id="clip-path"><rect class="cls-1" x="290.69" y="154.08" width="79.95" height="28.13"/></clipPath></defs><g id="FRENCH_DOOR-2" data-name="FRENCH DOOR-2"><g class="cls-2"><rect class="cls-3" x="315.96" y="157.72" width="34.61" height="6.69"/><rect class="cls-4" x="297.65" y="162.22" width="1.66" height="32.36"/><rect class="cls-4" x="297.42" y="158.21" width="18.52" height="3.78"/><rect class="cls-4" x="350.68" y="158.21" width="44.3" height="3.78"/><rect class="cls-4" x="293.64" y="158.21" width="3.78" height="36.36"/><rect class="cls-4" x="299.31" y="162.22" width="16.63" height="1.66"/><rect class="cls-4" x="350.68" y="162.22" width="44.3" height="1.66"/><line class="cls-5" x1="297.65" y1="162.22" x2="297.65" y2="182.17"/><line class="cls-5" x1="299.31" y1="162.22" x2="297.65" y2="162.22"/><line class="cls-5" x1="299.31" y1="182.17" x2="299.31" y2="163.88"/><line class="cls-5" x1="315.94" y1="158.21" x2="297.42" y2="158.21"/><line class="cls-5" x1="370.6" y1="158.21" x2="350.68" y2="158.21"/><line class="cls-5" x1="315.94" y1="158.21" x2="315.94" y2="161.99"/><line class="cls-5" x1="350.68" y1="158.21" x2="350.68" y2="161.99"/><line class="cls-5" x1="297.42" y1="161.99" x2="315.94" y2="161.99"/><line class="cls-5" x1="350.68" y1="161.99" x2="370.6" y2="161.99"/><line class="cls-6" x1="350.68" y1="158.21" x2="350.34" y2="158.21"/><line class="cls-6" x1="350.68" y1="161.99" x2="350.34" y2="161.99"/><line class="cls-6" x1="350.68" y1="158.21" x2="350.68" y2="161.99"/><line class="cls-6" x1="350.34" y1="158.21" x2="350.34" y2="161.99"/><line class="cls-6" x1="316.32" y1="158.21" x2="315.94" y2="158.21"/><line class="cls-6" x1="316.32" y1="161.99" x2="315.94" y2="161.99"/><line class="cls-6" x1="316.32" y1="158.21" x2="316.32" y2="161.99"/><line class="cls-6" x1="315.94" y1="158.21" x2="315.94" y2="161.99"/><line class="cls-6" x1="316.32" y1="158.21" x2="350.34" y2="158.21"/><line class="cls-6" x1="350.45" y1="158.21" x2="350.45" y2="157.72"/><line class="cls-6" x1="350.45" y1="157.72" x2="351.97" y2="157.72"/><line class="cls-6" x1="351.97" y1="158.21" x2="351.97" y2="157.72"/><line class="cls-6" x1="316.21" y1="158.21" x2="316.21" y2="157.72"/><line class="cls-6" x1="314.66" y1="157.72" x2="316.21" y2="157.72"/><line class="cls-6" x1="314.66" y1="158.21" x2="314.66" y2="157.72"/><line class="cls-5" x1="293.64" y1="158.21" x2="293.64" y2="182.17"/><line class="cls-5" x1="297.42" y1="158.21" x2="293.64" y2="158.21"/><line class="cls-5" x1="293.64" y1="158.21" x2="297.42" y2="158.21"/><line class="cls-5" x1="297.42" y1="182.17" x2="297.42" y2="161.99"/><line class="cls-5" x1="315.94" y1="162.22" x2="299.31" y2="162.22"/><line class="cls-5" x1="370.6" y1="162.22" x2="350.68" y2="162.22"/><line class="cls-5" x1="315.94" y1="162.22" x2="315.94" y2="163.88"/><line class="cls-5" x1="350.68" y1="162.22" x2="350.68" y2="163.88"/><line class="cls-5" x1="299.31" y1="163.88" x2="315.94" y2="163.88"/><line class="cls-5" x1="350.68" y1="163.88" x2="370.6" y2="163.88"/><line class="cls-6" x1="350.68" y1="161.99" x2="350.34" y2="161.99"/><line class="cls-6" x1="350.68" y1="164.11" x2="350.34" y2="164.11"/><line class="cls-6" x1="350.68" y1="161.99" x2="350.68" y2="164.11"/><line class="cls-6" x1="350.34" y1="161.99" x2="350.34" y2="164.11"/><line class="cls-6" x1="316.32" y1="161.99" x2="315.94" y2="161.99"/><line class="cls-6" x1="316.32" y1="164.11" x2="315.94" y2="164.11"/><line class="cls-6" x1="316.32" y1="161.99" x2="316.32" y2="164.11"/><line class="cls-6" x1="315.94" y1="161.99" x2="315.94" y2="164.11"/><line class="cls-6" x1="316.32" y1="164.11" x2="316.32" y2="181.12"/><line class="cls-6" x1="316.96" y1="164.11" x2="316.96" y2="181.12"/><line class="cls-6" x1="316.32" y1="181.12" x2="316.96" y2="181.12"/><line class="cls-6" x1="316.96" y1="164.11" x2="316.32" y2="164.11"/><line class="cls-6" x1="333.33" y1="164.11" x2="333.29" y2="165.01"/><line class="cls-6" x1="333.29" y1="165.01" x2="333.22" y2="165.88"/><line class="cls-6" x1="333.22" y1="165.88" x2="333.07" y2="167.02"/><line class="cls-6" x1="333.07" y1="167.02" x2="332.84" y2="168.11"/><line class="cls-6" x1="332.84" y1="168.11" x2="332.54" y2="169.21"/><line class="cls-6" x1="332.54" y1="169.21" x2="332.16" y2="170.31"/><line class="cls-6" x1="332.16" y1="170.31" x2="331.71" y2="171.33"/><line class="cls-6" x1="331.71" y1="171.33" x2="331.18" y2="172.35"/><line class="cls-6" x1="331.18" y1="172.35" x2="330.61" y2="173.33"/><line class="cls-6" x1="330.61" y1="173.33" x2="329.97" y2="174.24"/><line class="cls-6" x1="329.97" y1="174.24" x2="329.25" y2="175.14"/><line class="cls-6" x1="329.25" y1="175.14" x2="328.49" y2="175.98"/><line class="cls-6" x1="328.49" y1="175.98" x2="327.66" y2="176.77"/><line class="cls-6" x1="327.66" y1="176.77" x2="326.79" y2="177.49"/><line class="cls-6" x1="326.79" y1="177.49" x2="325.88" y2="178.17"/><line class="cls-6" x1="325.88" y1="178.17" x2="324.94" y2="178.77"/><line class="cls-6" x1="324.94" y1="178.77" x2="323.96" y2="179.3"/><line class="cls-6" x1="323.96" y1="179.3" x2="322.9" y2="179.79"/><line class="cls-6" x1="322.9" y1="179.79" x2="321.84" y2="180.17"/><line class="cls-6" x1="321.84" y1="180.17" x2="320.78" y2="180.51"/><line class="cls-6" x1="320.78" y1="180.51" x2="319.65" y2="180.78"/><line class="cls-6" x1="319.65" y1="180.78" x2="318.55" y2="180.96"/><line class="cls-6" x1="318.55" y1="180.96" x2="317.42" y2="181.08"/><line class="cls-6" x1="317.42" y1="181.08" x2="316.32" y2="181.12"/><line class="cls-6" x1="350.34" y1="164.11" x2="350.34" y2="181.12"/><line class="cls-6" x1="349.66" y1="164.11" x2="349.66" y2="181.12"/><line class="cls-6" x1="350.34" y1="181.12" x2="349.66" y2="181.12"/><line class="cls-6" x1="349.66" y1="164.11" x2="350.34" y2="164.11"/><line class="cls-6" x1="333.33" y1="164.11" x2="333.33" y2="165.01"/><line class="cls-6" x1="333.33" y1="165.01" x2="333.41" y2="165.88"/><line class="cls-6" x1="333.41" y1="165.88" x2="333.56" y2="167.02"/><line class="cls-6" x1="333.56" y1="167.02" x2="333.78" y2="168.11"/><line class="cls-6" x1="333.78" y1="168.11" x2="334.09" y2="169.21"/><line class="cls-6" x1="334.09" y1="169.21" x2="334.46" y2="170.31"/><line class="cls-6" x1="334.46" y1="170.31" x2="334.92" y2="171.33"/><line class="cls-6" x1="334.92" y1="171.33" x2="335.45" y2="172.35"/><line class="cls-6" x1="335.45" y1="172.35" x2="336.01" y2="173.33"/><line class="cls-6" x1="336.01" y1="173.33" x2="336.66" y2="174.24"/><line class="cls-6" x1="336.66" y1="174.24" x2="337.38" y2="175.14"/><line class="cls-6" x1="337.38" y1="175.14" x2="338.13" y2="175.98"/><line class="cls-6" x1="338.13" y1="175.98" x2="338.96" y2="176.77"/><line class="cls-6" x1="338.96" y1="176.77" x2="339.83" y2="177.49"/><line class="cls-6" x1="339.83" y1="177.49" x2="340.74" y2="178.17"/><line class="cls-6" x1="340.74" y1="178.17" x2="341.68" y2="178.77"/><line class="cls-6" x1="341.68" y1="178.77" x2="342.7" y2="179.3"/><line class="cls-6" x1="342.7" y1="179.3" x2="343.73" y2="179.79"/><line class="cls-6" x1="343.73" y1="179.79" x2="344.78" y2="180.17"/><line class="cls-6" x1="344.78" y1="180.17" x2="345.88" y2="180.51"/><line class="cls-6" x1="345.88" y1="180.51" x2="346.98" y2="180.78"/><line class="cls-6" x1="346.98" y1="180.78" x2="348.07" y2="180.96"/><line class="cls-6" x1="348.07" y1="180.96" x2="349.21" y2="181.08"/><line class="cls-6" x1="349.21" y1="181.08" x2="350.34" y2="181.12"/><line class="cls-6" x1="316.32" y1="161.99" x2="350.34" y2="161.99"/><line class="cls-6" x1="316.21" y1="164.11" x2="316.21" y2="164.41"/><line class="cls-6" x1="314.66" y1="164.41" x2="316.21" y2="164.41"/><line class="cls-6" x1="314.66" y1="164.11" x2="314.66" y2="164.41"/><line class="cls-6" x1="350.45" y1="164.11" x2="350.45" y2="164.41"/><line class="cls-6" x1="350.45" y1="164.41" x2="351.97" y2="164.41"/><line class="cls-6" x1="351.97" y1="164.11" x2="351.97" y2="164.41"/></g></g></svg>