<svg id="图层_1" data-name="图层 1" xmlns="http://www.w3.org/2000/svg" viewBox="0 0 1008 504"><defs><style>.cls-1,.cls-3{fill:#0c4f71;}.cls-2{fill:none;stroke:#0b4d6e;stroke-linecap:round;stroke-linejoin:bevel;stroke-width:0.15px;}.cls-3{font-size:7px;font-family:CenturyGothic, Century Gothic;}.cls-4{letter-spacing:0em;}.cls-5{letter-spacing:-0.01em;}.cls-6{letter-spacing:0em;}.cls-7{letter-spacing:0em;}.cls-8{letter-spacing:-0.01em;}.cls-9{letter-spacing:0em;}.cls-10{letter-spacing:0.01em;}.cls-11{letter-spacing:-0.01em;}.cls-12{letter-spacing:0.01em;}.cls-13{letter-spacing:0em;}.cls-14{letter-spacing:-0.01em;}.cls-15{letter-spacing:0em;}</style></defs><g id="THEATRE"><rect class="cls-1" x="411.05" y="335.65" width="1.66" height="68.38"/><rect class="cls-1" x="411.05" y="312.03" width="1.66" height="5.9"/><rect class="cls-1" x="412.71" y="402.14" width="73.71" height="1.66"/><line class="cls-2" x1="410.82" y1="335.65" x2="410.82" y2="341.43"/><line class="cls-2" x1="410.82" y1="312.03" x2="410.82" y2="317.92"/><line class="cls-2" x1="410.82" y1="335.65" x2="412.94" y2="335.65"/><line class="cls-2" x1="410.82" y1="317.92" x2="412.94" y2="317.92"/><line class="cls-2" x1="411.05" y1="335.65" x2="411.05" y2="341.66"/><line class="cls-2" x1="411.05" y1="312.03" x2="411.05" y2="317.92"/><line class="cls-2" x1="411.05" y1="335.65" x2="412.71" y2="335.65"/><line class="cls-2" x1="411.05" y1="317.92" x2="412.71" y2="317.92"/><line class="cls-2" x1="412.71" y1="402.14" x2="412.71" y2="335.65"/><line class="cls-2" x1="412.71" y1="317.92" x2="412.71" y2="316.37"/><line class="cls-2" x1="412.94" y1="401.91" x2="412.94" y2="335.65"/><line class="cls-2" x1="412.94" y1="317.92" x2="412.94" y2="316.64"/><line class="cls-2" x1="410.82" y1="317.92" x2="410.82" y2="318.26"/><line class="cls-2" x1="412.94" y1="317.92" x2="412.94" y2="318.26"/><line class="cls-2" x1="410.82" y1="317.92" x2="412.94" y2="317.92"/><line class="cls-2" x1="410.82" y1="318.26" x2="412.94" y2="318.26"/><line class="cls-2" x1="410.82" y1="335.27" x2="410.82" y2="335.65"/><line class="cls-2" x1="412.94" y1="335.27" x2="412.94" y2="335.65"/><line class="cls-2" x1="410.82" y1="335.27" x2="412.94" y2="335.27"/><line class="cls-2" x1="410.82" y1="335.65" x2="412.94" y2="335.65"/><line class="cls-2" x1="412.94" y1="318.26" x2="429.95" y2="318.26"/><line class="cls-2" x1="412.94" y1="318.94" x2="429.95" y2="318.94"/><line class="cls-2" x1="429.95" y1="318.26" x2="429.95" y2="318.94"/><line class="cls-2" x1="412.94" y1="318.94" x2="412.94" y2="318.26"/><line class="cls-2" x1="412.94" y1="335.27" x2="413.92" y2="335.27"/><line class="cls-2" x1="413.92" y1="335.27" x2="414.9" y2="335.16"/><line class="cls-2" x1="414.9" y1="335.16" x2="416" y2="335.01"/><line class="cls-2" x1="416" y1="335.01" x2="417.13" y2="334.78"/><line class="cls-2" x1="417.13" y1="334.78" x2="418.19" y2="334.44"/><line class="cls-2" x1="418.19" y1="334.44" x2="419.29" y2="334.06"/><line class="cls-2" x1="419.29" y1="334.06" x2="420.31" y2="333.61"/><line class="cls-2" x1="420.31" y1="333.61" x2="421.33" y2="333.08"/><line class="cls-2" x1="421.33" y1="333.08" x2="422.27" y2="332.48"/><line class="cls-2" x1="422.27" y1="332.48" x2="423.22" y2="331.83"/><line class="cls-2" x1="423.22" y1="331.83" x2="424.09" y2="331.11"/><line class="cls-2" x1="424.09" y1="331.11" x2="424.92" y2="330.36"/><line class="cls-2" x1="424.92" y1="330.36" x2="425.71" y2="329.53"/><line class="cls-2" x1="425.71" y1="329.53" x2="426.43" y2="328.66"/><line class="cls-2" x1="426.43" y1="328.66" x2="427.07" y2="327.71"/><line class="cls-2" x1="427.07" y1="327.71" x2="427.68" y2="326.77"/><line class="cls-2" x1="427.68" y1="326.77" x2="428.21" y2="325.75"/><line class="cls-2" x1="428.21" y1="325.75" x2="428.66" y2="324.73"/><line class="cls-2" x1="428.66" y1="324.73" x2="429.08" y2="323.67"/><line class="cls-2" x1="429.08" y1="323.67" x2="429.38" y2="322.57"/><line class="cls-2" x1="429.38" y1="322.57" x2="429.64" y2="321.48"/><line class="cls-2" x1="429.64" y1="321.48" x2="429.83" y2="320.34"/><line class="cls-2" x1="429.83" y1="320.34" x2="429.91" y2="319.32"/><line class="cls-2" x1="429.91" y1="319.32" x2="429.95" y2="318.26"/><line class="cls-2" x1="410.82" y1="318.15" x2="410.52" y2="318.15"/><line class="cls-2" x1="410.52" y1="318.15" x2="410.52" y2="316.64"/><line class="cls-2" x1="410.82" y1="316.64" x2="410.52" y2="316.64"/><line class="cls-2" x1="410.82" y1="335.42" x2="410.52" y2="335.42"/><line class="cls-2" x1="410.52" y1="336.94" x2="410.52" y2="335.42"/><line class="cls-2" x1="410.82" y1="336.94" x2="410.52" y2="336.94"/><line class="cls-2" x1="412.94" y1="335.42" x2="413.24" y2="335.42"/><line class="cls-2" x1="413.24" y1="336.94" x2="413.24" y2="335.42"/><line class="cls-2" x1="412.94" y1="336.94" x2="413.24" y2="336.94"/><line class="cls-2" x1="412.94" y1="318.15" x2="413.24" y2="318.15"/><line class="cls-2" x1="413.24" y1="318.15" x2="413.24" y2="316.64"/><line class="cls-2" x1="412.94" y1="316.64" x2="413.24" y2="316.64"/><line class="cls-2" x1="486.15" y1="401.91" x2="412.94" y2="401.91"/><line class="cls-2" x1="486.42" y1="402.14" x2="412.71" y2="402.14"/><line class="cls-2" x1="491.9" y1="316.37" x2="491.9" y2="390.62"/><rect class="cls-2" x="491.9" y="376.62" width="5.25" height="14"/><text class="cls-3" transform="translate(443.59 357.61)"><tspan class="cls-4">20</tspan><tspan class="cls-5" x="7.75" y="0">&apos;</tspan><tspan class="cls-6" x="9.09" y="0">-</tspan><tspan class="cls-7" x="11.4" y="0">11</tspan><tspan x="19.14" y="0">&quot;</tspan><tspan class="cls-8" x="21.31" y="0"> </tspan><tspan class="cls-9" x="23.2" y="0">X</tspan><tspan class="cls-10" x="27.46" y="0"> </tspan><tspan class="cls-11" x="29.44" y="0">1</tspan><tspan x="33.23" y="0">5</tspan><tspan class="cls-12" x="37.11" y="0">&apos;</tspan><tspan class="cls-13" x="38.53" y="0">-</tspan><tspan class="cls-14" x="40.84" y="0">1</tspan><tspan class="cls-15" x="44.64" y="0">&quot;</tspan></text><text class="cls-3" transform="translate(451.65 350.6)">THEATRE</text><rect class="cls-1" x="504.11" y="296.08" width="27.67" height="1.66"/><line class="cls-2" x1="531.51" y1="295.85" x2="504.37" y2="295.85"/><line class="cls-2" x1="531.77" y1="296.08" x2="504.11" y2="296.08"/><line class="cls-2" x1="504.11" y1="297.74" x2="531.77" y2="297.74"/><line class="cls-2" x1="504.37" y1="297.97" x2="531.51" y2="297.97"/></g></svg>