<svg id="图层_1" data-name="图层 1" xmlns="http://www.w3.org/2000/svg" viewBox="0 0 1008 504"><defs><style>.cls-1{fill:#fff;}.cls-2,.cls-4{fill:#0c5275;}.cls-2{fill-rule:evenodd;}.cls-3{fill:none;stroke:#0c4f71;stroke-linecap:round;stroke-linejoin:bevel;stroke-width:0.15px;}</style></defs><title>LIVING BAY WINDOW</title><g id="merlot-IFP_main_floor" data-name="merlot-IFP main floor"><g id="LIVING_BAY_WINDOW" data-name="LIVING BAY WINDOW"><rect class="cls-1" x="290.88" y="340.6" width="7.33" height="45.58"/><polygon class="cls-2" points="282.29 389.24 282.29 381 282.51 381 282.51 388.98 282.29 389.24"/><line class="cls-3" x1="282.29" y1="382.97" x2="282.51" y2="383.19"/><line class="cls-3" x1="282.29" y1="388.3" x2="282.51" y2="388.56"/><polygon class="cls-2" points="282.29 345.55 282.29 337.31 282.51 337.54 282.51 345.55 282.29 345.55"/><line class="cls-3" x1="282.29" y1="337.53" x2="282.51" y2="337.76"/><rect class="cls-4" x="282.51" y="381" width="2.8" height="7.79"/><rect class="cls-4" x="282.74" y="337.76" width="2.57" height="7.79"/><polygon class="cls-2" points="292.96 389.24 282.29 389.24 282.57 388.98 293.25 388.98 292.96 389.24"/><line class="cls-3" x1="284.29" y1="388.98" x2="284.06" y2="389.24"/><rect class="cls-4" x="285.31" y="386.18" width="8.22" height="2.61"/><polygon class="cls-2" points="282.29 337.31 292.96 337.31 293.25 337.54 282.57 337.54 282.29 337.31"/><line class="cls-3" x1="282.4" y1="337.42" x2="282.51" y2="337.31"/><line class="cls-3" x1="284.93" y1="337.53" x2="285.2" y2="337.31"/><rect class="cls-4" x="285.22" y="337.76" width="8.31" height="2.61"/><line class="cls-3" x1="282.29" y1="381" x2="282.29" y2="389.24"/><line class="cls-3" x1="282.29" y1="337.31" x2="282.29" y2="345.55"/><line class="cls-3" x1="282.29" y1="381" x2="285.58" y2="381"/><line class="cls-3" x1="282.29" y1="345.55" x2="285.58" y2="345.55"/><line class="cls-3" x1="282.51" y1="381" x2="282.51" y2="388.98"/><line class="cls-3" x1="282.51" y1="337.53" x2="282.51" y2="345.55"/><line class="cls-3" x1="282.51" y1="381" x2="282.51" y2="388.98"/><line class="cls-3" x1="282.51" y1="337.53" x2="282.51" y2="345.55"/><line class="cls-3" x1="282.74" y1="381" x2="282.74" y2="388.79"/><line class="cls-3" x1="282.74" y1="337.76" x2="282.74" y2="345.55"/><line class="cls-3" x1="282.74" y1="381" x2="285.31" y2="381"/><line class="cls-3" x1="282.74" y1="345.55" x2="285.31" y2="345.55"/><line class="cls-3" x1="285.31" y1="386.18" x2="285.31" y2="381"/><line class="cls-3" x1="285.31" y1="345.55" x2="285.31" y2="340.37"/><line class="cls-3" x1="285.58" y1="385.95" x2="285.58" y2="381"/><line class="cls-3" x1="285.58" y1="345.55" x2="285.58" y2="340.6"/><line class="cls-3" x1="282.17" y1="363.28" x2="285.69" y2="363.28"/><line class="cls-3" x1="282.29" y1="363.28" x2="282.29" y2="363.62"/><line class="cls-3" x1="285.58" y1="363.28" x2="285.58" y2="363.62"/><line class="cls-3" x1="282.29" y1="363.28" x2="285.58" y2="363.28"/><line class="cls-3" x1="282.29" y1="363.62" x2="285.58" y2="363.62"/><line class="cls-3" x1="282.29" y1="380.62" x2="282.29" y2="381"/><line class="cls-3" x1="285.58" y1="380.62" x2="285.58" y2="381"/><line class="cls-3" x1="282.29" y1="380.62" x2="285.58" y2="380.62"/><line class="cls-3" x1="282.29" y1="381" x2="285.58" y2="381"/><line class="cls-3" x1="282.85" y1="363.62" x2="282.85" y2="380.62"/><line class="cls-3" x1="283.23" y1="363.62" x2="283.23" y2="380.62"/><line class="cls-3" x1="282.17" y1="363.28" x2="285.69" y2="363.28"/><line class="cls-3" x1="282.29" y1="345.55" x2="282.29" y2="345.89"/><line class="cls-3" x1="285.58" y1="345.55" x2="285.58" y2="345.89"/><line class="cls-3" x1="282.29" y1="345.55" x2="285.58" y2="345.55"/><line class="cls-3" x1="282.29" y1="345.89" x2="285.58" y2="345.89"/><line class="cls-3" x1="282.29" y1="362.9" x2="282.29" y2="363.28"/><line class="cls-3" x1="285.58" y1="362.9" x2="285.58" y2="363.28"/><line class="cls-3" x1="282.29" y1="362.9" x2="285.58" y2="362.9"/><line class="cls-3" x1="282.29" y1="363.28" x2="285.58" y2="363.28"/><line class="cls-3" x1="282.85" y1="345.89" x2="282.85" y2="362.9"/><line class="cls-3" x1="283.23" y1="345.89" x2="283.23" y2="362.9"/><line class="cls-3" x1="282.29" y1="382.63" x2="281.46" y2="382.63"/><line class="cls-3" x1="281.46" y1="382.63" x2="281.46" y2="343.88"/><line class="cls-3" x1="282.29" y1="343.88" x2="281.46" y2="343.88"/><line class="cls-3" x1="282.29" y1="345.55" x2="281.95" y2="345.55"/><line class="cls-3" x1="281.95" y1="345.55" x2="281.95" y2="343.88"/><line class="cls-3" x1="282.29" y1="343.88" x2="281.95" y2="343.88"/><line class="cls-3" x1="282.29" y1="381" x2="281.95" y2="381"/><line class="cls-3" x1="281.95" y1="382.63" x2="281.95" y2="381"/><line class="cls-3" x1="282.29" y1="382.63" x2="281.95" y2="382.63"/><line class="cls-3" x1="285.58" y1="344.07" x2="286.33" y2="344.07"/><line class="cls-3" x1="286.33" y1="382.48" x2="286.33" y2="344.07"/><line class="cls-3" x1="285.58" y1="382.48" x2="286.33" y2="382.48"/><line class="cls-3" x1="285.58" y1="380.7" x2="285.88" y2="380.7"/><line class="cls-3" x1="285.88" y1="382.21" x2="285.88" y2="380.7"/><line class="cls-3" x1="285.58" y1="382.21" x2="285.88" y2="382.21"/><line class="cls-3" x1="285.58" y1="382.1" x2="285.58" y2="380.7"/><line class="cls-3" x1="285.58" y1="345.85" x2="285.88" y2="345.85"/><line class="cls-3" x1="285.88" y1="345.85" x2="285.88" y2="344.3"/><line class="cls-3" x1="285.58" y1="344.3" x2="285.88" y2="344.3"/><line class="cls-3" x1="285.58" y1="345.85" x2="285.58" y2="344.3"/><line class="cls-3" x1="282.29" y1="389.24" x2="292.96" y2="389.24"/><line class="cls-3" x1="282.57" y1="388.98" x2="293.25" y2="388.98"/><line class="cls-3" x1="282.57" y1="388.98" x2="293.25" y2="388.98"/><line class="cls-3" x1="282.74" y1="388.79" x2="293.53" y2="388.79"/><line class="cls-3" x1="293.53" y1="386.18" x2="285.31" y2="386.18"/><line class="cls-3" x1="294.08" y1="385.95" x2="285.58" y2="385.95"/><line class="cls-3" x1="292.96" y1="337.31" x2="282.29" y2="337.31"/><line class="cls-3" x1="293.25" y1="337.53" x2="282.57" y2="337.53"/><line class="cls-3" x1="293.25" y1="337.53" x2="282.57" y2="337.53"/><line class="cls-3" x1="293.34" y1="337.76" x2="282.74" y2="337.76"/><line class="cls-3" x1="285.31" y1="340.37" x2="294.08" y2="340.37"/><line class="cls-3" x1="285.58" y1="340.6" x2="294.08" y2="340.6"/><line class="cls-3" x1="294.08" y1="340.11" x2="294.08" y2="385.95"/><line class="cls-3" x1="294.08" y1="385.95" x2="285.58" y2="385.95"/><line class="cls-3" x1="285.58" y1="385.95" x2="285.58" y2="340.11"/><line class="cls-3" x1="285.58" y1="340.11" x2="294.08" y2="340.11"/></g></g></svg>