<svg id="图层_1" data-name="图层 1" xmlns="http://www.w3.org/2000/svg" viewBox="0 0 1008 504"><defs><style>.cls-1,.cls-3{fill:#fff;}.cls-2{fill:none;stroke:#0c5275;stroke-linecap:round;stroke-linejoin:bevel;stroke-width:0.15px;}.cls-3{fill-rule:evenodd;}.cls-4,.cls-6{fill:#0c5275;}.cls-5{font-size:3.93px;fill:#040000;font-family:CenturyGothic-Bold, Century Gothic;font-weight:700;}.cls-6{font-size:7px;font-family:CenturyGothic, Century Gothic;}.cls-7{letter-spacing:0em;}.cls-8{letter-spacing:-0.01em;}.cls-9{letter-spacing:0em;}.cls-10{letter-spacing:0em;}.cls-11{letter-spacing:-0.01em;}.cls-12{letter-spacing:0.01em;}.cls-13{letter-spacing:-0.01em;}.cls-14{letter-spacing:0em;}.cls-15{letter-spacing:0em;}.cls-16{letter-spacing:-0.01em;}</style></defs><title>STUDY BATH-1</title><g id="merlot-IFP_main_floor" data-name="merlot-IFP main floor"><g id="STUDY_BATH-1" data-name="STUDY BATH-1"><rect class="cls-1" x="309.48" y="218.17" width="42.16" height="28.78"/><line class="cls-2" x1="352.61" y1="175.38" x2="352.61" y2="177.08"/><line class="cls-2" x1="352.61" y1="178.78" x2="352.61" y2="180.48"/><line class="cls-2" x1="352.61" y1="183.28" x2="352.61" y2="181.88"/><line class="cls-2" x1="354.69" y1="183.28" x2="356.39" y2="183.28"/><line class="cls-2" x1="358.09" y1="183.28" x2="359.79" y2="183.28"/><line class="cls-2" x1="361.49" y1="183.28" x2="363.19" y2="183.28"/><line class="cls-2" x1="364.89" y1="183.28" x2="367.01" y2="183.28"/><line class="cls-2" x1="352.61" y1="183.28" x2="354.01" y2="183.28"/><line class="cls-2" x1="367.01" y1="184" x2="352.04" y2="184"/><line class="cls-2" x1="352.04" y1="184" x2="352" y2="184"/><line class="cls-2" x1="352" y1="184" x2="351.97" y2="183.96"/><line class="cls-2" x1="351.97" y1="183.96" x2="351.93" y2="183.96"/><line class="cls-2" x1="351.93" y1="183.96" x2="351.93" y2="183.92"/><line class="cls-2" x1="351.93" y1="183.92" x2="351.89" y2="183.89"/><line class="cls-2" x1="351.89" y1="183.89" x2="351.89" y2="183.85"/><line class="cls-2" x1="351.89" y1="183.85" x2="351.89" y2="183.81"/><line class="cls-2" x1="351.89" y1="183.81" x2="351.89" y2="173.38"/><line class="cls-2" x1="356.16" y1="180.14" x2="356.58" y2="180.41"/><line class="cls-2" x1="356.58" y1="180.41" x2="356.96" y2="180.67"/><line class="cls-2" x1="356.96" y1="180.67" x2="357.41" y2="180.86"/><line class="cls-2" x1="357.41" y1="180.86" x2="357.86" y2="181.05"/><line class="cls-2" x1="357.86" y1="181.05" x2="358.39" y2="181.2"/><line class="cls-2" x1="358.39" y1="181.2" x2="358.96" y2="181.32"/><line class="cls-2" x1="358.96" y1="181.32" x2="359.53" y2="181.35"/><line class="cls-2" x1="359.53" y1="181.35" x2="360.09" y2="181.35"/><line class="cls-2" x1="360.09" y1="181.35" x2="360.66" y2="181.28"/><line class="cls-2" x1="360.66" y1="181.28" x2="361.19" y2="181.16"/><line class="cls-2" x1="361.19" y1="181.16" x2="361.72" y2="180.98"/><line class="cls-2" x1="361.72" y1="180.98" x2="362.25" y2="180.75"/><line class="cls-2" x1="362.25" y1="180.75" x2="362.74" y2="180.45"/><line class="cls-2" x1="362.74" y1="180.45" x2="363.19" y2="180.14"/><line class="cls-2" x1="363.19" y1="180.14" x2="363.34" y2="179.99"/><line class="cls-2" x1="363.34" y1="179.99" x2="363.57" y2="179.77"/><line class="cls-2" x1="363.57" y1="179.77" x2="363.76" y2="179.54"/><line class="cls-2" x1="363.76" y1="179.54" x2="363.95" y2="179.24"/><line class="cls-2" x1="363.95" y1="179.24" x2="364.1" y2="178.97"/><line class="cls-2" x1="364.1" y1="178.97" x2="364.21" y2="178.67"/><line class="cls-2" x1="364.21" y1="178.67" x2="364.33" y2="178.37"/><line class="cls-2" x1="364.33" y1="178.37" x2="364.36" y2="178.03"/><line class="cls-2" x1="364.36" y1="178.03" x2="364.4" y2="177.72"/><line class="cls-2" x1="364.4" y1="177.72" x2="364.4" y2="177.38"/><line class="cls-2" x1="364.4" y1="177.38" x2="364.36" y2="177.08"/><line class="cls-2" x1="364.36" y1="177.08" x2="364.29" y2="176.74"/><line class="cls-2" x1="364.29" y1="176.74" x2="364.21" y2="176.44"/><line class="cls-2" x1="364.21" y1="176.44" x2="364.06" y2="176.14"/><line class="cls-2" x1="364.06" y1="176.14" x2="363.91" y2="175.87"/><line class="cls-2" x1="363.91" y1="175.87" x2="363.76" y2="175.65"/><line class="cls-2" x1="363.76" y1="175.65" x2="363.57" y2="175.42"/><line class="cls-2" x1="363.57" y1="175.42" x2="363.38" y2="175.19"/><line class="cls-2" x1="363.38" y1="175.19" x2="363.19" y2="175.04"/><line class="cls-2" x1="363.19" y1="175.04" x2="362.74" y2="174.7"/><line class="cls-2" x1="362.74" y1="174.7" x2="362.25" y2="174.44"/><line class="cls-2" x1="362.25" y1="174.44" x2="361.72" y2="174.17"/><line class="cls-2" x1="361.72" y1="174.17" x2="361.19" y2="174.02"/><line class="cls-2" x1="361.19" y1="174.02" x2="360.62" y2="173.87"/><line class="cls-2" x1="360.62" y1="173.87" x2="360.09" y2="173.79"/><line class="cls-2" x1="360.09" y1="173.79" x2="359.53" y2="173.79"/><line class="cls-2" x1="359.53" y1="173.79" x2="358.96" y2="173.83"/><line class="cls-2" x1="358.96" y1="173.83" x2="358.39" y2="173.94"/><line class="cls-2" x1="358.39" y1="173.94" x2="357.83" y2="174.1"/><line class="cls-2" x1="357.83" y1="174.1" x2="357.33" y2="174.32"/><line class="cls-2" x1="357.33" y1="174.32" x2="356.8" y2="174.59"/><line class="cls-2" x1="356.8" y1="174.59" x2="356.35" y2="174.89"/><line class="cls-2" x1="356.35" y1="174.89" x2="356.16" y2="175.04"/><line class="cls-2" x1="356.16" y1="175.04" x2="356.05" y2="175.15"/><line class="cls-2" x1="356.05" y1="175.15" x2="355.9" y2="175.27"/><line class="cls-2" x1="355.9" y1="175.27" x2="355.67" y2="175.53"/><line class="cls-2" x1="355.67" y1="175.53" x2="355.48" y2="175.76"/><line class="cls-2" x1="355.48" y1="175.76" x2="355.33" y2="176.06"/><line class="cls-2" x1="355.33" y1="176.06" x2="355.18" y2="176.36"/><line class="cls-2" x1="355.18" y1="176.36" x2="355.07" y2="176.67"/><line class="cls-2" x1="355.07" y1="176.67" x2="354.99" y2="176.97"/><line class="cls-2" x1="354.99" y1="176.97" x2="354.95" y2="177.27"/><line class="cls-2" x1="354.95" y1="177.27" x2="354.95" y2="177.61"/><line class="cls-2" x1="354.95" y1="177.61" x2="354.95" y2="177.95"/><line class="cls-2" x1="354.95" y1="177.95" x2="355.03" y2="178.25"/><line class="cls-2" x1="355.03" y1="178.25" x2="355.1" y2="178.56"/><line class="cls-2" x1="355.1" y1="178.56" x2="355.22" y2="178.86"/><line class="cls-2" x1="355.22" y1="178.86" x2="355.37" y2="179.16"/><line class="cls-2" x1="355.37" y1="179.16" x2="355.52" y2="179.43"/><line class="cls-2" x1="355.52" y1="179.43" x2="355.71" y2="179.69"/><line class="cls-2" x1="355.71" y1="179.69" x2="355.94" y2="179.92"/><line class="cls-2" x1="355.94" y1="179.92" x2="356.16" y2="180.14"/><polygon class="cls-3" points="356.2 180.11 356.2 175 355.94 175.27 355.63 175.57 355.41 175.91 355.22 176.33 355.07 176.7 354.99 177.12 354.95 177.57 354.99 177.99 355.07 178.41 355.22 178.82 355.41 179.2 355.63 179.54 355.94 179.88 356.2 180.11"/><polygon class="cls-3" points="363.19 180.11 356.2 180.11 356.28 180.18 356.88 180.6 357.56 180.94 358.24 181.16 358.96 181.31 359.71 181.35 360.43 181.31 361.15 181.16 361.83 180.94 362.51 180.6 363.12 180.18 363.19 180.11"/><polygon class="cls-3" points="363.19 175 363.19 180.11 363.46 179.88 363.76 179.54 363.99 179.2 364.18 178.82 364.33 178.41 364.4 177.99 364.44 177.57 364.4 177.12 364.33 176.7 364.18 176.33 363.99 175.91 363.76 175.57 363.46 175.27 363.19 175"/><polygon class="cls-3" points="356.2 175 363.19 175 363.12 174.93 362.51 174.55 361.83 174.21 361.15 173.98 360.43 173.83 359.71 173.79 358.96 173.83 358.24 173.98 357.56 174.21 356.88 174.55 356.28 174.93 356.2 175"/><rect class="cls-1" x="356.2" y="175" width="6.99" height="5.1"/><line class="cls-2" x1="356.2" y1="175" x2="355.97" y2="175.19"/><line class="cls-2" x1="355.97" y1="175.19" x2="355.75" y2="175.42"/><line class="cls-2" x1="355.75" y1="175.42" x2="355.56" y2="175.68"/><line class="cls-2" x1="355.56" y1="175.68" x2="355.41" y2="175.91"/><line class="cls-2" x1="355.41" y1="175.91" x2="355.26" y2="176.17"/><line class="cls-2" x1="355.26" y1="176.17" x2="355.14" y2="176.48"/><line class="cls-2" x1="355.14" y1="176.48" x2="355.07" y2="176.78"/><line class="cls-2" x1="355.07" y1="176.78" x2="354.99" y2="177.08"/><line class="cls-2" x1="354.99" y1="177.08" x2="354.95" y2="177.42"/><line class="cls-2" x1="354.95" y1="177.42" x2="354.99" y2="177.76"/><line class="cls-2" x1="354.99" y1="177.76" x2="354.99" y2="178.06"/><line class="cls-2" x1="354.99" y1="178.06" x2="355.07" y2="178.37"/><line class="cls-2" x1="355.07" y1="178.37" x2="355.18" y2="178.71"/><line class="cls-2" x1="355.18" y1="178.71" x2="355.29" y2="178.97"/><line class="cls-2" x1="355.29" y1="178.97" x2="355.41" y2="179.24"/><line class="cls-2" x1="355.41" y1="179.24" x2="355.6" y2="179.46"/><line class="cls-2" x1="355.6" y1="179.46" x2="355.78" y2="179.73"/><line class="cls-2" x1="355.78" y1="179.73" x2="355.97" y2="179.92"/><line class="cls-2" x1="355.97" y1="179.92" x2="356.2" y2="180.11"/><line class="cls-2" x1="356.2" y1="180.11" x2="356.54" y2="180.37"/><line class="cls-2" x1="356.54" y1="180.37" x2="356.88" y2="180.6"/><line class="cls-2" x1="356.88" y1="180.6" x2="357.22" y2="180.79"/><line class="cls-2" x1="357.22" y1="180.79" x2="357.75" y2="181.01"/><line class="cls-2" x1="357.75" y1="181.01" x2="358.28" y2="181.16"/><line class="cls-2" x1="358.28" y1="181.16" x2="358.85" y2="181.28"/><line class="cls-2" x1="358.85" y1="181.28" x2="359.41" y2="181.35"/><line class="cls-2" x1="359.41" y1="181.35" x2="359.98" y2="181.35"/><line class="cls-2" x1="359.98" y1="181.35" x2="360.55" y2="181.28"/><line class="cls-2" x1="360.55" y1="181.28" x2="361.08" y2="181.16"/><line class="cls-2" x1="361.08" y1="181.16" x2="361.64" y2="181.01"/><line class="cls-2" x1="361.64" y1="181.01" x2="362.06" y2="180.82"/><line class="cls-2" x1="362.06" y1="180.82" x2="362.44" y2="180.63"/><line class="cls-2" x1="362.44" y1="180.63" x2="362.85" y2="180.37"/><line class="cls-2" x1="362.85" y1="180.37" x2="363.19" y2="180.11"/><line class="cls-2" x1="363.19" y1="180.11" x2="363.46" y2="179.88"/><line class="cls-2" x1="363.46" y1="179.88" x2="363.68" y2="179.65"/><line class="cls-2" x1="363.68" y1="179.65" x2="363.87" y2="179.35"/><line class="cls-2" x1="363.87" y1="179.35" x2="364.06" y2="179.09"/><line class="cls-2" x1="364.06" y1="179.09" x2="364.18" y2="178.78"/><line class="cls-2" x1="364.18" y1="178.78" x2="364.29" y2="178.48"/><line class="cls-2" x1="364.29" y1="178.48" x2="364.36" y2="178.18"/><line class="cls-2" x1="364.36" y1="178.18" x2="364.4" y2="177.84"/><line class="cls-2" x1="364.4" y1="177.84" x2="364.44" y2="177.54"/><line class="cls-2" x1="364.44" y1="177.54" x2="364.4" y2="177.2"/><line class="cls-2" x1="364.4" y1="177.2" x2="364.36" y2="176.89"/><line class="cls-2" x1="364.36" y1="176.89" x2="364.29" y2="176.59"/><line class="cls-2" x1="364.29" y1="176.59" x2="364.18" y2="176.25"/><line class="cls-2" x1="364.18" y1="176.25" x2="364.02" y2="175.99"/><line class="cls-2" x1="364.02" y1="175.99" x2="363.84" y2="175.72"/><line class="cls-2" x1="363.84" y1="175.72" x2="363.65" y2="175.46"/><line class="cls-2" x1="363.65" y1="175.46" x2="363.42" y2="175.19"/><line class="cls-2" x1="363.42" y1="175.19" x2="363.19" y2="175"/><line class="cls-2" x1="363.19" y1="175" x2="362.85" y2="174.78"/><line class="cls-2" x1="362.85" y1="174.78" x2="362.51" y2="174.55"/><line class="cls-2" x1="362.51" y1="174.55" x2="362.13" y2="174.36"/><line class="cls-2" x1="362.13" y1="174.36" x2="361.64" y2="174.13"/><line class="cls-2" x1="361.64" y1="174.13" x2="361.08" y2="173.94"/><line class="cls-2" x1="361.08" y1="173.94" x2="360.55" y2="173.83"/><line class="cls-2" x1="360.55" y1="173.83" x2="359.98" y2="173.79"/><line class="cls-2" x1="359.98" y1="173.79" x2="359.41" y2="173.79"/><line class="cls-2" x1="359.41" y1="173.79" x2="358.85" y2="173.83"/><line class="cls-2" x1="358.85" y1="173.83" x2="358.28" y2="173.94"/><line class="cls-2" x1="358.28" y1="173.94" x2="357.75" y2="174.13"/><line class="cls-2" x1="357.75" y1="174.13" x2="357.33" y2="174.32"/><line class="cls-2" x1="357.33" y1="174.32" x2="356.92" y2="174.51"/><line class="cls-2" x1="356.92" y1="174.51" x2="356.54" y2="174.74"/><line class="cls-2" x1="356.54" y1="174.74" x2="356.2" y2="175"/><ellipse class="cls-2" cx="359.72" cy="177.1" rx="0.49" ry="0.47"/><path class="cls-2" d="M359.72,176.82a.28.28,0,0,0-.27.28.29.29,0,1,0,.28-.28Z"/><line class="cls-2" x1="356.77" y1="175.72" x2="356.58" y2="175.87"/><line class="cls-2" x1="356.58" y1="175.87" x2="356.43" y2="176.02"/><line class="cls-2" x1="356.43" y1="176.02" x2="356.31" y2="176.21"/><line class="cls-2" x1="356.31" y1="176.21" x2="356.16" y2="176.4"/><line class="cls-2" x1="356.16" y1="176.4" x2="356.09" y2="176.59"/><line class="cls-2" x1="356.09" y1="176.59" x2="355.97" y2="176.78"/><line class="cls-2" x1="355.97" y1="176.78" x2="355.94" y2="177.01"/><line class="cls-2" x1="355.94" y1="177.01" x2="355.9" y2="177.23"/><line class="cls-2" x1="355.9" y1="177.23" x2="355.86" y2="177.46"/><line class="cls-2" x1="355.86" y1="177.46" x2="355.86" y2="177.69"/><line class="cls-2" x1="355.86" y1="177.69" x2="355.9" y2="177.91"/><line class="cls-2" x1="355.9" y1="177.91" x2="355.94" y2="178.14"/><line class="cls-2" x1="355.94" y1="178.14" x2="356.01" y2="178.37"/><line class="cls-2" x1="356.01" y1="178.37" x2="356.09" y2="178.56"/><line class="cls-2" x1="356.09" y1="178.56" x2="356.2" y2="178.78"/><line class="cls-2" x1="356.2" y1="178.78" x2="356.31" y2="178.93"/><line class="cls-2" x1="356.31" y1="178.93" x2="356.43" y2="179.12"/><line class="cls-2" x1="356.43" y1="179.12" x2="356.58" y2="179.27"/><line class="cls-2" x1="356.58" y1="179.27" x2="356.77" y2="179.43"/><line class="cls-2" x1="356.77" y1="179.43" x2="357.03" y2="179.61"/><line class="cls-2" x1="357.03" y1="179.61" x2="357.3" y2="179.8"/><line class="cls-2" x1="357.3" y1="179.8" x2="357.71" y2="179.99"/><line class="cls-2" x1="357.71" y1="179.99" x2="358.13" y2="180.18"/><line class="cls-2" x1="358.13" y1="180.18" x2="358.54" y2="180.29"/><line class="cls-2" x1="358.54" y1="180.29" x2="359" y2="180.41"/><line class="cls-2" x1="359" y1="180.41" x2="359.45" y2="180.45"/><line class="cls-2" x1="359.45" y1="180.45" x2="359.9" y2="180.45"/><line class="cls-2" x1="359.9" y1="180.45" x2="360.36" y2="180.41"/><line class="cls-2" x1="360.36" y1="180.41" x2="360.81" y2="180.33"/><line class="cls-2" x1="360.81" y1="180.33" x2="361.23" y2="180.18"/><line class="cls-2" x1="361.23" y1="180.18" x2="361.64" y2="180.03"/><line class="cls-2" x1="361.64" y1="180.03" x2="361.98" y2="179.84"/><line class="cls-2" x1="361.98" y1="179.84" x2="362.32" y2="179.65"/><line class="cls-2" x1="362.32" y1="179.65" x2="362.63" y2="179.43"/><line class="cls-2" x1="362.63" y1="179.43" x2="362.78" y2="179.31"/><line class="cls-2" x1="362.78" y1="179.31" x2="362.89" y2="179.2"/><line class="cls-2" x1="362.89" y1="179.2" x2="363.04" y2="179.05"/><line class="cls-2" x1="363.04" y1="179.05" x2="363.15" y2="178.86"/><line class="cls-2" x1="363.15" y1="178.86" x2="363.27" y2="178.63"/><line class="cls-2" x1="363.27" y1="178.63" x2="363.34" y2="178.44"/><line class="cls-2" x1="363.34" y1="178.44" x2="363.42" y2="178.22"/><line class="cls-2" x1="363.42" y1="178.22" x2="363.5" y2="177.99"/><line class="cls-2" x1="363.5" y1="177.99" x2="363.53" y2="177.8"/><line class="cls-2" x1="363.53" y1="177.8" x2="363.53" y2="177.57"/><line class="cls-2" x1="363.53" y1="177.57" x2="363.53" y2="177.35"/><line class="cls-2" x1="363.53" y1="177.35" x2="363.5" y2="177.12"/><line class="cls-2" x1="363.5" y1="177.12" x2="363.42" y2="176.86"/><line class="cls-2" x1="363.42" y1="176.86" x2="363.34" y2="176.67"/><line class="cls-2" x1="363.34" y1="176.67" x2="363.23" y2="176.44"/><line class="cls-2" x1="363.23" y1="176.44" x2="363.12" y2="176.25"/><line class="cls-2" x1="363.12" y1="176.25" x2="362.97" y2="176.02"/><line class="cls-2" x1="362.97" y1="176.02" x2="362.81" y2="175.87"/><line class="cls-2" x1="362.81" y1="175.87" x2="362.63" y2="175.72"/><line class="cls-2" x1="362.63" y1="175.72" x2="362.36" y2="175.49"/><line class="cls-2" x1="362.36" y1="175.49" x2="362.06" y2="175.31"/><line class="cls-2" x1="362.06" y1="175.31" x2="361.68" y2="175.12"/><line class="cls-2" x1="361.68" y1="175.12" x2="361.27" y2="174.93"/><line class="cls-2" x1="361.27" y1="174.93" x2="360.81" y2="174.81"/><line class="cls-2" x1="360.81" y1="174.81" x2="360.36" y2="174.74"/><line class="cls-2" x1="360.36" y1="174.74" x2="359.94" y2="174.7"/><line class="cls-2" x1="359.94" y1="174.7" x2="359.49" y2="174.7"/><line class="cls-2" x1="359.49" y1="174.7" x2="359.03" y2="174.74"/><line class="cls-2" x1="359.03" y1="174.74" x2="358.58" y2="174.81"/><line class="cls-2" x1="358.58" y1="174.81" x2="358.13" y2="174.93"/><line class="cls-2" x1="358.13" y1="174.93" x2="357.71" y2="175.12"/><line class="cls-2" x1="357.71" y1="175.12" x2="357.37" y2="175.27"/><line class="cls-2" x1="357.37" y1="175.27" x2="357.07" y2="175.49"/><line class="cls-2" x1="357.07" y1="175.49" x2="356.77" y2="175.72"/><path class="cls-2" d="M358.62,174a.38.38,0,0,0-.38.37.39.39,0,0,0,.4.38.38.38,0,1,0,0-.76Z"/><line class="cls-2" x1="359.38" y1="174.02" x2="359.38" y2="176.21"/><line class="cls-2" x1="359.38" y1="176.21" x2="360.06" y2="176.21"/><line class="cls-2" x1="360.06" y1="176.21" x2="360.06" y2="174.02"/><line class="cls-2" x1="360.06" y1="174.02" x2="359.38" y2="174.02"/><path class="cls-2" d="M360.74,173.94a.4.4,0,1,0,.37.4A.39.39,0,0,0,360.74,173.94Z"/><polygon class="cls-3" points="347.85 173.91 348.07 173.68 348.07 173.72 348.07 173.76 348.04 173.79 348.04 173.83 348 173.83 348 173.87 347.96 173.87 347.92 173.91 347.88 173.91 347.85 173.91"/><polygon class="cls-3" points="342.93 173.68 343.2 173.91 343.16 173.91 343.12 173.91 343.08 173.91 343.05 173.87 343.01 173.83 342.97 173.79 342.97 173.76 342.93 173.72 342.93 173.68"/><polygon class="cls-3" points="342.93 173.38 348.07 173.38 348.07 173.68 347.85 173.91 343.2 173.91 342.93 173.68 342.93 173.38"/><line class="cls-2" x1="348.07" y1="173.38" x2="348.07" y2="173.68"/><line class="cls-2" x1="348.07" y1="173.68" x2="348.07" y2="173.72"/><line class="cls-2" x1="348.07" y1="173.72" x2="348.07" y2="173.76"/><line class="cls-2" x1="348.07" y1="173.76" x2="348.04" y2="173.79"/><line class="cls-2" x1="348.04" y1="173.79" x2="348.04" y2="173.83"/><line class="cls-2" x1="348.04" y1="173.83" x2="348" y2="173.83"/><line class="cls-2" x1="348" y1="173.83" x2="348" y2="173.87"/><line class="cls-2" x1="348" y1="173.87" x2="347.96" y2="173.87"/><line class="cls-2" x1="347.96" y1="173.87" x2="347.96" y2="173.91"/><line class="cls-2" x1="347.96" y1="173.91" x2="347.92" y2="173.91"/><line class="cls-2" x1="347.92" y1="173.91" x2="347.88" y2="173.91"/><line class="cls-2" x1="347.88" y1="173.91" x2="347.85" y2="173.91"/><line class="cls-2" x1="347.85" y1="173.91" x2="343.2" y2="173.91"/><line class="cls-2" x1="343.2" y1="173.91" x2="343.16" y2="173.91"/><line class="cls-2" x1="343.16" y1="173.91" x2="343.12" y2="173.91"/><line class="cls-2" x1="343.12" y1="173.91" x2="343.08" y2="173.91"/><line class="cls-2" x1="343.08" y1="173.91" x2="343.05" y2="173.87"/><line class="cls-2" x1="343.05" y1="173.87" x2="343.01" y2="173.83"/><line class="cls-2" x1="343.01" y1="173.83" x2="342.97" y2="173.79"/><line class="cls-2" x1="342.97" y1="173.79" x2="342.97" y2="173.76"/><line class="cls-2" x1="342.97" y1="173.76" x2="342.93" y2="173.72"/><line class="cls-2" x1="342.93" y1="173.72" x2="342.93" y2="173.68"/><line class="cls-2" x1="342.93" y1="173.68" x2="342.93" y2="173.38"/><line class="cls-2" x1="342.93" y1="173.38" x2="348.07" y2="173.38"/><line class="cls-2" x1="350.04" y1="174.06" x2="341.01" y2="174.06"/><line class="cls-2" x1="341.01" y1="174.06" x2="341.01" y2="178.82"/><line class="cls-2" x1="341.01" y1="178.82" x2="341.46" y2="179.27"/><line class="cls-2" x1="341.46" y1="179.27" x2="349.55" y2="179.27"/><line class="cls-2" x1="349.55" y1="179.27" x2="350.04" y2="178.78"/><line class="cls-2" x1="350.04" y1="178.78" x2="350.04" y2="174.06"/><line class="cls-2" x1="350.04" y1="174.06" x2="350.04" y2="174.02"/><line class="cls-2" x1="350.04" y1="174.02" x2="350.04" y2="178.78"/><line class="cls-2" x1="350.04" y1="178.78" x2="349.59" y2="179.27"/><line class="cls-2" x1="349.59" y1="179.27" x2="341.46" y2="179.27"/><line class="cls-2" x1="341.46" y1="179.27" x2="340.97" y2="178.78"/><line class="cls-2" x1="340.97" y1="178.78" x2="340.97" y2="174.02"/><line class="cls-2" x1="340.97" y1="174.02" x2="350.04" y2="174.02"/><line class="cls-2" x1="340.97" y1="174.02" x2="341.01" y2="174.06"/><line class="cls-2" x1="342.37" y1="179.27" x2="342.37" y2="179.58"/><line class="cls-2" x1="342.37" y1="179.58" x2="341.23" y2="179.58"/><line class="cls-2" x1="341.23" y1="179.58" x2="341.23" y2="179.12"/><line class="cls-2" x1="341.23" y1="179.12" x2="341.31" y2="179.12"/><line class="cls-2" x1="348.87" y1="179.73" x2="348.83" y2="179.27"/><line class="cls-2" x1="348.83" y1="179.27" x2="349.02" y2="180.18"/><line class="cls-2" x1="349.02" y1="180.18" x2="348.91" y2="181.84"/><line class="cls-2" x1="348.91" y1="181.84" x2="348.87" y2="179.73"/><line class="cls-2" x1="342.55" y1="185.47" x2="342.52" y2="185.32"/><line class="cls-2" x1="342.52" y1="185.32" x2="342.33" y2="184.41"/><line class="cls-2" x1="342.71" y1="185.85" x2="342.82" y2="186.23"/><line class="cls-2" x1="342.82" y1="186.23" x2="343.2" y2="187.1"/><line class="cls-2" x1="343.2" y1="187.1" x2="343.58" y2="187.78"/><line class="cls-2" x1="343.58" y1="187.78" x2="343.65" y2="187.85"/><line class="cls-2" x1="343.65" y1="187.85" x2="343.69" y2="187.89"/><line class="cls-2" x1="347.32" y1="187.93" x2="347.32" y2="187.89"/><line class="cls-2" x1="348.34" y1="185.85" x2="348.22" y2="186.23"/><line class="cls-2" x1="348.22" y1="186.23" x2="347.85" y2="187.1"/><line class="cls-2" x1="347.85" y1="187.1" x2="347.81" y2="187.17"/><line class="cls-2" x1="347.81" y1="187.17" x2="347.77" y2="187.25"/><line class="cls-2" x1="347.77" y1="187.25" x2="347.66" y2="187.44"/><line class="cls-2" x1="347.66" y1="187.44" x2="347.43" y2="187.78"/><line class="cls-2" x1="347.43" y1="187.78" x2="347.32" y2="187.89"/><line class="cls-2" x1="348.72" y1="184.41" x2="348.49" y2="185.32"/><line class="cls-2" x1="348.49" y1="185.32" x2="348.45" y2="185.47"/><line class="cls-2" x1="342.14" y1="179.73" x2="342.1" y2="181.84"/><line class="cls-2" x1="342.1" y1="181.84" x2="342.14" y2="179.73"/><line class="cls-2" x1="342.14" y1="179.73" x2="342.18" y2="179.58"/><line class="cls-2" x1="343.73" y1="187.93" x2="343.69" y2="187.89"/><line class="cls-2" x1="343.69" y1="187.89" x2="343.73" y2="187.93"/><line class="cls-2" x1="348.91" y1="183.62" x2="348.83" y2="184.41"/><line class="cls-2" x1="348.83" y1="184.41" x2="348.64" y2="185.36"/><line class="cls-2" x1="348.64" y1="185.36" x2="348.34" y2="186.27"/><line class="cls-2" x1="348.34" y1="186.27" x2="347.96" y2="187.14"/><line class="cls-2" x1="347.96" y1="187.14" x2="347.54" y2="187.85"/><line class="cls-2" x1="347.54" y1="187.85" x2="347.47" y2="187.93"/><line class="cls-2" x1="347.47" y1="187.93" x2="347.43" y2="187.97"/><line class="cls-2" x1="347.43" y1="187.97" x2="347.43" y2="188.01"/><line class="cls-2" x1="347.43" y1="188.01" x2="347.39" y2="188.01"/><line class="cls-2" x1="347.39" y1="188.01" x2="346.52" y2="188.57"/><line class="cls-2" x1="346.52" y1="188.57" x2="345.5" y2="188.8"/><line class="cls-2" x1="345.5" y1="188.8" x2="344.48" y2="188.57"/><line class="cls-2" x1="344.48" y1="188.57" x2="343.61" y2="188.01"/><line class="cls-2" x1="343.61" y1="188.01" x2="343.5" y2="187.85"/><line class="cls-2" x1="343.5" y1="187.85" x2="343.24" y2="187.51"/><line class="cls-2" x1="343.24" y1="187.51" x2="343.16" y2="187.33"/><line class="cls-2" x1="343.16" y1="187.33" x2="343.12" y2="187.25"/><line class="cls-2" x1="343.12" y1="187.25" x2="343.08" y2="187.14"/><line class="cls-2" x1="343.08" y1="187.14" x2="342.71" y2="186.27"/><line class="cls-2" x1="342.71" y1="186.27" x2="342.4" y2="185.36"/><line class="cls-2" x1="342.4" y1="185.36" x2="342.21" y2="184.41"/><line class="cls-2" x1="342.21" y1="184.41" x2="342.14" y2="183.62"/><line class="cls-2" x1="348.91" y1="181.84" x2="348.41" y2="180.67"/><line class="cls-2" x1="348.41" y1="180.67" x2="347.54" y2="179.69"/><line class="cls-2" x1="347.54" y1="179.69" x2="343.46" y2="179.69"/><line class="cls-2" x1="343.46" y1="179.69" x2="342.63" y2="180.67"/><line class="cls-2" x1="342.63" y1="180.67" x2="342.1" y2="181.84"/><line class="cls-2" x1="342.03" y1="182.71" x2="341.99" y2="182.07"/><line class="cls-2" x1="341.99" y1="182.07" x2="342.03" y2="179.69"/><line class="cls-2" x1="342.03" y1="179.69" x2="342.03" y2="179.58"/><line class="cls-2" x1="344.63" y1="173.94" x2="343.2" y2="173.94"/><line class="cls-2" x1="343.2" y1="173.94" x2="343.05" y2="173.91"/><line class="cls-2" x1="343.05" y1="173.91" x2="342.97" y2="173.79"/><line class="cls-2" x1="342.97" y1="173.79" x2="342.93" y2="173.68"/><line class="cls-2" x1="342.93" y1="173.68" x2="342.93" y2="173.38"/><line class="cls-2" x1="342.93" y1="173.38" x2="348.07" y2="173.38"/><line class="cls-2" x1="348.07" y1="173.38" x2="348.07" y2="173.68"/><line class="cls-2" x1="348.07" y1="173.68" x2="348.04" y2="173.79"/><line class="cls-2" x1="348.04" y1="173.79" x2="347.96" y2="173.91"/><line class="cls-2" x1="347.96" y1="173.91" x2="347.85" y2="173.94"/><line class="cls-2" x1="347.85" y1="173.94" x2="346.52" y2="173.94"/><line class="cls-2" x1="344.63" y1="174.02" x2="344.63" y2="173.91"/><line class="cls-2" x1="344.63" y1="173.91" x2="346.52" y2="173.91"/><line class="cls-2" x1="346.52" y1="173.91" x2="346.52" y2="174.02"/><line class="cls-2" x1="344.22" y1="174.02" x2="344.26" y2="173.94"/><line class="cls-2" x1="344.26" y1="173.94" x2="344.33" y2="173.94"/><line class="cls-2" x1="346.83" y1="173.94" x2="346.9" y2="173.94"/><line class="cls-2" x1="346.9" y1="173.94" x2="346.98" y2="174.02"/><line class="cls-2" x1="344.07" y1="174.02" x2="344.07" y2="173.94"/><line class="cls-2" x1="347.13" y1="173.94" x2="347.13" y2="174.02"/><rect class="cls-1" x="342.06" y="179.27" width="6.99" height="2.91"/><line class="cls-2" x1="349.06" y1="179.27" x2="349.06" y2="182.18"/><line class="cls-2" x1="349.06" y1="182.18" x2="342.06" y2="182.18"/><line class="cls-2" x1="342.06" y1="182.18" x2="342.06" y2="179.27"/><line class="cls-2" x1="342.06" y1="179.27" x2="349.06" y2="179.27"/><rect class="cls-1" x="341.23" y="179.12" width="1.13" height="0.49"/><line class="cls-2" x1="342.37" y1="179.12" x2="342.37" y2="179.61"/><line class="cls-2" x1="342.37" y1="179.61" x2="341.23" y2="179.61"/><line class="cls-2" x1="341.23" y1="179.61" x2="341.23" y2="179.12"/><line class="cls-2" x1="341.23" y1="179.12" x2="342.37" y2="179.12"/><polygon class="cls-3" points="341 174.02 350.04 174.02 350.04 178.78 349.55 179.27 341.46 179.27 341 178.78 341 174.02"/><line class="cls-2" x1="350.04" y1="174.02" x2="350.04" y2="178.78"/><line class="cls-2" x1="350.04" y1="178.78" x2="349.55" y2="179.27"/><line class="cls-2" x1="349.55" y1="179.27" x2="341.46" y2="179.27"/><line class="cls-2" x1="341.46" y1="179.27" x2="341.01" y2="178.78"/><line class="cls-2" x1="341.01" y1="178.78" x2="341.01" y2="174.02"/><line class="cls-2" x1="341.01" y1="174.02" x2="350.04" y2="174.02"/><line class="cls-2" x1="342.37" y1="179.58" x2="342.4" y2="179.27"/><line class="cls-2" x1="342.4" y1="179.27" x2="348.94" y2="179.27"/><line class="cls-2" x1="348.94" y1="179.27" x2="349.02" y2="179.69"/><line class="cls-2" x1="349.02" y1="179.69" x2="349.06" y2="182.07"/><line class="cls-2" x1="349.06" y1="182.07" x2="348.98" y2="182.71"/><polygon class="cls-3" points="342.33 184.41 343.08 186.8 342.59 185.62 342.33 184.41"/><polygon class="cls-3" points="343.08 186.8 342.33 184.41 342.03 183.17 342.1 181.84 342.63 180.67 343.46 179.69 347.54 179.69 348.41 180.67 348.9 181.84 349.02 183.17 348.72 184.41 347.96 186.8 347.32 187.89 346.83 188.38 346.18 188.65 345.5 188.65 344.82 188.65 344.18 188.38 343.69 187.89 343.08 186.8"/><polygon class="cls-3" points="344.82 188.65 345.5 188.65 345.43 188.65 345.39 188.69 345.24 188.69 344.97 188.65 344.82 188.65"/><polygon class="cls-3" points="347.96 186.8 348.72 184.41 348.41 185.62 347.96 186.8"/><line class="cls-2" x1="344.18" y1="188.38" x2="343.69" y2="187.89"/><line class="cls-2" x1="343.69" y1="187.89" x2="343.08" y2="186.8"/><line class="cls-2" x1="343.08" y1="186.8" x2="342.59" y2="185.62"/><line class="cls-2" x1="342.59" y1="185.62" x2="342.33" y2="184.41"/><line class="cls-2" x1="342.33" y1="184.41" x2="342.03" y2="183.17"/><line class="cls-2" x1="342.03" y1="183.17" x2="342.1" y2="181.84"/><line class="cls-2" x1="342.1" y1="181.84" x2="342.63" y2="180.67"/><line class="cls-2" x1="342.63" y1="180.67" x2="343.46" y2="179.69"/><line class="cls-2" x1="343.46" y1="179.69" x2="347.54" y2="179.69"/><line class="cls-2" x1="347.54" y1="179.69" x2="348.41" y2="180.67"/><line class="cls-2" x1="348.41" y1="180.67" x2="348.91" y2="181.84"/><line class="cls-2" x1="348.91" y1="181.84" x2="349.02" y2="183.17"/><line class="cls-2" x1="349.02" y1="183.17" x2="348.72" y2="184.41"/><line class="cls-2" x1="348.72" y1="184.41" x2="348.41" y2="185.62"/><line class="cls-2" x1="348.41" y1="185.62" x2="347.96" y2="186.8"/><line class="cls-2" x1="347.96" y1="186.8" x2="347.32" y2="187.89"/><line class="cls-2" x1="347.32" y1="187.89" x2="346.83" y2="188.38"/><line class="cls-2" x1="346.83" y1="188.38" x2="346.18" y2="188.65"/><line class="cls-2" x1="346.18" y1="188.65" x2="345.5" y2="188.65"/><line class="cls-2" x1="345.5" y1="188.65" x2="345.43" y2="188.65"/><line class="cls-2" x1="345.43" y1="188.65" x2="345.39" y2="188.69"/><line class="cls-2" x1="345.39" y1="188.69" x2="345.24" y2="188.69"/><line class="cls-2" x1="345.24" y1="188.69" x2="344.97" y2="188.65"/><line class="cls-2" x1="344.97" y1="188.65" x2="344.82" y2="188.65"/><line class="cls-2" x1="344.82" y1="188.65" x2="344.18" y2="188.38"/><line class="cls-2" x1="320.25" y1="173.23" x2="320.25" y2="201.23"/><line class="cls-2" x1="320.25" y1="201.23" x2="335.37" y2="201.23"/><rect class="cls-4" x="296.14" y="201.46" width="1.55" height="1.66"/><rect class="cls-4" x="311.6" y="201.46" width="37.34" height="1.66"/><rect class="cls-4" x="365.73" y="201.46" width="1.51" height="1.66"/><rect class="cls-4" x="318.36" y="173.11" width="1.63" height="28.35"/><rect class="cls-4" x="336.05" y="173.11" width="1.66" height="7.56"/><line class="cls-2" x1="297.69" y1="201.23" x2="296.37" y2="201.23"/><line class="cls-2" x1="318.1" y1="201.23" x2="311.6" y2="201.23"/><line class="cls-2" x1="348.94" y1="201.23" x2="320.25" y2="201.23"/><line class="cls-2" x1="367.01" y1="201.23" x2="365.73" y2="201.23"/><line class="cls-2" x1="297.69" y1="201.23" x2="297.69" y2="203.35"/><line class="cls-2" x1="311.6" y1="201.23" x2="311.6" y2="203.35"/><line class="cls-2" x1="348.94" y1="201.23" x2="348.94" y2="203.35"/><line class="cls-2" x1="365.73" y1="201.23" x2="365.73" y2="203.35"/><line class="cls-2" x1="297.69" y1="201.46" x2="296.14" y2="201.46"/><line class="cls-2" x1="348.94" y1="201.46" x2="319.99" y2="201.46"/><line class="cls-2" x1="318.36" y1="201.46" x2="311.6" y2="201.46"/><line class="cls-2" x1="367.24" y1="201.46" x2="365.73" y2="201.46"/><line class="cls-2" x1="297.69" y1="201.46" x2="297.69" y2="203.12"/><line class="cls-2" x1="311.6" y1="201.46" x2="311.6" y2="203.12"/><line class="cls-2" x1="348.94" y1="201.46" x2="348.94" y2="203.12"/><line class="cls-2" x1="365.73" y1="201.46" x2="365.73" y2="203.12"/><line class="cls-2" x1="296.14" y1="203.12" x2="297.69" y2="203.12"/><line class="cls-2" x1="311.6" y1="203.12" x2="348.94" y2="203.12"/><line class="cls-2" x1="365.73" y1="203.12" x2="367.24" y2="203.12"/><line class="cls-2" x1="296.37" y1="203.35" x2="297.69" y2="203.35"/><line class="cls-2" x1="311.6" y1="203.35" x2="348.94" y2="203.35"/><line class="cls-2" x1="365.73" y1="203.35" x2="367.01" y2="203.35"/><line class="cls-2" x1="311.6" y1="201.23" x2="311.26" y2="201.23"/><line class="cls-2" x1="311.6" y1="203.35" x2="311.26" y2="203.35"/><line class="cls-2" x1="311.6" y1="201.23" x2="311.6" y2="203.35"/><line class="cls-2" x1="311.26" y1="201.23" x2="311.26" y2="203.35"/><line class="cls-2" x1="298.03" y1="201.23" x2="297.69" y2="201.23"/><line class="cls-2" x1="298.03" y1="203.35" x2="297.69" y2="203.35"/><line class="cls-2" x1="298.03" y1="201.23" x2="298.03" y2="203.35"/><line class="cls-2" x1="297.69" y1="201.23" x2="297.69" y2="203.35"/><line class="cls-2" x1="298.03" y1="201.23" x2="298.03" y2="188.01"/><line class="cls-2" x1="298.67" y1="201.23" x2="298.67" y2="188.01"/><line class="cls-2" x1="298.03" y1="188.01" x2="298.67" y2="188.01"/><line class="cls-2" x1="298.67" y1="201.23" x2="298.03" y2="201.23"/><line class="cls-2" x1="311.26" y1="201.23" x2="311.22" y2="200.4"/><line class="cls-2" x1="311.22" y1="200.4" x2="311.14" y2="199.53"/><line class="cls-2" x1="311.14" y1="199.53" x2="310.96" y2="198.44"/><line class="cls-2" x1="310.96" y1="198.44" x2="310.65" y2="197.34"/><line class="cls-2" x1="310.65" y1="197.34" x2="310.28" y2="196.28"/><line class="cls-2" x1="310.28" y1="196.28" x2="309.82" y2="195.23"/><line class="cls-2" x1="309.82" y1="195.23" x2="309.25" y2="194.24"/><line class="cls-2" x1="309.25" y1="194.24" x2="308.61" y2="193.3"/><line class="cls-2" x1="308.61" y1="193.3" x2="307.89" y2="192.43"/><line class="cls-2" x1="307.89" y1="192.43" x2="307.1" y2="191.63"/><line class="cls-2" x1="307.1" y1="191.63" x2="306.27" y2="190.88"/><line class="cls-2" x1="306.27" y1="190.88" x2="305.32" y2="190.2"/><line class="cls-2" x1="305.32" y1="190.2" x2="304.38" y2="189.63"/><line class="cls-2" x1="304.38" y1="189.63" x2="303.36" y2="189.14"/><line class="cls-2" x1="303.36" y1="189.14" x2="302.3" y2="188.72"/><line class="cls-2" x1="302.3" y1="188.72" x2="301.2" y2="188.38"/><line class="cls-2" x1="301.2" y1="188.38" x2="300.11" y2="188.16"/><line class="cls-2" x1="300.11" y1="188.16" x2="298.97" y2="188.04"/><line class="cls-2" x1="298.97" y1="188.04" x2="298.03" y2="188.01"/><line class="cls-2" x1="311.37" y1="201.23" x2="311.37" y2="200.93"/><line class="cls-2" x1="311.37" y1="200.93" x2="312.92" y2="200.93"/><line class="cls-2" x1="312.92" y1="201.23" x2="312.92" y2="200.93"/><line class="cls-2" x1="297.92" y1="201.23" x2="297.92" y2="200.93"/><line class="cls-2" x1="296.37" y1="200.93" x2="297.92" y2="200.93"/><line class="cls-2" x1="297.92" y1="203.35" x2="297.92" y2="203.65"/><line class="cls-2" x1="296.37" y1="203.65" x2="297.92" y2="203.65"/><line class="cls-2" x1="311.37" y1="203.35" x2="311.37" y2="203.65"/><line class="cls-2" x1="311.37" y1="203.65" x2="312.92" y2="203.65"/><line class="cls-2" x1="312.92" y1="203.35" x2="312.92" y2="203.65"/><line class="cls-2" x1="365.73" y1="201.23" x2="365.35" y2="201.23"/><line class="cls-2" x1="365.73" y1="203.35" x2="365.35" y2="203.35"/><line class="cls-2" x1="365.73" y1="201.23" x2="365.73" y2="203.35"/><line class="cls-2" x1="365.35" y1="201.23" x2="365.35" y2="203.35"/><line class="cls-2" x1="349.28" y1="201.23" x2="348.94" y2="201.23"/><line class="cls-2" x1="349.28" y1="203.35" x2="348.94" y2="203.35"/><line class="cls-2" x1="349.28" y1="201.23" x2="349.28" y2="203.35"/><line class="cls-2" x1="348.94" y1="201.23" x2="348.94" y2="203.35"/><line class="cls-2" x1="365.35" y1="203.35" x2="365.35" y2="219.42"/><line class="cls-2" x1="364.7" y1="203.35" x2="364.7" y2="219.42"/><line class="cls-2" x1="365.35" y1="219.42" x2="364.7" y2="219.42"/><line class="cls-2" x1="364.7" y1="203.35" x2="365.35" y2="203.35"/><line class="cls-2" x1="349.28" y1="203.35" x2="349.32" y2="204.41"/><line class="cls-2" x1="349.32" y1="204.41" x2="349.43" y2="205.47"/><line class="cls-2" x1="349.43" y1="205.47" x2="349.62" y2="206.56"/><line class="cls-2" x1="349.62" y1="206.56" x2="349.89" y2="207.7"/><line class="cls-2" x1="349.89" y1="207.7" x2="350.23" y2="208.76"/><line class="cls-2" x1="350.23" y1="208.76" x2="350.64" y2="209.82"/><line class="cls-2" x1="350.64" y1="209.82" x2="351.14" y2="210.84"/><line class="cls-2" x1="351.14" y1="210.84" x2="351.7" y2="211.82"/><line class="cls-2" x1="351.7" y1="211.82" x2="352.34" y2="212.76"/><line class="cls-2" x1="352.34" y1="212.76" x2="353.03" y2="213.67"/><line class="cls-2" x1="353.03" y1="213.67" x2="353.78" y2="214.5"/><line class="cls-2" x1="353.78" y1="214.5" x2="354.61" y2="215.3"/><line class="cls-2" x1="354.61" y1="215.3" x2="355.48" y2="216.01"/><line class="cls-2" x1="355.48" y1="216.01" x2="356.39" y2="216.69"/><line class="cls-2" x1="356.39" y1="216.69" x2="357.33" y2="217.3"/><line class="cls-2" x1="357.33" y1="217.3" x2="358.35" y2="217.83"/><line class="cls-2" x1="358.35" y1="217.83" x2="359.38" y2="218.28"/><line class="cls-2" x1="359.38" y1="218.28" x2="360.43" y2="218.66"/><line class="cls-2" x1="360.43" y1="218.66" x2="361.53" y2="218.96"/><line class="cls-2" x1="361.53" y1="218.96" x2="362.66" y2="219.19"/><line class="cls-2" x1="362.66" y1="219.19" x2="363.76" y2="219.34"/><line class="cls-2" x1="363.76" y1="219.34" x2="364.89" y2="219.42"/><line class="cls-2" x1="364.89" y1="219.42" x2="365.35" y2="219.42"/><line class="cls-2" x1="365.46" y1="201.23" x2="365.46" y2="200.93"/><line class="cls-2" x1="365.46" y1="200.93" x2="367.01" y2="200.93"/><line class="cls-2" x1="349.17" y1="201.23" x2="349.17" y2="200.93"/><line class="cls-2" x1="347.66" y1="200.93" x2="349.17" y2="200.93"/><line class="cls-2" x1="347.66" y1="201.23" x2="347.66" y2="200.93"/><line class="cls-2" x1="349.17" y1="203.35" x2="349.17" y2="203.65"/><line class="cls-2" x1="347.66" y1="203.65" x2="349.17" y2="203.65"/><line class="cls-2" x1="347.66" y1="203.35" x2="347.66" y2="203.65"/><line class="cls-2" x1="365.46" y1="203.35" x2="365.46" y2="203.65"/><line class="cls-2" x1="365.46" y1="203.65" x2="367.01" y2="203.65"/><line class="cls-2" x1="318.1" y1="173.38" x2="318.1" y2="201.23"/><line class="cls-2" x1="318.36" y1="173.11" x2="318.36" y2="201.46"/><line class="cls-2" x1="319.99" y1="201.46" x2="319.99" y2="173.11"/><line class="cls-2" x1="320.25" y1="201.23" x2="320.25" y2="173.38"/><line class="cls-2" x1="337.94" y1="180.67" x2="337.94" y2="173.38"/><line class="cls-2" x1="335.83" y1="180.67" x2="335.83" y2="180.94"/><line class="cls-2" x1="335.83" y1="180.94" x2="337.94" y2="180.94"/><line class="cls-2" x1="337.94" y1="180.94" x2="337.94" y2="180.67"/><line class="cls-2" x1="337.72" y1="180.67" x2="337.72" y2="173.11"/><line class="cls-2" x1="336.05" y1="180.67" x2="337.72" y2="180.67"/><line class="cls-2" x1="336.05" y1="173.11" x2="336.05" y2="180.67"/><line class="cls-2" x1="335.83" y1="173.38" x2="335.83" y2="180.67"/><line class="cls-2" x1="312.43" y1="179.05" x2="318.1" y2="179.05"/><line class="cls-2" x1="318.1" y1="179.05" x2="318.1" y2="201.23"/><line class="cls-2" x1="318.1" y1="201.23" x2="312.43" y2="201.23"/><line class="cls-2" x1="312.43" y1="201.23" x2="312.43" y2="179.05"/><line class="cls-2" x1="318.1" y1="173.38" x2="318.1" y2="179.05"/><line class="cls-2" x1="318.1" y1="179.05" x2="296.37" y2="179.05"/><text class="cls-5" transform="translate(303.96 191.97)"> </text><text class="cls-6" transform="translate(345.43 195.23)">BATH</text><text class="cls-6" transform="translate(330.38 201.46) rotate(-90)">SHOWER</text><text class="cls-6" transform="translate(307.5 200.4) rotate(-90)">CLOSET</text><rect class="cls-1" x="337.6" y="180.69" width="0.27" height="20.66"/><line class="cls-2" x1="337.87" y1="201.35" x2="337.87" y2="180.69"/><line class="cls-2" x1="337.6" y1="180.69" x2="337.6" y2="201.35"/><text class="cls-6" transform="translate(310.15 242.22)"><tspan class="cls-7">12</tspan><tspan class="cls-8" x="7.75" y="0">&apos;</tspan><tspan class="cls-9" x="9.09" y="0">-</tspan><tspan class="cls-10" x="11.4" y="0">6</tspan><tspan x="15.27" y="0">&quot;</tspan><tspan class="cls-11" x="17.43" y="0"> </tspan><tspan class="cls-10" x="19.33" y="0">X</tspan><tspan class="cls-12" x="23.58" y="0"> </tspan><tspan class="cls-13" x="25.57" y="0">1</tspan><tspan class="cls-14" x="29.36" y="0">3</tspan><tspan class="cls-15" x="33.24" y="0">&apos;</tspan><tspan class="cls-9" x="34.66" y="0">-</tspan><tspan class="cls-16" x="36.97" y="0">2</tspan><tspan x="40.76" y="0">&quot;</tspan></text><text class="cls-6" transform="translate(319.02 235.21)">STUDY</text></g></g></svg>