<svg id="图层_1" data-name="图层 1" xmlns="http://www.w3.org/2000/svg" viewBox="0 0 1152 576"><defs><style>.cls-1{fill:#fff;}.cls-2,.cls-5,.cls-6{fill:none;stroke:#0b6190;stroke-linejoin:bevel;}.cls-2{stroke-width:0;}.cls-3,.cls-4{fill:#0b6190;}.cls-4{fill-rule:evenodd;}.cls-5,.cls-6{stroke-linecap:round;}.cls-5{stroke-width:0.93px;}.cls-6{stroke-width:0.46px;}</style></defs><title>OPT . SITTING ROOM</title><g id="_OPT_._SITTING_ROOM" data-name=" OPT . SITTING ROOM"><g id="_OPT_._SITTING_ROOM-2" data-name=" OPT . SITTING ROOM"><rect class="cls-1" x="574.13" y="180.69" width="90.4" height="7.25"/><polygon class="cls-1" points="590.69 183.06 590.95 183.06 590.95 126.05 590.69 125.8 590.69 183.06"/><line class="cls-2" x1="590.69" y1="126.55" x2="590.95" y2="126.85"/><line class="cls-2" x1="590.69" y1="129.54" x2="590.95" y2="129.79"/><line class="cls-2" x1="590.69" y1="132.52" x2="590.95" y2="132.78"/><line class="cls-2" x1="590.69" y1="135.47" x2="590.95" y2="135.76"/><line class="cls-2" x1="590.69" y1="138.45" x2="590.95" y2="138.7"/><line class="cls-2" x1="590.69" y1="141.44" x2="590.95" y2="141.69"/><line class="cls-2" x1="590.69" y1="144.42" x2="590.95" y2="144.67"/><line class="cls-2" x1="590.69" y1="147.37" x2="590.95" y2="147.62"/><line class="cls-2" x1="590.69" y1="150.35" x2="590.95" y2="150.6"/><line class="cls-2" x1="590.69" y1="153.34" x2="590.95" y2="153.59"/><line class="cls-2" x1="590.69" y1="156.28" x2="590.95" y2="156.58"/><line class="cls-2" x1="590.69" y1="159.27" x2="590.95" y2="159.52"/><line class="cls-2" x1="590.69" y1="162.25" x2="590.95" y2="162.5"/><line class="cls-2" x1="590.69" y1="165.24" x2="590.95" y2="165.49"/><line class="cls-2" x1="590.69" y1="168.18" x2="590.95" y2="168.43"/><line class="cls-2" x1="590.69" y1="171.17" x2="590.95" y2="171.42"/><line class="cls-2" x1="590.69" y1="174.15" x2="590.95" y2="174.4"/><line class="cls-2" x1="590.69" y1="177.09" x2="590.95" y2="177.39"/><line class="cls-2" x1="590.69" y1="180.08" x2="590.95" y2="180.33"/><rect class="cls-3" x="591.2" y="126.3" width="1.85" height="56.77"/><polygon class="cls-1" points="590.69 125.8 590.95 126.05 598.3 126.05 598.3 125.8 590.69 125.8"/><line class="cls-2" x1="593.13" y1="126.05" x2="593.43" y2="125.8"/><line class="cls-2" x1="596.12" y1="126.05" x2="596.37" y2="125.8"/><polygon class="cls-1" points="659.78 125.8 659.78 126.05 667.14 126.05 667.39 125.8 659.78 125.8"/><line class="cls-2" x1="661.54" y1="126.05" x2="661.8" y2="125.8"/><line class="cls-2" x1="664.53" y1="126.05" x2="664.78" y2="125.8"/><rect class="cls-3" x="593.05" y="126.3" width="5.26" height="1.85"/><rect class="cls-3" x="659.78" y="126.3" width="5.26" height="1.85"/><polygon class="cls-1" points="667.13 126.05 667.13 182.81 667.39 182.56 667.39 125.8 667.13 126.05"/><line class="cls-2" x1="667.3" y1="125.88" x2="667.39" y2="125.92"/><line class="cls-2" x1="667.14" y1="128.65" x2="667.39" y2="128.91"/><line class="cls-2" x1="667.14" y1="131.64" x2="667.39" y2="131.89"/><line class="cls-2" x1="667.14" y1="134.58" x2="667.39" y2="134.88"/><line class="cls-2" x1="667.14" y1="137.57" x2="667.39" y2="137.82"/><line class="cls-2" x1="667.14" y1="140.55" x2="667.39" y2="140.81"/><line class="cls-2" x1="667.14" y1="143.5" x2="667.39" y2="143.79"/><line class="cls-2" x1="667.14" y1="146.48" x2="667.39" y2="146.74"/><line class="cls-2" x1="667.14" y1="149.47" x2="667.39" y2="149.72"/><line class="cls-2" x1="667.14" y1="152.45" x2="667.39" y2="152.71"/><line class="cls-2" x1="667.14" y1="155.4" x2="667.39" y2="155.69"/><line class="cls-2" x1="667.14" y1="158.38" x2="667.39" y2="158.64"/><line class="cls-2" x1="667.14" y1="161.37" x2="667.39" y2="161.62"/><line class="cls-2" x1="667.14" y1="164.31" x2="667.39" y2="164.61"/><line class="cls-2" x1="667.14" y1="167.3" x2="667.39" y2="167.55"/><line class="cls-2" x1="667.14" y1="170.28" x2="667.39" y2="170.53"/><line class="cls-2" x1="667.14" y1="173.27" x2="667.39" y2="173.52"/><line class="cls-2" x1="667.14" y1="176.21" x2="667.39" y2="176.51"/><line class="cls-2" x1="667.14" y1="179.2" x2="667.39" y2="179.45"/><line class="cls-2" x1="667.14" y1="182.18" x2="667.39" y2="182.43"/><polyline class="cls-4" points="666.88 126.3 666.88 183.07 665.03 183.87 665.03 126.3"/><line class="cls-2" x1="667.22" y1="182.81" x2="667.47" y2="182.56"/><polyline class="cls-4" points="665.03 183.87 666.88 183.07 666.88 184.92"/><polyline class="cls-4" points="666.88 184.92 666.88 201.82 665.03 201.82 665.03 183.87"/><line class="cls-5" x1="591.2" y1="126.3" x2="591.2" y2="183.07"/><line class="cls-5" x1="591.2" y1="183.07" x2="593.05" y2="183.07"/><line class="cls-5" x1="593.05" y1="126.3" x2="591.2" y2="126.3"/><line class="cls-5" x1="593.05" y1="183.07" x2="593.05" y2="128.15"/><line class="cls-5" x1="598.3" y1="126.3" x2="593.05" y2="126.3"/><line class="cls-5" x1="665.03" y1="126.3" x2="659.78" y2="126.3"/><line class="cls-5" x1="598.3" y1="126.3" x2="598.3" y2="128.15"/><line class="cls-5" x1="659.78" y1="126.3" x2="659.78" y2="128.15"/><line class="cls-5" x1="593.05" y1="128.15" x2="598.3" y2="128.15"/><line class="cls-5" x1="659.78" y1="128.15" x2="665.03" y2="128.15"/><line class="cls-6" x1="617.22" y1="125.67" x2="617.22" y2="128.53"/><line class="cls-6" x1="617.22" y1="125.8" x2="616.8" y2="125.8"/><line class="cls-6" x1="617.22" y1="128.4" x2="616.8" y2="128.4"/><line class="cls-6" x1="617.22" y1="125.8" x2="617.22" y2="128.4"/><line class="cls-6" x1="616.8" y1="125.8" x2="616.8" y2="128.4"/><line class="cls-6" x1="598.68" y1="125.8" x2="598.3" y2="125.8"/><line class="cls-6" x1="598.68" y1="128.4" x2="598.3" y2="128.4"/><line class="cls-6" x1="598.68" y1="125.8" x2="598.68" y2="128.4"/><line class="cls-6" x1="598.3" y1="125.8" x2="598.3" y2="128.4"/><line class="cls-6" x1="616.8" y1="126.43" x2="598.68" y2="126.43"/><line class="cls-6" x1="616.8" y1="126.85" x2="598.68" y2="126.85"/><polyline class="cls-6" points="596.45 125.8 596.45 124.87 618.4 124.87"/><line class="cls-6" x1="598.3" y1="125.8" x2="598.3" y2="125.42"/><line class="cls-6" x1="596.45" y1="125.42" x2="598.3" y2="125.42"/><line class="cls-6" x1="596.45" y1="125.8" x2="596.45" y2="125.42"/><line class="cls-6" x1="596.66" y1="129.24" x2="618.4" y2="129.24"/><line class="cls-6" x1="596.66" y1="128.4" x2="596.66" y2="129.24"/><line class="cls-6" x1="598.64" y1="128.4" x2="598.64" y2="128.74"/><line class="cls-6" x1="596.92" y1="128.74" x2="598.64" y2="128.74"/><line class="cls-6" x1="596.92" y1="128.4" x2="596.92" y2="128.74"/><line class="cls-6" x1="596.92" y1="128.4" x2="598.64" y2="128.4"/><line class="cls-6" x1="619.58" y1="125.67" x2="619.58" y2="128.53"/><line class="cls-6" x1="638.5" y1="125.67" x2="638.5" y2="128.53"/><line class="cls-6" x1="619.58" y1="125.67" x2="617.22" y2="125.67"/><line class="cls-6" x1="619.58" y1="128.53" x2="617.22" y2="128.53"/><line class="cls-6" x1="638.5" y1="125.8" x2="638.12" y2="125.8"/><line class="cls-6" x1="638.5" y1="128.4" x2="638.12" y2="128.4"/><line class="cls-6" x1="638.5" y1="125.8" x2="638.5" y2="128.4"/><line class="cls-6" x1="638.12" y1="125.8" x2="638.12" y2="128.4"/><line class="cls-6" x1="619.96" y1="125.8" x2="619.58" y2="125.8"/><line class="cls-6" x1="619.96" y1="128.4" x2="619.58" y2="128.4"/><line class="cls-6" x1="619.96" y1="125.8" x2="619.96" y2="128.4"/><line class="cls-6" x1="619.58" y1="125.8" x2="619.58" y2="128.4"/><line class="cls-6" x1="638.12" y1="126.43" x2="619.96" y2="126.43"/><line class="cls-6" x1="638.12" y1="126.85" x2="619.96" y2="126.85"/><line class="cls-6" x1="618.4" y1="124.87" x2="639.68" y2="124.87"/><line class="cls-6" x1="618.4" y1="129.24" x2="639.68" y2="129.24"/><line class="cls-6" x1="640.86" y1="125.67" x2="640.86" y2="128.53"/><line class="cls-6" x1="640.86" y1="125.67" x2="638.5" y2="125.67"/><line class="cls-6" x1="640.86" y1="128.53" x2="638.5" y2="128.53"/><line class="cls-6" x1="659.78" y1="125.8" x2="659.4" y2="125.8"/><line class="cls-6" x1="659.78" y1="128.4" x2="659.4" y2="128.4"/><line class="cls-6" x1="659.78" y1="125.8" x2="659.78" y2="128.4"/><line class="cls-6" x1="659.4" y1="125.8" x2="659.4" y2="128.4"/><line class="cls-6" x1="641.28" y1="125.8" x2="640.86" y2="125.8"/><line class="cls-6" x1="641.28" y1="128.4" x2="640.86" y2="128.4"/><line class="cls-6" x1="641.28" y1="125.8" x2="641.28" y2="128.4"/><line class="cls-6" x1="640.86" y1="125.8" x2="640.86" y2="128.4"/><line class="cls-6" x1="659.4" y1="126.43" x2="641.28" y2="126.43"/><line class="cls-6" x1="659.4" y1="126.85" x2="641.28" y2="126.85"/><line class="cls-6" x1="639.68" y1="124.87" x2="661.63" y2="124.87"/><line class="cls-6" x1="661.63" y1="125.8" x2="661.63" y2="124.87"/><polyline class="cls-6" points="659.78 125.8 659.78 125.42 661.63 125.42"/><line class="cls-6" x1="661.63" y1="125.8" x2="661.63" y2="125.42"/><line class="cls-6" x1="661.42" y1="128.4" x2="661.42" y2="129.24"/><line class="cls-6" x1="639.68" y1="129.24" x2="661.42" y2="129.24"/><line class="cls-6" x1="659.44" y1="128.4" x2="659.44" y2="128.74"/><line class="cls-6" x1="659.44" y1="128.74" x2="661.17" y2="128.74"/><line class="cls-6" x1="661.17" y1="128.4" x2="661.17" y2="128.74"/><line class="cls-6" x1="659.44" y1="128.4" x2="661.17" y2="128.4"/><line class="cls-5" x1="666.88" y1="183.07" x2="666.88" y2="126.3"/><line class="cls-5" x1="666.88" y1="126.3" x2="665.03" y2="126.3"/><line class="cls-5" x1="665.03" y1="183.86" x2="666.88" y2="183.07"/><line class="cls-5" x1="665.03" y1="128.15" x2="665.03" y2="183.86"/><line class="cls-5" x1="666.88" y1="183.07" x2="666.88" y2="184.92"/><polyline class="cls-5" points="666.88 201.82 666.88 184.92 665.03 183.87"/><line class="cls-5" x1="665.03" y1="201.82" x2="666.88" y2="201.82"/><line class="cls-5" x1="665.03" y1="183.86" x2="665.03" y2="201.82"/><rect class="cls-1" x="565.99" y="182.59" width="27.59" height="0.25"/><line class="cls-2" x1="582.94" y1="187.2" x2="583.24" y2="186.95"/><rect class="cls-3" x="565.99" y="183.05" width="27.59" height="1.85"/><line class="cls-5" x1="593.38" y1="183.05" x2="565.99" y2="183.05"/><line class="cls-5" x1="566.5" y1="184.9" x2="593.17" y2="184.9"/></g></g></svg>