<svg id="图层_1" data-name="图层 1" xmlns="http://www.w3.org/2000/svg" viewBox="0 0 1152 576"><defs><style>.cls-1{fill:#fff;}.cls-2,.cls-5,.cls-6{fill:none;stroke:#0b6190;stroke-linejoin:bevel;}.cls-2{stroke-width:0;}.cls-3,.cls-4{fill:#0b6190;}.cls-4{fill-rule:evenodd;}.cls-5,.cls-6{stroke-linecap:round;}.cls-5{stroke-width:0.93px;}.cls-6{stroke-width:0.46px;}</style></defs><title>OPT . SITTING ROOM-2</title><g id="OPT_.2_EXTENSION_ON_BACK-OPT" data-name="OPT .2 EXTENSION ON BACK-OPT"><g id="_OPT_._SITTING_ROOM-2" data-name=" OPT . SITTING ROOM-2"><g id="_OPT_._SITTING_ROOM-2-2" data-name=" OPT . SITTING ROOM-2"><rect class="cls-1" x="574.13" y="168.48" width="90.4" height="7.25"/><polygon class="cls-1" points="590.69 170.85 590.95 170.85 590.95 113.84 590.69 113.58 590.69 170.85"/><line class="cls-2" x1="590.69" y1="114.34" x2="590.95" y2="114.64"/><line class="cls-2" x1="590.69" y1="117.33" x2="590.95" y2="117.58"/><line class="cls-2" x1="590.69" y1="120.31" x2="590.95" y2="120.57"/><line class="cls-2" x1="590.69" y1="123.26" x2="590.95" y2="123.55"/><line class="cls-2" x1="590.69" y1="126.24" x2="590.95" y2="126.49"/><line class="cls-2" x1="590.69" y1="129.23" x2="590.95" y2="129.48"/><line class="cls-2" x1="590.69" y1="132.21" x2="590.95" y2="132.46"/><line class="cls-2" x1="590.69" y1="135.16" x2="590.95" y2="135.41"/><line class="cls-2" x1="590.69" y1="138.14" x2="590.95" y2="138.39"/><line class="cls-2" x1="590.69" y1="141.13" x2="590.95" y2="141.38"/><line class="cls-2" x1="590.69" y1="144.07" x2="590.95" y2="144.37"/><line class="cls-2" x1="590.69" y1="147.06" x2="590.95" y2="147.31"/><line class="cls-2" x1="590.69" y1="150.04" x2="590.95" y2="150.29"/><line class="cls-2" x1="590.69" y1="153.03" x2="590.95" y2="153.28"/><line class="cls-2" x1="590.69" y1="155.97" x2="590.95" y2="156.22"/><line class="cls-2" x1="590.69" y1="158.96" x2="590.95" y2="159.21"/><line class="cls-2" x1="590.69" y1="161.94" x2="590.95" y2="162.19"/><line class="cls-2" x1="590.69" y1="164.88" x2="590.95" y2="165.18"/><line class="cls-2" x1="590.69" y1="167.87" x2="590.95" y2="168.12"/><rect class="cls-3" x="591.2" y="114.09" width="1.85" height="56.77"/><polygon class="cls-1" points="590.69 113.58 590.95 113.84 598.3 113.84 598.3 113.58 590.69 113.58"/><line class="cls-2" x1="593.13" y1="113.84" x2="593.43" y2="113.59"/><line class="cls-2" x1="596.12" y1="113.84" x2="596.37" y2="113.59"/><polygon class="cls-1" points="659.78 113.58 659.78 113.84 667.14 113.84 667.39 113.58 659.78 113.58"/><line class="cls-2" x1="661.54" y1="113.84" x2="661.8" y2="113.59"/><line class="cls-2" x1="664.53" y1="113.84" x2="664.78" y2="113.59"/><rect class="cls-3" x="593.05" y="114.09" width="5.26" height="1.85"/><rect class="cls-3" x="659.78" y="114.09" width="5.26" height="1.85"/><polygon class="cls-1" points="667.13 113.84 667.13 170.6 667.39 170.35 667.39 113.58 667.13 113.84"/><line class="cls-2" x1="667.3" y1="113.67" x2="667.39" y2="113.71"/><line class="cls-2" x1="667.14" y1="116.44" x2="667.39" y2="116.7"/><line class="cls-2" x1="667.14" y1="119.43" x2="667.39" y2="119.68"/><line class="cls-2" x1="667.14" y1="122.37" x2="667.39" y2="122.67"/><line class="cls-2" x1="667.14" y1="125.36" x2="667.39" y2="125.61"/><line class="cls-2" x1="667.14" y1="128.34" x2="667.39" y2="128.6"/><line class="cls-2" x1="667.14" y1="131.29" x2="667.39" y2="131.58"/><line class="cls-2" x1="667.14" y1="134.27" x2="667.39" y2="134.53"/><line class="cls-2" x1="667.14" y1="137.26" x2="667.39" y2="137.51"/><line class="cls-2" x1="667.14" y1="140.24" x2="667.39" y2="140.5"/><line class="cls-2" x1="667.14" y1="143.19" x2="667.39" y2="143.48"/><line class="cls-2" x1="667.14" y1="146.17" x2="667.39" y2="146.43"/><line class="cls-2" x1="667.14" y1="149.16" x2="667.39" y2="149.41"/><line class="cls-2" x1="667.14" y1="152.1" x2="667.39" y2="152.4"/><line class="cls-2" x1="667.14" y1="155.09" x2="667.39" y2="155.34"/><line class="cls-2" x1="667.14" y1="158.07" x2="667.39" y2="158.32"/><line class="cls-2" x1="667.14" y1="161.06" x2="667.39" y2="161.31"/><line class="cls-2" x1="667.14" y1="164" x2="667.39" y2="164.3"/><line class="cls-2" x1="667.14" y1="166.99" x2="667.39" y2="167.24"/><line class="cls-2" x1="667.14" y1="169.97" x2="667.39" y2="170.22"/><polyline class="cls-4" points="666.88 114.09 666.88 170.86 665.03 171.65 665.03 114.09"/><line class="cls-2" x1="667.22" y1="170.6" x2="667.47" y2="170.35"/><polyline class="cls-4" points="665.03 171.65 666.88 170.85 666.88 172.71"/><polyline class="cls-4" points="666.88 172.71 666.88 189.61 665.03 189.61 665.03 171.65"/><line class="cls-5" x1="591.2" y1="114.09" x2="591.2" y2="170.86"/><line class="cls-5" x1="591.2" y1="170.86" x2="593.05" y2="170.86"/><line class="cls-5" x1="593.05" y1="114.09" x2="591.2" y2="114.09"/><line class="cls-5" x1="593.05" y1="170.86" x2="593.05" y2="115.94"/><line class="cls-5" x1="598.3" y1="114.09" x2="593.05" y2="114.09"/><line class="cls-5" x1="665.03" y1="114.09" x2="659.78" y2="114.09"/><line class="cls-5" x1="598.3" y1="114.09" x2="598.3" y2="115.94"/><line class="cls-5" x1="659.78" y1="114.09" x2="659.78" y2="115.94"/><line class="cls-5" x1="593.05" y1="115.94" x2="598.3" y2="115.94"/><line class="cls-5" x1="659.78" y1="115.94" x2="665.03" y2="115.94"/><line class="cls-6" x1="617.22" y1="113.46" x2="617.22" y2="116.32"/><line class="cls-6" x1="617.22" y1="113.59" x2="616.8" y2="113.59"/><line class="cls-6" x1="617.22" y1="116.19" x2="616.8" y2="116.19"/><line class="cls-6" x1="617.22" y1="113.59" x2="617.22" y2="116.19"/><line class="cls-6" x1="616.8" y1="113.59" x2="616.8" y2="116.19"/><line class="cls-6" x1="598.68" y1="113.59" x2="598.3" y2="113.59"/><line class="cls-6" x1="598.68" y1="116.19" x2="598.3" y2="116.19"/><line class="cls-6" x1="598.68" y1="113.59" x2="598.68" y2="116.19"/><line class="cls-6" x1="598.3" y1="113.59" x2="598.3" y2="116.19"/><line class="cls-6" x1="616.8" y1="114.22" x2="598.68" y2="114.22"/><line class="cls-6" x1="616.8" y1="114.64" x2="598.68" y2="114.64"/><polyline class="cls-6" points="596.45 113.58 596.45 112.66 618.4 112.66"/><line class="cls-6" x1="598.3" y1="113.59" x2="598.3" y2="113.21"/><line class="cls-6" x1="596.45" y1="113.21" x2="598.3" y2="113.21"/><line class="cls-6" x1="596.45" y1="113.59" x2="596.45" y2="113.21"/><line class="cls-6" x1="596.66" y1="117.03" x2="618.4" y2="117.03"/><line class="cls-6" x1="596.66" y1="116.19" x2="596.66" y2="117.03"/><line class="cls-6" x1="598.64" y1="116.19" x2="598.64" y2="116.53"/><line class="cls-6" x1="596.92" y1="116.53" x2="598.64" y2="116.53"/><line class="cls-6" x1="596.92" y1="116.19" x2="596.92" y2="116.53"/><line class="cls-6" x1="596.92" y1="116.19" x2="598.64" y2="116.19"/><line class="cls-6" x1="619.58" y1="113.46" x2="619.58" y2="116.32"/><line class="cls-6" x1="638.5" y1="113.46" x2="638.5" y2="116.32"/><line class="cls-6" x1="619.58" y1="113.46" x2="617.22" y2="113.46"/><line class="cls-6" x1="619.58" y1="116.32" x2="617.22" y2="116.32"/><line class="cls-6" x1="638.5" y1="113.59" x2="638.12" y2="113.59"/><line class="cls-6" x1="638.5" y1="116.19" x2="638.12" y2="116.19"/><line class="cls-6" x1="638.5" y1="113.59" x2="638.5" y2="116.19"/><line class="cls-6" x1="638.12" y1="113.59" x2="638.12" y2="116.19"/><line class="cls-6" x1="619.96" y1="113.59" x2="619.58" y2="113.59"/><line class="cls-6" x1="619.96" y1="116.19" x2="619.58" y2="116.19"/><line class="cls-6" x1="619.96" y1="113.59" x2="619.96" y2="116.19"/><line class="cls-6" x1="619.58" y1="113.59" x2="619.58" y2="116.19"/><line class="cls-6" x1="638.12" y1="114.22" x2="619.96" y2="114.22"/><line class="cls-6" x1="638.12" y1="114.64" x2="619.96" y2="114.64"/><line class="cls-6" x1="618.4" y1="112.66" x2="639.68" y2="112.66"/><line class="cls-6" x1="618.4" y1="117.03" x2="639.68" y2="117.03"/><line class="cls-6" x1="640.86" y1="113.46" x2="640.86" y2="116.32"/><line class="cls-6" x1="640.86" y1="113.46" x2="638.5" y2="113.46"/><line class="cls-6" x1="640.86" y1="116.32" x2="638.5" y2="116.32"/><line class="cls-6" x1="659.78" y1="113.59" x2="659.4" y2="113.59"/><line class="cls-6" x1="659.78" y1="116.19" x2="659.4" y2="116.19"/><line class="cls-6" x1="659.78" y1="113.59" x2="659.78" y2="116.19"/><line class="cls-6" x1="659.4" y1="113.59" x2="659.4" y2="116.19"/><line class="cls-6" x1="641.28" y1="113.59" x2="640.86" y2="113.59"/><line class="cls-6" x1="641.28" y1="116.19" x2="640.86" y2="116.19"/><line class="cls-6" x1="641.28" y1="113.59" x2="641.28" y2="116.19"/><line class="cls-6" x1="640.86" y1="113.59" x2="640.86" y2="116.19"/><line class="cls-6" x1="659.4" y1="114.22" x2="641.28" y2="114.22"/><line class="cls-6" x1="659.4" y1="114.64" x2="641.28" y2="114.64"/><line class="cls-6" x1="639.68" y1="112.66" x2="661.63" y2="112.66"/><line class="cls-6" x1="661.63" y1="113.59" x2="661.63" y2="112.66"/><polyline class="cls-6" points="659.78 113.58 659.78 113.21 661.63 113.21"/><line class="cls-6" x1="661.63" y1="113.59" x2="661.63" y2="113.21"/><line class="cls-6" x1="661.42" y1="116.19" x2="661.42" y2="117.03"/><line class="cls-6" x1="639.68" y1="117.03" x2="661.42" y2="117.03"/><line class="cls-6" x1="659.44" y1="116.19" x2="659.44" y2="116.53"/><line class="cls-6" x1="659.44" y1="116.53" x2="661.17" y2="116.53"/><line class="cls-6" x1="661.17" y1="116.19" x2="661.17" y2="116.53"/><line class="cls-6" x1="659.44" y1="116.19" x2="661.17" y2="116.19"/><line class="cls-5" x1="666.88" y1="170.86" x2="666.88" y2="114.09"/><line class="cls-5" x1="666.88" y1="114.09" x2="665.03" y2="114.09"/><line class="cls-5" x1="665.03" y1="171.65" x2="666.88" y2="170.86"/><line class="cls-5" x1="665.03" y1="115.94" x2="665.03" y2="171.65"/><line class="cls-5" x1="666.88" y1="170.86" x2="666.88" y2="172.71"/><polyline class="cls-5" points="666.88 189.61 666.88 172.71 665.03 171.65"/><line class="cls-5" x1="665.03" y1="189.61" x2="666.88" y2="189.61"/><line class="cls-5" x1="665.03" y1="171.65" x2="665.03" y2="189.61"/><rect class="cls-1" x="565.99" y="170.38" width="27.59" height="0.25"/><line class="cls-2" x1="582.94" y1="174.99" x2="583.24" y2="174.74"/><rect class="cls-3" x="565.99" y="170.84" width="27.59" height="1.85"/><line class="cls-5" x1="593.38" y1="170.84" x2="565.99" y2="170.84"/><line class="cls-5" x1="566.5" y1="172.69" x2="593.17" y2="172.69"/></g></g></g></svg>