<svg id="图层_1" data-name="图层 1" xmlns="http://www.w3.org/2000/svg" viewBox="0 0 1152 576"><defs><style>.cls-1{fill:#fff;}.cls-2,.cls-3,.cls-4{fill:none;stroke:#0f5d89;stroke-linejoin:bevel;}.cls-2,.cls-3{stroke-linecap:round;}.cls-2{stroke-width:0.93px;}.cls-3{stroke-width:0.46px;}.cls-4{stroke-width:0;}.cls-5{font-size:6.5px;fill:#0b6190;font-family:CenturyGothic, Century Gothic;}</style></defs><title>OPT . SITTING ROOM WINDOW-2</title><g id="OPT_.2_EXTENSION_ON_BACK-OPT" data-name="OPT .2 EXTENSION ON BACK-OPT"><g id="_OPT_._SITTING_ROOM-2" data-name=" OPT . SITTING ROOM-2"><g id="_OPT_._SITTING_ROOM_WINDOW-2" data-name=" OPT . SITTING ROOM WINDOW-2"><rect class="cls-1" x="573.2" y="141.16" width="37.84" height="4.69" transform="translate(448.62 735.63) rotate(-90)"/><line class="cls-2" x1="591.34" y1="162.43" x2="593.19" y2="162.43"/><line class="cls-2" x1="591.34" y1="124.58" x2="593.19" y2="124.58"/><line class="cls-3" x1="590.71" y1="143.5" x2="593.61" y2="143.5"/><line class="cls-3" x1="590.88" y1="143.5" x2="590.88" y2="143.92"/><line class="cls-3" x1="593.45" y1="143.5" x2="593.45" y2="143.92"/><line class="cls-3" x1="590.88" y1="143.5" x2="593.45" y2="143.5"/><line class="cls-3" x1="590.88" y1="143.92" x2="593.45" y2="143.92"/><line class="cls-3" x1="590.88" y1="162.05" x2="590.88" y2="162.43"/><line class="cls-3" x1="593.45" y1="162.05" x2="593.45" y2="162.43"/><line class="cls-3" x1="590.88" y1="162.05" x2="593.45" y2="162.05"/><line class="cls-3" x1="590.88" y1="162.43" x2="593.45" y2="162.43"/><line class="cls-3" x1="591.51" y1="143.92" x2="591.51" y2="162.05"/><line class="cls-3" x1="591.93" y1="143.92" x2="591.93" y2="162.05"/><line class="cls-3" x1="590.71" y1="143.5" x2="593.61" y2="143.5"/><line class="cls-3" x1="590.71" y1="143.5" x2="590.71" y2="143.5"/><line class="cls-3" x1="593.61" y1="143.5" x2="593.61" y2="143.5"/><line class="cls-3" x1="590.88" y1="124.58" x2="590.88" y2="125"/><line class="cls-3" x1="593.45" y1="124.58" x2="593.45" y2="125"/><line class="cls-3" x1="590.88" y1="124.58" x2="593.45" y2="124.58"/><line class="cls-3" x1="590.88" y1="125" x2="593.45" y2="125"/><line class="cls-3" x1="590.88" y1="143.12" x2="590.88" y2="143.5"/><line class="cls-3" x1="593.45" y1="143.12" x2="593.45" y2="143.5"/><line class="cls-3" x1="590.88" y1="143.12" x2="593.45" y2="143.12"/><line class="cls-3" x1="590.88" y1="143.5" x2="593.45" y2="143.5"/><line class="cls-3" x1="591.51" y1="125" x2="591.51" y2="143.12"/><line class="cls-3" x1="591.93" y1="125" x2="591.93" y2="143.12"/><polyline class="cls-3" points="590.88 164.28 589.96 164.28 589.96 122.77"/><line class="cls-3" x1="590.88" y1="122.77" x2="589.96" y2="122.77"/><polyline class="cls-3" points="590.88 124.58 590.46 124.58 590.46 122.77"/><line class="cls-3" x1="590.88" y1="122.77" x2="590.46" y2="122.77"/><line class="cls-3" x1="590.88" y1="162.43" x2="590.46" y2="162.43"/><line class="cls-3" x1="590.46" y1="164.28" x2="590.46" y2="162.43"/><line class="cls-3" x1="590.88" y1="164.28" x2="590.46" y2="164.28"/><line class="cls-3" x1="593.45" y1="122.94" x2="594.33" y2="122.94"/><line class="cls-3" x1="594.33" y1="164.06" x2="594.33" y2="122.94"/><line class="cls-3" x1="593.45" y1="164.06" x2="594.33" y2="164.06"/><line class="cls-3" x1="593.45" y1="162.09" x2="593.78" y2="162.09"/><line class="cls-3" x1="593.78" y1="163.81" x2="593.78" y2="162.09"/><line class="cls-3" x1="593.45" y1="163.81" x2="593.78" y2="163.81"/><line class="cls-3" x1="593.45" y1="163.81" x2="593.45" y2="162.09"/><polyline class="cls-3" points="593.45 124.92 593.78 124.92 593.78 123.19"/><line class="cls-3" x1="593.45" y1="123.19" x2="593.78" y2="123.19"/><line class="cls-3" x1="593.45" y1="124.92" x2="593.45" y2="123.19"/><rect class="cls-1" x="647.04" y="141.16" width="37.84" height="4.69" transform="translate(522.46 809.46) rotate(-90)"/><line class="cls-4" x1="667.2" y1="162.43" x2="664.64" y2="162.43"/><line class="cls-4" x1="667.2" y1="124.58" x2="664.64" y2="124.58"/><line class="cls-2" x1="666.74" y1="162.43" x2="664.89" y2="162.43"/><line class="cls-2" x1="666.74" y1="124.58" x2="664.89" y2="124.58"/><line class="cls-3" x1="667.37" y1="143.5" x2="664.47" y2="143.5"/><line class="cls-3" x1="667.2" y1="143.5" x2="667.2" y2="143.92"/><line class="cls-3" x1="664.64" y1="143.5" x2="664.64" y2="143.92"/><line class="cls-3" x1="667.2" y1="143.5" x2="664.64" y2="143.5"/><line class="cls-3" x1="667.2" y1="143.92" x2="664.64" y2="143.92"/><line class="cls-3" x1="667.2" y1="162.05" x2="667.2" y2="162.43"/><line class="cls-3" x1="664.64" y1="162.05" x2="664.64" y2="162.43"/><line class="cls-3" x1="667.2" y1="162.05" x2="664.64" y2="162.05"/><line class="cls-3" x1="667.2" y1="162.43" x2="664.64" y2="162.43"/><line class="cls-3" x1="666.57" y1="143.92" x2="666.57" y2="162.05"/><line class="cls-3" x1="666.15" y1="143.92" x2="666.15" y2="162.05"/><line class="cls-3" x1="667.37" y1="143.5" x2="664.47" y2="143.5"/><line class="cls-3" x1="667.37" y1="143.5" x2="667.37" y2="143.5"/><line class="cls-3" x1="664.47" y1="143.5" x2="664.47" y2="143.5"/><line class="cls-3" x1="667.2" y1="124.58" x2="667.2" y2="125"/><line class="cls-3" x1="664.64" y1="124.58" x2="664.64" y2="125"/><line class="cls-3" x1="667.2" y1="124.58" x2="664.64" y2="124.58"/><line class="cls-3" x1="667.2" y1="125" x2="664.64" y2="125"/><line class="cls-3" x1="667.2" y1="143.12" x2="667.2" y2="143.5"/><line class="cls-3" x1="664.64" y1="143.12" x2="664.64" y2="143.5"/><line class="cls-3" x1="667.2" y1="143.12" x2="664.64" y2="143.12"/><line class="cls-3" x1="667.2" y1="143.5" x2="664.64" y2="143.5"/><line class="cls-3" x1="666.57" y1="125" x2="666.57" y2="143.12"/><line class="cls-3" x1="666.15" y1="125" x2="666.15" y2="143.12"/><polyline class="cls-3" points="667.2 164.28 668.13 164.28 668.13 122.77"/><line class="cls-3" x1="667.2" y1="122.77" x2="668.13" y2="122.77"/><polyline class="cls-3" points="667.2 124.58 667.62 124.58 667.62 122.77"/><line class="cls-3" x1="667.2" y1="122.77" x2="667.62" y2="122.77"/><line class="cls-3" x1="667.2" y1="162.43" x2="667.62" y2="162.43"/><line class="cls-3" x1="667.62" y1="164.28" x2="667.62" y2="162.43"/><line class="cls-3" x1="667.2" y1="164.28" x2="667.62" y2="164.28"/><line class="cls-3" x1="664.64" y1="122.94" x2="663.75" y2="122.94"/><line class="cls-3" x1="663.75" y1="164.06" x2="663.75" y2="122.94"/><line class="cls-3" x1="664.64" y1="164.06" x2="663.75" y2="164.06"/><line class="cls-3" x1="664.64" y1="162.09" x2="664.3" y2="162.09"/><line class="cls-3" x1="664.3" y1="163.81" x2="664.3" y2="162.09"/><line class="cls-3" x1="664.64" y1="163.81" x2="664.3" y2="163.81"/><line class="cls-3" x1="664.64" y1="163.81" x2="664.64" y2="162.09"/><polyline class="cls-3" points="664.63 124.92 664.3 124.92 664.3 123.19"/><line class="cls-3" x1="664.64" y1="123.19" x2="664.3" y2="123.19"/><line class="cls-3" x1="664.64" y1="124.92" x2="664.64" y2="123.19"/><text class="cls-5" transform="translate(587.87 165.06) rotate(-90)"><tspan xml:space="preserve"> OPT. WINDOW</tspan></text><text class="cls-5" transform="translate(674.03 165.06) rotate(-90)"><tspan xml:space="preserve"> OPT. WINDOW</tspan></text></g></g></g></svg>