<svg id="图层_1" data-name="图层 1" xmlns="http://www.w3.org/2000/svg" viewBox="0 0 1152 576"><defs><style>.cls-1{fill:#fff;}.cls-2,.cls-3,.cls-4{fill:none;stroke:#0f5d89;stroke-linejoin:bevel;}.cls-2,.cls-3{stroke-linecap:round;}.cls-2{stroke-width:0.93px;}.cls-3{stroke-width:0.46px;}.cls-4{stroke-width:0;}.cls-5{font-size:6.5px;fill:#0b6190;font-family:CenturyGothic, Century Gothic;}</style></defs><title>OPT . SITTING ROOM WINDOW</title><g id="_OPT_._SITTING_ROOM" data-name=" OPT . SITTING ROOM"><g id="_OPT_._SITTING_ROOM_WINDOW" data-name=" OPT . SITTING ROOM WINDOW"><rect class="cls-1" x="573.2" y="153.37" width="37.84" height="4.69" transform="translate(436.41 747.84) rotate(-90)"/><line class="cls-2" x1="591.34" y1="174.64" x2="593.19" y2="174.64"/><line class="cls-2" x1="591.34" y1="136.79" x2="593.19" y2="136.79"/><line class="cls-3" x1="590.71" y1="155.71" x2="593.61" y2="155.71"/><line class="cls-3" x1="590.88" y1="155.71" x2="590.88" y2="156.13"/><line class="cls-3" x1="593.45" y1="155.71" x2="593.45" y2="156.13"/><line class="cls-3" x1="590.88" y1="155.71" x2="593.45" y2="155.71"/><line class="cls-3" x1="590.88" y1="156.13" x2="593.45" y2="156.13"/><line class="cls-3" x1="590.88" y1="174.26" x2="590.88" y2="174.64"/><line class="cls-3" x1="593.45" y1="174.26" x2="593.45" y2="174.64"/><line class="cls-3" x1="590.88" y1="174.26" x2="593.45" y2="174.26"/><line class="cls-3" x1="590.88" y1="174.64" x2="593.45" y2="174.64"/><line class="cls-3" x1="591.51" y1="156.13" x2="591.51" y2="174.26"/><line class="cls-3" x1="591.93" y1="156.13" x2="591.93" y2="174.26"/><line class="cls-3" x1="590.71" y1="155.71" x2="593.61" y2="155.71"/><line class="cls-3" x1="590.71" y1="155.71" x2="590.71" y2="155.71"/><line class="cls-3" x1="593.61" y1="155.71" x2="593.61" y2="155.71"/><line class="cls-3" x1="590.88" y1="136.79" x2="590.88" y2="137.21"/><line class="cls-3" x1="593.45" y1="136.79" x2="593.45" y2="137.21"/><line class="cls-3" x1="590.88" y1="136.79" x2="593.45" y2="136.79"/><line class="cls-3" x1="590.88" y1="137.21" x2="593.45" y2="137.21"/><line class="cls-3" x1="590.88" y1="155.33" x2="590.88" y2="155.71"/><line class="cls-3" x1="593.45" y1="155.33" x2="593.45" y2="155.71"/><line class="cls-3" x1="590.88" y1="155.33" x2="593.45" y2="155.33"/><line class="cls-3" x1="590.88" y1="155.71" x2="593.45" y2="155.71"/><line class="cls-3" x1="591.51" y1="137.21" x2="591.51" y2="155.33"/><line class="cls-3" x1="591.93" y1="137.21" x2="591.93" y2="155.33"/><polyline class="cls-3" points="590.88 176.49 589.96 176.49 589.96 134.98"/><line class="cls-3" x1="590.88" y1="134.98" x2="589.96" y2="134.98"/><polyline class="cls-3" points="590.88 136.79 590.46 136.79 590.46 134.98"/><line class="cls-3" x1="590.88" y1="134.98" x2="590.46" y2="134.98"/><line class="cls-3" x1="590.88" y1="174.64" x2="590.46" y2="174.64"/><line class="cls-3" x1="590.46" y1="176.49" x2="590.46" y2="174.64"/><line class="cls-3" x1="590.88" y1="176.49" x2="590.46" y2="176.49"/><line class="cls-3" x1="593.45" y1="135.15" x2="594.33" y2="135.15"/><line class="cls-3" x1="594.33" y1="176.27" x2="594.33" y2="135.15"/><line class="cls-3" x1="593.45" y1="176.27" x2="594.33" y2="176.27"/><line class="cls-3" x1="593.45" y1="174.3" x2="593.78" y2="174.3"/><line class="cls-3" x1="593.78" y1="176.02" x2="593.78" y2="174.3"/><line class="cls-3" x1="593.45" y1="176.02" x2="593.78" y2="176.02"/><line class="cls-3" x1="593.45" y1="176.02" x2="593.45" y2="174.3"/><polyline class="cls-3" points="593.45 137.13 593.78 137.13 593.78 135.41"/><line class="cls-3" x1="593.45" y1="135.4" x2="593.78" y2="135.4"/><line class="cls-3" x1="593.45" y1="137.13" x2="593.45" y2="135.4"/><rect class="cls-1" x="647.04" y="153.37" width="37.84" height="4.69" transform="translate(510.25 821.67) rotate(-90)"/><line class="cls-4" x1="667.2" y1="174.64" x2="664.64" y2="174.64"/><line class="cls-4" x1="667.2" y1="136.79" x2="664.64" y2="136.79"/><line class="cls-2" x1="666.74" y1="174.64" x2="664.89" y2="174.64"/><line class="cls-2" x1="666.74" y1="136.79" x2="664.89" y2="136.79"/><line class="cls-3" x1="667.37" y1="155.71" x2="664.47" y2="155.71"/><line class="cls-3" x1="667.2" y1="155.71" x2="667.2" y2="156.13"/><line class="cls-3" x1="664.64" y1="155.71" x2="664.64" y2="156.13"/><line class="cls-3" x1="667.2" y1="155.71" x2="664.64" y2="155.71"/><line class="cls-3" x1="667.2" y1="156.13" x2="664.64" y2="156.13"/><line class="cls-3" x1="667.2" y1="174.26" x2="667.2" y2="174.64"/><line class="cls-3" x1="664.64" y1="174.26" x2="664.64" y2="174.64"/><line class="cls-3" x1="667.2" y1="174.26" x2="664.64" y2="174.26"/><line class="cls-3" x1="667.2" y1="174.64" x2="664.64" y2="174.64"/><line class="cls-3" x1="666.57" y1="156.13" x2="666.57" y2="174.26"/><line class="cls-3" x1="666.15" y1="156.13" x2="666.15" y2="174.26"/><line class="cls-3" x1="667.37" y1="155.71" x2="664.47" y2="155.71"/><line class="cls-3" x1="667.37" y1="155.71" x2="667.37" y2="155.71"/><line class="cls-3" x1="664.47" y1="155.71" x2="664.47" y2="155.71"/><line class="cls-3" x1="667.2" y1="136.79" x2="667.2" y2="137.21"/><line class="cls-3" x1="664.64" y1="136.79" x2="664.64" y2="137.21"/><line class="cls-3" x1="667.2" y1="136.79" x2="664.64" y2="136.79"/><line class="cls-3" x1="667.2" y1="137.21" x2="664.64" y2="137.21"/><line class="cls-3" x1="667.2" y1="155.33" x2="667.2" y2="155.71"/><line class="cls-3" x1="664.64" y1="155.33" x2="664.64" y2="155.71"/><line class="cls-3" x1="667.2" y1="155.33" x2="664.64" y2="155.33"/><line class="cls-3" x1="667.2" y1="155.71" x2="664.64" y2="155.71"/><line class="cls-3" x1="666.57" y1="137.21" x2="666.57" y2="155.33"/><line class="cls-3" x1="666.15" y1="137.21" x2="666.15" y2="155.33"/><polyline class="cls-3" points="667.2 176.49 668.13 176.49 668.13 134.98"/><line class="cls-3" x1="667.2" y1="134.98" x2="668.13" y2="134.98"/><polyline class="cls-3" points="667.2 136.79 667.62 136.79 667.62 134.98"/><line class="cls-3" x1="667.2" y1="134.98" x2="667.62" y2="134.98"/><line class="cls-3" x1="667.2" y1="174.64" x2="667.62" y2="174.64"/><line class="cls-3" x1="667.62" y1="176.49" x2="667.62" y2="174.64"/><line class="cls-3" x1="667.2" y1="176.49" x2="667.62" y2="176.49"/><line class="cls-3" x1="664.64" y1="135.15" x2="663.75" y2="135.15"/><line class="cls-3" x1="663.75" y1="176.27" x2="663.75" y2="135.15"/><line class="cls-3" x1="664.64" y1="176.27" x2="663.75" y2="176.27"/><line class="cls-3" x1="664.64" y1="174.3" x2="664.3" y2="174.3"/><line class="cls-3" x1="664.3" y1="176.02" x2="664.3" y2="174.3"/><line class="cls-3" x1="664.64" y1="176.02" x2="664.3" y2="176.02"/><line class="cls-3" x1="664.64" y1="176.02" x2="664.64" y2="174.3"/><polyline class="cls-3" points="664.63 137.13 664.3 137.13 664.3 135.41"/><line class="cls-3" x1="664.64" y1="135.4" x2="664.3" y2="135.4"/><line class="cls-3" x1="664.64" y1="137.13" x2="664.64" y2="135.4"/><text class="cls-5" transform="translate(587.87 180.21) rotate(-90)"><tspan xml:space="preserve"> OPT. WINDOW</tspan></text><text class="cls-5" transform="translate(674.03 180.21) rotate(-90)"><tspan xml:space="preserve"> OPT. WINDOW</tspan></text></g></g></svg>