<svg id="图层_1" data-name="图层 1" xmlns="http://www.w3.org/2000/svg" viewBox="0 0 1152 576"><defs><style>.cls-1,.cls-4{fill:#0f577e;}.cls-2,.cls-3{fill:none;stroke:#0f577e;stroke-linecap:round;stroke-linejoin:bevel;}.cls-2{stroke-width:0.93px;}.cls-3{stroke-width:0.46px;}.cls-4{font-size:6.5px;font-family:CenturyGothic, Century Gothic;}.cls-5{letter-spacing:0em;}.cls-6{letter-spacing:0.01em;}.cls-7{letter-spacing:0em;}.cls-8{letter-spacing:0.01em;}.cls-9{letter-spacing:-0.01em;}.cls-10{letter-spacing:0.01em;}.cls-11{letter-spacing:-0.01em;}.cls-12{letter-spacing:0.01em;}.cls-13{letter-spacing:0.01em;}</style></defs><title>OPT. FINISHED STORAGE</title><g id="OPT._FINISHED_STORAGE" data-name="OPT. FINISHED STORAGE"><rect class="cls-1" x="538.54" y="339.17" width="1.86" height="6.91"/><rect class="cls-1" x="538.54" y="364.9" width="1.86" height="10.72"/><rect class="cls-1" x="543.03" y="375.62" width="1.87" height="71.25"/><line class="cls-2" x1="540.4" y1="346.08" x2="540.4" y2="344.08"/><line class="cls-2" x1="540.4" y1="375.62" x2="540.4" y2="364.9"/><line class="cls-2" x1="540.4" y1="346.08" x2="538.54" y2="346.08"/><line class="cls-2" x1="540.4" y1="364.9" x2="538.54" y2="364.9"/><line class="cls-2" x1="538.54" y1="339.17" x2="538.54" y2="346.08"/><line class="cls-2" x1="538.54" y1="364.9" x2="538.54" y2="375.62"/><line class="cls-3" x1="540.66" y1="364.9" x2="540.66" y2="364.47"/><line class="cls-3" x1="538.28" y1="364.9" x2="538.28" y2="364.47"/><line class="cls-3" x1="540.66" y1="364.9" x2="538.28" y2="364.9"/><line class="cls-3" x1="540.66" y1="364.47" x2="538.28" y2="364.47"/><line class="cls-3" x1="540.66" y1="346.46" x2="540.66" y2="346.08"/><line class="cls-3" x1="538.28" y1="346.46" x2="538.28" y2="346.08"/><line class="cls-3" x1="540.66" y1="346.46" x2="538.28" y2="346.46"/><line class="cls-3" x1="540.66" y1="346.08" x2="538.28" y2="346.08"/><line class="cls-3" x1="540.66" y1="346.46" x2="558.67" y2="346.46"/><line class="cls-3" x1="540.66" y1="347.18" x2="558.67" y2="347.18"/><line class="cls-3" x1="558.67" y1="346.46" x2="558.67" y2="347.18"/><line class="cls-3" x1="540.66" y1="347.18" x2="540.66" y2="346.46"/><polyline class="cls-3" points="540.66 364.47 541.84 364.43 543.07 364.3 544.3 364.09 545.53 363.79"/><line class="cls-3" x1="545.53" y1="363.79" x2="546.76" y2="363.41"/><line class="cls-3" x1="546.76" y1="363.41" x2="547.95" y2="362.95"/><line class="cls-3" x1="547.95" y1="362.95" x2="549.09" y2="362.4"/><line class="cls-3" x1="549.09" y1="362.39" x2="550.19" y2="361.76"/><line class="cls-3" x1="550.19" y1="361.76" x2="551.25" y2="361.04"/><polyline class="cls-3" points="551.25 361.04 552.23 360.28 553.2 359.43 554.05 358.5 554.9 357.52 555.62 356.5 556.3 355.4 556.89 354.3 557.4 353.11 557.82 351.93"/><line class="cls-3" x1="557.82" y1="351.93" x2="558.16" y2="350.7"/><polyline class="cls-3" points="558.16 350.7 558.42 349.47 558.59 348.2 558.67 346.93 558.67 346.46"/><line class="cls-3" x1="540.66" y1="364.6" x2="541" y2="364.6"/><line class="cls-3" x1="541" y1="364.6" x2="541" y2="366.34"/><line class="cls-3" x1="540.66" y1="366.34" x2="541" y2="366.34"/><line class="cls-3" x1="540.66" y1="346.33" x2="541" y2="346.33"/><line class="cls-3" x1="541" y1="344.59" x2="541" y2="346.33"/><line class="cls-3" x1="538.28" y1="346.33" x2="537.94" y2="346.33"/><line class="cls-3" x1="537.94" y1="344.59" x2="537.94" y2="346.33"/><polyline class="cls-3" points="538.28 364.6 537.94 364.6 537.94 366.34"/><line class="cls-3" x1="538.28" y1="366.34" x2="537.94" y2="366.34"/><rect class="cls-1" x="538.07" y="375.58" width="4.96" height="1.87"/><line class="cls-2" x1="543.03" y1="375.58" x2="538.44" y2="375.58"/><line class="cls-2" x1="538.44" y1="377.44" x2="543.03" y2="377.44"/><polyline class="cls-2" points="544.9 446.87 544.9 375.62 543.03 375.62"/><line class="cls-2" x1="543.03" y1="377.44" x2="543.03" y2="411.76"/><line class="cls-2" x1="543.03" y1="411.09" x2="543.03" y2="440.51"/><text class="cls-4" transform="translate(547.5 385.45)"><tspan class="cls-5">OP</tspan><tspan x="9.47" y="0">T. </tspan><tspan class="cls-6" x="15.84" y="0">F</tspan><tspan class="cls-7" x="19.06" y="0">INIS</tspan><tspan class="cls-8" x="30.04" y="0">H</tspan><tspan x="34.56" y="0">E</tspan><tspan class="cls-9" x="38.04" y="0">D</tspan><tspan class="cls-10" x="42.83" y="0"> </tspan><tspan x="44.68" y="0">S</tspan><tspan class="cls-11" x="47.92" y="0">T</tspan><tspan class="cls-12" x="50.65" y="0">OR</tspan><tspan x="60.32" y="0">A</tspan><tspan class="cls-13" x="65.13" y="0">G</tspan><tspan x="70.84" y="0">E</tspan></text><text class="cls-4" transform="translate(558.79 392.63)">11′-11″ X 16′-2″</text><rect class="cls-1" x="540.4" y="341.16" width="80.79" height="2.92"/><line class="cls-2" x1="621.19" y1="341.16" x2="540.4" y2="341.16"/><line class="cls-2" x1="540.4" y1="344.08" x2="621.19" y2="344.08"/></g></svg>