<svg id="图层_1" data-name="图层 1" xmlns="http://www.w3.org/2000/svg" viewBox="0 0 1152 576"><defs><style>.cls-1{fill:#fff;}.cls-2,.cls-3,.cls-4,.cls-6,.cls-7,.cls-8{fill:none;stroke-linejoin:bevel;}.cls-2,.cls-3,.cls-4,.cls-6{stroke:#0f5a83;}.cls-2,.cls-3,.cls-6,.cls-7,.cls-8{stroke-linecap:round;}.cls-2,.cls-8{stroke-width:0.46px;}.cls-3{stroke-width:0.69px;}.cls-4{stroke-width:0;}.cls-5{fill:#0f5a83;}.cls-6,.cls-7{stroke-width:0.93px;}.cls-7,.cls-8{stroke:#0f577e;}</style></defs><title>OPT SUNROOM</title><g id="_OPT_SUNROOM" data-name=" OPT SUNROOM"><g id="_OPT_SUNROOM-2" data-name=" OPT SUNROOM"><rect class="cls-1" x="605.34" y="157.57" width="62.36" height="33.59"/><rect class="cls-1" x="600.92" y="149.47" width="71.67" height="33.59"/><line class="cls-2" x1="679.44" y1="187.54" x2="679.94" y2="187.54"/><line class="cls-2" x1="670.04" y1="187.54" x2="670.54" y2="187.54"/><line class="cls-2" x1="671.08" y1="187.54" x2="671.59" y2="187.54"/><line class="cls-2" x1="672.13" y1="187.54" x2="672.63" y2="187.54"/><line class="cls-2" x1="673.17" y1="187.54" x2="673.68" y2="187.54"/><line class="cls-2" x1="674.22" y1="187.54" x2="674.72" y2="187.54"/><line class="cls-2" x1="675.26" y1="187.54" x2="675.77" y2="187.54"/><line class="cls-2" x1="676.31" y1="187.54" x2="676.81" y2="187.54"/><line class="cls-2" x1="677.35" y1="187.54" x2="677.85" y2="187.54"/><line class="cls-2" x1="678.4" y1="187.54" x2="678.9" y2="187.54"/><line class="cls-3" x1="668.99" y1="186.92" x2="682.04" y2="186.92"/><polygon class="cls-1" points="601.22 183.78 601.47 183.78 601.47 127.1 601.22 126.85 601.22 183.78"/><line class="cls-4" x1="603.94" y1="136.47" x2="604.15" y2="136.72"/><line class="cls-4" x1="603.94" y1="139.43" x2="604.15" y2="139.68"/><line class="cls-4" x1="601.47" y1="142.36" x2="601.72" y2="142.65"/><line class="cls-4" x1="601.22" y1="145.33" x2="601.47" y2="145.58"/><line class="cls-4" x1="601.47" y1="148.29" x2="601.72" y2="148.55"/><line class="cls-4" x1="601.47" y1="151.26" x2="601.72" y2="151.51"/><line class="cls-4" x1="601.47" y1="154.19" x2="601.72" y2="154.44"/><rect class="cls-5" x="601.72" y="127.35" width="1.8" height="56.43"/><polygon class="cls-1" points="670 127.1 670 183.53 670.25 183.28 670.25 126.85 670 127.1"/><line class="cls-4" x1="670" y1="138.56" x2="670.25" y2="138.81"/><line class="cls-4" x1="670" y1="141.48" x2="670.25" y2="141.77"/><line class="cls-4" x1="670" y1="144.45" x2="670.25" y2="144.7"/><line class="cls-4" x1="670" y1="147.42" x2="670.25" y2="147.67"/><line class="cls-4" x1="670" y1="150.34" x2="670.25" y2="150.63"/><line class="cls-4" x1="670" y1="153.31" x2="670.25" y2="153.56"/><line class="cls-4" x1="670" y1="156.28" x2="670.25" y2="156.53"/><line class="cls-4" x1="670" y1="159.25" x2="670.25" y2="159.5"/><line class="cls-4" x1="670" y1="162.17" x2="670.25" y2="162.46"/><line class="cls-4" x1="670" y1="165.14" x2="670.25" y2="165.39"/><line class="cls-4" x1="670" y1="168.11" x2="670.25" y2="168.36"/><line class="cls-4" x1="670" y1="171.03" x2="670.25" y2="171.33"/><line class="cls-4" x1="670" y1="174" x2="670.25" y2="174.25"/><line class="cls-4" x1="670" y1="176.97" x2="670.25" y2="177.22"/><line class="cls-4" x1="670" y1="179.94" x2="670.25" y2="180.19"/><line class="cls-4" x1="670" y1="182.86" x2="670.25" y2="183.15"/><rect class="cls-5" x="667.95" y="127.35" width="1.84" height="56.43"/><polygon class="cls-1" points="670.25 183.28 670 183.53 682.03 183.53 682.03 183.28 670.25 183.28"/><line class="cls-4" x1="670.08" y1="183.53" x2="670.37" y2="183.28"/><line class="cls-4" x1="673.05" y1="183.53" x2="673.3" y2="183.28"/><line class="cls-4" x1="676.02" y1="183.53" x2="676.27" y2="183.28"/><line class="cls-4" x1="678.94" y1="183.53" x2="679.23" y2="183.28"/><rect class="cls-5" x="667.95" y="183.78" width="14.09" height="2.84"/><polyline class="cls-4" points="601.22 126.85 601.22 183.78 603.81 183.78"/><line class="cls-6" x1="601.72" y1="127.35" x2="601.72" y2="183.78"/><line class="cls-6" x1="594.55" y1="183.78" x2="596.34" y2="183.78"/><line class="cls-6" x1="603.52" y1="183.78" x2="603.52" y2="129.15"/><line class="cls-6" x1="669.79" y1="183.78" x2="669.79" y2="127.35"/><line class="cls-6" x1="667.95" y1="129.15" x2="667.95" y2="183.78"/><line class="cls-6" x1="682.03" y1="183.78" x2="669.79" y2="183.78"/><polyline class="cls-6" points="667.95 183.78 667.95 186.63 682.03 186.63"/><rect class="cls-5" x="601.22" y="126.83" width="69.07" height="2.67"/><rect class="cls-1" x="610.88" y="126.61" width="48.77" height="3.17"/><line class="cls-7" x1="611.08" y1="127.11" x2="611.08" y2="128.95"/><line class="cls-7" x1="659.65" y1="127.11" x2="659.65" y2="128.95"/><line class="cls-8" x1="625.71" y1="126.73" x2="625.71" y2="129.33"/><line class="cls-8" x1="611.08" y1="126.61" x2="626.88" y2="126.61"/><line class="cls-8" x1="625.71" y1="126.86" x2="625.29" y2="126.86"/><line class="cls-8" x1="625.71" y1="129.2" x2="625.29" y2="129.2"/><line class="cls-8" x1="625.71" y1="126.86" x2="625.71" y2="129.2"/><line class="cls-8" x1="625.29" y1="126.86" x2="625.29" y2="129.2"/><line class="cls-8" x1="611.46" y1="126.86" x2="611.08" y2="126.86"/><line class="cls-8" x1="611.46" y1="129.2" x2="611.08" y2="129.2"/><line class="cls-8" x1="611.46" y1="126.86" x2="611.46" y2="129.2"/><line class="cls-8" x1="611.08" y1="126.86" x2="611.08" y2="129.2"/><line class="cls-8" x1="625.29" y1="127.53" x2="611.46" y2="127.53"/><line class="cls-8" x1="625.29" y1="127.95" x2="611.46" y2="127.95"/><line class="cls-8" x1="611.08" y1="126.86" x2="611.08" y2="126.48"/><line class="cls-8" x1="609.24" y1="126.48" x2="611.08" y2="126.48"/><line class="cls-8" x1="609.24" y1="126.86" x2="609.24" y2="126.48"/><line class="cls-8" x1="609.45" y1="130.04" x2="626.88" y2="130.04"/><line class="cls-8" x1="609.45" y1="129.2" x2="609.45" y2="130.04"/><line class="cls-8" x1="611.42" y1="129.2" x2="611.42" y2="129.53"/><line class="cls-8" x1="609.7" y1="129.53" x2="611.42" y2="129.53"/><line class="cls-8" x1="609.7" y1="129.2" x2="609.7" y2="129.53"/><line class="cls-8" x1="609.7" y1="129.2" x2="611.42" y2="129.2"/><line class="cls-8" x1="628.05" y1="126.73" x2="628.05" y2="129.33"/><line class="cls-8" x1="642.68" y1="126.73" x2="642.68" y2="129.33"/><line class="cls-8" x1="628.05" y1="126.73" x2="625.71" y2="126.73"/><line class="cls-8" x1="628.05" y1="129.33" x2="625.71" y2="129.33"/><line class="cls-8" x1="626.88" y1="126.61" x2="643.85" y2="126.61"/><line class="cls-8" x1="642.68" y1="126.86" x2="642.31" y2="126.86"/><line class="cls-8" x1="642.68" y1="129.2" x2="642.31" y2="129.2"/><line class="cls-8" x1="642.68" y1="126.86" x2="642.68" y2="129.2"/><line class="cls-8" x1="642.31" y1="126.86" x2="642.31" y2="129.2"/><line class="cls-8" x1="628.43" y1="126.86" x2="628.05" y2="126.86"/><line class="cls-8" x1="628.43" y1="129.2" x2="628.05" y2="129.2"/><line class="cls-8" x1="628.43" y1="126.86" x2="628.43" y2="129.2"/><line class="cls-8" x1="628.05" y1="126.86" x2="628.05" y2="129.2"/><line class="cls-8" x1="642.31" y1="127.53" x2="628.43" y2="127.53"/><line class="cls-8" x1="642.31" y1="127.95" x2="628.43" y2="127.95"/><line class="cls-8" x1="626.88" y1="130.04" x2="643.85" y2="130.04"/><line class="cls-8" x1="645.02" y1="126.73" x2="645.02" y2="129.33"/><line class="cls-8" x1="645.02" y1="126.73" x2="642.68" y2="126.73"/><line class="cls-8" x1="645.02" y1="129.33" x2="642.68" y2="129.33"/><line class="cls-8" x1="643.85" y1="126.61" x2="659.65" y2="126.61"/><line class="cls-8" x1="659.65" y1="126.86" x2="659.28" y2="126.86"/><line class="cls-8" x1="659.65" y1="129.2" x2="659.28" y2="129.2"/><line class="cls-8" x1="659.65" y1="126.86" x2="659.65" y2="129.2"/><line class="cls-8" x1="659.28" y1="126.86" x2="659.28" y2="129.2"/><line class="cls-8" x1="645.44" y1="126.86" x2="645.02" y2="126.86"/><line class="cls-8" x1="645.44" y1="129.2" x2="645.02" y2="129.2"/><line class="cls-8" x1="645.44" y1="126.86" x2="645.44" y2="129.2"/><line class="cls-8" x1="645.02" y1="126.86" x2="645.02" y2="129.2"/><line class="cls-8" x1="659.28" y1="127.53" x2="645.44" y2="127.53"/><line class="cls-8" x1="659.28" y1="127.95" x2="645.44" y2="127.95"/><line class="cls-8" x1="659.65" y1="126.86" x2="659.65" y2="126.48"/><line class="cls-8" x1="659.65" y1="126.48" x2="661.49" y2="126.48"/><line class="cls-8" x1="661.49" y1="126.86" x2="661.49" y2="126.48"/><line class="cls-8" x1="661.28" y1="129.2" x2="661.28" y2="130.04"/><line class="cls-8" x1="643.85" y1="130.04" x2="661.28" y2="130.04"/><polyline class="cls-8" points="659.32 129.2 659.32 129.53 661.03 129.53"/><line class="cls-8" x1="661.03" y1="129.2" x2="661.03" y2="129.53"/><line class="cls-8" x1="659.32" y1="129.2" x2="661.03" y2="129.2"/></g></g></svg>