<svg id="图层_1" data-name="图层 1" xmlns="http://www.w3.org/2000/svg" viewBox="0 0 1152 576"><defs><style>.cls-1{fill:#fff;}.cls-2,.cls-3,.cls-4,.cls-6,.cls-7,.cls-8{fill:none;stroke-linejoin:bevel;}.cls-2,.cls-3,.cls-4,.cls-6{stroke:#0f5a83;}.cls-2,.cls-3,.cls-6,.cls-7,.cls-8{stroke-linecap:round;}.cls-2,.cls-8{stroke-width:0.46px;}.cls-3{stroke-width:0.69px;}.cls-4{stroke-width:0;}.cls-5{fill:#0f5a83;}.cls-6,.cls-7{stroke-width:0.93px;}.cls-7,.cls-8{stroke:#0f577e;}</style></defs><title>OPT SUNROOM-2</title><g id="_OPT_SUNROOM-2" data-name=" OPT SUNROOM-2"><g id="_OPT_SUNROOM-2-2" data-name=" OPT SUNROOM-2"><rect class="cls-1" x="605.34" y="145.98" width="62.36" height="33.59"/><rect class="cls-1" x="600.92" y="137.88" width="71.67" height="33.59"/><line class="cls-2" x1="679.44" y1="175.95" x2="679.94" y2="175.95"/><line class="cls-2" x1="670.04" y1="175.95" x2="670.54" y2="175.95"/><line class="cls-2" x1="671.08" y1="175.95" x2="671.59" y2="175.95"/><line class="cls-2" x1="672.13" y1="175.95" x2="672.63" y2="175.95"/><line class="cls-2" x1="673.17" y1="175.95" x2="673.68" y2="175.95"/><line class="cls-2" x1="674.22" y1="175.95" x2="674.72" y2="175.95"/><line class="cls-2" x1="675.26" y1="175.95" x2="675.77" y2="175.95"/><line class="cls-2" x1="676.31" y1="175.95" x2="676.81" y2="175.95"/><line class="cls-2" x1="677.35" y1="175.95" x2="677.85" y2="175.95"/><line class="cls-2" x1="678.4" y1="175.95" x2="678.9" y2="175.95"/><line class="cls-3" x1="668.99" y1="175.32" x2="682.04" y2="175.32"/><polygon class="cls-1" points="601.22 172.19 601.47 172.19 601.47 115.51 601.22 115.26 601.22 172.19"/><line class="cls-4" x1="603.94" y1="124.87" x2="604.15" y2="125.12"/><line class="cls-4" x1="603.94" y1="127.84" x2="604.15" y2="128.09"/><line class="cls-4" x1="601.47" y1="130.77" x2="601.72" y2="131.06"/><line class="cls-4" x1="601.22" y1="133.73" x2="601.47" y2="133.98"/><line class="cls-4" x1="601.47" y1="136.7" x2="601.72" y2="136.95"/><line class="cls-4" x1="601.47" y1="139.67" x2="601.72" y2="139.92"/><line class="cls-4" x1="601.47" y1="142.59" x2="601.72" y2="142.85"/><rect class="cls-5" x="601.72" y="115.76" width="1.8" height="56.43"/><polygon class="cls-1" points="670 115.51 670 171.94 670.25 171.69 670.25 115.26 670 115.51"/><line class="cls-4" x1="670" y1="126.96" x2="670.25" y2="127.21"/><line class="cls-4" x1="670" y1="129.89" x2="670.25" y2="130.18"/><line class="cls-4" x1="670" y1="132.86" x2="670.25" y2="133.11"/><line class="cls-4" x1="670" y1="135.82" x2="670.25" y2="136.07"/><line class="cls-4" x1="670" y1="138.75" x2="670.25" y2="139.04"/><line class="cls-4" x1="670" y1="141.72" x2="670.25" y2="141.97"/><line class="cls-4" x1="670" y1="144.69" x2="670.25" y2="144.94"/><line class="cls-4" x1="670" y1="147.65" x2="670.25" y2="147.9"/><line class="cls-4" x1="670" y1="150.58" x2="670.25" y2="150.87"/><line class="cls-4" x1="670" y1="153.55" x2="670.25" y2="153.8"/><line class="cls-4" x1="670" y1="156.51" x2="670.25" y2="156.77"/><line class="cls-4" x1="670" y1="159.44" x2="670.25" y2="159.73"/><line class="cls-4" x1="670" y1="162.41" x2="670.25" y2="162.66"/><line class="cls-4" x1="670" y1="165.38" x2="670.25" y2="165.63"/><line class="cls-4" x1="670" y1="168.34" x2="670.25" y2="168.59"/><line class="cls-4" x1="670" y1="171.27" x2="670.25" y2="171.56"/><rect class="cls-5" x="667.95" y="115.76" width="1.84" height="56.43"/><polygon class="cls-1" points="670.25 171.69 670 171.94 682.03 171.94 682.03 171.69 670.25 171.69"/><line class="cls-4" x1="670.08" y1="171.94" x2="670.37" y2="171.69"/><line class="cls-4" x1="673.05" y1="171.94" x2="673.3" y2="171.69"/><line class="cls-4" x1="676.02" y1="171.94" x2="676.27" y2="171.69"/><line class="cls-4" x1="678.94" y1="171.94" x2="679.23" y2="171.69"/><rect class="cls-5" x="667.95" y="172.19" width="14.09" height="2.84"/><polyline class="cls-4" points="601.22 115.26 601.22 172.19 603.81 172.19"/><line class="cls-6" x1="601.72" y1="115.76" x2="601.72" y2="172.19"/><line class="cls-6" x1="594.55" y1="172.19" x2="596.34" y2="172.19"/><line class="cls-6" x1="603.52" y1="172.19" x2="603.52" y2="117.56"/><line class="cls-6" x1="669.79" y1="172.19" x2="669.79" y2="115.76"/><line class="cls-6" x1="667.95" y1="117.56" x2="667.95" y2="172.19"/><line class="cls-6" x1="682.03" y1="172.19" x2="669.79" y2="172.19"/><polyline class="cls-6" points="667.95 172.19 667.95 175.03 682.03 175.03"/><rect class="cls-5" x="601.22" y="115.24" width="69.07" height="2.67"/><rect class="cls-1" x="610.88" y="115.02" width="48.77" height="3.17"/><line class="cls-7" x1="611.08" y1="115.52" x2="611.08" y2="117.36"/><line class="cls-7" x1="659.65" y1="115.52" x2="659.65" y2="117.36"/><line class="cls-8" x1="625.71" y1="115.14" x2="625.71" y2="117.73"/><line class="cls-8" x1="611.08" y1="115.02" x2="626.88" y2="115.02"/><line class="cls-8" x1="625.71" y1="115.27" x2="625.29" y2="115.27"/><line class="cls-8" x1="625.71" y1="117.61" x2="625.29" y2="117.61"/><line class="cls-8" x1="625.71" y1="115.27" x2="625.71" y2="117.61"/><line class="cls-8" x1="625.29" y1="115.27" x2="625.29" y2="117.61"/><line class="cls-8" x1="611.46" y1="115.27" x2="611.08" y2="115.27"/><line class="cls-8" x1="611.46" y1="117.61" x2="611.08" y2="117.61"/><line class="cls-8" x1="611.46" y1="115.27" x2="611.46" y2="117.61"/><line class="cls-8" x1="611.08" y1="115.27" x2="611.08" y2="117.61"/><line class="cls-8" x1="625.29" y1="115.94" x2="611.46" y2="115.94"/><line class="cls-8" x1="625.29" y1="116.35" x2="611.46" y2="116.35"/><line class="cls-8" x1="611.08" y1="115.27" x2="611.08" y2="114.89"/><line class="cls-8" x1="609.24" y1="114.89" x2="611.08" y2="114.89"/><line class="cls-8" x1="609.24" y1="115.27" x2="609.24" y2="114.89"/><line class="cls-8" x1="609.45" y1="118.44" x2="626.88" y2="118.44"/><line class="cls-8" x1="609.45" y1="117.61" x2="609.45" y2="118.44"/><line class="cls-8" x1="611.42" y1="117.61" x2="611.42" y2="117.94"/><line class="cls-8" x1="609.7" y1="117.94" x2="611.42" y2="117.94"/><line class="cls-8" x1="609.7" y1="117.61" x2="609.7" y2="117.94"/><line class="cls-8" x1="609.7" y1="117.61" x2="611.42" y2="117.61"/><line class="cls-8" x1="628.05" y1="115.14" x2="628.05" y2="117.73"/><line class="cls-8" x1="642.68" y1="115.14" x2="642.68" y2="117.73"/><line class="cls-8" x1="628.05" y1="115.14" x2="625.71" y2="115.14"/><line class="cls-8" x1="628.05" y1="117.73" x2="625.71" y2="117.73"/><line class="cls-8" x1="626.88" y1="115.02" x2="643.85" y2="115.02"/><line class="cls-8" x1="642.68" y1="115.27" x2="642.31" y2="115.27"/><line class="cls-8" x1="642.68" y1="117.61" x2="642.31" y2="117.61"/><line class="cls-8" x1="642.68" y1="115.27" x2="642.68" y2="117.61"/><line class="cls-8" x1="642.31" y1="115.27" x2="642.31" y2="117.61"/><line class="cls-8" x1="628.43" y1="115.27" x2="628.05" y2="115.27"/><line class="cls-8" x1="628.43" y1="117.61" x2="628.05" y2="117.61"/><line class="cls-8" x1="628.43" y1="115.27" x2="628.43" y2="117.61"/><line class="cls-8" x1="628.05" y1="115.27" x2="628.05" y2="117.61"/><line class="cls-8" x1="642.31" y1="115.94" x2="628.43" y2="115.94"/><line class="cls-8" x1="642.31" y1="116.35" x2="628.43" y2="116.35"/><line class="cls-8" x1="626.88" y1="118.44" x2="643.85" y2="118.44"/><line class="cls-8" x1="645.02" y1="115.14" x2="645.02" y2="117.73"/><line class="cls-8" x1="645.02" y1="115.14" x2="642.68" y2="115.14"/><line class="cls-8" x1="645.02" y1="117.73" x2="642.68" y2="117.73"/><line class="cls-8" x1="643.85" y1="115.02" x2="659.65" y2="115.02"/><line class="cls-8" x1="659.65" y1="115.27" x2="659.28" y2="115.27"/><line class="cls-8" x1="659.65" y1="117.61" x2="659.28" y2="117.61"/><line class="cls-8" x1="659.65" y1="115.27" x2="659.65" y2="117.61"/><line class="cls-8" x1="659.28" y1="115.27" x2="659.28" y2="117.61"/><line class="cls-8" x1="645.44" y1="115.27" x2="645.02" y2="115.27"/><line class="cls-8" x1="645.44" y1="117.61" x2="645.02" y2="117.61"/><line class="cls-8" x1="645.44" y1="115.27" x2="645.44" y2="117.61"/><line class="cls-8" x1="645.02" y1="115.27" x2="645.02" y2="117.61"/><line class="cls-8" x1="659.28" y1="115.94" x2="645.44" y2="115.94"/><line class="cls-8" x1="659.28" y1="116.35" x2="645.44" y2="116.35"/><line class="cls-8" x1="659.65" y1="115.27" x2="659.65" y2="114.89"/><line class="cls-8" x1="659.65" y1="114.89" x2="661.49" y2="114.89"/><line class="cls-8" x1="661.49" y1="115.27" x2="661.49" y2="114.89"/><line class="cls-8" x1="661.28" y1="117.61" x2="661.28" y2="118.44"/><line class="cls-8" x1="643.85" y1="118.44" x2="661.28" y2="118.44"/><polyline class="cls-8" points="659.32 117.61 659.32 117.94 661.03 117.94"/><line class="cls-8" x1="661.03" y1="117.61" x2="661.03" y2="117.94"/><line class="cls-8" x1="659.32" y1="117.61" x2="661.03" y2="117.61"/></g></g></svg>