<svg id="图层_1" data-name="图层 1" xmlns="http://www.w3.org/2000/svg" viewBox="0 0 1152 576"><defs><style>.cls-1,.cls-17,.cls-18,.cls-2,.cls-3,.cls-4{fill:none;stroke:#0f577e;stroke-linejoin:bevel;}.cls-1,.cls-2,.cls-3,.cls-4{stroke-linecap:round;}.cls-1,.cls-17{stroke-width:0.24px;}.cls-2{stroke-width:0.69px;}.cls-3{stroke-width:0.7px;}.cls-4{stroke-width:0.46px;}.cls-5{fill:#fff;}.cls-6{font-size:6.5px;fill:#0f577e;font-family:CenturyGothic, Century Gothic;letter-spacing:-0.09em;}.cls-7{letter-spacing:0.07em;}.cls-8{letter-spacing:0.17em;}.cls-9{letter-spacing:0.01em;}.cls-10{letter-spacing:0em;}.cls-11{letter-spacing:-0.02em;}.cls-12{letter-spacing:0.13em;}.cls-13{letter-spacing:0.17em;}.cls-14{letter-spacing:0.01em;}.cls-15{letter-spacing:0.08em;}.cls-16{letter-spacing:-0.07em;}.cls-18{stroke-width:0;}</style></defs><title>OPT. WET BAR-2</title><g id="OPT._WET_BAR-2" data-name="OPT. WET BAR-2"><line class="cls-1" x1="610.59" y1="217.65" x2="613.39" y2="217.65"/><line class="cls-1" x1="615.3" y1="217.65" x2="617.2" y2="217.65"/><line class="cls-1" x1="619.11" y1="217.65" x2="621.02" y2="217.65"/><line class="cls-1" x1="622.92" y1="217.65" x2="624.83" y2="217.65"/><line class="cls-1" x1="626.74" y1="217.65" x2="628.65" y2="217.65"/><line class="cls-1" x1="631.27" y1="217.65" x2="629.66" y2="217.65"/><line class="cls-1" x1="629.66" y1="186.12" x2="632.46" y2="186.12"/><line class="cls-1" x1="634.37" y1="186.12" x2="636.28" y2="186.12"/><line class="cls-1" x1="638.18" y1="186.12" x2="640.09" y2="186.12"/><line class="cls-1" x1="642" y1="186.12" x2="643.91" y2="186.12"/><line class="cls-1" x1="645.81" y1="186.12" x2="648.74" y2="186.12"/><line class="cls-1" x1="653.44" y1="217.65" x2="655.35" y2="217.65"/><line class="cls-1" x1="657.26" y1="217.65" x2="659.16" y2="217.65"/><line class="cls-1" x1="661.07" y1="217.65" x2="662.98" y2="217.65"/><line class="cls-1" x1="664.89" y1="217.65" x2="667.56" y2="217.65"/><line class="cls-1" x1="650.35" y1="217.65" x2="651.92" y2="217.65"/><line class="cls-1" x1="610.85" y1="186.12" x2="613.39" y2="186.12"/><line class="cls-1" x1="615.3" y1="186.12" x2="617.2" y2="186.12"/><line class="cls-1" x1="619.11" y1="186.12" x2="621.02" y2="186.12"/><line class="cls-1" x1="622.92" y1="186.12" x2="624.83" y2="186.12"/><line class="cls-1" x1="626.74" y1="186.12" x2="629.66" y2="186.12"/><line class="cls-1" x1="648.74" y1="186.12" x2="651.53" y2="186.12"/><line class="cls-1" x1="653.44" y1="186.12" x2="655.35" y2="186.12"/><line class="cls-1" x1="657.26" y1="186.12" x2="659.16" y2="186.12"/><line class="cls-1" x1="661.07" y1="186.12" x2="662.98" y2="186.12"/><line class="cls-1" x1="664.89" y1="186.12" x2="667.56" y2="186.12"/><line class="cls-1" x1="634.37" y1="217.65" x2="636.28" y2="217.65"/><line class="cls-1" x1="638.18" y1="217.65" x2="640.09" y2="217.65"/><line class="cls-1" x1="642" y1="217.65" x2="643.91" y2="217.65"/><line class="cls-1" x1="645.81" y1="217.65" x2="647.72" y2="217.65"/><line class="cls-1" x1="631.27" y1="217.65" x2="632.84" y2="217.65"/><line class="cls-1" x1="650.35" y1="217.65" x2="648.74" y2="217.65"/><line class="cls-1" x1="610.59" y1="217.1" x2="631.28" y2="217.1"/><line class="cls-1" x1="631.27" y1="217.1" x2="650.35" y2="217.1"/><line class="cls-1" x1="650.35" y1="217.1" x2="667.56" y2="217.1"/><line class="cls-2" x1="667.56" y1="217.1" x2="667.56" y2="230.37"/><polyline class="cls-1" points="667.56 230.37 650.35 230.37 631.27 230.37 610.59 230.37"/><line class="cls-1" x1="610.59" y1="230.37" x2="610.59" y2="217.1"/><line class="cls-2" x1="667.56" y1="173.4" x2="667.56" y2="186.67"/><polyline class="cls-1" points="667.56 186.67 648.74 186.67 629.66 186.67"/><line class="cls-1" x1="629.66" y1="186.67" x2="610.85" y2="186.67"/><polyline class="cls-3" points="609.45 186.67 609.45 173.4 628.72 173.4 648.25 173.4 667.51 173.4"/><line class="cls-1" x1="645.05" y1="185.61" x2="645.05" y2="173.95"/><line class="cls-2" x1="645.05" y1="173.95" x2="633.35" y2="173.95"/><polyline class="cls-1" points="633.35 173.95 633.35 185.61 645.05 185.61"/><polyline class="cls-1" points="639.29 175.18 639.29 175.14 639.33 175.14 639.37 175.1 639.37 175.05 639.41 175.01 639.41 174.97 639.41 174.93 639.41 174.88"/><polyline class="cls-1" points="639.41 174.88 639.41 174.84 639.41 174.8 639.37 174.8 639.37 174.76 639.33 174.72 639.29 174.67"/><polyline class="cls-1" points="639.29 174.67 639.24 174.63 639.2 174.63 639.16 174.59 639.12 174.59 639.07 174.59"/><polyline class="cls-1" points="639.08 174.59 639.03 174.63 638.99 174.63 638.95 174.63 638.9 174.67 638.86 174.67 638.86 174.72 638.82 174.72 638.82 174.76 638.82 174.8 638.78 174.84 638.78 174.88 638.78 174.93 638.78 174.97 638.78 175.01 638.82 175.05 638.82 175.1 638.86 175.14"/><line class="cls-1" x1="638.86" y1="175.14" x2="638.9" y2="175.18"/><line class="cls-1" x1="635.05" y1="175.94" x2="634.79" y2="176.03"/><line class="cls-1" x1="634.79" y1="176.03" x2="634.58" y2="176.16"/><line class="cls-1" x1="634.58" y1="176.16" x2="634.37" y2="176.33"/><polyline class="cls-1" points="634.37 176.32 634.2 176.5 634.07 176.75"/><polyline class="cls-1" points="634.07 176.75 633.99 177 633.99 177.26 633.99 183.4 633.99 183.66"/><polyline class="cls-1" points="633.99 183.66 634.07 183.91 634.2 184.12 634.37 184.34"/><polyline class="cls-1" points="634.37 184.34 634.58 184.51 634.79 184.63 635.05 184.72"/><line class="cls-1" x1="633.1" y1="185.4" x2="633.1" y2="174.12"/><line class="cls-4" x1="633.1" y1="174.12" x2="633.31" y2="173.95"/><polyline class="cls-4" points="633.31 173.95 645.09 173.95 645.3 174.12"/><polyline class="cls-1" points="645.3 174.12 645.3 185.4 645.09 185.61 633.31 185.61 633.1 185.4"/><polyline class="cls-1" points="639.29 175.94 643.1 175.94 643.36 175.99"/><polyline class="cls-1" points="643.36 175.99 643.61 176.03 643.82 176.16 644.03 176.32 644.2 176.54"/><line class="cls-1" x1="644.2" y1="176.54" x2="644.33" y2="176.75"/><polyline class="cls-1" points="644.33 176.75 644.37 177 644.41 177.26"/><polyline class="cls-1" points="644.41 177.26 644.41 183.4 644.37 183.66"/><polyline class="cls-1" points="644.37 183.66 644.33 183.91 644.2 184.12 644.03 184.34"/><polyline class="cls-1" points="644.03 184.34 643.82 184.51 643.61 184.59"/><line class="cls-1" x1="643.61" y1="184.59" x2="643.35" y2="184.68"/><polyline class="cls-1" points="643.36 184.68 643.1 184.72 635.3 184.72"/><polyline class="cls-1" points="635.3 184.72 635.05 184.68 634.79 184.59"/><line class="cls-1" x1="634.79" y1="184.59" x2="634.58" y2="184.51"/><line class="cls-1" x1="634.58" y1="184.51" x2="634.37" y2="184.34"/><polyline class="cls-1" points="634.37 184.34 634.24 184.12 634.12 183.91 634.03 183.66 633.99 183.4 633.99 177.26 634.03 177"/><polyline class="cls-1" points="634.03 177 634.12 176.75 634.24 176.54 634.37 176.32 634.58 176.16 634.79 176.03 635.05 175.99"/><polyline class="cls-1" points="635.05 175.99 635.3 175.94 638.9 175.94"/><polyline class="cls-1" points="639.37 174.59 639.33 174.59 639.29 174.54"/><polyline class="cls-1" points="639.29 174.54 639.24 174.54 639.2 174.5 639.16 174.5 639.12 174.5 639.07 174.5 639.03 174.5 638.99 174.5 638.95 174.54 638.9 174.54 638.86 174.59 638.82 174.63 638.78 174.63 638.78 174.67 638.74 174.72 638.74 174.76 638.69 174.8 638.69 174.84 638.69 174.88"/><polyline class="cls-1" points="638.69 174.88 638.69 174.93 638.69 174.97 638.69 175.01 638.74 175.05 638.74 175.1"/><polyline class="cls-1" points="638.74 175.1 638.74 175.14 638.78 175.18 638.82 175.22 638.86 175.27 638.9 175.27"/><polyline class="cls-1" points="638.9 174.88 638.9 174.84 638.95 174.8 638.99 174.76 639.03 174.76 639.07 174.72 639.12 174.72 639.12 174.76 639.16 174.76 639.2 174.76 639.24 174.8 639.24 174.84 639.29 174.84"/><line class="cls-1" x1="639.29" y1="174.84" x2="639.29" y2="174.89"/><line class="cls-1" x1="639.29" y1="175.27" x2="639.37" y2="175.22"/><line class="cls-1" x1="639.67" y1="174.63" x2="639.62" y2="174.63"/><line class="cls-1" x1="639.29" y1="174.88" x2="639.29" y2="177.34"/><line class="cls-1" x1="638.9" y1="177.34" x2="638.9" y2="174.89"/><line class="cls-1" x1="639.62" y1="175.22" x2="639.67" y2="175.22"/><polyline class="cls-1" points="642.76 175.22 642.72 175.22 642.68 175.22 642.63 175.22 642.63 175.18"/><polyline class="cls-1" points="642.63 175.18 642.59 175.18 642.55 175.14 642.51 175.1 642.51 175.05 642.47 175.01 642.47 174.97 642.47 174.93 642.47 174.88 642.47 174.84 642.47 174.8 642.51 174.8 642.51 174.76 642.51 174.72 642.55 174.72 642.59 174.67"/><polyline class="cls-1" points="642.59 174.67 642.59 174.63 642.63 174.63"/><polyline class="cls-1" points="642.63 174.63 642.68 174.63 642.68 174.59 642.72 174.59 642.76 174.59 642.8 174.59 642.85 174.59"/><polyline class="cls-1" points="642.85 174.59 642.89 174.59 642.93 174.63 642.97 174.63 643.02 174.67 643.06 174.72 643.06 174.76 643.1 174.76 643.1 174.8 643.1 174.84 643.1 174.88"/><polyline class="cls-1" points="643.1 174.88 643.1 174.93 643.1 174.97 643.1 175.01 643.1 175.05 643.06 175.1"/><polyline class="cls-1" points="643.06 175.1 643.06 175.14 643.02 175.14 642.97 175.18 642.93 175.22 642.89 175.22 642.85 175.22 642.85 176.03 642.8 176.03 642.8 176.07 642.76 176.07 642.76 176.03 642.76 175.22"/><polyline class="cls-1" points="639.29 175.22 639.63 175.22 639.63 174.59"/><line class="cls-1" x1="639.62" y1="174.59" x2="639.16" y2="174.59"/><polyline class="cls-1" points="638.9 177.13 638.86 177.17 638.86 177.26"/><polygon class="cls-5" points="639.79 174.84 639.75 174.88 639.75 174.93 639.75 174.97 639.79 175.01 639.88 175.01 639.88 174.97 639.92 174.93 639.88 174.88 639.88 174.84 639.79 174.84"/><polyline class="cls-1" points="639.75 174.88 639.79 174.84 639.84 174.84 639.88 174.84 639.88 174.88"/><polyline class="cls-1" points="639.88 174.88 639.92 174.93 639.88 174.97 639.88 175.01 639.84 175.01 639.79 175.01 639.75 174.97 639.75 174.93 639.75 174.88"/><polygon class="cls-5" points="639.75 174.8 639.71 174.84 639.71 174.89 639.67 174.93 639.71 174.97 639.71 175.01 639.75 175.06 639.88 175.06 639.92 175.01 639.96 174.97 639.96 174.89 639.92 174.84 639.88 174.8 639.75 174.8"/><polyline class="cls-1" points="639.71 174.88 639.71 174.84 639.75 174.8 639.79 174.8 639.84 174.8 639.88 174.8 639.92 174.84 639.96 174.88"/><polyline class="cls-1" points="639.96 174.88 639.96 174.93 639.96 174.97 639.92 175.01 639.88 175.05 639.84 175.05 639.79 175.05 639.75 175.05 639.71 175.01 639.71 174.97 639.67 174.93 639.71 174.88"/><polyline class="cls-1" points="639.29 177.13 639.33 177.17 639.33 177.26"/><polygon class="cls-5" points="639.67 174.59 639.67 175.22 639.96 175.22 640.01 175.18 640.05 175.14 640.05 175.1 640.09 175.01 640.09 174.84 640.05 174.76 640.05 174.67 640.01 174.63 639.96 174.63 639.96 174.59 639.67 174.59"/><polyline class="cls-1" points="639.67 174.59 639.96 174.59 639.96 174.63 640.01 174.63 640.05 174.67 640.05 174.76 640.09 174.84 640.09 175.01 640.05 175.1"/><polyline class="cls-1" points="640.05 175.1 640.05 175.14 640.01 175.18 639.96 175.22 639.67 175.22 639.67 174.59"/><polyline class="cls-1" points="637.42 174.59 638.31 174.54 639.2 174.5 640.01 174.54 640.77 174.59 640.81 174.63 640.85 174.63 640.9 174.63 640.9 174.67 640.94 174.67 640.94 174.72 640.98 174.76 641.02 174.8 641.02 174.84 641.02 174.88"/><polyline class="cls-1" points="641.02 174.88 641.02 174.93 641.02 174.97 641.02 175.01 641.02 175.05 640.98 175.05 640.98 175.1"/><polyline class="cls-1" points="640.98 175.1 640.94 175.14 640.9 175.18 640.85 175.22 640.81 175.22 640.77 175.22 640.05 175.31 639.29 175.35"/><line class="cls-1" x1="639.29" y1="175.35" x2="639.29" y2="177.09"/><polyline class="cls-1" points="639.29 177.09 639.33 177.09 639.33 177.13 639.37 177.13 639.41 177.17 639.46 177.22 639.46 177.26 639.5 177.3 639.5 177.34 639.5 177.38 639.5 177.43 639.54 177.47 639.54 177.51 639.5 177.56 639.5 177.6 639.5 177.64 639.46 177.68 639.46 177.72 639.41 177.77 639.37 177.77 639.37 177.81 639.33 177.85 639.29 177.85"/><polyline class="cls-1" points="639.29 177.85 639.24 177.89 639.2 177.89 639.16 177.89 639.12 177.89 639.07 177.89 639.03 177.89 638.99 177.89 638.95 177.85 638.9 177.85 638.86 177.81 638.82 177.81 638.78 177.77 638.74 177.72 638.74 177.68 638.69 177.64 638.69 177.6 638.69 177.55"/><polyline class="cls-1" points="638.69 177.56 638.65 177.51 638.65 177.47 638.65 177.43 638.69 177.38 638.69 177.34 638.69 177.3 638.74 177.26 638.74 177.22 638.78 177.22 638.78 177.17 638.82 177.13 638.86 177.09"/><polyline class="cls-1" points="638.86 177.09 638.9 177.09 638.9 175.35"/><polyline class="cls-1" points="638.9 175.35 638.14 175.31 637.42 175.22 637.38 175.22 637.34 175.22 637.29 175.18"/><polyline class="cls-1" points="637.29 175.18 637.25 175.14 637.21 175.1 637.17 175.05 637.17 175.01 637.17 174.97 637.17 174.93 637.17 174.88 637.17 174.84 637.17 174.8 637.21 174.76 637.21 174.72 637.25 174.72 637.25 174.67"/><polyline class="cls-1" points="637.25 174.67 637.29 174.67 637.29 174.63 637.34 174.63 637.38 174.63 637.42 174.59"/><text class="cls-6" transform="translate(617.2 202.27)">O<tspan class="cls-7" x="5.08" y="0">P</tspan><tspan class="cls-8" x="9.41" y="0">T</tspan><tspan class="cls-9" x="13.31" y="0">.</tspan><tspan class="cls-10" x="15.17" y="0"> </tspan><tspan class="cls-11" x="16.97" y="0">W</tspan><tspan class="cls-12" x="23.1" y="0">E</tspan><tspan class="cls-13" x="27.43" y="0">T</tspan><tspan class="cls-14" x="31.33" y="0"> </tspan><tspan class="cls-15" x="33.18" y="0">B</tspan><tspan class="cls-16" x="37.45" y="0">A</tspan><tspan class="cls-10" x="41.79" y="0">R</tspan></text><polyline class="cls-1" points="608.73 217.1 608.73 232.49 610.59 232.49"/><path class="cls-1" d="M639.12,179.63a.47.47,0,0,0-.47.47.47.47,0,0,0,.93,0A.47.47,0,0,0,639.12,179.63Z"/><polyline class="cls-2" points="610.68 232.03 610.72 231.94 610.76 231.81 610.8 231.69 610.85 231.56 610.89 231.43"/><rect class="cls-5" x="610.59" y="230.62" width="57.22" height="1.87"/><line class="cls-17" x1="610.59" y1="231.47" x2="611.44" y2="230.62"/><line class="cls-17" x1="611.06" y1="232.48" x2="612.92" y2="230.62"/><line class="cls-17" x1="614.41" y1="230.62" x2="612.58" y2="232.48"/><line class="cls-17" x1="614.07" y1="232.48" x2="615.93" y2="230.62"/><line class="cls-17" x1="615.55" y1="232.48" x2="617.42" y2="230.62"/><line class="cls-17" x1="617.08" y1="232.48" x2="618.94" y2="230.62"/><line class="cls-17" x1="618.56" y1="232.48" x2="620.43" y2="230.62"/><line class="cls-17" x1="620.05" y1="232.48" x2="621.91" y2="230.62"/><line class="cls-17" x1="621.57" y1="232.48" x2="623.44" y2="230.62"/><line class="cls-17" x1="623.05" y1="232.48" x2="624.92" y2="230.62"/><line class="cls-17" x1="626.4" y1="230.62" x2="624.58" y2="232.48"/><line class="cls-17" x1="626.06" y1="232.48" x2="627.93" y2="230.62"/><line class="cls-17" x1="627.55" y1="232.48" x2="629.41" y2="230.62"/><line class="cls-17" x1="630.9" y1="230.62" x2="629.07" y2="232.48"/><line class="cls-17" x1="630.56" y1="232.48" x2="632.42" y2="230.62"/><line class="cls-17" x1="632.04" y1="232.48" x2="633.91" y2="230.62"/><line class="cls-17" x1="635.39" y1="230.62" x2="633.57" y2="232.48"/><line class="cls-17" x1="635.05" y1="232.48" x2="636.91" y2="230.62"/><line class="cls-17" x1="636.53" y1="232.48" x2="638.4" y2="230.62"/><line class="cls-17" x1="639.88" y1="230.62" x2="638.06" y2="232.48"/><line class="cls-17" x1="639.54" y1="232.48" x2="641.41" y2="230.62"/><line class="cls-17" x1="641.03" y1="232.48" x2="642.89" y2="230.62"/><line class="cls-17" x1="642.55" y1="232.48" x2="644.42" y2="230.62"/><line class="cls-17" x1="644.03" y1="232.48" x2="645.9" y2="230.62"/><line class="cls-17" x1="647.38" y1="230.62" x2="645.56" y2="232.48"/><line class="cls-17" x1="647.04" y1="232.48" x2="648.91" y2="230.62"/><line class="cls-17" x1="648.53" y1="232.48" x2="650.39" y2="230.62"/><line class="cls-17" x1="651.88" y1="230.62" x2="650.05" y2="232.48"/><line class="cls-17" x1="651.54" y1="232.48" x2="653.4" y2="230.62"/><line class="cls-17" x1="653.02" y1="232.48" x2="654.89" y2="230.62"/><line class="cls-17" x1="656.37" y1="230.62" x2="654.54" y2="232.48"/><line class="cls-17" x1="656.03" y1="232.48" x2="657.89" y2="230.62"/><line class="cls-17" x1="657.51" y1="232.48" x2="659.38" y2="230.62"/><line class="cls-17" x1="660.86" y1="230.62" x2="659.04" y2="232.48"/><line class="cls-17" x1="660.52" y1="232.48" x2="662.39" y2="230.62"/><line class="cls-17" x1="662.01" y1="232.48" x2="663.87" y2="230.62"/><line class="cls-17" x1="663.53" y1="232.48" x2="665.4" y2="230.62"/><line class="cls-17" x1="665.01" y1="232.48" x2="666.88" y2="230.62"/><line class="cls-18" x1="666.5" y1="232.48" x2="667.81" y2="231.17"/><line class="cls-18" x1="667.6" y1="230.62" x2="667.81" y2="230.83"/><line class="cls-18" x1="666.12" y1="230.62" x2="667.81" y2="232.31"/><line class="cls-17" x1="664.63" y1="230.62" x2="666.5" y2="232.48"/><line class="cls-17" x1="663.11" y1="230.62" x2="664.97" y2="232.48"/><line class="cls-17" x1="661.62" y1="230.62" x2="663.49" y2="232.48"/><line class="cls-17" x1="660.14" y1="230.62" x2="661.96" y2="232.48"/><line class="cls-17" x1="658.61" y1="230.62" x2="660.48" y2="232.48"/><line class="cls-17" x1="657.13" y1="230.62" x2="659" y2="232.48"/><line class="cls-17" x1="655.65" y1="230.62" x2="657.47" y2="232.48"/><line class="cls-17" x1="654.12" y1="230.62" x2="655.99" y2="232.48"/><line class="cls-17" x1="652.64" y1="230.62" x2="654.5" y2="232.48"/><line class="cls-17" x1="651.16" y1="230.62" x2="652.98" y2="232.48"/><line class="cls-17" x1="649.63" y1="230.62" x2="651.49" y2="232.48"/><line class="cls-17" x1="648.15" y1="230.62" x2="650.01" y2="232.48"/><line class="cls-17" x1="646.62" y1="230.62" x2="648.49" y2="232.48"/><line class="cls-17" x1="645.14" y1="230.62" x2="647" y2="232.48"/><line class="cls-17" x1="643.65" y1="230.62" x2="645.52" y2="232.48"/><line class="cls-17" x1="642.13" y1="230.62" x2="643.99" y2="232.48"/><line class="cls-17" x1="640.64" y1="230.62" x2="642.51" y2="232.48"/><line class="cls-17" x1="639.16" y1="230.62" x2="640.98" y2="232.48"/><line class="cls-17" x1="637.63" y1="230.62" x2="639.5" y2="232.48"/><line class="cls-17" x1="636.15" y1="230.62" x2="638.02" y2="232.48"/><line class="cls-17" x1="634.67" y1="230.62" x2="636.49" y2="232.48"/><line class="cls-17" x1="633.14" y1="230.62" x2="635.01" y2="232.48"/><line class="cls-17" x1="631.66" y1="230.62" x2="633.52" y2="232.48"/><line class="cls-17" x1="630.17" y1="230.62" x2="632" y2="232.48"/><line class="cls-17" x1="628.65" y1="230.62" x2="630.51" y2="232.48"/><line class="cls-17" x1="627.17" y1="230.62" x2="629.03" y2="232.48"/><line class="cls-17" x1="625.68" y1="230.62" x2="627.5" y2="232.48"/><line class="cls-17" x1="624.16" y1="230.62" x2="626.02" y2="232.48"/><line class="cls-17" x1="622.67" y1="230.62" x2="624.54" y2="232.48"/><line class="cls-17" x1="621.15" y1="230.62" x2="623.01" y2="232.48"/><line class="cls-17" x1="619.66" y1="230.62" x2="621.53" y2="232.48"/><line class="cls-17" x1="618.18" y1="230.62" x2="620" y2="232.48"/><line class="cls-17" x1="616.65" y1="230.62" x2="618.52" y2="232.48"/><line class="cls-17" x1="615.17" y1="230.62" x2="617.04" y2="232.48"/><line class="cls-17" x1="613.69" y1="230.62" x2="615.51" y2="232.48"/><line class="cls-17" x1="612.16" y1="230.62" x2="614.03" y2="232.48"/><line class="cls-17" x1="610.68" y1="230.62" x2="612.54" y2="232.48"/><line class="cls-17" x1="610.59" y1="232.06" x2="611.02" y2="232.48"/><line class="cls-17" x1="608.73" y1="218.33" x2="609.96" y2="217.1"/><line class="cls-17" x1="608.73" y1="219.81" x2="610.59" y2="217.99"/><line class="cls-17" x1="608.73" y1="221.34" x2="610.59" y2="219.47"/><line class="cls-17" x1="608.73" y1="222.82" x2="610.59" y2="220.96"/><line class="cls-17" x1="608.73" y1="224.3" x2="610.59" y2="222.48"/><line class="cls-17" x1="608.73" y1="225.83" x2="610.59" y2="223.97"/><line class="cls-17" x1="608.73" y1="227.31" x2="610.59" y2="225.45"/><line class="cls-17" x1="608.73" y1="228.8" x2="610.59" y2="226.97"/><line class="cls-17" x1="608.73" y1="230.32" x2="610.59" y2="228.46"/><line class="cls-17" x1="608.73" y1="231.81" x2="610.59" y2="229.94"/><line class="cls-17" x1="609.58" y1="232.48" x2="610.59" y2="231.47"/><line class="cls-17" x1="609.15" y1="217.1" x2="610.59" y2="218.58"/><line class="cls-17" x1="608.73" y1="218.2" x2="610.59" y2="220.07"/><line class="cls-17" x1="608.73" y1="219.73" x2="610.59" y2="221.55"/><line class="cls-17" x1="608.73" y1="221.21" x2="610.59" y2="223.08"/><line class="cls-17" x1="608.73" y1="222.69" x2="610.59" y2="224.56"/><line class="cls-17" x1="608.73" y1="224.22" x2="610.59" y2="226.04"/><line class="cls-17" x1="608.73" y1="225.7" x2="610.59" y2="227.57"/><line class="cls-17" x1="608.73" y1="227.19" x2="610.59" y2="229.05"/><line class="cls-17" x1="608.73" y1="228.71" x2="610.59" y2="230.53"/><line class="cls-17" x1="608.73" y1="230.2" x2="610.59" y2="232.06"/><line class="cls-17" x1="608.73" y1="231.68" x2="609.53" y2="232.48"/><line class="cls-1" x1="608.73" y1="196.66" x2="608.73" y2="210.1"/><line class="cls-1" x1="608.73" y1="215.15" x2="608.73" y2="217.1"/><line class="cls-1" x1="610.59" y1="232.48" x2="667.81" y2="232.48"/><line class="cls-4" x1="667.81" y1="232.48" x2="667.81" y2="230.62"/><line class="cls-1" x1="667.81" y1="230.62" x2="610.59" y2="230.62"/><line class="cls-1" x1="608.73" y1="232.48" x2="610.59" y2="232.48"/><line class="cls-1" x1="610.59" y1="217.1" x2="608.73" y2="217.1"/><line class="cls-1" x1="610.59" y1="230.62" x2="610.59" y2="217.1"/></g></svg>