<svg id="图层_1" data-name="图层 1" xmlns="http://www.w3.org/2000/svg" viewBox="0 0 1152 576"><defs><style>.cls-1,.cls-17,.cls-18,.cls-2,.cls-3,.cls-4{fill:none;stroke:#0f577e;stroke-linejoin:bevel;}.cls-1,.cls-2,.cls-3,.cls-4{stroke-linecap:round;}.cls-1,.cls-17{stroke-width:0.24px;}.cls-2{stroke-width:0.69px;}.cls-3{stroke-width:0.7px;}.cls-4{stroke-width:0.46px;}.cls-5{fill:#fff;}.cls-6{font-size:6.5px;fill:#0f577e;font-family:CenturyGothic, Century Gothic;letter-spacing:-0.09em;}.cls-7{letter-spacing:0.07em;}.cls-8{letter-spacing:0.17em;}.cls-9{letter-spacing:0.01em;}.cls-10{letter-spacing:0em;}.cls-11{letter-spacing:-0.02em;}.cls-12{letter-spacing:0.13em;}.cls-13{letter-spacing:0.17em;}.cls-14{letter-spacing:0.01em;}.cls-15{letter-spacing:0.08em;}.cls-16{letter-spacing:-0.07em;}.cls-18{stroke-width:0;}</style></defs><title>OPT. WET BAR</title><g id="OPT._WET_BAR" data-name="OPT. WET BAR"><line class="cls-1" x1="610.59" y1="230.27" x2="613.39" y2="230.27"/><line class="cls-1" x1="615.3" y1="230.27" x2="617.2" y2="230.27"/><line class="cls-1" x1="619.11" y1="230.27" x2="621.02" y2="230.27"/><line class="cls-1" x1="622.92" y1="230.27" x2="624.83" y2="230.27"/><line class="cls-1" x1="626.74" y1="230.27" x2="628.65" y2="230.27"/><line class="cls-1" x1="631.27" y1="230.27" x2="629.66" y2="230.27"/><line class="cls-1" x1="629.66" y1="198.74" x2="632.46" y2="198.74"/><line class="cls-1" x1="634.37" y1="198.74" x2="636.28" y2="198.74"/><line class="cls-1" x1="638.18" y1="198.74" x2="640.09" y2="198.74"/><line class="cls-1" x1="642" y1="198.74" x2="643.91" y2="198.74"/><line class="cls-1" x1="645.81" y1="198.74" x2="648.74" y2="198.74"/><line class="cls-1" x1="653.44" y1="230.27" x2="655.35" y2="230.27"/><line class="cls-1" x1="657.26" y1="230.27" x2="659.16" y2="230.27"/><line class="cls-1" x1="661.07" y1="230.27" x2="662.98" y2="230.27"/><line class="cls-1" x1="664.89" y1="230.27" x2="667.56" y2="230.27"/><line class="cls-1" x1="650.35" y1="230.27" x2="651.92" y2="230.27"/><line class="cls-1" x1="610.85" y1="198.74" x2="613.39" y2="198.74"/><line class="cls-1" x1="615.3" y1="198.74" x2="617.2" y2="198.74"/><line class="cls-1" x1="619.11" y1="198.74" x2="621.02" y2="198.74"/><line class="cls-1" x1="622.92" y1="198.74" x2="624.83" y2="198.74"/><line class="cls-1" x1="626.74" y1="198.74" x2="629.66" y2="198.74"/><line class="cls-1" x1="648.74" y1="198.74" x2="651.53" y2="198.74"/><line class="cls-1" x1="653.44" y1="198.74" x2="655.35" y2="198.74"/><line class="cls-1" x1="657.26" y1="198.74" x2="659.16" y2="198.74"/><line class="cls-1" x1="661.07" y1="198.74" x2="662.98" y2="198.74"/><line class="cls-1" x1="664.89" y1="198.74" x2="667.56" y2="198.74"/><line class="cls-1" x1="634.37" y1="230.27" x2="636.28" y2="230.27"/><line class="cls-1" x1="638.18" y1="230.27" x2="640.09" y2="230.27"/><line class="cls-1" x1="642" y1="230.27" x2="643.91" y2="230.27"/><line class="cls-1" x1="645.81" y1="230.27" x2="647.72" y2="230.27"/><line class="cls-1" x1="631.27" y1="230.27" x2="632.84" y2="230.27"/><line class="cls-1" x1="650.35" y1="230.27" x2="648.74" y2="230.27"/><line class="cls-1" x1="610.59" y1="229.72" x2="631.28" y2="229.72"/><line class="cls-1" x1="631.27" y1="229.72" x2="650.35" y2="229.72"/><line class="cls-1" x1="650.35" y1="229.72" x2="667.56" y2="229.72"/><line class="cls-2" x1="667.56" y1="229.72" x2="667.56" y2="242.99"/><polyline class="cls-1" points="667.56 242.99 650.35 242.99 631.27 242.99 610.59 242.99"/><line class="cls-1" x1="610.59" y1="242.99" x2="610.59" y2="229.72"/><line class="cls-2" x1="667.56" y1="186.02" x2="667.56" y2="199.29"/><polyline class="cls-1" points="667.56 199.29 648.74 199.29 629.66 199.29"/><line class="cls-1" x1="629.66" y1="199.29" x2="610.85" y2="199.29"/><polyline class="cls-3" points="609.45 199.29 609.45 186.03 628.72 186.03 648.25 186.03 667.51 186.03"/><line class="cls-1" x1="645.05" y1="198.23" x2="645.05" y2="186.58"/><line class="cls-2" x1="645.05" y1="186.58" x2="633.35" y2="186.58"/><polyline class="cls-1" points="633.35 186.58 633.35 198.23 645.05 198.23"/><polyline class="cls-1" points="639.29 187.81 639.29 187.76 639.33 187.76 639.37 187.72 639.37 187.68 639.41 187.64 639.41 187.59 639.41 187.55 639.41 187.51"/><polyline class="cls-1" points="639.41 187.51 639.41 187.47 639.41 187.42 639.37 187.42 639.37 187.38 639.33 187.34 639.29 187.3"/><polyline class="cls-1" points="639.29 187.3 639.24 187.25 639.2 187.25 639.16 187.21 639.12 187.21 639.07 187.21"/><polyline class="cls-1" points="639.08 187.21 639.03 187.25 638.99 187.25 638.95 187.25 638.9 187.3 638.86 187.3 638.86 187.34 638.82 187.34 638.82 187.38 638.82 187.42 638.78 187.47 638.78 187.51 638.78 187.55 638.78 187.59 638.78 187.64 638.82 187.68 638.82 187.72 638.86 187.76"/><line class="cls-1" x1="638.86" y1="187.76" x2="638.9" y2="187.8"/><line class="cls-1" x1="635.05" y1="188.57" x2="634.79" y2="188.65"/><line class="cls-1" x1="634.79" y1="188.65" x2="634.58" y2="188.78"/><line class="cls-1" x1="634.58" y1="188.78" x2="634.37" y2="188.95"/><polyline class="cls-1" points="634.37 188.95 634.2 189.12 634.07 189.37"/><polyline class="cls-1" points="634.07 189.37 633.99 189.63 633.99 189.88 633.99 196.03 633.99 196.28"/><polyline class="cls-1" points="633.99 196.28 634.07 196.54 634.2 196.75 634.37 196.96"/><polyline class="cls-1" points="634.37 196.96 634.58 197.13 634.79 197.26 635.05 197.34"/><line class="cls-1" x1="633.1" y1="198.02" x2="633.1" y2="186.75"/><line class="cls-4" x1="633.1" y1="186.75" x2="633.31" y2="186.58"/><polyline class="cls-4" points="633.31 186.58 645.09 186.58 645.3 186.75"/><polyline class="cls-1" points="645.3 186.75 645.3 198.02 645.09 198.23 633.31 198.23 633.1 198.02"/><polyline class="cls-1" points="639.29 188.57 643.1 188.57 643.36 188.61"/><polyline class="cls-1" points="643.36 188.61 643.61 188.65 643.82 188.78 644.03 188.95 644.2 189.16"/><line class="cls-1" x1="644.2" y1="189.16" x2="644.33" y2="189.37"/><polyline class="cls-1" points="644.33 189.37 644.37 189.63 644.41 189.88"/><polyline class="cls-1" points="644.41 189.88 644.41 196.03 644.37 196.28"/><polyline class="cls-1" points="644.37 196.28 644.33 196.54 644.2 196.75 644.03 196.96"/><polyline class="cls-1" points="644.03 196.96 643.82 197.13 643.61 197.22"/><line class="cls-1" x1="643.61" y1="197.21" x2="643.35" y2="197.3"/><polyline class="cls-1" points="643.36 197.3 643.1 197.34 635.3 197.34"/><polyline class="cls-1" points="635.3 197.34 635.05 197.3 634.79 197.22"/><line class="cls-1" x1="634.79" y1="197.21" x2="634.58" y2="197.13"/><line class="cls-1" x1="634.58" y1="197.13" x2="634.37" y2="196.96"/><polyline class="cls-1" points="634.37 196.96 634.24 196.75 634.12 196.54 634.03 196.28 633.99 196.03 633.99 189.88 634.03 189.63"/><polyline class="cls-1" points="634.03 189.63 634.12 189.37 634.24 189.16 634.37 188.95 634.58 188.78 634.79 188.65 635.05 188.61"/><polyline class="cls-1" points="635.05 188.61 635.3 188.57 638.9 188.57"/><polyline class="cls-1" points="639.37 187.21 639.33 187.21 639.29 187.17"/><polyline class="cls-1" points="639.29 187.17 639.24 187.17 639.2 187.13 639.16 187.13 639.12 187.13 639.07 187.13 639.03 187.13 638.99 187.13 638.95 187.17 638.9 187.17 638.86 187.21 638.82 187.25 638.78 187.25 638.78 187.3 638.74 187.34 638.74 187.38 638.69 187.42 638.69 187.47 638.69 187.51"/><polyline class="cls-1" points="638.69 187.51 638.69 187.55 638.69 187.59 638.69 187.64 638.74 187.68 638.74 187.72"/><polyline class="cls-1" points="638.74 187.72 638.74 187.76 638.78 187.81 638.82 187.85 638.86 187.89 638.9 187.89"/><polyline class="cls-1" points="638.9 187.51 638.9 187.47 638.95 187.42 638.99 187.38 639.03 187.38 639.07 187.34 639.12 187.34 639.12 187.38 639.16 187.38 639.2 187.38 639.24 187.42 639.24 187.47 639.29 187.47"/><line class="cls-1" x1="639.29" y1="187.47" x2="639.29" y2="187.51"/><line class="cls-1" x1="639.29" y1="187.89" x2="639.37" y2="187.85"/><line class="cls-1" x1="639.67" y1="187.25" x2="639.62" y2="187.25"/><line class="cls-1" x1="639.29" y1="187.51" x2="639.29" y2="189.97"/><line class="cls-1" x1="638.9" y1="189.97" x2="638.9" y2="187.51"/><line class="cls-1" x1="639.62" y1="187.85" x2="639.67" y2="187.85"/><polyline class="cls-1" points="642.76 187.85 642.72 187.85 642.68 187.85 642.63 187.85 642.63 187.81"/><polyline class="cls-1" points="642.63 187.81 642.59 187.81 642.55 187.76 642.51 187.72 642.51 187.68 642.47 187.64 642.47 187.59 642.47 187.55 642.47 187.51 642.47 187.47 642.47 187.42 642.51 187.42 642.51 187.38 642.51 187.34 642.55 187.34 642.59 187.3"/><polyline class="cls-1" points="642.59 187.3 642.59 187.25 642.63 187.25"/><polyline class="cls-1" points="642.63 187.25 642.68 187.25 642.68 187.21 642.72 187.21 642.76 187.21 642.8 187.21 642.85 187.21"/><polyline class="cls-1" points="642.85 187.21 642.89 187.21 642.93 187.25 642.97 187.25 643.02 187.3 643.06 187.34 643.06 187.38 643.1 187.38 643.1 187.42 643.1 187.47 643.1 187.51"/><polyline class="cls-1" points="643.1 187.51 643.1 187.55 643.1 187.59 643.1 187.64 643.1 187.68 643.06 187.72"/><polyline class="cls-1" points="643.06 187.72 643.06 187.76 643.02 187.76 642.97 187.81 642.93 187.85 642.89 187.85 642.85 187.85 642.85 188.65 642.8 188.65 642.8 188.69 642.76 188.69 642.76 188.65 642.76 187.85"/><polyline class="cls-1" points="639.29 187.85 639.63 187.85 639.63 187.21"/><line class="cls-1" x1="639.62" y1="187.21" x2="639.16" y2="187.21"/><polyline class="cls-1" points="638.9 189.75 638.86 189.8 638.86 189.88"/><polygon class="cls-5" points="639.79 187.47 639.75 187.51 639.75 187.55 639.75 187.59 639.79 187.63 639.88 187.63 639.88 187.59 639.92 187.55 639.88 187.51 639.88 187.47 639.79 187.47"/><polyline class="cls-1" points="639.75 187.51 639.79 187.47 639.84 187.47 639.88 187.47 639.88 187.51"/><polyline class="cls-1" points="639.88 187.51 639.92 187.55 639.88 187.59 639.88 187.64 639.84 187.64 639.79 187.64 639.75 187.59 639.75 187.55 639.75 187.51"/><polygon class="cls-5" points="639.75 187.42 639.71 187.47 639.71 187.51 639.67 187.55 639.71 187.59 639.71 187.63 639.75 187.68 639.88 187.68 639.92 187.63 639.96 187.59 639.96 187.51 639.92 187.47 639.88 187.42 639.75 187.42"/><polyline class="cls-1" points="639.71 187.51 639.71 187.47 639.75 187.42 639.79 187.42 639.84 187.42 639.88 187.42 639.92 187.47 639.96 187.51"/><polyline class="cls-1" points="639.96 187.51 639.96 187.55 639.96 187.59 639.92 187.64 639.88 187.68 639.84 187.68 639.79 187.68 639.75 187.68 639.71 187.64 639.71 187.59 639.67 187.55 639.71 187.51"/><polyline class="cls-1" points="639.29 189.75 639.33 189.8 639.33 189.88"/><polygon class="cls-5" points="639.67 187.21 639.67 187.85 639.96 187.85 640.01 187.81 640.05 187.76 640.05 187.72 640.09 187.64 640.09 187.47 640.05 187.38 640.05 187.3 640.01 187.25 639.96 187.25 639.96 187.21 639.67 187.21"/><polyline class="cls-1" points="639.67 187.21 639.96 187.21 639.96 187.25 640.01 187.25 640.05 187.3 640.05 187.38 640.09 187.47 640.09 187.64 640.05 187.72"/><polyline class="cls-1" points="640.05 187.72 640.05 187.76 640.01 187.81 639.96 187.85 639.67 187.85 639.67 187.21"/><polyline class="cls-1" points="637.42 187.21 638.31 187.17 639.2 187.13 640.01 187.17 640.77 187.21 640.81 187.25 640.85 187.25 640.9 187.25 640.9 187.3 640.94 187.3 640.94 187.34 640.98 187.38 641.02 187.42 641.02 187.47 641.02 187.51"/><polyline class="cls-1" points="641.02 187.51 641.02 187.55 641.02 187.59 641.02 187.64 641.02 187.68 640.98 187.68 640.98 187.72"/><polyline class="cls-1" points="640.98 187.72 640.94 187.76 640.9 187.81 640.85 187.85 640.81 187.85 640.77 187.85 640.05 187.93 639.29 187.97"/><line class="cls-1" x1="639.29" y1="187.97" x2="639.29" y2="189.71"/><polyline class="cls-1" points="639.29 189.71 639.33 189.71 639.33 189.75 639.37 189.75 639.41 189.8 639.46 189.84 639.46 189.88 639.5 189.93 639.5 189.97 639.5 190.01 639.5 190.05 639.54 190.09 639.54 190.14 639.5 190.18 639.5 190.22 639.5 190.26 639.46 190.31 639.46 190.35 639.41 190.39 639.37 190.39 639.37 190.43 639.33 190.47 639.29 190.47"/><polyline class="cls-1" points="639.29 190.47 639.24 190.52 639.2 190.52 639.16 190.52 639.12 190.52 639.07 190.52 639.03 190.52 638.99 190.52 638.95 190.47 638.9 190.47 638.86 190.43 638.82 190.43 638.78 190.39 638.74 190.35 638.74 190.31 638.69 190.26 638.69 190.22 638.69 190.18"/><polyline class="cls-1" points="638.69 190.18 638.65 190.14 638.65 190.09 638.65 190.05 638.69 190.01 638.69 189.97 638.69 189.93 638.74 189.88 638.74 189.84 638.78 189.84 638.78 189.8 638.82 189.75 638.86 189.71"/><polyline class="cls-1" points="638.86 189.71 638.9 189.71 638.9 187.97"/><polyline class="cls-1" points="638.9 187.97 638.14 187.93 637.42 187.85 637.38 187.85 637.34 187.85 637.29 187.81"/><polyline class="cls-1" points="637.29 187.81 637.25 187.76 637.21 187.72 637.17 187.68 637.17 187.64 637.17 187.59 637.17 187.55 637.17 187.51 637.17 187.47 637.17 187.42 637.21 187.38 637.21 187.34 637.25 187.34 637.25 187.3"/><polyline class="cls-1" points="637.25 187.3 637.29 187.3 637.29 187.25 637.34 187.25 637.38 187.25 637.42 187.21"/><text class="cls-6" transform="translate(617.2 214.89)">O<tspan class="cls-7" x="5.08" y="0">P</tspan><tspan class="cls-8" x="9.41" y="0">T</tspan><tspan class="cls-9" x="13.31" y="0">.</tspan><tspan class="cls-10" x="15.17" y="0"> </tspan><tspan class="cls-11" x="16.97" y="0">W</tspan><tspan class="cls-12" x="23.1" y="0">E</tspan><tspan class="cls-13" x="27.43" y="0">T</tspan><tspan class="cls-14" x="31.33" y="0"> </tspan><tspan class="cls-15" x="33.18" y="0">B</tspan><tspan class="cls-16" x="37.45" y="0">A</tspan><tspan class="cls-10" x="41.79" y="0">R</tspan></text><polyline class="cls-1" points="608.73 229.72 608.73 245.11 610.59 245.11"/><path class="cls-1" d="M639.12,192.25a.47.47,0,1,0,.46.47A.47.47,0,0,0,639.12,192.25Z"/><polyline class="cls-2" points="610.68 244.65 610.72 244.56 610.76 244.44 610.8 244.31 610.85 244.18 610.89 244.06"/><rect class="cls-5" x="610.59" y="243.24" width="57.22" height="1.87"/><line class="cls-17" x1="610.59" y1="244.09" x2="611.44" y2="243.24"/><line class="cls-17" x1="611.06" y1="245.11" x2="612.92" y2="243.24"/><line class="cls-17" x1="614.41" y1="243.24" x2="612.58" y2="245.11"/><line class="cls-17" x1="614.07" y1="245.11" x2="615.93" y2="243.24"/><line class="cls-17" x1="615.55" y1="245.11" x2="617.42" y2="243.24"/><line class="cls-17" x1="617.08" y1="245.11" x2="618.94" y2="243.24"/><line class="cls-17" x1="618.56" y1="245.11" x2="620.43" y2="243.24"/><line class="cls-17" x1="620.05" y1="245.11" x2="621.91" y2="243.24"/><line class="cls-17" x1="621.57" y1="245.11" x2="623.44" y2="243.24"/><line class="cls-17" x1="623.05" y1="245.11" x2="624.92" y2="243.24"/><line class="cls-17" x1="626.4" y1="243.24" x2="624.58" y2="245.11"/><line class="cls-17" x1="626.06" y1="245.11" x2="627.93" y2="243.24"/><line class="cls-17" x1="627.55" y1="245.11" x2="629.41" y2="243.24"/><line class="cls-17" x1="630.9" y1="243.24" x2="629.07" y2="245.11"/><line class="cls-17" x1="630.56" y1="245.11" x2="632.42" y2="243.24"/><line class="cls-17" x1="632.04" y1="245.11" x2="633.91" y2="243.24"/><line class="cls-17" x1="635.39" y1="243.24" x2="633.57" y2="245.11"/><line class="cls-17" x1="635.05" y1="245.11" x2="636.91" y2="243.24"/><line class="cls-17" x1="636.53" y1="245.11" x2="638.4" y2="243.24"/><line class="cls-17" x1="639.88" y1="243.24" x2="638.06" y2="245.11"/><line class="cls-17" x1="639.54" y1="245.11" x2="641.41" y2="243.24"/><line class="cls-17" x1="641.03" y1="245.11" x2="642.89" y2="243.24"/><line class="cls-17" x1="642.55" y1="245.11" x2="644.42" y2="243.24"/><line class="cls-17" x1="644.03" y1="245.11" x2="645.9" y2="243.24"/><line class="cls-17" x1="647.38" y1="243.24" x2="645.56" y2="245.11"/><line class="cls-17" x1="647.04" y1="245.11" x2="648.91" y2="243.24"/><line class="cls-17" x1="648.53" y1="245.11" x2="650.39" y2="243.24"/><line class="cls-17" x1="651.88" y1="243.24" x2="650.05" y2="245.11"/><line class="cls-17" x1="651.54" y1="245.11" x2="653.4" y2="243.24"/><line class="cls-17" x1="653.02" y1="245.11" x2="654.89" y2="243.24"/><line class="cls-17" x1="656.37" y1="243.24" x2="654.54" y2="245.11"/><line class="cls-17" x1="656.03" y1="245.11" x2="657.89" y2="243.24"/><line class="cls-17" x1="657.51" y1="245.11" x2="659.38" y2="243.24"/><line class="cls-17" x1="660.86" y1="243.24" x2="659.04" y2="245.11"/><line class="cls-17" x1="660.52" y1="245.11" x2="662.39" y2="243.24"/><line class="cls-17" x1="662.01" y1="245.11" x2="663.87" y2="243.24"/><line class="cls-17" x1="663.53" y1="245.11" x2="665.4" y2="243.24"/><line class="cls-17" x1="665.01" y1="245.11" x2="666.88" y2="243.24"/><line class="cls-18" x1="666.5" y1="245.11" x2="667.81" y2="243.79"/><line class="cls-18" x1="667.6" y1="243.24" x2="667.81" y2="243.45"/><line class="cls-18" x1="666.12" y1="243.24" x2="667.81" y2="244.94"/><line class="cls-17" x1="664.63" y1="243.24" x2="666.5" y2="245.11"/><line class="cls-17" x1="663.11" y1="243.24" x2="664.97" y2="245.11"/><line class="cls-17" x1="661.62" y1="243.24" x2="663.49" y2="245.11"/><line class="cls-17" x1="660.14" y1="243.24" x2="661.96" y2="245.11"/><line class="cls-17" x1="658.61" y1="243.24" x2="660.48" y2="245.11"/><line class="cls-17" x1="657.13" y1="243.24" x2="659" y2="245.11"/><line class="cls-17" x1="655.65" y1="243.24" x2="657.47" y2="245.11"/><line class="cls-17" x1="654.12" y1="243.24" x2="655.99" y2="245.11"/><line class="cls-17" x1="652.64" y1="243.24" x2="654.5" y2="245.11"/><line class="cls-17" x1="651.16" y1="243.24" x2="652.98" y2="245.11"/><line class="cls-17" x1="649.63" y1="243.24" x2="651.49" y2="245.11"/><line class="cls-17" x1="648.15" y1="243.24" x2="650.01" y2="245.11"/><line class="cls-17" x1="646.62" y1="243.24" x2="648.49" y2="245.11"/><line class="cls-17" x1="645.14" y1="243.24" x2="647" y2="245.11"/><line class="cls-17" x1="643.65" y1="243.24" x2="645.52" y2="245.11"/><line class="cls-17" x1="642.13" y1="243.24" x2="643.99" y2="245.11"/><line class="cls-17" x1="640.64" y1="243.24" x2="642.51" y2="245.11"/><line class="cls-17" x1="639.16" y1="243.24" x2="640.98" y2="245.11"/><line class="cls-17" x1="637.63" y1="243.24" x2="639.5" y2="245.11"/><line class="cls-17" x1="636.15" y1="243.24" x2="638.02" y2="245.11"/><line class="cls-17" x1="634.67" y1="243.24" x2="636.49" y2="245.11"/><line class="cls-17" x1="633.14" y1="243.24" x2="635.01" y2="245.11"/><line class="cls-17" x1="631.66" y1="243.24" x2="633.52" y2="245.11"/><line class="cls-17" x1="630.17" y1="243.24" x2="632" y2="245.11"/><line class="cls-17" x1="628.65" y1="243.24" x2="630.51" y2="245.11"/><line class="cls-17" x1="627.17" y1="243.24" x2="629.03" y2="245.11"/><line class="cls-17" x1="625.68" y1="243.24" x2="627.5" y2="245.11"/><line class="cls-17" x1="624.16" y1="243.24" x2="626.02" y2="245.11"/><line class="cls-17" x1="622.67" y1="243.24" x2="624.54" y2="245.11"/><line class="cls-17" x1="621.15" y1="243.24" x2="623.01" y2="245.11"/><line class="cls-17" x1="619.66" y1="243.24" x2="621.53" y2="245.11"/><line class="cls-17" x1="618.18" y1="243.24" x2="620" y2="245.11"/><line class="cls-17" x1="616.65" y1="243.24" x2="618.52" y2="245.11"/><line class="cls-17" x1="615.17" y1="243.24" x2="617.04" y2="245.11"/><line class="cls-17" x1="613.69" y1="243.24" x2="615.51" y2="245.11"/><line class="cls-17" x1="612.16" y1="243.24" x2="614.03" y2="245.11"/><line class="cls-17" x1="610.68" y1="243.24" x2="612.54" y2="245.11"/><line class="cls-17" x1="610.59" y1="244.68" x2="611.02" y2="245.11"/><line class="cls-17" x1="608.73" y1="230.95" x2="609.96" y2="229.72"/><line class="cls-17" x1="608.73" y1="232.43" x2="610.59" y2="230.61"/><line class="cls-17" x1="608.73" y1="233.96" x2="610.59" y2="232.1"/><line class="cls-17" x1="608.73" y1="235.44" x2="610.59" y2="233.58"/><line class="cls-17" x1="608.73" y1="236.93" x2="610.59" y2="235.1"/><line class="cls-17" x1="608.73" y1="238.45" x2="610.59" y2="236.59"/><line class="cls-17" x1="608.73" y1="239.94" x2="610.59" y2="238.07"/><line class="cls-17" x1="608.73" y1="241.42" x2="610.59" y2="239.6"/><line class="cls-17" x1="608.73" y1="242.95" x2="610.59" y2="241.08"/><line class="cls-17" x1="608.73" y1="244.43" x2="610.59" y2="242.56"/><line class="cls-17" x1="609.58" y1="245.11" x2="610.59" y2="244.09"/><line class="cls-17" x1="609.15" y1="229.72" x2="610.59" y2="231.21"/><line class="cls-17" x1="608.73" y1="230.82" x2="610.59" y2="232.69"/><line class="cls-17" x1="608.73" y1="232.35" x2="610.59" y2="234.17"/><line class="cls-17" x1="608.73" y1="233.83" x2="610.59" y2="235.7"/><line class="cls-17" x1="608.73" y1="235.32" x2="610.59" y2="237.18"/><line class="cls-17" x1="608.73" y1="236.84" x2="610.59" y2="238.67"/><line class="cls-17" x1="608.73" y1="238.33" x2="610.59" y2="240.19"/><line class="cls-17" x1="608.73" y1="239.81" x2="610.59" y2="241.67"/><line class="cls-17" x1="608.73" y1="241.34" x2="610.59" y2="243.16"/><line class="cls-17" x1="608.73" y1="242.82" x2="610.59" y2="244.68"/><line class="cls-17" x1="608.73" y1="244.3" x2="609.53" y2="245.11"/><line class="cls-1" x1="608.73" y1="209.28" x2="608.73" y2="222.72"/><line class="cls-1" x1="608.73" y1="227.77" x2="608.73" y2="229.72"/><line class="cls-1" x1="610.59" y1="245.11" x2="667.81" y2="245.11"/><line class="cls-4" x1="667.81" y1="245.11" x2="667.81" y2="243.24"/><line class="cls-1" x1="667.81" y1="243.24" x2="610.59" y2="243.24"/><line class="cls-1" x1="608.73" y1="245.11" x2="610.59" y2="245.11"/><line class="cls-1" x1="610.59" y1="229.72" x2="608.73" y2="229.72"/><line class="cls-1" x1="610.59" y1="243.24" x2="610.59" y2="229.72"/></g></svg>