<svg id="图层_1" data-name="图层 1" xmlns="http://www.w3.org/2000/svg" viewBox="0 0 1152 576"><defs><style>.cls-1,.cls-2{fill:none;stroke:#0f577e;stroke-linecap:round;stroke-linejoin:bevel;}.cls-1{stroke-width:0.69px;}.cls-2{stroke-width:0.46px;}.cls-3{fill:#fff;fill-rule:evenodd;}.cls-4{font-size:6.5px;fill:#0f577e;font-family:CenturyGothic, Century Gothic;letter-spacing:-0.09em;}.cls-5{letter-spacing:0.07em;}.cls-6{letter-spacing:0.17em;}.cls-7{letter-spacing:0.01em;}.cls-8{letter-spacing:0em;}.cls-9{letter-spacing:-0.02em;}.cls-10{letter-spacing:0.13em;}.cls-11{letter-spacing:0.17em;}.cls-12{letter-spacing:0.01em;}.cls-13{letter-spacing:0.08em;}.cls-14{letter-spacing:-0.07em;}</style></defs><g id="OPT._WET_BAR_ON_GAMEROOM-1" data-name="OPT. WET BAR ON GAMEROOM-1"><line class="cls-1" x1="643.13" y1="139.81" x2="668.31" y2="139.81"/><polyline class="cls-1" points="643.13 139.81 624.06 139.81 599.35 139.81"/><line class="cls-1" x1="639.44" y1="138.75" x2="639.44" y2="127.1"/><line class="cls-1" x1="627.74" y1="127.1" x2="627.74" y2="138.75"/><line class="cls-1" x1="627.74" y1="138.75" x2="639.44" y2="138.75"/><polyline class="cls-2" points="633.68 128.33 633.68 128.28 633.72 128.28 633.76 128.24 633.76 128.2 633.8 128.16"/><polyline class="cls-2" points="633.8 128.16 633.8 128.12 633.8 128.07 633.8 128.03 633.8 127.99 633.8 127.95 633.76 127.95 633.76 127.9 633.72 127.86 633.68 127.82 633.63 127.78 633.59 127.78 633.55 127.73"/><polyline class="cls-2" points="633.55 127.73 633.51 127.73 633.47 127.73 633.42 127.78 633.38 127.78 633.34 127.78 633.3 127.82 633.25 127.82 633.25 127.86 633.21 127.86 633.21 127.9 633.21 127.95 633.17 127.99 633.17 128.03 633.17 128.07 633.17 128.12 633.17 128.16 633.21 128.2 633.21 128.24 633.25 128.29"/><line class="cls-2" x1="633.25" y1="128.28" x2="633.3" y2="128.33"/><line class="cls-2" x1="629.44" y1="129.09" x2="629.18" y2="129.18"/><polyline class="cls-2" points="629.18 129.18 628.97 129.3 628.76 129.47"/><line class="cls-2" x1="628.76" y1="129.47" x2="628.59" y2="129.64"/><line class="cls-2" x1="628.59" y1="129.64" x2="628.46" y2="129.9"/><polyline class="cls-2" points="628.47 129.9 628.38 130.15 628.38 130.41 628.38 136.55 628.38 136.81 628.47 137.06 628.59 137.27 628.76 137.48"/><line class="cls-2" x1="628.76" y1="137.48" x2="628.97" y2="137.65"/><line class="cls-2" x1="628.97" y1="137.65" x2="629.19" y2="137.78"/><line class="cls-2" x1="629.18" y1="137.78" x2="629.44" y2="137.86"/><polyline class="cls-3" points="627.7 138.75 627.49 138.54 627.49 127.27 627.7 127.1 639.49 127.1 639.7 127.27 639.7 138.54 639.49 138.75"/><line class="cls-2" x1="627.49" y1="138.54" x2="627.49" y2="127.27"/><polyline class="cls-2" points="639.7 127.27 639.7 138.54 639.48 138.75"/><polyline class="cls-2" points="639.49 138.75 627.7 138.75 627.49 138.54"/><polyline class="cls-2" points="633.68 129.09 637.49 129.09 637.75 129.13 638 129.18 638.21 129.3 638.42 129.47"/><line class="cls-2" x1="638.42" y1="129.47" x2="638.59" y2="129.68"/><line class="cls-2" x1="638.59" y1="129.68" x2="638.72" y2="129.9"/><polyline class="cls-2" points="638.72 129.9 638.76 130.15 638.81 130.41 638.81 136.55 638.76 136.81 638.72 137.06 638.59 137.27 638.42 137.48"/><line class="cls-2" x1="638.42" y1="137.48" x2="638.21" y2="137.65"/><line class="cls-2" x1="638.21" y1="137.65" x2="638" y2="137.74"/><polyline class="cls-2" points="638 137.74 637.75 137.82 637.49 137.86"/><polyline class="cls-2" points="637.49 137.86 629.69 137.86 629.44 137.82 629.18 137.74 628.97 137.65 628.76 137.48"/><line class="cls-2" x1="628.76" y1="137.48" x2="628.63" y2="137.27"/><polyline class="cls-2" points="628.63 137.27 628.51 137.06 628.42 136.8"/><polyline class="cls-2" points="628.42 136.81 628.38 136.55 628.38 130.41 628.42 130.15 628.51 129.9 628.63 129.68 628.76 129.47"/><line class="cls-2" x1="628.76" y1="129.47" x2="628.97" y2="129.3"/><line class="cls-2" x1="628.97" y1="129.3" x2="629.19" y2="129.17"/><polyline class="cls-2" points="629.18 129.18 629.44 129.13 629.69 129.09"/><line class="cls-2" x1="629.69" y1="129.09" x2="633.3" y2="129.09"/><path class="cls-2" d="M633.51,132.78a.47.47,0,1,0,0,.93.47.47,0,0,0,0-.93Z"/><polyline class="cls-2" points="633.76 127.73 633.72 127.73 633.68 127.69"/><polyline class="cls-2" points="633.68 127.69 633.63 127.69 633.59 127.65 633.55 127.65 633.51 127.65 633.47 127.65 633.42 127.65 633.38 127.65 633.34 127.69 633.3 127.69 633.25 127.73 633.21 127.78 633.17 127.78 633.17 127.82 633.13 127.86 633.13 127.9 633.09 127.95 633.09 127.99 633.09 128.03 633.09 128.07 633.09 128.12 633.09 128.16 633.13 128.2 633.13 128.24 633.13 128.29"/><polyline class="cls-2" points="633.13 128.28 633.17 128.33 633.21 128.37 633.25 128.41 633.3 128.41"/><polyline class="cls-2" points="633.3 128.03 633.3 127.99 633.34 127.95 633.38 127.9 633.42 127.9 633.47 127.86 633.51 127.86 633.51 127.9 633.55 127.9 633.59 127.9 633.63 127.95 633.63 127.99 633.68 127.99 633.68 128.03"/><path class="cls-2" d="M637.2,127.86a.22.22,0,0,0-.22.21.21.21,0,0,0,.22.21.21.21,0,0,0,.21-.21A.22.22,0,0,0,637.2,127.86Z"/><path class="cls-2" d="M637.2,127.82a.25.25,0,0,0-.26.25.26.26,0,1,0,.51,0A.25.25,0,0,0,637.2,127.82Z"/><line class="cls-2" x1="633.68" y1="128.41" x2="633.76" y2="128.37"/><line class="cls-2" x1="634.06" y1="127.78" x2="634.02" y2="127.78"/><line class="cls-2" x1="633.68" y1="128.03" x2="633.68" y2="130.49"/><line class="cls-2" x1="633.3" y1="130.49" x2="633.3" y2="128.03"/><line class="cls-2" x1="634.02" y1="128.37" x2="634.06" y2="128.37"/><polyline class="cls-2" points="637.15 128.37 637.11 128.37 637.07 128.37 637.03 128.37 637.03 128.33 636.98 128.33 636.94 128.28 636.9 128.24 636.9 128.2 636.86 128.16 636.86 128.12 636.86 128.07 636.86 128.03 636.86 127.99 636.86 127.95 636.9 127.95 636.9 127.9 636.9 127.86 636.94 127.86 636.98 127.82 636.98 127.78 637.03 127.78 637.07 127.78 637.07 127.73"/><polyline class="cls-2" points="637.07 127.73 637.11 127.73 637.15 127.73 637.2 127.73 637.24 127.73 637.28 127.73 637.32 127.78 637.37 127.78 637.41 127.82 637.45 127.86 637.45 127.9 637.49 127.9 637.49 127.95 637.49 127.99 637.49 128.03 637.49 128.07 637.49 128.12 637.49 128.16 637.49 128.2 637.45 128.24 637.45 128.29"/><polyline class="cls-2" points="637.45 128.28 637.41 128.28 637.37 128.33 637.32 128.37 637.28 128.37 637.24 128.37 637.24 129.18 637.2 129.18 637.2 129.22 637.15 129.22 637.15 129.18 637.15 128.37"/><polyline class="cls-2" points="633.68 128.37 634.02 128.37 634.02 127.73 633.55 127.73"/><polyline class="cls-2" points="633.3 130.28 633.25 130.32 633.25 130.41"/><polyline class="cls-3" points="634.14 128.07 634.14 128.03 634.19 127.99 634.27 127.99 634.27 128.03 634.31 128.07 634.27 128.12 634.27 128.16 634.19 128.16 634.14 128.12"/><polyline class="cls-2" points="634.14 128.03 634.19 127.99 634.23 127.99 634.27 127.99 634.27 128.03 634.31 128.07 634.27 128.12 634.27 128.16 634.23 128.16"/><polyline class="cls-2" points="634.23 128.16 634.19 128.16 634.14 128.12 634.14 128.07 634.14 128.03"/><polyline class="cls-3" points="634.06 128.07 634.1 128.03 634.1 127.99 634.14 127.95 634.27 127.95 634.31 127.99 634.36 128.03 634.36 128.12 634.31 128.16 634.27 128.2 634.14 128.2 634.1 128.16 634.1 128.12"/><polyline class="cls-2" points="634.1 128.03 634.1 127.99 634.14 127.95 634.19 127.95 634.23 127.95 634.27 127.95 634.31 127.99 634.36 128.03 634.36 128.07 634.36 128.12 634.31 128.16 634.27 128.2 634.23 128.2"/><polyline class="cls-2" points="634.23 128.2 634.19 128.2 634.14 128.2 634.1 128.16 634.1 128.12 634.06 128.07 634.1 128.03"/><polyline class="cls-2" points="633.68 130.28 633.72 130.32 633.72 130.41"/><polyline class="cls-3" points="634.06 128.37 634.06 127.73 634.36 127.73 634.36 127.78 634.4 127.78 634.44 127.82 634.44 127.9 634.48 127.99 634.48 128.16 634.44 128.24 634.44 128.28 634.4 128.33 634.36 128.37"/><polyline class="cls-2" points="634.06 127.73 634.36 127.73 634.36 127.78 634.4 127.78 634.44 127.82 634.44 127.9 634.48 127.99 634.48 128.16 634.44 128.24 634.44 128.29"/><polyline class="cls-2" points="634.44 128.28 634.4 128.33 634.36 128.37 634.06 128.37 634.06 127.73"/><line class="cls-2" x1="631.81" y1="127.73" x2="632.7" y2="127.69"/><polyline class="cls-2" points="632.7 127.69 633.59 127.65 634.4 127.69 635.16 127.73 635.2 127.78 635.25 127.78 635.29 127.78 635.29 127.82 635.33 127.82 635.33 127.86 635.37 127.9 635.42 127.95 635.42 127.99 635.42 128.03 635.42 128.07 635.42 128.12 635.42 128.16 635.42 128.2 635.37 128.2 635.37 128.24 635.33 128.29"/><polyline class="cls-2" points="635.33 128.28 635.29 128.33 635.25 128.37 635.2 128.37 635.16 128.37 634.44 128.46 633.68 128.5"/><polyline class="cls-2" points="633.68 128.5 633.68 130.24 633.72 130.24 633.72 130.28"/><polyline class="cls-2" points="633.72 130.28 633.76 130.28 633.8 130.32"/><polyline class="cls-2" points="633.8 130.32 633.85 130.36 633.85 130.41 633.89 130.45 633.89 130.49"/><polyline class="cls-2" points="633.89 130.49 633.89 130.53 633.89 130.57 633.93 130.62 633.93 130.66 633.89 130.7"/><polyline class="cls-2" points="633.89 130.7 633.89 130.74 633.89 130.79 633.85 130.83 633.85 130.87 633.8 130.91 633.76 130.91 633.76 130.96 633.72 131"/><polyline class="cls-2" points="633.72 131 633.68 131 633.63 131.04 633.59 131.04 633.55 131.04 633.51 131.04 633.47 131.04 633.42 131.04 633.38 131.04 633.34 131 633.3 131 633.25 130.96 633.21 130.96 633.17 130.91"/><line class="cls-2" x1="633.17" y1="130.91" x2="633.13" y2="130.87"/><polyline class="cls-2" points="633.13 130.87 633.13 130.83 633.09 130.79 633.09 130.74 633.09 130.7 633.04 130.66 633.04 130.62 633.04 130.57 633.09 130.53 633.09 130.49"/><polyline class="cls-2" points="633.09 130.49 633.09 130.45 633.13 130.41 633.13 130.36 633.17 130.36 633.17 130.32 633.21 130.28 633.25 130.24 633.3 130.24 633.3 128.5 632.53 128.46 631.81 128.37"/><polyline class="cls-2" points="631.81 128.37 631.77 128.37 631.73 128.37 631.68 128.33 631.64 128.28 631.6 128.24"/><polyline class="cls-2" points="631.6 128.24 631.56 128.2 631.56 128.16 631.56 128.12 631.56 128.07 631.56 128.03 631.56 127.99 631.56 127.95 631.6 127.9"/><polyline class="cls-2" points="631.6 127.9 631.6 127.86 631.64 127.86 631.64 127.82 631.68 127.82 631.68 127.78 631.73 127.78 631.77 127.78 631.81 127.73"/><path class="cls-3" d="M634,128.07l0-.08v0l.08,0c.17,0,.29,0,.26.22l0,.08h-.05l-.08,0h0l-.05,0h-.08v-.08"/><polyline class="cls-2" points="634.06 127.99 634.06 127.95 634.14 127.9 634.19 127.9 634.23 127.9 634.31 127.9 634.36 127.95 634.4 127.99 634.4 128.07"/><polyline class="cls-2" points="634.4 128.07 634.4 128.12 634.36 128.2 634.31 128.2 634.23 128.24"/><polyline class="cls-2" points="634.23 128.24 634.19 128.24 634.14 128.2 634.06 128.2 634.06 128.12 634.02 128.07"/><line class="cls-2" x1="634.02" y1="128.07" x2="634.06" y2="127.99"/><polyline class="cls-2" points="633.72 130.41 633.76 130.53 633.76 130.62 633.72 130.7"/><polyline class="cls-2" points="633.72 130.7 633.68 130.79 633.59 130.83 633.47 130.83 633.38 130.83 633.3 130.79 633.25 130.7 633.21 130.62 633.21 130.53 633.25 130.4"/><text class="cls-4" transform="translate(617.86 147.67)">O<tspan class="cls-5" x="5.08" y="0">P</tspan><tspan class="cls-6" x="9.41" y="0">T</tspan><tspan class="cls-7" x="13.31" y="0">.</tspan><tspan class="cls-8" x="15.17" y="0"> </tspan><tspan class="cls-9" x="16.97" y="0">W</tspan><tspan class="cls-10" x="23.1" y="0">E</tspan><tspan class="cls-11" x="27.43" y="0">T</tspan><tspan class="cls-12" x="31.33" y="0"> </tspan><tspan class="cls-13" x="33.18" y="0">B</tspan><tspan class="cls-14" x="37.45" y="0">A</tspan><tspan class="cls-8" x="41.79" y="0">R</tspan></text></g></svg>