<svg id="图层_1" data-name="图层 1" xmlns="http://www.w3.org/2000/svg" viewBox="0 0 1152 576"><defs><style>.cls-1,.cls-2{fill:none;stroke:#0f577e;stroke-linecap:round;stroke-linejoin:bevel;}.cls-1{stroke-width:0.69px;}.cls-2{stroke-width:0.46px;}.cls-3{fill:#fff;fill-rule:evenodd;}.cls-4{font-size:6.5px;fill:#0f577e;font-family:CenturyGothic, Century Gothic;letter-spacing:-0.09em;}.cls-5{letter-spacing:0.07em;}.cls-6{letter-spacing:0.17em;}.cls-7{letter-spacing:0.01em;}.cls-8{letter-spacing:0em;}.cls-9{letter-spacing:-0.02em;}.cls-10{letter-spacing:0.13em;}.cls-11{letter-spacing:0.17em;}.cls-12{letter-spacing:0.01em;}.cls-13{letter-spacing:0.08em;}.cls-14{letter-spacing:-0.07em;}</style></defs><g id="OPT._WET_BAR_ON_GAMEROOM-2" data-name="OPT. WET BAR ON GAMEROOM-2"><line class="cls-1" x1="643.13" y1="126.22" x2="668.31" y2="126.22"/><polyline class="cls-1" points="643.13 126.22 624.06 126.22 599.35 126.22"/><line class="cls-1" x1="639.44" y1="125.16" x2="639.44" y2="113.5"/><line class="cls-1" x1="627.74" y1="113.5" x2="627.74" y2="125.16"/><line class="cls-1" x1="627.74" y1="125.16" x2="639.44" y2="125.16"/><polyline class="cls-2" points="633.68 114.73 633.68 114.69 633.72 114.69 633.76 114.65 633.76 114.61 633.8 114.56"/><polyline class="cls-2" points="633.8 114.56 633.8 114.52 633.8 114.48 633.8 114.44 633.8 114.39 633.8 114.35 633.76 114.35 633.76 114.31 633.72 114.27 633.68 114.22 633.63 114.18 633.59 114.18 633.55 114.14"/><polyline class="cls-2" points="633.55 114.14 633.51 114.14 633.47 114.14 633.42 114.18 633.38 114.18 633.34 114.18 633.3 114.22 633.25 114.22 633.25 114.27 633.21 114.27 633.21 114.31 633.21 114.35 633.17 114.39 633.17 114.44 633.17 114.48 633.17 114.52 633.17 114.56 633.21 114.61 633.21 114.65 633.25 114.69"/><line class="cls-2" x1="633.25" y1="114.69" x2="633.3" y2="114.73"/><line class="cls-2" x1="629.44" y1="115.5" x2="629.18" y2="115.58"/><polyline class="cls-2" points="629.18 115.58 628.97 115.71 628.76 115.88"/><line class="cls-2" x1="628.76" y1="115.88" x2="628.59" y2="116.05"/><line class="cls-2" x1="628.59" y1="116.05" x2="628.46" y2="116.3"/><polyline class="cls-2" points="628.47 116.3 628.38 116.56 628.38 116.81 628.38 122.95 628.38 123.21 628.47 123.46 628.59 123.68 628.76 123.89"/><line class="cls-2" x1="628.76" y1="123.89" x2="628.97" y2="124.06"/><line class="cls-2" x1="628.97" y1="124.06" x2="629.19" y2="124.18"/><line class="cls-2" x1="629.18" y1="124.18" x2="629.44" y2="124.27"/><polyline class="cls-3" points="627.7 125.16 627.49 124.95 627.49 113.67 627.7 113.5 639.49 113.5 639.7 113.67 639.7 124.95 639.49 125.16"/><line class="cls-2" x1="627.49" y1="124.95" x2="627.49" y2="113.67"/><polyline class="cls-2" points="639.7 113.67 639.7 124.95 639.48 125.16"/><polyline class="cls-2" points="639.49 125.16 627.7 125.16 627.49 124.95"/><polyline class="cls-2" points="633.68 115.5 637.49 115.5 637.75 115.54 638 115.58 638.21 115.71 638.42 115.88"/><line class="cls-2" x1="638.42" y1="115.88" x2="638.59" y2="116.09"/><line class="cls-2" x1="638.59" y1="116.09" x2="638.72" y2="116.3"/><polyline class="cls-2" points="638.72 116.3 638.76 116.56 638.81 116.81 638.81 122.95 638.76 123.21 638.72 123.46 638.59 123.68 638.42 123.89"/><line class="cls-2" x1="638.42" y1="123.89" x2="638.21" y2="124.06"/><line class="cls-2" x1="638.21" y1="124.06" x2="638" y2="124.14"/><polyline class="cls-2" points="638 124.14 637.75 124.23 637.49 124.27"/><polyline class="cls-2" points="637.49 124.27 629.69 124.27 629.44 124.23 629.18 124.14 628.97 124.06 628.76 123.89"/><line class="cls-2" x1="628.76" y1="123.89" x2="628.63" y2="123.68"/><polyline class="cls-2" points="628.63 123.68 628.51 123.46 628.42 123.21"/><polyline class="cls-2" points="628.42 123.21 628.38 122.95 628.38 116.81 628.42 116.56 628.51 116.3 628.63 116.09 628.76 115.88"/><line class="cls-2" x1="628.76" y1="115.88" x2="628.97" y2="115.71"/><line class="cls-2" x1="628.97" y1="115.71" x2="629.19" y2="115.58"/><polyline class="cls-2" points="629.18 115.58 629.44 115.54 629.69 115.5"/><line class="cls-2" x1="629.69" y1="115.5" x2="633.3" y2="115.5"/><path class="cls-2" d="M633.51,119.18a.47.47,0,0,0-.47.47.46.46,0,0,0,.47.46.45.45,0,0,0,.46-.46A.46.46,0,0,0,633.51,119.18Z"/><polyline class="cls-2" points="633.76 114.14 633.72 114.14 633.68 114.1"/><polyline class="cls-2" points="633.68 114.1 633.63 114.1 633.59 114.06 633.55 114.06 633.51 114.06 633.47 114.06 633.42 114.06 633.38 114.06 633.34 114.1 633.3 114.1 633.25 114.14 633.21 114.18 633.17 114.18 633.17 114.22 633.13 114.27 633.13 114.31 633.09 114.35 633.09 114.39 633.09 114.44 633.09 114.48 633.09 114.52 633.09 114.56 633.13 114.61 633.13 114.65 633.13 114.69"/><polyline class="cls-2" points="633.13 114.69 633.17 114.73 633.21 114.78 633.25 114.82 633.3 114.82"/><polyline class="cls-2" points="633.3 114.44 633.3 114.39 633.34 114.35 633.38 114.31 633.42 114.31 633.47 114.27 633.51 114.27 633.51 114.31 633.55 114.31 633.59 114.31 633.63 114.35 633.63 114.39 633.68 114.39 633.68 114.44"/><path class="cls-2" d="M637.2,114.27a.21.21,0,1,0,0,.42.21.21,0,1,0,0-.42Z"/><path class="cls-2" d="M637.2,114.22a.26.26,0,0,0-.26.26.26.26,0,0,0,.51,0A.26.26,0,0,0,637.2,114.22Z"/><line class="cls-2" x1="633.68" y1="114.82" x2="633.76" y2="114.77"/><line class="cls-2" x1="634.06" y1="114.18" x2="634.02" y2="114.18"/><line class="cls-2" x1="633.68" y1="114.44" x2="633.68" y2="116.89"/><line class="cls-2" x1="633.3" y1="116.89" x2="633.3" y2="114.44"/><line class="cls-2" x1="634.02" y1="114.77" x2="634.06" y2="114.77"/><polyline class="cls-2" points="637.15 114.78 637.11 114.78 637.07 114.78 637.03 114.78 637.03 114.73 636.98 114.73 636.94 114.69 636.9 114.65 636.9 114.61 636.86 114.56 636.86 114.52 636.86 114.48 636.86 114.44 636.86 114.39 636.86 114.35 636.9 114.35 636.9 114.31 636.9 114.27 636.94 114.27 636.98 114.22 636.98 114.18 637.03 114.18 637.07 114.18 637.07 114.14"/><polyline class="cls-2" points="637.07 114.14 637.11 114.14 637.15 114.14 637.2 114.14 637.24 114.14 637.28 114.14 637.32 114.18 637.37 114.18 637.41 114.22 637.45 114.27 637.45 114.31 637.49 114.31 637.49 114.35 637.49 114.39 637.49 114.44 637.49 114.48 637.49 114.52 637.49 114.56 637.49 114.61 637.45 114.65 637.45 114.69"/><polyline class="cls-2" points="637.45 114.69 637.41 114.69 637.37 114.73 637.32 114.78 637.28 114.78 637.24 114.78 637.24 115.58 637.2 115.58 637.2 115.62 637.15 115.62 637.15 115.58 637.15 114.78"/><polyline class="cls-2" points="633.68 114.78 634.02 114.78 634.02 114.14 633.55 114.14"/><polyline class="cls-2" points="633.3 116.68 633.25 116.72 633.25 116.81"/><polyline class="cls-3" points="634.14 114.48 634.14 114.44 634.19 114.39 634.27 114.39 634.27 114.44 634.31 114.48 634.27 114.52 634.27 114.56 634.19 114.56 634.14 114.52"/><polyline class="cls-2" points="634.14 114.44 634.19 114.39 634.23 114.39 634.27 114.39 634.27 114.44 634.31 114.48 634.27 114.52 634.27 114.56 634.23 114.56"/><polyline class="cls-2" points="634.23 114.56 634.19 114.56 634.14 114.52 634.14 114.48 634.14 114.44"/><polyline class="cls-3" points="634.06 114.48 634.1 114.44 634.1 114.39 634.14 114.35 634.27 114.35 634.31 114.39 634.36 114.44 634.36 114.52 634.31 114.56 634.27 114.61 634.14 114.61 634.1 114.56 634.1 114.52"/><polyline class="cls-2" points="634.1 114.44 634.1 114.39 634.14 114.35 634.19 114.35 634.23 114.35 634.27 114.35 634.31 114.39 634.36 114.44 634.36 114.48 634.36 114.52 634.31 114.56 634.27 114.61 634.23 114.61"/><polyline class="cls-2" points="634.23 114.61 634.19 114.61 634.14 114.61 634.1 114.56 634.1 114.52 634.06 114.48 634.1 114.44"/><polyline class="cls-2" points="633.68 116.68 633.72 116.72 633.72 116.81"/><polyline class="cls-3" points="634.06 114.78 634.06 114.14 634.36 114.14 634.36 114.18 634.4 114.18 634.44 114.22 634.44 114.31 634.48 114.39 634.48 114.56 634.44 114.65 634.44 114.69 634.4 114.73 634.36 114.78"/><polyline class="cls-2" points="634.06 114.14 634.36 114.14 634.36 114.18 634.4 114.18 634.44 114.22 634.44 114.31 634.48 114.39 634.48 114.56 634.44 114.65 634.44 114.69"/><polyline class="cls-2" points="634.44 114.69 634.4 114.73 634.36 114.78 634.06 114.78 634.06 114.14"/><line class="cls-2" x1="631.81" y1="114.14" x2="632.7" y2="114.1"/><polyline class="cls-2" points="632.7 114.1 633.59 114.06 634.4 114.1 635.16 114.14 635.2 114.18 635.25 114.18 635.29 114.18 635.29 114.22 635.33 114.22 635.33 114.27 635.37 114.31 635.42 114.35 635.42 114.39 635.42 114.44 635.42 114.48 635.42 114.52 635.42 114.56 635.42 114.61 635.37 114.61 635.37 114.65 635.33 114.69"/><polyline class="cls-2" points="635.33 114.69 635.29 114.73 635.25 114.78 635.2 114.78 635.16 114.78 634.44 114.86 633.68 114.9"/><polyline class="cls-2" points="633.68 114.9 633.68 116.64 633.72 116.64 633.72 116.68"/><polyline class="cls-2" points="633.72 116.68 633.76 116.68 633.8 116.72"/><polyline class="cls-2" points="633.8 116.72 633.85 116.77 633.85 116.81 633.89 116.85 633.89 116.89"/><polyline class="cls-2" points="633.89 116.89 633.89 116.94 633.89 116.98 633.93 117.02 633.93 117.06 633.89 117.11"/><polyline class="cls-2" points="633.89 117.11 633.89 117.15 633.89 117.19 633.85 117.23 633.85 117.28 633.8 117.32 633.76 117.32 633.76 117.36 633.72 117.4"/><polyline class="cls-2" points="633.72 117.4 633.68 117.4 633.63 117.44 633.59 117.44 633.55 117.44 633.51 117.44 633.47 117.44 633.42 117.44 633.38 117.44 633.34 117.4 633.3 117.4 633.25 117.36 633.21 117.36 633.17 117.32"/><line class="cls-2" x1="633.17" y1="117.32" x2="633.13" y2="117.28"/><polyline class="cls-2" points="633.13 117.28 633.13 117.23 633.09 117.19 633.09 117.15 633.09 117.11 633.04 117.06 633.04 117.02 633.04 116.98 633.09 116.94 633.09 116.89"/><polyline class="cls-2" points="633.09 116.89 633.09 116.85 633.13 116.81 633.13 116.77 633.17 116.77 633.17 116.72 633.21 116.68 633.25 116.64 633.3 116.64 633.3 114.9 632.53 114.86 631.81 114.78"/><polyline class="cls-2" points="631.81 114.78 631.77 114.78 631.73 114.78 631.68 114.73 631.64 114.69 631.6 114.65"/><polyline class="cls-2" points="631.6 114.65 631.56 114.61 631.56 114.56 631.56 114.52 631.56 114.48 631.56 114.44 631.56 114.39 631.56 114.35 631.6 114.31"/><polyline class="cls-2" points="631.6 114.31 631.6 114.27 631.64 114.27 631.64 114.22 631.68 114.22 631.68 114.18 631.73 114.18 631.77 114.18 631.81 114.14"/><path class="cls-3" d="M634,114.48l0-.09v0l.08,0c.17,0,.29,0,.26.21l0,.09h-.05l-.08,0h0l-.05,0h-.08v-.09"/><polyline class="cls-2" points="634.06 114.39 634.06 114.35 634.14 114.31 634.19 114.31 634.23 114.31 634.31 114.31 634.36 114.35 634.4 114.39 634.4 114.48"/><polyline class="cls-2" points="634.4 114.48 634.4 114.52 634.36 114.61 634.31 114.61 634.23 114.65"/><polyline class="cls-2" points="634.23 114.65 634.19 114.65 634.14 114.61 634.06 114.61 634.06 114.52 634.02 114.48"/><line class="cls-2" x1="634.02" y1="114.48" x2="634.06" y2="114.39"/><polyline class="cls-2" points="633.72 116.81 633.76 116.94 633.76 117.02 633.72 117.11"/><polyline class="cls-2" points="633.72 117.11 633.68 117.19 633.59 117.23 633.47 117.23 633.38 117.23 633.3 117.19 633.25 117.11 633.21 117.02 633.21 116.94 633.25 116.81"/><text class="cls-4" transform="translate(617.86 134.08)">O<tspan class="cls-5" x="5.08" y="0">P</tspan><tspan class="cls-6" x="9.41" y="0">T</tspan><tspan class="cls-7" x="13.31" y="0">.</tspan><tspan class="cls-8" x="15.17" y="0"> </tspan><tspan class="cls-9" x="16.97" y="0">W</tspan><tspan class="cls-10" x="23.1" y="0">E</tspan><tspan class="cls-11" x="27.43" y="0">T</tspan><tspan class="cls-12" x="31.33" y="0"> </tspan><tspan class="cls-13" x="33.18" y="0">B</tspan><tspan class="cls-14" x="37.45" y="0">A</tspan><tspan class="cls-8" x="41.79" y="0">R</tspan></text></g></svg>