<svg id="图层_1" data-name="图层 1" xmlns="http://www.w3.org/2000/svg" viewBox="0 0 1152 576"><defs><style>.cls-1{fill:#fff;}.cls-2,.cls-3{fill:none;stroke:#0f5a83;stroke-linecap:round;stroke-linejoin:bevel;}.cls-2{stroke-width:0.93px;}.cls-3{stroke-width:0.46px;}.cls-4{font-size:6.6px;fill:#0f5a83;font-family:CenturyGothic, Century Gothic;}</style></defs><title>opt window at  living</title><g id="opt_window_at_living" data-name="opt window at  living"><g id="opt_window_at_living1" data-name="opt window at living1"><rect class="cls-1" x="404.09" y="374.09" width="15.57" height="5.13" transform="translate(788.54 -35.22) rotate(90)"/><line class="cls-2" x1="411.36" y1="384.45" x2="413.2" y2="384.45"/><line class="cls-2" x1="411.36" y1="369.7" x2="413.2" y2="369.7"/><line class="cls-3" x1="410.86" y1="369.7" x2="410.86" y2="370.08"/><line class="cls-3" x1="413.45" y1="369.7" x2="413.45" y2="370.08"/><line class="cls-3" x1="410.86" y1="369.7" x2="413.45" y2="369.7"/><line class="cls-3" x1="410.86" y1="370.08" x2="413.45" y2="370.08"/><line class="cls-3" x1="410.86" y1="384.11" x2="410.86" y2="384.45"/><line class="cls-3" x1="413.45" y1="384.11" x2="413.45" y2="384.45"/><line class="cls-3" x1="410.86" y1="384.11" x2="413.45" y2="384.11"/><line class="cls-3" x1="410.86" y1="384.45" x2="413.45" y2="384.45"/><line class="cls-3" x1="411.53" y1="369.43" x2="411.53" y2="384.11"/><line class="cls-3" x1="411.95" y1="369.43" x2="411.95" y2="384.11"/><polyline class="cls-3" points="410.86 387 409.31 387 409.31 366.57"/><line class="cls-3" x1="410.86" y1="366.57" x2="409.31" y2="366.57"/><polyline class="cls-3" points="410.86 369.7 409.81 369.7 409.81 366.57"/><line class="cls-3" x1="410.86" y1="366.57" x2="409.81" y2="366.57"/><line class="cls-3" x1="410.86" y1="384.45" x2="409.81" y2="384.45"/><line class="cls-3" x1="409.81" y1="387" x2="409.81" y2="384.45"/><line class="cls-3" x1="410.86" y1="387" x2="409.81" y2="387"/><line class="cls-3" x1="413.45" y1="368.07" x2="414.33" y2="368.07"/><line class="cls-3" x1="414.33" y1="385.78" x2="414.33" y2="367.8"/><line class="cls-3" x1="413.45" y1="385.78" x2="414.33" y2="385.78"/><line class="cls-3" x1="413.45" y1="384.17" x2="413.78" y2="384.17"/><line class="cls-3" x1="413.78" y1="385.57" x2="413.78" y2="384.18"/><line class="cls-3" x1="413.45" y1="385.57" x2="413.78" y2="385.57"/><line class="cls-3" x1="413.45" y1="385.57" x2="413.45" y2="384.18"/><line class="cls-3" x1="413.45" y1="370.04" x2="413.78" y2="370.04"/><line class="cls-3" x1="413.78" y1="370.04" x2="413.78" y2="368.33"/><line class="cls-3" x1="413.45" y1="368.32" x2="413.78" y2="368.32"/><line class="cls-3" x1="413.45" y1="370.04" x2="413.45" y2="368.33"/><text class="cls-4" transform="translate(407.5 383.48) rotate(-90)"><tspan xml:space="preserve"> OPT </tspan></text></g><g id="opt_window_at_living2" data-name="opt window at living2"><rect class="cls-1" x="404.57" y="413.71" width="15.57" height="5.13" transform="translate(828.63 3.92) rotate(90)"/><line class="cls-2" x1="411.84" y1="424.06" x2="413.68" y2="424.06"/><line class="cls-2" x1="411.84" y1="409.32" x2="413.68" y2="409.32"/><line class="cls-3" x1="411.34" y1="409.32" x2="411.34" y2="409.7"/><line class="cls-3" x1="413.93" y1="409.32" x2="413.93" y2="409.7"/><line class="cls-3" x1="411.34" y1="409.32" x2="413.93" y2="409.32"/><line class="cls-3" x1="411.34" y1="409.7" x2="413.93" y2="409.7"/><line class="cls-3" x1="411.34" y1="423.72" x2="411.34" y2="424.06"/><line class="cls-3" x1="413.93" y1="423.72" x2="413.93" y2="424.06"/><line class="cls-3" x1="411.34" y1="423.72" x2="413.93" y2="423.72"/><line class="cls-3" x1="411.34" y1="424.06" x2="413.93" y2="424.06"/><line class="cls-3" x1="412" y1="409.05" x2="412" y2="423.72"/><line class="cls-3" x1="412.42" y1="409.05" x2="412.42" y2="423.72"/><polyline class="cls-3" points="411.34 426.62 409.79 426.62 409.79 406.18"/><line class="cls-3" x1="411.34" y1="406.18" x2="409.79" y2="406.18"/><polyline class="cls-3" points="411.34 409.32 410.29 409.32 410.29 406.18"/><line class="cls-3" x1="411.34" y1="406.18" x2="410.29" y2="406.18"/><line class="cls-3" x1="411.34" y1="424.06" x2="410.29" y2="424.06"/><line class="cls-3" x1="410.29" y1="426.62" x2="410.29" y2="424.06"/><line class="cls-3" x1="411.34" y1="426.62" x2="410.29" y2="426.62"/><line class="cls-3" x1="413.93" y1="407.69" x2="414.8" y2="407.69"/><line class="cls-3" x1="414.8" y1="425.39" x2="414.8" y2="407.41"/><line class="cls-3" x1="413.93" y1="425.39" x2="414.8" y2="425.39"/><line class="cls-3" x1="413.93" y1="423.79" x2="414.26" y2="423.79"/><line class="cls-3" x1="414.26" y1="425.19" x2="414.26" y2="423.79"/><line class="cls-3" x1="413.93" y1="425.19" x2="414.26" y2="425.19"/><line class="cls-3" x1="413.93" y1="425.19" x2="413.93" y2="423.79"/><line class="cls-3" x1="413.93" y1="409.65" x2="414.26" y2="409.65"/><line class="cls-3" x1="414.26" y1="409.65" x2="414.26" y2="407.94"/><line class="cls-3" x1="413.93" y1="407.94" x2="414.26" y2="407.94"/><line class="cls-3" x1="413.93" y1="409.65" x2="413.93" y2="407.94"/><text class="cls-4" transform="translate(407.97 423.1) rotate(-90)"><tspan xml:space="preserve"> OPT </tspan></text></g></g></svg>