<svg id="图层_1" data-name="图层 1" xmlns="http://www.w3.org/2000/svg" viewBox="0 0 1152 576"><defs><style>.cls-1{fill:#fff;}.cls-2,.cls-3,.cls-4{fill:none;stroke:#0f5a83;stroke-linejoin:bevel;}.cls-2{stroke-width:0;}.cls-3,.cls-4{stroke-linecap:round;}.cls-3{stroke-width:0.93px;}.cls-4{stroke-width:0.46px;}.cls-5{font-size:6.6px;fill:#0f5a83;font-family:CenturyGothic, Century Gothic;}</style></defs><title>OPT SUNROOM window</title><g id="_OPT_SUNROOM" data-name=" OPT SUNROOM"><g id="_OPT_SUNROOM_window" data-name=" OPT SUNROOM window"><rect class="cls-1" x="666.92" y="139.83" width="4.39" height="36.05"/><line class="cls-2" x1="667.71" y1="137.69" x2="667.96" y2="137.93"/><line class="cls-3" x1="668.21" y1="175.88" x2="670.01" y2="175.88"/><line class="cls-3" x1="668.21" y1="139.47" x2="670.01" y2="139.47"/><line class="cls-4" x1="667.59" y1="157.68" x2="670.43" y2="157.68"/><line class="cls-4" x1="667.71" y1="157.68" x2="667.71" y2="158.04"/><line class="cls-4" x1="670.3" y1="157.68" x2="670.3" y2="158.04"/><line class="cls-4" x1="667.71" y1="157.68" x2="670.3" y2="157.68"/><line class="cls-4" x1="667.71" y1="158.04" x2="670.3" y2="158.04"/><line class="cls-4" x1="667.71" y1="175.48" x2="667.71" y2="175.88"/><line class="cls-4" x1="670.3" y1="175.48" x2="670.3" y2="175.88"/><line class="cls-4" x1="667.71" y1="175.48" x2="670.3" y2="175.48"/><line class="cls-4" x1="667.71" y1="175.88" x2="670.3" y2="175.88"/><line class="cls-4" x1="668.34" y1="158.04" x2="668.34" y2="175.48"/><line class="cls-4" x1="668.76" y1="158.04" x2="668.76" y2="175.48"/><line class="cls-4" x1="667.59" y1="157.68" x2="670.43" y2="157.68"/><line class="cls-4" x1="667.59" y1="157.68" x2="667.59" y2="157.68"/><line class="cls-4" x1="670.43" y1="157.68" x2="670.43" y2="157.68"/><line class="cls-4" x1="667.71" y1="139.47" x2="667.71" y2="139.83"/><line class="cls-4" x1="670.3" y1="139.47" x2="670.3" y2="139.83"/><line class="cls-4" x1="667.71" y1="139.47" x2="670.3" y2="139.47"/><line class="cls-4" x1="667.71" y1="139.83" x2="670.3" y2="139.83"/><line class="cls-4" x1="667.71" y1="157.27" x2="667.71" y2="157.68"/><line class="cls-4" x1="670.3" y1="157.27" x2="670.3" y2="157.68"/><line class="cls-4" x1="667.71" y1="157.27" x2="670.3" y2="157.27"/><line class="cls-4" x1="667.71" y1="157.68" x2="670.3" y2="157.68"/><line class="cls-4" x1="668.34" y1="139.83" x2="668.34" y2="157.27"/><line class="cls-4" x1="668.76" y1="139.83" x2="668.76" y2="157.27"/><polyline class="cls-4" points="667.71 177.46 666.88 177.46 666.88 137.89"/><line class="cls-4" x1="667.71" y1="137.89" x2="666.87" y2="137.89"/><polyline class="cls-4" points="667.71 139.79 667.38 139.79 667.38 138.13"/><line class="cls-4" x1="667.71" y1="138.13" x2="667.38" y2="138.13"/><line class="cls-4" x1="667.71" y1="139.79" x2="667.71" y2="138.13"/><line class="cls-4" x1="667.71" y1="175.56" x2="667.38" y2="175.56"/><line class="cls-4" x1="667.38" y1="177.22" x2="667.38" y2="175.56"/><line class="cls-4" x1="667.71" y1="177.22" x2="667.38" y2="177.22"/><line class="cls-4" x1="667.71" y1="177.22" x2="667.71" y2="175.56"/><line class="cls-4" x1="670.3" y1="137.89" x2="671.14" y2="137.89"/><line class="cls-4" x1="671.14" y1="177.46" x2="671.14" y2="137.89"/><line class="cls-4" x1="670.3" y1="177.46" x2="671.14" y2="177.46"/><line class="cls-4" x1="670.3" y1="175.56" x2="670.64" y2="175.56"/><line class="cls-4" x1="670.64" y1="177.22" x2="670.64" y2="175.56"/><line class="cls-4" x1="670.3" y1="177.22" x2="670.64" y2="177.22"/><line class="cls-4" x1="670.3" y1="177.22" x2="670.3" y2="175.56"/><polyline class="cls-4" points="670.3 139.79 670.64 139.79 670.64 138.13"/><line class="cls-4" x1="670.3" y1="138.13" x2="670.64" y2="138.13"/><line class="cls-4" x1="670.3" y1="139.79" x2="670.3" y2="138.13"/><text class="cls-5" transform="translate(678.16 165.8) rotate(-90)"><tspan xml:space="preserve"> OPT</tspan></text><rect class="cls-1" x="600.25" y="139.83" width="4.39" height="36.05" transform="translate(1204.88 315.71) rotate(-180)"/><line class="cls-2" x1="603.84" y1="137.69" x2="603.59" y2="137.93"/><line class="cls-2" x1="603.84" y1="175.88" x2="601.25" y2="175.88"/><line class="cls-2" x1="603.84" y1="139.47" x2="601.25" y2="139.47"/><line class="cls-3" x1="603.34" y1="175.88" x2="601.54" y2="175.88"/><line class="cls-3" x1="603.34" y1="139.47" x2="601.54" y2="139.47"/><line class="cls-4" x1="603.96" y1="157.68" x2="601.12" y2="157.68"/><line class="cls-4" x1="603.84" y1="157.68" x2="603.84" y2="158.04"/><line class="cls-4" x1="601.25" y1="157.68" x2="601.25" y2="158.04"/><line class="cls-4" x1="603.84" y1="157.68" x2="601.25" y2="157.68"/><line class="cls-4" x1="603.84" y1="158.04" x2="601.25" y2="158.04"/><line class="cls-4" x1="603.84" y1="175.48" x2="603.84" y2="175.88"/><line class="cls-4" x1="601.25" y1="175.48" x2="601.25" y2="175.88"/><line class="cls-4" x1="603.84" y1="175.48" x2="601.25" y2="175.48"/><line class="cls-4" x1="603.84" y1="175.88" x2="601.25" y2="175.88"/><line class="cls-4" x1="603.21" y1="158.04" x2="603.21" y2="175.48"/><line class="cls-4" x1="602.79" y1="158.04" x2="602.79" y2="175.48"/><line class="cls-4" x1="603.96" y1="157.68" x2="601.12" y2="157.68"/><line class="cls-4" x1="603.96" y1="157.68" x2="603.96" y2="157.68"/><line class="cls-4" x1="601.12" y1="157.68" x2="601.12" y2="157.68"/><line class="cls-4" x1="603.84" y1="139.47" x2="603.84" y2="139.83"/><line class="cls-4" x1="601.25" y1="139.47" x2="601.25" y2="139.83"/><line class="cls-4" x1="603.84" y1="139.47" x2="601.25" y2="139.47"/><line class="cls-4" x1="603.84" y1="139.83" x2="601.25" y2="139.83"/><line class="cls-4" x1="603.84" y1="157.27" x2="603.84" y2="157.68"/><line class="cls-4" x1="601.25" y1="157.27" x2="601.25" y2="157.68"/><line class="cls-4" x1="603.84" y1="157.27" x2="601.25" y2="157.27"/><line class="cls-4" x1="603.84" y1="157.68" x2="601.25" y2="157.68"/><line class="cls-4" x1="603.21" y1="139.83" x2="603.21" y2="157.27"/><line class="cls-4" x1="602.79" y1="139.83" x2="602.79" y2="157.27"/><polyline class="cls-4" points="603.84 177.46 604.67 177.46 604.67 137.89"/><line class="cls-4" x1="603.84" y1="137.89" x2="604.68" y2="137.89"/><polyline class="cls-4" points="603.84 139.79 604.17 139.79 604.17 138.13"/><line class="cls-4" x1="603.84" y1="138.13" x2="604.17" y2="138.13"/><line class="cls-4" x1="603.84" y1="139.79" x2="603.84" y2="138.13"/><line class="cls-4" x1="603.84" y1="175.56" x2="604.17" y2="175.56"/><line class="cls-4" x1="604.17" y1="177.22" x2="604.17" y2="175.56"/><line class="cls-4" x1="603.84" y1="177.22" x2="604.17" y2="177.22"/><line class="cls-4" x1="603.84" y1="177.22" x2="603.84" y2="175.56"/><line class="cls-4" x1="601.25" y1="137.89" x2="600.41" y2="137.89"/><line class="cls-4" x1="600.41" y1="177.46" x2="600.41" y2="137.89"/><line class="cls-4" x1="601.25" y1="177.46" x2="600.41" y2="177.46"/><line class="cls-4" x1="601.25" y1="175.56" x2="600.91" y2="175.56"/><line class="cls-4" x1="600.91" y1="177.22" x2="600.91" y2="175.56"/><line class="cls-4" x1="601.25" y1="177.22" x2="600.91" y2="177.22"/><line class="cls-4" x1="601.25" y1="177.22" x2="601.25" y2="175.56"/><polyline class="cls-4" points="601.25 139.79 600.91 139.79 600.91 138.13"/><line class="cls-4" x1="601.25" y1="138.13" x2="600.91" y2="138.13"/><line class="cls-4" x1="601.25" y1="139.79" x2="601.25" y2="138.13"/><text class="cls-5" transform="translate(598.17 165.8) rotate(-90)"><tspan xml:space="preserve"> OPT</tspan></text></g></g></svg>