<svg id="图层_1" data-name="图层 1" xmlns="http://www.w3.org/2000/svg" viewBox="0 0 1152 576"><defs><style>.cls-1{fill:#fff;}.cls-2,.cls-3,.cls-4{fill:none;stroke:#0f5a83;stroke-linejoin:bevel;}.cls-2{stroke-width:0;}.cls-3,.cls-4{stroke-linecap:round;}.cls-3{stroke-width:0.93px;}.cls-4{stroke-width:0.46px;}.cls-5{font-size:6.6px;fill:#0f5a83;font-family:CenturyGothic, Century Gothic;}</style></defs><title>OPT SUNROOM window-2</title><g id="_OPT_SUNROOM-2" data-name=" OPT SUNROOM-2"><g id="_OPT_SUNROOM_window-2" data-name=" OPT SUNROOM window-2"><rect class="cls-1" x="666.92" y="128.24" width="4.39" height="36.05"/><line class="cls-2" x1="667.71" y1="126.1" x2="667.96" y2="126.34"/><line class="cls-3" x1="668.21" y1="164.29" x2="670.01" y2="164.29"/><line class="cls-3" x1="668.21" y1="127.88" x2="670.01" y2="127.88"/><line class="cls-4" x1="667.59" y1="146.08" x2="670.43" y2="146.08"/><line class="cls-4" x1="667.71" y1="146.08" x2="667.71" y2="146.45"/><line class="cls-4" x1="670.3" y1="146.08" x2="670.3" y2="146.45"/><line class="cls-4" x1="667.71" y1="146.08" x2="670.3" y2="146.08"/><line class="cls-4" x1="667.71" y1="146.45" x2="670.3" y2="146.45"/><line class="cls-4" x1="667.71" y1="163.89" x2="667.71" y2="164.29"/><line class="cls-4" x1="670.3" y1="163.89" x2="670.3" y2="164.29"/><line class="cls-4" x1="667.71" y1="163.89" x2="670.3" y2="163.89"/><line class="cls-4" x1="667.71" y1="164.29" x2="670.3" y2="164.29"/><line class="cls-4" x1="668.34" y1="146.45" x2="668.34" y2="163.89"/><line class="cls-4" x1="668.76" y1="146.45" x2="668.76" y2="163.89"/><line class="cls-4" x1="667.59" y1="146.08" x2="670.43" y2="146.08"/><line class="cls-4" x1="667.59" y1="146.08" x2="667.59" y2="146.08"/><line class="cls-4" x1="670.43" y1="146.08" x2="670.43" y2="146.08"/><line class="cls-4" x1="667.71" y1="127.88" x2="667.71" y2="128.24"/><line class="cls-4" x1="670.3" y1="127.88" x2="670.3" y2="128.24"/><line class="cls-4" x1="667.71" y1="127.88" x2="670.3" y2="127.88"/><line class="cls-4" x1="667.71" y1="128.24" x2="670.3" y2="128.24"/><line class="cls-4" x1="667.71" y1="145.68" x2="667.71" y2="146.08"/><line class="cls-4" x1="670.3" y1="145.68" x2="670.3" y2="146.08"/><line class="cls-4" x1="667.71" y1="145.68" x2="670.3" y2="145.68"/><line class="cls-4" x1="667.71" y1="146.08" x2="670.3" y2="146.08"/><line class="cls-4" x1="668.34" y1="128.24" x2="668.34" y2="145.68"/><line class="cls-4" x1="668.76" y1="128.24" x2="668.76" y2="145.68"/><polyline class="cls-4" points="667.71 165.87 666.88 165.87 666.88 126.3"/><line class="cls-4" x1="667.71" y1="126.3" x2="666.87" y2="126.3"/><polyline class="cls-4" points="667.71 128.2 667.38 128.2 667.38 126.54"/><line class="cls-4" x1="667.71" y1="126.54" x2="667.38" y2="126.54"/><line class="cls-4" x1="667.71" y1="128.2" x2="667.71" y2="126.54"/><line class="cls-4" x1="667.71" y1="163.97" x2="667.38" y2="163.97"/><line class="cls-4" x1="667.38" y1="165.62" x2="667.38" y2="163.97"/><line class="cls-4" x1="667.71" y1="165.62" x2="667.38" y2="165.62"/><line class="cls-4" x1="667.71" y1="165.62" x2="667.71" y2="163.97"/><line class="cls-4" x1="670.3" y1="126.3" x2="671.14" y2="126.3"/><line class="cls-4" x1="671.14" y1="165.87" x2="671.14" y2="126.3"/><line class="cls-4" x1="670.3" y1="165.87" x2="671.14" y2="165.87"/><line class="cls-4" x1="670.3" y1="163.97" x2="670.64" y2="163.97"/><line class="cls-4" x1="670.64" y1="165.62" x2="670.64" y2="163.97"/><line class="cls-4" x1="670.3" y1="165.62" x2="670.64" y2="165.62"/><line class="cls-4" x1="670.3" y1="165.62" x2="670.3" y2="163.97"/><polyline class="cls-4" points="670.3 128.2 670.64 128.2 670.64 126.54"/><line class="cls-4" x1="670.3" y1="126.54" x2="670.64" y2="126.54"/><line class="cls-4" x1="670.3" y1="128.2" x2="670.3" y2="126.54"/><text class="cls-5" transform="translate(678.16 154.2) rotate(-90)"><tspan xml:space="preserve"> OPT</tspan></text><rect class="cls-1" x="600.25" y="128.24" width="4.39" height="36.05" transform="translate(1204.88 292.53) rotate(-180)"/><line class="cls-2" x1="603.84" y1="126.1" x2="603.59" y2="126.34"/><line class="cls-2" x1="603.84" y1="164.29" x2="601.25" y2="164.29"/><line class="cls-2" x1="603.84" y1="127.88" x2="601.25" y2="127.88"/><line class="cls-3" x1="603.34" y1="164.29" x2="601.54" y2="164.29"/><line class="cls-3" x1="603.34" y1="127.88" x2="601.54" y2="127.88"/><line class="cls-4" x1="603.96" y1="146.08" x2="601.12" y2="146.08"/><line class="cls-4" x1="603.84" y1="146.08" x2="603.84" y2="146.45"/><line class="cls-4" x1="601.25" y1="146.08" x2="601.25" y2="146.45"/><line class="cls-4" x1="603.84" y1="146.08" x2="601.25" y2="146.08"/><line class="cls-4" x1="603.84" y1="146.45" x2="601.25" y2="146.45"/><line class="cls-4" x1="603.84" y1="163.89" x2="603.84" y2="164.29"/><line class="cls-4" x1="601.25" y1="163.89" x2="601.25" y2="164.29"/><line class="cls-4" x1="603.84" y1="163.89" x2="601.25" y2="163.89"/><line class="cls-4" x1="603.84" y1="164.29" x2="601.25" y2="164.29"/><line class="cls-4" x1="603.21" y1="146.45" x2="603.21" y2="163.89"/><line class="cls-4" x1="602.79" y1="146.45" x2="602.79" y2="163.89"/><line class="cls-4" x1="603.96" y1="146.08" x2="601.12" y2="146.08"/><line class="cls-4" x1="603.96" y1="146.08" x2="603.96" y2="146.08"/><line class="cls-4" x1="601.12" y1="146.08" x2="601.12" y2="146.08"/><line class="cls-4" x1="603.84" y1="127.88" x2="603.84" y2="128.24"/><line class="cls-4" x1="601.25" y1="127.88" x2="601.25" y2="128.24"/><line class="cls-4" x1="603.84" y1="127.88" x2="601.25" y2="127.88"/><line class="cls-4" x1="603.84" y1="128.24" x2="601.25" y2="128.24"/><line class="cls-4" x1="603.84" y1="145.68" x2="603.84" y2="146.08"/><line class="cls-4" x1="601.25" y1="145.68" x2="601.25" y2="146.08"/><line class="cls-4" x1="603.84" y1="145.68" x2="601.25" y2="145.68"/><line class="cls-4" x1="603.84" y1="146.08" x2="601.25" y2="146.08"/><line class="cls-4" x1="603.21" y1="128.24" x2="603.21" y2="145.68"/><line class="cls-4" x1="602.79" y1="128.24" x2="602.79" y2="145.68"/><polyline class="cls-4" points="603.84 165.87 604.67 165.87 604.67 126.3"/><line class="cls-4" x1="603.84" y1="126.3" x2="604.68" y2="126.3"/><polyline class="cls-4" points="603.84 128.2 604.17 128.2 604.17 126.54"/><line class="cls-4" x1="603.84" y1="126.54" x2="604.17" y2="126.54"/><line class="cls-4" x1="603.84" y1="128.2" x2="603.84" y2="126.54"/><line class="cls-4" x1="603.84" y1="163.97" x2="604.17" y2="163.97"/><line class="cls-4" x1="604.17" y1="165.62" x2="604.17" y2="163.97"/><line class="cls-4" x1="603.84" y1="165.62" x2="604.17" y2="165.62"/><line class="cls-4" x1="603.84" y1="165.62" x2="603.84" y2="163.97"/><line class="cls-4" x1="601.25" y1="126.3" x2="600.41" y2="126.3"/><line class="cls-4" x1="600.41" y1="165.87" x2="600.41" y2="126.3"/><line class="cls-4" x1="601.25" y1="165.87" x2="600.41" y2="165.87"/><line class="cls-4" x1="601.25" y1="163.97" x2="600.91" y2="163.97"/><line class="cls-4" x1="600.91" y1="165.62" x2="600.91" y2="163.97"/><line class="cls-4" x1="601.25" y1="165.62" x2="600.91" y2="165.62"/><line class="cls-4" x1="601.25" y1="165.62" x2="601.25" y2="163.97"/><polyline class="cls-4" points="601.25 128.2 600.91 128.2 600.91 126.54"/><line class="cls-4" x1="601.25" y1="126.54" x2="600.91" y2="126.54"/><line class="cls-4" x1="601.25" y1="128.2" x2="601.25" y2="126.54"/><text class="cls-5" transform="translate(598.17 154.2) rotate(-90)"><tspan xml:space="preserve"> OPT</tspan></text></g></g></svg>